M48
;Layer_Color=9474304
;FILE_FORMAT=2:5
INCH,TZ
;TYPE=PLATED
T1F00S00C0.01181
T2F00S00C0.03346
T3F00S00C0.03937
T4F00S00C0.04016
T5F00S00C0.04724
T6F00S00C0.06299
T7F00S00C0.09055
%
T01
X276437Y12657
X298819Y15748
X306693Y64961
X298819Y73228
X289606Y65512
X277697Y56555
X320236Y65276
X341752Y57854
X341595Y13248
X347244Y16142
X353543Y16142
X462598Y103366
X453150Y136221
X455118Y150394
X471535Y110748
X481890Y111024
X529035Y111043
X537795Y103543
X546654Y110945
X535039Y80315
X537795Y50000
X535039Y31890
X550886Y30315
X550787Y23622
X566929Y60236
X565177Y65039
X571654Y78642
Y85433
X585433Y142520
Y148425
Y154331
X519436Y58957
X491339Y62992
Y54331
X494685Y48228
X491339Y33858
X691339Y122441
X585433Y160236
Y166142
X585433Y172047
X538287Y175295
X532579Y181398
X525624Y182250
X515354Y182283
Y190157
X513189Y156595
X537205Y161221
X550000Y199213
Y203937
X533858Y214173
X525624Y218291
X518504Y231102
X504331Y246743
X509055Y258661
Y268898
X478031Y270000
X478524Y254508
X491732Y222835
X492126Y208071
X539705Y249508
X570866Y253150
Y260477
X566929Y233465
X555905Y296063
X508384Y300672
X430512Y304134
X402411Y285433
X384132Y279408
X384341Y253740
X353150Y250000
X334276Y244488
X325417Y244268
X315575
X352756Y275590
X456102Y260827
X303610Y270539
X274016Y280539
X228346Y216595
X231299Y202538
X232283Y194882
X236690Y192126
X20866Y307874
X4724Y307480
T02
X294488Y202835
Y212835
Y222835
Y232835
Y242835
T03
X15480Y26438
X25480
Y36438
Y46438
X15480
Y56438
Y66438
Y76438
Y86438
X25480
Y76438
Y66438
Y56438
X15480Y36438
Y96438
X25480
Y106438
Y116438
Y126438
Y136438
Y146438
X15480
Y136438
Y126438
Y116438
Y106438
X195080Y106638
Y96638
X205080
Y106638
Y116638
Y126638
Y136638
Y146638
X195080
Y136638
Y126638
Y116638
Y86638
Y76638
Y66638
X205080
Y76638
Y86638
Y56638
Y46638
Y36638
X195080
Y26638
X205080
X195080Y46638
Y56638
Y156638
X205080
Y166638
Y176638
Y186638
X195080
Y176638
Y166638
X195179Y202538
X205180
Y212538
Y222538
X195179
Y232538
Y242538
Y252538
Y262538
Y272538
Y282538
Y292538
X205180
Y282538
Y272538
Y262538
Y252538
Y242538
Y232538
X195179Y212538
X25080Y216538
Y226538
Y236538
Y246538
Y256538
X15079
Y246538
Y236538
Y226538
Y216538
Y206538
X25080
Y196538
Y186538
X15079
Y196538
X15480Y166438
X25480
Y156438
X15480
T04
X476063Y305118
X462284
X372716
X358937
T05
X624744Y43366
X609744Y59616
X607244Y70866
X609744Y82116
X627244Y98366
X627402Y271595
X609902Y255345
X607402Y244094
X609902Y232844
X624902Y216595
T06
X637244Y53366
Y88366
X674744Y93366
X672244Y103366
X662244Y70866
X674744Y48366
X674902Y221595
X662402Y244094
X674902Y266595
X672402Y276594
X637402Y261595
Y226594
T07
X485906Y302638
X452441
X382559
X349095
M30
