G04*
G04 #@! TF.GenerationSoftware,Altium Limited,Altium Designer,19.0.15 (446)*
G04*
G04 Layer_Color=8388736*
%FSLAX25Y25*%
%MOIN*%
G70*
G01*
G75*
%ADD40R,0.04537X0.04143*%
%ADD41R,0.04147X0.04147*%
G04:AMPARAMS|DCode=42|XSize=31.62mil|YSize=47.37mil|CornerRadius=9.91mil|HoleSize=0mil|Usage=FLASHONLY|Rotation=90.000|XOffset=0mil|YOffset=0mil|HoleType=Round|Shape=RoundedRectangle|*
%AMROUNDEDRECTD42*
21,1,0.03162,0.02756,0,0,90.0*
21,1,0.01181,0.04737,0,0,90.0*
1,1,0.01981,0.01378,0.00591*
1,1,0.01981,0.01378,-0.00591*
1,1,0.01981,-0.01378,-0.00591*
1,1,0.01981,-0.01378,0.00591*
%
%ADD42ROUNDEDRECTD42*%
%ADD43R,0.04737X0.03162*%
%ADD44R,0.04143X0.04537*%
%ADD45R,0.07887X0.06312*%
%ADD46R,0.04147X0.04147*%
%ADD47R,0.06312X0.07887*%
%ADD48R,0.04737X0.04737*%
%ADD49R,0.04934X0.03162*%
%ADD50R,0.06312X0.05328*%
%ADD51R,0.14186X0.05918*%
G04:AMPARAMS|DCode=52|XSize=31.62mil|YSize=69.02mil|CornerRadius=9.91mil|HoleSize=0mil|Usage=FLASHONLY|Rotation=0.000|XOffset=0mil|YOffset=0mil|HoleType=Round|Shape=RoundedRectangle|*
%AMROUNDEDRECTD52*
21,1,0.03162,0.04921,0,0,0.0*
21,1,0.01181,0.06902,0,0,0.0*
1,1,0.01981,0.00591,-0.02461*
1,1,0.01981,-0.00591,-0.02461*
1,1,0.01981,-0.00591,0.02461*
1,1,0.01981,0.00591,0.02461*
%
%ADD52ROUNDEDRECTD52*%
%ADD53R,0.03162X0.06902*%
%ADD54O,0.09461X0.03162*%
%ADD55R,0.03950X0.03950*%
%ADD56O,0.08083X0.02572*%
%ADD57R,0.06706X0.05328*%
%ADD58R,0.05328X0.09461*%
%ADD59R,0.05367X0.05524*%
%ADD60R,0.05367X0.05721*%
%ADD61R,0.04540X0.10642*%
%ADD62R,0.03950X0.05682*%
%ADD63C,0.10052*%
%ADD64C,0.07887*%
%ADD65R,0.07099X0.07099*%
%ADD66C,0.07099*%
%ADD67R,0.07493X0.07493*%
%ADD68C,0.07493*%
%ADD69C,0.06800*%
%ADD70R,0.06800X0.06800*%
%ADD71C,0.03162*%
D40*
X535039Y36024D02*
D03*
Y41339D02*
D03*
X540158Y57185D02*
D03*
Y62500D02*
D03*
X529035Y115059D02*
D03*
Y120374D02*
D03*
X546654Y114961D02*
D03*
Y120276D02*
D03*
X533858Y218799D02*
D03*
Y224114D02*
D03*
X478031Y273937D02*
D03*
Y279252D02*
D03*
X478524Y259154D02*
D03*
Y264469D02*
D03*
X542520Y230709D02*
D03*
Y236024D02*
D03*
X492126Y212303D02*
D03*
Y217618D02*
D03*
X535039Y249508D02*
D03*
Y244193D02*
D03*
Y75984D02*
D03*
Y70669D02*
D03*
X491339Y39075D02*
D03*
Y44390D02*
D03*
X353543Y11713D02*
D03*
Y6398D02*
D03*
X347244D02*
D03*
Y11713D02*
D03*
X481890Y120768D02*
D03*
Y115453D02*
D03*
X471535Y120571D02*
D03*
Y115256D02*
D03*
D41*
X515748Y38287D02*
D03*
Y44390D02*
D03*
X542913Y208465D02*
D03*
Y214567D02*
D03*
X515748Y211663D02*
D03*
Y217766D02*
D03*
X542520Y35433D02*
D03*
Y41535D02*
D03*
X273622Y26673D02*
D03*
Y20571D02*
D03*
D42*
X509744Y51968D02*
D03*
Y44488D02*
D03*
X498917D02*
D03*
Y48228D02*
D03*
X509154Y225197D02*
D03*
Y217717D02*
D03*
X498327D02*
D03*
Y221457D02*
D03*
D43*
X498917Y51968D02*
D03*
X498327Y225197D02*
D03*
D44*
X459043Y150197D02*
D03*
X464358D02*
D03*
X532579Y161221D02*
D03*
X527264D02*
D03*
X532579Y176969D02*
D03*
X527264D02*
D03*
X560630Y260236D02*
D03*
X565945D02*
D03*
X560492Y253543D02*
D03*
X565807D02*
D03*
X555413Y208465D02*
D03*
X550098D02*
D03*
X561909Y85433D02*
D03*
X567224D02*
D03*
X561909Y78642D02*
D03*
X567224D02*
D03*
X284154Y280539D02*
D03*
X278839D02*
D03*
X514468Y231102D02*
D03*
X509154D02*
D03*
X570492Y214173D02*
D03*
X565177D02*
D03*
X571949Y40551D02*
D03*
X566634D02*
D03*
X556201Y35433D02*
D03*
X550886D02*
D03*
X374311Y279408D02*
D03*
X379626D02*
D03*
X374311Y253740D02*
D03*
X379626D02*
D03*
X509547Y58957D02*
D03*
X514862D02*
D03*
D45*
X537795Y109153D02*
D03*
Y119980D02*
D03*
X462598D02*
D03*
Y109153D02*
D03*
D46*
X513091Y167126D02*
D03*
X519193D02*
D03*
X542618Y222538D02*
D03*
X548721D02*
D03*
X585236Y244094D02*
D03*
X591339D02*
D03*
X542520D02*
D03*
X548622D02*
D03*
X518996Y307087D02*
D03*
X512894D02*
D03*
X413484Y292028D02*
D03*
X407382D02*
D03*
X581220Y172047D02*
D03*
X575117D02*
D03*
X581220Y166142D02*
D03*
X575117D02*
D03*
X581220Y160236D02*
D03*
X575117D02*
D03*
X581220Y154331D02*
D03*
X575117D02*
D03*
X581220Y148425D02*
D03*
X575117D02*
D03*
X581220Y142815D02*
D03*
X575117D02*
D03*
X585236Y217126D02*
D03*
X591339D02*
D03*
X564390Y206299D02*
D03*
X570492D02*
D03*
X543405Y49409D02*
D03*
X549508D02*
D03*
X591043Y70866D02*
D03*
X597146D02*
D03*
X565846Y32283D02*
D03*
X571949D02*
D03*
X591831Y43366D02*
D03*
X597933D02*
D03*
X543405Y70866D02*
D03*
X549508D02*
D03*
D47*
X538287Y168963D02*
D03*
X527461D02*
D03*
X453150Y142520D02*
D03*
X463976D02*
D03*
D48*
X562992Y304134D02*
D03*
X535236Y303937D02*
D03*
X551575Y168963D02*
D03*
X406988Y304134D02*
D03*
D49*
X469764Y279331D02*
D03*
Y271850D02*
D03*
X460709D02*
D03*
Y275590D02*
D03*
Y279331D02*
D03*
X470079Y264567D02*
D03*
Y257087D02*
D03*
X461024D02*
D03*
Y260827D02*
D03*
Y264567D02*
D03*
X357362Y279331D02*
D03*
Y275590D02*
D03*
Y271850D02*
D03*
X366417D02*
D03*
Y279331D02*
D03*
X357362Y253740D02*
D03*
Y250000D02*
D03*
Y246260D02*
D03*
X366417D02*
D03*
Y253740D02*
D03*
D50*
X334276Y256339D02*
D03*
Y249449D02*
D03*
X325417Y256339D02*
D03*
Y249449D02*
D03*
X315575Y256339D02*
D03*
Y249449D02*
D03*
X282480Y274055D02*
D03*
Y267165D02*
D03*
D51*
X564390Y60039D02*
D03*
X562992Y233465D02*
D03*
D52*
X556890Y49409D02*
D03*
X561890D02*
D03*
X566890D02*
D03*
X571890D02*
D03*
X556890Y70669D02*
D03*
X561890D02*
D03*
X566890D02*
D03*
X555492Y222835D02*
D03*
X560492D02*
D03*
X565492D02*
D03*
X570492D02*
D03*
X555492Y244094D02*
D03*
X560492D02*
D03*
X565492D02*
D03*
D53*
X571890Y70669D02*
D03*
X570492Y244094D02*
D03*
D54*
X296677Y280539D02*
D03*
Y275539D02*
D03*
Y270539D02*
D03*
Y265539D02*
D03*
X315575Y280539D02*
D03*
Y275539D02*
D03*
Y270539D02*
D03*
Y265539D02*
D03*
D55*
X512992Y300672D02*
D03*
X518898D02*
D03*
X407480Y285433D02*
D03*
X413386D02*
D03*
D56*
X491043Y159153D02*
D03*
Y156595D02*
D03*
Y154035D02*
D03*
Y151476D02*
D03*
Y148917D02*
D03*
Y146358D02*
D03*
Y143799D02*
D03*
Y141240D02*
D03*
Y138681D02*
D03*
Y136122D02*
D03*
Y133563D02*
D03*
Y131004D02*
D03*
Y128445D02*
D03*
Y125886D02*
D03*
X519587Y159153D02*
D03*
Y156595D02*
D03*
Y154035D02*
D03*
Y151476D02*
D03*
Y148917D02*
D03*
Y146358D02*
D03*
Y143799D02*
D03*
Y141240D02*
D03*
Y138681D02*
D03*
Y136122D02*
D03*
Y133563D02*
D03*
Y131004D02*
D03*
Y128445D02*
D03*
Y125886D02*
D03*
D57*
X289606Y60984D02*
D03*
X320236D02*
D03*
D58*
X337185Y57854D02*
D03*
X280925Y12657D02*
D03*
D59*
X282520Y56555D02*
D03*
D60*
Y21122D02*
D03*
D61*
X337579Y13248D02*
D03*
D62*
X290158Y10768D02*
D03*
X294488D02*
D03*
X298819D02*
D03*
X303150D02*
D03*
X307480D02*
D03*
X311811D02*
D03*
X316142D02*
D03*
X320472D02*
D03*
D63*
X674902Y221595D02*
D03*
X662402Y244094D02*
D03*
X674902Y266595D02*
D03*
X672402Y276594D02*
D03*
X637402Y226594D02*
D03*
Y261595D02*
D03*
X637244Y88366D02*
D03*
Y53366D02*
D03*
X672244Y103366D02*
D03*
X674744Y93366D02*
D03*
X662244Y70866D02*
D03*
X674744Y48366D02*
D03*
D64*
X609902Y232844D02*
D03*
Y255345D02*
D03*
X607402Y244094D02*
D03*
X624902Y216595D02*
D03*
X627402Y271595D02*
D03*
X627244Y98366D02*
D03*
X624744Y43366D02*
D03*
X607244Y70866D02*
D03*
X609744Y82116D02*
D03*
Y59616D02*
D03*
D65*
X358937Y305118D02*
D03*
X462284D02*
D03*
D66*
X372716D02*
D03*
X349095Y302638D02*
D03*
X382559D02*
D03*
X476063Y305118D02*
D03*
X452441Y302638D02*
D03*
X485906D02*
D03*
D67*
X195179Y292538D02*
D03*
X15079Y256538D02*
D03*
X195080Y186638D02*
D03*
X15480Y166438D02*
D03*
D68*
X195179Y282538D02*
D03*
Y272538D02*
D03*
Y262538D02*
D03*
Y252538D02*
D03*
Y242538D02*
D03*
Y232538D02*
D03*
Y222538D02*
D03*
X205180D02*
D03*
Y232538D02*
D03*
Y242538D02*
D03*
Y252538D02*
D03*
Y262538D02*
D03*
Y272538D02*
D03*
Y282538D02*
D03*
Y292538D02*
D03*
Y212538D02*
D03*
Y202538D02*
D03*
X195179D02*
D03*
Y212538D02*
D03*
X25080Y256538D02*
D03*
Y246538D02*
D03*
Y236538D02*
D03*
Y226538D02*
D03*
Y216538D02*
D03*
Y206538D02*
D03*
Y196538D02*
D03*
Y186538D02*
D03*
X15079D02*
D03*
Y196538D02*
D03*
Y206538D02*
D03*
Y216538D02*
D03*
Y226538D02*
D03*
Y236538D02*
D03*
Y246538D02*
D03*
X195080Y36638D02*
D03*
Y26638D02*
D03*
X205080D02*
D03*
Y36638D02*
D03*
X195080Y106638D02*
D03*
Y96638D02*
D03*
X205080D02*
D03*
Y106638D02*
D03*
Y186638D02*
D03*
Y176638D02*
D03*
Y166638D02*
D03*
Y156638D02*
D03*
Y146638D02*
D03*
Y136638D02*
D03*
Y126638D02*
D03*
Y116638D02*
D03*
X195080D02*
D03*
Y126638D02*
D03*
Y136638D02*
D03*
Y146638D02*
D03*
Y156638D02*
D03*
Y166638D02*
D03*
Y176638D02*
D03*
Y86638D02*
D03*
Y76638D02*
D03*
Y66638D02*
D03*
X205080D02*
D03*
Y76638D02*
D03*
Y86638D02*
D03*
Y56638D02*
D03*
Y46638D02*
D03*
X195080D02*
D03*
Y56638D02*
D03*
X15480Y86438D02*
D03*
Y76438D02*
D03*
X25480D02*
D03*
Y86438D02*
D03*
Y166438D02*
D03*
Y156438D02*
D03*
Y146438D02*
D03*
Y136438D02*
D03*
Y126438D02*
D03*
Y116438D02*
D03*
Y106438D02*
D03*
Y96438D02*
D03*
X15480D02*
D03*
Y106438D02*
D03*
Y116438D02*
D03*
Y126438D02*
D03*
Y136438D02*
D03*
Y146438D02*
D03*
Y156438D02*
D03*
Y66438D02*
D03*
Y56438D02*
D03*
Y46438D02*
D03*
X25480D02*
D03*
Y56438D02*
D03*
Y66438D02*
D03*
Y36438D02*
D03*
Y26438D02*
D03*
X15480D02*
D03*
Y36438D02*
D03*
D69*
X294488Y202835D02*
D03*
Y212835D02*
D03*
Y222835D02*
D03*
Y232835D02*
D03*
D70*
Y242835D02*
D03*
D71*
X570866Y253150D02*
D03*
Y260477D02*
D03*
X303610Y270539D02*
D03*
X402411Y285433D02*
D03*
X585433Y142520D02*
D03*
Y148425D02*
D03*
Y154331D02*
D03*
Y160236D02*
D03*
Y166142D02*
D03*
X585433Y172047D02*
D03*
X538287Y175295D02*
D03*
X513189Y156595D02*
D03*
X491339Y33858D02*
D03*
X571654Y78642D02*
D03*
Y85433D02*
D03*
X508384Y300672D02*
D03*
X509055Y268898D02*
D03*
X277697Y56555D02*
D03*
X341595Y13248D02*
D03*
X341752Y57854D02*
D03*
X347244Y16142D02*
D03*
X353543Y16142D02*
D03*
X535039Y31890D02*
D03*
X494685Y48228D02*
D03*
X519436Y58957D02*
D03*
X546654Y110945D02*
D03*
X537795Y103543D02*
D03*
X529035Y111043D02*
D03*
X481890Y111024D02*
D03*
X471535Y110748D02*
D03*
X462598Y103366D02*
D03*
X453150Y136221D02*
D03*
X537205Y161221D02*
D03*
X532579Y181398D02*
D03*
X491732Y222835D02*
D03*
X492126Y208071D02*
D03*
X518504Y231102D02*
D03*
X478524Y254508D02*
D03*
X478031Y270000D02*
D03*
X384341Y253740D02*
D03*
X384132Y279408D02*
D03*
X334276Y244488D02*
D03*
X325417Y244268D02*
D03*
X315575D02*
D03*
X565177Y65039D02*
D03*
X504331Y246743D02*
D03*
X298819Y73228D02*
D03*
X228346Y216595D02*
D03*
X20866Y307874D02*
D03*
X4724Y307480D02*
D03*
X352756Y275590D02*
D03*
X320236Y65276D02*
D03*
X289606Y65512D02*
D03*
X456102Y260827D02*
D03*
X537795Y50000D02*
D03*
X535039Y80315D02*
D03*
X353150Y250000D02*
D03*
X298819Y15748D02*
D03*
X276437Y12657D02*
D03*
X533858Y214173D02*
D03*
X539705Y249508D02*
D03*
X274016Y280539D02*
D03*
X491339Y62992D02*
D03*
Y54331D02*
D03*
X566929Y60236D02*
D03*
X691339Y122441D02*
D03*
X509055Y258661D02*
D03*
X555905Y296063D02*
D03*
X430512Y304134D02*
D03*
X306693Y64961D02*
D03*
X525624Y182250D02*
D03*
Y218291D02*
D03*
X515354Y190157D02*
D03*
X550886Y30315D02*
D03*
X236690Y192126D02*
D03*
X515354Y182283D02*
D03*
X550787Y23622D02*
D03*
X550000Y199213D02*
D03*
Y203937D02*
D03*
X566929Y233465D02*
D03*
X232283Y194882D02*
D03*
X231299Y202538D02*
D03*
M02*
