M48
;Layer_Color=9474304
;FILE_FORMAT=2:5
INCH,TZ
;TYPE=PLATED
T1F00S00C0.01181
T2F00S00C0.03937
T3F00S00C0.03937
T4F00S00C0.14961
%
T01
X424705Y492
Y18117
Y37802
Y57487
Y77172
X393701Y0
X374016
X354331
X334646
X314961
X295276
X275590
X259069Y-131
X258366Y81798
X256398Y69987
X226870Y81798
X218504Y86614
X212598Y92520
X201279Y93609
Y85735
X213090Y69987
X153051Y62113
X126673Y56995
X118110Y0
X137795
X157480
X177165
X196850
X216535
X236221
X98425
X78740
X59055
X39370
X19685
X0
Y17625
Y37310
Y56995
Y76680
X78248Y78649
X77854Y119987
X77461Y161326
X91043Y212704
Y234160
X76870
X57185
X37500
X17815
X0
Y214475
Y194790
Y175105
Y155420
Y135735
Y116050
Y96365
X126673Y98334
X153051Y103846
X153839Y145184
X127067Y139279
X157972Y176286
Y200893
X149282Y200696
X155610Y212704
X135925
X116240
X175295
X194980
X214665
X234941
X254626
X224902Y114279
Y107389
X218996Y102468
X228839Y97546
X239665Y99515
X218996Y119200
X205217
X260835Y113885
X277067Y117231
X283179
X285925Y125967
X274618Y136945
X306594Y131011
X331004Y125499
X349902Y141631
Y148727
X353839Y161523
X333366Y212704
X313681
X293996
X274311
X274705Y199121
X333366Y234160
X353051
X372736
X392421
X424705
Y214968
Y195283
Y175598
Y155912
Y136228
Y116542
Y96857
T02
X384784Y145657
Y155657
Y165656
Y175656
Y185656
X394784
Y175656
Y165656
Y155657
Y145657
T03
X114665Y63098
Y88688
X96949
Y63098
Y104436
Y130027
Y145775
Y171365
X114665
Y145775
Y130027
Y104436
X309547Y145775
X327264
Y171365
X309547
T04
X389272Y18806
X34941
Y215656
X389272
M30
