G04*
G04 #@! TF.GenerationSoftware,Altium Limited,Altium Designer,20.0.11 (256)*
G04*
G04 Layer_Color=16711935*
%FSLAX25Y25*%
%MOIN*%
G70*
G01*
G75*
%ADD52C,0.00394*%
%ADD54C,0.00000*%
%ADD55R,0.03150X0.00847*%
D52*
X270256Y119987D02*
X274036D01*
X270256Y113098D02*
X274036D01*
Y119987D01*
X270256Y113098D02*
Y119987D01*
X263169D02*
X266949D01*
X263169Y113098D02*
X266949D01*
Y119987D01*
X263169Y113098D02*
Y119987D01*
X168209Y188786D02*
X171358D01*
X168209Y195086D02*
X171358D01*
X168209Y188786D02*
Y195086D01*
X171358Y188786D02*
Y195086D01*
X308642Y125301D02*
X312421D01*
X308642Y132190D02*
X312421D01*
X308642Y125301D02*
Y132190D01*
X312421Y125301D02*
Y132190D01*
X325689Y125991D02*
X328839D01*
X325689Y132290D02*
X328839D01*
X325689Y125991D02*
Y132290D01*
X328839Y125991D02*
Y132290D01*
X316831D02*
X319980D01*
X316831Y125991D02*
X319980D01*
Y132290D01*
X316831Y125991D02*
Y132290D01*
X252854Y188786D02*
X256004D01*
X252854Y195086D02*
X256004D01*
X252854Y188786D02*
Y195086D01*
X256004Y188786D02*
Y195086D01*
X148209Y139082D02*
X151988D01*
X148209Y145971D02*
X151988D01*
X148209Y139082D02*
Y145971D01*
X151988Y139082D02*
Y145971D01*
X137697Y145873D02*
X140847D01*
X137697Y139574D02*
X140847D01*
Y145873D01*
X137697Y139574D02*
Y145873D01*
X128839Y139574D02*
X131988D01*
X128839Y145873D02*
X131988D01*
X128839Y139574D02*
Y145873D01*
X131988Y139574D02*
Y145873D01*
X147224Y97546D02*
X151004D01*
X147224Y104436D02*
X151004D01*
X147224Y97546D02*
Y104436D01*
X151004Y97546D02*
Y104436D01*
X128839Y98235D02*
X131988D01*
X128839Y104534D02*
X131988D01*
X128839Y98235D02*
Y104534D01*
X131988Y98235D02*
Y104534D01*
X137697D02*
X140847D01*
X137697Y98235D02*
X140847D01*
Y104534D01*
X137697Y98235D02*
Y104534D01*
X147224Y56208D02*
X151004D01*
X147224Y63098D02*
X151004D01*
X147224Y56208D02*
Y63098D01*
X151004Y56208D02*
Y63098D01*
X137697Y63196D02*
X140847D01*
X137697Y56897D02*
X140847D01*
Y63196D01*
X137697Y56897D02*
Y63196D01*
X128839Y56897D02*
X131988D01*
X128839Y63196D02*
X131988D01*
X128839Y56897D02*
Y63196D01*
X131988Y56897D02*
Y63196D01*
X81004Y99909D02*
Y103058D01*
X74705Y99909D02*
Y103058D01*
Y99909D02*
X81004D01*
X74705Y103058D02*
X81004D01*
Y140066D02*
Y143216D01*
X74705Y140066D02*
Y143216D01*
Y140066D02*
X81004D01*
X74705Y143216D02*
X81004D01*
X256988Y95488D02*
Y101788D01*
X253838Y95488D02*
Y101788D01*
X256988D01*
X253838Y95488D02*
X256988D01*
X213189Y72350D02*
Y75499D01*
X206890Y72350D02*
Y75499D01*
Y72350D02*
X213189D01*
X206890Y75499D02*
X213189D01*
X193799Y89574D02*
X196949D01*
X193799Y95873D02*
X196949D01*
X193799Y89574D02*
Y95873D01*
X196949Y89574D02*
Y95873D01*
X186909D02*
X190059D01*
X186909Y89574D02*
X190059D01*
Y95873D01*
X186909Y89574D02*
Y95873D01*
X343701Y134357D02*
Y137507D01*
X350000Y134357D02*
Y137507D01*
X343701D02*
X350000D01*
X343701Y134357D02*
X350000D01*
X81004Y58570D02*
Y61720D01*
X74705Y58570D02*
Y61720D01*
Y58570D02*
X81004D01*
X74705Y61720D02*
X81004D01*
X214272Y105696D02*
Y109475D01*
X221162Y105696D02*
Y109475D01*
X214272D02*
X221162D01*
X214272Y105696D02*
X221162D01*
X214272Y112389D02*
Y116168D01*
X221162Y112389D02*
Y116168D01*
X214272D02*
X221162D01*
X214272Y112389D02*
X221162D01*
X75846Y72788D02*
Y79087D01*
X72697Y72788D02*
Y79087D01*
X75846D01*
X72697Y72788D02*
X75846D01*
Y114126D02*
Y120425D01*
X72697Y114126D02*
Y120425D01*
X75846D01*
X72697Y114126D02*
X75846D01*
Y155465D02*
Y161764D01*
X72697Y155465D02*
Y161764D01*
X75846D01*
X72697Y155465D02*
X75846D01*
X151437Y194835D02*
X154586D01*
X151437Y201134D02*
X154586D01*
X151437Y194835D02*
Y201134D01*
X154586Y194835D02*
Y201134D01*
X269586Y194835D02*
X272736D01*
X269586Y201134D02*
X272736D01*
X269586Y194835D02*
Y201134D01*
X272736Y194835D02*
Y201134D01*
X348327Y155662D02*
X351476D01*
X348327Y161961D02*
X351476D01*
X348327Y155662D02*
Y161961D01*
X351476Y155662D02*
Y161961D01*
D54*
X242350Y94341D02*
G03*
X242350Y94941I0J300D01*
G01*
Y92341D02*
G03*
X242350Y92941I0J300D01*
G01*
Y90341D02*
G03*
X242350Y90941I0J300D01*
G01*
Y88341D02*
G03*
X242350Y88941I0J300D01*
G01*
Y86341D02*
G03*
X242350Y86941I0J300D01*
G01*
Y84341D02*
G03*
X242350Y84941I0J300D01*
G01*
Y82341D02*
G03*
X242350Y82941I0J300D01*
G01*
X246250Y94941D02*
G03*
X246250Y94341I0J-300D01*
G01*
Y92941D02*
G03*
X246250Y92341I0J-300D01*
G01*
Y90941D02*
G03*
X246250Y90341I0J-300D01*
G01*
Y88941D02*
G03*
X246250Y88341I0J-300D01*
G01*
Y86941D02*
G03*
X246250Y86341I0J-300D01*
G01*
Y84941D02*
G03*
X246250Y84341I0J-300D01*
G01*
Y82941D02*
G03*
X246250Y82341I0J-300D01*
G01*
D55*
X255413Y101364D02*
D03*
X74271Y78663D02*
D03*
X74271Y120002D02*
D03*
Y161341D02*
D03*
X153012Y200710D02*
D03*
X271161Y200711D02*
D03*
X349902Y161537D02*
D03*
M02*
