G04*
G04 #@! TF.GenerationSoftware,Altium Limited,Altium Designer,20.0.11 (256)*
G04*
G04 Layer_Color=8388736*
%FSLAX25Y25*%
%MOIN*%
G70*
G01*
G75*
%ADD27C,0.04921*%
%ADD28R,0.04537X0.04143*%
%ADD29R,0.03950X0.01981*%
%ADD30R,0.01981X0.03950*%
%ADD31R,0.11430X0.11430*%
%ADD32R,0.04147X0.04147*%
%ADD33R,0.04147X0.04147*%
%ADD34R,0.03950X0.03950*%
%ADD35R,0.03800X0.02200*%
%ADD36R,0.04143X0.04537*%
G04:AMPARAMS|DCode=37|XSize=25.72mil|YSize=63.12mil|CornerRadius=8.43mil|HoleSize=0mil|Usage=FLASHONLY|Rotation=180.000|XOffset=0mil|YOffset=0mil|HoleType=Round|Shape=RoundedRectangle|*
%AMROUNDEDRECTD37*
21,1,0.02572,0.04626,0,0,180.0*
21,1,0.00886,0.06312,0,0,180.0*
1,1,0.01686,-0.00443,0.02313*
1,1,0.01686,0.00443,0.02313*
1,1,0.01686,0.00443,-0.02313*
1,1,0.01686,-0.00443,-0.02313*
%
%ADD37ROUNDEDRECTD37*%
%ADD38R,0.02572X0.06312*%
%ADD39C,0.06800*%
%ADD40C,0.06706*%
%ADD41C,0.07493*%
%ADD42R,0.07493X0.07493*%
%ADD43C,0.28359*%
%ADD44C,0.03162*%
D27*
X-787Y-584D02*
X425098D01*
X-787D02*
Y234259D01*
X-394Y234653D01*
X91043D01*
X333169Y212704D02*
Y234653D01*
X91043Y212704D02*
Y234653D01*
Y212704D02*
X333169D01*
Y234653D02*
X425098D01*
X425098Y-584D01*
D28*
X272146Y119200D02*
D03*
Y113885D02*
D03*
X265059Y119200D02*
D03*
Y113885D02*
D03*
X310531Y126088D02*
D03*
Y131403D02*
D03*
X150098Y139869D02*
D03*
Y145184D02*
D03*
X149114Y98334D02*
D03*
Y103649D02*
D03*
Y56995D02*
D03*
Y62310D02*
D03*
D29*
X207185Y93609D02*
D03*
Y91641D02*
D03*
Y89672D02*
D03*
Y87704D02*
D03*
Y85735D02*
D03*
X222933D02*
D03*
Y87704D02*
D03*
Y89672D02*
D03*
Y91641D02*
D03*
Y93609D02*
D03*
D30*
X211122Y81798D02*
D03*
X213090D02*
D03*
X215059D02*
D03*
X217027D02*
D03*
X218996D02*
D03*
Y97546D02*
D03*
X217027D02*
D03*
X215059D02*
D03*
X213090D02*
D03*
X211122D02*
D03*
D31*
X215059Y89672D02*
D03*
D32*
X169783Y188885D02*
D03*
Y194987D02*
D03*
X327264Y126090D02*
D03*
Y132192D02*
D03*
X318406D02*
D03*
Y126090D02*
D03*
X254429Y188885D02*
D03*
Y194987D02*
D03*
X139272Y145775D02*
D03*
Y139672D02*
D03*
X130413D02*
D03*
Y145775D02*
D03*
Y98334D02*
D03*
Y104436D02*
D03*
X139272D02*
D03*
Y98334D02*
D03*
Y63098D02*
D03*
Y56995D02*
D03*
X130413D02*
D03*
Y63098D02*
D03*
X195374Y89672D02*
D03*
Y95775D02*
D03*
X188484D02*
D03*
Y89672D02*
D03*
D33*
X80905Y101483D02*
D03*
X74803D02*
D03*
X80905Y141641D02*
D03*
X74803D02*
D03*
X213090Y73924D02*
D03*
X206988D02*
D03*
X343799Y135932D02*
D03*
X349902D02*
D03*
X80905Y60145D02*
D03*
X74803D02*
D03*
D34*
X255413Y101546D02*
D03*
Y95641D02*
D03*
X74272Y78846D02*
D03*
Y72940D02*
D03*
Y120184D02*
D03*
Y114278D02*
D03*
Y161523D02*
D03*
Y155617D02*
D03*
X153012Y194987D02*
D03*
Y200893D02*
D03*
X271161Y194987D02*
D03*
Y200893D02*
D03*
X349902Y155814D02*
D03*
Y161720D02*
D03*
D35*
X247950Y81641D02*
D03*
Y83641D02*
D03*
Y85641D02*
D03*
Y87641D02*
D03*
Y89641D02*
D03*
Y91641D02*
D03*
Y93641D02*
D03*
Y95641D02*
D03*
X240650D02*
D03*
Y93641D02*
D03*
Y91641D02*
D03*
Y89641D02*
D03*
Y87641D02*
D03*
Y85641D02*
D03*
Y83641D02*
D03*
Y81641D02*
D03*
D36*
X215059Y107586D02*
D03*
X220374D02*
D03*
X215059Y114279D02*
D03*
X220374D02*
D03*
D37*
X256201Y142428D02*
D03*
X253642D02*
D03*
X251083D02*
D03*
X248524D02*
D03*
X245965D02*
D03*
X243406D02*
D03*
X240846D02*
D03*
X238287D02*
D03*
X235728D02*
D03*
X256201Y119200D02*
D03*
X253642D02*
D03*
X251083D02*
D03*
X248524D02*
D03*
X245965D02*
D03*
X243406D02*
D03*
X240846D02*
D03*
X238287D02*
D03*
D38*
X235728D02*
D03*
D39*
X357776Y166444D02*
D03*
X341634Y150696D02*
D03*
X279232Y205814D02*
D03*
X263090Y190066D02*
D03*
X161122Y205814D02*
D03*
X144980Y190066D02*
D03*
X82579Y83767D02*
D03*
X66437Y68019D02*
D03*
X82579Y125105D02*
D03*
X66437Y109357D02*
D03*
X82579Y166444D02*
D03*
X66437Y150696D02*
D03*
D40*
X114665Y145775D02*
D03*
Y171365D02*
D03*
X96949D02*
D03*
Y145775D02*
D03*
X114665Y104436D02*
D03*
Y130027D02*
D03*
X96949D02*
D03*
Y104436D02*
D03*
X114665Y63098D02*
D03*
Y88688D02*
D03*
X96949D02*
D03*
Y63098D02*
D03*
X309547Y145775D02*
D03*
Y171365D02*
D03*
X327264D02*
D03*
Y145775D02*
D03*
D41*
X384784Y145657D02*
D03*
Y155657D02*
D03*
Y165656D02*
D03*
Y175656D02*
D03*
X394784Y185656D02*
D03*
Y175656D02*
D03*
Y165656D02*
D03*
Y155657D02*
D03*
Y145657D02*
D03*
D42*
X384784Y185656D02*
D03*
D43*
X389272Y215656D02*
D03*
X34941Y18806D02*
D03*
X389272D02*
D03*
X34941Y215656D02*
D03*
D44*
X116240Y212704D02*
D03*
X218504Y86614D02*
D03*
X212598Y92520D02*
D03*
X424705Y214968D02*
D03*
Y195283D02*
D03*
Y175598D02*
D03*
Y155912D02*
D03*
Y136228D02*
D03*
Y116542D02*
D03*
Y96857D02*
D03*
Y77172D02*
D03*
Y57487D02*
D03*
Y37802D02*
D03*
Y18117D02*
D03*
Y492D02*
D03*
X393701Y0D02*
D03*
X374016D02*
D03*
X354331D02*
D03*
X334646D02*
D03*
X314961D02*
D03*
X295276D02*
D03*
X275590D02*
D03*
X259069Y-131D02*
D03*
X236221Y0D02*
D03*
X216535D02*
D03*
X196850D02*
D03*
X177165D02*
D03*
X157480D02*
D03*
X137795D02*
D03*
X118110D02*
D03*
X98425D02*
D03*
X78740D02*
D03*
X59055D02*
D03*
X39370D02*
D03*
X19685D02*
D03*
X0D02*
D03*
Y17625D02*
D03*
Y37310D02*
D03*
Y56995D02*
D03*
Y76680D02*
D03*
Y96365D02*
D03*
Y116050D02*
D03*
Y135735D02*
D03*
Y155420D02*
D03*
Y175105D02*
D03*
Y194790D02*
D03*
Y214475D02*
D03*
Y234160D02*
D03*
X424705D02*
D03*
X91043D02*
D03*
X333366D02*
D03*
X392421D02*
D03*
X372736D02*
D03*
X353051D02*
D03*
X333366Y212704D02*
D03*
X313681D02*
D03*
X293996D02*
D03*
X274311D02*
D03*
X254626D02*
D03*
X17815Y234160D02*
D03*
X37500D02*
D03*
X57185D02*
D03*
X76870D02*
D03*
X91043Y212704D02*
D03*
X135925D02*
D03*
X155610D02*
D03*
X175295D02*
D03*
X194980D02*
D03*
X214665D02*
D03*
X234941D02*
D03*
M02*
