G04*
G04 #@! TF.GenerationSoftware,Altium Limited,Altium Designer,20.0.11 (256)*
G04*
G04 Layer_Color=16711935*
%FSLAX25Y25*%
%MOIN*%
G70*
G01*
G75*
%ADD27C,0.04921*%
%ADD39C,0.06800*%
%ADD40C,0.06706*%
%ADD41C,0.07493*%
%ADD42R,0.07493X0.07493*%
%ADD43C,0.28359*%
%ADD44C,0.03162*%
D27*
X-689Y-584D02*
X425197D01*
X-689Y234653D02*
X-689Y-584D01*
X425197D02*
Y234653D01*
X-689D02*
X91043D01*
X333169D02*
X425197D01*
X91043Y212704D02*
X333169D01*
X91043D02*
Y234653D01*
X333169Y212704D02*
Y234653D01*
D39*
X357776Y166444D02*
D03*
X341634Y150696D02*
D03*
X279232Y205814D02*
D03*
X263090Y190066D02*
D03*
X161122Y205814D02*
D03*
X144980Y190066D02*
D03*
X82579Y83767D02*
D03*
X66437Y68019D02*
D03*
X82579Y125105D02*
D03*
X66437Y109357D02*
D03*
X82579Y166444D02*
D03*
X66437Y150696D02*
D03*
D40*
X114665Y145775D02*
D03*
Y171365D02*
D03*
X96949D02*
D03*
Y145775D02*
D03*
X114665Y104436D02*
D03*
Y130027D02*
D03*
X96949D02*
D03*
Y104436D02*
D03*
X114665Y63098D02*
D03*
Y88688D02*
D03*
X96949D02*
D03*
Y63098D02*
D03*
X309547Y145775D02*
D03*
Y171365D02*
D03*
X327264D02*
D03*
Y145775D02*
D03*
D41*
X384784Y145657D02*
D03*
Y155657D02*
D03*
Y165656D02*
D03*
Y175656D02*
D03*
X394784Y185656D02*
D03*
Y175656D02*
D03*
Y165656D02*
D03*
Y155657D02*
D03*
Y145657D02*
D03*
D42*
X384784Y185656D02*
D03*
D43*
X389272Y215656D02*
D03*
X34941Y18806D02*
D03*
X389272D02*
D03*
X34941Y215656D02*
D03*
D44*
X274618Y136945D02*
D03*
X116240Y212704D02*
D03*
X218504Y86614D02*
D03*
X212598Y92520D02*
D03*
X424705Y214968D02*
D03*
Y195283D02*
D03*
Y175598D02*
D03*
Y155912D02*
D03*
Y136228D02*
D03*
Y116542D02*
D03*
Y96857D02*
D03*
Y77172D02*
D03*
Y57487D02*
D03*
Y37802D02*
D03*
Y18117D02*
D03*
Y492D02*
D03*
X393701Y0D02*
D03*
X374016D02*
D03*
X354331D02*
D03*
X334646D02*
D03*
X314961D02*
D03*
X295276D02*
D03*
X275590D02*
D03*
X259069Y-131D02*
D03*
X236221Y0D02*
D03*
X216535D02*
D03*
X196850D02*
D03*
X177165D02*
D03*
X157480D02*
D03*
X137795D02*
D03*
X118110D02*
D03*
X98425D02*
D03*
X78740D02*
D03*
X59055D02*
D03*
X39370D02*
D03*
X19685D02*
D03*
X0D02*
D03*
Y17625D02*
D03*
Y37310D02*
D03*
Y56995D02*
D03*
Y76680D02*
D03*
Y96365D02*
D03*
Y116050D02*
D03*
Y135735D02*
D03*
Y155420D02*
D03*
Y175105D02*
D03*
Y194790D02*
D03*
Y214475D02*
D03*
Y234160D02*
D03*
X424705D02*
D03*
X153051Y62113D02*
D03*
X126673Y56995D02*
D03*
Y98334D02*
D03*
X153051Y103846D02*
D03*
X153839Y145184D02*
D03*
X127067Y139279D02*
D03*
X77461Y161326D02*
D03*
X77854Y119987D02*
D03*
X78248Y78649D02*
D03*
X149282Y200696D02*
D03*
X274705Y199121D02*
D03*
X331004Y125499D02*
D03*
X306594Y131011D02*
D03*
X353839Y161523D02*
D03*
X218996Y119200D02*
D03*
X205217D02*
D03*
X201279Y93609D02*
D03*
Y85735D02*
D03*
X157972Y200893D02*
D03*
Y176286D02*
D03*
X224902Y107389D02*
D03*
Y114279D02*
D03*
X218996Y102468D02*
D03*
X239665Y99515D02*
D03*
X228839Y97546D02*
D03*
X285925Y125967D02*
D03*
X260835Y113885D02*
D03*
X277067Y117231D02*
D03*
X283179D02*
D03*
X349902Y141631D02*
D03*
Y148727D02*
D03*
X256398Y69987D02*
D03*
X213090D02*
D03*
X258366Y81798D02*
D03*
X226870Y81798D02*
D03*
X91043Y234160D02*
D03*
X333366D02*
D03*
X392421D02*
D03*
X372736D02*
D03*
X353051D02*
D03*
X333366Y212704D02*
D03*
X313681D02*
D03*
X293996D02*
D03*
X274311D02*
D03*
X254626D02*
D03*
X17815Y234160D02*
D03*
X37500D02*
D03*
X57185D02*
D03*
X76870D02*
D03*
X91043Y212704D02*
D03*
X135925D02*
D03*
X155610D02*
D03*
X175295D02*
D03*
X194980D02*
D03*
X214665D02*
D03*
X234941D02*
D03*
M02*
