M48
;Layer_Color=9474304
;FILE_FORMAT=2:5
INCH,TZ
;TYPE=PLATED
T1F00S00C0.01181
T2F00S00C0.03937
T3F00S00C0.03937
T4F00S00C0.14961
%
T01
X424705Y492
Y18117
Y37802
Y57487
Y77172
X399114Y58176
X359744
X320374
X281004
X258366Y81798
X261319Y18806
X259069Y-131
X275590Y0
X295276
X314961
X334646
X354331
X374016
X393701
X340059Y18806
X300689
X221949
X216535Y0
X236221
X196850
X177165
X157480
X137795
X118110
X103839Y18806
X143209
X182579
X153051Y62113
X126673Y56995
X123524Y58176
X213090Y69987
X218504Y86614
X212598Y92520
X201279Y93609
Y85735
X226870Y81798
X256398Y69987
X78248Y78649
X44783Y58176
X0Y56995
Y37310
Y17625
Y0
X19685
X39370
X59055
X78740
X98425
X64468Y18806
X0Y76680
Y96365
Y116050
Y135735
Y155420
Y175105
Y194790
Y214475
Y234160
X17815
X37500
X57185
X76870
X91043
Y212704
X84153Y215657
X64468Y176286
X77461Y161326
X84153Y136916
X77854Y119987
X64468Y97546
X25098
X44783Y136916
X25098Y176286
X103839
X143209
X157972Y176286
Y200893
X149282Y200696
X155610Y212704
X135925
X116240
X175295
X194980
X214665
X234941
X254626
X221949Y176286
X182579
X202264Y136916
X205217Y119200
X218996
X224902Y114279
Y107389
X218996Y102468
X228839Y97546
X239665Y99515
X153051Y103846
X126673Y98334
X103839Y97546
X123524Y136916
X127067Y139279
X153839Y145184
X162894Y136916
X274618Y136945
X277067Y117231
X283179
X285925Y125967
X306594Y131011
X320374Y136916
X331004Y125499
X349902Y141631
Y148727
X353839Y161523
X340059Y176286
X300689
X261319
X274705Y199121
X274311Y212704
X293996
X313681
X333366
Y234160
X353051
X372736
X392421
X359744Y215657
Y136916
X399114
X379429Y97546
X340059
X300689
X261319
X260835Y113885
X424705Y116542
Y136228
Y155912
Y175598
Y195283
Y214968
Y234160
Y96857
T02
X384784Y145657
Y155657
Y165656
Y175656
Y185656
X394784
Y175656
Y165656
Y155657
Y145657
T03
X114665Y63098
Y88688
X96949
Y63098
Y104436
Y130027
Y145775
Y171365
X114665
Y145775
Y130027
Y104436
X309547Y145775
X327264
Y171365
X309547
T04
X389272Y18806
X34941
Y215656
X389272
M30
