G04*
G04 #@! TF.GenerationSoftware,Altium Limited,Altium Designer,20.0.11 (256)*
G04*
G04 Layer_Color=255*
%FSLAX25Y25*%
%MOIN*%
G70*
G01*
G75*
%ADD16R,0.03937X0.03543*%
%ADD17R,0.03150X0.01181*%
%ADD18R,0.01181X0.03150*%
%ADD19R,0.10630X0.10630*%
%ADD20R,0.03347X0.03347*%
%ADD21R,0.03347X0.03347*%
%ADD22R,0.03150X0.03150*%
%ADD23R,0.03000X0.01400*%
%ADD24R,0.03543X0.03937*%
G04:AMPARAMS|DCode=25|XSize=17.72mil|YSize=55.12mil|CornerRadius=4.43mil|HoleSize=0mil|Usage=FLASHONLY|Rotation=180.000|XOffset=0mil|YOffset=0mil|HoleType=Round|Shape=RoundedRectangle|*
%AMROUNDEDRECTD25*
21,1,0.01772,0.04626,0,0,180.0*
21,1,0.00886,0.05512,0,0,180.0*
1,1,0.00886,-0.00443,0.02313*
1,1,0.00886,0.00443,0.02313*
1,1,0.00886,0.00443,-0.02313*
1,1,0.00886,-0.00443,-0.02313*
%
%ADD25ROUNDEDRECTD25*%
%ADD26R,0.01772X0.05512*%
%ADD46C,0.06000*%
%ADD47C,0.05906*%
%ADD48C,0.06693*%
%ADD49R,0.06693X0.06693*%
%ADD50C,0.27559*%
D16*
X272146Y119200D02*
D03*
Y113885D02*
D03*
X265059Y119200D02*
D03*
Y113885D02*
D03*
X310531Y126088D02*
D03*
Y131403D02*
D03*
X150098Y139869D02*
D03*
Y145184D02*
D03*
X149114Y98334D02*
D03*
Y103649D02*
D03*
Y56995D02*
D03*
Y62310D02*
D03*
D17*
X207185Y93609D02*
D03*
Y91641D02*
D03*
Y89672D02*
D03*
Y87704D02*
D03*
Y85735D02*
D03*
X222933D02*
D03*
Y87704D02*
D03*
Y89672D02*
D03*
Y91641D02*
D03*
Y93609D02*
D03*
D18*
X211122Y81798D02*
D03*
X213090D02*
D03*
X215059D02*
D03*
X217027D02*
D03*
X218996D02*
D03*
Y97546D02*
D03*
X217027D02*
D03*
X215059D02*
D03*
X213090D02*
D03*
X211122D02*
D03*
D19*
X215059Y89672D02*
D03*
D20*
X169783Y188885D02*
D03*
Y194987D02*
D03*
X327264Y126090D02*
D03*
Y132192D02*
D03*
X318406D02*
D03*
Y126090D02*
D03*
X254429Y188885D02*
D03*
Y194987D02*
D03*
X139272Y145775D02*
D03*
Y139672D02*
D03*
X130413D02*
D03*
Y145775D02*
D03*
Y98334D02*
D03*
Y104436D02*
D03*
X139272D02*
D03*
Y98334D02*
D03*
Y63098D02*
D03*
Y56995D02*
D03*
X130413D02*
D03*
Y63098D02*
D03*
X195374Y89672D02*
D03*
Y95775D02*
D03*
X188484D02*
D03*
Y89672D02*
D03*
D21*
X80905Y101483D02*
D03*
X74803D02*
D03*
X80905Y141641D02*
D03*
X74803D02*
D03*
X213090Y73924D02*
D03*
X206988D02*
D03*
X343799Y135932D02*
D03*
X349902D02*
D03*
X80905Y60145D02*
D03*
X74803D02*
D03*
D22*
X255413Y101546D02*
D03*
Y95641D02*
D03*
X74272Y78846D02*
D03*
Y72940D02*
D03*
Y120184D02*
D03*
Y114278D02*
D03*
Y161523D02*
D03*
Y155617D02*
D03*
X153012Y194987D02*
D03*
Y200893D02*
D03*
X271161Y194987D02*
D03*
Y200893D02*
D03*
X349902Y155814D02*
D03*
Y161720D02*
D03*
D23*
X247950Y81641D02*
D03*
Y83641D02*
D03*
Y85641D02*
D03*
Y87641D02*
D03*
Y89641D02*
D03*
Y91641D02*
D03*
Y93641D02*
D03*
Y95641D02*
D03*
X240650D02*
D03*
Y93641D02*
D03*
Y91641D02*
D03*
Y89641D02*
D03*
Y87641D02*
D03*
Y85641D02*
D03*
Y83641D02*
D03*
Y81641D02*
D03*
D24*
X215059Y107586D02*
D03*
X220374D02*
D03*
X215059Y114279D02*
D03*
X220374D02*
D03*
D25*
X256201Y142428D02*
D03*
X253642D02*
D03*
X251083D02*
D03*
X248524D02*
D03*
X245965D02*
D03*
X243406D02*
D03*
X240846D02*
D03*
X238287D02*
D03*
X235728D02*
D03*
X256201Y119200D02*
D03*
X253642D02*
D03*
X251083D02*
D03*
X248524D02*
D03*
X245965D02*
D03*
X243406D02*
D03*
X240846D02*
D03*
X238287D02*
D03*
D26*
X235728D02*
D03*
D46*
X357776Y166444D02*
D03*
X341634Y150696D02*
D03*
X279232Y205814D02*
D03*
X263090Y190066D02*
D03*
X161122Y205814D02*
D03*
X144980Y190066D02*
D03*
X82579Y83767D02*
D03*
X66437Y68019D02*
D03*
X82579Y125105D02*
D03*
X66437Y109357D02*
D03*
X82579Y166444D02*
D03*
X66437Y150696D02*
D03*
D47*
X114665Y145775D02*
D03*
Y171365D02*
D03*
X96949D02*
D03*
Y145775D02*
D03*
X114665Y104436D02*
D03*
Y130027D02*
D03*
X96949D02*
D03*
Y104436D02*
D03*
X114665Y63098D02*
D03*
Y88688D02*
D03*
X96949D02*
D03*
Y63098D02*
D03*
X309547Y145775D02*
D03*
Y171365D02*
D03*
X327264D02*
D03*
Y145775D02*
D03*
D48*
X384784Y145657D02*
D03*
Y155657D02*
D03*
Y165656D02*
D03*
Y175656D02*
D03*
X394784Y185656D02*
D03*
Y175656D02*
D03*
Y165656D02*
D03*
Y155657D02*
D03*
Y145657D02*
D03*
D49*
X384784Y185656D02*
D03*
D50*
X389272Y215656D02*
D03*
X34941Y18806D02*
D03*
X389272D02*
D03*
X34941Y215656D02*
D03*
M02*
