G04*
G04 #@! TF.GenerationSoftware,Altium Limited,Altium Designer,20.0.11 (256)*
G04*
G04 Layer_Color=32768*
%FSLAX25Y25*%
%MOIN*%
G70*
G01*
G75*
%ADD52C,0.00394*%
%ADD53C,0.00197*%
D52*
X272146Y114653D02*
Y118432D01*
X270256Y116542D02*
X274036D01*
X265059Y114653D02*
Y118432D01*
X263169Y116542D02*
X266949D01*
X169783Y190361D02*
Y193511D01*
X168209Y191936D02*
X171358D01*
X310531Y126856D02*
Y130635D01*
X308642Y128746D02*
X312421D01*
X327264Y127566D02*
Y130716D01*
X325689Y129141D02*
X328839D01*
X318406Y127566D02*
Y130716D01*
X316831Y129141D02*
X319980D01*
X254429Y190361D02*
Y193511D01*
X252854Y191936D02*
X256004D01*
X150098Y140637D02*
Y144416D01*
X148209Y142527D02*
X151988D01*
X139272Y141149D02*
Y144298D01*
X137697Y142724D02*
X140847D01*
X130413Y141149D02*
Y144298D01*
X128839Y142724D02*
X131988D01*
X149114Y99101D02*
Y102881D01*
X147224Y100991D02*
X151004D01*
X130413Y99810D02*
Y102960D01*
X128839Y101385D02*
X131988D01*
X139272Y99810D02*
Y102960D01*
X137697Y101385D02*
X140847D01*
X149114Y57763D02*
Y61542D01*
X147224Y59653D02*
X151004D01*
X139272Y58472D02*
Y61621D01*
X137697Y60046D02*
X140847D01*
X130413Y58472D02*
Y61621D01*
X128839Y60046D02*
X131988D01*
X76279Y101483D02*
X79429D01*
X77854Y99909D02*
Y103058D01*
X76279Y141641D02*
X79429D01*
X77854Y140066D02*
Y143216D01*
X253839Y98594D02*
X256988D01*
X255413Y97019D02*
Y100168D01*
X253838Y98638D02*
X256988D01*
X255413Y97063D02*
Y100213D01*
X208465Y73924D02*
X211614D01*
X210040Y72350D02*
Y75499D01*
X195374Y91149D02*
Y94298D01*
X193799Y92723D02*
X196949D01*
X188484Y91149D02*
Y94298D01*
X186909Y92723D02*
X190059D01*
X345276Y135932D02*
X348425D01*
X346850Y134357D02*
Y137507D01*
X76279Y60145D02*
X79429D01*
X77854Y58570D02*
Y61720D01*
X215827Y107586D02*
X219606D01*
X217717Y105696D02*
Y109475D01*
X215827Y114279D02*
X219606D01*
X217717Y112389D02*
Y116168D01*
X72697Y75893D02*
X75846D01*
X74272Y74318D02*
Y77468D01*
X72697Y75937D02*
X75846D01*
X74271Y74362D02*
Y77512D01*
X72697Y117231D02*
X75846D01*
X74272Y115656D02*
Y118806D01*
X72697Y117276D02*
X75846D01*
X74271Y115701D02*
Y118851D01*
X72697Y158570D02*
X75846D01*
X74272Y156995D02*
Y160145D01*
X72697Y158615D02*
X75846D01*
X74271Y157039D02*
Y160189D01*
X153012Y196409D02*
Y199559D01*
X151437Y197984D02*
X154586D01*
X153012Y196365D02*
Y199515D01*
X151437Y197940D02*
X154587D01*
X271161Y196410D02*
Y199559D01*
X269586Y197985D02*
X272736D01*
X271161Y196365D02*
Y199515D01*
X269587Y197940D02*
X272736D01*
X349901Y157236D02*
Y160386D01*
X348327Y158811D02*
X351476D01*
X349902Y157192D02*
Y160342D01*
X348327Y158767D02*
X351477D01*
D53*
X269193Y121858D02*
X275098D01*
X269193Y111228D02*
X275098D01*
Y121858D01*
X269193Y111228D02*
Y121858D01*
X262106D02*
X268012D01*
X262106Y111228D02*
X268012D01*
Y121858D01*
X262106Y111228D02*
Y121858D01*
X167027Y186227D02*
X172539D01*
X167027Y197645D02*
X172539D01*
X167027Y186227D02*
Y197645D01*
X172539Y186227D02*
Y197645D01*
X307579Y123431D02*
X313484D01*
X307579Y134060D02*
X313484D01*
X307579Y123431D02*
Y134060D01*
X313484Y123431D02*
Y134060D01*
X324508Y123432D02*
X330020D01*
X324508Y134849D02*
X330020D01*
X324508Y123432D02*
Y134849D01*
X330020Y123432D02*
Y134849D01*
X315650D02*
X321161D01*
X315650Y123432D02*
X321161D01*
Y134849D01*
X315650Y123432D02*
Y134849D01*
X251673Y186228D02*
X257185D01*
X251673Y197645D02*
X257185D01*
X251673Y186228D02*
Y197645D01*
X257185Y186228D02*
Y197645D01*
X147146Y137212D02*
X153051D01*
X147146Y147842D02*
X153051D01*
X147146Y137212D02*
Y147842D01*
X153051Y137212D02*
Y147842D01*
X136516Y148432D02*
X142027D01*
X136516Y137015D02*
X142027D01*
Y148432D01*
X136516Y137015D02*
Y148432D01*
X127658Y137015D02*
X133169D01*
X127658Y148432D02*
X133169D01*
X127658Y137015D02*
Y148432D01*
X133169Y137015D02*
Y148432D01*
X146161Y95676D02*
X152067D01*
X146161Y106306D02*
X152067D01*
X146161Y95676D02*
Y106306D01*
X152067Y95676D02*
Y106306D01*
X127658Y95676D02*
X133169D01*
X127658Y107094D02*
X133169D01*
X127658Y95676D02*
Y107094D01*
X133169Y95676D02*
Y107094D01*
X136516Y107093D02*
X142028D01*
X136516Y95676D02*
X142028D01*
Y107093D01*
X136516Y95676D02*
Y107093D01*
X146161Y54338D02*
X152067D01*
X146161Y64968D02*
X152067D01*
X146161Y54338D02*
Y64968D01*
X152067Y54338D02*
Y64968D01*
X136516Y65755D02*
X142028D01*
X136516Y54338D02*
X142028D01*
Y65755D01*
X136516Y54338D02*
Y65755D01*
X127657Y54338D02*
X133169D01*
X127657Y65755D02*
X133169D01*
X127657Y54338D02*
Y65755D01*
X133169Y54338D02*
Y65755D01*
X83563Y98727D02*
Y104239D01*
X72146Y98727D02*
Y104239D01*
Y98727D02*
X83563D01*
X72146Y104239D02*
X83563D01*
Y138885D02*
Y144397D01*
X72146Y138885D02*
Y144397D01*
Y138885D02*
X83563D01*
X72146Y144397D02*
X83563D01*
X215748Y71168D02*
Y76680D01*
X204331Y71168D02*
Y76680D01*
Y71168D02*
X215748D01*
X204331Y76680D02*
X215748D01*
X192618Y87015D02*
X198130D01*
X192618Y98432D02*
X198130D01*
X192618Y87015D02*
Y98432D01*
X198130Y87015D02*
Y98432D01*
X185728D02*
X191240D01*
X185728Y87015D02*
X191240D01*
Y98432D01*
X185728Y87015D02*
Y98432D01*
X341142Y133176D02*
Y138688D01*
X352559Y133176D02*
Y138688D01*
X341142D02*
X352559D01*
X341142Y133176D02*
X352559D01*
X83563Y57389D02*
Y62901D01*
X72146Y57389D02*
Y62901D01*
Y57389D02*
X83563D01*
X72146Y62901D02*
X83563D01*
X212402Y104633D02*
Y110538D01*
X223032Y104633D02*
Y110538D01*
X212402D02*
X223032D01*
X212402Y104633D02*
X223032D01*
X212402Y111326D02*
Y117231D01*
X223032Y111326D02*
Y117231D01*
X212402D02*
X223032D01*
X212402Y111326D02*
X223032D01*
M02*
