G04*
G04 #@! TF.GenerationSoftware,Altium Limited,Altium Designer,20.0.11 (256)*
G04*
G04 Layer_Color=255*
%FSLAX25Y25*%
%MOIN*%
G70*
G01*
G75*
%ADD46C,0.06000*%
%ADD47C,0.05906*%
%ADD48C,0.06693*%
%ADD49R,0.06693X0.06693*%
%ADD50C,0.27559*%
D46*
X357776Y166444D02*
D03*
X341634Y150696D02*
D03*
X279232Y205814D02*
D03*
X263090Y190066D02*
D03*
X161122Y205814D02*
D03*
X144980Y190066D02*
D03*
X82579Y83767D02*
D03*
X66437Y68019D02*
D03*
X82579Y125105D02*
D03*
X66437Y109357D02*
D03*
X82579Y166444D02*
D03*
X66437Y150696D02*
D03*
D47*
X114665Y145775D02*
D03*
Y171365D02*
D03*
X96949D02*
D03*
Y145775D02*
D03*
X114665Y104436D02*
D03*
Y130027D02*
D03*
X96949D02*
D03*
Y104436D02*
D03*
X114665Y63098D02*
D03*
Y88688D02*
D03*
X96949D02*
D03*
Y63098D02*
D03*
X309547Y145775D02*
D03*
Y171365D02*
D03*
X327264D02*
D03*
Y145775D02*
D03*
D48*
X384784Y145657D02*
D03*
Y155657D02*
D03*
Y165656D02*
D03*
Y175656D02*
D03*
X394784Y185656D02*
D03*
Y175656D02*
D03*
Y165656D02*
D03*
Y155657D02*
D03*
Y145657D02*
D03*
D49*
X384784Y185656D02*
D03*
D50*
X389272Y215656D02*
D03*
X34941Y18806D02*
D03*
X389272D02*
D03*
X34941Y215656D02*
D03*
M02*
