G04*
G04 #@! TF.GenerationSoftware,Altium Limited,Altium Designer,19.0.15 (446)*
G04*
G04 Layer_Color=65535*
%FSLAX25Y25*%
%MOIN*%
G70*
G01*
G75*
%ADD10C,0.01575*%
%ADD11C,0.00984*%
%ADD12C,0.02362*%
%ADD13C,0.00787*%
%ADD14C,0.01000*%
%ADD15C,0.00591*%
%ADD16C,0.00500*%
%ADD17C,0.00606*%
D10*
X628315Y297284D02*
G03*
X628315Y297284I-551J0D01*
G01*
X628158Y124055D02*
G03*
X628158Y124055I-551J0D01*
G01*
D11*
X499409Y55315D02*
G03*
X499409Y55315I-492J0D01*
G01*
X461201Y282677D02*
G03*
X461201Y282677I-492J0D01*
G01*
X575728Y70669D02*
G03*
X575728Y70669I-492J0D01*
G01*
X574331Y244094D02*
G03*
X574331Y244094I-492J0D01*
G01*
X297169Y283886D02*
G03*
X297169Y283886I-492J0D01*
G01*
X461516Y267913D02*
G03*
X461516Y267913I-492J0D01*
G01*
X498819Y228543D02*
G03*
X498819Y228543I-492J0D01*
G01*
X520079Y122835D02*
G03*
X520079Y122835I-492J0D01*
G01*
X357854Y282677D02*
G03*
X357854Y282677I-492J0D01*
G01*
Y257087D02*
G03*
X357854Y257087I-492J0D01*
G01*
D12*
X512008Y125787D02*
G03*
X512008Y125787I-1181J0D01*
G01*
D13*
X324449Y787D02*
G03*
X324449Y787I-394J0D01*
G01*
X603445Y194882D02*
Y293307D01*
Y194882D02*
X699902D01*
Y293307D01*
X603445D02*
X699902D01*
X506299Y42126D02*
Y54331D01*
X502362Y42126D02*
Y54331D01*
Y42126D02*
X506299D01*
X502362Y54331D02*
X506299D01*
X534646Y113386D02*
Y115748D01*
X540945Y113386D02*
Y115748D01*
X531693Y165813D02*
X534055D01*
X531693Y172113D02*
X534055D01*
X466811Y269685D02*
Y281496D01*
X463661Y269685D02*
Y281496D01*
Y269685D02*
X466811D01*
X463661Y281496D02*
X466811D01*
X554547Y53740D02*
Y66339D01*
X574232Y53740D02*
Y66339D01*
X554547Y53740D02*
X574232D01*
X554547Y66339D02*
X574232D01*
X553150Y227165D02*
Y239764D01*
X572835Y227165D02*
Y239764D01*
X553150Y227165D02*
X572835D01*
X553150Y239764D02*
X572835D01*
X302583Y263197D02*
Y282882D01*
X309669Y263197D02*
Y282882D01*
X302583D02*
X309669D01*
X302583Y263197D02*
X309669D01*
X467126Y254921D02*
Y266732D01*
X463976Y254921D02*
Y266732D01*
Y254921D02*
X467126D01*
X463976Y266732D02*
X467126D01*
X457382Y145669D02*
X459744D01*
X457382Y139370D02*
X459744D01*
X505709Y215354D02*
Y227559D01*
X501772Y215354D02*
Y227559D01*
Y215354D02*
X505709D01*
X501772Y227559D02*
X505709D01*
X495866Y163189D02*
X514764D01*
X495866Y121850D02*
X514764D01*
X495866D02*
Y163189D01*
X514764Y121850D02*
Y163189D01*
X603287Y120079D02*
X699744D01*
Y21654D02*
Y120079D01*
X603287Y21654D02*
X699744D01*
X603287D02*
Y120079D01*
X360315Y281496D02*
X363465D01*
X360315Y269685D02*
X363465D01*
X360315D02*
Y281496D01*
X363465Y269685D02*
Y281496D01*
X360315Y255906D02*
X363465D01*
X360315Y244094D02*
X363465D01*
X360315D02*
Y255906D01*
X363465Y244094D02*
Y255906D01*
X465748Y113386D02*
Y115748D01*
X459449Y113386D02*
Y115748D01*
D14*
X372716Y314449D02*
X387794D01*
Y293583D02*
Y314449D01*
X344195Y293583D02*
Y314449D01*
Y293583D02*
X387794D01*
X344195Y314449D02*
X376654D01*
X476063D02*
X491141D01*
Y293583D02*
Y314449D01*
X447541Y293583D02*
Y314449D01*
Y293583D02*
X491141D01*
X447541Y314449D02*
X480000D01*
X289488Y247835D02*
X299288D01*
Y197835D02*
Y247835D01*
X289488Y197835D02*
X299288D01*
X289488D02*
Y247835D01*
D15*
X510301Y298927D02*
Y302511D01*
X404789Y283688D02*
Y287272D01*
X280446Y203411D02*
X279921Y203936D01*
X278871D01*
X278346Y203411D01*
Y201312D01*
X278871Y200787D01*
X279921D01*
X280446Y201312D01*
Y202362D01*
X279396D01*
X281495Y200787D02*
Y203936D01*
X283594Y200787D01*
Y203936D01*
X284644D02*
Y200787D01*
X286218D01*
X286743Y201312D01*
Y203411D01*
X286218Y203936D01*
X284644D01*
X270079Y215353D02*
X271128D01*
X270603D01*
Y212205D01*
X270079D01*
X271128D01*
X274802D02*
X272703D01*
X274802Y214304D01*
Y214828D01*
X274277Y215353D01*
X273227D01*
X272703Y214828D01*
X277950D02*
X277426Y215353D01*
X276376D01*
X275851Y214828D01*
Y214304D01*
X276376Y213779D01*
X277426D01*
X277950Y213254D01*
Y212730D01*
X277426Y212205D01*
X276376D01*
X275851Y212730D01*
X279000Y211680D02*
X281099D01*
X282148Y215353D02*
Y212205D01*
X283198Y213254D01*
X284247Y212205D01*
Y215353D01*
X287396Y214828D02*
X286871Y215353D01*
X285822D01*
X285297Y214828D01*
Y214304D01*
X285822Y213779D01*
X286871D01*
X287396Y213254D01*
Y212730D01*
X286871Y212205D01*
X285822D01*
X285297Y212730D01*
X270079Y224743D02*
X271128D01*
X270603D01*
Y221595D01*
X270079D01*
X271128D01*
X274802D02*
X272703D01*
X274802Y223694D01*
Y224218D01*
X274277Y224743D01*
X273227D01*
X272703Y224218D01*
X277950D02*
X277426Y224743D01*
X276376D01*
X275851Y224218D01*
Y223694D01*
X276376Y223169D01*
X277426D01*
X277950Y222644D01*
Y222119D01*
X277426Y221595D01*
X276376D01*
X275851Y222119D01*
X279000Y221070D02*
X281099D01*
X284247Y224218D02*
X283723Y224743D01*
X282673D01*
X282148Y224218D01*
Y222119D01*
X282673Y221595D01*
X283723D01*
X284247Y222119D01*
X285297Y224743D02*
Y221595D01*
Y222644D01*
X287396Y224743D01*
X285822Y223169D01*
X287396Y221595D01*
X270079Y234645D02*
X271128D01*
X270603D01*
Y231496D01*
X270079D01*
X271128D01*
X274802D02*
X272703D01*
X274802Y233595D01*
Y234120D01*
X274277Y234645D01*
X273227D01*
X272703Y234120D01*
X277950D02*
X277426Y234645D01*
X276376D01*
X275851Y234120D01*
Y233595D01*
X276376Y233070D01*
X277426D01*
X277950Y232546D01*
Y232021D01*
X277426Y231496D01*
X276376D01*
X275851Y232021D01*
X279000Y230971D02*
X281099D01*
X284247Y234120D02*
X283723Y234645D01*
X282673D01*
X282148Y234120D01*
Y233595D01*
X282673Y233070D01*
X283723D01*
X284247Y232546D01*
Y232021D01*
X283723Y231496D01*
X282673D01*
X282148Y232021D01*
X285297Y234645D02*
Y231496D01*
X286871D01*
X287396Y232021D01*
Y234120D01*
X286871Y234645D01*
X285297D01*
X266929Y244487D02*
X267979D01*
X267454D01*
Y241339D01*
X266929D01*
X267979D01*
X271652D02*
X269553D01*
X271652Y243438D01*
Y243962D01*
X271127Y244487D01*
X270078D01*
X269553Y243962D01*
X274801D02*
X274276Y244487D01*
X273226D01*
X272702Y243962D01*
Y243438D01*
X273226Y242913D01*
X274276D01*
X274801Y242388D01*
Y241863D01*
X274276Y241339D01*
X273226D01*
X272702Y241863D01*
X275850Y240814D02*
X277949D01*
X278999Y241339D02*
Y244487D01*
X280048Y243438D01*
X281098Y244487D01*
Y241339D01*
X284246Y243962D02*
X283722Y244487D01*
X282672D01*
X282147Y243962D01*
Y241863D01*
X282672Y241339D01*
X283722D01*
X284246Y241863D01*
X285296Y244487D02*
Y241339D01*
Y242388D01*
X287395Y244487D01*
X285821Y242913D01*
X287395Y241339D01*
D16*
X293701Y62264D02*
X316142D01*
X281221Y3405D02*
Y7126D01*
Y3405D02*
X336890D01*
Y7126D01*
D17*
X575030Y254549D02*
X574555Y255024D01*
X573605D01*
X573130Y254549D01*
Y252650D01*
X573605Y252175D01*
X574555D01*
X575030Y252650D01*
X577404Y252175D02*
Y255024D01*
X575979Y253600D01*
X577879D01*
X578829Y254549D02*
X579304Y255024D01*
X580254D01*
X580728Y254549D01*
Y252650D01*
X580254Y252175D01*
X579304D01*
X578829Y252650D01*
Y254549D01*
X575030Y261430D02*
X574555Y261905D01*
X573605D01*
X573130Y261430D01*
Y259530D01*
X573605Y259055D01*
X574555D01*
X575030Y259530D01*
X575979Y261430D02*
X576454Y261905D01*
X577404D01*
X577879Y261430D01*
Y260955D01*
X577404Y260480D01*
X576929D01*
X577404D01*
X577879Y260005D01*
Y259530D01*
X577404Y259055D01*
X576454D01*
X575979Y259530D01*
X578829D02*
X579304Y259055D01*
X580254D01*
X580728Y259530D01*
Y261430D01*
X580254Y261905D01*
X579304D01*
X578829Y261430D01*
Y260955D01*
X579304Y260480D01*
X580728D01*
X561700Y93475D02*
X561225Y93950D01*
X560275D01*
X559800Y93475D01*
Y91575D01*
X560275Y91100D01*
X561225D01*
X561700Y91575D01*
X562649Y93475D02*
X563124Y93950D01*
X564074D01*
X564549Y93475D01*
Y93000D01*
X564074Y92525D01*
X563599D01*
X564074D01*
X564549Y92050D01*
Y91575D01*
X564074Y91100D01*
X563124D01*
X562649Y91575D01*
X565499Y93475D02*
X565974Y93950D01*
X566924D01*
X567399Y93475D01*
Y93000D01*
X566924Y92525D01*
X567399Y92050D01*
Y91575D01*
X566924Y91100D01*
X565974D01*
X565499Y91575D01*
Y92050D01*
X565974Y92525D01*
X565499Y93000D01*
Y93475D01*
X565974Y92525D02*
X566924D01*
X561700Y86675D02*
X561225Y87150D01*
X560275D01*
X559800Y86675D01*
Y84775D01*
X560275Y84300D01*
X561225D01*
X561700Y84775D01*
X562649Y86675D02*
X563124Y87150D01*
X564074D01*
X564549Y86675D01*
Y86200D01*
X564074Y85725D01*
X563599D01*
X564074D01*
X564549Y85250D01*
Y84775D01*
X564074Y84300D01*
X563124D01*
X562649Y84775D01*
X565499Y87150D02*
X567399D01*
Y86675D01*
X565499Y84775D01*
Y84300D01*
X602756Y299606D02*
Y302456D01*
X604181D01*
X604656Y301981D01*
Y301031D01*
X604181Y300556D01*
X602756D01*
X605605Y301981D02*
X606080Y302456D01*
X607030D01*
X607505Y301981D01*
Y301506D01*
X607030Y301031D01*
X607505Y300556D01*
Y300081D01*
X607030Y299606D01*
X606080D01*
X605605Y300081D01*
Y300556D01*
X606080Y301031D01*
X605605Y301506D01*
Y301981D01*
X606080Y301031D02*
X607030D01*
X536602Y232215D02*
X536127Y231740D01*
Y230790D01*
X536602Y230315D01*
X538502D01*
X538976Y230790D01*
Y231740D01*
X538502Y232215D01*
X538976Y233164D02*
Y234114D01*
Y233639D01*
X536127D01*
X536602Y233164D01*
X538976Y235539D02*
Y236489D01*
Y236014D01*
X536127D01*
X536602Y235539D01*
X487992Y234034D02*
Y231659D01*
X488467Y231184D01*
X489417D01*
X489892Y231659D01*
Y234034D01*
X490842Y231184D02*
X491791D01*
X491317D01*
Y234034D01*
X490842Y233559D01*
X493216D02*
X493691Y234034D01*
X494641D01*
X495116Y233559D01*
Y231659D01*
X494641Y231184D01*
X493691D01*
X493216Y231659D01*
Y233559D01*
X495669Y61511D02*
Y59136D01*
X496144Y58661D01*
X497094D01*
X497569Y59136D01*
Y61511D01*
X498519Y59136D02*
X498994Y58661D01*
X499943D01*
X500418Y59136D01*
Y61036D01*
X499943Y61511D01*
X498994D01*
X498519Y61036D01*
Y60561D01*
X498994Y60086D01*
X500418D01*
X302165Y288282D02*
Y285908D01*
X302640Y285433D01*
X303590D01*
X304065Y285908D01*
Y288282D01*
X305015Y287808D02*
X305490Y288282D01*
X306440D01*
X306914Y287808D01*
Y287333D01*
X306440Y286858D01*
X306914Y286383D01*
Y285908D01*
X306440Y285433D01*
X305490D01*
X305015Y285908D01*
Y286383D01*
X305490Y286858D01*
X305015Y287333D01*
Y287808D01*
X305490Y286858D02*
X306440D01*
X354200Y263549D02*
Y261175D01*
X354675Y260700D01*
X355625D01*
X356100Y261175D01*
Y263549D01*
X357049D02*
X358949D01*
Y263075D01*
X357049Y261175D01*
Y260700D01*
X451968Y267810D02*
Y265436D01*
X452443Y264961D01*
X453393D01*
X453868Y265436D01*
Y267810D01*
X456718D02*
X455768Y267335D01*
X454818Y266385D01*
Y265436D01*
X455293Y264961D01*
X456243D01*
X456718Y265436D01*
Y265910D01*
X456243Y266385D01*
X454818D01*
X354200Y289149D02*
Y286775D01*
X354675Y286300D01*
X355625D01*
X356100Y286775D01*
Y289149D01*
X358949D02*
X357049D01*
Y287725D01*
X357999Y288200D01*
X358474D01*
X358949Y287725D01*
Y286775D01*
X358474Y286300D01*
X357524D01*
X357049Y286775D01*
X451968Y284346D02*
Y281971D01*
X452443Y281496D01*
X453393D01*
X453868Y281971D01*
Y284346D01*
X456243Y281496D02*
Y284346D01*
X454818Y282921D01*
X456718D01*
X577653Y240158D02*
X575278D01*
X574803Y239683D01*
Y238733D01*
X575278Y238258D01*
X577653D01*
X577178Y237308D02*
X577653Y236833D01*
Y235883D01*
X577178Y235408D01*
X576703D01*
X576228Y235883D01*
Y236358D01*
Y235883D01*
X575753Y235408D01*
X575278D01*
X574803Y235883D01*
Y236833D01*
X575278Y237308D01*
X580802Y68110D02*
X578428D01*
X577953Y67635D01*
Y66685D01*
X578428Y66211D01*
X580802D01*
X577953Y63361D02*
Y65261D01*
X579852Y63361D01*
X580327D01*
X580802Y63836D01*
Y64786D01*
X580327Y65261D01*
X487300Y169749D02*
Y167375D01*
X487775Y166900D01*
X488725D01*
X489200Y167375D01*
Y169749D01*
X490149Y166900D02*
X491099D01*
X490624D01*
Y169749D01*
X490149Y169275D01*
X549800Y176750D02*
X551700D01*
X550750D01*
Y173900D01*
X552649D02*
Y176750D01*
X554074D01*
X554549Y176275D01*
Y175325D01*
X554074Y174850D01*
X552649D01*
X556924Y173900D02*
Y176750D01*
X555499Y175325D01*
X557399D01*
X405200Y311949D02*
X407100D01*
X406150D01*
Y309100D01*
X408049D02*
Y311949D01*
X409474D01*
X409949Y311475D01*
Y310525D01*
X409474Y310050D01*
X408049D01*
X410899Y311475D02*
X411374Y311949D01*
X412324D01*
X412799Y311475D01*
Y311000D01*
X412324Y310525D01*
X411849D01*
X412324D01*
X412799Y310050D01*
Y309575D01*
X412324Y309100D01*
X411374D01*
X410899Y309575D01*
X532677Y299700D02*
X534577D01*
X533627D01*
Y296850D01*
X535527D02*
Y299700D01*
X536951D01*
X537426Y299225D01*
Y298275D01*
X536951Y297800D01*
X535527D01*
X540276Y296850D02*
X538376D01*
X540276Y298750D01*
Y299225D01*
X539801Y299700D01*
X538851D01*
X538376Y299225D01*
X560236Y300094D02*
X562136D01*
X561186D01*
Y297244D01*
X563086D02*
Y300094D01*
X564510D01*
X564985Y299619D01*
Y298669D01*
X564510Y298194D01*
X563086D01*
X565935Y297244D02*
X566885D01*
X566410D01*
Y300094D01*
X565935Y299619D01*
X417717Y290551D02*
Y293401D01*
X419141D01*
X419616Y292926D01*
Y291976D01*
X419141Y291501D01*
X417717D01*
X418666D02*
X419616Y290551D01*
X422466D02*
X420566D01*
X422466Y292451D01*
Y292926D01*
X421991Y293401D01*
X421041D01*
X420566Y292926D01*
X424840Y290551D02*
Y293401D01*
X423416Y291976D01*
X425315D01*
X512598Y309842D02*
Y312692D01*
X514023D01*
X514498Y312217D01*
Y311267D01*
X514023Y310792D01*
X512598D01*
X513548D02*
X514498Y309842D01*
X517347D02*
X515448D01*
X517347Y311742D01*
Y312217D01*
X516873Y312692D01*
X515923D01*
X515448Y312217D01*
X518297D02*
X518772Y312692D01*
X519722D01*
X520197Y312217D01*
Y311742D01*
X519722Y311267D01*
X519247D01*
X519722D01*
X520197Y310792D01*
Y310317D01*
X519722Y309842D01*
X518772D01*
X518297Y310317D01*
X260827Y30935D02*
Y33784D01*
X262251D01*
X262726Y33310D01*
Y32360D01*
X262251Y31885D01*
X260827D01*
X261777D02*
X262726Y30935D01*
X265576D02*
X263676D01*
X265576Y32835D01*
Y33310D01*
X265101Y33784D01*
X264151D01*
X263676Y33310D01*
X268425Y30935D02*
X266526D01*
X268425Y32835D01*
Y33310D01*
X267951Y33784D01*
X267001D01*
X266526Y33310D01*
X594488Y170472D02*
Y173322D01*
X595913D01*
X596388Y172847D01*
Y171897D01*
X595913Y171422D01*
X594488D01*
X595438D02*
X596388Y170472D01*
X599237D02*
X597338D01*
X599237Y172372D01*
Y172847D01*
X598762Y173322D01*
X597813D01*
X597338Y172847D01*
X600187Y170472D02*
X601137D01*
X600662D01*
Y173322D01*
X600187Y172847D01*
X594095Y140551D02*
Y143401D01*
X595519D01*
X595994Y142926D01*
Y141976D01*
X595519Y141501D01*
X594095D01*
X595044D02*
X595994Y140551D01*
X598844D02*
X596944D01*
X598844Y142451D01*
Y142926D01*
X598369Y143401D01*
X597419D01*
X596944Y142926D01*
X599793D02*
X600268Y143401D01*
X601218D01*
X601693Y142926D01*
Y141026D01*
X601218Y140551D01*
X600268D01*
X599793Y141026D01*
Y142926D01*
X594488Y164567D02*
Y167416D01*
X595913D01*
X596388Y166941D01*
Y165992D01*
X595913Y165517D01*
X594488D01*
X595438D02*
X596388Y164567D01*
X597338D02*
X598287D01*
X597813D01*
Y167416D01*
X597338Y166941D01*
X599712Y165042D02*
X600187Y164567D01*
X601137D01*
X601612Y165042D01*
Y166941D01*
X601137Y167416D01*
X600187D01*
X599712Y166941D01*
Y166467D01*
X600187Y165992D01*
X601612D01*
X594488Y158661D02*
Y161511D01*
X595913D01*
X596388Y161036D01*
Y160086D01*
X595913Y159611D01*
X594488D01*
X595438D02*
X596388Y158661D01*
X597338D02*
X598287D01*
X597813D01*
Y161511D01*
X597338Y161036D01*
X599712D02*
X600187Y161511D01*
X601137D01*
X601612Y161036D01*
Y160561D01*
X601137Y160086D01*
X601612Y159611D01*
Y159136D01*
X601137Y158661D01*
X600187D01*
X599712Y159136D01*
Y159611D01*
X600187Y160086D01*
X599712Y160561D01*
Y161036D01*
X600187Y160086D02*
X601137D01*
X594488Y152362D02*
Y155212D01*
X595913D01*
X596388Y154737D01*
Y153787D01*
X595913Y153312D01*
X594488D01*
X595438D02*
X596388Y152362D01*
X597338D02*
X598287D01*
X597813D01*
Y155212D01*
X597338Y154737D01*
X599712Y155212D02*
X601612D01*
Y154737D01*
X599712Y152837D01*
Y152362D01*
X594488Y146638D02*
Y149487D01*
X595913D01*
X596388Y149012D01*
Y148063D01*
X595913Y147588D01*
X594488D01*
X595438D02*
X596388Y146638D01*
X597338D02*
X598287D01*
X597813D01*
Y149487D01*
X597338Y149012D01*
X601612Y149487D02*
X600662Y149012D01*
X599712Y148063D01*
Y147113D01*
X600187Y146638D01*
X601137D01*
X601612Y147113D01*
Y147588D01*
X601137Y148063D01*
X599712D01*
X512205Y170472D02*
Y173322D01*
X513629D01*
X514104Y172847D01*
Y171897D01*
X513629Y171422D01*
X512205D01*
X513155D02*
X514104Y170472D01*
X515054D02*
X516004D01*
X515529D01*
Y173322D01*
X515054Y172847D01*
X519328Y173322D02*
X517429D01*
Y171897D01*
X518379Y172372D01*
X518854D01*
X519328Y171897D01*
Y170947D01*
X518854Y170472D01*
X517904D01*
X517429Y170947D01*
X539705Y207874D02*
X536855D01*
Y209299D01*
X537330Y209774D01*
X538280D01*
X538755Y209299D01*
Y207874D01*
Y208824D02*
X539705Y209774D01*
Y210723D02*
Y211673D01*
Y211198D01*
X536855D01*
X537330Y210723D01*
X539705Y214523D02*
X536855D01*
X538280Y213098D01*
Y214998D01*
X542126Y225197D02*
Y228046D01*
X543551D01*
X544026Y227571D01*
Y226622D01*
X543551Y226147D01*
X542126D01*
X543076D02*
X544026Y225197D01*
X544976D02*
X545925D01*
X545450D01*
Y228046D01*
X544976Y227571D01*
X547350D02*
X547825Y228046D01*
X548775D01*
X549250Y227571D01*
Y227097D01*
X548775Y226622D01*
X548300D01*
X548775D01*
X549250Y226147D01*
Y225672D01*
X548775Y225197D01*
X547825D01*
X547350Y225672D01*
X585039Y247638D02*
Y250487D01*
X586464D01*
X586939Y250012D01*
Y249062D01*
X586464Y248588D01*
X585039D01*
X585989D02*
X586939Y247638D01*
X587889D02*
X588839D01*
X588364D01*
Y250487D01*
X587889Y250012D01*
X592163Y247638D02*
X590263D01*
X592163Y249537D01*
Y250012D01*
X591688Y250487D01*
X590738D01*
X590263Y250012D01*
X525787Y208661D02*
X522938D01*
Y210086D01*
X523413Y210561D01*
X524363D01*
X524838Y210086D01*
Y208661D01*
Y209611D02*
X525787Y210561D01*
Y211511D02*
Y212461D01*
Y211986D01*
X522938D01*
X523413Y211511D01*
X525787Y213885D02*
Y214835D01*
Y214360D01*
X522938D01*
X523413Y213885D01*
X542913Y247244D02*
Y250094D01*
X544338D01*
X544813Y249619D01*
Y248669D01*
X544338Y248194D01*
X542913D01*
X543863D02*
X544813Y247244D01*
X545763D02*
X546713D01*
X546238D01*
Y250094D01*
X545763Y249619D01*
X548137D02*
X548612Y250094D01*
X549562D01*
X550037Y249619D01*
Y247719D01*
X549562Y247244D01*
X548612D01*
X548137Y247719D01*
Y249619D01*
X586221Y220472D02*
Y223322D01*
X587645D01*
X588120Y222847D01*
Y221897D01*
X587645Y221422D01*
X586221D01*
X587170D02*
X588120Y220472D01*
X589070Y220947D02*
X589545Y220472D01*
X590495D01*
X590970Y220947D01*
Y222847D01*
X590495Y223322D01*
X589545D01*
X589070Y222847D01*
Y222372D01*
X589545Y221897D01*
X590970D01*
X565354Y199606D02*
Y202456D01*
X566779D01*
X567254Y201981D01*
Y201031D01*
X566779Y200556D01*
X565354D01*
X566304D02*
X567254Y199606D01*
X568204Y201981D02*
X568679Y202456D01*
X569628D01*
X570103Y201981D01*
Y201506D01*
X569628Y201031D01*
X570103Y200556D01*
Y200081D01*
X569628Y199606D01*
X568679D01*
X568204Y200081D01*
Y200556D01*
X568679Y201031D01*
X568204Y201506D01*
Y201981D01*
X568679Y201031D02*
X569628D01*
X546063Y42913D02*
X548912D01*
Y41489D01*
X548438Y41014D01*
X547488D01*
X547013Y41489D01*
Y42913D01*
Y41964D02*
X546063Y41014D01*
X548912Y40064D02*
Y38164D01*
X548438D01*
X546538Y40064D01*
X546063D01*
X544095Y52362D02*
Y55212D01*
X545519D01*
X545994Y54737D01*
Y53787D01*
X545519Y53312D01*
X544095D01*
X545044D02*
X545994Y52362D01*
X548844Y55212D02*
X547894Y54737D01*
X546944Y53787D01*
Y52837D01*
X547419Y52362D01*
X548369D01*
X548844Y52837D01*
Y53312D01*
X548369Y53787D01*
X546944D01*
X591732Y74016D02*
Y76865D01*
X593157D01*
X593632Y76390D01*
Y75441D01*
X593157Y74966D01*
X591732D01*
X592682D02*
X593632Y74016D01*
X596481Y76865D02*
X594582D01*
Y75441D01*
X595532Y75915D01*
X596006D01*
X596481Y75441D01*
Y74491D01*
X596006Y74016D01*
X595057D01*
X594582Y74491D01*
X519291Y43307D02*
X522141D01*
Y41882D01*
X521666Y41407D01*
X520716D01*
X520241Y41882D01*
Y43307D01*
Y42357D02*
X519291Y41407D01*
Y39033D02*
X522141D01*
X520716Y40458D01*
Y38558D01*
X543701Y75197D02*
Y78046D01*
X545125D01*
X545600Y77571D01*
Y76622D01*
X545125Y76147D01*
X543701D01*
X544651D02*
X545600Y75197D01*
X546550Y77571D02*
X547025Y78046D01*
X547975D01*
X548450Y77571D01*
Y77096D01*
X547975Y76622D01*
X547500D01*
X547975D01*
X548450Y76147D01*
Y75672D01*
X547975Y75197D01*
X547025D01*
X546550Y75672D01*
X592126Y47244D02*
Y50094D01*
X593551D01*
X594026Y49619D01*
Y48669D01*
X593551Y48194D01*
X592126D01*
X593076D02*
X594026Y47244D01*
X596875D02*
X594976D01*
X596875Y49144D01*
Y49619D01*
X596400Y50094D01*
X595450D01*
X594976Y49619D01*
X571260Y28740D02*
Y25891D01*
X569835D01*
X569360Y26366D01*
Y27315D01*
X569835Y27790D01*
X571260D01*
X570310D02*
X569360Y28740D01*
X568410D02*
X567460D01*
X567936D01*
Y25891D01*
X568410Y26366D01*
X278100Y67000D02*
Y69849D01*
X279525D01*
X280000Y69375D01*
Y68425D01*
X279525Y67950D01*
X278100D01*
X280949Y67000D02*
X281899D01*
X281424D01*
Y69849D01*
X280949Y69375D01*
X283324D02*
X283799Y69849D01*
X284749D01*
X285224Y69375D01*
Y67475D01*
X284749Y67000D01*
X283799D01*
X283324Y67475D01*
Y69375D01*
X280315Y246850D02*
Y249700D01*
X281740D01*
X282215Y249225D01*
Y248275D01*
X281740Y247800D01*
X280315D01*
X283164Y247325D02*
X283639Y246850D01*
X284589D01*
X285064Y247325D01*
Y249225D01*
X284589Y249700D01*
X283639D01*
X283164Y249225D01*
Y248750D01*
X283639Y248275D01*
X285064D01*
X191900Y193000D02*
Y195850D01*
X193325D01*
X193800Y195375D01*
Y194425D01*
X193325Y193950D01*
X191900D01*
X194749Y195850D02*
X196649D01*
Y195375D01*
X194749Y193475D01*
Y193000D01*
X12300Y172800D02*
Y175649D01*
X13725D01*
X14200Y175175D01*
Y174225D01*
X13725Y173750D01*
X12300D01*
X17049Y175649D02*
X16099Y175175D01*
X15149Y174225D01*
Y173275D01*
X15624Y172800D01*
X16574D01*
X17049Y173275D01*
Y173750D01*
X16574Y174225D01*
X15149D01*
X602700Y128000D02*
Y130850D01*
X604125D01*
X604600Y130375D01*
Y129425D01*
X604125Y128950D01*
X602700D01*
X607449Y130850D02*
X605549D01*
Y129425D01*
X606499Y129900D01*
X606974D01*
X607449Y129425D01*
Y128475D01*
X606974Y128000D01*
X606024D01*
X605549Y128475D01*
X193307Y298819D02*
Y301668D01*
X194732D01*
X195207Y301193D01*
Y300244D01*
X194732Y299769D01*
X193307D01*
X197581Y298819D02*
Y301668D01*
X196157Y300244D01*
X198056D01*
X11900Y262900D02*
Y265750D01*
X13325D01*
X13800Y265275D01*
Y264325D01*
X13325Y263850D01*
X11900D01*
X14750Y265275D02*
X15224Y265750D01*
X16174D01*
X16649Y265275D01*
Y264800D01*
X16174Y264325D01*
X15699D01*
X16174D01*
X16649Y263850D01*
Y263375D01*
X16174Y262900D01*
X15224D01*
X14750Y263375D01*
X332283Y307874D02*
Y310723D01*
X333708D01*
X334183Y310249D01*
Y309299D01*
X333708Y308824D01*
X332283D01*
X337033Y307874D02*
X335133D01*
X337033Y309774D01*
Y310249D01*
X336558Y310723D01*
X335608D01*
X335133Y310249D01*
X440551Y307874D02*
Y310723D01*
X441976D01*
X442451Y310249D01*
Y309299D01*
X441976Y308824D01*
X440551D01*
X443401Y307874D02*
X444350D01*
X443876D01*
Y310723D01*
X443401Y310249D01*
X417717Y286708D02*
Y283858D01*
X419616D01*
X422466Y286708D02*
X420566D01*
Y283858D01*
X422466D01*
X420566Y285283D02*
X421516D01*
X423416Y286708D02*
Y283858D01*
X424840D01*
X425315Y284333D01*
Y286233D01*
X424840Y286708D01*
X423416D01*
X428165Y283858D02*
X426265D01*
X428165Y285758D01*
Y286233D01*
X427690Y286708D01*
X426740D01*
X426265Y286233D01*
X511417Y296944D02*
Y294094D01*
X513317D01*
X516166Y296944D02*
X514267D01*
Y294094D01*
X516166D01*
X514267Y295519D02*
X515217D01*
X517116Y296944D02*
Y294094D01*
X518541D01*
X519016Y294569D01*
Y296469D01*
X518541Y296944D01*
X517116D01*
X519966Y294094D02*
X520916D01*
X520441D01*
Y296944D01*
X519966Y296469D01*
X313317Y244107D02*
X312842Y244582D01*
X311892D01*
X311417Y244107D01*
Y242207D01*
X311892Y241732D01*
X312842D01*
X313317Y242207D01*
X314267Y244107D02*
X314742Y244582D01*
X315691D01*
X316166Y244107D01*
Y243632D01*
X315691Y243157D01*
X315217D01*
X315691D01*
X316166Y242682D01*
Y242207D01*
X315691Y241732D01*
X314742D01*
X314267Y242207D01*
X319016Y244582D02*
X318066Y244107D01*
X317116Y243157D01*
Y242207D01*
X317591Y241732D01*
X318541D01*
X319016Y242207D01*
Y242682D01*
X318541Y243157D01*
X317116D01*
X323947Y244107D02*
X323472Y244582D01*
X322522D01*
X322047Y244107D01*
Y242207D01*
X322522Y241732D01*
X323472D01*
X323947Y242207D01*
X324897Y244107D02*
X325372Y244582D01*
X326321D01*
X326796Y244107D01*
Y243632D01*
X326321Y243157D01*
X325847D01*
X326321D01*
X326796Y242682D01*
Y242207D01*
X326321Y241732D01*
X325372D01*
X324897Y242207D01*
X329646Y244582D02*
X327746D01*
Y243157D01*
X328696Y243632D01*
X329171D01*
X329646Y243157D01*
Y242207D01*
X329171Y241732D01*
X328221D01*
X327746Y242207D01*
X332074Y6033D02*
X331599Y5559D01*
Y4609D01*
X332074Y4134D01*
X333974D01*
X334449Y4609D01*
Y5559D01*
X333974Y6033D01*
X332074Y6983D02*
X331599Y7458D01*
Y8408D01*
X332074Y8883D01*
X332549D01*
X333024Y8408D01*
Y7933D01*
Y8408D01*
X333499Y8883D01*
X333974D01*
X334449Y8408D01*
Y7458D01*
X333974Y6983D01*
X334449Y11258D02*
X331599D01*
X333024Y9833D01*
Y11733D01*
X339919Y6033D02*
X339444Y5559D01*
Y4609D01*
X339919Y4134D01*
X341818D01*
X342293Y4609D01*
Y5559D01*
X341818Y6033D01*
X339919Y6983D02*
X339444Y7458D01*
Y8408D01*
X339919Y8883D01*
X340394D01*
X340869Y8408D01*
Y7933D01*
Y8408D01*
X341343Y8883D01*
X341818D01*
X342293Y8408D01*
Y7458D01*
X341818Y6983D01*
X339919Y9833D02*
X339444Y10308D01*
Y11258D01*
X339919Y11733D01*
X340394D01*
X340869Y11258D01*
Y10783D01*
Y11258D01*
X341343Y11733D01*
X341818D01*
X342293Y11258D01*
Y10308D01*
X341818Y9833D01*
X503573Y239066D02*
X503098Y239541D01*
X502148D01*
X501673Y239066D01*
Y237166D01*
X502148Y236691D01*
X503098D01*
X503573Y237166D01*
X504523Y239066D02*
X504998Y239541D01*
X505947D01*
X506422Y239066D01*
Y238591D01*
X505947Y238116D01*
X505473D01*
X505947D01*
X506422Y237641D01*
Y237166D01*
X505947Y236691D01*
X504998D01*
X504523Y237166D01*
X509272Y236691D02*
X507372D01*
X509272Y238591D01*
Y239066D01*
X508797Y239541D01*
X507847D01*
X507372Y239066D01*
X509300Y66975D02*
X508825Y67449D01*
X507875D01*
X507400Y66975D01*
Y65075D01*
X507875Y64600D01*
X508825D01*
X509300Y65075D01*
X510250Y66975D02*
X510724Y67449D01*
X511674D01*
X512149Y66975D01*
Y66500D01*
X511674Y66025D01*
X511199D01*
X511674D01*
X512149Y65550D01*
Y65075D01*
X511674Y64600D01*
X510724D01*
X510250Y65075D01*
X513099Y64600D02*
X514049D01*
X513574D01*
Y67449D01*
X513099Y66975D01*
X460167Y156312D02*
X459692Y156787D01*
X458743D01*
X458268Y156312D01*
Y154412D01*
X458743Y153937D01*
X459692D01*
X460167Y154412D01*
X461117Y156312D02*
X461592Y156787D01*
X462542D01*
X463017Y156312D01*
Y155837D01*
X462542Y155362D01*
X462067D01*
X462542D01*
X463017Y154887D01*
Y154412D01*
X462542Y153937D01*
X461592D01*
X461117Y154412D01*
X463967Y156312D02*
X464442Y156787D01*
X465391D01*
X465866Y156312D01*
Y154412D01*
X465391Y153937D01*
X464442D01*
X463967Y154412D01*
Y156312D01*
X444562Y140778D02*
X444088Y140303D01*
Y139353D01*
X444562Y138878D01*
X446462D01*
X446937Y139353D01*
Y140303D01*
X446462Y140778D01*
X446937Y143627D02*
Y141727D01*
X445037Y143627D01*
X444562D01*
X444088Y143152D01*
Y142202D01*
X444562Y141727D01*
X446462Y144577D02*
X446937Y145052D01*
Y146002D01*
X446462Y146476D01*
X444562D01*
X444088Y146002D01*
Y145052D01*
X444562Y144577D01*
X445037D01*
X445512Y145052D01*
Y146476D01*
X529360Y185839D02*
X528885Y186314D01*
X527936D01*
X527461Y185839D01*
Y183940D01*
X527936Y183465D01*
X528885D01*
X529360Y183940D01*
X532210Y183465D02*
X530310D01*
X532210Y185364D01*
Y185839D01*
X531735Y186314D01*
X530785D01*
X530310Y185839D01*
X533160D02*
X533635Y186314D01*
X534584D01*
X535059Y185839D01*
Y185364D01*
X534584Y184889D01*
X535059Y184414D01*
Y183940D01*
X534584Y183465D01*
X533635D01*
X533160Y183940D01*
Y184414D01*
X533635Y184889D01*
X533160Y185364D01*
Y185839D01*
X533635Y184889D02*
X534584D01*
X528500Y156705D02*
X528025Y157180D01*
X527075D01*
X526600Y156705D01*
Y154806D01*
X527075Y154331D01*
X528025D01*
X528500Y154806D01*
X531349Y154331D02*
X529450D01*
X531349Y156230D01*
Y156705D01*
X530874Y157180D01*
X529924D01*
X529450Y156705D01*
X532299Y157180D02*
X534199D01*
Y156705D01*
X532299Y154806D01*
Y154331D01*
X545682Y169360D02*
X546157Y169835D01*
Y170785D01*
X545682Y171260D01*
X543782D01*
X543307Y170785D01*
Y169835D01*
X543782Y169360D01*
X543307Y166511D02*
Y168410D01*
X545207Y166511D01*
X545682D01*
X546157Y166986D01*
Y167936D01*
X545682Y168410D01*
X546157Y163661D02*
X545682Y164611D01*
X544732Y165561D01*
X543782D01*
X543307Y165086D01*
Y164136D01*
X543782Y163661D01*
X544257D01*
X544732Y164136D01*
Y165561D01*
X274200Y265679D02*
X273725Y265204D01*
Y264254D01*
X274200Y263779D01*
X276100D01*
X276575Y264254D01*
Y265204D01*
X276100Y265679D01*
X276575Y268529D02*
Y266629D01*
X274675Y268529D01*
X274200D01*
X273725Y268054D01*
Y267104D01*
X274200Y266629D01*
X273725Y271378D02*
Y269479D01*
X275150D01*
X274675Y270428D01*
Y270903D01*
X275150Y271378D01*
X276100D01*
X276575Y270903D01*
Y269953D01*
X276100Y269479D01*
X275522Y286823D02*
X275047Y287298D01*
X274097D01*
X273622Y286823D01*
Y284924D01*
X274097Y284449D01*
X275047D01*
X275522Y284924D01*
X278371Y284449D02*
X276471D01*
X278371Y286349D01*
Y286823D01*
X277896Y287298D01*
X276946D01*
X276471Y286823D01*
X280746Y284449D02*
Y287298D01*
X279321Y285874D01*
X281221D01*
X334183Y244107D02*
X333708Y244582D01*
X332758D01*
X332283Y244107D01*
Y242207D01*
X332758Y241732D01*
X333708D01*
X334183Y242207D01*
X337033Y241732D02*
X335133D01*
X337033Y243632D01*
Y244107D01*
X336558Y244582D01*
X335608D01*
X335133Y244107D01*
X337982D02*
X338457Y244582D01*
X339407D01*
X339882Y244107D01*
Y243632D01*
X339407Y243157D01*
X338932D01*
X339407D01*
X339882Y242682D01*
Y242207D01*
X339407Y241732D01*
X338457D01*
X337982Y242207D01*
X374100Y261775D02*
X373625Y262249D01*
X372675D01*
X372200Y261775D01*
Y259875D01*
X372675Y259400D01*
X373625D01*
X374100Y259875D01*
X376949Y259400D02*
X375049D01*
X376949Y261300D01*
Y261775D01*
X376474Y262249D01*
X375524D01*
X375049Y261775D01*
X379799Y259400D02*
X377899D01*
X379799Y261300D01*
Y261775D01*
X379324Y262249D01*
X378374D01*
X377899Y261775D01*
X483452Y260561D02*
X482977Y260086D01*
Y259136D01*
X483452Y258661D01*
X485352D01*
X485827Y259136D01*
Y260086D01*
X485352Y260561D01*
X485827Y263410D02*
Y261511D01*
X483927Y263410D01*
X483452D01*
X482977Y262936D01*
Y261986D01*
X483452Y261511D01*
X485827Y264360D02*
Y265310D01*
Y264835D01*
X482977D01*
X483452Y264360D01*
X374100Y287475D02*
X373625Y287949D01*
X372675D01*
X372200Y287475D01*
Y285575D01*
X372675Y285100D01*
X373625D01*
X374100Y285575D01*
X376949Y285100D02*
X375049D01*
X376949Y287000D01*
Y287475D01*
X376474Y287949D01*
X375524D01*
X375049Y287475D01*
X377899D02*
X378374Y287949D01*
X379324D01*
X379799Y287475D01*
Y285575D01*
X379324Y285100D01*
X378374D01*
X377899Y285575D01*
Y287475D01*
X483059Y274734D02*
X482584Y274259D01*
Y273310D01*
X483059Y272835D01*
X484958D01*
X485433Y273310D01*
Y274259D01*
X484958Y274734D01*
X485433Y275684D02*
Y276634D01*
Y276159D01*
X482584D01*
X483059Y275684D01*
X484958Y278059D02*
X485433Y278534D01*
Y279483D01*
X484958Y279958D01*
X483059D01*
X482584Y279483D01*
Y278534D01*
X483059Y278059D01*
X483533D01*
X484008Y278534D01*
Y279958D01*
X550718Y214186D02*
X550244Y214661D01*
X549294D01*
X548819Y214186D01*
Y212286D01*
X549294Y211811D01*
X550244D01*
X550718Y212286D01*
X551668Y211811D02*
X552618D01*
X552143D01*
Y214661D01*
X551668Y214186D01*
X554043D02*
X554518Y214661D01*
X555468D01*
X555943Y214186D01*
Y213711D01*
X555468Y213236D01*
X555943Y212761D01*
Y212286D01*
X555468Y211811D01*
X554518D01*
X554043Y212286D01*
Y212761D01*
X554518Y213236D01*
X554043Y213711D01*
Y214186D01*
X554518Y213236D02*
X555468D01*
X527940Y220404D02*
X527465Y219929D01*
Y218979D01*
X527940Y218504D01*
X529840D01*
X530315Y218979D01*
Y219929D01*
X529840Y220404D01*
X530315Y221353D02*
Y222303D01*
Y221828D01*
X527465D01*
X527940Y221353D01*
X527465Y223728D02*
Y225628D01*
X527940D01*
X529840Y223728D01*
X530315D01*
X528334Y245207D02*
X527859Y244732D01*
Y243782D01*
X528334Y243307D01*
X530234D01*
X530709Y243782D01*
Y244732D01*
X530234Y245207D01*
X530709Y246157D02*
Y247106D01*
Y246632D01*
X527859D01*
X528334Y246157D01*
X527859Y250431D02*
X528334Y249481D01*
X529284Y248531D01*
X530234D01*
X530709Y249006D01*
Y249956D01*
X530234Y250431D01*
X529759D01*
X529284Y249956D01*
Y248531D01*
X486602Y213317D02*
X486127Y212842D01*
Y211892D01*
X486602Y211417D01*
X488502D01*
X488976Y211892D01*
Y212842D01*
X488502Y213317D01*
X488976Y214267D02*
Y215217D01*
Y214742D01*
X486127D01*
X486602Y214267D01*
X486127Y218541D02*
Y216641D01*
X487552D01*
X487077Y217591D01*
Y218066D01*
X487552Y218541D01*
X488502D01*
X488976Y218066D01*
Y217116D01*
X488502Y216641D01*
X481300Y128475D02*
X480825Y128949D01*
X479875D01*
X479400Y128475D01*
Y126575D01*
X479875Y126100D01*
X480825D01*
X481300Y126575D01*
X482249Y126100D02*
X483199D01*
X482724D01*
Y128949D01*
X482249Y128475D01*
X486049Y126100D02*
Y128949D01*
X484624Y127525D01*
X486524D01*
X471000Y128275D02*
X470525Y128750D01*
X469575D01*
X469100Y128275D01*
Y126375D01*
X469575Y125900D01*
X470525D01*
X471000Y126375D01*
X471949Y125900D02*
X472899D01*
X472424D01*
Y128750D01*
X471949Y128275D01*
X474324D02*
X474799Y128750D01*
X475749D01*
X476224Y128275D01*
Y127800D01*
X475749Y127325D01*
X475274D01*
X475749D01*
X476224Y126850D01*
Y126375D01*
X475749Y125900D01*
X474799D01*
X474324Y126375D01*
X460500Y128675D02*
X460025Y129149D01*
X459075D01*
X458600Y128675D01*
Y126775D01*
X459075Y126300D01*
X460025D01*
X460500Y126775D01*
X461449Y126300D02*
X462399D01*
X461924D01*
Y129149D01*
X461449Y128675D01*
X465724Y126300D02*
X463824D01*
X465724Y128200D01*
Y128675D01*
X465249Y129149D01*
X464299D01*
X463824Y128675D01*
X575184Y213711D02*
X574710Y213236D01*
Y212286D01*
X575184Y211811D01*
X577084D01*
X577559Y212286D01*
Y213236D01*
X577084Y213711D01*
X577559Y214661D02*
Y215610D01*
Y215135D01*
X574710D01*
X575184Y214661D01*
Y217035D02*
X574710Y217510D01*
Y218460D01*
X575184Y218935D01*
X577084D01*
X577559Y218460D01*
Y217510D01*
X577084Y217035D01*
X575184D01*
X555974Y28728D02*
X556449Y28253D01*
X557399D01*
X557874Y28728D01*
Y30627D01*
X557399Y31102D01*
X556449D01*
X555974Y30627D01*
X555024D02*
X554550Y31102D01*
X553600D01*
X553125Y30627D01*
Y28728D01*
X553600Y28253D01*
X554550D01*
X555024Y28728D01*
Y29203D01*
X554550Y29678D01*
X553125D01*
X485421Y41270D02*
X484946Y40795D01*
Y39845D01*
X485421Y39370D01*
X487320D01*
X487795Y39845D01*
Y40795D01*
X487320Y41270D01*
X485421Y42219D02*
X484946Y42695D01*
Y43644D01*
X485421Y44119D01*
X485896D01*
X486371Y43644D01*
X486845Y44119D01*
X487320D01*
X487795Y43644D01*
Y42695D01*
X487320Y42219D01*
X486845D01*
X486371Y42695D01*
X485896Y42219D01*
X485421D01*
X486371Y42695D02*
Y43644D01*
X523216Y117648D02*
X522741Y117173D01*
Y116223D01*
X523216Y115748D01*
X525116D01*
X525591Y116223D01*
Y117173D01*
X525116Y117648D01*
X522741Y118597D02*
Y120497D01*
X523216D01*
X525116Y118597D01*
X525591D01*
X553162Y117392D02*
X553637Y117867D01*
Y118816D01*
X553162Y119291D01*
X551262D01*
X550787Y118816D01*
Y117867D01*
X551262Y117392D01*
X553637Y114542D02*
X553162Y115492D01*
X552212Y116442D01*
X551262D01*
X550787Y115967D01*
Y115017D01*
X551262Y114542D01*
X551737D01*
X552212Y115017D01*
Y116442D01*
X537726Y127571D02*
X537252Y128046D01*
X536302D01*
X535827Y127571D01*
Y125672D01*
X536302Y125197D01*
X537252D01*
X537726Y125672D01*
X540576Y128046D02*
X538676D01*
Y126622D01*
X539626Y127096D01*
X540101D01*
X540576Y126622D01*
Y125672D01*
X540101Y125197D01*
X539151D01*
X538676Y125672D01*
X528728Y38908D02*
X528253Y38433D01*
Y37483D01*
X528728Y37008D01*
X530627D01*
X531102Y37483D01*
Y38433D01*
X530627Y38908D01*
X531102Y41282D02*
X528253D01*
X529678Y39857D01*
Y41757D01*
X528728Y72766D02*
X528253Y72291D01*
Y71341D01*
X528728Y70866D01*
X530627D01*
X531102Y71341D01*
Y72291D01*
X530627Y72766D01*
X528728Y73716D02*
X528253Y74190D01*
Y75140D01*
X528728Y75615D01*
X529203D01*
X529678Y75140D01*
Y74665D01*
Y75140D01*
X530153Y75615D01*
X530627D01*
X531102Y75140D01*
Y74190D01*
X530627Y73716D01*
X534240Y58986D02*
X533765Y58511D01*
Y57561D01*
X534240Y57087D01*
X536139D01*
X536614Y57561D01*
Y58511D01*
X536139Y58986D01*
X536614Y61836D02*
Y59936D01*
X534715Y61836D01*
X534240D01*
X533765Y61361D01*
Y60411D01*
X534240Y59936D01*
X575972Y40089D02*
X575497Y39614D01*
Y38664D01*
X575972Y38189D01*
X577872D01*
X578346Y38664D01*
Y39614D01*
X577872Y40089D01*
X578346Y41039D02*
Y41988D01*
Y41513D01*
X575497D01*
X575972Y41039D01*
M02*
