G04*
G04 #@! TF.GenerationSoftware,Altium Limited,Altium Designer,19.0.15 (446)*
G04*
G04 Layer_Color=8421504*
%FSLAX25Y25*%
%MOIN*%
G70*
G01*
G75*
%ADD18R,0.03937X0.03543*%
%ADD19R,0.03347X0.03347*%
G04:AMPARAMS|DCode=20|XSize=23.62mil|YSize=39.37mil|CornerRadius=5.91mil|HoleSize=0mil|Usage=FLASHONLY|Rotation=90.000|XOffset=0mil|YOffset=0mil|HoleType=Round|Shape=RoundedRectangle|*
%AMROUNDEDRECTD20*
21,1,0.02362,0.02756,0,0,90.0*
21,1,0.01181,0.03937,0,0,90.0*
1,1,0.01181,0.01378,0.00591*
1,1,0.01181,0.01378,-0.00591*
1,1,0.01181,-0.01378,-0.00591*
1,1,0.01181,-0.01378,0.00591*
%
%ADD20ROUNDEDRECTD20*%
%ADD21R,0.03937X0.02362*%
%ADD22R,0.03543X0.03937*%
%ADD23R,0.07087X0.05512*%
%ADD24R,0.03347X0.03347*%
%ADD25R,0.05512X0.07087*%
%ADD26R,0.04134X0.02362*%
%ADD27R,0.05512X0.04528*%
%ADD28R,0.13386X0.05118*%
G04:AMPARAMS|DCode=29|XSize=23.62mil|YSize=61.02mil|CornerRadius=5.91mil|HoleSize=0mil|Usage=FLASHONLY|Rotation=0.000|XOffset=0mil|YOffset=0mil|HoleType=Round|Shape=RoundedRectangle|*
%AMROUNDEDRECTD29*
21,1,0.02362,0.04921,0,0,0.0*
21,1,0.01181,0.06102,0,0,0.0*
1,1,0.01181,0.00591,-0.02461*
1,1,0.01181,-0.00591,-0.02461*
1,1,0.01181,-0.00591,0.02461*
1,1,0.01181,0.00591,0.02461*
%
%ADD29ROUNDEDRECTD29*%
%ADD30R,0.02362X0.06102*%
%ADD31O,0.08661X0.02362*%
%ADD32R,0.03150X0.03150*%
%ADD33O,0.07284X0.01772*%
%ADD34R,0.05906X0.04528*%
%ADD35R,0.04528X0.08661*%
%ADD36R,0.04567X0.04724*%
%ADD37R,0.04567X0.04921*%
%ADD38R,0.03740X0.09843*%
%ADD39R,0.03150X0.04882*%
D18*
X535039Y36024D02*
D03*
Y41339D02*
D03*
X540158Y57185D02*
D03*
Y62500D02*
D03*
X529035Y115059D02*
D03*
Y120374D02*
D03*
X546654Y114961D02*
D03*
Y120276D02*
D03*
X533858Y218799D02*
D03*
Y224114D02*
D03*
X478031Y273937D02*
D03*
Y279252D02*
D03*
X478524Y259154D02*
D03*
Y264469D02*
D03*
X542520Y230709D02*
D03*
Y236024D02*
D03*
X492126Y212303D02*
D03*
Y217618D02*
D03*
X535039Y249508D02*
D03*
Y244193D02*
D03*
Y75984D02*
D03*
Y70669D02*
D03*
X491339Y39075D02*
D03*
Y44390D02*
D03*
X353543Y11713D02*
D03*
Y6398D02*
D03*
X347244D02*
D03*
Y11713D02*
D03*
X481890Y120768D02*
D03*
Y115453D02*
D03*
X471535Y120571D02*
D03*
Y115256D02*
D03*
D19*
X515748Y38287D02*
D03*
Y44390D02*
D03*
X542913Y208465D02*
D03*
Y214567D02*
D03*
X515748Y211663D02*
D03*
Y217766D02*
D03*
X542520Y35433D02*
D03*
Y41535D02*
D03*
X273622Y26673D02*
D03*
Y20571D02*
D03*
D20*
X509744Y51968D02*
D03*
Y44488D02*
D03*
X498917D02*
D03*
Y48228D02*
D03*
X509154Y225197D02*
D03*
Y217717D02*
D03*
X498327D02*
D03*
Y221457D02*
D03*
D21*
X498917Y51968D02*
D03*
X498327Y225197D02*
D03*
D22*
X459043Y150197D02*
D03*
X464358D02*
D03*
X532579Y161221D02*
D03*
X527264D02*
D03*
X532579Y176969D02*
D03*
X527264D02*
D03*
X560630Y260236D02*
D03*
X565945D02*
D03*
X560492Y253543D02*
D03*
X565807D02*
D03*
X555413Y208465D02*
D03*
X550098D02*
D03*
X561909Y85433D02*
D03*
X567224D02*
D03*
X561909Y78642D02*
D03*
X567224D02*
D03*
X284154Y280539D02*
D03*
X278839D02*
D03*
X514468Y231102D02*
D03*
X509154D02*
D03*
X570492Y214173D02*
D03*
X565177D02*
D03*
X571949Y40551D02*
D03*
X566634D02*
D03*
X556201Y35433D02*
D03*
X550886D02*
D03*
X374311Y279408D02*
D03*
X379626D02*
D03*
X374311Y253740D02*
D03*
X379626D02*
D03*
X509547Y58957D02*
D03*
X514862D02*
D03*
D23*
X537795Y109153D02*
D03*
Y119980D02*
D03*
X462598D02*
D03*
Y109153D02*
D03*
D24*
X513091Y167126D02*
D03*
X519193D02*
D03*
X542618Y222538D02*
D03*
X548721D02*
D03*
X585236Y244094D02*
D03*
X591339D02*
D03*
X542520D02*
D03*
X548622D02*
D03*
X518996Y307087D02*
D03*
X512894D02*
D03*
X413484Y292028D02*
D03*
X407382D02*
D03*
X581220Y172047D02*
D03*
X575117D02*
D03*
X581220Y166142D02*
D03*
X575117D02*
D03*
X581220Y160236D02*
D03*
X575117D02*
D03*
X581220Y154331D02*
D03*
X575117D02*
D03*
X581220Y148425D02*
D03*
X575117D02*
D03*
X581220Y142815D02*
D03*
X575117D02*
D03*
X585236Y217126D02*
D03*
X591339D02*
D03*
X564390Y206299D02*
D03*
X570492D02*
D03*
X543405Y49409D02*
D03*
X549508D02*
D03*
X591043Y70866D02*
D03*
X597146D02*
D03*
X565846Y32283D02*
D03*
X571949D02*
D03*
X591831Y43366D02*
D03*
X597933D02*
D03*
X543405Y70866D02*
D03*
X549508D02*
D03*
D25*
X538287Y168963D02*
D03*
X527461D02*
D03*
X453150Y142520D02*
D03*
X463976D02*
D03*
D26*
X469764Y279331D02*
D03*
Y271850D02*
D03*
X460709D02*
D03*
Y275590D02*
D03*
Y279331D02*
D03*
X470079Y264567D02*
D03*
Y257087D02*
D03*
X461024D02*
D03*
Y260827D02*
D03*
Y264567D02*
D03*
X357362Y279331D02*
D03*
Y275590D02*
D03*
Y271850D02*
D03*
X366417D02*
D03*
Y279331D02*
D03*
X357362Y253740D02*
D03*
Y250000D02*
D03*
Y246260D02*
D03*
X366417D02*
D03*
Y253740D02*
D03*
D27*
X334276Y256339D02*
D03*
Y249449D02*
D03*
X325417Y256339D02*
D03*
Y249449D02*
D03*
X315575Y256339D02*
D03*
Y249449D02*
D03*
X282480Y274055D02*
D03*
Y267165D02*
D03*
D28*
X564390Y60039D02*
D03*
X562992Y233465D02*
D03*
D29*
X556890Y49409D02*
D03*
X561890D02*
D03*
X566890D02*
D03*
X571890D02*
D03*
X556890Y70669D02*
D03*
X561890D02*
D03*
X566890D02*
D03*
X555492Y222835D02*
D03*
X560492D02*
D03*
X565492D02*
D03*
X570492D02*
D03*
X555492Y244094D02*
D03*
X560492D02*
D03*
X565492D02*
D03*
D30*
X571890Y70669D02*
D03*
X570492Y244094D02*
D03*
D31*
X296677Y280539D02*
D03*
Y275539D02*
D03*
Y270539D02*
D03*
Y265539D02*
D03*
X315575Y280539D02*
D03*
Y275539D02*
D03*
Y270539D02*
D03*
Y265539D02*
D03*
D32*
X512992Y300672D02*
D03*
X518898D02*
D03*
X407480Y285433D02*
D03*
X413386D02*
D03*
D33*
X491043Y159153D02*
D03*
Y156595D02*
D03*
Y154035D02*
D03*
Y151476D02*
D03*
Y148917D02*
D03*
Y146358D02*
D03*
Y143799D02*
D03*
Y141240D02*
D03*
Y138681D02*
D03*
Y136122D02*
D03*
Y133563D02*
D03*
Y131004D02*
D03*
Y128445D02*
D03*
Y125886D02*
D03*
X519587Y159153D02*
D03*
Y156595D02*
D03*
Y154035D02*
D03*
Y151476D02*
D03*
Y148917D02*
D03*
Y146358D02*
D03*
Y143799D02*
D03*
Y141240D02*
D03*
Y138681D02*
D03*
Y136122D02*
D03*
Y133563D02*
D03*
Y131004D02*
D03*
Y128445D02*
D03*
Y125886D02*
D03*
D34*
X289606Y60984D02*
D03*
X320236D02*
D03*
D35*
X337185Y57854D02*
D03*
X280925Y12657D02*
D03*
D36*
X282520Y56555D02*
D03*
D37*
Y21122D02*
D03*
D38*
X337579Y13248D02*
D03*
D39*
X290158Y10768D02*
D03*
X294488D02*
D03*
X298819D02*
D03*
X303150D02*
D03*
X307480D02*
D03*
X311811D02*
D03*
X316142D02*
D03*
X320472D02*
D03*
M02*
