G04*
G04 #@! TF.GenerationSoftware,Altium Limited,Altium Designer,19.0.15 (446)*
G04*
G04 Layer_Color=16711935*
%FSLAX25Y25*%
%MOIN*%
G70*
G01*
G75*
%ADD63C,0.10052*%
%ADD64C,0.07887*%
%ADD65R,0.07099X0.07099*%
%ADD66C,0.07099*%
%ADD67R,0.07493X0.07493*%
%ADD68C,0.07493*%
%ADD69C,0.06800*%
%ADD70R,0.06800X0.06800*%
%ADD71C,0.03162*%
D63*
X674902Y221595D02*
D03*
X662402Y244094D02*
D03*
X674902Y266595D02*
D03*
X672402Y276594D02*
D03*
X637402Y226594D02*
D03*
Y261595D02*
D03*
X637244Y88366D02*
D03*
Y53366D02*
D03*
X672244Y103366D02*
D03*
X674744Y93366D02*
D03*
X662244Y70866D02*
D03*
X674744Y48366D02*
D03*
D64*
X609902Y232844D02*
D03*
Y255345D02*
D03*
X607402Y244094D02*
D03*
X624902Y216595D02*
D03*
X627402Y271595D02*
D03*
X627244Y98366D02*
D03*
X624744Y43366D02*
D03*
X607244Y70866D02*
D03*
X609744Y82116D02*
D03*
Y59616D02*
D03*
D65*
X358937Y305118D02*
D03*
X462284D02*
D03*
D66*
X372716D02*
D03*
X349095Y302638D02*
D03*
X382559D02*
D03*
X476063Y305118D02*
D03*
X452441Y302638D02*
D03*
X485906D02*
D03*
D67*
X195179Y292538D02*
D03*
X15079Y256538D02*
D03*
X195080Y186638D02*
D03*
X15480Y166438D02*
D03*
D68*
X195179Y282538D02*
D03*
Y272538D02*
D03*
Y262538D02*
D03*
Y252538D02*
D03*
Y242538D02*
D03*
Y232538D02*
D03*
Y222538D02*
D03*
X205180D02*
D03*
Y232538D02*
D03*
Y242538D02*
D03*
Y252538D02*
D03*
Y262538D02*
D03*
Y272538D02*
D03*
Y282538D02*
D03*
Y292538D02*
D03*
Y212538D02*
D03*
Y202538D02*
D03*
X195179D02*
D03*
Y212538D02*
D03*
X25080Y256538D02*
D03*
Y246538D02*
D03*
Y236538D02*
D03*
Y226538D02*
D03*
Y216538D02*
D03*
Y206538D02*
D03*
Y196538D02*
D03*
Y186538D02*
D03*
X15079D02*
D03*
Y196538D02*
D03*
Y206538D02*
D03*
Y216538D02*
D03*
Y226538D02*
D03*
Y236538D02*
D03*
Y246538D02*
D03*
X195080Y36638D02*
D03*
Y26638D02*
D03*
X205080D02*
D03*
Y36638D02*
D03*
X195080Y106638D02*
D03*
Y96638D02*
D03*
X205080D02*
D03*
Y106638D02*
D03*
Y186638D02*
D03*
Y176638D02*
D03*
Y166638D02*
D03*
Y156638D02*
D03*
Y146638D02*
D03*
Y136638D02*
D03*
Y126638D02*
D03*
Y116638D02*
D03*
X195080D02*
D03*
Y126638D02*
D03*
Y136638D02*
D03*
Y146638D02*
D03*
Y156638D02*
D03*
Y166638D02*
D03*
Y176638D02*
D03*
Y86638D02*
D03*
Y76638D02*
D03*
Y66638D02*
D03*
X205080D02*
D03*
Y76638D02*
D03*
Y86638D02*
D03*
Y56638D02*
D03*
Y46638D02*
D03*
X195080D02*
D03*
Y56638D02*
D03*
X15480Y86438D02*
D03*
Y76438D02*
D03*
X25480D02*
D03*
Y86438D02*
D03*
Y166438D02*
D03*
Y156438D02*
D03*
Y146438D02*
D03*
Y136438D02*
D03*
Y126438D02*
D03*
Y116438D02*
D03*
Y106438D02*
D03*
Y96438D02*
D03*
X15480D02*
D03*
Y106438D02*
D03*
Y116438D02*
D03*
Y126438D02*
D03*
Y136438D02*
D03*
Y146438D02*
D03*
Y156438D02*
D03*
Y66438D02*
D03*
Y56438D02*
D03*
Y46438D02*
D03*
X25480D02*
D03*
Y56438D02*
D03*
Y66438D02*
D03*
Y36438D02*
D03*
Y26438D02*
D03*
X15480D02*
D03*
Y36438D02*
D03*
D69*
X294488Y202835D02*
D03*
Y212835D02*
D03*
Y222835D02*
D03*
Y232835D02*
D03*
D70*
Y242835D02*
D03*
D71*
X570866Y253150D02*
D03*
Y260477D02*
D03*
X303610Y270539D02*
D03*
X402411Y285433D02*
D03*
X585433Y142520D02*
D03*
Y148425D02*
D03*
Y154331D02*
D03*
Y160236D02*
D03*
Y166142D02*
D03*
X585433Y172047D02*
D03*
X538287Y175295D02*
D03*
X513189Y156595D02*
D03*
X491339Y33858D02*
D03*
X571654Y78642D02*
D03*
Y85433D02*
D03*
X508384Y300672D02*
D03*
X509055Y268898D02*
D03*
X277697Y56555D02*
D03*
X341595Y13248D02*
D03*
X341752Y57854D02*
D03*
X347244Y16142D02*
D03*
X353543Y16142D02*
D03*
X535039Y31890D02*
D03*
X494685Y48228D02*
D03*
X519436Y58957D02*
D03*
X546654Y110945D02*
D03*
X537795Y103543D02*
D03*
X529035Y111043D02*
D03*
X481890Y111024D02*
D03*
X471535Y110748D02*
D03*
X462598Y103366D02*
D03*
X453150Y136221D02*
D03*
X537205Y161221D02*
D03*
X532579Y181398D02*
D03*
X491732Y222835D02*
D03*
X492126Y208071D02*
D03*
X518504Y231102D02*
D03*
X478524Y254508D02*
D03*
X478031Y270000D02*
D03*
X384341Y253740D02*
D03*
X384132Y279408D02*
D03*
X334276Y244488D02*
D03*
X325417Y244268D02*
D03*
X315575D02*
D03*
X565177Y65039D02*
D03*
X504331Y246743D02*
D03*
X298819Y73228D02*
D03*
X228346Y216595D02*
D03*
X20866Y307874D02*
D03*
X4724Y307480D02*
D03*
X352756Y275590D02*
D03*
X320236Y65276D02*
D03*
X289606Y65512D02*
D03*
X456102Y260827D02*
D03*
X537795Y50000D02*
D03*
X535039Y80315D02*
D03*
X353150Y250000D02*
D03*
X298819Y15748D02*
D03*
X276437Y12657D02*
D03*
X533858Y214173D02*
D03*
X539705Y249508D02*
D03*
X274016Y280539D02*
D03*
X491339Y62992D02*
D03*
Y54331D02*
D03*
X566929Y60236D02*
D03*
X691339Y122441D02*
D03*
X509055Y258661D02*
D03*
X555905Y296063D02*
D03*
X430512Y304134D02*
D03*
X306693Y64961D02*
D03*
X525624Y182250D02*
D03*
Y218291D02*
D03*
X515354Y190157D02*
D03*
X550886Y30315D02*
D03*
X236690Y192126D02*
D03*
X515354Y182283D02*
D03*
X550787Y23622D02*
D03*
X550000Y199213D02*
D03*
Y203937D02*
D03*
X566929Y233465D02*
D03*
X232283Y194882D02*
D03*
X231299Y202538D02*
D03*
M02*
