G04*
G04 #@! TF.GenerationSoftware,Altium Limited,Altium Designer,19.0.15 (446)*
G04*
G04 Layer_Physical_Order=2*
G04 Layer_Color=16711680*
%FSLAX25Y25*%
%MOIN*%
G70*
G01*
G75*
%ADD15C,0.00591*%
%ADD73C,0.01968*%
%ADD74C,0.02165*%
%ADD76C,0.09252*%
%ADD77C,0.07087*%
%ADD78R,0.06299X0.06299*%
%ADD79C,0.06299*%
%ADD80R,0.06693X0.06693*%
%ADD81C,0.06693*%
%ADD82C,0.06000*%
%ADD83R,0.06000X0.06000*%
%ADD84C,0.02362*%
G36*
X698682Y1184D02*
X1184D01*
Y313776D01*
X445878D01*
X446070Y313315D01*
X438504Y305749D01*
X431300D01*
X431207Y305812D01*
X430512Y305950D01*
X429817Y305812D01*
X429228Y305418D01*
X428834Y304829D01*
X428696Y304134D01*
X428834Y303439D01*
X429228Y302850D01*
X429817Y302456D01*
X430512Y302318D01*
X431207Y302456D01*
X431300Y302519D01*
X439173D01*
X439791Y302642D01*
X440315Y302992D01*
X448523Y311200D01*
X554290D01*
Y296851D01*
X554228Y296758D01*
X554089Y296063D01*
X554228Y295368D01*
X554621Y294779D01*
X555211Y294385D01*
X555905Y294247D01*
X556601Y294385D01*
X557190Y294779D01*
X557583Y295368D01*
X557722Y296063D01*
X557583Y296758D01*
X557521Y296851D01*
Y311200D01*
X579074D01*
X579282Y310700D01*
X565787Y297205D01*
X565437Y296681D01*
X565314Y296063D01*
Y248358D01*
X505119Y248358D01*
X505026Y248420D01*
X504331Y248558D01*
X503636Y248420D01*
X503047Y248027D01*
X502653Y247438D01*
X502515Y246743D01*
X502653Y246048D01*
X503047Y245458D01*
X503636Y245065D01*
X504331Y244927D01*
X505026Y245065D01*
X505119Y245127D01*
X565314Y245127D01*
Y234253D01*
X565251Y234159D01*
X565113Y233465D01*
X565251Y232770D01*
X565645Y232181D01*
X566234Y231787D01*
X566929Y231649D01*
X567624Y231787D01*
X568213Y232181D01*
X568607Y232770D01*
X568745Y233465D01*
X568607Y234159D01*
X568544Y234253D01*
Y246743D01*
Y295394D01*
X581378Y308227D01*
X679646D01*
X686967Y300906D01*
Y195428D01*
X686653Y195114D01*
X686303Y194590D01*
X686180Y193972D01*
Y14449D01*
X679646Y7914D01*
X575866D01*
X568544Y15236D01*
Y59448D01*
X568607Y59541D01*
X568745Y60236D01*
X568607Y60931D01*
X568213Y61520D01*
X567624Y61914D01*
X566929Y62052D01*
X566234Y61914D01*
X565645Y61520D01*
X565251Y60931D01*
X565113Y60236D01*
X565251Y59541D01*
X565314Y59448D01*
Y14567D01*
X565437Y13949D01*
X565787Y13425D01*
X574055Y5157D01*
X574579Y4807D01*
X575197Y4684D01*
X680315D01*
X680933Y4807D01*
X681457Y5157D01*
X688938Y12637D01*
X689288Y13161D01*
X689411Y13780D01*
Y121221D01*
X689911Y121372D01*
X690055Y121157D01*
X690644Y120763D01*
X691339Y120625D01*
X692033Y120763D01*
X692623Y121157D01*
X693016Y121746D01*
X693155Y122441D01*
X693016Y123136D01*
X692954Y123229D01*
Y305146D01*
X692831Y305764D01*
X692481Y306288D01*
X685454Y313315D01*
X685646Y313776D01*
X698682D01*
Y1184D01*
D02*
G37*
%LPC*%
G36*
X20866Y309690D02*
X20171Y309552D01*
X19639Y309196D01*
X5229D01*
X4724Y309296D01*
X4030Y309158D01*
X3440Y308764D01*
X3047Y308175D01*
X2908Y307480D01*
X3047Y306785D01*
X3440Y306196D01*
X4030Y305803D01*
X4724Y305664D01*
X5229Y305765D01*
X20472D01*
X21129Y305895D01*
X21686Y306267D01*
X21700Y306289D01*
X22150Y306590D01*
X22544Y307179D01*
X22682Y307874D01*
X22544Y308569D01*
X22150Y309158D01*
X21561Y309552D01*
X20866Y309690D01*
D02*
G37*
G36*
X476653Y308822D02*
Y305709D01*
X479767D01*
X479716Y306097D01*
X479338Y307009D01*
X478737Y307792D01*
X477954Y308393D01*
X477042Y308771D01*
X476653Y308822D01*
D02*
G37*
G36*
X475472D02*
X475084Y308771D01*
X474172Y308393D01*
X473389Y307792D01*
X472788Y307009D01*
X472410Y306097D01*
X472359Y305709D01*
X475472D01*
Y308822D01*
D02*
G37*
G36*
X373307D02*
Y305709D01*
X376421D01*
X376370Y306097D01*
X375992Y307009D01*
X375391Y307792D01*
X374607Y308393D01*
X373695Y308771D01*
X373307Y308822D01*
D02*
G37*
G36*
X372126D02*
X371738Y308771D01*
X370826Y308393D01*
X370042Y307792D01*
X369441Y307009D01*
X369063Y306097D01*
X369012Y305709D01*
X372126D01*
Y308822D01*
D02*
G37*
G36*
X479767Y304528D02*
X476653D01*
Y301414D01*
X477042Y301465D01*
X477954Y301843D01*
X478737Y302444D01*
X479338Y303227D01*
X479716Y304139D01*
X479767Y304528D01*
D02*
G37*
G36*
X475472D02*
X472359D01*
X472410Y304139D01*
X472788Y303227D01*
X473389Y302444D01*
X474172Y301843D01*
X475084Y301465D01*
X475472Y301414D01*
Y304528D01*
D02*
G37*
G36*
X376421D02*
X373307D01*
Y301414D01*
X373695Y301465D01*
X374607Y301843D01*
X375391Y302444D01*
X375992Y303227D01*
X376370Y304139D01*
X376421Y304528D01*
D02*
G37*
G36*
X372126D02*
X369012D01*
X369063Y304139D01*
X369441Y303227D01*
X370042Y302444D01*
X370826Y301843D01*
X371738Y301465D01*
X372126Y301414D01*
Y304528D01*
D02*
G37*
G36*
X466033Y308868D02*
X458534D01*
Y301368D01*
X466033D01*
Y308868D01*
D02*
G37*
G36*
X362687D02*
X355187D01*
Y301368D01*
X362687D01*
Y308868D01*
D02*
G37*
G36*
X485906Y307810D02*
X484567Y307633D01*
X483320Y307117D01*
X482248Y306295D01*
X481427Y305224D01*
X480910Y303976D01*
X480734Y302638D01*
X480910Y301299D01*
X481427Y300052D01*
X482248Y298981D01*
X483320Y298159D01*
X484567Y297642D01*
X485906Y297466D01*
X487244Y297642D01*
X488491Y298159D01*
X489563Y298981D01*
X490384Y300052D01*
X490901Y301299D01*
X491077Y302638D01*
X490901Y303976D01*
X490384Y305224D01*
X489563Y306295D01*
X488491Y307117D01*
X487244Y307633D01*
X485906Y307810D01*
D02*
G37*
G36*
X452441D02*
X451102Y307633D01*
X449855Y307117D01*
X448784Y306295D01*
X447962Y305224D01*
X447445Y303976D01*
X447269Y302638D01*
X447445Y301299D01*
X447962Y300052D01*
X448784Y298981D01*
X449855Y298159D01*
X451102Y297642D01*
X452441Y297466D01*
X453780Y297642D01*
X455027Y298159D01*
X456098Y298981D01*
X456920Y300052D01*
X457437Y301299D01*
X457613Y302638D01*
X457437Y303976D01*
X456920Y305224D01*
X456098Y306295D01*
X455027Y307117D01*
X453780Y307633D01*
X452441Y307810D01*
D02*
G37*
G36*
X382559D02*
X381221Y307633D01*
X379973Y307117D01*
X378902Y306295D01*
X378080Y305224D01*
X377564Y303976D01*
X377387Y302638D01*
X377564Y301299D01*
X378080Y300052D01*
X378902Y298981D01*
X379973Y298159D01*
X381221Y297642D01*
X382559Y297466D01*
X383898Y297642D01*
X385145Y298159D01*
X386216Y298981D01*
X387038Y300052D01*
X387555Y301299D01*
X387731Y302638D01*
X387555Y303976D01*
X387038Y305224D01*
X386216Y306295D01*
X385145Y307117D01*
X383898Y307633D01*
X382559Y307810D01*
D02*
G37*
G36*
X349095D02*
X347756Y307633D01*
X346509Y307117D01*
X345438Y306295D01*
X344616Y305224D01*
X344099Y303976D01*
X343923Y302638D01*
X344099Y301299D01*
X344616Y300052D01*
X345438Y298981D01*
X346509Y298159D01*
X347756Y297642D01*
X349095Y297466D01*
X350433Y297642D01*
X351680Y298159D01*
X352751Y298981D01*
X353573Y300052D01*
X354090Y301299D01*
X354266Y302638D01*
X354090Y303976D01*
X353573Y305224D01*
X352751Y306295D01*
X351680Y307117D01*
X350433Y307633D01*
X349095Y307810D01*
D02*
G37*
G36*
X199126Y296484D02*
X191233D01*
Y288591D01*
X199126D01*
Y296484D01*
D02*
G37*
G36*
X205180Y296518D02*
X204149Y296383D01*
X203189Y295985D01*
X202365Y295352D01*
X201732Y294528D01*
X201335Y293568D01*
X201199Y292538D01*
X201335Y291508D01*
X201732Y290547D01*
X202365Y289723D01*
X203189Y289091D01*
X204149Y288693D01*
X205180Y288557D01*
X206210Y288693D01*
X207170Y289091D01*
X207994Y289723D01*
X208627Y290547D01*
X209024Y291508D01*
X209160Y292538D01*
X209024Y293568D01*
X208627Y294528D01*
X207994Y295352D01*
X207170Y295985D01*
X206210Y296383D01*
X205180Y296518D01*
D02*
G37*
G36*
Y286518D02*
X204149Y286383D01*
X203189Y285985D01*
X202365Y285352D01*
X201732Y284528D01*
X201335Y283568D01*
X201199Y282538D01*
X201335Y281508D01*
X201732Y280547D01*
X202365Y279723D01*
X203189Y279091D01*
X204149Y278693D01*
X205180Y278557D01*
X206210Y278693D01*
X207170Y279091D01*
X207994Y279723D01*
X208627Y280547D01*
X209024Y281508D01*
X209160Y282538D01*
X209024Y283568D01*
X208627Y284528D01*
X207994Y285352D01*
X207170Y285985D01*
X206210Y286383D01*
X205180Y286518D01*
D02*
G37*
G36*
X195179D02*
X194149Y286383D01*
X193189Y285985D01*
X192365Y285352D01*
X191732Y284528D01*
X191335Y283568D01*
X191199Y282538D01*
X191335Y281508D01*
X191732Y280547D01*
X192365Y279723D01*
X193189Y279091D01*
X194149Y278693D01*
X195179Y278557D01*
X196210Y278693D01*
X197170Y279091D01*
X197994Y279723D01*
X198627Y280547D01*
X199024Y281508D01*
X199160Y282538D01*
X199024Y283568D01*
X198627Y284528D01*
X197994Y285352D01*
X197170Y285985D01*
X196210Y286383D01*
X195179Y286518D01*
D02*
G37*
G36*
X672992Y281788D02*
Y277185D01*
X677595D01*
X677493Y277959D01*
X676966Y279230D01*
X676129Y280322D01*
X675037Y281159D01*
X673766Y281686D01*
X672992Y281788D01*
D02*
G37*
G36*
X671811Y281788D02*
X671037Y281686D01*
X669766Y281159D01*
X668674Y280322D01*
X667837Y279230D01*
X667310Y277959D01*
X667208Y277185D01*
X671811D01*
Y281788D01*
D02*
G37*
G36*
X627992Y275696D02*
Y272185D01*
X631503D01*
X631438Y272676D01*
X631021Y273684D01*
X630357Y274550D01*
X629491Y275214D01*
X628483Y275631D01*
X627992Y275696D01*
D02*
G37*
G36*
X626811D02*
X626320Y275631D01*
X625312Y275214D01*
X624446Y274550D01*
X623782Y273684D01*
X623365Y272676D01*
X623300Y272185D01*
X626811D01*
Y275696D01*
D02*
G37*
G36*
X205180Y276518D02*
X204149Y276383D01*
X203189Y275985D01*
X202365Y275352D01*
X201732Y274528D01*
X201335Y273568D01*
X201199Y272538D01*
X201335Y271508D01*
X201732Y270548D01*
X202365Y269723D01*
X203189Y269091D01*
X204149Y268693D01*
X205180Y268557D01*
X206210Y268693D01*
X207170Y269091D01*
X207994Y269723D01*
X208627Y270548D01*
X209024Y271508D01*
X209160Y272538D01*
X209024Y273568D01*
X208627Y274528D01*
X207994Y275352D01*
X207170Y275985D01*
X206210Y276383D01*
X205180Y276518D01*
D02*
G37*
G36*
X195179D02*
X194149Y276383D01*
X193189Y275985D01*
X192365Y275352D01*
X191732Y274528D01*
X191335Y273568D01*
X191199Y272538D01*
X191335Y271508D01*
X191732Y270548D01*
X192365Y269723D01*
X193189Y269091D01*
X194149Y268693D01*
X195179Y268557D01*
X196210Y268693D01*
X197170Y269091D01*
X197994Y269723D01*
X198627Y270548D01*
X199024Y271508D01*
X199160Y272538D01*
X199024Y273568D01*
X198627Y274528D01*
X197994Y275352D01*
X197170Y275985D01*
X196210Y276383D01*
X195179Y276518D01*
D02*
G37*
G36*
X631503Y271004D02*
X627992D01*
Y267493D01*
X628483Y267558D01*
X629491Y267975D01*
X630357Y268639D01*
X631021Y269505D01*
X631438Y270513D01*
X631503Y271004D01*
D02*
G37*
G36*
X626811D02*
X623300D01*
X623365Y270513D01*
X623782Y269505D01*
X624446Y268639D01*
X625312Y267975D01*
X626320Y267558D01*
X626811Y267493D01*
Y271004D01*
D02*
G37*
G36*
X205770Y266441D02*
Y263128D01*
X209082D01*
X209024Y263568D01*
X208627Y264528D01*
X207994Y265352D01*
X207170Y265985D01*
X206210Y266383D01*
X205770Y266441D01*
D02*
G37*
G36*
X204589Y266441D02*
X204149Y266383D01*
X203189Y265985D01*
X202365Y265352D01*
X201732Y264528D01*
X201335Y263568D01*
X201277Y263128D01*
X204589D01*
Y266441D01*
D02*
G37*
G36*
X677595Y276004D02*
X672402D01*
X667208D01*
X667310Y275230D01*
X667837Y273959D01*
X668674Y272867D01*
X669766Y272030D01*
X671037Y271503D01*
X671767Y271407D01*
X671907Y270884D01*
X671174Y270322D01*
X670337Y269230D01*
X669810Y267959D01*
X669630Y266595D01*
X669810Y265230D01*
X670337Y263959D01*
X671174Y262867D01*
X672266Y262030D01*
X673537Y261503D01*
X674902Y261323D01*
X676266Y261503D01*
X677537Y262030D01*
X678629Y262867D01*
X679466Y263959D01*
X679993Y265230D01*
X680173Y266595D01*
X679993Y267959D01*
X679466Y269230D01*
X678629Y270322D01*
X677537Y271159D01*
X676266Y271686D01*
X675536Y271782D01*
X675396Y272305D01*
X676129Y272867D01*
X676966Y273959D01*
X677493Y275230D01*
X677595Y276004D01*
D02*
G37*
G36*
X204589Y261947D02*
X201277D01*
X201335Y261508D01*
X201732Y260547D01*
X202365Y259723D01*
X203189Y259091D01*
X204149Y258693D01*
X204589Y258635D01*
Y261947D01*
D02*
G37*
G36*
X209082D02*
X205770D01*
Y258635D01*
X206210Y258693D01*
X207170Y259091D01*
X207994Y259723D01*
X208627Y260547D01*
X209024Y261508D01*
X209082Y261947D01*
D02*
G37*
G36*
X195179Y266518D02*
X194149Y266383D01*
X193189Y265985D01*
X192365Y265352D01*
X191732Y264528D01*
X191335Y263568D01*
X191199Y262538D01*
X191335Y261508D01*
X191732Y260547D01*
X192365Y259723D01*
X193189Y259091D01*
X194149Y258693D01*
X195179Y258557D01*
X196210Y258693D01*
X197170Y259091D01*
X197994Y259723D01*
X198627Y260547D01*
X199024Y261508D01*
X199160Y262538D01*
X199024Y263568D01*
X198627Y264528D01*
X197994Y265352D01*
X197170Y265985D01*
X196210Y266383D01*
X195179Y266518D01*
D02*
G37*
G36*
X509055Y270714D02*
X508360Y270575D01*
X507771Y270182D01*
X507377Y269593D01*
X507239Y268898D01*
X507377Y268203D01*
X507440Y268109D01*
Y259450D01*
X507377Y259356D01*
X507239Y258661D01*
X507377Y257966D01*
X507771Y257377D01*
X508360Y256984D01*
X509055Y256845D01*
X509750Y256984D01*
X510339Y257377D01*
X510733Y257966D01*
X510871Y258661D01*
X510733Y259356D01*
X510670Y259450D01*
Y268109D01*
X510733Y268203D01*
X510871Y268898D01*
X510733Y269593D01*
X510339Y270182D01*
X509750Y270575D01*
X509055Y270714D01*
D02*
G37*
G36*
X637402Y266866D02*
X636037Y266686D01*
X634766Y266159D01*
X633674Y265322D01*
X632837Y264230D01*
X632310Y262959D01*
X632130Y261595D01*
X632310Y260230D01*
X632837Y258959D01*
X633674Y257867D01*
X634766Y257030D01*
X636037Y256503D01*
X637402Y256323D01*
X638766Y256503D01*
X640037Y257030D01*
X641129Y257867D01*
X641966Y258959D01*
X642493Y260230D01*
X642673Y261595D01*
X642493Y262959D01*
X641966Y264230D01*
X641129Y265322D01*
X640037Y266159D01*
X638766Y266686D01*
X637402Y266866D01*
D02*
G37*
G36*
X610492Y259446D02*
Y255935D01*
X614003D01*
X613938Y256426D01*
X613521Y257434D01*
X612857Y258299D01*
X611991Y258964D01*
X610983Y259381D01*
X610492Y259446D01*
D02*
G37*
G36*
X609311D02*
X608820Y259381D01*
X607812Y258964D01*
X606947Y258299D01*
X606282Y257434D01*
X605865Y256426D01*
X605800Y255935D01*
X609311D01*
Y259446D01*
D02*
G37*
G36*
X19026Y260484D02*
X11133D01*
Y252591D01*
X19026D01*
Y260484D01*
D02*
G37*
G36*
X25080Y260518D02*
X24049Y260383D01*
X23089Y259985D01*
X22265Y259352D01*
X21632Y258528D01*
X21235Y257568D01*
X21099Y256538D01*
X21235Y255508D01*
X21632Y254548D01*
X22265Y253723D01*
X23089Y253091D01*
X24049Y252693D01*
X25080Y252557D01*
X26110Y252693D01*
X27070Y253091D01*
X27894Y253723D01*
X28527Y254548D01*
X28924Y255508D01*
X29060Y256538D01*
X28924Y257568D01*
X28527Y258528D01*
X27894Y259352D01*
X27070Y259985D01*
X26110Y260383D01*
X25080Y260518D01*
D02*
G37*
G36*
X614003Y254754D02*
X610492D01*
Y251243D01*
X610983Y251308D01*
X611991Y251725D01*
X612857Y252390D01*
X613521Y253255D01*
X613938Y254263D01*
X614003Y254754D01*
D02*
G37*
G36*
X609311D02*
X605800D01*
X605865Y254263D01*
X606282Y253255D01*
X606947Y252390D01*
X607812Y251725D01*
X608820Y251308D01*
X609311Y251243D01*
Y254754D01*
D02*
G37*
G36*
X205180Y256518D02*
X204149Y256383D01*
X203189Y255985D01*
X202365Y255352D01*
X201732Y254528D01*
X201335Y253568D01*
X201199Y252538D01*
X201335Y251508D01*
X201732Y250548D01*
X202365Y249723D01*
X203189Y249091D01*
X204149Y248693D01*
X205180Y248557D01*
X206210Y248693D01*
X207170Y249091D01*
X207994Y249723D01*
X208627Y250548D01*
X209024Y251508D01*
X209160Y252538D01*
X209024Y253568D01*
X208627Y254528D01*
X207994Y255352D01*
X207170Y255985D01*
X206210Y256383D01*
X205180Y256518D01*
D02*
G37*
G36*
X195179D02*
X194149Y256383D01*
X193189Y255985D01*
X192365Y255352D01*
X191732Y254528D01*
X191335Y253568D01*
X191199Y252538D01*
X191335Y251508D01*
X191732Y250548D01*
X192365Y249723D01*
X193189Y249091D01*
X194149Y248693D01*
X195179Y248557D01*
X196210Y248693D01*
X197170Y249091D01*
X197994Y249723D01*
X198627Y250548D01*
X199024Y251508D01*
X199160Y252538D01*
X199024Y253568D01*
X198627Y254528D01*
X197994Y255352D01*
X197170Y255985D01*
X196210Y256383D01*
X195179Y256518D01*
D02*
G37*
G36*
X25080Y250518D02*
X24049Y250383D01*
X23089Y249985D01*
X22265Y249352D01*
X21632Y248528D01*
X21235Y247568D01*
X21099Y246538D01*
X21235Y245508D01*
X21632Y244548D01*
X22265Y243723D01*
X23089Y243091D01*
X24049Y242693D01*
X25080Y242557D01*
X26110Y242693D01*
X27070Y243091D01*
X27894Y243723D01*
X28527Y244548D01*
X28924Y245508D01*
X29060Y246538D01*
X28924Y247568D01*
X28527Y248528D01*
X27894Y249352D01*
X27070Y249985D01*
X26110Y250383D01*
X25080Y250518D01*
D02*
G37*
G36*
X15079D02*
X14049Y250383D01*
X13089Y249985D01*
X12265Y249352D01*
X11632Y248528D01*
X11235Y247568D01*
X11099Y246538D01*
X11235Y245508D01*
X11632Y244548D01*
X12265Y243723D01*
X13089Y243091D01*
X14049Y242693D01*
X15079Y242557D01*
X16110Y242693D01*
X17070Y243091D01*
X17894Y243723D01*
X18527Y244548D01*
X18924Y245508D01*
X19060Y246538D01*
X18924Y247568D01*
X18527Y248528D01*
X17894Y249352D01*
X17070Y249985D01*
X16110Y250383D01*
X15079Y250518D01*
D02*
G37*
G36*
X607402Y248273D02*
X606320Y248131D01*
X605312Y247714D01*
X604447Y247049D01*
X603782Y246184D01*
X603365Y245176D01*
X603223Y244094D01*
X603365Y243013D01*
X603782Y242005D01*
X604447Y241140D01*
X605312Y240475D01*
X606320Y240058D01*
X607402Y239915D01*
X608483Y240058D01*
X609491Y240475D01*
X610357Y241140D01*
X611021Y242005D01*
X611438Y243013D01*
X611581Y244094D01*
X611438Y245176D01*
X611021Y246184D01*
X610357Y247049D01*
X609491Y247714D01*
X608483Y248131D01*
X607402Y248273D01*
D02*
G37*
G36*
X298088Y246435D02*
X290888D01*
Y239235D01*
X298088D01*
Y246435D01*
D02*
G37*
G36*
X662402Y249366D02*
X661037Y249186D01*
X659766Y248659D01*
X658674Y247822D01*
X657837Y246730D01*
X657310Y245459D01*
X657130Y244094D01*
X657310Y242730D01*
X657837Y241459D01*
X658674Y240367D01*
X659766Y239530D01*
X661037Y239003D01*
X662402Y238823D01*
X663766Y239003D01*
X665037Y239530D01*
X666129Y240367D01*
X666966Y241459D01*
X667493Y242730D01*
X667673Y244094D01*
X667493Y245459D01*
X666966Y246730D01*
X666129Y247822D01*
X665037Y248659D01*
X663766Y249186D01*
X662402Y249366D01*
D02*
G37*
G36*
X205180Y246518D02*
X204149Y246383D01*
X203189Y245985D01*
X202365Y245352D01*
X201732Y244528D01*
X201335Y243568D01*
X201199Y242538D01*
X201335Y241508D01*
X201732Y240547D01*
X202365Y239723D01*
X203189Y239091D01*
X204149Y238693D01*
X205180Y238557D01*
X206210Y238693D01*
X207170Y239091D01*
X207994Y239723D01*
X208627Y240547D01*
X209024Y241508D01*
X209160Y242538D01*
X209024Y243568D01*
X208627Y244528D01*
X207994Y245352D01*
X207170Y245985D01*
X206210Y246383D01*
X205180Y246518D01*
D02*
G37*
G36*
X195179D02*
X194149Y246383D01*
X193189Y245985D01*
X192365Y245352D01*
X191732Y244528D01*
X191335Y243568D01*
X191199Y242538D01*
X191335Y241508D01*
X191732Y240547D01*
X192365Y239723D01*
X193189Y239091D01*
X194149Y238693D01*
X195179Y238557D01*
X196210Y238693D01*
X197170Y239091D01*
X197994Y239723D01*
X198627Y240547D01*
X199024Y241508D01*
X199160Y242538D01*
X199024Y243568D01*
X198627Y244528D01*
X197994Y245352D01*
X197170Y245985D01*
X196210Y246383D01*
X195179Y246518D01*
D02*
G37*
G36*
X25080Y240518D02*
X24049Y240383D01*
X23089Y239985D01*
X22265Y239352D01*
X21632Y238528D01*
X21235Y237568D01*
X21099Y236538D01*
X21235Y235508D01*
X21632Y234547D01*
X22265Y233723D01*
X23089Y233091D01*
X24049Y232693D01*
X25080Y232557D01*
X26110Y232693D01*
X27070Y233091D01*
X27894Y233723D01*
X28527Y234547D01*
X28924Y235508D01*
X29060Y236538D01*
X28924Y237568D01*
X28527Y238528D01*
X27894Y239352D01*
X27070Y239985D01*
X26110Y240383D01*
X25080Y240518D01*
D02*
G37*
G36*
X15079D02*
X14049Y240383D01*
X13089Y239985D01*
X12265Y239352D01*
X11632Y238528D01*
X11235Y237568D01*
X11099Y236538D01*
X11235Y235508D01*
X11632Y234547D01*
X12265Y233723D01*
X13089Y233091D01*
X14049Y232693D01*
X15079Y232557D01*
X16110Y232693D01*
X17070Y233091D01*
X17894Y233723D01*
X18527Y234547D01*
X18924Y235508D01*
X19060Y236538D01*
X18924Y237568D01*
X18527Y238528D01*
X17894Y239352D01*
X17070Y239985D01*
X16110Y240383D01*
X15079Y240518D01*
D02*
G37*
G36*
X294488Y236466D02*
X293548Y236342D01*
X292673Y235979D01*
X291921Y235402D01*
X291344Y234650D01*
X290981Y233774D01*
X290857Y232835D01*
X290981Y231895D01*
X291344Y231019D01*
X291921Y230267D01*
X292673Y229690D01*
X293548Y229327D01*
X294488Y229204D01*
X295428Y229327D01*
X296304Y229690D01*
X297056Y230267D01*
X297633Y231019D01*
X297995Y231895D01*
X298119Y232835D01*
X297995Y233774D01*
X297633Y234650D01*
X297056Y235402D01*
X296304Y235979D01*
X295428Y236342D01*
X294488Y236466D01*
D02*
G37*
G36*
X609902Y237023D02*
X608820Y236881D01*
X607812Y236464D01*
X606947Y235800D01*
X606282Y234934D01*
X605865Y233926D01*
X605723Y232844D01*
X605865Y231763D01*
X606282Y230755D01*
X606947Y229889D01*
X607812Y229225D01*
X608820Y228808D01*
X609902Y228665D01*
X610983Y228808D01*
X611991Y229225D01*
X612857Y229889D01*
X613521Y230755D01*
X613938Y231763D01*
X614081Y232844D01*
X613938Y233926D01*
X613521Y234934D01*
X612857Y235800D01*
X611991Y236464D01*
X610983Y236881D01*
X609902Y237023D01*
D02*
G37*
G36*
X205180Y236518D02*
X204149Y236383D01*
X203189Y235985D01*
X202365Y235352D01*
X201732Y234528D01*
X201335Y233568D01*
X201199Y232538D01*
X201335Y231508D01*
X201732Y230547D01*
X202365Y229723D01*
X203189Y229091D01*
X204149Y228693D01*
X205180Y228557D01*
X206210Y228693D01*
X207170Y229091D01*
X207994Y229723D01*
X208627Y230547D01*
X209024Y231508D01*
X209160Y232538D01*
X209024Y233568D01*
X208627Y234528D01*
X207994Y235352D01*
X207170Y235985D01*
X206210Y236383D01*
X205180Y236518D01*
D02*
G37*
G36*
X195179D02*
X194149Y236383D01*
X193189Y235985D01*
X192365Y235352D01*
X191732Y234528D01*
X191335Y233568D01*
X191199Y232538D01*
X191335Y231508D01*
X191732Y230547D01*
X192365Y229723D01*
X193189Y229091D01*
X194149Y228693D01*
X195179Y228557D01*
X196210Y228693D01*
X197170Y229091D01*
X197994Y229723D01*
X198627Y230547D01*
X199024Y231508D01*
X199160Y232538D01*
X199024Y233568D01*
X198627Y234528D01*
X197994Y235352D01*
X197170Y235985D01*
X196210Y236383D01*
X195179Y236518D01*
D02*
G37*
G36*
X25080Y230518D02*
X24049Y230383D01*
X23089Y229985D01*
X22265Y229352D01*
X21632Y228528D01*
X21235Y227568D01*
X21099Y226538D01*
X21235Y225508D01*
X21632Y224548D01*
X22265Y223723D01*
X23089Y223091D01*
X24049Y222693D01*
X25080Y222557D01*
X26110Y222693D01*
X27070Y223091D01*
X27894Y223723D01*
X28527Y224548D01*
X28924Y225508D01*
X29060Y226538D01*
X28924Y227568D01*
X28527Y228528D01*
X27894Y229352D01*
X27070Y229985D01*
X26110Y230383D01*
X25080Y230518D01*
D02*
G37*
G36*
X15079D02*
X14049Y230383D01*
X13089Y229985D01*
X12265Y229352D01*
X11632Y228528D01*
X11235Y227568D01*
X11099Y226538D01*
X11235Y225508D01*
X11632Y224548D01*
X12265Y223723D01*
X13089Y223091D01*
X14049Y222693D01*
X15079Y222557D01*
X16110Y222693D01*
X17070Y223091D01*
X17894Y223723D01*
X18527Y224548D01*
X18924Y225508D01*
X19060Y226538D01*
X18924Y227568D01*
X18527Y228528D01*
X17894Y229352D01*
X17070Y229985D01*
X16110Y230383D01*
X15079Y230518D01*
D02*
G37*
G36*
X637402Y231866D02*
X636037Y231686D01*
X634766Y231159D01*
X633674Y230322D01*
X632837Y229230D01*
X632310Y227959D01*
X632130Y226594D01*
X632310Y225230D01*
X632837Y223959D01*
X633674Y222867D01*
X634766Y222030D01*
X636037Y221503D01*
X637402Y221323D01*
X638766Y221503D01*
X640037Y222030D01*
X641129Y222867D01*
X641966Y223959D01*
X642493Y225230D01*
X642673Y226594D01*
X642493Y227959D01*
X641966Y229230D01*
X641129Y230322D01*
X640037Y231159D01*
X638766Y231686D01*
X637402Y231866D01*
D02*
G37*
G36*
X294488Y226466D02*
X293548Y226342D01*
X292673Y225979D01*
X291921Y225402D01*
X291344Y224650D01*
X290981Y223774D01*
X290857Y222835D01*
X290981Y221895D01*
X291344Y221019D01*
X291921Y220267D01*
X292673Y219690D01*
X293548Y219327D01*
X294488Y219204D01*
X295428Y219327D01*
X296304Y219690D01*
X297056Y220267D01*
X297633Y221019D01*
X297995Y221895D01*
X298119Y222835D01*
X297995Y223774D01*
X297633Y224650D01*
X297056Y225402D01*
X296304Y225979D01*
X295428Y226342D01*
X294488Y226466D01*
D02*
G37*
G36*
X195179Y226518D02*
X194149Y226383D01*
X193189Y225985D01*
X192365Y225352D01*
X191732Y224528D01*
X191335Y223568D01*
X191199Y222538D01*
X191335Y221508D01*
X191732Y220548D01*
X192365Y219723D01*
X193189Y219091D01*
X194149Y218693D01*
X195179Y218557D01*
X196210Y218693D01*
X197170Y219091D01*
X197994Y219723D01*
X198627Y220548D01*
X199024Y221508D01*
X199160Y222538D01*
X199024Y223568D01*
X198627Y224528D01*
X197994Y225352D01*
X197170Y225985D01*
X196210Y226383D01*
X195179Y226518D01*
D02*
G37*
G36*
X674902Y226866D02*
X673537Y226686D01*
X672266Y226159D01*
X671174Y225322D01*
X670337Y224230D01*
X669810Y222959D01*
X669630Y221595D01*
X669810Y220230D01*
X670337Y218959D01*
X671174Y217867D01*
X672266Y217030D01*
X673537Y216503D01*
X674902Y216323D01*
X676266Y216503D01*
X677537Y217030D01*
X678629Y217867D01*
X679466Y218959D01*
X679993Y220230D01*
X680173Y221595D01*
X679993Y222959D01*
X679466Y224230D01*
X678629Y225322D01*
X677537Y226159D01*
X676266Y226686D01*
X674902Y226866D01*
D02*
G37*
G36*
X205180Y226518D02*
X204149Y226383D01*
X203189Y225985D01*
X202365Y225352D01*
X201732Y224528D01*
X201335Y223568D01*
X201199Y222538D01*
X201335Y221508D01*
X201732Y220548D01*
X202365Y219723D01*
X203189Y219091D01*
X204149Y218693D01*
X205180Y218557D01*
X206210Y218693D01*
X207170Y219091D01*
X207994Y219723D01*
X208627Y220548D01*
X209024Y221508D01*
X209040Y221625D01*
X221410D01*
X226553Y216482D01*
X226669Y215899D01*
X227062Y215310D01*
X227652Y214917D01*
X228346Y214778D01*
X229041Y214917D01*
X229631Y215310D01*
X230024Y215899D01*
X230162Y216595D01*
X230024Y217289D01*
X229631Y217879D01*
X229041Y218272D01*
X228346Y218410D01*
X227652Y218272D01*
X227467Y218149D01*
X222434Y223183D01*
X222137Y223381D01*
X221788Y223451D01*
X209040D01*
X209024Y223568D01*
X208627Y224528D01*
X207994Y225352D01*
X207170Y225985D01*
X206210Y226383D01*
X205180Y226518D01*
D02*
G37*
G36*
X25080Y220518D02*
X24049Y220383D01*
X23089Y219985D01*
X22265Y219352D01*
X21632Y218528D01*
X21235Y217568D01*
X21099Y216538D01*
X21235Y215508D01*
X21632Y214547D01*
X22265Y213723D01*
X23089Y213091D01*
X24049Y212693D01*
X25080Y212557D01*
X26110Y212693D01*
X27070Y213091D01*
X27894Y213723D01*
X28527Y214547D01*
X28924Y215508D01*
X29060Y216538D01*
X28924Y217568D01*
X28527Y218528D01*
X27894Y219352D01*
X27070Y219985D01*
X26110Y220383D01*
X25080Y220518D01*
D02*
G37*
G36*
X15079D02*
X14049Y220383D01*
X13089Y219985D01*
X12265Y219352D01*
X11632Y218528D01*
X11235Y217568D01*
X11099Y216538D01*
X11235Y215508D01*
X11632Y214547D01*
X12265Y213723D01*
X13089Y213091D01*
X14049Y212693D01*
X15079Y212557D01*
X16110Y212693D01*
X17070Y213091D01*
X17894Y213723D01*
X18527Y214547D01*
X18924Y215508D01*
X19060Y216538D01*
X18924Y217568D01*
X18527Y218528D01*
X17894Y219352D01*
X17070Y219985D01*
X16110Y220383D01*
X15079Y220518D01*
D02*
G37*
G36*
X624902Y220774D02*
X623820Y220631D01*
X622812Y220214D01*
X621946Y219549D01*
X621282Y218684D01*
X620865Y217676D01*
X620722Y216595D01*
X620865Y215513D01*
X621282Y214505D01*
X621946Y213639D01*
X622812Y212975D01*
X623820Y212558D01*
X624902Y212415D01*
X625983Y212558D01*
X626991Y212975D01*
X627857Y213639D01*
X628521Y214505D01*
X628938Y215513D01*
X629081Y216595D01*
X628938Y217676D01*
X628521Y218684D01*
X627857Y219549D01*
X626991Y220214D01*
X625983Y220631D01*
X624902Y220774D01*
D02*
G37*
G36*
X294488Y216466D02*
X293548Y216342D01*
X292673Y215979D01*
X291921Y215402D01*
X291344Y214650D01*
X290981Y213774D01*
X290857Y212835D01*
X290981Y211895D01*
X291344Y211019D01*
X291921Y210267D01*
X292673Y209690D01*
X293548Y209327D01*
X294488Y209204D01*
X295428Y209327D01*
X296304Y209690D01*
X297056Y210267D01*
X297633Y211019D01*
X297995Y211895D01*
X298119Y212835D01*
X297995Y213774D01*
X297633Y214650D01*
X297056Y215402D01*
X296304Y215979D01*
X295428Y216342D01*
X294488Y216466D01*
D02*
G37*
G36*
X205180Y216518D02*
X204149Y216383D01*
X203189Y215985D01*
X202365Y215352D01*
X201732Y214528D01*
X201335Y213568D01*
X201199Y212538D01*
X201335Y211508D01*
X201732Y210547D01*
X202365Y209723D01*
X203189Y209091D01*
X204149Y208693D01*
X205180Y208557D01*
X206210Y208693D01*
X207170Y209091D01*
X207994Y209723D01*
X208627Y210547D01*
X209024Y211508D01*
X209160Y212538D01*
X209024Y213568D01*
X208627Y214528D01*
X207994Y215352D01*
X207170Y215985D01*
X206210Y216383D01*
X205180Y216518D01*
D02*
G37*
G36*
X195179D02*
X194149Y216383D01*
X193189Y215985D01*
X192365Y215352D01*
X191732Y214528D01*
X191335Y213568D01*
X191199Y212538D01*
X191335Y211508D01*
X191732Y210547D01*
X191804Y210454D01*
X187937Y206586D01*
X187739Y206290D01*
X187670Y205941D01*
Y196063D01*
X187739Y195714D01*
X187937Y195417D01*
X191874Y191481D01*
X192170Y191283D01*
X192520Y191213D01*
X235158D01*
X235406Y190842D01*
X235995Y190448D01*
X236690Y190310D01*
X237385Y190448D01*
X237974Y190842D01*
X238368Y191431D01*
X238506Y192126D01*
X238368Y192821D01*
X237974Y193410D01*
X237385Y193804D01*
X236690Y193942D01*
X235995Y193804D01*
X235406Y193410D01*
X235158Y193039D01*
X233631D01*
X233479Y193539D01*
X233568Y193598D01*
X233961Y194187D01*
X234099Y194882D01*
X233961Y195577D01*
X233568Y196166D01*
X232978Y196560D01*
X232283Y196698D01*
X231589Y196560D01*
X230999Y196166D01*
X230751Y195795D01*
X203214D01*
X198555Y200454D01*
X198627Y200548D01*
X199024Y201508D01*
X199160Y202538D01*
X199024Y203568D01*
X198627Y204528D01*
X197994Y205352D01*
X197170Y205985D01*
X196210Y206383D01*
X195179Y206518D01*
X194149Y206383D01*
X193189Y205985D01*
X192365Y205352D01*
X191732Y204528D01*
X191335Y203568D01*
X191199Y202538D01*
X191335Y201508D01*
X191732Y200548D01*
X192365Y199723D01*
X193189Y199091D01*
X194149Y198693D01*
X195179Y198557D01*
X196210Y198693D01*
X197170Y199091D01*
X197264Y199163D01*
X202190Y194236D01*
X202486Y194039D01*
X202835Y193969D01*
X230751D01*
X230999Y193598D01*
X231088Y193539D01*
X230936Y193039D01*
X192898D01*
X189496Y196441D01*
Y205563D01*
X193095Y209163D01*
X193189Y209091D01*
X194149Y208693D01*
X195179Y208557D01*
X196210Y208693D01*
X197170Y209091D01*
X197994Y209723D01*
X198627Y210547D01*
X199024Y211508D01*
X199160Y212538D01*
X199024Y213568D01*
X198627Y214528D01*
X197994Y215352D01*
X197170Y215985D01*
X196210Y216383D01*
X195179Y216518D01*
D02*
G37*
G36*
X15670Y210440D02*
Y207128D01*
X18982D01*
X18924Y207568D01*
X18527Y208528D01*
X17894Y209352D01*
X17070Y209985D01*
X16110Y210383D01*
X15670Y210440D01*
D02*
G37*
G36*
X14489Y210440D02*
X14049Y210383D01*
X13089Y209985D01*
X12265Y209352D01*
X11632Y208528D01*
X11235Y207568D01*
X11177Y207128D01*
X14489D01*
Y210440D01*
D02*
G37*
G36*
X295079Y206388D02*
Y203425D01*
X298042D01*
X297995Y203774D01*
X297633Y204650D01*
X297056Y205402D01*
X296304Y205979D01*
X295428Y206342D01*
X295079Y206388D01*
D02*
G37*
G36*
X293898D02*
X293548Y206342D01*
X292673Y205979D01*
X291921Y205402D01*
X291344Y204650D01*
X290981Y203774D01*
X290935Y203425D01*
X293898D01*
Y206388D01*
D02*
G37*
G36*
X14489Y205947D02*
X11177D01*
X11235Y205508D01*
X11632Y204548D01*
X12265Y203723D01*
X13089Y203091D01*
X14049Y202693D01*
X14489Y202635D01*
Y205947D01*
D02*
G37*
G36*
X18982D02*
X15670D01*
Y202635D01*
X16110Y202693D01*
X17070Y203091D01*
X17894Y203723D01*
X18527Y204548D01*
X18924Y205508D01*
X18982Y205947D01*
D02*
G37*
G36*
X25080Y210518D02*
X24049Y210383D01*
X23089Y209985D01*
X22265Y209352D01*
X21632Y208528D01*
X21235Y207568D01*
X21099Y206538D01*
X21235Y205508D01*
X21632Y204548D01*
X22265Y203723D01*
X23089Y203091D01*
X24049Y202693D01*
X25080Y202557D01*
X26110Y202693D01*
X27070Y203091D01*
X27894Y203723D01*
X28527Y204548D01*
X28924Y205508D01*
X29060Y206538D01*
X28924Y207568D01*
X28527Y208528D01*
X27894Y209352D01*
X27070Y209985D01*
X26110Y210383D01*
X25080Y210518D01*
D02*
G37*
G36*
X205180Y206518D02*
X204149Y206383D01*
X203189Y205985D01*
X202365Y205352D01*
X201732Y204528D01*
X201335Y203568D01*
X201199Y202538D01*
X201335Y201508D01*
X201732Y200548D01*
X202365Y199723D01*
X203189Y199091D01*
X204149Y198693D01*
X205180Y198557D01*
X206210Y198693D01*
X207170Y199091D01*
X207994Y199723D01*
X208627Y200548D01*
X209024Y201508D01*
X209040Y201625D01*
X229767D01*
X230015Y201254D01*
X230604Y200860D01*
X231299Y200722D01*
X231994Y200860D01*
X232583Y201254D01*
X232977Y201843D01*
X233115Y202538D01*
X232977Y203233D01*
X232583Y203822D01*
X231994Y204216D01*
X231299Y204354D01*
X230604Y204216D01*
X230015Y203822D01*
X229767Y203451D01*
X209040D01*
X209024Y203568D01*
X208627Y204528D01*
X207994Y205352D01*
X207170Y205985D01*
X206210Y206383D01*
X205180Y206518D01*
D02*
G37*
G36*
X298042Y202244D02*
X295079D01*
Y199281D01*
X295428Y199327D01*
X296304Y199690D01*
X297056Y200267D01*
X297633Y201019D01*
X297995Y201895D01*
X298042Y202244D01*
D02*
G37*
G36*
X293898D02*
X290935D01*
X290981Y201895D01*
X291344Y201019D01*
X291921Y200267D01*
X292673Y199690D01*
X293548Y199327D01*
X293898Y199281D01*
Y202244D01*
D02*
G37*
G36*
X550000Y205753D02*
X549305Y205615D01*
X548716Y205221D01*
X548322Y204632D01*
X548184Y203937D01*
X548322Y203242D01*
X548716Y202653D01*
X549087Y202405D01*
Y200745D01*
X548716Y200497D01*
X548322Y199908D01*
X548184Y199213D01*
X548322Y198518D01*
X548716Y197929D01*
X549305Y197535D01*
X550000Y197397D01*
X550695Y197535D01*
X551284Y197929D01*
X551678Y198518D01*
X551816Y199213D01*
X551678Y199908D01*
X551284Y200497D01*
X550913Y200745D01*
Y202405D01*
X551284Y202653D01*
X551678Y203242D01*
X551816Y203937D01*
X551678Y204632D01*
X551284Y205221D01*
X550695Y205615D01*
X550000Y205753D01*
D02*
G37*
G36*
X15670Y200441D02*
Y197128D01*
X18982D01*
X18924Y197568D01*
X18527Y198528D01*
X17894Y199352D01*
X17070Y199985D01*
X16110Y200383D01*
X15670Y200441D01*
D02*
G37*
G36*
X14489Y200441D02*
X14049Y200383D01*
X13089Y199985D01*
X12265Y199352D01*
X11632Y198528D01*
X11235Y197568D01*
X11177Y197128D01*
X14489D01*
Y200441D01*
D02*
G37*
G36*
Y195947D02*
X11177D01*
X11235Y195508D01*
X11632Y194547D01*
X12265Y193723D01*
X13089Y193091D01*
X14049Y192693D01*
X14489Y192635D01*
Y195947D01*
D02*
G37*
G36*
X18982D02*
X15670D01*
Y192635D01*
X16110Y192693D01*
X17070Y193091D01*
X17894Y193723D01*
X18527Y194547D01*
X18924Y195508D01*
X18982Y195947D01*
D02*
G37*
G36*
X25080Y200518D02*
X24049Y200383D01*
X23089Y199985D01*
X22265Y199352D01*
X21632Y198528D01*
X21235Y197568D01*
X21099Y196538D01*
X21235Y195508D01*
X21632Y194547D01*
X22265Y193723D01*
X23089Y193091D01*
X24049Y192693D01*
X25080Y192557D01*
X26110Y192693D01*
X27070Y193091D01*
X27894Y193723D01*
X28527Y194547D01*
X28924Y195508D01*
X29060Y196538D01*
X28924Y197568D01*
X28527Y198528D01*
X27894Y199352D01*
X27070Y199985D01*
X26110Y200383D01*
X25080Y200518D01*
D02*
G37*
G36*
X199026Y190584D02*
X191133D01*
Y182691D01*
X199026D01*
Y190584D01*
D02*
G37*
G36*
X205080Y190618D02*
X204049Y190483D01*
X203089Y190085D01*
X202265Y189452D01*
X201632Y188628D01*
X201235Y187668D01*
X201099Y186638D01*
X201235Y185608D01*
X201632Y184648D01*
X202265Y183823D01*
X203089Y183191D01*
X204049Y182793D01*
X205080Y182657D01*
X206110Y182793D01*
X207070Y183191D01*
X207894Y183823D01*
X208527Y184648D01*
X208924Y185608D01*
X209060Y186638D01*
X208924Y187668D01*
X208527Y188628D01*
X207894Y189452D01*
X207070Y190085D01*
X206110Y190483D01*
X205080Y190618D01*
D02*
G37*
G36*
X25080Y190518D02*
X24049Y190383D01*
X23089Y189985D01*
X22265Y189352D01*
X21632Y188528D01*
X21235Y187568D01*
X21099Y186538D01*
X21235Y185508D01*
X21632Y184547D01*
X22265Y183723D01*
X23089Y183091D01*
X24049Y182693D01*
X25080Y182557D01*
X26110Y182693D01*
X27070Y183091D01*
X27894Y183723D01*
X28527Y184547D01*
X28924Y185508D01*
X29060Y186538D01*
X28924Y187568D01*
X28527Y188528D01*
X27894Y189352D01*
X27070Y189985D01*
X26110Y190383D01*
X25080Y190518D01*
D02*
G37*
G36*
X15079D02*
X14049Y190383D01*
X13089Y189985D01*
X12265Y189352D01*
X11632Y188528D01*
X11235Y187568D01*
X11099Y186538D01*
X11235Y185508D01*
X11632Y184547D01*
X12265Y183723D01*
X13089Y183091D01*
X14049Y182693D01*
X15079Y182557D01*
X16110Y182693D01*
X17070Y183091D01*
X17894Y183723D01*
X18527Y184547D01*
X18924Y185508D01*
X19060Y186538D01*
X18924Y187568D01*
X18527Y188528D01*
X17894Y189352D01*
X17070Y189985D01*
X16110Y190383D01*
X15079Y190518D01*
D02*
G37*
G36*
X515354Y191973D02*
X514659Y191835D01*
X514070Y191442D01*
X513677Y190852D01*
X513538Y190157D01*
X513677Y189462D01*
X514070Y188873D01*
X514441Y188625D01*
Y183816D01*
X514070Y183568D01*
X513677Y182978D01*
X513538Y182283D01*
X513677Y181588D01*
X514070Y180999D01*
X514659Y180606D01*
X515354Y180467D01*
X516049Y180606D01*
X516638Y180999D01*
X517032Y181588D01*
X517170Y182283D01*
X517032Y182978D01*
X516638Y183568D01*
X516267Y183816D01*
Y188625D01*
X516638Y188873D01*
X517032Y189462D01*
X517170Y190157D01*
X517032Y190852D01*
X516638Y191442D01*
X516049Y191835D01*
X515354Y191973D01*
D02*
G37*
G36*
X525624Y220107D02*
X524929Y219969D01*
X524339Y219575D01*
X523946Y218986D01*
X523808Y218291D01*
X523946Y217596D01*
X524008Y217502D01*
Y183039D01*
X523946Y182945D01*
X523808Y182250D01*
X523946Y181555D01*
X524339Y180966D01*
X524929Y180573D01*
X525624Y180434D01*
X526319Y180573D01*
X526908Y180966D01*
X527301Y181555D01*
X527440Y182250D01*
X527301Y182945D01*
X527239Y183039D01*
Y217502D01*
X527301Y217596D01*
X527440Y218291D01*
X527301Y218986D01*
X526908Y219575D01*
X526319Y219969D01*
X525624Y220107D01*
D02*
G37*
G36*
X205080Y180618D02*
X204049Y180483D01*
X203089Y180085D01*
X202265Y179452D01*
X201632Y178628D01*
X201235Y177668D01*
X201099Y176638D01*
X201235Y175608D01*
X201632Y174647D01*
X202265Y173823D01*
X203089Y173191D01*
X204049Y172793D01*
X205080Y172657D01*
X206110Y172793D01*
X207070Y173191D01*
X207894Y173823D01*
X208527Y174647D01*
X208924Y175608D01*
X209060Y176638D01*
X208924Y177668D01*
X208527Y178628D01*
X207894Y179452D01*
X207070Y180085D01*
X206110Y180483D01*
X205080Y180618D01*
D02*
G37*
G36*
X195080D02*
X194049Y180483D01*
X193089Y180085D01*
X192265Y179452D01*
X191632Y178628D01*
X191235Y177668D01*
X191099Y176638D01*
X191235Y175608D01*
X191632Y174647D01*
X192265Y173823D01*
X193089Y173191D01*
X194049Y172793D01*
X195080Y172657D01*
X196110Y172793D01*
X197070Y173191D01*
X197894Y173823D01*
X198527Y174647D01*
X198924Y175608D01*
X199060Y176638D01*
X198924Y177668D01*
X198527Y178628D01*
X197894Y179452D01*
X197070Y180085D01*
X196110Y180483D01*
X195080Y180618D01*
D02*
G37*
G36*
X195670Y170541D02*
Y167228D01*
X198982D01*
X198924Y167668D01*
X198527Y168628D01*
X197894Y169452D01*
X197070Y170085D01*
X196110Y170483D01*
X195670Y170541D01*
D02*
G37*
G36*
X194489Y170540D02*
X194049Y170483D01*
X193089Y170085D01*
X192265Y169452D01*
X191632Y168628D01*
X191235Y167668D01*
X191177Y167228D01*
X194489D01*
Y170540D01*
D02*
G37*
G36*
Y166047D02*
X191177D01*
X191235Y165608D01*
X191632Y164647D01*
X192265Y163823D01*
X193089Y163191D01*
X194049Y162793D01*
X194489Y162735D01*
Y166047D01*
D02*
G37*
G36*
X198982D02*
X195670D01*
Y162735D01*
X196110Y162793D01*
X197070Y163191D01*
X197894Y163823D01*
X198527Y164647D01*
X198924Y165608D01*
X198982Y166047D01*
D02*
G37*
G36*
X205080Y170618D02*
X204049Y170483D01*
X203089Y170085D01*
X202265Y169452D01*
X201632Y168628D01*
X201235Y167668D01*
X201099Y166638D01*
X201235Y165608D01*
X201632Y164647D01*
X202265Y163823D01*
X203089Y163191D01*
X204049Y162793D01*
X205080Y162657D01*
X206110Y162793D01*
X207070Y163191D01*
X207894Y163823D01*
X208527Y164647D01*
X208924Y165608D01*
X209060Y166638D01*
X208924Y167668D01*
X208527Y168628D01*
X207894Y169452D01*
X207070Y170085D01*
X206110Y170483D01*
X205080Y170618D01*
D02*
G37*
G36*
X19426Y170384D02*
X11533D01*
Y162491D01*
X19426D01*
Y170384D01*
D02*
G37*
G36*
X25480Y170418D02*
X24449Y170283D01*
X23489Y169885D01*
X22665Y169252D01*
X22032Y168428D01*
X21635Y167468D01*
X21499Y166438D01*
X21635Y165408D01*
X22032Y164447D01*
X22665Y163623D01*
X23489Y162991D01*
X24449Y162593D01*
X25480Y162457D01*
X26510Y162593D01*
X27470Y162991D01*
X28294Y163623D01*
X28927Y164447D01*
X29324Y165408D01*
X29460Y166438D01*
X29324Y167468D01*
X28927Y168428D01*
X28294Y169252D01*
X27470Y169885D01*
X26510Y170283D01*
X25480Y170418D01*
D02*
G37*
G36*
X205080Y160618D02*
X204049Y160483D01*
X203089Y160085D01*
X202265Y159452D01*
X201632Y158628D01*
X201235Y157668D01*
X201099Y156638D01*
X201235Y155608D01*
X201632Y154648D01*
X202265Y153823D01*
X203089Y153191D01*
X204049Y152793D01*
X205080Y152657D01*
X206110Y152793D01*
X207070Y153191D01*
X207894Y153823D01*
X208527Y154648D01*
X208924Y155608D01*
X209060Y156638D01*
X208924Y157668D01*
X208527Y158628D01*
X207894Y159452D01*
X207070Y160085D01*
X206110Y160483D01*
X205080Y160618D01*
D02*
G37*
G36*
X195080D02*
X194049Y160483D01*
X193089Y160085D01*
X192265Y159452D01*
X191632Y158628D01*
X191235Y157668D01*
X191099Y156638D01*
X191235Y155608D01*
X191632Y154648D01*
X192265Y153823D01*
X193089Y153191D01*
X194049Y152793D01*
X195080Y152657D01*
X196110Y152793D01*
X197070Y153191D01*
X197894Y153823D01*
X198527Y154648D01*
X198924Y155608D01*
X199060Y156638D01*
X198924Y157668D01*
X198527Y158628D01*
X197894Y159452D01*
X197070Y160085D01*
X196110Y160483D01*
X195080Y160618D01*
D02*
G37*
G36*
X25480Y160418D02*
X24449Y160283D01*
X23489Y159885D01*
X22665Y159252D01*
X22032Y158428D01*
X21635Y157468D01*
X21499Y156438D01*
X21635Y155408D01*
X22032Y154447D01*
X22665Y153623D01*
X23489Y152991D01*
X24449Y152593D01*
X25480Y152457D01*
X26510Y152593D01*
X27470Y152991D01*
X28294Y153623D01*
X28927Y154447D01*
X29324Y155408D01*
X29460Y156438D01*
X29324Y157468D01*
X28927Y158428D01*
X28294Y159252D01*
X27470Y159885D01*
X26510Y160283D01*
X25480Y160418D01*
D02*
G37*
G36*
X15480D02*
X14449Y160283D01*
X13489Y159885D01*
X12665Y159252D01*
X12032Y158428D01*
X11635Y157468D01*
X11499Y156438D01*
X11635Y155408D01*
X12032Y154447D01*
X12665Y153623D01*
X13489Y152991D01*
X14449Y152593D01*
X15480Y152457D01*
X16510Y152593D01*
X17470Y152991D01*
X18294Y153623D01*
X18927Y154447D01*
X19324Y155408D01*
X19460Y156438D01*
X19324Y157468D01*
X18927Y158428D01*
X18294Y159252D01*
X17470Y159885D01*
X16510Y160283D01*
X15480Y160418D01*
D02*
G37*
G36*
X205080Y150618D02*
X204049Y150483D01*
X203089Y150085D01*
X202265Y149452D01*
X201632Y148628D01*
X201235Y147668D01*
X201099Y146638D01*
X201235Y145608D01*
X201632Y144648D01*
X202265Y143823D01*
X203089Y143191D01*
X204049Y142793D01*
X205080Y142657D01*
X206110Y142793D01*
X207070Y143191D01*
X207894Y143823D01*
X208527Y144648D01*
X208924Y145608D01*
X209060Y146638D01*
X208924Y147668D01*
X208527Y148628D01*
X207894Y149452D01*
X207070Y150085D01*
X206110Y150483D01*
X205080Y150618D01*
D02*
G37*
G36*
X195080D02*
X194049Y150483D01*
X193089Y150085D01*
X192265Y149452D01*
X191632Y148628D01*
X191235Y147668D01*
X191099Y146638D01*
X191235Y145608D01*
X191632Y144648D01*
X192265Y143823D01*
X193089Y143191D01*
X194049Y142793D01*
X195080Y142657D01*
X196110Y142793D01*
X197070Y143191D01*
X197894Y143823D01*
X198527Y144648D01*
X198924Y145608D01*
X199060Y146638D01*
X198924Y147668D01*
X198527Y148628D01*
X197894Y149452D01*
X197070Y150085D01*
X196110Y150483D01*
X195080Y150618D01*
D02*
G37*
G36*
X25480Y150418D02*
X24449Y150283D01*
X23489Y149885D01*
X22665Y149252D01*
X22032Y148428D01*
X21635Y147468D01*
X21499Y146438D01*
X21635Y145408D01*
X22032Y144448D01*
X22665Y143623D01*
X23489Y142991D01*
X24449Y142593D01*
X25480Y142457D01*
X26510Y142593D01*
X27470Y142991D01*
X28294Y143623D01*
X28927Y144448D01*
X29324Y145408D01*
X29460Y146438D01*
X29324Y147468D01*
X28927Y148428D01*
X28294Y149252D01*
X27470Y149885D01*
X26510Y150283D01*
X25480Y150418D01*
D02*
G37*
G36*
X15480D02*
X14449Y150283D01*
X13489Y149885D01*
X12665Y149252D01*
X12032Y148428D01*
X11635Y147468D01*
X11499Y146438D01*
X11635Y145408D01*
X12032Y144448D01*
X12665Y143623D01*
X13489Y142991D01*
X14449Y142593D01*
X15480Y142457D01*
X16510Y142593D01*
X17470Y142991D01*
X18294Y143623D01*
X18927Y144448D01*
X19324Y145408D01*
X19460Y146438D01*
X19324Y147468D01*
X18927Y148428D01*
X18294Y149252D01*
X17470Y149885D01*
X16510Y150283D01*
X15480Y150418D01*
D02*
G37*
G36*
X205080Y140618D02*
X204049Y140483D01*
X203089Y140085D01*
X202265Y139452D01*
X201632Y138628D01*
X201235Y137668D01*
X201099Y136638D01*
X201235Y135608D01*
X201632Y134648D01*
X202265Y133823D01*
X203089Y133191D01*
X204049Y132793D01*
X205080Y132657D01*
X206110Y132793D01*
X207070Y133191D01*
X207894Y133823D01*
X208527Y134648D01*
X208924Y135608D01*
X209060Y136638D01*
X208924Y137668D01*
X208527Y138628D01*
X207894Y139452D01*
X207070Y140085D01*
X206110Y140483D01*
X205080Y140618D01*
D02*
G37*
G36*
X195080D02*
X194049Y140483D01*
X193089Y140085D01*
X192265Y139452D01*
X191632Y138628D01*
X191235Y137668D01*
X191099Y136638D01*
X191235Y135608D01*
X191632Y134648D01*
X192265Y133823D01*
X193089Y133191D01*
X194049Y132793D01*
X195080Y132657D01*
X196110Y132793D01*
X197070Y133191D01*
X197894Y133823D01*
X198527Y134648D01*
X198924Y135608D01*
X199060Y136638D01*
X198924Y137668D01*
X198527Y138628D01*
X197894Y139452D01*
X197070Y140085D01*
X196110Y140483D01*
X195080Y140618D01*
D02*
G37*
G36*
X25480Y140418D02*
X24449Y140283D01*
X23489Y139885D01*
X22665Y139252D01*
X22032Y138428D01*
X21635Y137468D01*
X21499Y136438D01*
X21635Y135408D01*
X22032Y134448D01*
X22665Y133623D01*
X23489Y132991D01*
X24449Y132593D01*
X25480Y132457D01*
X26510Y132593D01*
X27470Y132991D01*
X28294Y133623D01*
X28927Y134448D01*
X29324Y135408D01*
X29460Y136438D01*
X29324Y137468D01*
X28927Y138428D01*
X28294Y139252D01*
X27470Y139885D01*
X26510Y140283D01*
X25480Y140418D01*
D02*
G37*
G36*
X15480D02*
X14449Y140283D01*
X13489Y139885D01*
X12665Y139252D01*
X12032Y138428D01*
X11635Y137468D01*
X11499Y136438D01*
X11635Y135408D01*
X12032Y134448D01*
X12665Y133623D01*
X13489Y132991D01*
X14449Y132593D01*
X15480Y132457D01*
X16510Y132593D01*
X17470Y132991D01*
X18294Y133623D01*
X18927Y134448D01*
X19324Y135408D01*
X19460Y136438D01*
X19324Y137468D01*
X18927Y138428D01*
X18294Y139252D01*
X17470Y139885D01*
X16510Y140283D01*
X15480Y140418D01*
D02*
G37*
G36*
X205080Y130618D02*
X204049Y130483D01*
X203089Y130085D01*
X202265Y129452D01*
X201632Y128628D01*
X201235Y127668D01*
X201099Y126638D01*
X201235Y125608D01*
X201632Y124647D01*
X202265Y123823D01*
X203089Y123191D01*
X204049Y122793D01*
X205080Y122657D01*
X206110Y122793D01*
X207070Y123191D01*
X207894Y123823D01*
X208527Y124647D01*
X208924Y125608D01*
X209060Y126638D01*
X208924Y127668D01*
X208527Y128628D01*
X207894Y129452D01*
X207070Y130085D01*
X206110Y130483D01*
X205080Y130618D01*
D02*
G37*
G36*
X195080D02*
X194049Y130483D01*
X193089Y130085D01*
X192265Y129452D01*
X191632Y128628D01*
X191235Y127668D01*
X191099Y126638D01*
X191235Y125608D01*
X191632Y124647D01*
X192265Y123823D01*
X193089Y123191D01*
X194049Y122793D01*
X195080Y122657D01*
X196110Y122793D01*
X197070Y123191D01*
X197894Y123823D01*
X198527Y124647D01*
X198924Y125608D01*
X199060Y126638D01*
X198924Y127668D01*
X198527Y128628D01*
X197894Y129452D01*
X197070Y130085D01*
X196110Y130483D01*
X195080Y130618D01*
D02*
G37*
G36*
X25480Y130418D02*
X24449Y130283D01*
X23489Y129885D01*
X22665Y129252D01*
X22032Y128428D01*
X21635Y127468D01*
X21499Y126438D01*
X21635Y125408D01*
X22032Y124448D01*
X22665Y123623D01*
X23489Y122991D01*
X24449Y122593D01*
X25480Y122457D01*
X26510Y122593D01*
X27470Y122991D01*
X28294Y123623D01*
X28927Y124448D01*
X29324Y125408D01*
X29460Y126438D01*
X29324Y127468D01*
X28927Y128428D01*
X28294Y129252D01*
X27470Y129885D01*
X26510Y130283D01*
X25480Y130418D01*
D02*
G37*
G36*
X15480D02*
X14449Y130283D01*
X13489Y129885D01*
X12665Y129252D01*
X12032Y128428D01*
X11635Y127468D01*
X11499Y126438D01*
X11635Y125408D01*
X12032Y124448D01*
X12665Y123623D01*
X13489Y122991D01*
X14449Y122593D01*
X15480Y122457D01*
X16510Y122593D01*
X17470Y122991D01*
X18294Y123623D01*
X18927Y124448D01*
X19324Y125408D01*
X19460Y126438D01*
X19324Y127468D01*
X18927Y128428D01*
X18294Y129252D01*
X17470Y129885D01*
X16510Y130283D01*
X15480Y130418D01*
D02*
G37*
G36*
X26070Y120341D02*
Y117028D01*
X29382D01*
X29324Y117468D01*
X28927Y118428D01*
X28294Y119252D01*
X27470Y119885D01*
X26510Y120283D01*
X26070Y120341D01*
D02*
G37*
G36*
X24889D02*
X24449Y120283D01*
X23489Y119885D01*
X22665Y119252D01*
X22032Y118428D01*
X21635Y117468D01*
X21577Y117028D01*
X24889D01*
Y120341D01*
D02*
G37*
G36*
X205080Y120618D02*
X204049Y120483D01*
X203089Y120085D01*
X202265Y119452D01*
X201632Y118628D01*
X201235Y117668D01*
X201099Y116638D01*
X201235Y115608D01*
X201632Y114647D01*
X202265Y113823D01*
X203089Y113191D01*
X204049Y112793D01*
X205080Y112657D01*
X206110Y112793D01*
X207070Y113191D01*
X207894Y113823D01*
X208527Y114647D01*
X208924Y115608D01*
X209060Y116638D01*
X208924Y117668D01*
X208527Y118628D01*
X207894Y119452D01*
X207070Y120085D01*
X206110Y120483D01*
X205080Y120618D01*
D02*
G37*
G36*
X195080D02*
X194049Y120483D01*
X193089Y120085D01*
X192265Y119452D01*
X191632Y118628D01*
X191235Y117668D01*
X191099Y116638D01*
X191235Y115608D01*
X191632Y114647D01*
X192265Y113823D01*
X193089Y113191D01*
X194049Y112793D01*
X195080Y112657D01*
X196110Y112793D01*
X197070Y113191D01*
X197894Y113823D01*
X198527Y114647D01*
X198924Y115608D01*
X199060Y116638D01*
X198924Y117668D01*
X198527Y118628D01*
X197894Y119452D01*
X197070Y120085D01*
X196110Y120483D01*
X195080Y120618D01*
D02*
G37*
G36*
X29382Y115847D02*
X26070D01*
Y112535D01*
X26510Y112593D01*
X27470Y112991D01*
X28294Y113623D01*
X28927Y114447D01*
X29324Y115408D01*
X29382Y115847D01*
D02*
G37*
G36*
X24889D02*
X21577D01*
X21635Y115408D01*
X22032Y114447D01*
X22665Y113623D01*
X23489Y112991D01*
X24449Y112593D01*
X24889Y112535D01*
Y115847D01*
D02*
G37*
G36*
X15480Y120418D02*
X14449Y120283D01*
X13489Y119885D01*
X12665Y119252D01*
X12032Y118428D01*
X11635Y117468D01*
X11499Y116438D01*
X11635Y115408D01*
X12032Y114447D01*
X12665Y113623D01*
X13489Y112991D01*
X14449Y112593D01*
X15480Y112457D01*
X16510Y112593D01*
X17470Y112991D01*
X18294Y113623D01*
X18927Y114447D01*
X19324Y115408D01*
X19460Y116438D01*
X19324Y117468D01*
X18927Y118428D01*
X18294Y119252D01*
X17470Y119885D01*
X16510Y120283D01*
X15480Y120418D01*
D02*
G37*
G36*
X195670Y110541D02*
Y107228D01*
X198982D01*
X198924Y107668D01*
X198527Y108628D01*
X197894Y109452D01*
X197070Y110085D01*
X196110Y110483D01*
X195670Y110541D01*
D02*
G37*
G36*
X194489Y110540D02*
X194049Y110483D01*
X193089Y110085D01*
X192265Y109452D01*
X191632Y108628D01*
X191235Y107668D01*
X191177Y107228D01*
X194489D01*
Y110540D01*
D02*
G37*
G36*
X672835Y108560D02*
Y103957D01*
X677437D01*
X677336Y104730D01*
X676809Y106002D01*
X675971Y107093D01*
X674880Y107931D01*
X673608Y108458D01*
X672835Y108560D01*
D02*
G37*
G36*
X671654D02*
X670880Y108458D01*
X669609Y107931D01*
X668517Y107093D01*
X667679Y106002D01*
X667153Y104730D01*
X667051Y103957D01*
X671654D01*
Y108560D01*
D02*
G37*
G36*
X194489Y106047D02*
X191177D01*
X191235Y105608D01*
X191632Y104648D01*
X192265Y103823D01*
X193089Y103191D01*
X194049Y102793D01*
X194489Y102735D01*
Y106047D01*
D02*
G37*
G36*
X198982D02*
X195670D01*
Y102735D01*
X196110Y102793D01*
X197070Y103191D01*
X197894Y103823D01*
X198527Y104648D01*
X198924Y105608D01*
X198982Y106047D01*
D02*
G37*
G36*
X205080Y110618D02*
X204049Y110483D01*
X203089Y110085D01*
X202265Y109452D01*
X201632Y108628D01*
X201235Y107668D01*
X201099Y106638D01*
X201235Y105608D01*
X201632Y104648D01*
X202265Y103823D01*
X203089Y103191D01*
X204049Y102793D01*
X205080Y102657D01*
X206110Y102793D01*
X207070Y103191D01*
X207894Y103823D01*
X208527Y104648D01*
X208924Y105608D01*
X209060Y106638D01*
X208924Y107668D01*
X208527Y108628D01*
X207894Y109452D01*
X207070Y110085D01*
X206110Y110483D01*
X205080Y110618D01*
D02*
G37*
G36*
X25480Y110418D02*
X24449Y110283D01*
X23489Y109885D01*
X22665Y109252D01*
X22032Y108428D01*
X21635Y107468D01*
X21499Y106438D01*
X21635Y105408D01*
X22032Y104447D01*
X22665Y103623D01*
X23489Y102991D01*
X24449Y102593D01*
X25480Y102457D01*
X26510Y102593D01*
X27470Y102991D01*
X28294Y103623D01*
X28927Y104447D01*
X29324Y105408D01*
X29460Y106438D01*
X29324Y107468D01*
X28927Y108428D01*
X28294Y109252D01*
X27470Y109885D01*
X26510Y110283D01*
X25480Y110418D01*
D02*
G37*
G36*
X15480D02*
X14449Y110283D01*
X13489Y109885D01*
X12665Y109252D01*
X12032Y108428D01*
X11635Y107468D01*
X11499Y106438D01*
X11635Y105408D01*
X12032Y104447D01*
X12665Y103623D01*
X13489Y102991D01*
X14449Y102593D01*
X15480Y102457D01*
X16510Y102593D01*
X17470Y102991D01*
X18294Y103623D01*
X18927Y104447D01*
X19324Y105408D01*
X19460Y106438D01*
X19324Y107468D01*
X18927Y108428D01*
X18294Y109252D01*
X17470Y109885D01*
X16510Y110283D01*
X15480Y110418D01*
D02*
G37*
G36*
X627835Y102467D02*
Y98957D01*
X631345D01*
X631281Y99448D01*
X630863Y100456D01*
X630199Y101321D01*
X629334Y101985D01*
X628326Y102403D01*
X627835Y102467D01*
D02*
G37*
G36*
X626653D02*
X626162Y102403D01*
X625155Y101985D01*
X624289Y101321D01*
X623625Y100456D01*
X623207Y99448D01*
X623143Y98957D01*
X626653D01*
Y102467D01*
D02*
G37*
G36*
Y97776D02*
X623143D01*
X623207Y97285D01*
X623625Y96277D01*
X624289Y95411D01*
X625155Y94747D01*
X626162Y94330D01*
X626653Y94265D01*
Y97776D01*
D02*
G37*
G36*
X631345D02*
X627835D01*
Y94265D01*
X628326Y94330D01*
X629334Y94747D01*
X630199Y95411D01*
X630863Y96277D01*
X631281Y97285D01*
X631345Y97776D01*
D02*
G37*
G36*
X205080Y100618D02*
X204049Y100483D01*
X203089Y100085D01*
X202265Y99452D01*
X201632Y98628D01*
X201235Y97668D01*
X201099Y96638D01*
X201235Y95608D01*
X201632Y94648D01*
X202265Y93823D01*
X203089Y93191D01*
X204049Y92793D01*
X205080Y92657D01*
X206110Y92793D01*
X207070Y93191D01*
X207894Y93823D01*
X208527Y94648D01*
X208924Y95608D01*
X209060Y96638D01*
X208924Y97668D01*
X208527Y98628D01*
X207894Y99452D01*
X207070Y100085D01*
X206110Y100483D01*
X205080Y100618D01*
D02*
G37*
G36*
X195080D02*
X194049Y100483D01*
X193089Y100085D01*
X192265Y99452D01*
X191632Y98628D01*
X191235Y97668D01*
X191099Y96638D01*
X191235Y95608D01*
X191632Y94648D01*
X192265Y93823D01*
X193089Y93191D01*
X194049Y92793D01*
X195080Y92657D01*
X196110Y92793D01*
X197070Y93191D01*
X197894Y93823D01*
X198527Y94648D01*
X198924Y95608D01*
X199060Y96638D01*
X198924Y97668D01*
X198527Y98628D01*
X197894Y99452D01*
X197070Y100085D01*
X196110Y100483D01*
X195080Y100618D01*
D02*
G37*
G36*
X25480Y100418D02*
X24449Y100283D01*
X23489Y99885D01*
X22665Y99252D01*
X22032Y98428D01*
X21635Y97468D01*
X21499Y96438D01*
X21635Y95408D01*
X22032Y94447D01*
X22665Y93623D01*
X23489Y92991D01*
X24449Y92593D01*
X25480Y92457D01*
X26510Y92593D01*
X27470Y92991D01*
X28294Y93623D01*
X28927Y94447D01*
X29324Y95408D01*
X29460Y96438D01*
X29324Y97468D01*
X28927Y98428D01*
X28294Y99252D01*
X27470Y99885D01*
X26510Y100283D01*
X25480Y100418D01*
D02*
G37*
G36*
X15480D02*
X14449Y100283D01*
X13489Y99885D01*
X12665Y99252D01*
X12032Y98428D01*
X11635Y97468D01*
X11499Y96438D01*
X11635Y95408D01*
X12032Y94447D01*
X12665Y93623D01*
X13489Y92991D01*
X14449Y92593D01*
X15480Y92457D01*
X16510Y92593D01*
X17470Y92991D01*
X18294Y93623D01*
X18927Y94447D01*
X19324Y95408D01*
X19460Y96438D01*
X19324Y97468D01*
X18927Y98428D01*
X18294Y99252D01*
X17470Y99885D01*
X16510Y100283D01*
X15480Y100418D01*
D02*
G37*
G36*
X677437Y102776D02*
X672244D01*
X667051D01*
X667153Y102002D01*
X667679Y100731D01*
X668517Y99639D01*
X669609Y98801D01*
X670880Y98275D01*
X671610Y98179D01*
X671750Y97656D01*
X671017Y97093D01*
X670179Y96002D01*
X669653Y94730D01*
X669473Y93366D01*
X669653Y92002D01*
X670179Y90731D01*
X671017Y89639D01*
X672109Y88801D01*
X673380Y88275D01*
X674744Y88095D01*
X676108Y88275D01*
X677380Y88801D01*
X678471Y89639D01*
X679309Y90731D01*
X679836Y92002D01*
X680015Y93366D01*
X679836Y94730D01*
X679309Y96002D01*
X678471Y97093D01*
X677380Y97931D01*
X676108Y98458D01*
X675378Y98554D01*
X675238Y99076D01*
X675971Y99639D01*
X676809Y100731D01*
X677336Y102002D01*
X677437Y102776D01*
D02*
G37*
G36*
X637244Y93637D02*
X635880Y93458D01*
X634609Y92931D01*
X633517Y92093D01*
X632679Y91002D01*
X632153Y89730D01*
X631973Y88366D01*
X632153Y87002D01*
X632679Y85731D01*
X633517Y84639D01*
X634609Y83801D01*
X635880Y83275D01*
X637244Y83095D01*
X638608Y83275D01*
X639880Y83801D01*
X640971Y84639D01*
X641809Y85731D01*
X642336Y87002D01*
X642515Y88366D01*
X642336Y89730D01*
X641809Y91002D01*
X640971Y92093D01*
X639880Y92931D01*
X638608Y93458D01*
X637244Y93637D01*
D02*
G37*
G36*
X610335Y86217D02*
Y82707D01*
X613845D01*
X613781Y83198D01*
X613363Y84206D01*
X612699Y85071D01*
X611834Y85735D01*
X610826Y86153D01*
X610335Y86217D01*
D02*
G37*
G36*
X609154D02*
X608663Y86153D01*
X607655Y85735D01*
X606789Y85071D01*
X606125Y84206D01*
X605707Y83198D01*
X605643Y82707D01*
X609154D01*
Y86217D01*
D02*
G37*
G36*
X205080Y90618D02*
X204049Y90483D01*
X203089Y90085D01*
X202265Y89452D01*
X201632Y88628D01*
X201235Y87668D01*
X201099Y86638D01*
X201235Y85608D01*
X201632Y84648D01*
X202265Y83823D01*
X203089Y83191D01*
X204049Y82793D01*
X205080Y82657D01*
X206110Y82793D01*
X207070Y83191D01*
X207894Y83823D01*
X208527Y84648D01*
X208924Y85608D01*
X209060Y86638D01*
X208924Y87668D01*
X208527Y88628D01*
X207894Y89452D01*
X207070Y90085D01*
X206110Y90483D01*
X205080Y90618D01*
D02*
G37*
G36*
X195080D02*
X194049Y90483D01*
X193089Y90085D01*
X192265Y89452D01*
X191632Y88628D01*
X191235Y87668D01*
X191099Y86638D01*
X191235Y85608D01*
X191632Y84648D01*
X192265Y83823D01*
X193089Y83191D01*
X194049Y82793D01*
X195080Y82657D01*
X196110Y82793D01*
X197070Y83191D01*
X197894Y83823D01*
X198527Y84648D01*
X198924Y85608D01*
X199060Y86638D01*
X198924Y87668D01*
X198527Y88628D01*
X197894Y89452D01*
X197070Y90085D01*
X196110Y90483D01*
X195080Y90618D01*
D02*
G37*
G36*
X25480Y90418D02*
X24449Y90283D01*
X23489Y89885D01*
X22665Y89252D01*
X22032Y88428D01*
X21635Y87468D01*
X21499Y86438D01*
X21635Y85408D01*
X22032Y84447D01*
X22665Y83623D01*
X23489Y82991D01*
X24449Y82593D01*
X25480Y82457D01*
X26510Y82593D01*
X27470Y82991D01*
X28294Y83623D01*
X28927Y84447D01*
X29324Y85408D01*
X29460Y86438D01*
X29324Y87468D01*
X28927Y88428D01*
X28294Y89252D01*
X27470Y89885D01*
X26510Y90283D01*
X25480Y90418D01*
D02*
G37*
G36*
X15480D02*
X14449Y90283D01*
X13489Y89885D01*
X12665Y89252D01*
X12032Y88428D01*
X11635Y87468D01*
X11499Y86438D01*
X11635Y85408D01*
X12032Y84447D01*
X12665Y83623D01*
X13489Y82991D01*
X14449Y82593D01*
X15480Y82457D01*
X16510Y82593D01*
X17470Y82991D01*
X18294Y83623D01*
X18927Y84447D01*
X19324Y85408D01*
X19460Y86438D01*
X19324Y87468D01*
X18927Y88428D01*
X18294Y89252D01*
X17470Y89885D01*
X16510Y90283D01*
X15480Y90418D01*
D02*
G37*
G36*
X609154Y81526D02*
X605643D01*
X605707Y81034D01*
X606125Y80027D01*
X606789Y79161D01*
X607655Y78497D01*
X608663Y78079D01*
X609154Y78015D01*
Y81526D01*
D02*
G37*
G36*
X613845D02*
X610335D01*
Y78015D01*
X610826Y78079D01*
X611834Y78497D01*
X612699Y79161D01*
X613363Y80027D01*
X613781Y81034D01*
X613845Y81526D01*
D02*
G37*
G36*
X205080Y80618D02*
X204049Y80483D01*
X203089Y80085D01*
X202265Y79452D01*
X201632Y78628D01*
X201235Y77668D01*
X201099Y76638D01*
X201235Y75608D01*
X201632Y74647D01*
X202265Y73823D01*
X203089Y73191D01*
X204049Y72793D01*
X205080Y72657D01*
X206110Y72793D01*
X207070Y73191D01*
X207894Y73823D01*
X208527Y74647D01*
X208924Y75608D01*
X209060Y76638D01*
X208924Y77668D01*
X208527Y78628D01*
X207894Y79452D01*
X207070Y80085D01*
X206110Y80483D01*
X205080Y80618D01*
D02*
G37*
G36*
X195080D02*
X194049Y80483D01*
X193089Y80085D01*
X192265Y79452D01*
X191632Y78628D01*
X191235Y77668D01*
X191099Y76638D01*
X191235Y75608D01*
X191632Y74647D01*
X192265Y73823D01*
X193089Y73191D01*
X194049Y72793D01*
X195080Y72657D01*
X196110Y72793D01*
X197070Y73191D01*
X197894Y73823D01*
X198527Y74647D01*
X198924Y75608D01*
X199060Y76638D01*
X198924Y77668D01*
X198527Y78628D01*
X197894Y79452D01*
X197070Y80085D01*
X196110Y80483D01*
X195080Y80618D01*
D02*
G37*
G36*
X25480Y80418D02*
X24449Y80283D01*
X23489Y79885D01*
X22665Y79252D01*
X22032Y78428D01*
X21635Y77468D01*
X21499Y76438D01*
X21635Y75408D01*
X22032Y74448D01*
X22665Y73623D01*
X23489Y72991D01*
X24449Y72593D01*
X25480Y72457D01*
X26510Y72593D01*
X27470Y72991D01*
X28294Y73623D01*
X28927Y74448D01*
X29324Y75408D01*
X29460Y76438D01*
X29324Y77468D01*
X28927Y78428D01*
X28294Y79252D01*
X27470Y79885D01*
X26510Y80283D01*
X25480Y80418D01*
D02*
G37*
G36*
X15480D02*
X14449Y80283D01*
X13489Y79885D01*
X12665Y79252D01*
X12032Y78428D01*
X11635Y77468D01*
X11499Y76438D01*
X11635Y75408D01*
X12032Y74448D01*
X12665Y73623D01*
X13489Y72991D01*
X14449Y72593D01*
X15480Y72457D01*
X16510Y72593D01*
X17470Y72991D01*
X18294Y73623D01*
X18927Y74448D01*
X19324Y75408D01*
X19460Y76438D01*
X19324Y77468D01*
X18927Y78428D01*
X18294Y79252D01*
X17470Y79885D01*
X16510Y80283D01*
X15480Y80418D01*
D02*
G37*
G36*
X607244Y75045D02*
X606163Y74903D01*
X605155Y74485D01*
X604289Y73821D01*
X603625Y72956D01*
X603207Y71948D01*
X603065Y70866D01*
X603207Y69784D01*
X603625Y68777D01*
X604289Y67911D01*
X605155Y67247D01*
X606163Y66830D01*
X607244Y66687D01*
X608326Y66830D01*
X609334Y67247D01*
X610199Y67911D01*
X610863Y68777D01*
X611281Y69784D01*
X611423Y70866D01*
X611281Y71948D01*
X610863Y72956D01*
X610199Y73821D01*
X609334Y74485D01*
X608326Y74903D01*
X607244Y75045D01*
D02*
G37*
G36*
X662244Y76137D02*
X660880Y75958D01*
X659609Y75431D01*
X658517Y74593D01*
X657679Y73502D01*
X657153Y72230D01*
X656973Y70866D01*
X657153Y69502D01*
X657679Y68231D01*
X658517Y67139D01*
X659609Y66301D01*
X660880Y65775D01*
X662244Y65595D01*
X663608Y65775D01*
X664880Y66301D01*
X665971Y67139D01*
X666809Y68231D01*
X667336Y69502D01*
X667515Y70866D01*
X667336Y72230D01*
X666809Y73502D01*
X665971Y74593D01*
X664880Y75431D01*
X663608Y75958D01*
X662244Y76137D01*
D02*
G37*
G36*
X565177Y66855D02*
X564482Y66717D01*
X563893Y66324D01*
X563645Y65952D01*
X552835D01*
X552485Y65883D01*
X552189Y65685D01*
X538233Y51729D01*
X537795Y51816D01*
X537100Y51678D01*
X536511Y51284D01*
X536118Y50695D01*
X535979Y50000D01*
X536118Y49305D01*
X536511Y48716D01*
X537100Y48322D01*
X537795Y48184D01*
X538490Y48322D01*
X539079Y48716D01*
X539473Y49305D01*
X539611Y50000D01*
X539524Y50438D01*
X553213Y64127D01*
X563645D01*
X563893Y63755D01*
X564482Y63362D01*
X565177Y63223D01*
X565872Y63362D01*
X566461Y63755D01*
X566855Y64344D01*
X566993Y65039D01*
X566855Y65734D01*
X566461Y66324D01*
X565872Y66717D01*
X565177Y66855D01*
D02*
G37*
G36*
X298819Y75044D02*
X298124Y74906D01*
X297535Y74512D01*
X297141Y73923D01*
X297003Y73228D01*
X297141Y72533D01*
X297535Y71944D01*
X298124Y71551D01*
X298819Y71412D01*
X298928Y71434D01*
X304964Y65399D01*
X304877Y64961D01*
X305015Y64266D01*
X305409Y63677D01*
X305998Y63283D01*
X306693Y63145D01*
X307388Y63283D01*
X307977Y63677D01*
X308371Y64266D01*
X308509Y64961D01*
X308371Y65656D01*
X307977Y66245D01*
X307388Y66638D01*
X306693Y66777D01*
X306255Y66689D01*
X300462Y72482D01*
X300497Y72533D01*
X300635Y73228D01*
X300497Y73923D01*
X300103Y74512D01*
X299514Y74906D01*
X298819Y75044D01*
D02*
G37*
G36*
X205080Y70618D02*
X204049Y70483D01*
X203089Y70085D01*
X202265Y69452D01*
X201632Y68628D01*
X201235Y67668D01*
X201099Y66638D01*
X201235Y65608D01*
X201632Y64648D01*
X202265Y63823D01*
X203089Y63191D01*
X204049Y62793D01*
X205080Y62657D01*
X206110Y62793D01*
X207070Y63191D01*
X207894Y63823D01*
X208527Y64648D01*
X208924Y65608D01*
X209060Y66638D01*
X208924Y67668D01*
X208527Y68628D01*
X207894Y69452D01*
X207070Y70085D01*
X206110Y70483D01*
X205080Y70618D01*
D02*
G37*
G36*
X195080D02*
X194049Y70483D01*
X193089Y70085D01*
X192265Y69452D01*
X191632Y68628D01*
X191235Y67668D01*
X191099Y66638D01*
X191235Y65608D01*
X191632Y64648D01*
X192265Y63823D01*
X193089Y63191D01*
X194049Y62793D01*
X195080Y62657D01*
X196110Y62793D01*
X197070Y63191D01*
X197894Y63823D01*
X198527Y64648D01*
X198924Y65608D01*
X199060Y66638D01*
X198924Y67668D01*
X198527Y68628D01*
X197894Y69452D01*
X197070Y70085D01*
X196110Y70483D01*
X195080Y70618D01*
D02*
G37*
G36*
X25480Y70418D02*
X24449Y70283D01*
X23489Y69885D01*
X22665Y69252D01*
X22032Y68428D01*
X21635Y67468D01*
X21499Y66438D01*
X21635Y65408D01*
X22032Y64447D01*
X22665Y63623D01*
X23489Y62991D01*
X24449Y62593D01*
X25480Y62457D01*
X26510Y62593D01*
X27470Y62991D01*
X28294Y63623D01*
X28927Y64447D01*
X29324Y65408D01*
X29460Y66438D01*
X29324Y67468D01*
X28927Y68428D01*
X28294Y69252D01*
X27470Y69885D01*
X26510Y70283D01*
X25480Y70418D01*
D02*
G37*
G36*
X15480D02*
X14449Y70283D01*
X13489Y69885D01*
X12665Y69252D01*
X12032Y68428D01*
X11635Y67468D01*
X11499Y66438D01*
X11635Y65408D01*
X12032Y64447D01*
X12665Y63623D01*
X13489Y62991D01*
X14449Y62593D01*
X15480Y62457D01*
X16510Y62593D01*
X17470Y62991D01*
X18294Y63623D01*
X18927Y64447D01*
X19324Y65408D01*
X19460Y66438D01*
X19324Y67468D01*
X18927Y68428D01*
X18294Y69252D01*
X17470Y69885D01*
X16510Y70283D01*
X15480Y70418D01*
D02*
G37*
G36*
X609744Y63795D02*
X608663Y63653D01*
X607655Y63235D01*
X606789Y62571D01*
X606125Y61706D01*
X605707Y60698D01*
X605565Y59616D01*
X605707Y58534D01*
X606125Y57527D01*
X606789Y56661D01*
X607655Y55997D01*
X608663Y55580D01*
X609744Y55437D01*
X610826Y55580D01*
X611834Y55997D01*
X612699Y56661D01*
X613363Y57527D01*
X613781Y58534D01*
X613923Y59616D01*
X613781Y60698D01*
X613363Y61706D01*
X612699Y62571D01*
X611834Y63235D01*
X610826Y63653D01*
X609744Y63795D01*
D02*
G37*
G36*
X205080Y60618D02*
X204049Y60483D01*
X203089Y60085D01*
X202265Y59452D01*
X201632Y58628D01*
X201235Y57668D01*
X201099Y56638D01*
X201235Y55608D01*
X201632Y54647D01*
X202265Y53823D01*
X203089Y53191D01*
X204049Y52793D01*
X205080Y52657D01*
X206110Y52793D01*
X207070Y53191D01*
X207894Y53823D01*
X208527Y54647D01*
X208924Y55608D01*
X209060Y56638D01*
X208924Y57668D01*
X208527Y58628D01*
X207894Y59452D01*
X207070Y60085D01*
X206110Y60483D01*
X205080Y60618D01*
D02*
G37*
G36*
X195080D02*
X194049Y60483D01*
X193089Y60085D01*
X192265Y59452D01*
X191632Y58628D01*
X191235Y57668D01*
X191099Y56638D01*
X191235Y55608D01*
X191632Y54647D01*
X192265Y53823D01*
X193089Y53191D01*
X194049Y52793D01*
X195080Y52657D01*
X196110Y52793D01*
X197070Y53191D01*
X197894Y53823D01*
X198527Y54647D01*
X198924Y55608D01*
X199060Y56638D01*
X198924Y57668D01*
X198527Y58628D01*
X197894Y59452D01*
X197070Y60085D01*
X196110Y60483D01*
X195080Y60618D01*
D02*
G37*
G36*
X491339Y64808D02*
X490644Y64670D01*
X490055Y64276D01*
X489661Y63687D01*
X489523Y62992D01*
X489661Y62297D01*
X490055Y61708D01*
X490426Y61460D01*
Y55863D01*
X490055Y55615D01*
X489661Y55026D01*
X489523Y54331D01*
X489661Y53636D01*
X490055Y53047D01*
X490644Y52653D01*
X491339Y52515D01*
X492033Y52653D01*
X492623Y53047D01*
X493016Y53636D01*
X493155Y54331D01*
X493016Y55026D01*
X492623Y55615D01*
X492251Y55863D01*
Y61460D01*
X492623Y61708D01*
X493016Y62297D01*
X493155Y62992D01*
X493016Y63687D01*
X492623Y64276D01*
X492033Y64670D01*
X491339Y64808D01*
D02*
G37*
G36*
X25480Y60418D02*
X24449Y60283D01*
X23489Y59885D01*
X22665Y59252D01*
X22032Y58428D01*
X21635Y57468D01*
X21499Y56438D01*
X21635Y55408D01*
X22032Y54448D01*
X22665Y53623D01*
X23489Y52991D01*
X24449Y52593D01*
X25480Y52457D01*
X26510Y52593D01*
X27470Y52991D01*
X28294Y53623D01*
X28927Y54448D01*
X29324Y55408D01*
X29460Y56438D01*
X29324Y57468D01*
X28927Y58428D01*
X28294Y59252D01*
X27470Y59885D01*
X26510Y60283D01*
X25480Y60418D01*
D02*
G37*
G36*
X15480D02*
X14449Y60283D01*
X13489Y59885D01*
X12665Y59252D01*
X12032Y58428D01*
X11635Y57468D01*
X11499Y56438D01*
X11635Y55408D01*
X12032Y54448D01*
X12665Y53623D01*
X13489Y52991D01*
X14449Y52593D01*
X15480Y52457D01*
X16510Y52593D01*
X17470Y52991D01*
X18294Y53623D01*
X18927Y54448D01*
X19324Y55408D01*
X19460Y56438D01*
X19324Y57468D01*
X18927Y58428D01*
X18294Y59252D01*
X17470Y59885D01*
X16510Y60283D01*
X15480Y60418D01*
D02*
G37*
G36*
X637244Y58637D02*
X635880Y58458D01*
X634609Y57931D01*
X633517Y57093D01*
X632679Y56002D01*
X632153Y54730D01*
X631973Y53366D01*
X632153Y52002D01*
X632679Y50731D01*
X633517Y49639D01*
X634609Y48801D01*
X635880Y48275D01*
X637244Y48095D01*
X638608Y48275D01*
X639880Y48801D01*
X640971Y49639D01*
X641809Y50731D01*
X642336Y52002D01*
X642515Y53366D01*
X642336Y54730D01*
X641809Y56002D01*
X640971Y57093D01*
X639880Y57931D01*
X638608Y58458D01*
X637244Y58637D01*
D02*
G37*
G36*
X674744Y53637D02*
X673380Y53458D01*
X672109Y52931D01*
X671017Y52093D01*
X670179Y51002D01*
X669653Y49730D01*
X669473Y48366D01*
X669653Y47002D01*
X670179Y45731D01*
X671017Y44639D01*
X672109Y43801D01*
X673380Y43275D01*
X674744Y43095D01*
X676108Y43275D01*
X677380Y43801D01*
X678471Y44639D01*
X679309Y45731D01*
X679836Y47002D01*
X680015Y48366D01*
X679836Y49730D01*
X679309Y51002D01*
X678471Y52093D01*
X677380Y52931D01*
X676108Y53458D01*
X674744Y53637D01*
D02*
G37*
G36*
X205080Y50618D02*
X204049Y50483D01*
X203089Y50085D01*
X202265Y49452D01*
X201632Y48628D01*
X201235Y47668D01*
X201099Y46638D01*
X201235Y45608D01*
X201632Y44647D01*
X202265Y43823D01*
X203089Y43191D01*
X204049Y42793D01*
X205080Y42657D01*
X206110Y42793D01*
X207070Y43191D01*
X207894Y43823D01*
X208527Y44647D01*
X208924Y45608D01*
X209060Y46638D01*
X208924Y47668D01*
X208527Y48628D01*
X207894Y49452D01*
X207070Y50085D01*
X206110Y50483D01*
X205080Y50618D01*
D02*
G37*
G36*
X195080D02*
X194049Y50483D01*
X193089Y50085D01*
X192265Y49452D01*
X191632Y48628D01*
X191235Y47668D01*
X191099Y46638D01*
X191235Y45608D01*
X191632Y44647D01*
X192265Y43823D01*
X193089Y43191D01*
X194049Y42793D01*
X195080Y42657D01*
X196110Y42793D01*
X197070Y43191D01*
X197894Y43823D01*
X198527Y44647D01*
X198924Y45608D01*
X199060Y46638D01*
X198924Y47668D01*
X198527Y48628D01*
X197894Y49452D01*
X197070Y50085D01*
X196110Y50483D01*
X195080Y50618D01*
D02*
G37*
G36*
X25480Y50418D02*
X24449Y50283D01*
X23489Y49885D01*
X22665Y49252D01*
X22032Y48428D01*
X21635Y47468D01*
X21499Y46438D01*
X21635Y45408D01*
X22032Y44447D01*
X22665Y43623D01*
X23489Y42991D01*
X24449Y42593D01*
X25480Y42457D01*
X26510Y42593D01*
X27470Y42991D01*
X28294Y43623D01*
X28927Y44447D01*
X29324Y45408D01*
X29460Y46438D01*
X29324Y47468D01*
X28927Y48428D01*
X28294Y49252D01*
X27470Y49885D01*
X26510Y50283D01*
X25480Y50418D01*
D02*
G37*
G36*
X15480D02*
X14449Y50283D01*
X13489Y49885D01*
X12665Y49252D01*
X12032Y48428D01*
X11635Y47468D01*
X11499Y46438D01*
X11635Y45408D01*
X12032Y44447D01*
X12665Y43623D01*
X13489Y42991D01*
X14449Y42593D01*
X15480Y42457D01*
X16510Y42593D01*
X17470Y42991D01*
X18294Y43623D01*
X18927Y44447D01*
X19324Y45408D01*
X19460Y46438D01*
X19324Y47468D01*
X18927Y48428D01*
X18294Y49252D01*
X17470Y49885D01*
X16510Y50283D01*
X15480Y50418D01*
D02*
G37*
G36*
X624744Y47545D02*
X623663Y47403D01*
X622655Y46985D01*
X621789Y46321D01*
X621125Y45456D01*
X620707Y44448D01*
X620565Y43366D01*
X620707Y42285D01*
X621125Y41277D01*
X621789Y40411D01*
X622655Y39747D01*
X623663Y39329D01*
X624744Y39187D01*
X625826Y39329D01*
X626834Y39747D01*
X627699Y40411D01*
X628363Y41277D01*
X628781Y42285D01*
X628923Y43366D01*
X628781Y44448D01*
X628363Y45456D01*
X627699Y46321D01*
X626834Y46985D01*
X625826Y47403D01*
X624744Y47545D01*
D02*
G37*
G36*
X205080Y40618D02*
X204049Y40483D01*
X203089Y40085D01*
X202265Y39452D01*
X201632Y38628D01*
X201235Y37668D01*
X201099Y36638D01*
X201235Y35608D01*
X201632Y34648D01*
X202265Y33823D01*
X203089Y33191D01*
X204049Y32793D01*
X205080Y32657D01*
X206110Y32793D01*
X207070Y33191D01*
X207894Y33823D01*
X208527Y34648D01*
X208924Y35608D01*
X209060Y36638D01*
X208924Y37668D01*
X208527Y38628D01*
X207894Y39452D01*
X207070Y40085D01*
X206110Y40483D01*
X205080Y40618D01*
D02*
G37*
G36*
X195080D02*
X194049Y40483D01*
X193089Y40085D01*
X192265Y39452D01*
X191632Y38628D01*
X191235Y37668D01*
X191099Y36638D01*
X191235Y35608D01*
X191632Y34648D01*
X192265Y33823D01*
X193089Y33191D01*
X194049Y32793D01*
X195080Y32657D01*
X196110Y32793D01*
X197070Y33191D01*
X197894Y33823D01*
X198527Y34648D01*
X198924Y35608D01*
X199060Y36638D01*
X198924Y37668D01*
X198527Y38628D01*
X197894Y39452D01*
X197070Y40085D01*
X196110Y40483D01*
X195080Y40618D01*
D02*
G37*
G36*
X25480Y40418D02*
X24449Y40283D01*
X23489Y39885D01*
X22665Y39252D01*
X22032Y38428D01*
X21635Y37468D01*
X21499Y36438D01*
X21635Y35408D01*
X22032Y34448D01*
X22665Y33623D01*
X23489Y32991D01*
X24449Y32593D01*
X25480Y32457D01*
X26510Y32593D01*
X27470Y32991D01*
X28294Y33623D01*
X28927Y34448D01*
X29324Y35408D01*
X29460Y36438D01*
X29324Y37468D01*
X28927Y38428D01*
X28294Y39252D01*
X27470Y39885D01*
X26510Y40283D01*
X25480Y40418D01*
D02*
G37*
G36*
X15480D02*
X14449Y40283D01*
X13489Y39885D01*
X12665Y39252D01*
X12032Y38428D01*
X11635Y37468D01*
X11499Y36438D01*
X11635Y35408D01*
X12032Y34448D01*
X12665Y33623D01*
X13489Y32991D01*
X14449Y32593D01*
X15480Y32457D01*
X16510Y32593D01*
X17470Y32991D01*
X18294Y33623D01*
X18927Y34448D01*
X19324Y35408D01*
X19460Y36438D01*
X19324Y37468D01*
X18927Y38428D01*
X18294Y39252D01*
X17470Y39885D01*
X16510Y40283D01*
X15480Y40418D01*
D02*
G37*
G36*
X205080Y30618D02*
X204049Y30483D01*
X203089Y30085D01*
X202265Y29452D01*
X201632Y28628D01*
X201235Y27668D01*
X201099Y26638D01*
X201235Y25608D01*
X201632Y24647D01*
X202265Y23823D01*
X203089Y23191D01*
X204049Y22793D01*
X205080Y22657D01*
X206110Y22793D01*
X207070Y23191D01*
X207894Y23823D01*
X208527Y24647D01*
X208924Y25608D01*
X209060Y26638D01*
X208924Y27668D01*
X208527Y28628D01*
X207894Y29452D01*
X207070Y30085D01*
X206110Y30483D01*
X205080Y30618D01*
D02*
G37*
G36*
X195080D02*
X194049Y30483D01*
X193089Y30085D01*
X192265Y29452D01*
X191632Y28628D01*
X191235Y27668D01*
X191099Y26638D01*
X191235Y25608D01*
X191632Y24647D01*
X192265Y23823D01*
X193089Y23191D01*
X194049Y22793D01*
X195080Y22657D01*
X196110Y22793D01*
X197070Y23191D01*
X197894Y23823D01*
X198527Y24647D01*
X198924Y25608D01*
X199060Y26638D01*
X198924Y27668D01*
X198527Y28628D01*
X197894Y29452D01*
X197070Y30085D01*
X196110Y30483D01*
X195080Y30618D01*
D02*
G37*
G36*
X25480Y30418D02*
X24449Y30283D01*
X23489Y29885D01*
X22665Y29252D01*
X22032Y28428D01*
X21635Y27468D01*
X21499Y26438D01*
X21635Y25408D01*
X22032Y24448D01*
X22665Y23623D01*
X23489Y22991D01*
X24449Y22593D01*
X25480Y22457D01*
X26510Y22593D01*
X27470Y22991D01*
X28294Y23623D01*
X28927Y24448D01*
X29324Y25408D01*
X29460Y26438D01*
X29324Y27468D01*
X28927Y28428D01*
X28294Y29252D01*
X27470Y29885D01*
X26510Y30283D01*
X25480Y30418D01*
D02*
G37*
G36*
X15480D02*
X14449Y30283D01*
X13489Y29885D01*
X12665Y29252D01*
X12032Y28428D01*
X11635Y27468D01*
X11499Y26438D01*
X11635Y25408D01*
X12032Y24448D01*
X12665Y23623D01*
X13489Y22991D01*
X14449Y22593D01*
X15480Y22457D01*
X16510Y22593D01*
X17470Y22991D01*
X18294Y23623D01*
X18927Y24448D01*
X19324Y25408D01*
X19460Y26438D01*
X19324Y27468D01*
X18927Y28428D01*
X18294Y29252D01*
X17470Y29885D01*
X16510Y30283D01*
X15480Y30418D01*
D02*
G37*
G36*
X550886Y32131D02*
X550191Y31993D01*
X549602Y31599D01*
X549208Y31010D01*
X549070Y30315D01*
X549208Y29620D01*
X549602Y29031D01*
X549924Y28816D01*
Y25187D01*
X549503Y24906D01*
X549110Y24317D01*
X548971Y23622D01*
X549110Y22927D01*
X549503Y22338D01*
X550093Y21944D01*
X550787Y21806D01*
X551482Y21944D01*
X552072Y22338D01*
X552465Y22927D01*
X552603Y23622D01*
X552465Y24317D01*
X552072Y24906D01*
X551749Y25121D01*
Y28750D01*
X552170Y29031D01*
X552564Y29620D01*
X552702Y30315D01*
X552564Y31010D01*
X552170Y31599D01*
X551581Y31993D01*
X550886Y32131D01*
D02*
G37*
%LPD*%
D15*
X193640Y210998D02*
Y212538D01*
X552835Y65039D02*
X565177D01*
X537795Y50000D02*
X552835Y65039D01*
X298819Y72835D02*
X306693Y64961D01*
X298819Y72835D02*
Y73228D01*
X227731Y216595D02*
X228346D01*
X221788Y222538D02*
X227731Y216595D01*
X192520Y192126D02*
X236690D01*
X188583Y196063D02*
X192520Y192126D01*
X188583Y196063D02*
Y205941D01*
X193640Y210998D01*
Y212538D02*
X195179D01*
X202835Y194882D02*
X232283D01*
X195179Y202538D02*
X202835Y194882D01*
X205180Y202538D02*
X231299D01*
X205180Y222538D02*
X221788D01*
X491339Y54331D02*
Y62992D01*
X515354Y182283D02*
Y190157D01*
X550837Y30266D02*
X550886Y30315D01*
X550837Y23671D02*
Y30266D01*
X550787Y23622D02*
X550837Y23671D01*
X550000Y199213D02*
Y203937D01*
D73*
X509055Y258661D02*
Y268898D01*
X566929Y246743D02*
Y296063D01*
X580709Y309842D01*
X504331Y246743D02*
X566929Y246743D01*
X20472Y307480D02*
X20866Y307874D01*
X680315Y6299D02*
X687795Y13780D01*
X575197Y6299D02*
X680315D01*
X566929Y14567D02*
X575197Y6299D01*
X566929Y14567D02*
Y60236D01*
X687795Y13780D02*
Y193972D01*
X688583Y194759D01*
Y301575D01*
X680315Y309842D02*
X688583Y301575D01*
X580709Y309842D02*
X680315D01*
X566929Y233465D02*
Y246743D01*
X683670Y312815D02*
X691339Y305146D01*
Y122441D02*
Y305146D01*
X555905Y296063D02*
Y312028D01*
X555118Y312815D02*
X555905Y312028D01*
X555118Y312815D02*
X683670D01*
X447854D02*
X555118D01*
X439173Y304134D02*
X447854Y312815D01*
X430512Y304134D02*
X439173D01*
X525624Y182250D02*
Y218291D01*
D74*
X4724Y307480D02*
X20472D01*
D76*
X674902Y221595D02*
D03*
X662402Y244094D02*
D03*
X674902Y266595D02*
D03*
X672402Y276594D02*
D03*
X637402Y226594D02*
D03*
Y261595D02*
D03*
X637244Y88366D02*
D03*
Y53366D02*
D03*
X672244Y103366D02*
D03*
X674744Y93366D02*
D03*
X662244Y70866D02*
D03*
X674744Y48366D02*
D03*
D77*
X609902Y232844D02*
D03*
Y255345D02*
D03*
X607402Y244094D02*
D03*
X624902Y216595D02*
D03*
X627402Y271595D02*
D03*
X627244Y98366D02*
D03*
X624744Y43366D02*
D03*
X607244Y70866D02*
D03*
X609744Y82116D02*
D03*
Y59616D02*
D03*
D78*
X358937Y305118D02*
D03*
X462284D02*
D03*
D79*
X372716D02*
D03*
X349095Y302638D02*
D03*
X382559D02*
D03*
X476063Y305118D02*
D03*
X452441Y302638D02*
D03*
X485906D02*
D03*
D80*
X195179Y292538D02*
D03*
X15079Y256538D02*
D03*
X195080Y186638D02*
D03*
X15480Y166438D02*
D03*
D81*
X195179Y282538D02*
D03*
Y272538D02*
D03*
Y262538D02*
D03*
Y252538D02*
D03*
Y242538D02*
D03*
Y232538D02*
D03*
Y222538D02*
D03*
X205180D02*
D03*
Y232538D02*
D03*
Y242538D02*
D03*
Y252538D02*
D03*
Y262538D02*
D03*
Y272538D02*
D03*
Y282538D02*
D03*
Y292538D02*
D03*
Y212538D02*
D03*
Y202538D02*
D03*
X195179D02*
D03*
Y212538D02*
D03*
X25080Y256538D02*
D03*
Y246538D02*
D03*
Y236538D02*
D03*
Y226538D02*
D03*
Y216538D02*
D03*
Y206538D02*
D03*
Y196538D02*
D03*
Y186538D02*
D03*
X15079D02*
D03*
Y196538D02*
D03*
Y206538D02*
D03*
Y216538D02*
D03*
Y226538D02*
D03*
Y236538D02*
D03*
Y246538D02*
D03*
X195080Y36638D02*
D03*
Y26638D02*
D03*
X205080D02*
D03*
Y36638D02*
D03*
X195080Y106638D02*
D03*
Y96638D02*
D03*
X205080D02*
D03*
Y106638D02*
D03*
Y186638D02*
D03*
Y176638D02*
D03*
Y166638D02*
D03*
Y156638D02*
D03*
Y146638D02*
D03*
Y136638D02*
D03*
Y126638D02*
D03*
Y116638D02*
D03*
X195080D02*
D03*
Y126638D02*
D03*
Y136638D02*
D03*
Y146638D02*
D03*
Y156638D02*
D03*
Y166638D02*
D03*
Y176638D02*
D03*
Y86638D02*
D03*
Y76638D02*
D03*
Y66638D02*
D03*
X205080D02*
D03*
Y76638D02*
D03*
Y86638D02*
D03*
Y56638D02*
D03*
Y46638D02*
D03*
X195080D02*
D03*
Y56638D02*
D03*
X15480Y86438D02*
D03*
Y76438D02*
D03*
X25480D02*
D03*
Y86438D02*
D03*
Y166438D02*
D03*
Y156438D02*
D03*
Y146438D02*
D03*
Y136438D02*
D03*
Y126438D02*
D03*
Y116438D02*
D03*
Y106438D02*
D03*
Y96438D02*
D03*
X15480D02*
D03*
Y106438D02*
D03*
Y116438D02*
D03*
Y126438D02*
D03*
Y136438D02*
D03*
Y146438D02*
D03*
Y156438D02*
D03*
Y66438D02*
D03*
Y56438D02*
D03*
Y46438D02*
D03*
X25480D02*
D03*
Y56438D02*
D03*
Y66438D02*
D03*
Y36438D02*
D03*
Y26438D02*
D03*
X15480D02*
D03*
Y36438D02*
D03*
D82*
X294488Y202835D02*
D03*
Y212835D02*
D03*
Y222835D02*
D03*
Y232835D02*
D03*
D83*
Y242835D02*
D03*
D84*
X570866Y253150D02*
D03*
Y260477D02*
D03*
X455118Y150394D02*
D03*
X303610Y270539D02*
D03*
X402411Y285433D02*
D03*
X585433Y142520D02*
D03*
Y148425D02*
D03*
Y154331D02*
D03*
Y160236D02*
D03*
Y166142D02*
D03*
X585433Y172047D02*
D03*
X538287Y175295D02*
D03*
X513189Y156595D02*
D03*
X491339Y33858D02*
D03*
X571654Y78642D02*
D03*
Y85433D02*
D03*
X508384Y300672D02*
D03*
X509055Y268898D02*
D03*
X277697Y56555D02*
D03*
X341595Y13248D02*
D03*
X341752Y57854D02*
D03*
X347244Y16142D02*
D03*
X353543Y16142D02*
D03*
X535039Y31890D02*
D03*
X494685Y48228D02*
D03*
X519436Y58957D02*
D03*
X546654Y110945D02*
D03*
X537795Y103543D02*
D03*
X529035Y111043D02*
D03*
X481890Y111024D02*
D03*
X471535Y110748D02*
D03*
X462598Y103366D02*
D03*
X453150Y136221D02*
D03*
X537205Y161221D02*
D03*
X532579Y181398D02*
D03*
X491732Y222835D02*
D03*
X492126Y208071D02*
D03*
X518504Y231102D02*
D03*
X478524Y254508D02*
D03*
X478031Y270000D02*
D03*
X384341Y253740D02*
D03*
X384132Y279408D02*
D03*
X334276Y244488D02*
D03*
X325417Y244268D02*
D03*
X315575D02*
D03*
X565177Y65039D02*
D03*
X504331Y246743D02*
D03*
X298819Y73228D02*
D03*
X228346Y216595D02*
D03*
X20866Y307874D02*
D03*
X4724Y307480D02*
D03*
X352756Y275590D02*
D03*
X320236Y65276D02*
D03*
X289606Y65512D02*
D03*
X456102Y260827D02*
D03*
X537795Y50000D02*
D03*
X535039Y80315D02*
D03*
X353150Y250000D02*
D03*
X298819Y15748D02*
D03*
X276437Y12657D02*
D03*
X533858Y214173D02*
D03*
X539705Y249508D02*
D03*
X274016Y280539D02*
D03*
X491339Y62992D02*
D03*
Y54331D02*
D03*
X566929Y60236D02*
D03*
X691339Y122441D02*
D03*
X509055Y258661D02*
D03*
X555905Y296063D02*
D03*
X430512Y304134D02*
D03*
X306693Y64961D02*
D03*
X525624Y182250D02*
D03*
Y218291D02*
D03*
X515354Y190157D02*
D03*
X550886Y30315D02*
D03*
X236690Y192126D02*
D03*
X515354Y182283D02*
D03*
X550787Y23622D02*
D03*
X550000Y199213D02*
D03*
Y203937D02*
D03*
X566929Y233465D02*
D03*
X232283Y194882D02*
D03*
X231299Y202538D02*
D03*
M02*
