G04*
G04 #@! TF.GenerationSoftware,Altium Limited,Altium Designer,20.0.11 (256)*
G04*
G04 Layer_Color=32768*
%FSLAX25Y25*%
%MOIN*%
G70*
G01*
G75*
%ADD16C,0.00394*%
%ADD176C,0.00197*%
D16*
X28150Y82480D02*
Y86417D01*
X26181Y84449D02*
X30118D01*
X73425Y-64567D02*
Y-60630D01*
X71457Y-62598D02*
X75394D01*
X226969Y77382D02*
X230906D01*
X228937Y75414D02*
Y79351D01*
X261841Y44435D02*
X264625Y47219D01*
X261841Y47219D02*
X264625Y44435D01*
X157677Y116142D02*
Y120079D01*
X155709Y118110D02*
X159646D01*
X262055Y9908D02*
X264839Y12692D01*
X262055D02*
X264839Y9908D01*
X230734Y16899D02*
X233518Y14115D01*
X230734Y14115D02*
X233518Y16899D01*
X236614Y133445D02*
Y137382D01*
X234646Y135413D02*
X238583D01*
X117323Y179528D02*
Y183465D01*
X115354Y181496D02*
X119291D01*
D176*
X-27362Y139961D02*
X83661D01*
X-27362Y28937D02*
X83661D01*
X-27362D02*
Y139961D01*
X83661Y28937D02*
Y139961D01*
X59547Y-48720D02*
X87303D01*
X59547Y-76476D02*
X87303D01*
X59547D02*
Y-48720D01*
X87303Y-76476D02*
Y-48720D01*
X242815Y63504D02*
Y91260D01*
X215059Y63504D02*
Y91260D01*
Y63504D02*
X242815D01*
X215059Y91260D02*
X242815D01*
X244581Y42765D02*
X260171Y27175D01*
X266295Y64479D02*
X281885Y48889D01*
X244581Y42765D02*
X266295Y64479D01*
X260171Y27175D02*
X281885Y48889D01*
X139173Y96457D02*
X176181D01*
X139173Y139764D02*
X176181D01*
Y96457D02*
Y139764D01*
X139173Y96457D02*
Y139764D01*
X266161Y22923D02*
X275070Y14014D01*
X251824Y8586D02*
X260733Y-323D01*
X251824Y8586D02*
X266161Y22923D01*
X260733Y-323D02*
X275070Y14014D01*
X229064Y-3145D02*
X250778Y18570D01*
X213474Y12445D02*
X235188Y34159D01*
X250778Y18570D01*
X213474Y12445D02*
X229064Y-3145D01*
X222047Y124587D02*
X251181D01*
X222047Y146240D02*
X251181D01*
Y124587D02*
Y146240D01*
X222047Y124587D02*
Y146240D01*
X102756Y170669D02*
X131890D01*
X102756Y192323D02*
X131890D01*
Y170669D02*
Y192323D01*
X102756Y170669D02*
Y192323D01*
M02*
