G04*
G04 #@! TF.GenerationSoftware,Altium Limited,Altium Designer,20.0.11 (256)*
G04*
G04 Layer_Color=65535*
%FSLAX25Y25*%
%MOIN*%
G70*
G01*
G75*
%ADD10C,0.02362*%
%ADD11C,0.00984*%
%ADD12C,0.01575*%
%ADD13C,0.00787*%
%ADD14C,0.01181*%
%ADD15C,0.01000*%
%ADD16C,0.00394*%
%ADD17C,0.00787*%
%ADD18C,0.00600*%
%ADD19C,0.00591*%
%ADD20C,0.00500*%
G36*
X183771Y48340D02*
X183688D01*
Y48258D01*
X183606D01*
Y48176D01*
X183524D01*
Y48094D01*
X183359D01*
Y48011D01*
X183277D01*
Y47929D01*
X183195D01*
Y47847D01*
X183113D01*
Y47765D01*
X183030D01*
Y47682D01*
X182866D01*
Y47600D01*
X182784D01*
Y47518D01*
X182701D01*
Y47436D01*
X182619D01*
Y47354D01*
X182537D01*
Y47271D01*
X182372D01*
Y47189D01*
X182290D01*
Y47107D01*
X182208D01*
Y47025D01*
X182126D01*
Y46942D01*
X182043D01*
Y46860D01*
X181879D01*
Y46778D01*
X181797D01*
Y46696D01*
X181714D01*
Y46613D01*
X181632D01*
Y46531D01*
X181550D01*
Y46449D01*
X181385D01*
Y46367D01*
X181303D01*
Y46284D01*
X181221D01*
Y46202D01*
X181139D01*
Y46120D01*
X181056D01*
Y46038D01*
X180892D01*
Y45955D01*
X180810D01*
Y45873D01*
X180727D01*
Y45791D01*
X180645D01*
Y45709D01*
X180563D01*
Y45626D01*
X180398D01*
Y45544D01*
X180316D01*
Y45462D01*
X180234D01*
Y45379D01*
X180152D01*
Y45297D01*
X180069D01*
Y45215D01*
X179905D01*
Y45133D01*
X179823D01*
Y45050D01*
X179740D01*
Y44968D01*
X179658D01*
Y44886D01*
X179576D01*
Y44804D01*
X179411D01*
Y44721D01*
X179329D01*
Y44639D01*
X179247D01*
Y44557D01*
X179165D01*
Y44475D01*
X179082D01*
Y44392D01*
X178918D01*
Y44310D01*
X178836D01*
Y44228D01*
X178753D01*
Y44146D01*
X178671D01*
Y44063D01*
X178589D01*
Y43981D01*
X178424D01*
Y43899D01*
X178342D01*
Y43817D01*
X178260D01*
Y43734D01*
X178178D01*
Y43652D01*
X178095D01*
Y43570D01*
X177931D01*
Y43488D01*
X177849D01*
Y43406D01*
X177766D01*
Y43323D01*
X177684D01*
Y43241D01*
X177602D01*
Y43159D01*
X177437D01*
Y43077D01*
X177355D01*
Y42994D01*
X177273D01*
Y42912D01*
X177191D01*
Y42830D01*
X177108D01*
Y42748D01*
X176944D01*
Y42665D01*
X176862D01*
Y42583D01*
X176779D01*
Y42501D01*
X176697D01*
Y42419D01*
X176615D01*
Y42336D01*
X176450D01*
Y42254D01*
X176368D01*
Y42172D01*
X176286D01*
Y42090D01*
X176204D01*
Y42007D01*
X176121D01*
Y41925D01*
X175957D01*
Y41843D01*
X175875D01*
Y41761D01*
X175792D01*
Y41678D01*
X175710D01*
Y41596D01*
X175628D01*
Y41514D01*
X175463D01*
Y41431D01*
X175381D01*
Y41349D01*
X175299D01*
Y41267D01*
X175217D01*
Y41185D01*
Y41102D01*
Y41020D01*
X175299D01*
Y40938D01*
X175381D01*
Y40856D01*
Y40773D01*
X175463D01*
Y40691D01*
Y40609D01*
X175546D01*
Y40527D01*
X175628D01*
Y40444D01*
Y40362D01*
X175710D01*
Y40280D01*
Y40198D01*
X175792D01*
Y40115D01*
X175875D01*
Y40033D01*
Y39951D01*
X175957D01*
Y39869D01*
Y39786D01*
X176039D01*
Y39704D01*
X176121D01*
Y39622D01*
Y39540D01*
X176204D01*
Y39457D01*
Y39375D01*
X176286D01*
Y39293D01*
Y39211D01*
X176368D01*
Y39129D01*
X176450D01*
Y39046D01*
Y38964D01*
X176533D01*
Y38882D01*
X176615D01*
Y38800D01*
Y38717D01*
X176697D01*
Y38635D01*
Y38553D01*
X176779D01*
Y38471D01*
X176862D01*
Y38388D01*
Y38306D01*
X176944D01*
Y38224D01*
Y38142D01*
X177026D01*
Y38059D01*
X177108D01*
Y37977D01*
Y37895D01*
X177191D01*
Y37813D01*
Y37730D01*
X177273D01*
Y37648D01*
X177355D01*
Y37566D01*
Y37484D01*
X177437D01*
Y37401D01*
Y37319D01*
X177520D01*
Y37237D01*
X177602D01*
Y37154D01*
Y37072D01*
X177684D01*
Y36990D01*
Y36908D01*
X177766D01*
Y36825D01*
Y36743D01*
X177849D01*
Y36661D01*
X177931D01*
Y36579D01*
Y36497D01*
X178013D01*
Y36414D01*
X178095D01*
Y36332D01*
Y36250D01*
X178178D01*
Y36167D01*
Y36085D01*
X178260D01*
Y36003D01*
X178342D01*
Y35921D01*
Y35838D01*
X178424D01*
Y35756D01*
Y35674D01*
X178507D01*
Y35592D01*
X178589D01*
Y35509D01*
Y35427D01*
X178671D01*
Y35345D01*
Y35263D01*
X178753D01*
Y35181D01*
Y35098D01*
X178836D01*
Y35016D01*
X178918D01*
Y34934D01*
Y34852D01*
X179000D01*
Y34769D01*
Y34687D01*
X179082D01*
Y34605D01*
X179165D01*
Y34523D01*
Y34440D01*
X179247D01*
Y34358D01*
X179329D01*
Y34276D01*
Y34194D01*
X179411D01*
Y34111D01*
Y34029D01*
X179494D01*
Y33947D01*
X173078D01*
Y34029D01*
X172996D01*
Y34111D01*
Y34194D01*
X172914D01*
Y34276D01*
Y34358D01*
X172831D01*
Y34440D01*
X172749D01*
Y34523D01*
Y34605D01*
X172667D01*
Y34687D01*
Y34769D01*
X172585D01*
Y34852D01*
Y34934D01*
X172502D01*
Y35016D01*
Y35098D01*
X172420D01*
Y35181D01*
Y35263D01*
X172338D01*
Y35345D01*
Y35427D01*
X172256D01*
Y35509D01*
Y35592D01*
X172173D01*
Y35674D01*
Y35756D01*
X172091D01*
Y35838D01*
Y35921D01*
X172009D01*
Y36003D01*
Y36085D01*
X171927D01*
Y36167D01*
X171844D01*
Y36250D01*
Y36332D01*
X171762D01*
Y36414D01*
Y36497D01*
X171680D01*
Y36579D01*
Y36661D01*
X171598D01*
Y36743D01*
Y36825D01*
X171515D01*
Y36908D01*
Y36990D01*
X171433D01*
Y37072D01*
Y37154D01*
X171351D01*
Y37237D01*
Y37319D01*
X171269D01*
Y37401D01*
Y37484D01*
X171186D01*
Y37566D01*
Y37648D01*
X171104D01*
Y37730D01*
Y37813D01*
X171022D01*
Y37895D01*
X170940D01*
Y37977D01*
Y38059D01*
X170693D01*
Y37977D01*
X170611D01*
Y37895D01*
X170528D01*
Y37813D01*
X170446D01*
Y37730D01*
X170282D01*
Y37648D01*
X170199D01*
Y37566D01*
X170117D01*
Y37484D01*
X170035D01*
Y37401D01*
X169953D01*
Y37319D01*
X169788D01*
Y37237D01*
X169706D01*
Y37154D01*
X169624D01*
Y37072D01*
X169541D01*
Y36990D01*
X169377D01*
Y36908D01*
X169295D01*
Y36825D01*
X169212D01*
Y36743D01*
X169130D01*
Y36661D01*
X169048D01*
Y36579D01*
X168883D01*
Y36497D01*
X168801D01*
Y36414D01*
X168719D01*
Y36332D01*
X168637D01*
Y36250D01*
X168472D01*
Y36167D01*
X168390D01*
Y36085D01*
X168308D01*
Y36003D01*
X168225D01*
Y35921D01*
X168143D01*
Y35838D01*
X167979D01*
Y35756D01*
X167896D01*
Y35674D01*
X167814D01*
Y35592D01*
X167732D01*
Y35509D01*
X167567D01*
Y35427D01*
X167485D01*
Y35345D01*
X167403D01*
Y35263D01*
X167321D01*
Y35181D01*
X167238D01*
Y35098D01*
X167074D01*
Y35016D01*
X166992D01*
Y34934D01*
X166909D01*
Y34852D01*
X166827D01*
Y34769D01*
X166663D01*
Y34687D01*
X166580D01*
Y34605D01*
X166498D01*
Y34523D01*
X166416D01*
Y34440D01*
X166251D01*
Y34358D01*
X166169D01*
Y34276D01*
X166087D01*
Y34194D01*
X166005D01*
Y34111D01*
X165922D01*
Y34029D01*
X165758D01*
Y33947D01*
X159343D01*
Y34029D01*
X159507D01*
Y34111D01*
X159589D01*
Y34194D01*
X159671D01*
Y34276D01*
X159754D01*
Y34358D01*
X159836D01*
Y34440D01*
X160001D01*
Y34523D01*
X160083D01*
Y34605D01*
X160165D01*
Y34687D01*
X160247D01*
Y34769D01*
X160329D01*
Y34852D01*
X160494D01*
Y34934D01*
X160576D01*
Y35016D01*
X160658D01*
Y35098D01*
X160741D01*
Y35181D01*
X160823D01*
Y35263D01*
X160987D01*
Y35345D01*
X161070D01*
Y35427D01*
X161152D01*
Y35509D01*
X161234D01*
Y35592D01*
X161317D01*
Y35674D01*
X161481D01*
Y35756D01*
X161563D01*
Y35838D01*
X161645D01*
Y35921D01*
X161728D01*
Y36003D01*
X161810D01*
Y36085D01*
X161974D01*
Y36167D01*
X162057D01*
Y36250D01*
X162139D01*
Y36332D01*
X162221D01*
Y36414D01*
X162303D01*
Y36497D01*
X162468D01*
Y36579D01*
X162550D01*
Y36661D01*
X162632D01*
Y36743D01*
X162715D01*
Y36825D01*
X162797D01*
Y36908D01*
X162961D01*
Y36990D01*
X163044D01*
Y37072D01*
X163126D01*
Y37154D01*
X163208D01*
Y37237D01*
X163290D01*
Y37319D01*
X163455D01*
Y37401D01*
X163537D01*
Y37484D01*
X163619D01*
Y37566D01*
X163702D01*
Y37648D01*
X163784D01*
Y37730D01*
X163948D01*
Y37813D01*
X164031D01*
Y37895D01*
X164113D01*
Y37977D01*
X164195D01*
Y38059D01*
X164277D01*
Y38142D01*
X164442D01*
Y38224D01*
X164524D01*
Y38306D01*
X164606D01*
Y38388D01*
X164689D01*
Y38471D01*
X164771D01*
Y38553D01*
X164935D01*
Y38635D01*
X165018D01*
Y38717D01*
X165100D01*
Y38800D01*
X165182D01*
Y38882D01*
X165264D01*
Y38964D01*
X165429D01*
Y39046D01*
X165511D01*
Y39129D01*
X165593D01*
Y39211D01*
X165676D01*
Y39293D01*
X165758D01*
Y39375D01*
X165922D01*
Y39457D01*
X166005D01*
Y39540D01*
X166087D01*
Y39622D01*
X166169D01*
Y39704D01*
X166251D01*
Y39786D01*
X166416D01*
Y39869D01*
X166498D01*
Y39951D01*
X166580D01*
Y40033D01*
X166663D01*
Y40115D01*
X166745D01*
Y40198D01*
X166909D01*
Y40280D01*
X166992D01*
Y40362D01*
X167074D01*
Y40444D01*
X167156D01*
Y40527D01*
X167238D01*
Y40609D01*
X167403D01*
Y40691D01*
X167485D01*
Y40773D01*
X167567D01*
Y40856D01*
X167650D01*
Y40938D01*
X167732D01*
Y41020D01*
X167896D01*
Y41102D01*
X167979D01*
Y41185D01*
Y41267D01*
X167896D01*
Y41349D01*
Y41431D01*
X167814D01*
Y41514D01*
Y41596D01*
X167732D01*
Y41678D01*
X167650D01*
Y41761D01*
Y41843D01*
X167567D01*
Y41925D01*
Y42007D01*
X167485D01*
Y42090D01*
X167403D01*
Y42172D01*
Y42254D01*
X167321D01*
Y42336D01*
Y42419D01*
X167238D01*
Y42501D01*
X167156D01*
Y42583D01*
Y42665D01*
X167074D01*
Y42748D01*
Y42830D01*
X166992D01*
Y42912D01*
X166909D01*
Y42994D01*
Y43077D01*
X166827D01*
Y43159D01*
X166745D01*
Y43241D01*
Y43323D01*
X166663D01*
Y43406D01*
Y43488D01*
X166580D01*
Y43570D01*
Y43652D01*
X166498D01*
Y43734D01*
X166416D01*
Y43817D01*
Y43899D01*
X166334D01*
Y43981D01*
Y44063D01*
X166251D01*
Y44146D01*
X166169D01*
Y44228D01*
Y44310D01*
X166087D01*
Y44392D01*
Y44475D01*
X166005D01*
Y44557D01*
X165922D01*
Y44639D01*
Y44721D01*
X165840D01*
Y44804D01*
Y44886D01*
X165758D01*
Y44968D01*
X165676D01*
Y45050D01*
Y45133D01*
X165593D01*
Y45215D01*
Y45297D01*
X165511D01*
Y45379D01*
X165429D01*
Y45462D01*
Y45544D01*
X165347D01*
Y45626D01*
X165264D01*
Y45709D01*
Y45791D01*
X165182D01*
Y45873D01*
Y45955D01*
X165100D01*
Y46038D01*
Y46120D01*
X165018D01*
Y46202D01*
X164935D01*
Y46284D01*
Y46367D01*
X164853D01*
Y46449D01*
Y46531D01*
X164771D01*
Y46613D01*
X164689D01*
Y46696D01*
Y46778D01*
X164606D01*
Y46860D01*
Y46942D01*
X164524D01*
Y47025D01*
X164442D01*
Y47107D01*
Y47189D01*
X164360D01*
Y47271D01*
Y47354D01*
X164277D01*
Y47436D01*
X164195D01*
Y47518D01*
Y47600D01*
X164113D01*
Y47682D01*
Y47765D01*
X164031D01*
Y47847D01*
X163948D01*
Y47929D01*
Y48011D01*
X163866D01*
Y48094D01*
Y48176D01*
X163784D01*
Y48258D01*
X163702D01*
Y48340D01*
Y48423D01*
X170117D01*
Y48340D01*
Y48258D01*
X170199D01*
Y48176D01*
X170282D01*
Y48094D01*
Y48011D01*
X170364D01*
Y47929D01*
Y47847D01*
X170446D01*
Y47765D01*
Y47682D01*
X170528D01*
Y47600D01*
Y47518D01*
X170611D01*
Y47436D01*
Y47354D01*
X170693D01*
Y47271D01*
Y47189D01*
X170775D01*
Y47107D01*
Y47025D01*
X170857D01*
Y46942D01*
Y46860D01*
X170940D01*
Y46778D01*
Y46696D01*
X171022D01*
Y46613D01*
X171104D01*
Y46531D01*
Y46449D01*
X171186D01*
Y46367D01*
Y46284D01*
X171269D01*
Y46202D01*
Y46120D01*
X171351D01*
Y46038D01*
Y45955D01*
X171433D01*
Y45873D01*
Y45791D01*
X171515D01*
Y45709D01*
Y45626D01*
X171598D01*
Y45544D01*
Y45462D01*
X171680D01*
Y45379D01*
Y45297D01*
X171762D01*
Y45215D01*
Y45133D01*
X171844D01*
Y45050D01*
X171927D01*
Y44968D01*
Y44886D01*
X172009D01*
Y44804D01*
Y44721D01*
X172091D01*
Y44639D01*
Y44557D01*
X172173D01*
Y44475D01*
Y44392D01*
X172256D01*
Y44310D01*
X172420D01*
Y44392D01*
X172502D01*
Y44475D01*
X172585D01*
Y44557D01*
X172667D01*
Y44639D01*
X172749D01*
Y44721D01*
X172831D01*
Y44804D01*
X172914D01*
Y44886D01*
X172996D01*
Y44968D01*
X173078D01*
Y45050D01*
X173243D01*
Y45133D01*
X173325D01*
Y45215D01*
X173407D01*
Y45297D01*
X173489D01*
Y45379D01*
X173572D01*
Y45462D01*
X173654D01*
Y45544D01*
X173736D01*
Y45626D01*
X173818D01*
Y45709D01*
X173901D01*
Y45791D01*
X173983D01*
Y45873D01*
X174065D01*
Y45955D01*
X174147D01*
Y46038D01*
X174230D01*
Y46120D01*
X174312D01*
Y46202D01*
X174394D01*
Y46284D01*
X174476D01*
Y46367D01*
X174559D01*
Y46449D01*
X174641D01*
Y46531D01*
X174723D01*
Y46613D01*
X174805D01*
Y46696D01*
X174970D01*
Y46778D01*
X175052D01*
Y46860D01*
X175134D01*
Y46942D01*
X175217D01*
Y47025D01*
X175299D01*
Y47107D01*
X175381D01*
Y47189D01*
X175463D01*
Y47271D01*
X175546D01*
Y47354D01*
X175628D01*
Y47436D01*
X175710D01*
Y47518D01*
X175792D01*
Y47600D01*
X175875D01*
Y47682D01*
X175957D01*
Y47765D01*
X176039D01*
Y47847D01*
X176121D01*
Y47929D01*
X176204D01*
Y48011D01*
X176286D01*
Y48094D01*
X176368D01*
Y48176D01*
X176450D01*
Y48258D01*
X176533D01*
Y48340D01*
X176615D01*
Y48423D01*
X183771D01*
Y48340D01*
D02*
G37*
G36*
X149637D02*
X149555D01*
Y48258D01*
Y48176D01*
Y48094D01*
X149472D01*
Y48011D01*
Y47929D01*
Y47847D01*
Y47765D01*
X149390D01*
Y47682D01*
Y47600D01*
Y47518D01*
X149308D01*
Y47436D01*
Y47354D01*
Y47271D01*
X149226D01*
Y47189D01*
Y47107D01*
Y47025D01*
X149144D01*
Y46942D01*
Y46860D01*
Y46778D01*
X149061D01*
Y46696D01*
Y46613D01*
Y46531D01*
X148979D01*
Y46449D01*
Y46367D01*
Y46284D01*
Y46202D01*
X148897D01*
Y46120D01*
Y46038D01*
Y45955D01*
X148814D01*
Y45873D01*
Y45791D01*
Y45709D01*
X148732D01*
Y45626D01*
Y45544D01*
Y45462D01*
X148650D01*
Y45379D01*
Y45297D01*
Y45215D01*
X148568D01*
Y45133D01*
Y45050D01*
Y44968D01*
Y44886D01*
X148486D01*
Y44804D01*
Y44721D01*
Y44639D01*
X148403D01*
Y44557D01*
Y44475D01*
Y44392D01*
X148321D01*
Y44310D01*
Y44228D01*
Y44146D01*
X148239D01*
Y44063D01*
Y43981D01*
Y43899D01*
X148156D01*
Y43817D01*
Y43734D01*
Y43652D01*
Y43570D01*
X148074D01*
Y43488D01*
Y43406D01*
Y43323D01*
X147992D01*
Y43241D01*
Y43159D01*
Y43077D01*
X147910D01*
Y42994D01*
Y42912D01*
Y42830D01*
X147827D01*
Y42748D01*
Y42665D01*
Y42583D01*
X147745D01*
Y42501D01*
Y42419D01*
Y42336D01*
X147663D01*
Y42254D01*
Y42172D01*
Y42090D01*
Y42007D01*
X147581D01*
Y41925D01*
Y41843D01*
Y41761D01*
X147499D01*
Y41678D01*
Y41596D01*
Y41514D01*
X147416D01*
Y41431D01*
Y41349D01*
Y41267D01*
Y41185D01*
X147334D01*
Y41102D01*
X147252D01*
Y41020D01*
X147169D01*
Y40938D01*
Y40856D01*
X147087D01*
Y40773D01*
X147005D01*
Y40691D01*
X146923D01*
Y40609D01*
X146841D01*
Y40527D01*
Y40444D01*
X146758D01*
Y40362D01*
X146676D01*
Y40280D01*
X146594D01*
Y40198D01*
X146511D01*
Y40115D01*
Y40033D01*
X146429D01*
Y39951D01*
X146347D01*
Y39869D01*
X146265D01*
Y39786D01*
Y39704D01*
X146183D01*
Y39622D01*
X146100D01*
Y39540D01*
X146018D01*
Y39457D01*
X145936D01*
Y39375D01*
Y39293D01*
X145853D01*
Y39211D01*
X145771D01*
Y39129D01*
X145689D01*
Y39046D01*
X145607D01*
Y38964D01*
Y38882D01*
X145525D01*
Y38800D01*
X145442D01*
Y38717D01*
X145360D01*
Y38635D01*
X145278D01*
Y38553D01*
Y38471D01*
X145195D01*
Y38388D01*
X145113D01*
Y38306D01*
X145031D01*
Y38224D01*
Y38142D01*
X144949D01*
Y38059D01*
X144867D01*
Y37977D01*
X144784D01*
Y37895D01*
X144702D01*
Y37813D01*
Y37730D01*
X144620D01*
Y37648D01*
X144537D01*
Y37566D01*
X144455D01*
Y37484D01*
X144373D01*
Y37401D01*
Y37319D01*
X144291D01*
Y37237D01*
X144209D01*
Y37154D01*
X144126D01*
Y37072D01*
Y36990D01*
X144044D01*
Y36908D01*
X143962D01*
Y36825D01*
X143879D01*
Y36743D01*
X143797D01*
Y36661D01*
Y36579D01*
X143715D01*
Y36497D01*
X143633D01*
Y36414D01*
X143551D01*
Y36332D01*
X143468D01*
Y36250D01*
Y36167D01*
X143386D01*
Y36085D01*
X143304D01*
Y36003D01*
X143221D01*
Y35921D01*
Y35838D01*
X143139D01*
Y35756D01*
X143057D01*
Y35674D01*
X142975D01*
Y35592D01*
X142893D01*
Y35509D01*
Y35427D01*
X142810D01*
Y35345D01*
X142728D01*
Y35263D01*
X142646D01*
Y35181D01*
X142563D01*
Y35098D01*
Y35016D01*
X142481D01*
Y34934D01*
X142399D01*
Y34852D01*
X142317D01*
Y34769D01*
Y34687D01*
X142235D01*
Y34605D01*
X142152D01*
Y34523D01*
X142070D01*
Y34440D01*
X141988D01*
Y34358D01*
Y34276D01*
X141905D01*
Y34194D01*
X141823D01*
Y34111D01*
X141741D01*
Y34029D01*
X141659D01*
Y33947D01*
X138040D01*
Y34029D01*
Y34111D01*
Y34194D01*
Y34276D01*
Y34358D01*
Y34440D01*
X137958D01*
Y34523D01*
Y34605D01*
Y34687D01*
Y34769D01*
Y34852D01*
Y34934D01*
Y35016D01*
X137875D01*
Y35098D01*
Y35181D01*
Y35263D01*
Y35345D01*
Y35427D01*
Y35509D01*
X137793D01*
Y35592D01*
Y35674D01*
Y35756D01*
Y35838D01*
Y35921D01*
Y36003D01*
X137711D01*
Y36085D01*
Y36167D01*
Y36250D01*
Y36332D01*
Y36414D01*
Y36497D01*
Y36579D01*
X137628D01*
Y36661D01*
Y36743D01*
Y36825D01*
Y36908D01*
Y36990D01*
Y37072D01*
X137546D01*
Y37154D01*
Y37237D01*
Y37319D01*
Y37401D01*
Y37484D01*
Y37566D01*
Y37648D01*
X137464D01*
Y37730D01*
Y37813D01*
Y37895D01*
Y37977D01*
Y38059D01*
Y38142D01*
X137382D01*
Y38224D01*
Y38306D01*
Y38388D01*
Y38471D01*
Y38553D01*
Y38635D01*
Y38717D01*
X137300D01*
Y38800D01*
Y38882D01*
Y38964D01*
Y39046D01*
Y39129D01*
Y39211D01*
X137217D01*
Y39293D01*
Y39375D01*
Y39457D01*
Y39540D01*
Y39622D01*
Y39704D01*
X137135D01*
Y39786D01*
Y39869D01*
Y39951D01*
Y40033D01*
Y40115D01*
Y40198D01*
Y40280D01*
X137053D01*
Y40362D01*
Y40444D01*
Y40527D01*
Y40609D01*
Y40691D01*
Y40773D01*
X136970D01*
Y40856D01*
Y40938D01*
Y41020D01*
Y41102D01*
Y41185D01*
Y41267D01*
Y41349D01*
X136888D01*
Y41431D01*
Y41514D01*
Y41596D01*
Y41678D01*
Y41761D01*
Y41843D01*
X136806D01*
Y41925D01*
Y42007D01*
Y42090D01*
Y42172D01*
Y42254D01*
Y42336D01*
Y42419D01*
X136724D01*
Y42501D01*
Y42583D01*
Y42665D01*
Y42748D01*
Y42830D01*
Y42912D01*
X136642D01*
Y42994D01*
Y43077D01*
Y43159D01*
Y43241D01*
Y43323D01*
X136477D01*
Y43241D01*
Y43159D01*
Y43077D01*
Y42994D01*
X136395D01*
Y42912D01*
Y42830D01*
Y42748D01*
X136312D01*
Y42665D01*
Y42583D01*
Y42501D01*
X136230D01*
Y42419D01*
Y42336D01*
Y42254D01*
X136148D01*
Y42172D01*
Y42090D01*
Y42007D01*
Y41925D01*
X136066D01*
Y41843D01*
Y41761D01*
Y41678D01*
X135984D01*
Y41596D01*
Y41514D01*
Y41431D01*
X135901D01*
Y41349D01*
Y41267D01*
Y41185D01*
X135819D01*
Y41102D01*
Y41020D01*
Y40938D01*
X135737D01*
Y40856D01*
Y40773D01*
Y40691D01*
Y40609D01*
X135654D01*
Y40527D01*
Y40444D01*
Y40362D01*
X135572D01*
Y40280D01*
Y40198D01*
Y40115D01*
X135490D01*
Y40033D01*
Y39951D01*
Y39869D01*
X135408D01*
Y39786D01*
Y39704D01*
Y39622D01*
Y39540D01*
X135326D01*
Y39457D01*
Y39375D01*
Y39293D01*
X135243D01*
Y39211D01*
Y39129D01*
Y39046D01*
X135161D01*
Y38964D01*
Y38882D01*
Y38800D01*
X135079D01*
Y38717D01*
Y38635D01*
Y38553D01*
X134996D01*
Y38471D01*
Y38388D01*
Y38306D01*
Y38224D01*
X134914D01*
Y38142D01*
Y38059D01*
Y37977D01*
X134832D01*
Y37895D01*
Y37813D01*
Y37730D01*
X134750D01*
Y37648D01*
Y37566D01*
Y37484D01*
X134668D01*
Y37401D01*
Y37319D01*
Y37237D01*
X134585D01*
Y37154D01*
Y37072D01*
Y36990D01*
Y36908D01*
X134503D01*
Y36825D01*
Y36743D01*
Y36661D01*
X134421D01*
Y36579D01*
Y36497D01*
Y36414D01*
X134338D01*
Y36332D01*
Y36250D01*
Y36167D01*
X134256D01*
Y36085D01*
Y36003D01*
Y35921D01*
Y35838D01*
X134174D01*
Y35756D01*
Y35674D01*
Y35592D01*
X134092D01*
Y35509D01*
Y35427D01*
Y35345D01*
X134010D01*
Y35263D01*
Y35181D01*
Y35098D01*
X133927D01*
Y35016D01*
Y34934D01*
Y34852D01*
X133845D01*
Y34769D01*
Y34687D01*
Y34605D01*
Y34523D01*
X133763D01*
Y34440D01*
Y34358D01*
Y34276D01*
X133680D01*
Y34194D01*
Y34111D01*
Y34029D01*
Y33947D01*
X128581D01*
Y34029D01*
X128663D01*
Y34111D01*
Y34194D01*
X128746D01*
Y34276D01*
Y34358D01*
Y34440D01*
X128828D01*
Y34523D01*
Y34605D01*
Y34687D01*
Y34769D01*
X128910D01*
Y34852D01*
Y34934D01*
Y35016D01*
X128992D01*
Y35098D01*
Y35181D01*
Y35263D01*
Y35345D01*
X129075D01*
Y35427D01*
Y35509D01*
Y35592D01*
X129157D01*
Y35674D01*
Y35756D01*
Y35838D01*
X129239D01*
Y35921D01*
Y36003D01*
Y36085D01*
Y36167D01*
X129321D01*
Y36250D01*
Y36332D01*
Y36414D01*
X129403D01*
Y36497D01*
Y36579D01*
Y36661D01*
X129486D01*
Y36743D01*
Y36825D01*
Y36908D01*
X129568D01*
Y36990D01*
Y37072D01*
Y37154D01*
Y37237D01*
X129650D01*
Y37319D01*
Y37401D01*
Y37484D01*
X129733D01*
Y37566D01*
Y37648D01*
Y37730D01*
Y37813D01*
X129815D01*
Y37895D01*
Y37977D01*
Y38059D01*
X129897D01*
Y38142D01*
Y38224D01*
Y38306D01*
X129979D01*
Y38388D01*
Y38471D01*
Y38553D01*
Y38635D01*
X130062D01*
Y38717D01*
Y38800D01*
Y38882D01*
X130144D01*
Y38964D01*
Y39046D01*
Y39129D01*
X130226D01*
Y39211D01*
Y39293D01*
Y39375D01*
Y39457D01*
X130308D01*
Y39540D01*
Y39622D01*
Y39704D01*
X130391D01*
Y39786D01*
Y39869D01*
Y39951D01*
X130473D01*
Y40033D01*
Y40115D01*
Y40198D01*
Y40280D01*
X130555D01*
Y40362D01*
Y40444D01*
Y40527D01*
X130637D01*
Y40609D01*
Y40691D01*
Y40773D01*
X130719D01*
Y40856D01*
Y40938D01*
Y41020D01*
Y41102D01*
X130802D01*
Y41185D01*
Y41267D01*
Y41349D01*
X130884D01*
Y41431D01*
Y41514D01*
Y41596D01*
X130966D01*
Y41678D01*
Y41761D01*
Y41843D01*
Y41925D01*
X131049D01*
Y42007D01*
Y42090D01*
Y42172D01*
X131131D01*
Y42254D01*
Y42336D01*
Y42419D01*
X131213D01*
Y42501D01*
Y42583D01*
Y42665D01*
Y42748D01*
X131295D01*
Y42830D01*
Y42912D01*
Y42994D01*
X131377D01*
Y43077D01*
Y43159D01*
Y43241D01*
X131460D01*
Y43323D01*
Y43406D01*
Y43488D01*
Y43570D01*
X131542D01*
Y43652D01*
Y43734D01*
Y43817D01*
X131624D01*
Y43899D01*
Y43981D01*
Y44063D01*
X131707D01*
Y44146D01*
Y44228D01*
Y44310D01*
Y44392D01*
X131789D01*
Y44475D01*
Y44557D01*
Y44639D01*
X131871D01*
Y44721D01*
Y44804D01*
Y44886D01*
X131953D01*
Y44968D01*
Y45050D01*
Y45133D01*
Y45215D01*
X132036D01*
Y45297D01*
Y45379D01*
Y45462D01*
X132118D01*
Y45544D01*
Y45626D01*
Y45709D01*
X132200D01*
Y45791D01*
Y45873D01*
Y45955D01*
Y46038D01*
X132282D01*
Y46120D01*
Y46202D01*
Y46284D01*
X132364D01*
Y46367D01*
Y46449D01*
Y46531D01*
X132447D01*
Y46613D01*
Y46696D01*
Y46778D01*
Y46860D01*
X132529D01*
Y46942D01*
Y47025D01*
Y47107D01*
X132611D01*
Y47189D01*
Y47271D01*
Y47354D01*
X132694D01*
Y47436D01*
Y47518D01*
Y47600D01*
Y47682D01*
X132776D01*
Y47765D01*
Y47847D01*
Y47929D01*
X132858D01*
Y48011D01*
Y48094D01*
Y48176D01*
X132940D01*
Y48258D01*
Y48340D01*
Y48423D01*
X139438D01*
Y48340D01*
Y48258D01*
X139520D01*
Y48176D01*
Y48094D01*
Y48011D01*
Y47929D01*
X139602D01*
Y47847D01*
Y47765D01*
Y47682D01*
Y47600D01*
X139685D01*
Y47518D01*
Y47436D01*
Y47354D01*
Y47271D01*
Y47189D01*
X139767D01*
Y47107D01*
Y47025D01*
Y46942D01*
Y46860D01*
X139849D01*
Y46778D01*
Y46696D01*
Y46613D01*
Y46531D01*
X139931D01*
Y46449D01*
Y46367D01*
Y46284D01*
Y46202D01*
X140014D01*
Y46120D01*
Y46038D01*
Y45955D01*
Y45873D01*
Y45791D01*
X140096D01*
Y45709D01*
Y45626D01*
Y45544D01*
Y45462D01*
X140178D01*
Y45379D01*
Y45297D01*
Y45215D01*
Y45133D01*
X140261D01*
Y45050D01*
Y44968D01*
Y44886D01*
Y44804D01*
Y44721D01*
X140343D01*
Y44639D01*
Y44557D01*
Y44475D01*
Y44392D01*
X140425D01*
Y44310D01*
Y44228D01*
Y44146D01*
Y44063D01*
X140507D01*
Y43981D01*
Y43899D01*
Y43817D01*
Y43734D01*
X140589D01*
Y43652D01*
Y43570D01*
Y43488D01*
Y43406D01*
Y43323D01*
X140672D01*
Y43241D01*
Y43159D01*
Y43077D01*
Y42994D01*
X140754D01*
Y42912D01*
Y42830D01*
Y42748D01*
Y42665D01*
X140836D01*
Y42583D01*
Y42501D01*
Y42419D01*
Y42336D01*
Y42254D01*
X140919D01*
Y42172D01*
Y42090D01*
Y42007D01*
Y41925D01*
X141001D01*
Y41843D01*
Y41761D01*
Y41678D01*
Y41596D01*
X141083D01*
Y41514D01*
Y41431D01*
Y41349D01*
Y41267D01*
X141165D01*
Y41185D01*
Y41102D01*
Y41020D01*
Y40938D01*
Y40856D01*
X141247D01*
Y40773D01*
Y40691D01*
Y40609D01*
Y40527D01*
X141330D01*
Y40444D01*
Y40362D01*
Y40280D01*
Y40198D01*
X141412D01*
Y40115D01*
Y40033D01*
Y39951D01*
Y39869D01*
Y39786D01*
X141494D01*
Y39704D01*
Y39622D01*
Y39540D01*
Y39457D01*
X141577D01*
Y39375D01*
Y39293D01*
Y39211D01*
Y39129D01*
Y39046D01*
X141741D01*
Y39129D01*
X141823D01*
Y39211D01*
Y39293D01*
X141905D01*
Y39375D01*
X141988D01*
Y39457D01*
Y39540D01*
X142070D01*
Y39622D01*
X142152D01*
Y39704D01*
Y39786D01*
X142235D01*
Y39869D01*
X142317D01*
Y39951D01*
X142399D01*
Y40033D01*
Y40115D01*
X142481D01*
Y40198D01*
X142563D01*
Y40280D01*
Y40362D01*
X142646D01*
Y40444D01*
X142728D01*
Y40527D01*
Y40609D01*
X142810D01*
Y40691D01*
X142893D01*
Y40773D01*
X142975D01*
Y40856D01*
Y40938D01*
X143057D01*
Y41020D01*
X143139D01*
Y41102D01*
Y41185D01*
X143221D01*
Y41267D01*
X143304D01*
Y41349D01*
Y41431D01*
X143386D01*
Y41514D01*
X143468D01*
Y41596D01*
X143551D01*
Y41678D01*
Y41761D01*
X143633D01*
Y41843D01*
X143715D01*
Y41925D01*
Y42007D01*
X143797D01*
Y42090D01*
X143879D01*
Y42172D01*
Y42254D01*
X143962D01*
Y42336D01*
X144044D01*
Y42419D01*
X144126D01*
Y42501D01*
Y42583D01*
X144209D01*
Y42665D01*
X144291D01*
Y42748D01*
Y42830D01*
X144373D01*
Y42912D01*
X144455D01*
Y42994D01*
Y43077D01*
X144537D01*
Y43159D01*
X144620D01*
Y43241D01*
X144702D01*
Y43323D01*
Y43406D01*
X144784D01*
Y43488D01*
X144867D01*
Y43570D01*
Y43652D01*
X144949D01*
Y43734D01*
X145031D01*
Y43817D01*
Y43899D01*
X145113D01*
Y43981D01*
X145195D01*
Y44063D01*
X145278D01*
Y44146D01*
Y44228D01*
X145360D01*
Y44310D01*
X145442D01*
Y44392D01*
Y44475D01*
X145525D01*
Y44557D01*
X145607D01*
Y44639D01*
Y44721D01*
X145689D01*
Y44804D01*
X145771D01*
Y44886D01*
X145853D01*
Y44968D01*
Y45050D01*
X145936D01*
Y45133D01*
X146018D01*
Y45215D01*
Y45297D01*
X146100D01*
Y45379D01*
X146183D01*
Y45462D01*
Y45544D01*
X146265D01*
Y45626D01*
X146347D01*
Y45709D01*
X146429D01*
Y45791D01*
Y45873D01*
X146511D01*
Y45955D01*
X146594D01*
Y46038D01*
Y46120D01*
X146676D01*
Y46202D01*
X146758D01*
Y46284D01*
Y46367D01*
X146841D01*
Y46449D01*
X146923D01*
Y46531D01*
X147005D01*
Y46613D01*
Y46696D01*
X147087D01*
Y46778D01*
X147169D01*
Y46860D01*
Y46942D01*
X147252D01*
Y47025D01*
X147334D01*
Y47107D01*
Y47189D01*
X147416D01*
Y47271D01*
X147499D01*
Y47354D01*
X147581D01*
Y47436D01*
Y47518D01*
X147663D01*
Y47600D01*
X147745D01*
Y47682D01*
Y47765D01*
X147827D01*
Y47847D01*
X147910D01*
Y47929D01*
Y48011D01*
X147992D01*
Y48094D01*
X148074D01*
Y48176D01*
X148156D01*
Y48258D01*
Y48340D01*
X148239D01*
Y48423D01*
X149637D01*
Y48340D01*
D02*
G37*
G36*
X195944D02*
X196684D01*
Y48258D01*
X197177D01*
Y48176D01*
X197506D01*
Y48094D01*
X197835D01*
Y48011D01*
X198082D01*
Y47929D01*
X198329D01*
Y47847D01*
X198576D01*
Y47765D01*
X198740D01*
Y47682D01*
X198987D01*
Y47600D01*
X199151D01*
Y47518D01*
X199316D01*
Y47436D01*
X199398D01*
Y47354D01*
X199563D01*
Y47271D01*
X199727D01*
Y47189D01*
X199809D01*
Y47107D01*
X199892D01*
Y47025D01*
X200056D01*
Y46942D01*
X200138D01*
Y46860D01*
X200220D01*
Y46778D01*
X200303D01*
Y46696D01*
X200385D01*
Y46613D01*
X200467D01*
Y46531D01*
X200550D01*
Y46449D01*
X200632D01*
Y46367D01*
X200714D01*
Y46284D01*
X200796D01*
Y46202D01*
Y46120D01*
X200879D01*
Y46038D01*
X200961D01*
Y45955D01*
Y45873D01*
X201043D01*
Y45791D01*
Y45709D01*
X201125D01*
Y45626D01*
Y45544D01*
X201207D01*
Y45462D01*
Y45379D01*
X201290D01*
Y45297D01*
Y45215D01*
Y45133D01*
Y45050D01*
X201372D01*
Y44968D01*
Y44886D01*
Y44804D01*
Y44721D01*
Y44639D01*
Y44557D01*
X201454D01*
Y44475D01*
Y44392D01*
Y44310D01*
Y44228D01*
Y44146D01*
Y44063D01*
Y43981D01*
X201372D01*
Y43899D01*
Y43817D01*
Y43734D01*
Y43652D01*
Y43570D01*
Y43488D01*
Y43406D01*
X201290D01*
Y43323D01*
Y43241D01*
Y43159D01*
Y43077D01*
X201207D01*
Y42994D01*
Y42912D01*
Y42830D01*
X201125D01*
Y42748D01*
Y42665D01*
X201043D01*
Y42583D01*
Y42501D01*
Y42419D01*
X200961D01*
Y42336D01*
Y42254D01*
X200879D01*
Y42172D01*
X200796D01*
Y42090D01*
Y42007D01*
X200714D01*
Y41925D01*
Y41843D01*
X200632D01*
Y41761D01*
X200550D01*
Y41678D01*
X200467D01*
Y41596D01*
Y41514D01*
X200385D01*
Y41431D01*
X200303D01*
Y41349D01*
X200220D01*
Y41267D01*
X200138D01*
Y41185D01*
X200056D01*
Y41102D01*
X199974D01*
Y41020D01*
X199892D01*
Y40938D01*
X199809D01*
Y40856D01*
X199727D01*
Y40773D01*
X199645D01*
Y40691D01*
X199480D01*
Y40609D01*
X199398D01*
Y40527D01*
X199316D01*
Y40444D01*
X199151D01*
Y40362D01*
X199069D01*
Y40280D01*
X198905D01*
Y40198D01*
X198740D01*
Y40115D01*
X198658D01*
Y40033D01*
X198493D01*
Y39951D01*
X198329D01*
Y39869D01*
X198164D01*
Y39786D01*
X198000D01*
Y39704D01*
X197835D01*
Y39622D01*
X197589D01*
Y39540D01*
X197424D01*
Y39457D01*
X197177D01*
Y39375D01*
X196931D01*
Y39293D01*
X196684D01*
Y39211D01*
X196355D01*
Y39129D01*
Y39046D01*
Y38964D01*
X196437D01*
Y38882D01*
Y38800D01*
X196519D01*
Y38717D01*
Y38635D01*
X196602D01*
Y38553D01*
X196684D01*
Y38471D01*
Y38388D01*
X196766D01*
Y38306D01*
Y38224D01*
X196848D01*
Y38142D01*
Y38059D01*
X196931D01*
Y37977D01*
Y37895D01*
X197013D01*
Y37813D01*
X197095D01*
Y37730D01*
Y37648D01*
X197177D01*
Y37566D01*
Y37484D01*
X197260D01*
Y37401D01*
Y37319D01*
X197342D01*
Y37237D01*
X197424D01*
Y37154D01*
Y37072D01*
X197506D01*
Y36990D01*
Y36908D01*
X197589D01*
Y36825D01*
Y36743D01*
X197671D01*
Y36661D01*
Y36579D01*
X197753D01*
Y36497D01*
X197835D01*
Y36414D01*
Y36332D01*
X197918D01*
Y36250D01*
Y36167D01*
X198000D01*
Y36085D01*
Y36003D01*
X198082D01*
Y35921D01*
X198164D01*
Y35838D01*
Y35756D01*
X198247D01*
Y35674D01*
Y35592D01*
X198329D01*
Y35509D01*
Y35427D01*
X198411D01*
Y35345D01*
Y35263D01*
X198493D01*
Y35181D01*
X198576D01*
Y35098D01*
Y35016D01*
X198658D01*
Y34934D01*
Y34852D01*
X198740D01*
Y34769D01*
Y34687D01*
X198822D01*
Y34605D01*
Y34523D01*
X198905D01*
Y34440D01*
X198987D01*
Y34358D01*
Y34276D01*
X199069D01*
Y34194D01*
Y34111D01*
X199151D01*
Y34029D01*
X199233D01*
Y33947D01*
X192736D01*
Y34029D01*
Y34111D01*
X192654D01*
Y34194D01*
Y34276D01*
X192571D01*
Y34358D01*
Y34440D01*
X192489D01*
Y34523D01*
Y34605D01*
X192407D01*
Y34687D01*
Y34769D01*
X192325D01*
Y34852D01*
Y34934D01*
Y35016D01*
X192242D01*
Y35098D01*
Y35181D01*
X192160D01*
Y35263D01*
Y35345D01*
X192078D01*
Y35427D01*
Y35509D01*
X191996D01*
Y35592D01*
Y35674D01*
X191913D01*
Y35756D01*
Y35838D01*
X191831D01*
Y35921D01*
Y36003D01*
X191749D01*
Y36085D01*
Y36167D01*
Y36250D01*
X191667D01*
Y36332D01*
Y36414D01*
X191584D01*
Y36497D01*
Y36579D01*
X191502D01*
Y36661D01*
Y36743D01*
X191420D01*
Y36825D01*
Y36908D01*
X191338D01*
Y36990D01*
Y37072D01*
X191255D01*
Y37154D01*
Y37237D01*
X191173D01*
Y37319D01*
Y37401D01*
Y37484D01*
X191091D01*
Y37566D01*
Y37648D01*
X191009D01*
Y37730D01*
Y37813D01*
X190926D01*
Y37895D01*
Y37977D01*
X190844D01*
Y38059D01*
Y38142D01*
X190762D01*
Y38224D01*
Y38306D01*
X190680D01*
Y38388D01*
Y38471D01*
X190597D01*
Y38553D01*
Y38635D01*
X188294D01*
Y38553D01*
Y38471D01*
X188212D01*
Y38388D01*
Y38306D01*
Y38224D01*
Y38142D01*
X188130D01*
Y38059D01*
Y37977D01*
Y37895D01*
X188048D01*
Y37813D01*
Y37730D01*
Y37648D01*
X187965D01*
Y37566D01*
Y37484D01*
Y37401D01*
X187883D01*
Y37319D01*
Y37237D01*
Y37154D01*
X187801D01*
Y37072D01*
Y36990D01*
Y36908D01*
Y36825D01*
X187719D01*
Y36743D01*
Y36661D01*
Y36579D01*
X187636D01*
Y36497D01*
Y36414D01*
Y36332D01*
X187554D01*
Y36250D01*
Y36167D01*
Y36085D01*
X187472D01*
Y36003D01*
Y35921D01*
Y35838D01*
Y35756D01*
X187390D01*
Y35674D01*
Y35592D01*
Y35509D01*
X187307D01*
Y35427D01*
Y35345D01*
Y35263D01*
X187225D01*
Y35181D01*
Y35098D01*
Y35016D01*
X187143D01*
Y34934D01*
Y34852D01*
Y34769D01*
X187061D01*
Y34687D01*
Y34605D01*
Y34523D01*
Y34440D01*
X186978D01*
Y34358D01*
Y34276D01*
Y34194D01*
X186896D01*
Y34111D01*
Y34029D01*
Y33947D01*
X181139D01*
Y34029D01*
Y34111D01*
X181221D01*
Y34194D01*
Y34276D01*
Y34358D01*
X181303D01*
Y34440D01*
Y34523D01*
Y34605D01*
X181385D01*
Y34687D01*
Y34769D01*
Y34852D01*
Y34934D01*
X181468D01*
Y35016D01*
Y35098D01*
Y35181D01*
X181550D01*
Y35263D01*
Y35345D01*
Y35427D01*
X181632D01*
Y35509D01*
Y35592D01*
Y35674D01*
Y35756D01*
X181714D01*
Y35838D01*
Y35921D01*
Y36003D01*
X181797D01*
Y36085D01*
Y36167D01*
Y36250D01*
X181879D01*
Y36332D01*
Y36414D01*
Y36497D01*
Y36579D01*
X181961D01*
Y36661D01*
Y36743D01*
Y36825D01*
X182043D01*
Y36908D01*
Y36990D01*
Y37072D01*
X182126D01*
Y37154D01*
Y37237D01*
Y37319D01*
Y37401D01*
X182208D01*
Y37484D01*
Y37566D01*
Y37648D01*
X182290D01*
Y37730D01*
Y37813D01*
Y37895D01*
X182372D01*
Y37977D01*
Y38059D01*
Y38142D01*
Y38224D01*
X182455D01*
Y38306D01*
Y38388D01*
Y38471D01*
X182537D01*
Y38553D01*
Y38635D01*
Y38717D01*
X182619D01*
Y38800D01*
Y38882D01*
Y38964D01*
Y39046D01*
X182701D01*
Y39129D01*
Y39211D01*
Y39293D01*
X182784D01*
Y39375D01*
Y39457D01*
Y39540D01*
Y39622D01*
X182866D01*
Y39704D01*
Y39786D01*
Y39869D01*
X182948D01*
Y39951D01*
Y40033D01*
Y40115D01*
X183030D01*
Y40198D01*
Y40280D01*
Y40362D01*
X183113D01*
Y40444D01*
Y40527D01*
Y40609D01*
Y40691D01*
X183195D01*
Y40773D01*
Y40856D01*
Y40938D01*
X183277D01*
Y41020D01*
Y41102D01*
Y41185D01*
X183359D01*
Y41267D01*
Y41349D01*
Y41431D01*
Y41514D01*
X183442D01*
Y41596D01*
Y41678D01*
Y41761D01*
X183524D01*
Y41843D01*
Y41925D01*
Y42007D01*
Y42090D01*
X183606D01*
Y42172D01*
Y42254D01*
Y42336D01*
X183688D01*
Y42419D01*
Y42501D01*
Y42583D01*
X183771D01*
Y42665D01*
Y42748D01*
Y42830D01*
X183853D01*
Y42912D01*
Y42994D01*
Y43077D01*
Y43159D01*
X183935D01*
Y43241D01*
Y43323D01*
Y43406D01*
X184017D01*
Y43488D01*
Y43570D01*
Y43652D01*
X184100D01*
Y43734D01*
Y43817D01*
Y43899D01*
Y43981D01*
X184182D01*
Y44063D01*
Y44146D01*
Y44228D01*
X184264D01*
Y44310D01*
Y44392D01*
Y44475D01*
X184346D01*
Y44557D01*
Y44639D01*
Y44721D01*
Y44804D01*
X184429D01*
Y44886D01*
Y44968D01*
Y45050D01*
X184511D01*
Y45133D01*
Y45215D01*
Y45297D01*
Y45379D01*
X184593D01*
Y45462D01*
Y45544D01*
Y45626D01*
X184675D01*
Y45709D01*
Y45791D01*
Y45873D01*
X184758D01*
Y45955D01*
Y46038D01*
Y46120D01*
X184840D01*
Y46202D01*
Y46284D01*
Y46367D01*
Y46449D01*
X184922D01*
Y46531D01*
Y46613D01*
Y46696D01*
X185004D01*
Y46778D01*
Y46860D01*
Y46942D01*
X185087D01*
Y47025D01*
Y47107D01*
Y47189D01*
Y47271D01*
X185169D01*
Y47354D01*
Y47436D01*
Y47518D01*
X185251D01*
Y47600D01*
Y47682D01*
Y47765D01*
Y47847D01*
X185333D01*
Y47929D01*
Y48011D01*
Y48094D01*
X185416D01*
Y48176D01*
Y48258D01*
Y48340D01*
Y48423D01*
X195944D01*
Y48340D01*
D02*
G37*
G36*
X163455D02*
Y48258D01*
Y48176D01*
X163373D01*
Y48094D01*
Y48011D01*
Y47929D01*
X163290D01*
Y47847D01*
Y47765D01*
Y47682D01*
Y47600D01*
X163208D01*
Y47518D01*
Y47436D01*
Y47354D01*
X163126D01*
Y47271D01*
Y47189D01*
Y47107D01*
X163044D01*
Y47025D01*
Y46942D01*
Y46860D01*
X162961D01*
Y46778D01*
Y46696D01*
Y46613D01*
Y46531D01*
X162879D01*
Y46449D01*
Y46367D01*
Y46284D01*
X162797D01*
Y46202D01*
Y46120D01*
Y46038D01*
X162715D01*
Y45955D01*
Y45873D01*
Y45791D01*
Y45709D01*
X162632D01*
Y45626D01*
Y45544D01*
Y45462D01*
X162550D01*
Y45379D01*
Y45297D01*
Y45215D01*
Y45133D01*
X162468D01*
Y45050D01*
Y44968D01*
Y44886D01*
X162386D01*
Y44804D01*
Y44721D01*
Y44639D01*
X162303D01*
Y44557D01*
Y44475D01*
Y44392D01*
X162221D01*
Y44310D01*
Y44228D01*
Y44146D01*
Y44063D01*
X162139D01*
Y43981D01*
Y43899D01*
Y43817D01*
X162057D01*
Y43734D01*
Y43652D01*
Y43570D01*
X161974D01*
Y43488D01*
Y43406D01*
Y43323D01*
Y43241D01*
X161892D01*
Y43159D01*
Y43077D01*
Y42994D01*
X161810D01*
Y42912D01*
Y42830D01*
Y42748D01*
X161728D01*
Y42665D01*
Y42583D01*
Y42501D01*
Y42419D01*
X161645D01*
Y42336D01*
Y42254D01*
Y42172D01*
X161563D01*
Y42090D01*
Y42007D01*
Y41925D01*
Y41843D01*
X161481D01*
Y41761D01*
Y41678D01*
Y41596D01*
X161399D01*
Y41514D01*
Y41431D01*
Y41349D01*
X161317D01*
Y41267D01*
Y41185D01*
Y41102D01*
X161234D01*
Y41020D01*
Y40938D01*
Y40856D01*
Y40773D01*
X161152D01*
Y40691D01*
Y40609D01*
Y40527D01*
X161070D01*
Y40444D01*
Y40362D01*
Y40280D01*
X160987D01*
Y40198D01*
Y40115D01*
Y40033D01*
Y39951D01*
X160905D01*
Y39869D01*
Y39786D01*
Y39704D01*
X160823D01*
Y39622D01*
Y39540D01*
Y39457D01*
Y39375D01*
X160741D01*
Y39293D01*
Y39211D01*
Y39129D01*
X160658D01*
Y39046D01*
Y38964D01*
Y38882D01*
X160576D01*
Y38800D01*
Y38717D01*
Y38635D01*
X160494D01*
Y38553D01*
Y38471D01*
Y38388D01*
Y38306D01*
X160412D01*
Y38224D01*
Y38142D01*
Y38059D01*
X160329D01*
Y37977D01*
Y37895D01*
Y37813D01*
X160247D01*
Y37730D01*
Y37648D01*
Y37566D01*
Y37484D01*
X160165D01*
Y37401D01*
Y37319D01*
Y37237D01*
X160083D01*
Y37154D01*
Y37072D01*
Y36990D01*
Y36908D01*
X160001D01*
Y36825D01*
Y36743D01*
Y36661D01*
X159918D01*
Y36579D01*
Y36497D01*
Y36414D01*
X159836D01*
Y36332D01*
Y36250D01*
Y36167D01*
Y36085D01*
X159754D01*
Y36003D01*
Y35921D01*
Y35838D01*
X159671D01*
Y35756D01*
Y35674D01*
Y35592D01*
X159589D01*
Y35509D01*
Y35427D01*
Y35345D01*
X159507D01*
Y35263D01*
Y35181D01*
Y35098D01*
Y35016D01*
X159425D01*
Y34934D01*
Y34852D01*
Y34769D01*
X159343D01*
Y34687D01*
Y34605D01*
Y34523D01*
Y34440D01*
X159260D01*
Y34358D01*
Y34276D01*
Y34194D01*
X159178D01*
Y34111D01*
Y34029D01*
Y33947D01*
X153420D01*
Y34029D01*
Y34111D01*
X153503D01*
Y34194D01*
Y34276D01*
Y34358D01*
X153585D01*
Y34440D01*
Y34523D01*
Y34605D01*
X153667D01*
Y34687D01*
Y34769D01*
Y34852D01*
Y34934D01*
X153750D01*
Y35016D01*
Y35098D01*
Y35181D01*
X153832D01*
Y35263D01*
Y35345D01*
Y35427D01*
X153914D01*
Y35509D01*
Y35592D01*
Y35674D01*
Y35756D01*
X153996D01*
Y35838D01*
Y35921D01*
Y36003D01*
X154078D01*
Y36085D01*
Y36167D01*
Y36250D01*
X154161D01*
Y36332D01*
Y36414D01*
Y36497D01*
Y36579D01*
X154243D01*
Y36661D01*
Y36743D01*
Y36825D01*
X154325D01*
Y36908D01*
Y36990D01*
Y37072D01*
X154408D01*
Y37154D01*
Y37237D01*
Y37319D01*
Y37401D01*
X154490D01*
Y37484D01*
Y37566D01*
Y37648D01*
X154572D01*
Y37730D01*
Y37813D01*
Y37895D01*
X154654D01*
Y37977D01*
Y38059D01*
Y38142D01*
Y38224D01*
X154736D01*
Y38306D01*
Y38388D01*
Y38471D01*
X154819D01*
Y38553D01*
Y38635D01*
Y38717D01*
X154901D01*
Y38800D01*
Y38882D01*
Y38964D01*
Y39046D01*
X154983D01*
Y39129D01*
Y39211D01*
Y39293D01*
X155066D01*
Y39375D01*
Y39457D01*
Y39540D01*
X155148D01*
Y39622D01*
Y39704D01*
Y39786D01*
Y39869D01*
X155230D01*
Y39951D01*
Y40033D01*
Y40115D01*
X155312D01*
Y40198D01*
Y40280D01*
Y40362D01*
X155394D01*
Y40444D01*
Y40527D01*
Y40609D01*
Y40691D01*
X155477D01*
Y40773D01*
Y40856D01*
Y40938D01*
X155559D01*
Y41020D01*
Y41102D01*
Y41185D01*
X155641D01*
Y41267D01*
Y41349D01*
Y41431D01*
Y41514D01*
X155724D01*
Y41596D01*
Y41678D01*
Y41761D01*
X155806D01*
Y41843D01*
Y41925D01*
Y42007D01*
X155888D01*
Y42090D01*
Y42172D01*
Y42254D01*
Y42336D01*
X155970D01*
Y42419D01*
Y42501D01*
Y42583D01*
X156052D01*
Y42665D01*
Y42748D01*
Y42830D01*
X156135D01*
Y42912D01*
Y42994D01*
Y43077D01*
Y43159D01*
X156217D01*
Y43241D01*
Y43323D01*
Y43406D01*
X156299D01*
Y43488D01*
Y43570D01*
Y43652D01*
X156381D01*
Y43734D01*
Y43817D01*
Y43899D01*
Y43981D01*
X156464D01*
Y44063D01*
Y44146D01*
Y44228D01*
X156546D01*
Y44310D01*
Y44392D01*
Y44475D01*
X156628D01*
Y44557D01*
Y44639D01*
Y44721D01*
Y44804D01*
X156710D01*
Y44886D01*
Y44968D01*
Y45050D01*
X156793D01*
Y45133D01*
Y45215D01*
Y45297D01*
X156875D01*
Y45379D01*
Y45462D01*
Y45544D01*
Y45626D01*
X156957D01*
Y45709D01*
Y45791D01*
Y45873D01*
X157039D01*
Y45955D01*
Y46038D01*
Y46120D01*
X157122D01*
Y46202D01*
Y46284D01*
Y46367D01*
Y46449D01*
X157204D01*
Y46531D01*
Y46613D01*
Y46696D01*
X157286D01*
Y46778D01*
Y46860D01*
Y46942D01*
X157369D01*
Y47025D01*
Y47107D01*
Y47189D01*
Y47271D01*
X157451D01*
Y47354D01*
Y47436D01*
Y47518D01*
X157533D01*
Y47600D01*
Y47682D01*
Y47765D01*
X157615D01*
Y47847D01*
Y47929D01*
Y48011D01*
Y48094D01*
X157697D01*
Y48176D01*
Y48258D01*
Y48340D01*
Y48423D01*
X163455D01*
Y48340D01*
D02*
G37*
G36*
X155477D02*
X155394D01*
Y48258D01*
Y48176D01*
Y48094D01*
X155312D01*
Y48011D01*
Y47929D01*
Y47847D01*
Y47765D01*
X155230D01*
Y47682D01*
Y47600D01*
Y47518D01*
X155148D01*
Y47436D01*
Y47354D01*
Y47271D01*
X155066D01*
Y47189D01*
Y47107D01*
Y47025D01*
Y46942D01*
X154983D01*
Y46860D01*
Y46778D01*
Y46696D01*
X154901D01*
Y46613D01*
Y46531D01*
Y46449D01*
X154819D01*
Y46367D01*
Y46284D01*
Y46202D01*
Y46120D01*
X154736D01*
Y46038D01*
Y45955D01*
Y45873D01*
X154654D01*
Y45791D01*
Y45709D01*
Y45626D01*
X154572D01*
Y45544D01*
Y45462D01*
Y45379D01*
Y45297D01*
X154490D01*
Y45215D01*
Y45133D01*
Y45050D01*
X154408D01*
Y44968D01*
Y44886D01*
Y44804D01*
X154325D01*
Y44721D01*
Y44639D01*
Y44557D01*
Y44475D01*
X154243D01*
Y44392D01*
Y44310D01*
Y44228D01*
X154161D01*
Y44146D01*
Y44063D01*
Y43981D01*
X154078D01*
Y43899D01*
Y43817D01*
Y43734D01*
Y43652D01*
X153996D01*
Y43570D01*
Y43488D01*
Y43406D01*
X153914D01*
Y43323D01*
Y43241D01*
Y43159D01*
X153832D01*
Y43077D01*
Y42994D01*
Y42912D01*
Y42830D01*
X153750D01*
Y42748D01*
Y42665D01*
Y42583D01*
X153667D01*
Y42501D01*
Y42419D01*
Y42336D01*
X153585D01*
Y42254D01*
Y42172D01*
Y42090D01*
Y42007D01*
X153503D01*
Y41925D01*
Y41843D01*
Y41761D01*
X153420D01*
Y41678D01*
Y41596D01*
Y41514D01*
X153338D01*
Y41431D01*
Y41349D01*
Y41267D01*
Y41185D01*
X153256D01*
Y41102D01*
Y41020D01*
Y40938D01*
X153174D01*
Y40856D01*
Y40773D01*
Y40691D01*
X153092D01*
Y40609D01*
Y40527D01*
Y40444D01*
Y40362D01*
X153009D01*
Y40280D01*
Y40198D01*
Y40115D01*
X152927D01*
Y40033D01*
Y39951D01*
Y39869D01*
X152845D01*
Y39786D01*
Y39704D01*
Y39622D01*
Y39540D01*
X152762D01*
Y39457D01*
Y39375D01*
Y39293D01*
X152680D01*
Y39211D01*
Y39129D01*
Y39046D01*
X152598D01*
Y38964D01*
Y38882D01*
Y38800D01*
Y38717D01*
X152516D01*
Y38635D01*
Y38553D01*
Y38471D01*
X152434D01*
Y38388D01*
Y38306D01*
Y38224D01*
X152351D01*
Y38142D01*
Y38059D01*
Y37977D01*
Y37895D01*
X152269D01*
Y37813D01*
Y37730D01*
Y37648D01*
X152187D01*
Y37566D01*
Y37484D01*
Y37401D01*
X152104D01*
Y37319D01*
Y37237D01*
Y37154D01*
Y37072D01*
X152022D01*
Y36990D01*
Y36908D01*
Y36825D01*
X151940D01*
Y36743D01*
Y36661D01*
Y36579D01*
X151858D01*
Y36497D01*
Y36414D01*
Y36332D01*
Y36250D01*
X151776D01*
Y36167D01*
Y36085D01*
Y36003D01*
X151693D01*
Y35921D01*
Y35838D01*
Y35756D01*
X151611D01*
Y35674D01*
Y35592D01*
Y35509D01*
Y35427D01*
X151529D01*
Y35345D01*
Y35263D01*
Y35181D01*
X151446D01*
Y35098D01*
Y35016D01*
Y34934D01*
X151364D01*
Y34852D01*
Y34769D01*
Y34687D01*
Y34605D01*
X151282D01*
Y34523D01*
Y34440D01*
Y34358D01*
X151200D01*
Y34276D01*
Y34194D01*
Y34111D01*
X151118D01*
Y34029D01*
Y33947D01*
X146100D01*
Y34029D01*
X146183D01*
Y34111D01*
Y34194D01*
Y34276D01*
X146265D01*
Y34358D01*
Y34440D01*
Y34523D01*
X146347D01*
Y34605D01*
Y34687D01*
Y34769D01*
Y34852D01*
X146429D01*
Y34934D01*
Y35016D01*
Y35098D01*
X146511D01*
Y35181D01*
Y35263D01*
Y35345D01*
X146594D01*
Y35427D01*
Y35509D01*
Y35592D01*
Y35674D01*
X146676D01*
Y35756D01*
Y35838D01*
Y35921D01*
X146758D01*
Y36003D01*
Y36085D01*
Y36167D01*
X146841D01*
Y36250D01*
Y36332D01*
Y36414D01*
X146923D01*
Y36497D01*
Y36579D01*
Y36661D01*
Y36743D01*
X147005D01*
Y36825D01*
Y36908D01*
Y36990D01*
X147087D01*
Y37072D01*
Y37154D01*
Y37237D01*
Y37319D01*
X147169D01*
Y37401D01*
Y37484D01*
Y37566D01*
X147252D01*
Y37648D01*
Y37730D01*
Y37813D01*
X147334D01*
Y37895D01*
Y37977D01*
Y38059D01*
Y38142D01*
X147416D01*
Y38224D01*
Y38306D01*
Y38388D01*
X147499D01*
Y38471D01*
Y38553D01*
Y38635D01*
X147581D01*
Y38717D01*
Y38800D01*
Y38882D01*
Y38964D01*
X147663D01*
Y39046D01*
Y39129D01*
Y39211D01*
X147745D01*
Y39293D01*
Y39375D01*
Y39457D01*
X147827D01*
Y39540D01*
Y39622D01*
Y39704D01*
Y39786D01*
X147910D01*
Y39869D01*
Y39951D01*
Y40033D01*
X147992D01*
Y40115D01*
Y40198D01*
Y40280D01*
X148074D01*
Y40362D01*
Y40444D01*
Y40527D01*
Y40609D01*
X148156D01*
Y40691D01*
Y40773D01*
Y40856D01*
X148239D01*
Y40938D01*
Y41020D01*
Y41102D01*
X148321D01*
Y41185D01*
Y41267D01*
Y41349D01*
Y41431D01*
X148403D01*
Y41514D01*
Y41596D01*
Y41678D01*
X148486D01*
Y41761D01*
Y41843D01*
Y41925D01*
X148568D01*
Y42007D01*
Y42090D01*
Y42172D01*
Y42254D01*
X148650D01*
Y42336D01*
Y42419D01*
Y42501D01*
X148732D01*
Y42583D01*
Y42665D01*
Y42748D01*
X148814D01*
Y42830D01*
Y42912D01*
Y42994D01*
Y43077D01*
X148897D01*
Y43159D01*
Y43241D01*
Y43323D01*
X148979D01*
Y43406D01*
Y43488D01*
Y43570D01*
X149061D01*
Y43652D01*
Y43734D01*
Y43817D01*
Y43899D01*
X149144D01*
Y43981D01*
Y44063D01*
Y44146D01*
X149226D01*
Y44228D01*
Y44310D01*
Y44392D01*
X149308D01*
Y44475D01*
Y44557D01*
Y44639D01*
Y44721D01*
X149390D01*
Y44804D01*
Y44886D01*
Y44968D01*
X149472D01*
Y45050D01*
Y45133D01*
Y45215D01*
X149555D01*
Y45297D01*
Y45379D01*
Y45462D01*
Y45544D01*
X149637D01*
Y45626D01*
Y45709D01*
Y45791D01*
X149719D01*
Y45873D01*
Y45955D01*
Y46038D01*
X149802D01*
Y46120D01*
Y46202D01*
Y46284D01*
Y46367D01*
X149884D01*
Y46449D01*
Y46531D01*
Y46613D01*
X149966D01*
Y46696D01*
Y46778D01*
Y46860D01*
X150048D01*
Y46942D01*
Y47025D01*
Y47107D01*
Y47189D01*
X150130D01*
Y47271D01*
Y47354D01*
Y47436D01*
X150213D01*
Y47518D01*
Y47600D01*
Y47682D01*
X150295D01*
Y47765D01*
Y47847D01*
Y47929D01*
Y48011D01*
X150377D01*
Y48094D01*
Y48176D01*
Y48258D01*
X150460D01*
Y48340D01*
Y48423D01*
X155477D01*
Y48340D01*
D02*
G37*
%LPC*%
G36*
X193394Y44886D02*
X189775D01*
Y44804D01*
Y44721D01*
X189693D01*
Y44639D01*
Y44557D01*
Y44475D01*
Y44392D01*
Y44310D01*
Y44228D01*
Y44146D01*
X189610D01*
Y44063D01*
Y43981D01*
Y43899D01*
Y43817D01*
Y43734D01*
X189528D01*
Y43652D01*
Y43570D01*
Y43488D01*
Y43406D01*
Y43323D01*
Y43241D01*
Y43159D01*
X189446D01*
Y43077D01*
Y42994D01*
Y42912D01*
Y42830D01*
Y42748D01*
X189364D01*
Y42665D01*
Y42583D01*
Y42501D01*
Y42419D01*
Y42336D01*
Y42254D01*
X189281D01*
Y42172D01*
Y42090D01*
Y42007D01*
Y41925D01*
Y41843D01*
Y41761D01*
Y41678D01*
X189199D01*
Y41596D01*
Y41514D01*
Y41431D01*
Y41349D01*
Y41267D01*
X189117D01*
Y41185D01*
Y41102D01*
Y41020D01*
Y40938D01*
Y40856D01*
Y40773D01*
Y40691D01*
X189035D01*
Y40609D01*
Y40527D01*
Y40444D01*
Y40362D01*
X192078D01*
Y40444D01*
X192736D01*
Y40527D01*
X193065D01*
Y40609D01*
X193312D01*
Y40691D01*
X193476D01*
Y40773D01*
X193641D01*
Y40856D01*
X193805D01*
Y40938D01*
X193887D01*
Y41020D01*
X194052D01*
Y41102D01*
X194134D01*
Y41185D01*
X194216D01*
Y41267D01*
X194299D01*
Y41349D01*
X194381D01*
Y41431D01*
X194463D01*
Y41514D01*
X194545D01*
Y41596D01*
Y41678D01*
X194628D01*
Y41761D01*
Y41843D01*
X194710D01*
Y41925D01*
X194792D01*
Y42007D01*
Y42090D01*
Y42172D01*
X194874D01*
Y42254D01*
Y42336D01*
Y42419D01*
X194957D01*
Y42501D01*
Y42583D01*
Y42665D01*
Y42748D01*
Y42830D01*
Y42912D01*
Y42994D01*
Y43077D01*
Y43159D01*
Y43241D01*
Y43323D01*
Y43406D01*
Y43488D01*
Y43570D01*
X194874D01*
Y43652D01*
Y43734D01*
Y43817D01*
X194792D01*
Y43899D01*
Y43981D01*
Y44063D01*
X194710D01*
Y44146D01*
X194628D01*
Y44228D01*
Y44310D01*
X194545D01*
Y44392D01*
X194463D01*
Y44475D01*
X194299D01*
Y44557D01*
X194216D01*
Y44639D01*
X194052D01*
Y44721D01*
X193805D01*
Y44804D01*
X193394D01*
Y44886D01*
D02*
G37*
%LPD*%
D10*
X71063Y42717D02*
G03*
X71063Y42717I-1181J0D01*
G01*
X257733Y47776D02*
G03*
X257733Y47776I-1181J0D01*
G01*
X153347Y134843D02*
G03*
X153347Y134843I-1181J0D01*
G01*
X226626Y17456D02*
G03*
X226626Y17456I-1181J0D01*
G01*
D11*
X78839Y39370D02*
G03*
X78839Y39370I-492J0D01*
G01*
X86910Y-72441D02*
G03*
X86910Y-72441I-492J0D01*
G01*
X242421Y67540D02*
G03*
X242421Y67540I-492J0D01*
G01*
X25591Y192283D02*
G03*
X25591Y192283I-394J0D01*
G01*
X346043Y87500D02*
G03*
X346043Y87500I-492J0D01*
G01*
X247161Y46244D02*
G03*
X247161Y46244I-492J0D01*
G01*
X163976Y203150D02*
G03*
X163976Y203150I-492J0D01*
G01*
X163976Y176102D02*
G03*
X163976Y176102I-492J0D01*
G01*
X143898Y137795D02*
G03*
X143898Y137795I-492J0D01*
G01*
X115453Y-11220D02*
G03*
X115453Y-11220I-492J0D01*
G01*
X216054Y15925D02*
G03*
X216054Y15925I-492J0D01*
G01*
X115453Y-28937D02*
G03*
X115453Y-28937I-492J0D01*
G01*
X226476Y146260D02*
G03*
X226476Y146260I-492J0D01*
G01*
X107185Y192343D02*
G03*
X107185Y192343I-492J0D01*
G01*
D12*
X183583Y241839D02*
G03*
X183583Y241839I-551J0D01*
G01*
X65472D02*
G03*
X65472Y241839I-551J0D01*
G01*
D13*
X99803Y89764D02*
G03*
X99803Y89764I-197J0D01*
G01*
X299882Y69803D02*
G03*
X299882Y69803I-197J0D01*
G01*
X327875Y-26347D02*
G03*
X327875Y-26347I-394J0D01*
G01*
X-17520Y130118D02*
X73819D01*
X-17520Y38780D02*
X73819D01*
X-17520D02*
Y130118D01*
X73819Y38780D02*
Y130118D01*
X177953Y151083D02*
Y153445D01*
X184252Y151083D02*
Y153445D01*
X130315Y150394D02*
Y152756D01*
X136614Y150394D02*
Y152756D01*
X81496Y-52165D02*
X83858D01*
Y-54528D02*
Y-52165D01*
X62992D02*
X65354D01*
X62992Y-54528D02*
Y-52165D01*
Y-73032D02*
Y-70669D01*
Y-73032D02*
X65354D01*
X81496D02*
X83858D01*
Y-70669D01*
X239370Y66949D02*
Y69311D01*
X237008Y66949D02*
X239370D01*
X218504D02*
X220866D01*
X218504D02*
Y69311D01*
Y85453D02*
Y87815D01*
X220866D01*
X239370Y85453D02*
Y87815D01*
X237008D02*
X239370D01*
X33465Y196850D02*
Y226378D01*
X19685D02*
X53150D01*
Y196850D02*
Y226378D01*
X19685Y196850D02*
X53150D01*
X19685D02*
Y226378D01*
X137894Y81693D02*
X173228D01*
X120785Y58406D02*
X123031Y57087D01*
X120079Y56102D02*
X120785Y58406D01*
X122094Y53974D01*
X137795Y54171D01*
X137894Y81693D02*
X137894Y80271D01*
X173228Y54134D02*
Y81693D01*
X137795Y54134D02*
X173228D01*
X137795Y54171D02*
X137894Y80271D01*
X37894Y-7776D02*
X58908D01*
X37894Y-16535D02*
Y-7776D01*
Y-33760D02*
Y-25000D01*
Y-33760D02*
X58908D01*
X63878Y-16535D02*
Y-12746D01*
X58908Y-7776D02*
X63878Y-12746D01*
X58908Y-33760D02*
X63878Y-28789D01*
Y-25000D01*
X180413Y86614D02*
X201427D01*
X180413Y77854D02*
Y86614D01*
Y60630D02*
Y69390D01*
Y60630D02*
X201427D01*
X206398Y77854D02*
Y81644D01*
X201427Y86614D02*
X206398Y81644D01*
X201427Y60630D02*
X206398Y65600D01*
Y69390D01*
X187008Y217520D02*
Y313976D01*
X285433D01*
Y217520D02*
Y313976D01*
X187008Y217520D02*
X285433D01*
X68898D02*
Y313976D01*
X167323D01*
Y217520D02*
Y313976D01*
X68898Y217520D02*
X167323D01*
X88779Y91535D02*
Y104921D01*
X99803D01*
Y91535D02*
Y104921D01*
X88779Y91535D02*
X99803D01*
X339843Y88583D02*
Y100787D01*
X341811Y88583D02*
Y100787D01*
X339843D02*
X341811D01*
X339843Y88583D02*
X341811D01*
X365295Y60945D02*
Y64488D01*
X372500Y60945D02*
Y64488D01*
X299291Y68228D02*
X312677D01*
X299291Y52480D02*
Y68228D01*
Y52480D02*
X312677D01*
Y68228D01*
X250984Y47776D02*
X265182Y33578D01*
X261284Y58076D02*
X275482Y43878D01*
X250984Y47776D02*
X261284Y58076D01*
X265182Y33578D02*
X275482Y43878D01*
X166929Y202165D02*
X170866D01*
X166929Y189961D02*
X170866D01*
X166929D02*
Y202165D01*
X170866Y189961D02*
Y202165D01*
X166929Y175118D02*
X170866D01*
X166929Y162913D02*
X170866D01*
X166929D02*
Y175118D01*
X170866Y162913D02*
Y175118D01*
X148228Y97441D02*
X167126D01*
X148228Y138780D02*
X167126D01*
Y97441D02*
Y138780D01*
X148228Y97441D02*
Y138780D01*
X146555Y150000D02*
X148917D01*
X146555Y143701D02*
X148917D01*
X165649D02*
X168012D01*
X165649Y150000D02*
X168012D01*
X237303Y-73425D02*
X242815D01*
X237303Y-84055D02*
X242815D01*
X117323Y-13189D02*
X121653D01*
Y-15354D02*
Y-13189D01*
X117323Y-23819D02*
X121653D01*
Y-21653D01*
X234075Y3258D02*
X244375Y13558D01*
X219877Y17456D02*
X230177Y27756D01*
X244375Y13558D01*
X219877Y17456D02*
X234075Y3258D01*
X202953Y105610D02*
Y107972D01*
X196653Y105610D02*
Y107972D01*
X191929Y105610D02*
Y107972D01*
X185630Y105610D02*
Y107972D01*
X117323Y-30905D02*
X121653D01*
Y-33071D02*
Y-30905D01*
X117323Y-41535D02*
X121653D01*
Y-39370D01*
X230315Y125571D02*
X242913D01*
X230315Y145256D02*
X242913D01*
Y125571D02*
Y145256D01*
X230315Y125571D02*
Y145256D01*
X111024Y171654D02*
X123622D01*
X111024Y191339D02*
X123622D01*
Y171654D02*
Y191339D01*
X111024Y171654D02*
Y191339D01*
D14*
X339488Y68543D02*
G03*
X339488Y68543I-394J0D01*
G01*
X220520Y-83614D02*
G03*
X220520Y-83614I-394J0D01*
G01*
D15*
X228405Y191929D02*
G03*
X228405Y191929I-19685J0D01*
G01*
X283405D02*
G03*
X283405Y191929I-19685J0D01*
G01*
X-22530Y153661D02*
X-2956Y173234D01*
X-28598Y159730D02*
X-22530Y153661D01*
X-9025Y179303D02*
X-2956Y173234D01*
X-28598Y159730D02*
X-9309Y179019D01*
X-9025Y179303D01*
X123264Y-77736D02*
Y-50055D01*
X114681Y-77736D02*
X123264D01*
X114681Y-50055D02*
X123264D01*
X114681Y-77736D02*
Y-50457D01*
Y-50055D01*
X96850Y65748D02*
X106299D01*
X96850Y49606D02*
Y65748D01*
Y49606D02*
X106299D01*
Y65748D01*
D16*
X260930Y3157D02*
G03*
X260930Y3157I-197J0D01*
G01*
D17*
X355965Y77264D02*
Y112500D01*
X380807Y77264D02*
X382185D01*
Y112500D01*
X380807D02*
X382185D01*
D18*
X130632Y60728D02*
X132382D01*
X130610Y69193D02*
X132360D01*
D19*
X372964Y40616D02*
X376548D01*
X124497Y75719D02*
Y79303D01*
X124301Y70641D02*
Y74225D01*
X124497Y65483D02*
Y69068D01*
Y59971D02*
Y63556D01*
X244424Y-30540D02*
Y-26956D01*
X22244Y222267D02*
X22769Y222792D01*
X23818D01*
X24343Y222267D01*
Y221742D01*
X23818Y221217D01*
X23294D01*
X23818D01*
X24343Y220693D01*
Y220168D01*
X23818Y219643D01*
X22769D01*
X22244Y220168D01*
X25393Y222792D02*
Y220693D01*
X26442Y219643D01*
X27492Y220693D01*
Y222792D01*
X28541Y222267D02*
X29066Y222792D01*
X30116D01*
X30640Y222267D01*
Y221742D01*
X30116Y221217D01*
X29591D01*
X30116D01*
X30640Y220693D01*
Y220168D01*
X30116Y219643D01*
X29066D01*
X28541Y220168D01*
X24343Y217071D02*
X23818Y217596D01*
X22769D01*
X22244Y217071D01*
Y214972D01*
X22769Y214448D01*
X23818D01*
X24343Y214972D01*
Y216022D01*
X23294D01*
X25393Y214448D02*
Y217596D01*
X27492Y214448D01*
Y217596D01*
X28541D02*
Y214448D01*
X30116D01*
X30640Y214972D01*
Y217071D01*
X30116Y217596D01*
X28541D01*
X24343Y211876D02*
X23818Y212401D01*
X22769D01*
X22244Y211876D01*
Y209777D01*
X22769Y209252D01*
X23818D01*
X24343Y209777D01*
Y210826D01*
X23294D01*
X25393Y209252D02*
Y212401D01*
X27492Y209252D01*
Y212401D01*
X28541D02*
Y209252D01*
X30116D01*
X30640Y209777D01*
Y211876D01*
X30116Y212401D01*
X28541D01*
X38521Y222816D02*
X37996Y223340D01*
X36947D01*
X36422Y222816D01*
Y222291D01*
X36947Y221766D01*
X37996D01*
X38521Y221241D01*
Y220717D01*
X37996Y220192D01*
X36947D01*
X36422Y220717D01*
X39571Y223340D02*
Y220192D01*
X40620Y221241D01*
X41669Y220192D01*
Y223340D01*
X42719D02*
Y220192D01*
X44293D01*
X44818Y220717D01*
Y222816D01*
X44293Y223340D01*
X42719D01*
X45868D02*
X46917D01*
X46392D01*
Y220192D01*
X45868D01*
X46917D01*
X50066Y223340D02*
X49016D01*
X48491Y222816D01*
Y220717D01*
X49016Y220192D01*
X50066D01*
X50591Y220717D01*
Y222816D01*
X50066Y223340D01*
X37996Y217620D02*
X37471Y218145D01*
X36422D01*
X35897Y217620D01*
Y217095D01*
X36422Y216570D01*
X37471D01*
X37996Y216046D01*
Y215521D01*
X37471Y214996D01*
X36422D01*
X35897Y215521D01*
X39046Y218145D02*
Y214996D01*
X40095Y216046D01*
X41145Y214996D01*
Y218145D01*
X44293Y217620D02*
X43769Y218145D01*
X42719D01*
X42194Y217620D01*
Y215521D01*
X42719Y214996D01*
X43769D01*
X44293Y215521D01*
X45343Y218145D02*
Y214996D01*
X47442D01*
X48491Y218145D02*
Y214996D01*
Y216046D01*
X50591Y218145D01*
X49016Y216570D01*
X50591Y214996D01*
X45343Y212949D02*
X47442D01*
X46392D01*
Y209801D01*
X48491Y212949D02*
X50591Y209801D01*
Y212949D02*
X48491Y209801D01*
X45343Y204605D02*
Y207754D01*
X46917D01*
X47442Y207229D01*
Y206179D01*
X46917Y205655D01*
X45343D01*
X46392D02*
X47442Y204605D01*
X48491Y207754D02*
X50591Y204605D01*
Y207754D02*
X48491Y204605D01*
X39046Y199409D02*
Y202558D01*
X41145Y199409D01*
Y202558D01*
X42194Y199409D02*
Y202558D01*
X43769D01*
X44293Y202033D01*
Y200984D01*
X43769Y200459D01*
X42194D01*
X43244D02*
X44293Y199409D01*
X47442Y202033D02*
X46917Y202558D01*
X45868D01*
X45343Y202033D01*
Y201508D01*
X45868Y200984D01*
X46917D01*
X47442Y200459D01*
Y199934D01*
X46917Y199409D01*
X45868D01*
X45343Y199934D01*
X48491Y202558D02*
X50591D01*
X49541D01*
Y199409D01*
X40091Y235772D02*
X39566Y236297D01*
X38517D01*
X37992Y235772D01*
Y235247D01*
X38517Y234723D01*
X39566D01*
X40091Y234198D01*
Y233673D01*
X39566Y233148D01*
X38517D01*
X37992Y233673D01*
X41141Y236297D02*
X43240D01*
X42190D01*
Y233148D01*
X44289D02*
Y236297D01*
X45339Y235247D01*
X46388Y236297D01*
Y233148D01*
X47438Y235772D02*
X47963Y236297D01*
X49012D01*
X49537Y235772D01*
Y235247D01*
X49012Y234723D01*
X48487D01*
X49012D01*
X49537Y234198D01*
Y233673D01*
X49012Y233148D01*
X47963D01*
X47438Y233673D01*
X52685Y233148D02*
X50586D01*
X52685Y235247D01*
Y235772D01*
X52161Y236297D01*
X51111D01*
X50586Y235772D01*
X37992Y231101D02*
Y227953D01*
X39566D01*
X40091Y228478D01*
Y230577D01*
X39566Y231101D01*
X37992D01*
X43240D02*
X41141D01*
Y227953D01*
X43240D01*
X41141Y229527D02*
X42190D01*
X44289Y231101D02*
Y227953D01*
X45864D01*
X46388Y228478D01*
Y229002D01*
X45864Y229527D01*
X44289D01*
X45864D01*
X46388Y230052D01*
Y230577D01*
X45864Y231101D01*
X44289D01*
X47438D02*
Y228478D01*
X47963Y227953D01*
X49012D01*
X49537Y228478D01*
Y231101D01*
X52685Y230577D02*
X52161Y231101D01*
X51111D01*
X50586Y230577D01*
Y228478D01*
X51111Y227953D01*
X52161D01*
X52685Y228478D01*
Y229527D01*
X51636D01*
X65747Y299154D02*
Y298104D01*
Y298629D01*
X62598D01*
Y299154D01*
Y298104D01*
Y296530D02*
X65747D01*
X62598Y294431D01*
X65747D01*
X65222Y291282D02*
X65747Y291807D01*
Y292856D01*
X65222Y293381D01*
X64697D01*
X64173Y292856D01*
Y291807D01*
X63648Y291282D01*
X63123D01*
X62598Y291807D01*
Y292856D01*
X63123Y293381D01*
X65747Y290233D02*
Y288134D01*
Y289183D01*
X62598D01*
X65222Y283935D02*
X65747Y283411D01*
Y282361D01*
X65222Y281836D01*
X63123D01*
X62598Y282361D01*
Y283411D01*
X63123Y283935D01*
X65222D01*
X65747Y277638D02*
Y276589D01*
Y277113D01*
X62598D01*
Y277638D01*
Y276589D01*
Y275014D02*
X65747D01*
X62598Y272915D01*
X65747D01*
X62598Y271866D02*
X65747D01*
Y270291D01*
X65222Y269767D01*
X64173D01*
X63648Y270291D01*
Y271866D01*
X65747Y268717D02*
X63123D01*
X62598Y268192D01*
Y267143D01*
X63123Y266618D01*
X65747D01*
Y265569D02*
Y263470D01*
Y264519D01*
X62598D01*
X257546Y202953D02*
Y200854D01*
X258595Y201903D02*
X256496D01*
X127457Y30785D02*
X128506D01*
X127981D01*
Y27637D01*
X127457D01*
X128506D01*
X130080D02*
Y30785D01*
X132180Y27637D01*
Y30785D01*
X133229Y27637D02*
Y30785D01*
X134803D01*
X135328Y30260D01*
Y29211D01*
X134803Y28686D01*
X133229D01*
X136378Y30785D02*
Y28161D01*
X136902Y27637D01*
X137952D01*
X138477Y28161D01*
Y30785D01*
X139526D02*
X141625D01*
X140576D01*
Y27637D01*
X147923D02*
X147398Y28161D01*
X146873Y27637D01*
X146348D01*
X145824Y28161D01*
Y28686D01*
X146348Y29211D01*
X145824Y29736D01*
Y30260D01*
X146348Y30785D01*
X146873D01*
X147398Y30260D01*
Y29736D01*
X146873Y29211D01*
X147398Y28686D01*
Y28161D01*
X147923Y29211D02*
X147398Y28686D01*
X146348Y29211D02*
X146873D01*
X152121Y27637D02*
Y30785D01*
X153695D01*
X154220Y30260D01*
Y29211D01*
X153695Y28686D01*
X152121D01*
X155269Y27637D02*
Y30785D01*
X156843D01*
X157368Y30260D01*
Y29211D01*
X156843Y28686D01*
X155269D01*
X156319D02*
X157368Y27637D01*
X159992Y30785D02*
X158943D01*
X158418Y30260D01*
Y28161D01*
X158943Y27637D01*
X159992D01*
X160517Y28161D01*
Y30260D01*
X159992Y30785D01*
X163665Y30260D02*
X163141Y30785D01*
X162091D01*
X161566Y30260D01*
Y28161D01*
X162091Y27637D01*
X163141D01*
X163665Y28161D01*
X166814Y30785D02*
X164715D01*
Y27637D01*
X166814D01*
X164715Y29211D02*
X165764D01*
X169963Y30260D02*
X169438Y30785D01*
X168388D01*
X167864Y30260D01*
Y29736D01*
X168388Y29211D01*
X169438D01*
X169963Y28686D01*
Y28161D01*
X169438Y27637D01*
X168388D01*
X167864Y28161D01*
X173111Y30260D02*
X172587Y30785D01*
X171537D01*
X171012Y30260D01*
Y29736D01*
X171537Y29211D01*
X172587D01*
X173111Y28686D01*
Y28161D01*
X172587Y27637D01*
X171537D01*
X171012Y28161D01*
X174161Y30785D02*
X175210D01*
X174686D01*
Y27637D01*
X174161D01*
X175210D01*
X176785D02*
Y30785D01*
X178884Y27637D01*
Y30785D01*
X182032Y30260D02*
X181508Y30785D01*
X180458D01*
X179933Y30260D01*
Y28161D01*
X180458Y27637D01*
X181508D01*
X182032Y28161D01*
Y29211D01*
X180983D01*
X186230Y30785D02*
Y27637D01*
X187805D01*
X188329Y28161D01*
Y28686D01*
X187805Y29211D01*
X186230D01*
X187805D01*
X188329Y29736D01*
Y30260D01*
X187805Y30785D01*
X186230D01*
X190953D02*
X189904D01*
X189379Y30260D01*
Y28161D01*
X189904Y27637D01*
X190953D01*
X191478Y28161D01*
Y30260D01*
X190953Y30785D01*
X192527Y27637D02*
Y29736D01*
X193577Y30785D01*
X194627Y29736D01*
Y27637D01*
Y29211D01*
X192527D01*
X195676Y27637D02*
Y30785D01*
X197250D01*
X197775Y30260D01*
Y29211D01*
X197250Y28686D01*
X195676D01*
X196726D02*
X197775Y27637D01*
X198825Y30785D02*
Y27637D01*
X200399D01*
X200924Y28161D01*
Y30260D01*
X200399Y30785D01*
X198825D01*
X154220Y22441D02*
Y25589D01*
X155794D01*
X156319Y25065D01*
Y24015D01*
X155794Y23491D01*
X154220D01*
X155269D02*
X156319Y22441D01*
X159467Y25589D02*
X157368D01*
Y22441D01*
X159467D01*
X157368Y24015D02*
X158418D01*
X160517Y25589D02*
Y23491D01*
X161566Y22441D01*
X162616Y23491D01*
Y25589D01*
X166814Y22441D02*
X167864D01*
X167339D01*
Y25589D01*
X166814Y25065D01*
X169438Y22441D02*
Y22966D01*
X169963D01*
Y22441D01*
X169438D01*
X172062Y25065D02*
X172587Y25589D01*
X173636D01*
X174161Y25065D01*
Y22966D01*
X173636Y22441D01*
X172587D01*
X172062Y22966D01*
Y25065D01*
X208333Y215158D02*
Y213058D01*
X209383Y214108D02*
X207283D01*
X277296Y-64884D02*
X275197D01*
Y-68033D01*
X277296D01*
X275197Y-66458D02*
X276246D01*
X280445Y-65409D02*
X279920Y-64884D01*
X278870D01*
X278345Y-65409D01*
Y-65934D01*
X278870Y-66458D01*
X279920D01*
X280445Y-66983D01*
Y-67508D01*
X279920Y-68033D01*
X278870D01*
X278345Y-67508D01*
X281494Y-68033D02*
Y-64884D01*
X283068D01*
X283593Y-65409D01*
Y-66458D01*
X283068Y-66983D01*
X281494D01*
X284643Y-65409D02*
X285167Y-64884D01*
X286217D01*
X286742Y-65409D01*
Y-65934D01*
X286217Y-66458D01*
X285692D01*
X286217D01*
X286742Y-66983D01*
Y-67508D01*
X286217Y-68033D01*
X285167D01*
X284643Y-67508D01*
X289890Y-68033D02*
X287791D01*
X289890Y-65934D01*
Y-65409D01*
X289366Y-64884D01*
X288316D01*
X287791Y-65409D01*
X277296Y-70080D02*
X275197D01*
Y-73228D01*
X277296D01*
X275197Y-71654D02*
X276246D01*
X278345Y-73228D02*
Y-70080D01*
X280445Y-73228D01*
Y-70080D01*
X292007Y299154D02*
Y298104D01*
Y298629D01*
X288858D01*
Y299154D01*
Y298104D01*
Y296530D02*
X292007D01*
X288858Y294431D01*
X292007D01*
X291482Y291282D02*
X292007Y291807D01*
Y292856D01*
X291482Y293381D01*
X290957D01*
X290433Y292856D01*
Y291807D01*
X289908Y291282D01*
X289383D01*
X288858Y291807D01*
Y292856D01*
X289383Y293381D01*
X292007Y290233D02*
Y288134D01*
Y289183D01*
X288858D01*
Y283935D02*
Y282886D01*
Y283411D01*
X292007D01*
X291482Y283935D01*
X288858Y281311D02*
X290957Y279212D01*
X288858Y278163D02*
X292007D01*
X290957Y277113D01*
X292007Y276064D01*
X288858D01*
X292007Y275014D02*
Y273965D01*
Y274490D01*
X288858D01*
Y275014D01*
Y273965D01*
X291482Y270291D02*
X292007Y270816D01*
Y271866D01*
X291482Y272391D01*
X289383D01*
X288858Y271866D01*
Y270816D01*
X289383Y270291D01*
X292007Y266093D02*
Y265044D01*
Y265569D01*
X288858D01*
Y266093D01*
Y265044D01*
Y263470D02*
X292007D01*
X288858Y261370D01*
X292007D01*
X288858Y260321D02*
X292007D01*
Y258747D01*
X291482Y258222D01*
X290433D01*
X289908Y258747D01*
Y260321D01*
X292007Y257172D02*
X289383D01*
X288858Y256648D01*
Y255598D01*
X289383Y255073D01*
X292007D01*
Y254024D02*
Y251925D01*
Y252974D01*
X288858D01*
X75524Y170811D02*
X74999Y171336D01*
X73950D01*
X73425Y170811D01*
Y170287D01*
X73950Y169762D01*
X74999D01*
X75524Y169237D01*
Y168712D01*
X74999Y168188D01*
X73950D01*
X73425Y168712D01*
X76574Y171336D02*
X78673D01*
X77623D01*
Y168188D01*
X79722D02*
Y171336D01*
X80772Y170287D01*
X81821Y171336D01*
Y168188D01*
X82871Y170811D02*
X83396Y171336D01*
X84445D01*
X84970Y170811D01*
Y170287D01*
X84445Y169762D01*
X83921D01*
X84445D01*
X84970Y169237D01*
Y168712D01*
X84445Y168188D01*
X83396D01*
X82871Y168712D01*
X88119Y168188D02*
X86020D01*
X88119Y170287D01*
Y170811D01*
X87594Y171336D01*
X86544D01*
X86020Y170811D01*
X73425Y162992D02*
Y166141D01*
X74999D01*
X75524Y165616D01*
Y164566D01*
X74999Y164042D01*
X73425D01*
X74475D02*
X75524Y162992D01*
X78673Y166141D02*
X76574D01*
Y162992D01*
X78673D01*
X76574Y164566D02*
X77623D01*
X81821Y165616D02*
X81297Y166141D01*
X80247D01*
X79722Y165616D01*
Y165091D01*
X80247Y164566D01*
X81297D01*
X81821Y164042D01*
Y163517D01*
X81297Y162992D01*
X80247D01*
X79722Y163517D01*
X84970Y166141D02*
X82871D01*
Y162992D01*
X84970D01*
X82871Y164566D02*
X83921D01*
X86020Y166141D02*
X88119D01*
X87069D01*
Y162992D01*
X180839Y7950D02*
X178740D01*
Y4802D01*
X180839D01*
X178740Y6376D02*
X179790D01*
X183988Y7426D02*
X183463Y7950D01*
X182413D01*
X181889Y7426D01*
Y6901D01*
X182413Y6376D01*
X183463D01*
X183988Y5851D01*
Y5327D01*
X183463Y4802D01*
X182413D01*
X181889Y5327D01*
X185037Y4802D02*
Y7950D01*
X186612D01*
X187136Y7426D01*
Y6376D01*
X186612Y5851D01*
X185037D01*
X188186Y7426D02*
X188711Y7950D01*
X189760D01*
X190285Y7426D01*
Y6901D01*
X189760Y6376D01*
X189235D01*
X189760D01*
X190285Y5851D01*
Y5327D01*
X189760Y4802D01*
X188711D01*
X188186Y5327D01*
X193434Y4802D02*
X191334D01*
X193434Y6901D01*
Y7426D01*
X192909Y7950D01*
X191859D01*
X191334Y7426D01*
X178740Y2755D02*
Y-394D01*
X180315D01*
X180839Y131D01*
Y656D01*
X180315Y1181D01*
X178740D01*
X180315D01*
X180839Y1705D01*
Y2230D01*
X180315Y2755D01*
X178740D01*
X183463D02*
X182413D01*
X181889Y2230D01*
Y131D01*
X182413Y-394D01*
X183463D01*
X183988Y131D01*
Y2230D01*
X183463Y2755D01*
X186612D02*
X185562D01*
X185037Y2230D01*
Y131D01*
X185562Y-394D01*
X186612D01*
X187136Y131D01*
Y2230D01*
X186612Y2755D01*
X188186D02*
X190285D01*
X189235D01*
Y-394D01*
X139370Y79640D02*
Y76491D01*
X140944D01*
X141469Y77016D01*
Y79115D01*
X140944Y79640D01*
X139370D01*
X144618D02*
X142519D01*
Y76491D01*
X144618D01*
X142519Y78065D02*
X143568D01*
X145667Y79640D02*
Y76491D01*
X147242D01*
X147766Y77016D01*
Y77541D01*
X147242Y78065D01*
X145667D01*
X147242D01*
X147766Y78590D01*
Y79115D01*
X147242Y79640D01*
X145667D01*
X148816D02*
Y77016D01*
X149341Y76491D01*
X150390D01*
X150915Y77016D01*
Y79640D01*
X154063Y79115D02*
X153539Y79640D01*
X152489D01*
X151964Y79115D01*
Y77016D01*
X152489Y76491D01*
X153539D01*
X154063Y77016D01*
Y78065D01*
X153014D01*
X158262Y79640D02*
Y76491D01*
X160361D01*
X163509Y79640D02*
X161410D01*
Y76491D01*
X163509D01*
X161410Y78065D02*
X162460D01*
X164559Y79640D02*
Y76491D01*
X166133D01*
X166658Y77016D01*
Y79115D01*
X166133Y79640D01*
X164559D01*
X169806Y79115D02*
X169282Y79640D01*
X168232D01*
X167707Y79115D01*
Y78590D01*
X168232Y78065D01*
X169282D01*
X169806Y77541D01*
Y77016D01*
X169282Y76491D01*
X168232D01*
X167707Y77016D01*
X139370Y73919D02*
X139895Y74444D01*
X140944D01*
X141469Y73919D01*
Y73395D01*
X140944Y72870D01*
X140420D01*
X140944D01*
X141469Y72345D01*
Y71820D01*
X140944Y71295D01*
X139895D01*
X139370Y71820D01*
X145667Y72870D02*
X147766D01*
X151964Y74444D02*
Y71295D01*
X153539D01*
X154063Y71820D01*
Y72345D01*
X153539Y72870D01*
X151964D01*
X153539D01*
X154063Y73395D01*
Y73919D01*
X153539Y74444D01*
X151964D01*
X155113D02*
Y71295D01*
X157212D01*
X158262Y74444D02*
Y71820D01*
X158786Y71295D01*
X159836D01*
X160361Y71820D01*
Y74444D01*
X163509D02*
X161410D01*
Y71295D01*
X163509D01*
X161410Y72870D02*
X162460D01*
X141469Y66100D02*
X139370D01*
X141469Y68199D01*
Y68724D01*
X140944Y69248D01*
X139895D01*
X139370Y68724D01*
X145667Y67674D02*
X147766D01*
X151964Y69248D02*
Y66100D01*
X153539D01*
X154063Y66625D01*
Y67149D01*
X153539Y67674D01*
X151964D01*
X153539D01*
X154063Y68199D01*
Y68724D01*
X153539Y69248D01*
X151964D01*
X155113D02*
Y66100D01*
X157212D01*
X158262Y69248D02*
Y66625D01*
X158786Y66100D01*
X159836D01*
X160361Y66625D01*
Y69248D01*
X163509D02*
X161410D01*
Y66100D01*
X163509D01*
X161410Y67674D02*
X162460D01*
X139370Y60904D02*
X140420D01*
X139895D01*
Y64053D01*
X139370Y63528D01*
X145142Y62479D02*
X147242D01*
X153539Y63528D02*
X153014Y64053D01*
X151964D01*
X151440Y63528D01*
Y61429D01*
X151964Y60904D01*
X153014D01*
X153539Y61429D01*
Y62479D01*
X152489D01*
X154588Y60904D02*
Y64053D01*
X156163D01*
X156687Y63528D01*
Y62479D01*
X156163Y61954D01*
X154588D01*
X155638D02*
X156687Y60904D01*
X159836Y64053D02*
X157737D01*
Y60904D01*
X159836D01*
X157737Y62479D02*
X158786D01*
X162985Y64053D02*
X160885D01*
Y60904D01*
X162985D01*
X160885Y62479D02*
X161935D01*
X164034Y60904D02*
Y64053D01*
X166133Y60904D01*
Y64053D01*
X139370Y58333D02*
X139895Y58857D01*
X140944D01*
X141469Y58333D01*
Y56233D01*
X140944Y55709D01*
X139895D01*
X139370Y56233D01*
Y58333D01*
X145667Y57283D02*
X147766D01*
X154063Y58333D02*
X153539Y58857D01*
X152489D01*
X151964Y58333D01*
Y56233D01*
X152489Y55709D01*
X153539D01*
X154063Y56233D01*
Y57283D01*
X153014D01*
X155113Y55709D02*
Y58857D01*
X156687D01*
X157212Y58333D01*
Y57283D01*
X156687Y56758D01*
X155113D01*
X156163D02*
X157212Y55709D01*
X160361Y58857D02*
X158262D01*
Y55709D01*
X160361D01*
X158262Y57283D02*
X159311D01*
X163509Y58857D02*
X161410D01*
Y55709D01*
X163509D01*
X161410Y57283D02*
X162460D01*
X164559Y55709D02*
Y58857D01*
X166658Y55709D01*
Y58857D01*
X-27757Y208925D02*
Y211024D01*
X-30906D01*
Y208925D01*
X-29331Y211024D02*
Y209974D01*
X-28282Y205776D02*
X-27757Y206301D01*
Y207350D01*
X-28282Y207875D01*
X-28806D01*
X-29331Y207350D01*
Y206301D01*
X-29856Y205776D01*
X-30381D01*
X-30906Y206301D01*
Y207350D01*
X-30381Y207875D01*
X-30906Y204726D02*
X-27757D01*
Y203152D01*
X-28282Y202627D01*
X-29331D01*
X-29856Y203152D01*
Y204726D01*
X-28282Y196330D02*
X-27757Y196855D01*
Y197905D01*
X-28282Y198429D01*
X-28806D01*
X-29331Y197905D01*
Y196855D01*
X-29856Y196330D01*
X-30381D01*
X-30906Y196855D01*
Y197905D01*
X-30381Y198429D01*
X-27757Y195281D02*
Y193182D01*
Y194231D01*
X-30906D01*
Y192132D02*
X-27757D01*
X-28806Y191083D01*
X-27757Y190033D01*
X-30906D01*
X-28282Y183736D02*
X-27757Y184261D01*
Y185310D01*
X-28282Y185835D01*
X-30381D01*
X-30906Y185310D01*
Y184261D01*
X-30381Y183736D01*
X-27757Y181112D02*
Y182162D01*
X-28282Y182686D01*
X-30381D01*
X-30906Y182162D01*
Y181112D01*
X-30381Y180587D01*
X-28282D01*
X-27757Y181112D01*
X-30906Y179538D02*
X-27757D01*
X-28806Y178488D01*
X-27757Y177439D01*
X-30906D01*
Y176389D02*
X-27757D01*
X-28806Y175340D01*
X-27757Y174290D01*
X-30906D01*
X-29921Y169094D02*
X-27822D01*
X-28872D01*
Y165945D01*
X-26773Y169094D02*
X-24674Y165945D01*
Y169094D02*
X-26773Y165945D01*
X-24016Y171850D02*
Y174999D01*
X-22442D01*
X-21917Y174474D01*
Y173425D01*
X-22442Y172900D01*
X-24016D01*
X-22966D02*
X-21917Y171850D01*
X-20867Y174999D02*
X-18768Y171850D01*
Y174999D02*
X-20867Y171850D01*
X-18964Y181364D02*
X-19489Y181889D01*
X-20538D01*
X-21063Y181364D01*
Y179265D01*
X-20538Y178740D01*
X-19489D01*
X-18964Y179265D01*
Y180315D01*
X-20013D01*
X-17914Y178740D02*
Y181889D01*
X-15815Y178740D01*
Y181889D01*
X-14766D02*
Y178740D01*
X-13192D01*
X-12667Y179265D01*
Y181364D01*
X-13192Y181889D01*
X-14766D01*
X96193Y-79922D02*
X94095D01*
Y-83071D01*
X96193D01*
X94095Y-81497D02*
X95144D01*
X99342Y-80447D02*
X98817Y-79922D01*
X97768D01*
X97243Y-80447D01*
Y-80972D01*
X97768Y-81497D01*
X98817D01*
X99342Y-82021D01*
Y-82546D01*
X98817Y-83071D01*
X97768D01*
X97243Y-82546D01*
X100392Y-83071D02*
Y-79922D01*
X101966D01*
X102491Y-80447D01*
Y-81497D01*
X101966Y-82021D01*
X100392D01*
X103540Y-80447D02*
X104065Y-79922D01*
X105115D01*
X105639Y-80447D01*
Y-80972D01*
X105115Y-81497D01*
X104590D01*
X105115D01*
X105639Y-82021D01*
Y-82546D01*
X105115Y-83071D01*
X104065D01*
X103540Y-82546D01*
X108788Y-83071D02*
X106689D01*
X108788Y-80972D01*
Y-80447D01*
X108263Y-79922D01*
X107214D01*
X106689Y-80447D01*
X112986Y-83071D02*
Y-79922D01*
X114560D01*
X115085Y-80447D01*
Y-81497D01*
X114560Y-82021D01*
X112986D01*
X116135Y-83071D02*
Y-79922D01*
X117709D01*
X118234Y-80447D01*
Y-81497D01*
X117709Y-82021D01*
X116135D01*
X117184D02*
X118234Y-83071D01*
X120858Y-79922D02*
X119808D01*
X119283Y-80447D01*
Y-82546D01*
X119808Y-83071D01*
X120858D01*
X121382Y-82546D01*
Y-80447D01*
X120858Y-79922D01*
X124531Y-80447D02*
X124006Y-79922D01*
X122957D01*
X122432Y-80447D01*
Y-82546D01*
X122957Y-83071D01*
X124006D01*
X124531Y-82546D01*
Y-81497D01*
X123481D01*
X106036Y-52573D02*
X105511Y-52048D01*
X104462D01*
X103937Y-52573D01*
Y-54672D01*
X104462Y-55197D01*
X105511D01*
X106036Y-54672D01*
Y-53623D01*
X104987D01*
X107086Y-55197D02*
Y-52048D01*
X109185Y-55197D01*
Y-52048D01*
X110234D02*
Y-55197D01*
X111809D01*
X112333Y-54672D01*
Y-52573D01*
X111809Y-52048D01*
X110234D01*
X103937Y-65197D02*
Y-62048D01*
X105511D01*
X106036Y-62573D01*
Y-63623D01*
X105511Y-64147D01*
X103937D01*
X104987D02*
X106036Y-65197D01*
X107086Y-62048D02*
X109185Y-65197D01*
Y-62048D02*
X107086Y-65197D01*
X103937Y-72048D02*
X106036D01*
X104987D01*
Y-75197D01*
X107086Y-72048D02*
X109185Y-75197D01*
Y-72048D02*
X107086Y-75197D01*
X-24671Y132677D02*
Y130053D01*
X-24146Y129528D01*
X-23097D01*
X-22572Y130053D01*
Y132677D01*
X-19423D02*
X-21522D01*
Y131102D01*
X-20473Y131627D01*
X-19948D01*
X-19423Y131102D01*
Y130053D01*
X-19948Y129528D01*
X-20998D01*
X-21522Y130053D01*
X100656Y173753D02*
X101181Y174277D01*
Y175327D01*
X100656Y175852D01*
X98557D01*
X98032Y175327D01*
Y174277D01*
X98557Y173753D01*
X100656Y172703D02*
X101181Y172178D01*
Y171129D01*
X100656Y170604D01*
X100131D01*
X99606Y171129D01*
Y171653D01*
Y171129D01*
X99081Y170604D01*
X98557D01*
X98032Y171129D01*
Y172178D01*
X98557Y172703D01*
X100656Y169554D02*
X101181Y169030D01*
Y167980D01*
X100656Y167455D01*
X100131D01*
X99606Y167980D01*
X99081Y167455D01*
X98557D01*
X98032Y167980D01*
Y169030D01*
X98557Y169554D01*
X99081D01*
X99606Y169030D01*
X100131Y169554D01*
X100656D01*
X99606Y169030D02*
Y167980D01*
X281235Y104331D02*
Y107480D01*
X282809D01*
X283334Y106955D01*
Y105905D01*
X282809Y105381D01*
X281235D01*
X282284D02*
X283334Y104331D01*
X286483Y107480D02*
X284384D01*
Y105905D01*
X285433Y106430D01*
X285958D01*
X286483Y105905D01*
Y104856D01*
X285958Y104331D01*
X284908D01*
X284384Y104856D01*
X289106Y104331D02*
Y107480D01*
X287532Y105905D01*
X289631D01*
X281235Y96851D02*
Y99999D01*
X282809D01*
X283334Y99475D01*
Y98425D01*
X282809Y97900D01*
X281235D01*
X282284D02*
X283334Y96851D01*
X285958D02*
Y99999D01*
X284384Y98425D01*
X286483D01*
X289631Y99999D02*
X288582Y99475D01*
X287532Y98425D01*
Y97376D01*
X288057Y96851D01*
X289106D01*
X289631Y97376D01*
Y97900D01*
X289106Y98425D01*
X287532D01*
X376904Y115749D02*
Y118897D01*
X378478D01*
X379003Y118372D01*
Y117323D01*
X378478Y116798D01*
X376904D01*
X382151Y115749D02*
X380052D01*
X382151Y117848D01*
Y118372D01*
X381627Y118897D01*
X380577D01*
X380052Y118372D01*
X189239Y154068D02*
X189763Y154592D01*
Y155642D01*
X189239Y156167D01*
X187139D01*
X186615Y155642D01*
Y154592D01*
X187139Y154068D01*
X186615Y151444D02*
X189763D01*
X188189Y153018D01*
Y150919D01*
X189763Y149869D02*
Y147770D01*
X189239D01*
X187139Y149869D01*
X186615D01*
X155775Y89764D02*
Y92913D01*
X157350D01*
X157875Y92388D01*
Y91339D01*
X157350Y90814D01*
X155775D01*
X156825D02*
X157875Y89764D01*
X161023Y92913D02*
X159974Y92388D01*
X158924Y91339D01*
Y90289D01*
X159449Y89764D01*
X160498D01*
X161023Y90289D01*
Y90814D01*
X160498Y91339D01*
X158924D01*
X162073Y89764D02*
X163122D01*
X162597D01*
Y92913D01*
X162073Y92388D01*
X135695Y166141D02*
X136220Y166666D01*
Y167716D01*
X135695Y168240D01*
X133596D01*
X133071Y167716D01*
Y166666D01*
X133596Y166141D01*
X135695Y165092D02*
X136220Y164567D01*
Y163517D01*
X135695Y162993D01*
X135170D01*
X134646Y163517D01*
Y164042D01*
Y163517D01*
X134121Y162993D01*
X133596D01*
X133071Y163517D01*
Y164567D01*
X133596Y165092D01*
X133071Y161943D02*
Y160894D01*
Y161418D01*
X136220D01*
X135695Y161943D01*
X372638Y38188D02*
Y36089D01*
X373687Y35039D01*
X374737Y36089D01*
Y38188D01*
X375786D02*
Y35039D01*
X377361D01*
X377885Y35564D01*
Y36089D01*
X377361Y36614D01*
X375786D01*
X377361D01*
X377885Y37138D01*
Y37663D01*
X377361Y38188D01*
X375786D01*
X378935D02*
Y35564D01*
X379460Y35039D01*
X380509D01*
X381034Y35564D01*
Y38188D01*
X384183Y37663D02*
X383658Y38188D01*
X382608D01*
X382084Y37663D01*
Y37138D01*
X382608Y36614D01*
X383658D01*
X384183Y36089D01*
Y35564D01*
X383658Y35039D01*
X382608D01*
X382084Y35564D01*
X304988Y46325D02*
X304463Y46850D01*
X303413D01*
X302888Y46325D01*
Y44226D01*
X303413Y43701D01*
X304463D01*
X304988Y44226D01*
X308136Y43701D02*
X306037D01*
X308136Y45800D01*
Y46325D01*
X307611Y46850D01*
X306562D01*
X306037Y46325D01*
X311285Y46850D02*
X309186D01*
Y45276D01*
X310235Y45800D01*
X310760D01*
X311285Y45276D01*
Y44226D01*
X310760Y43701D01*
X309710D01*
X309186Y44226D01*
X68373Y204790D02*
X67848Y205314D01*
X66799D01*
X66274Y204790D01*
Y204265D01*
X66799Y203740D01*
X67848D01*
X68373Y203215D01*
Y202691D01*
X67848Y202166D01*
X66799D01*
X66274Y202691D01*
X69422Y204790D02*
X69947Y205314D01*
X70997D01*
X71522Y204790D01*
Y204265D01*
X70997Y203740D01*
X70472D01*
X70997D01*
X71522Y203215D01*
Y202691D01*
X70997Y202166D01*
X69947D01*
X69422Y202691D01*
X15748Y168897D02*
X14698D01*
X15223D01*
Y166273D01*
X14698Y165749D01*
X14174D01*
X13649Y166273D01*
X16798Y165749D02*
X17847D01*
X17322D01*
Y168897D01*
X16798Y168372D01*
X129922Y80576D02*
X133070D01*
Y79002D01*
X132546Y78477D01*
X131496D01*
X130971Y79002D01*
Y80576D01*
Y79527D02*
X129922Y78477D01*
X133070Y75328D02*
X132546Y76378D01*
X131496Y77428D01*
X130447D01*
X129922Y76903D01*
Y75853D01*
X130447Y75328D01*
X130971D01*
X131496Y75853D01*
Y77428D01*
X132546Y74279D02*
X133070Y73754D01*
Y72705D01*
X132546Y72180D01*
X132021D01*
X131496Y72705D01*
X130971Y72180D01*
X130447D01*
X129922Y72705D01*
Y73754D01*
X130447Y74279D01*
X130971D01*
X131496Y73754D01*
X132021Y74279D01*
X132546D01*
X131496Y73754D02*
Y72705D01*
X91274Y203150D02*
Y206299D01*
X92849D01*
X93373Y205774D01*
Y204724D01*
X92849Y204200D01*
X91274D01*
X92324D02*
X93373Y203150D01*
X95997D02*
Y206299D01*
X94423Y204724D01*
X96522D01*
X97571Y205774D02*
X98096Y206299D01*
X99146D01*
X99671Y205774D01*
Y203675D01*
X99146Y203150D01*
X98096D01*
X97571Y203675D01*
Y205774D01*
X81004Y202131D02*
X84153D01*
Y200557D01*
X83628Y200032D01*
X82579D01*
X82054Y200557D01*
Y202131D01*
Y201082D02*
X81004Y200032D01*
Y197408D02*
X84153D01*
X82579Y198983D01*
Y196883D01*
X81529Y195834D02*
X81004Y195309D01*
Y194260D01*
X81529Y193735D01*
X83628D01*
X84153Y194260D01*
Y195309D01*
X83628Y195834D01*
X83104D01*
X82579Y195309D01*
Y193735D01*
X91995Y194357D02*
X91471Y194881D01*
X90421D01*
X89896Y194357D01*
Y192258D01*
X90421Y191733D01*
X91471D01*
X91995Y192258D01*
X93045Y194357D02*
X93570Y194881D01*
X94619D01*
X95144Y194357D01*
Y193832D01*
X94619Y193307D01*
X94095D01*
X94619D01*
X95144Y192782D01*
Y192258D01*
X94619Y191733D01*
X93570D01*
X93045Y192258D01*
X97768Y191733D02*
Y194881D01*
X96194Y193307D01*
X98293D01*
X80808Y190977D02*
X83956D01*
Y189402D01*
X83431Y188877D01*
X82382D01*
X81857Y189402D01*
Y190977D01*
Y189927D02*
X80808Y188877D01*
X83956Y185729D02*
Y187828D01*
X82382D01*
X82907Y186778D01*
Y186254D01*
X82382Y185729D01*
X81332D01*
X80808Y186254D01*
Y187303D01*
X81332Y187828D01*
X80808Y184679D02*
Y183630D01*
Y184154D01*
X83956D01*
X83431Y184679D01*
X28610Y-27297D02*
X28085Y-26772D01*
X27035D01*
X26511Y-27297D01*
Y-29396D01*
X27035Y-29921D01*
X28085D01*
X28610Y-29396D01*
X31758Y-26772D02*
X30709Y-27297D01*
X29659Y-28346D01*
Y-29396D01*
X30184Y-29921D01*
X31233D01*
X31758Y-29396D01*
Y-28871D01*
X31233Y-28346D01*
X29659D01*
X32808Y-29396D02*
X33332Y-29921D01*
X34382D01*
X34907Y-29396D01*
Y-27297D01*
X34382Y-26772D01*
X33332D01*
X32808Y-27297D01*
Y-27822D01*
X33332Y-28346D01*
X34907D01*
X207350Y62762D02*
X206825Y63287D01*
X205775D01*
X205251Y62762D01*
Y60663D01*
X205775Y60138D01*
X206825D01*
X207350Y60663D01*
X208399Y63287D02*
X210498D01*
Y62762D01*
X208399Y60663D01*
Y60138D01*
X211548Y62762D02*
X212073Y63287D01*
X213122D01*
X213647Y62762D01*
Y60663D01*
X213122Y60138D01*
X212073D01*
X211548Y60663D01*
Y62762D01*
X72967Y22048D02*
Y25196D01*
X74541D01*
X75066Y24672D01*
Y23622D01*
X74541Y23097D01*
X72967D01*
X76115Y24672D02*
X76640Y25196D01*
X77690D01*
X78214Y24672D01*
Y24147D01*
X77690Y23622D01*
X78214Y23097D01*
Y22572D01*
X77690Y22048D01*
X76640D01*
X76115Y22572D01*
Y23097D01*
X76640Y23622D01*
X76115Y24147D01*
Y24672D01*
X76640Y23622D02*
X77690D01*
X105709Y96193D02*
X108858D01*
Y94619D01*
X108333Y94094D01*
X107283D01*
X106759Y94619D01*
Y96193D01*
Y95144D02*
X105709Y94094D01*
X108858Y93044D02*
Y90945D01*
X108333D01*
X106234Y93044D01*
X105709D01*
Y89896D02*
Y88846D01*
Y89371D01*
X108858D01*
X108333Y89896D01*
X21786Y20932D02*
X21261Y21456D01*
X20211D01*
X19687Y20932D01*
Y18832D01*
X20211Y18308D01*
X21261D01*
X21786Y18832D01*
X22835Y18308D02*
X23885D01*
X23360D01*
Y21456D01*
X22835Y20932D01*
X25459D02*
X25984Y21456D01*
X27033D01*
X27558Y20932D01*
Y18832D01*
X27033Y18308D01*
X25984D01*
X25459Y18832D01*
Y20932D01*
X30707Y21456D02*
X28608D01*
Y19882D01*
X29657Y20407D01*
X30182D01*
X30707Y19882D01*
Y18832D01*
X30182Y18308D01*
X29133D01*
X28608Y18832D01*
X-23096Y26246D02*
X-23621Y26771D01*
X-24670D01*
X-25195Y26246D01*
Y24147D01*
X-24670Y23623D01*
X-23621D01*
X-23096Y24147D01*
X-22047Y23623D02*
X-20997D01*
X-21522D01*
Y26771D01*
X-22047Y26246D01*
X-19423D02*
X-18898Y26771D01*
X-17848D01*
X-17324Y26246D01*
Y24147D01*
X-17848Y23623D01*
X-18898D01*
X-19423Y24147D01*
Y26246D01*
X-16274D02*
X-15749Y26771D01*
X-14700D01*
X-14175Y26246D01*
Y25722D01*
X-14700Y25197D01*
X-15225D01*
X-14700D01*
X-14175Y24672D01*
Y24147D01*
X-14700Y23623D01*
X-15749D01*
X-16274Y24147D01*
X38451Y17584D02*
X38976Y18109D01*
Y19159D01*
X38451Y19683D01*
X36352D01*
X35827Y19159D01*
Y18109D01*
X36352Y17584D01*
X35827Y16535D02*
Y15485D01*
Y16010D01*
X38976D01*
X38451Y16535D01*
Y13911D02*
X38976Y13386D01*
Y12336D01*
X38451Y11812D01*
X36352D01*
X35827Y12336D01*
Y13386D01*
X36352Y13911D01*
X38451D01*
Y10762D02*
X38976Y10238D01*
Y9188D01*
X38451Y8663D01*
X36352D01*
X35827Y9188D01*
Y10238D01*
X36352Y10762D01*
X38451D01*
X60106Y20735D02*
X59581Y21259D01*
X58531D01*
X58007Y20735D01*
Y18635D01*
X58531Y18111D01*
X59581D01*
X60106Y18635D01*
X61155D02*
X61680Y18111D01*
X62730D01*
X63254Y18635D01*
Y20735D01*
X62730Y21259D01*
X61680D01*
X61155Y20735D01*
Y20210D01*
X61680Y19685D01*
X63254D01*
X64304Y18635D02*
X64828Y18111D01*
X65878D01*
X66403Y18635D01*
Y20735D01*
X65878Y21259D01*
X64828D01*
X64304Y20735D01*
Y20210D01*
X64828Y19685D01*
X66403D01*
X108400Y66141D02*
Y65617D01*
X109449Y64567D01*
X110499Y65617D01*
Y66141D01*
X109449Y64567D02*
Y62993D01*
X111548Y65617D02*
X112073Y66141D01*
X113123D01*
X113647Y65617D01*
Y65092D01*
X113123Y64567D01*
X112598D01*
X113123D01*
X113647Y64042D01*
Y63517D01*
X113123Y62993D01*
X112073D01*
X111548Y63517D01*
X95801Y110236D02*
Y109711D01*
X96851Y108661D01*
X97900Y109711D01*
Y110236D01*
X96851Y108661D02*
Y107087D01*
X101049D02*
X98950D01*
X101049Y109186D01*
Y109711D01*
X100524Y110236D01*
X99475D01*
X98950Y109711D01*
X293570Y68110D02*
Y67585D01*
X294620Y66535D01*
X295669Y67585D01*
Y68110D01*
X294620Y66535D02*
Y64961D01*
X296719D02*
X297768D01*
X297244D01*
Y68110D01*
X296719Y67585D01*
X164962Y179921D02*
Y177297D01*
X165487Y176772D01*
X166536D01*
X167061Y177297D01*
Y179921D01*
X168111Y176772D02*
X169160D01*
X168635D01*
Y179921D01*
X168111Y179396D01*
X172833Y176772D02*
X170734D01*
X172833Y178871D01*
Y179396D01*
X172309Y179921D01*
X171259D01*
X170734Y179396D01*
X165356Y207086D02*
Y204462D01*
X165880Y203938D01*
X166930D01*
X167455Y204462D01*
Y207086D01*
X168504Y203938D02*
X169554D01*
X169029D01*
Y207086D01*
X168504Y206561D01*
X171128D02*
X171653Y207086D01*
X172702D01*
X173227Y206561D01*
Y204462D01*
X172702Y203938D01*
X171653D01*
X171128Y204462D01*
Y206561D01*
X103227Y199089D02*
Y196465D01*
X103752Y195940D01*
X104802D01*
X105327Y196465D01*
Y199089D01*
X106376Y196465D02*
X106901Y195940D01*
X107950D01*
X108475Y196465D01*
Y198564D01*
X107950Y199089D01*
X106901D01*
X106376Y198564D01*
Y198039D01*
X106901Y197514D01*
X108475D01*
X141077Y96555D02*
Y93931D01*
X141602Y93406D01*
X142651D01*
X143176Y93931D01*
Y96555D01*
X144226Y96030D02*
X144750Y96555D01*
X145800D01*
X146325Y96030D01*
Y95505D01*
X145800Y94980D01*
X146325Y94456D01*
Y93931D01*
X145800Y93406D01*
X144750D01*
X144226Y93931D01*
Y94456D01*
X144750Y94980D01*
X144226Y95505D01*
Y96030D01*
X144750Y94980D02*
X145800D01*
X315880Y46456D02*
Y43832D01*
X316405Y43308D01*
X317454D01*
X317979Y43832D01*
Y46456D01*
X319029D02*
X321128D01*
Y45931D01*
X319029Y43832D01*
Y43308D01*
X217849Y92913D02*
Y90289D01*
X218373Y89764D01*
X219423D01*
X219948Y90289D01*
Y92913D01*
X223096D02*
X222047Y92388D01*
X220997Y91339D01*
Y90289D01*
X221522Y89764D01*
X222571D01*
X223096Y90289D01*
Y90814D01*
X222571Y91339D01*
X220997D01*
X55250Y-70079D02*
Y-72703D01*
X55775Y-73228D01*
X56824D01*
X57349Y-72703D01*
Y-70079D01*
X59973Y-73228D02*
Y-70079D01*
X58399Y-71653D01*
X60498D01*
X243833Y69291D02*
Y66667D01*
X244358Y66142D01*
X245407D01*
X245932Y66667D01*
Y69291D01*
X246982Y68766D02*
X247506Y69291D01*
X248556D01*
X249080Y68766D01*
Y68241D01*
X248556Y67716D01*
X248031D01*
X248556D01*
X249080Y67192D01*
Y66667D01*
X248556Y66142D01*
X247506D01*
X246982Y66667D01*
X212628Y41389D02*
Y38765D01*
X213152Y38240D01*
X214202D01*
X214727Y38765D01*
Y41389D01*
X217875Y38240D02*
X215776D01*
X217875Y40339D01*
Y40864D01*
X217350Y41389D01*
X216301D01*
X215776Y40864D01*
X83428Y-4011D02*
Y-6635D01*
X83952Y-7160D01*
X85002D01*
X85527Y-6635D01*
Y-4011D01*
X86576Y-7160D02*
X87626D01*
X87101D01*
Y-4011D01*
X86576Y-4536D01*
X256627Y-32536D02*
X256102Y-32011D01*
X255052D01*
X254528Y-32536D01*
Y-33061D01*
X255052Y-33586D01*
X256102D01*
X256627Y-34110D01*
Y-34635D01*
X256102Y-35160D01*
X255052D01*
X254528Y-34635D01*
X259775Y-35160D02*
X257676D01*
X259775Y-33061D01*
Y-32536D01*
X259250Y-32011D01*
X258201D01*
X257676Y-32536D01*
X136221Y3018D02*
X135696Y3543D01*
X134646D01*
X134121Y3018D01*
Y2493D01*
X134646Y1969D01*
X135696D01*
X136221Y1444D01*
Y919D01*
X135696Y394D01*
X134646D01*
X134121Y919D01*
X137270Y394D02*
X138320D01*
X137795D01*
Y3543D01*
X137270Y3018D01*
X51182Y162859D02*
X54330D01*
Y161285D01*
X53805Y160760D01*
X52756D01*
X52231Y161285D01*
Y162859D01*
Y161810D02*
X51182Y160760D01*
X54330Y157612D02*
X53805Y158661D01*
X52756Y159711D01*
X51706D01*
X51182Y159186D01*
Y158137D01*
X51706Y157612D01*
X52231D01*
X52756Y158137D01*
Y159711D01*
X51706Y156562D02*
X51182Y156038D01*
Y154988D01*
X51706Y154463D01*
X53805D01*
X54330Y154988D01*
Y156038D01*
X53805Y156562D01*
X53281D01*
X52756Y156038D01*
Y154463D01*
X-18503Y151836D02*
X-15355D01*
Y150262D01*
X-15880Y149737D01*
X-16929D01*
X-17454Y150262D01*
Y151836D01*
Y150786D02*
X-18503Y149737D01*
X-15355Y146588D02*
X-15880Y147638D01*
X-16929Y148687D01*
X-17979D01*
X-18503Y148163D01*
Y147113D01*
X-17979Y146588D01*
X-17454D01*
X-16929Y147113D01*
Y148687D01*
X-15355Y145539D02*
Y143440D01*
X-15880D01*
X-17979Y145539D01*
X-18503D01*
X49607Y16403D02*
X52755D01*
Y14829D01*
X52231Y14304D01*
X51181D01*
X50656Y14829D01*
Y16403D01*
Y15353D02*
X49607Y14304D01*
X52755Y11155D02*
X52231Y12205D01*
X51181Y13254D01*
X50132D01*
X49607Y12730D01*
Y11680D01*
X50132Y11155D01*
X50656D01*
X51181Y11680D01*
Y13254D01*
X52755Y8007D02*
X52231Y9056D01*
X51181Y10106D01*
X50132D01*
X49607Y9581D01*
Y8531D01*
X50132Y8007D01*
X50656D01*
X51181Y8531D01*
Y10106D01*
X235172Y154725D02*
Y157873D01*
X236746D01*
X237271Y157349D01*
Y156299D01*
X236746Y155774D01*
X235172D01*
X236222D02*
X237271Y154725D01*
X240420Y157873D02*
X239370Y157349D01*
X238321Y156299D01*
Y155250D01*
X238845Y154725D01*
X239895D01*
X240420Y155250D01*
Y155774D01*
X239895Y156299D01*
X238321D01*
X241469Y157349D02*
X241994Y157873D01*
X243043D01*
X243568Y157349D01*
Y155250D01*
X243043Y154725D01*
X241994D01*
X241469Y155250D01*
Y157349D01*
X207613Y120867D02*
Y124015D01*
X209187D01*
X209712Y123491D01*
Y122441D01*
X209187Y121916D01*
X207613D01*
X208662D02*
X209712Y120867D01*
X212861Y124015D02*
X210761D01*
Y122441D01*
X211811Y122966D01*
X212336D01*
X212861Y122441D01*
Y121391D01*
X212336Y120867D01*
X211286D01*
X210761Y121391D01*
X213910Y123491D02*
X214435Y124015D01*
X215484D01*
X216009Y123491D01*
Y122966D01*
X215484Y122441D01*
X216009Y121916D01*
Y121391D01*
X215484Y120867D01*
X214435D01*
X213910Y121391D01*
Y121916D01*
X214435Y122441D01*
X213910Y122966D01*
Y123491D01*
X214435Y122441D02*
X215484D01*
X269030Y125985D02*
Y129133D01*
X270604D01*
X271129Y128609D01*
Y127559D01*
X270604Y127034D01*
X269030D01*
X270080D02*
X271129Y125985D01*
X274278Y129133D02*
X272179D01*
Y127559D01*
X273228Y128084D01*
X273753D01*
X274278Y127559D01*
Y126509D01*
X273753Y125985D01*
X272704D01*
X272179Y126509D01*
X277427Y129133D02*
X276377Y128609D01*
X275327Y127559D01*
Y126509D01*
X275852Y125985D01*
X276902D01*
X277427Y126509D01*
Y127034D01*
X276902Y127559D01*
X275327D01*
X268898Y157741D02*
X272047D01*
Y156167D01*
X271522Y155642D01*
X270472D01*
X269948Y156167D01*
Y157741D01*
Y156692D02*
X268898Y155642D01*
X272047Y152494D02*
Y154593D01*
X270472D01*
X270997Y153543D01*
Y153018D01*
X270472Y152494D01*
X269423D01*
X268898Y153018D01*
Y154068D01*
X269423Y154593D01*
X272047Y149345D02*
Y151444D01*
X270472D01*
X270997Y150395D01*
Y149870D01*
X270472Y149345D01*
X269423D01*
X268898Y149870D01*
Y150919D01*
X269423Y151444D01*
X268898Y144749D02*
X272047D01*
Y143175D01*
X271522Y142650D01*
X270472D01*
X269948Y143175D01*
Y144749D01*
Y143700D02*
X268898Y142650D01*
X272047Y139502D02*
Y141601D01*
X270472D01*
X270997Y140551D01*
Y140026D01*
X270472Y139502D01*
X269423D01*
X268898Y140026D01*
Y141076D01*
X269423Y141601D01*
X271522Y138452D02*
X272047Y137927D01*
Y136878D01*
X271522Y136353D01*
X270997D01*
X270472Y136878D01*
Y137403D01*
Y136878D01*
X269948Y136353D01*
X269423D01*
X268898Y136878D01*
Y137927D01*
X269423Y138452D01*
X120211Y198819D02*
Y201968D01*
X121786D01*
X122310Y201443D01*
Y200394D01*
X121786Y199869D01*
X120211D01*
X121261D02*
X122310Y198819D01*
X125459Y201968D02*
X123360D01*
Y200394D01*
X124409Y200919D01*
X124934D01*
X125459Y200394D01*
Y199344D01*
X124934Y198819D01*
X123885D01*
X123360Y199344D01*
X128608Y198819D02*
X126508D01*
X128608Y200919D01*
Y201443D01*
X128083Y201968D01*
X127033D01*
X126508Y201443D01*
X149213Y202623D02*
X152362D01*
Y201049D01*
X151837Y200524D01*
X150787D01*
X150263Y201049D01*
Y202623D01*
Y201574D02*
X149213Y200524D01*
Y197900D02*
X152362D01*
X150787Y199475D01*
Y197376D01*
X152362Y196326D02*
Y194227D01*
X151837D01*
X149738Y196326D01*
X149213D01*
X211550Y161024D02*
Y164173D01*
X213124D01*
X213649Y163648D01*
Y162598D01*
X213124Y162074D01*
X211550D01*
X212599D02*
X213649Y161024D01*
X216273D02*
Y164173D01*
X214699Y162598D01*
X216798D01*
X219421Y161024D02*
Y164173D01*
X217847Y162598D01*
X219946D01*
X253676Y161024D02*
Y164173D01*
X255250D01*
X255775Y163648D01*
Y162598D01*
X255250Y162074D01*
X253676D01*
X254725D02*
X255775Y161024D01*
X258399D02*
Y164173D01*
X256824Y162598D01*
X258924D01*
X259973Y163648D02*
X260498Y164173D01*
X261547D01*
X262072Y163648D01*
Y163123D01*
X261547Y162598D01*
X261023D01*
X261547D01*
X262072Y162074D01*
Y161549D01*
X261547Y161024D01*
X260498D01*
X259973Y161549D01*
X134385Y203150D02*
Y206299D01*
X135959D01*
X136484Y205774D01*
Y204724D01*
X135959Y204200D01*
X134385D01*
X135434D02*
X136484Y203150D01*
X137533Y205774D02*
X138058Y206299D01*
X139107D01*
X139632Y205774D01*
Y205249D01*
X139107Y204724D01*
X138583D01*
X139107D01*
X139632Y204200D01*
Y203675D01*
X139107Y203150D01*
X138058D01*
X137533Y203675D01*
X140682D02*
X141207Y203150D01*
X142256D01*
X142781Y203675D01*
Y205774D01*
X142256Y206299D01*
X141207D01*
X140682Y205774D01*
Y205249D01*
X141207Y204724D01*
X142781D01*
X383071Y49080D02*
X386220D01*
Y47506D01*
X385695Y46981D01*
X384646D01*
X384121Y47506D01*
Y49080D01*
Y48030D02*
X383071Y46981D01*
X385695Y45931D02*
X386220Y45407D01*
Y44357D01*
X385695Y43832D01*
X385170D01*
X384646Y44357D01*
Y44882D01*
Y44357D01*
X384121Y43832D01*
X383596D01*
X383071Y44357D01*
Y45407D01*
X383596Y45931D01*
X385695Y42783D02*
X386220Y42258D01*
Y41208D01*
X385695Y40684D01*
X385170D01*
X384646Y41208D01*
X384121Y40684D01*
X383596D01*
X383071Y41208D01*
Y42258D01*
X383596Y42783D01*
X384121D01*
X384646Y42258D01*
X385170Y42783D01*
X385695D01*
X384646Y42258D02*
Y41208D01*
X358268Y63253D02*
X361417D01*
Y61679D01*
X360892Y61154D01*
X359842D01*
X359318Y61679D01*
Y63253D01*
Y62204D02*
X358268Y61154D01*
X360892Y60105D02*
X361417Y59580D01*
Y58530D01*
X360892Y58006D01*
X360367D01*
X359842Y58530D01*
Y59055D01*
Y58530D01*
X359318Y58006D01*
X358793D01*
X358268Y58530D01*
Y59580D01*
X358793Y60105D01*
X361417Y56956D02*
Y54857D01*
X360892D01*
X358793Y56956D01*
X358268D01*
X344358Y27953D02*
Y31102D01*
X345933D01*
X346458Y30577D01*
Y29528D01*
X345933Y29003D01*
X344358D01*
X345408D02*
X346458Y27953D01*
X347507Y30577D02*
X348032Y31102D01*
X349081D01*
X349606Y30577D01*
Y30052D01*
X349081Y29528D01*
X348556D01*
X349081D01*
X349606Y29003D01*
Y28478D01*
X349081Y27953D01*
X348032D01*
X347507Y28478D01*
X352755Y31102D02*
X350656D01*
Y29528D01*
X351705Y30052D01*
X352230D01*
X352755Y29528D01*
Y28478D01*
X352230Y27953D01*
X351180D01*
X350656Y28478D01*
X352756Y54592D02*
X355905D01*
Y53017D01*
X355380Y52493D01*
X354331D01*
X353806Y53017D01*
Y54592D01*
Y53542D02*
X352756Y52493D01*
X355380Y51443D02*
X355905Y50919D01*
Y49869D01*
X355380Y49344D01*
X354855D01*
X354331Y49869D01*
Y50394D01*
Y49869D01*
X353806Y49344D01*
X353281D01*
X352756Y49869D01*
Y50919D01*
X353281Y51443D01*
X352756Y46720D02*
X355905D01*
X354331Y48295D01*
Y46196D01*
X344227Y22442D02*
Y25590D01*
X345801D01*
X346326Y25065D01*
Y24016D01*
X345801Y23491D01*
X344227D01*
X345277D02*
X346326Y22442D01*
X347376Y25065D02*
X347900Y25590D01*
X348950D01*
X349475Y25065D01*
Y24541D01*
X348950Y24016D01*
X348425D01*
X348950D01*
X349475Y23491D01*
Y22966D01*
X348950Y22442D01*
X347900D01*
X347376Y22966D01*
X350524Y25065D02*
X351049Y25590D01*
X352099D01*
X352623Y25065D01*
Y24541D01*
X352099Y24016D01*
X351574D01*
X352099D01*
X352623Y23491D01*
Y22966D01*
X352099Y22442D01*
X351049D01*
X350524Y22966D01*
X244621Y96851D02*
Y99999D01*
X246195D01*
X246720Y99475D01*
Y98425D01*
X246195Y97900D01*
X244621D01*
X245670D02*
X246720Y96851D01*
X247769Y99475D02*
X248294Y99999D01*
X249344D01*
X249868Y99475D01*
Y98950D01*
X249344Y98425D01*
X248819D01*
X249344D01*
X249868Y97900D01*
Y97376D01*
X249344Y96851D01*
X248294D01*
X247769Y97376D01*
X253017Y96851D02*
X250918D01*
X253017Y98950D01*
Y99475D01*
X252492Y99999D01*
X251443D01*
X250918Y99475D01*
X238322Y58268D02*
Y61417D01*
X239896D01*
X240421Y60892D01*
Y59842D01*
X239896Y59318D01*
X238322D01*
X239371D02*
X240421Y58268D01*
X241470Y60892D02*
X241995Y61417D01*
X243044D01*
X243569Y60892D01*
Y60367D01*
X243044Y59842D01*
X242520D01*
X243044D01*
X243569Y59318D01*
Y58793D01*
X243044Y58268D01*
X241995D01*
X241470Y58793D01*
X244619Y60892D02*
X245144Y61417D01*
X246193D01*
X246718Y60892D01*
Y58793D01*
X246193Y58268D01*
X245144D01*
X244619Y58793D01*
Y60892D01*
X43308Y10104D02*
X46456D01*
Y8529D01*
X45931Y8005D01*
X44882D01*
X44357Y8529D01*
Y10104D01*
Y9054D02*
X43308Y8005D01*
Y4856D02*
Y6955D01*
X45407Y4856D01*
X45931D01*
X46456Y5381D01*
Y6430D01*
X45931Y6955D01*
Y3806D02*
X46456Y3282D01*
Y2232D01*
X45931Y1707D01*
X45407D01*
X44882Y2232D01*
X44357Y1707D01*
X43832D01*
X43308Y2232D01*
Y3282D01*
X43832Y3806D01*
X44357D01*
X44882Y3282D01*
X45407Y3806D01*
X45931D01*
X44882Y3282D02*
Y2232D01*
X44882Y162859D02*
X48031D01*
Y161285D01*
X47506Y160760D01*
X46457D01*
X45932Y161285D01*
Y162859D01*
Y161810D02*
X44882Y160760D01*
Y157612D02*
Y159711D01*
X46981Y157612D01*
X47506D01*
X48031Y158137D01*
Y159186D01*
X47506Y159711D01*
X48031Y156562D02*
Y154463D01*
X47506D01*
X45407Y156562D01*
X44882D01*
X68637Y146457D02*
Y149606D01*
X70211D01*
X70736Y149081D01*
Y148031D01*
X70211Y147507D01*
X68637D01*
X69686D02*
X70736Y146457D01*
X73884D02*
X71785D01*
X73884Y148556D01*
Y149081D01*
X73359Y149606D01*
X72310D01*
X71785Y149081D01*
X77033Y149606D02*
X75983Y149081D01*
X74934Y148031D01*
Y146982D01*
X75459Y146457D01*
X76508D01*
X77033Y146982D01*
Y147507D01*
X76508Y148031D01*
X74934D01*
X71392Y151969D02*
Y155118D01*
X72967D01*
X73492Y154593D01*
Y153543D01*
X72967Y153019D01*
X71392D01*
X72442D02*
X73492Y151969D01*
X76640D02*
X74541D01*
X76640Y154068D01*
Y154593D01*
X76115Y155118D01*
X75066D01*
X74541Y154593D01*
X79789Y155118D02*
X77690D01*
Y153543D01*
X78739Y154068D01*
X79264D01*
X79789Y153543D01*
Y152494D01*
X79264Y151969D01*
X78214D01*
X77690Y152494D01*
X98558Y119292D02*
Y122440D01*
X100132D01*
X100657Y121916D01*
Y120866D01*
X100132Y120341D01*
X98558D01*
X99607D02*
X100657Y119292D01*
X103805D02*
X101706D01*
X103805Y121391D01*
Y121916D01*
X103281Y122440D01*
X102231D01*
X101706Y121916D01*
X106429Y119292D02*
Y122440D01*
X104855Y120866D01*
X106954D01*
X57219Y-40157D02*
Y-37008D01*
X58793D01*
X59318Y-37533D01*
Y-38583D01*
X58793Y-39107D01*
X57219D01*
X58269D02*
X59318Y-40157D01*
X62467D02*
X60368D01*
X62467Y-38058D01*
Y-37533D01*
X61942Y-37008D01*
X60893D01*
X60368Y-37533D01*
X63516D02*
X64041Y-37008D01*
X65091D01*
X65615Y-37533D01*
Y-38058D01*
X65091Y-38583D01*
X64566D01*
X65091D01*
X65615Y-39107D01*
Y-39632D01*
X65091Y-40157D01*
X64041D01*
X63516Y-39632D01*
X67259Y-29330D02*
Y-26182D01*
X68833D01*
X69358Y-26706D01*
Y-27756D01*
X68833Y-28281D01*
X67259D01*
X68308D02*
X69358Y-29330D01*
X72506D02*
X70407D01*
X72506Y-27231D01*
Y-26706D01*
X71982Y-26182D01*
X70932D01*
X70407Y-26706D01*
X75655Y-29330D02*
X73556D01*
X75655Y-27231D01*
Y-26706D01*
X75130Y-26182D01*
X74080D01*
X73556Y-26706D01*
X101575Y-13256D02*
X104724D01*
Y-14830D01*
X104199Y-15355D01*
X103150D01*
X102625Y-14830D01*
Y-13256D01*
Y-14305D02*
X101575Y-15355D01*
Y-18503D02*
Y-16404D01*
X103674Y-18503D01*
X104199D01*
X104724Y-17979D01*
Y-16929D01*
X104199Y-16404D01*
X101575Y-19553D02*
Y-20603D01*
Y-20078D01*
X104724D01*
X104199Y-19553D01*
X74542Y-86220D02*
Y-83071D01*
X76116D01*
X76641Y-83596D01*
Y-84646D01*
X76116Y-85170D01*
X74542D01*
X75592D02*
X76641Y-86220D01*
X79790D02*
X77691D01*
X79790Y-84121D01*
Y-83596D01*
X79265Y-83071D01*
X78215D01*
X77691Y-83596D01*
X80839D02*
X81364Y-83071D01*
X82414D01*
X82938Y-83596D01*
Y-85695D01*
X82414Y-86220D01*
X81364D01*
X80839Y-85695D01*
Y-83596D01*
X101969Y-27167D02*
X105118D01*
Y-28741D01*
X104593Y-29266D01*
X103543D01*
X103019Y-28741D01*
Y-27167D01*
Y-28216D02*
X101969Y-29266D01*
Y-30315D02*
Y-31365D01*
Y-30840D01*
X105118D01*
X104593Y-30315D01*
X102494Y-32939D02*
X101969Y-33464D01*
Y-34513D01*
X102494Y-35038D01*
X104593D01*
X105118Y-34513D01*
Y-33464D01*
X104593Y-32939D01*
X104068D01*
X103543Y-33464D01*
Y-35038D01*
X53151Y-48425D02*
Y-45276D01*
X54725D01*
X55250Y-45801D01*
Y-46850D01*
X54725Y-47375D01*
X53151D01*
X54200D02*
X55250Y-48425D01*
X56300D02*
X57349D01*
X56824D01*
Y-45276D01*
X56300Y-45801D01*
X58923D02*
X59448Y-45276D01*
X60498D01*
X61022Y-45801D01*
Y-46326D01*
X60498Y-46850D01*
X61022Y-47375D01*
Y-47900D01*
X60498Y-48425D01*
X59448D01*
X58923Y-47900D01*
Y-47375D01*
X59448Y-46850D01*
X58923Y-46326D01*
Y-45801D01*
X59448Y-46850D02*
X60498D01*
X226772Y-37009D02*
X229921D01*
Y-38583D01*
X229396Y-39108D01*
X228346D01*
X227822Y-38583D01*
Y-37009D01*
Y-38059D02*
X226772Y-39108D01*
Y-40158D02*
Y-41207D01*
Y-40683D01*
X229921D01*
X229396Y-40158D01*
X229921Y-42782D02*
Y-44881D01*
X229396D01*
X227297Y-42782D01*
X226772D01*
X231890Y-37009D02*
X235039D01*
Y-38583D01*
X234514Y-39108D01*
X233465D01*
X232940Y-38583D01*
Y-37009D01*
Y-38059D02*
X231890Y-39108D01*
Y-40158D02*
Y-41207D01*
Y-40683D01*
X235039D01*
X234514Y-40158D01*
X231890Y-44356D02*
X235039D01*
X233465Y-42782D01*
Y-44881D01*
X151182Y-8267D02*
Y-5119D01*
X152757D01*
X153281Y-5643D01*
Y-6693D01*
X152757Y-7218D01*
X151182D01*
X152232D02*
X153281Y-8267D01*
X154331D02*
X155380D01*
X154856D01*
Y-5119D01*
X154331Y-5643D01*
X159054Y-8267D02*
X156955D01*
X159054Y-6168D01*
Y-5643D01*
X158529Y-5119D01*
X157480D01*
X156955Y-5643D01*
X237008Y-37140D02*
X240157D01*
Y-38715D01*
X239632Y-39239D01*
X238583D01*
X238058Y-38715D01*
Y-37140D01*
Y-38190D02*
X237008Y-39239D01*
Y-40289D02*
Y-41338D01*
Y-40814D01*
X240157D01*
X239632Y-40289D01*
X237008Y-42913D02*
Y-43962D01*
Y-43437D01*
X240157D01*
X239632Y-42913D01*
X235959Y-66929D02*
Y-63780D01*
X237533D01*
X238058Y-64305D01*
Y-65354D01*
X237533Y-65879D01*
X235959D01*
X237008D02*
X238058Y-66929D01*
X239107Y-66404D02*
X239632Y-66929D01*
X240682D01*
X241207Y-66404D01*
Y-64305D01*
X240682Y-63780D01*
X239632D01*
X239107Y-64305D01*
Y-64830D01*
X239632Y-65354D01*
X241207D01*
X130250Y-40944D02*
Y-37796D01*
X131825D01*
X132349Y-38320D01*
Y-39370D01*
X131825Y-39895D01*
X130250D01*
X131300D02*
X132349Y-40944D01*
X133399Y-38320D02*
X133924Y-37796D01*
X134973D01*
X135498Y-38320D01*
Y-38845D01*
X134973Y-39370D01*
X135498Y-39895D01*
Y-40420D01*
X134973Y-40944D01*
X133924D01*
X133399Y-40420D01*
Y-39895D01*
X133924Y-39370D01*
X133399Y-38845D01*
Y-38320D01*
X133924Y-39370D02*
X134973D01*
X223028Y-24360D02*
Y-21211D01*
X224602D01*
X225127Y-21736D01*
Y-22785D01*
X224602Y-23310D01*
X223028D01*
X224077D02*
X225127Y-24360D01*
X228275Y-21211D02*
X227226Y-21736D01*
X226176Y-22785D01*
Y-23835D01*
X226701Y-24360D01*
X227750D01*
X228275Y-23835D01*
Y-23310D01*
X227750Y-22785D01*
X226176D01*
X130250Y-45866D02*
Y-42717D01*
X131825D01*
X132349Y-43242D01*
Y-44291D01*
X131825Y-44816D01*
X130250D01*
X131300D02*
X132349Y-45866D01*
X135498Y-42717D02*
X133399D01*
Y-44291D01*
X134448Y-43767D01*
X134973D01*
X135498Y-44291D01*
Y-45341D01*
X134973Y-45866D01*
X133924D01*
X133399Y-45341D01*
X131234Y-84251D02*
Y-81103D01*
X132809D01*
X133334Y-81628D01*
Y-82677D01*
X132809Y-83202D01*
X131234D01*
X132284D02*
X133334Y-84251D01*
X135957D02*
Y-81103D01*
X134383Y-82677D01*
X136482D01*
X130250Y-55708D02*
Y-52560D01*
X131825D01*
X132349Y-53084D01*
Y-54134D01*
X131825Y-54659D01*
X130250D01*
X131300D02*
X132349Y-55708D01*
X135498D02*
X133399D01*
X135498Y-53609D01*
Y-53084D01*
X134973Y-52560D01*
X133924D01*
X133399Y-53084D01*
X128347Y-10893D02*
X131496D01*
Y-12467D01*
X130971Y-12992D01*
X129921D01*
X129396Y-12467D01*
Y-10893D01*
Y-11943D02*
X128347Y-12992D01*
Y-14042D02*
Y-15091D01*
Y-14566D01*
X131496D01*
X130971Y-14042D01*
X108137Y-10892D02*
Y-8793D01*
X107612Y-8268D01*
X106562D01*
X106038Y-8793D01*
Y-10892D01*
X106562Y-11417D01*
X107612D01*
X107087Y-10367D02*
X108137Y-11417D01*
X107612D02*
X108137Y-10892D01*
X111285Y-11417D02*
X109186D01*
X111285Y-9318D01*
Y-8793D01*
X110760Y-8268D01*
X109711D01*
X109186Y-8793D01*
X110236Y-45931D02*
Y-43832D01*
X109712Y-43308D01*
X108662D01*
X108137Y-43832D01*
Y-45931D01*
X108662Y-46456D01*
X109712D01*
X109187Y-45407D02*
X110236Y-46456D01*
X109712D02*
X110236Y-45931D01*
X111286Y-46456D02*
X112335D01*
X111811D01*
Y-43308D01*
X111286Y-43832D01*
X359581Y173623D02*
Y176771D01*
X361155D01*
X361680Y176246D01*
Y175197D01*
X361155Y174672D01*
X359581D01*
X362730Y176771D02*
X364828D01*
Y176246D01*
X362730Y174147D01*
Y173623D01*
X345014D02*
Y176771D01*
X346588D01*
X347113Y176246D01*
Y175197D01*
X346588Y174672D01*
X345014D01*
X350262Y176771D02*
X349212Y176246D01*
X348163Y175197D01*
Y174147D01*
X348687Y173623D01*
X349737D01*
X350262Y174147D01*
Y174672D01*
X349737Y175197D01*
X348163D01*
X281235Y212205D02*
Y215354D01*
X282809D01*
X283333Y214829D01*
Y213779D01*
X282809Y213255D01*
X281235D01*
X285957Y212205D02*
Y215354D01*
X284383Y213779D01*
X286482D01*
X69030Y212205D02*
Y215354D01*
X70604D01*
X71129Y214829D01*
Y213779D01*
X70604Y213255D01*
X69030D01*
X72178Y214829D02*
X72703Y215354D01*
X73753D01*
X74277Y214829D01*
Y214304D01*
X73753Y213779D01*
X73228D01*
X73753D01*
X74277Y213255D01*
Y212730D01*
X73753Y212205D01*
X72703D01*
X72178Y212730D01*
X234428Y-20911D02*
Y-24060D01*
X236527D01*
X239675Y-20911D02*
X237576D01*
Y-24060D01*
X239675D01*
X237576Y-22486D02*
X238626D01*
X240725Y-20911D02*
Y-24060D01*
X242299D01*
X242824Y-23535D01*
Y-21436D01*
X242299Y-20911D01*
X240725D01*
X243873Y-24060D02*
X244923D01*
X244398D01*
Y-20911D01*
X243873Y-21436D01*
X376969Y69488D02*
X374869D01*
Y67913D01*
X375919D01*
X374869D01*
Y66339D01*
X378018D02*
X379068D01*
X378543D01*
Y69488D01*
X378018Y68963D01*
X332809Y105118D02*
Y101969D01*
X334384D01*
X334908Y102494D01*
Y104593D01*
X334384Y105118D01*
X332809D01*
X338057Y101969D02*
X335958D01*
X338057Y104068D01*
Y104593D01*
X337532Y105118D01*
X336483D01*
X335958Y104593D01*
X255381Y2755D02*
Y-393D01*
X256956D01*
X257480Y132D01*
Y2231D01*
X256956Y2755D01*
X255381D01*
X258530Y-393D02*
X259579D01*
X259055D01*
Y2755D01*
X258530Y2231D01*
X342782Y126115D02*
X343307Y126640D01*
Y127689D01*
X342782Y128214D01*
X340683D01*
X340158Y127689D01*
Y126640D01*
X340683Y126115D01*
Y125065D02*
X340158Y124540D01*
Y123491D01*
X340683Y122966D01*
X342782D01*
X343307Y123491D01*
Y124540D01*
X342782Y125065D01*
X342257D01*
X341732Y124540D01*
Y122966D01*
X342782Y121917D02*
X343307Y121392D01*
Y120342D01*
X342782Y119818D01*
X342257D01*
X341732Y120342D01*
X341208Y119818D01*
X340683D01*
X340158Y120342D01*
Y121392D01*
X340683Y121917D01*
X341208D01*
X341732Y121392D01*
X342257Y121917D01*
X342782D01*
X341732Y121392D02*
Y120342D01*
X342388Y161154D02*
X342913Y161679D01*
Y162729D01*
X342388Y163253D01*
X340289D01*
X339764Y162729D01*
Y161679D01*
X340289Y161154D01*
Y160105D02*
X339764Y159580D01*
Y158530D01*
X340289Y158006D01*
X342388D01*
X342913Y158530D01*
Y159580D01*
X342388Y160105D01*
X341863D01*
X341339Y159580D01*
Y158006D01*
X342913Y156956D02*
Y154857D01*
X342388D01*
X340289Y156956D01*
X339764D01*
X377428Y134382D02*
X377952Y134907D01*
Y135957D01*
X377428Y136482D01*
X375328D01*
X374804Y135957D01*
Y134907D01*
X375328Y134382D01*
Y133333D02*
X374804Y132808D01*
Y131759D01*
X375328Y131234D01*
X377428D01*
X377952Y131759D01*
Y132808D01*
X377428Y133333D01*
X376903D01*
X376378Y132808D01*
Y131234D01*
X377952Y128085D02*
X377428Y129135D01*
X376378Y130184D01*
X375328D01*
X374804Y129660D01*
Y128610D01*
X375328Y128085D01*
X375853D01*
X376378Y128610D01*
Y130184D01*
X377034Y145800D02*
X377558Y146325D01*
Y147374D01*
X377034Y147899D01*
X374935D01*
X374410Y147374D01*
Y146325D01*
X374935Y145800D01*
Y144750D02*
X374410Y144226D01*
Y143176D01*
X374935Y142651D01*
X377034D01*
X377558Y143176D01*
Y144226D01*
X377034Y144750D01*
X376509D01*
X375984Y144226D01*
Y142651D01*
X377558Y139503D02*
Y141602D01*
X375984D01*
X376509Y140552D01*
Y140027D01*
X375984Y139503D01*
X374935D01*
X374410Y140027D01*
Y141077D01*
X374935Y141602D01*
X329397Y125853D02*
X328872Y126377D01*
X327823D01*
X327298Y125853D01*
Y123754D01*
X327823Y123229D01*
X328872D01*
X329397Y123754D01*
X330447D02*
X330971Y123229D01*
X332021D01*
X332546Y123754D01*
Y125853D01*
X332021Y126377D01*
X330971D01*
X330447Y125853D01*
Y125328D01*
X330971Y124803D01*
X332546D01*
X335169Y123229D02*
Y126377D01*
X333595Y124803D01*
X335694D01*
X297113Y190813D02*
X296589Y191338D01*
X295539D01*
X295015Y190813D01*
Y188714D01*
X295539Y188189D01*
X296589D01*
X297113Y188714D01*
X298163D02*
X298688Y188189D01*
X299737D01*
X300262Y188714D01*
Y190813D01*
X299737Y191338D01*
X298688D01*
X298163Y190813D01*
Y190289D01*
X298688Y189764D01*
X300262D01*
X301312Y190813D02*
X301836Y191338D01*
X302886D01*
X303411Y190813D01*
Y190289D01*
X302886Y189764D01*
X302361D01*
X302886D01*
X303411Y189239D01*
Y188714D01*
X302886Y188189D01*
X301836D01*
X301312Y188714D01*
X329397Y136089D02*
X328872Y136614D01*
X327823D01*
X327298Y136089D01*
Y133990D01*
X327823Y133465D01*
X328872D01*
X329397Y133990D01*
X330447D02*
X330971Y133465D01*
X332021D01*
X332546Y133990D01*
Y136089D01*
X332021Y136614D01*
X330971D01*
X330447Y136089D01*
Y135564D01*
X330971Y135039D01*
X332546D01*
X335694Y133465D02*
X333595D01*
X335694Y135564D01*
Y136089D01*
X335169Y136614D01*
X334120D01*
X333595Y136089D01*
X329791Y155774D02*
X329266Y156299D01*
X328216D01*
X327692Y155774D01*
Y153675D01*
X328216Y153150D01*
X329266D01*
X329791Y153675D01*
X330840D02*
X331365Y153150D01*
X332415D01*
X332939Y153675D01*
Y155774D01*
X332415Y156299D01*
X331365D01*
X330840Y155774D01*
Y155249D01*
X331365Y154724D01*
X332939D01*
X333989Y155774D02*
X334514Y156299D01*
X335563D01*
X336088Y155774D01*
Y153675D01*
X335563Y153150D01*
X334514D01*
X333989Y153675D01*
Y155774D01*
X329397Y166010D02*
X328872Y166535D01*
X327823D01*
X327298Y166010D01*
Y163911D01*
X327823Y163386D01*
X328872D01*
X329397Y163911D01*
X330447Y166010D02*
X330971Y166535D01*
X332021D01*
X332546Y166010D01*
Y165485D01*
X332021Y164961D01*
X332546Y164436D01*
Y163911D01*
X332021Y163386D01*
X330971D01*
X330447Y163911D01*
Y164436D01*
X330971Y164961D01*
X330447Y165485D01*
Y166010D01*
X330971Y164961D02*
X332021D01*
X333595Y163911D02*
X334120Y163386D01*
X335169D01*
X335694Y163911D01*
Y166010D01*
X335169Y166535D01*
X334120D01*
X333595Y166010D01*
Y165485D01*
X334120Y164961D01*
X335694D01*
X333727Y184776D02*
X334251Y185301D01*
Y186351D01*
X333727Y186875D01*
X331628D01*
X331103Y186351D01*
Y185301D01*
X331628Y184776D01*
X333727Y183727D02*
X334251Y183202D01*
Y182152D01*
X333727Y181628D01*
X333202D01*
X332677Y182152D01*
X332152Y181628D01*
X331628D01*
X331103Y182152D01*
Y183202D01*
X331628Y183727D01*
X332152D01*
X332677Y183202D01*
X333202Y183727D01*
X333727D01*
X332677Y183202D02*
Y182152D01*
X333727Y180578D02*
X334251Y180053D01*
Y179004D01*
X333727Y178479D01*
X333202D01*
X332677Y179004D01*
X332152Y178479D01*
X331628D01*
X331103Y179004D01*
Y180053D01*
X331628Y180578D01*
X332152D01*
X332677Y180053D01*
X333202Y180578D01*
X333727D01*
X332677Y180053D02*
Y179004D01*
X3413Y151049D02*
X2888Y151574D01*
X1839D01*
X1314Y151049D01*
Y148951D01*
X1839Y148426D01*
X2888D01*
X3413Y148951D01*
X4462Y151049D02*
X4987Y151574D01*
X6037D01*
X6561Y151049D01*
Y150525D01*
X6037Y150000D01*
X6561Y149475D01*
Y148951D01*
X6037Y148426D01*
X4987D01*
X4462Y148951D01*
Y149475D01*
X4987Y150000D01*
X4462Y150525D01*
Y151049D01*
X4987Y150000D02*
X6037D01*
X7611Y151049D02*
X8136Y151574D01*
X9185D01*
X9710Y151049D01*
Y150525D01*
X9185Y150000D01*
X8660D01*
X9185D01*
X9710Y149475D01*
Y148951D01*
X9185Y148426D01*
X8136D01*
X7611Y148951D01*
X80578Y143175D02*
X80053Y143700D01*
X79004D01*
X78479Y143175D01*
Y141077D01*
X79004Y140552D01*
X80053D01*
X80578Y141077D01*
X81628Y143700D02*
X83727D01*
Y143175D01*
X81628Y141077D01*
Y140552D01*
X84776Y143700D02*
X86875D01*
Y143175D01*
X84776Y141077D01*
Y140552D01*
X36381Y148201D02*
X35856Y148726D01*
X34806D01*
X34282Y148201D01*
Y146102D01*
X34806Y145577D01*
X35856D01*
X36381Y146102D01*
X37430Y148726D02*
X39529D01*
Y148201D01*
X37430Y146102D01*
Y145577D01*
X42678Y148726D02*
X41628Y148201D01*
X40579Y147152D01*
Y146102D01*
X41104Y145577D01*
X42153D01*
X42678Y146102D01*
Y146627D01*
X42153Y147152D01*
X40579D01*
X25460Y143963D02*
X24935Y144488D01*
X23886D01*
X23361Y143963D01*
Y141864D01*
X23886Y141339D01*
X24935D01*
X25460Y141864D01*
X26509Y144488D02*
X28609D01*
Y143963D01*
X26509Y141864D01*
Y141339D01*
X31757Y144488D02*
X29658D01*
Y142913D01*
X30708Y143438D01*
X31232D01*
X31757Y142913D01*
Y141864D01*
X31232Y141339D01*
X30183D01*
X29658Y141864D01*
X21523Y26246D02*
X20998Y26771D01*
X19949D01*
X19424Y26246D01*
Y24147D01*
X19949Y23623D01*
X20998D01*
X21523Y24147D01*
X22572Y26771D02*
X24672D01*
Y26246D01*
X22572Y24147D01*
Y23623D01*
X25721Y26246D02*
X26246Y26771D01*
X27295D01*
X27820Y26246D01*
Y25722D01*
X27295Y25197D01*
X26771D01*
X27295D01*
X27820Y24672D01*
Y24147D01*
X27295Y23623D01*
X26246D01*
X25721Y24147D01*
X27560Y152624D02*
X27035Y153149D01*
X25985D01*
X25460Y152624D01*
Y150525D01*
X25985Y150001D01*
X27035D01*
X27560Y150525D01*
X28609Y153149D02*
X30708D01*
Y152624D01*
X28609Y150525D01*
Y150001D01*
X31758D02*
X32807D01*
X32283D01*
Y153149D01*
X31758Y152624D01*
X182152Y112335D02*
X182677Y112860D01*
Y113910D01*
X182152Y114434D01*
X180053D01*
X179528Y113910D01*
Y112860D01*
X180053Y112335D01*
X182677Y109187D02*
X182152Y110236D01*
X181102Y111286D01*
X180053D01*
X179528Y110761D01*
Y109711D01*
X180053Y109187D01*
X180578D01*
X181102Y109711D01*
Y111286D01*
X182677Y106038D02*
X182152Y107088D01*
X181102Y108137D01*
X180053D01*
X179528Y107612D01*
Y106563D01*
X180053Y106038D01*
X180578D01*
X181102Y106563D01*
Y108137D01*
X125065Y104855D02*
X125590Y105380D01*
Y106429D01*
X125065Y106954D01*
X122966D01*
X122441Y106429D01*
Y105380D01*
X122966Y104855D01*
X125590Y101706D02*
X125065Y102756D01*
X124016Y103805D01*
X122966D01*
X122441Y103281D01*
Y102231D01*
X122966Y101706D01*
X123491D01*
X124016Y102231D01*
Y103805D01*
X125065Y100657D02*
X125590Y100132D01*
Y99082D01*
X125065Y98558D01*
X124540D01*
X124016Y99082D01*
Y99607D01*
Y99082D01*
X123491Y98558D01*
X122966D01*
X122441Y99082D01*
Y100132D01*
X122966Y100657D01*
X255380Y126115D02*
X255905Y126640D01*
Y127689D01*
X255380Y128214D01*
X253281D01*
X252756Y127689D01*
Y126640D01*
X253281Y126115D01*
X255905Y122966D02*
X255380Y124016D01*
X254331Y125065D01*
X253281D01*
X252756Y124540D01*
Y123491D01*
X253281Y122966D01*
X253806D01*
X254331Y123491D01*
Y125065D01*
X252756Y119818D02*
Y121917D01*
X254855Y119818D01*
X255380D01*
X255905Y120342D01*
Y121392D01*
X255380Y121917D01*
X225197Y113648D02*
X224673Y114173D01*
X223623D01*
X223098Y113648D01*
Y111549D01*
X223623Y111024D01*
X224673D01*
X225197Y111549D01*
X228346Y114173D02*
X227296Y113648D01*
X226247Y112598D01*
Y111549D01*
X226772Y111024D01*
X227821D01*
X228346Y111549D01*
Y112074D01*
X227821Y112598D01*
X226247D01*
X229396Y111024D02*
X230445D01*
X229920D01*
Y114173D01*
X229396Y113648D01*
X243964D02*
X243439Y114173D01*
X242390D01*
X241865Y113648D01*
Y111549D01*
X242390Y111024D01*
X243439D01*
X243964Y111549D01*
X247112Y114173D02*
X246063Y113648D01*
X245013Y112598D01*
Y111549D01*
X245538Y111024D01*
X246588D01*
X247112Y111549D01*
Y112074D01*
X246588Y112598D01*
X245013D01*
X248162Y113648D02*
X248687Y114173D01*
X249736D01*
X250261Y113648D01*
Y111549D01*
X249736Y111024D01*
X248687D01*
X248162Y111549D01*
Y113648D01*
X237271Y151837D02*
X236746Y152362D01*
X235697D01*
X235172Y151837D01*
Y149738D01*
X235697Y149213D01*
X236746D01*
X237271Y149738D01*
X240420Y152362D02*
X238321D01*
Y150787D01*
X239370Y151312D01*
X239895D01*
X240420Y150787D01*
Y149738D01*
X239895Y149213D01*
X238845D01*
X238321Y149738D01*
X241469D02*
X241994Y149213D01*
X243043D01*
X243568Y149738D01*
Y151837D01*
X243043Y152362D01*
X241994D01*
X241469Y151837D01*
Y151312D01*
X241994Y150787D01*
X243568D01*
X181758Y181233D02*
X182283Y181758D01*
Y182807D01*
X181758Y183332D01*
X179659D01*
X179134Y182807D01*
Y181758D01*
X179659Y181233D01*
X182283Y178084D02*
Y180183D01*
X180709D01*
X181233Y179134D01*
Y178609D01*
X180709Y178084D01*
X179659D01*
X179134Y178609D01*
Y179659D01*
X179659Y180183D01*
X179134Y175461D02*
X182283D01*
X180709Y177035D01*
Y174936D01*
X193175Y137138D02*
X193700Y137663D01*
Y138713D01*
X193175Y139237D01*
X191077D01*
X190552Y138713D01*
Y137663D01*
X191077Y137138D01*
X193700Y133990D02*
Y136089D01*
X192126D01*
X192651Y135039D01*
Y134515D01*
X192126Y133990D01*
X191077D01*
X190552Y134515D01*
Y135564D01*
X191077Y136089D01*
X190552Y130841D02*
Y132940D01*
X192651Y130841D01*
X193175D01*
X193700Y131366D01*
Y132415D01*
X193175Y132940D01*
X198294Y137138D02*
X198818Y137663D01*
Y138713D01*
X198294Y139237D01*
X196195D01*
X195670Y138713D01*
Y137663D01*
X196195Y137138D01*
X198818Y133990D02*
Y136089D01*
X197244D01*
X197769Y135039D01*
Y134515D01*
X197244Y133990D01*
X196195D01*
X195670Y134515D01*
Y135564D01*
X196195Y136089D01*
X198294Y132940D02*
X198818Y132415D01*
Y131366D01*
X198294Y130841D01*
X196195D01*
X195670Y131366D01*
Y132415D01*
X196195Y132940D01*
X198294D01*
X260892Y152099D02*
X261417Y152624D01*
Y153673D01*
X260892Y154198D01*
X258793D01*
X258268Y153673D01*
Y152624D01*
X258793Y152099D01*
X258268Y149475D02*
X261417D01*
X259842Y151049D01*
Y148951D01*
X258793Y147901D02*
X258268Y147376D01*
Y146327D01*
X258793Y145802D01*
X260892D01*
X261417Y146327D01*
Y147376D01*
X260892Y147901D01*
X260367D01*
X259842Y147376D01*
Y145802D01*
X108137Y158530D02*
X107612Y159055D01*
X106563D01*
X106038Y158530D01*
Y156431D01*
X106563Y155906D01*
X107612D01*
X108137Y156431D01*
X110761Y155906D02*
Y159055D01*
X109187Y157480D01*
X111286D01*
X113910Y155906D02*
Y159055D01*
X112335Y157480D01*
X114434D01*
X121917Y197113D02*
X121392Y197637D01*
X120342D01*
X119818Y197113D01*
Y195013D01*
X120342Y194489D01*
X121392D01*
X121917Y195013D01*
X124540Y194489D02*
Y197637D01*
X122966Y196063D01*
X125065D01*
X128214Y194489D02*
X126115D01*
X128214Y196588D01*
Y197113D01*
X127689Y197637D01*
X126640D01*
X126115Y197113D01*
X158530Y204330D02*
X159055Y204855D01*
Y205905D01*
X158530Y206429D01*
X156431D01*
X155906Y205905D01*
Y204855D01*
X156431Y204330D01*
X155906Y201706D02*
X159055D01*
X157480Y203281D01*
Y201182D01*
X155906Y200132D02*
Y199083D01*
Y199607D01*
X159055D01*
X158530Y200132D01*
X181365Y208398D02*
X181889Y208923D01*
Y209973D01*
X181365Y210497D01*
X179265D01*
X178741Y209973D01*
Y208923D01*
X179265Y208398D01*
X181365Y207349D02*
X181889Y206824D01*
Y205774D01*
X181365Y205250D01*
X180840D01*
X180315Y205774D01*
Y206299D01*
Y205774D01*
X179790Y205250D01*
X179265D01*
X178741Y205774D01*
Y206824D01*
X179265Y207349D01*
X181889Y204200D02*
Y202101D01*
X181365D01*
X179265Y204200D01*
X178741D01*
X123491Y132020D02*
X124015Y132545D01*
Y133595D01*
X123491Y134119D01*
X121391D01*
X120867Y133595D01*
Y132545D01*
X121391Y132020D01*
X123491Y130971D02*
X124015Y130446D01*
Y129396D01*
X123491Y128872D01*
X122966D01*
X122441Y129396D01*
Y129921D01*
Y129396D01*
X121916Y128872D01*
X121391D01*
X120867Y129396D01*
Y130446D01*
X121391Y130971D01*
X124015Y125723D02*
X123491Y126773D01*
X122441Y127822D01*
X121391D01*
X120867Y127297D01*
Y126248D01*
X121391Y125723D01*
X121916D01*
X122441Y126248D01*
Y127822D01*
X130577Y123359D02*
X131102Y123884D01*
Y124933D01*
X130577Y125458D01*
X128478D01*
X127953Y124933D01*
Y123884D01*
X128478Y123359D01*
X130577Y122309D02*
X131102Y121785D01*
Y120735D01*
X130577Y120210D01*
X130052D01*
X129528Y120735D01*
Y121260D01*
Y120735D01*
X129003Y120210D01*
X128478D01*
X127953Y120735D01*
Y121785D01*
X128478Y122309D01*
X130577Y119161D02*
X131102Y118636D01*
Y117587D01*
X130577Y117062D01*
X130052D01*
X129528Y117587D01*
Y118111D01*
Y117587D01*
X129003Y117062D01*
X128478D01*
X127953Y117587D01*
Y118636D01*
X128478Y119161D01*
X192783Y213254D02*
X192258Y213779D01*
X191209D01*
X190684Y213254D01*
Y211155D01*
X191209Y210630D01*
X192258D01*
X192783Y211155D01*
X195931Y210630D02*
X193832D01*
X195931Y212730D01*
Y213254D01*
X195407Y213779D01*
X194357D01*
X193832Y213254D01*
X196981D02*
X197506Y213779D01*
X198555D01*
X199080Y213254D01*
Y212730D01*
X198555Y212205D01*
X199080Y211680D01*
Y211155D01*
X198555Y210630D01*
X197506D01*
X196981Y211155D01*
Y211680D01*
X197506Y212205D01*
X196981Y212730D01*
Y213254D01*
X197506Y212205D02*
X198555D01*
X245932Y213254D02*
X245408Y213779D01*
X244358D01*
X243833Y213254D01*
Y211155D01*
X244358Y210630D01*
X245408D01*
X245932Y211155D01*
X249081Y210630D02*
X246982D01*
X249081Y212730D01*
Y213254D01*
X248556Y213779D01*
X247507D01*
X246982Y213254D01*
X250131Y213779D02*
X252230D01*
Y213254D01*
X250131Y211155D01*
Y210630D01*
X302232Y77821D02*
X301707Y78346D01*
X300657D01*
X300133Y77821D01*
Y75722D01*
X300657Y75197D01*
X301707D01*
X302232Y75722D01*
X305380Y75197D02*
X303281D01*
X305380Y77296D01*
Y77821D01*
X304855Y78346D01*
X303806D01*
X303281Y77821D01*
X308004Y75197D02*
Y78346D01*
X306430Y76772D01*
X308529D01*
X346458Y35695D02*
X345933Y36220D01*
X344883D01*
X344358Y35695D01*
Y33596D01*
X344883Y33071D01*
X345933D01*
X346458Y33596D01*
X349606Y33071D02*
X347507D01*
X349606Y35170D01*
Y35695D01*
X349081Y36220D01*
X348032D01*
X347507Y35695D01*
X350656D02*
X351180Y36220D01*
X352230D01*
X352755Y35695D01*
Y35170D01*
X352230Y34646D01*
X351705D01*
X352230D01*
X352755Y34121D01*
Y33596D01*
X352230Y33071D01*
X351180D01*
X350656Y33596D01*
X307744Y34120D02*
X307219Y34645D01*
X306169D01*
X305644Y34120D01*
Y32021D01*
X306169Y31497D01*
X307219D01*
X307744Y32021D01*
X310892Y31497D02*
X308793D01*
X310892Y33596D01*
Y34120D01*
X310367Y34645D01*
X309318D01*
X308793Y34120D01*
X314041Y31497D02*
X311942D01*
X314041Y33596D01*
Y34120D01*
X313516Y34645D01*
X312466D01*
X311942Y34120D01*
X314961Y80183D02*
X314436Y80708D01*
X313387D01*
X312862Y80183D01*
Y78084D01*
X313387Y77560D01*
X314436D01*
X314961Y78084D01*
X318110Y77560D02*
X316011D01*
X318110Y79659D01*
Y80183D01*
X317585Y80708D01*
X316535D01*
X316011Y80183D01*
X319159Y77560D02*
X320209D01*
X319684D01*
Y80708D01*
X319159Y80183D01*
X350459Y73949D02*
X350984Y74474D01*
Y75524D01*
X350459Y76048D01*
X348360D01*
X347835Y75524D01*
Y74474D01*
X348360Y73949D01*
X347835Y70801D02*
Y72900D01*
X349934Y70801D01*
X350459D01*
X350984Y71326D01*
Y72375D01*
X350459Y72900D01*
Y69751D02*
X350984Y69227D01*
Y68177D01*
X350459Y67652D01*
X348360D01*
X347835Y68177D01*
Y69227D01*
X348360Y69751D01*
X350459D01*
X346982Y41207D02*
X346458Y41732D01*
X345408D01*
X344883Y41207D01*
Y39108D01*
X345408Y38583D01*
X346458D01*
X346982Y39108D01*
X348032Y38583D02*
X349081D01*
X348556D01*
Y41732D01*
X348032Y41207D01*
X350656Y39108D02*
X351180Y38583D01*
X352230D01*
X352755Y39108D01*
Y41207D01*
X352230Y41732D01*
X351180D01*
X350656Y41207D01*
Y40682D01*
X351180Y40157D01*
X352755D01*
X307612Y39239D02*
X307087Y39763D01*
X306038D01*
X305513Y39239D01*
Y37139D01*
X306038Y36615D01*
X307087D01*
X307612Y37139D01*
X308662Y36615D02*
X309711D01*
X309186D01*
Y39763D01*
X308662Y39239D01*
X311285Y39763D02*
X313385D01*
Y39239D01*
X311285Y37139D01*
Y36615D01*
X247112Y79002D02*
X247637Y79527D01*
Y80576D01*
X247112Y81101D01*
X245013D01*
X244489Y80576D01*
Y79527D01*
X245013Y79002D01*
X244489Y77952D02*
Y76903D01*
Y77428D01*
X247637D01*
X247112Y77952D01*
X247637Y73230D02*
Y75329D01*
X246063D01*
X246588Y74279D01*
Y73754D01*
X246063Y73230D01*
X245013D01*
X244489Y73754D01*
Y74804D01*
X245013Y75329D01*
X263648Y89238D02*
X264173Y89763D01*
Y90812D01*
X263648Y91337D01*
X261549D01*
X261024Y90812D01*
Y89763D01*
X261549Y89238D01*
X261024Y88189D02*
Y87139D01*
Y87664D01*
X264173D01*
X263648Y88189D01*
X261024Y83991D02*
X264173D01*
X262598Y85565D01*
Y83466D01*
X91470Y-44620D02*
X90946Y-44095D01*
X89896D01*
X89371Y-44620D01*
Y-46719D01*
X89896Y-47244D01*
X90946D01*
X91470Y-46719D01*
X92520Y-47244D02*
X93569D01*
X93045D01*
Y-44095D01*
X92520Y-44620D01*
X95144D02*
X95669Y-44095D01*
X96718D01*
X97243Y-44620D01*
Y-45145D01*
X96718Y-45669D01*
X96193D01*
X96718D01*
X97243Y-46194D01*
Y-46719D01*
X96718Y-47244D01*
X95669D01*
X95144Y-46719D01*
X95801Y-37139D02*
X95276Y-36615D01*
X94227D01*
X93702Y-37139D01*
Y-39239D01*
X94227Y-39763D01*
X95276D01*
X95801Y-39239D01*
X96851Y-39763D02*
X97900D01*
X97375D01*
Y-36615D01*
X96851Y-37139D01*
X101574Y-39763D02*
X99475D01*
X101574Y-37664D01*
Y-37139D01*
X101049Y-36615D01*
X99999D01*
X99475Y-37139D01*
X269627Y73764D02*
X269102Y74289D01*
X268052D01*
X267528Y73764D01*
Y71665D01*
X268052Y71140D01*
X269102D01*
X269627Y71665D01*
X270676Y71140D02*
X271726D01*
X271201D01*
Y74289D01*
X270676Y73764D01*
X273300D02*
X273825Y74289D01*
X274874D01*
X275399Y73764D01*
Y71665D01*
X274874Y71140D01*
X273825D01*
X273300Y71665D01*
Y73764D01*
X225459Y-56168D02*
X225984Y-55643D01*
Y-54594D01*
X225459Y-54069D01*
X223360D01*
X222835Y-54594D01*
Y-55643D01*
X223360Y-56168D01*
X225984Y-57218D02*
Y-59317D01*
X225459D01*
X223360Y-57218D01*
X222835D01*
X259318Y-80446D02*
X258793Y-79922D01*
X257744D01*
X257219Y-80446D01*
Y-82546D01*
X257744Y-83070D01*
X258793D01*
X259318Y-82546D01*
X262466Y-79922D02*
X260367D01*
Y-81496D01*
X261417Y-80971D01*
X261942D01*
X262466Y-81496D01*
Y-82546D01*
X261942Y-83070D01*
X260892D01*
X260367Y-82546D01*
X224672Y-63648D02*
X225196Y-63124D01*
Y-62074D01*
X224672Y-61549D01*
X222572D01*
X222048Y-62074D01*
Y-63124D01*
X222572Y-63648D01*
X222048Y-66272D02*
X225196D01*
X223622Y-64698D01*
Y-66797D01*
X136876Y-12861D02*
X137401Y-12336D01*
Y-11287D01*
X136876Y-10762D01*
X134777D01*
X134253Y-11287D01*
Y-12336D01*
X134777Y-12861D01*
X136876Y-13911D02*
X137401Y-14435D01*
Y-15485D01*
X136876Y-16010D01*
X136352D01*
X135827Y-15485D01*
Y-14960D01*
Y-15485D01*
X135302Y-16010D01*
X134777D01*
X134253Y-15485D01*
Y-14435D01*
X134777Y-13911D01*
X224672Y-87664D02*
X225196Y-87139D01*
Y-86090D01*
X224672Y-85565D01*
X222572D01*
X222048Y-86090D01*
Y-87139D01*
X222572Y-87664D01*
X222048Y-90813D02*
Y-88714D01*
X224147Y-90813D01*
X224672D01*
X225196Y-90288D01*
Y-89239D01*
X224672Y-88714D01*
X248425Y-86352D02*
X247900Y-85827D01*
X246851D01*
X246326Y-86352D01*
Y-88451D01*
X246851Y-88976D01*
X247900D01*
X248425Y-88451D01*
X249475Y-88976D02*
X250524D01*
X249999D01*
Y-85827D01*
X249475Y-86352D01*
D20*
X343228Y62638D02*
Y65197D01*
X340669D02*
X343228D01*
Y45118D02*
Y47677D01*
X340669Y45118D02*
X343228D01*
X323149Y65197D02*
X325709D01*
X323149Y62638D02*
Y65197D01*
Y45118D02*
Y47677D01*
Y45118D02*
X325709D01*
X142421Y-88386D02*
X212972D01*
X142264Y-15748D02*
Y-12795D01*
X152106D01*
X203287D02*
X213130D01*
Y-15748D02*
Y-12795D01*
X142264Y-113189D02*
Y-86614D01*
Y-113189D02*
X213130D01*
Y-86614D01*
X332075Y-12789D02*
X334705Y-15420D01*
X295341Y-54784D02*
X334705Y-15420D01*
X292711Y-52153D02*
X295341Y-54784D01*
X262547Y-4340D02*
X278415Y11528D01*
M02*
