G04*
G04 #@! TF.GenerationSoftware,Altium Limited,Altium Designer,20.0.11 (256)*
G04*
G04 Layer_Physical_Order=2*
G04 Layer_Color=36540*
%FSLAX25Y25*%
%MOIN*%
G70*
G01*
G75*
%ADD143C,0.06693*%
%ADD146C,0.02559*%
%ADD147O,0.09449X0.03543*%
%ADD149C,0.07087*%
%ADD150C,0.09252*%
%ADD154C,0.02362*%
G36*
X298965Y294062D02*
Y294062D01*
X300265Y285853D01*
Y285853D01*
X302142Y274003D01*
X302148Y273988D01*
X302148Y273972D01*
X302556Y271681D01*
X302574Y271636D01*
X302576Y271587D01*
X303662Y267064D01*
X303689Y267005D01*
X303697Y266941D01*
X305134Y262517D01*
X305166Y262460D01*
X305179Y262396D01*
X306959Y258099D01*
X306995Y258045D01*
X307013Y257982D01*
X309124Y253837D01*
X309165Y253786D01*
X309187Y253726D01*
X311618Y249759D01*
X311662Y249711D01*
X311689Y249653D01*
X314423Y245889D01*
X314471Y245845D01*
X314503Y245789D01*
X317524Y242251D01*
X317575Y242211D01*
X317611Y242157D01*
X320900Y238868D01*
X320954Y238832D01*
X320994Y238781D01*
X324531Y235760D01*
X324588Y235728D01*
X324632Y235680D01*
X328396Y232946D01*
X328454Y232919D01*
X328502Y232875D01*
X332468Y230444D01*
X332529Y230422D01*
X332580Y230382D01*
X336725Y228270D01*
X336788Y228252D01*
X336841Y228216D01*
X341139Y226436D01*
X341203Y226423D01*
X341259Y226392D01*
X345684Y224954D01*
X345748Y224946D01*
X345807Y224919D01*
X350330Y223833D01*
X350379Y223831D01*
X350424Y223814D01*
X352715Y223405D01*
X352731Y223405D01*
X352746Y223399D01*
X390936Y217351D01*
X390940Y-20503D01*
X352746Y-26552D01*
X352731Y-26558D01*
X352715Y-26558D01*
X350424Y-26967D01*
X350379Y-26985D01*
X350330Y-26986D01*
X345807Y-28072D01*
X345748Y-28100D01*
X345684Y-28107D01*
X341259Y-29545D01*
X341203Y-29576D01*
X341139Y-29589D01*
X336841Y-31369D01*
X336788Y-31405D01*
X336725Y-31423D01*
X332580Y-33535D01*
X332529Y-33575D01*
X332468Y-33597D01*
X328502Y-36028D01*
X328454Y-36072D01*
X328396Y-36099D01*
X324632Y-38833D01*
X324588Y-38881D01*
X324531Y-38913D01*
X320994Y-41934D01*
X320954Y-41985D01*
X320900Y-42021D01*
X317611Y-45310D01*
X317575Y-45364D01*
X317524Y-45404D01*
X314503Y-48942D01*
X314471Y-48998D01*
X314423Y-49042D01*
X311689Y-52806D01*
X311662Y-52865D01*
X311618Y-52912D01*
X309187Y-56879D01*
X309165Y-56940D01*
X309124Y-56990D01*
X307013Y-61135D01*
X306995Y-61198D01*
X306959Y-61252D01*
X305179Y-65549D01*
X305166Y-65613D01*
X305134Y-65670D01*
X303697Y-70094D01*
X303689Y-70158D01*
X303662Y-70217D01*
X302576Y-74741D01*
X302574Y-74789D01*
X302556Y-74835D01*
X302148Y-77125D01*
X302148Y-77140D01*
X302143Y-77154D01*
X296044Y-115350D01*
X272185D01*
Y-88386D01*
X271988Y-88583D01*
X83209D01*
Y-115350D01*
X58240D01*
X54067Y-89006D01*
Y-89006D01*
X52190Y-77157D01*
X52185Y-77141D01*
X52185Y-77125D01*
X51776Y-74835D01*
X51758Y-74789D01*
X51757Y-74741D01*
X50670Y-70217D01*
X50643Y-70158D01*
X50636Y-70094D01*
X49198Y-65670D01*
X49167Y-65613D01*
X49154Y-65549D01*
X47374Y-61252D01*
X47338Y-61198D01*
X47320Y-61135D01*
X45208Y-56990D01*
X45168Y-56940D01*
X45145Y-56879D01*
X42715Y-52912D01*
X42671Y-52865D01*
X42644Y-52806D01*
X39909Y-49042D01*
X39862Y-48998D01*
X39830Y-48942D01*
X36809Y-45404D01*
X36758Y-45364D01*
X36722Y-45310D01*
X33432Y-42021D01*
X33379Y-41985D01*
X33338Y-41934D01*
X29801Y-38913D01*
X29744Y-38881D01*
X29700Y-38833D01*
X25937Y-36099D01*
X25878Y-36072D01*
X25831Y-36028D01*
X21864Y-33597D01*
X21803Y-33575D01*
X21752Y-33535D01*
X17607Y-31423D01*
X17545Y-31405D01*
X17491Y-31369D01*
X13193Y-29589D01*
X13130Y-29576D01*
X13073Y-29545D01*
X8649Y-28107D01*
X8585Y-28100D01*
X8526Y-28072D01*
X4002Y-26986D01*
X3954Y-26985D01*
X3908Y-26967D01*
X1618Y-26558D01*
X1603Y-26558D01*
X1588Y-26553D01*
X-36608Y-20454D01*
Y217301D01*
X1588Y223400D01*
X1603Y223405D01*
X1618Y223405D01*
X3908Y223814D01*
X3954Y223831D01*
X4002Y223833D01*
X8526Y224919D01*
X8585Y224946D01*
X8649Y224954D01*
X13073Y226392D01*
X13130Y226423D01*
X13193Y226436D01*
X17491Y228216D01*
X17545Y228252D01*
X17607Y228270D01*
X21752Y230382D01*
X21803Y230422D01*
X21864Y230444D01*
X25831Y232875D01*
X25878Y232919D01*
X25937Y232946D01*
X29700Y235680D01*
X29744Y235728D01*
X29801Y235760D01*
X33338Y238781D01*
X33379Y238832D01*
X33432Y238868D01*
X36722Y242157D01*
X36758Y242211D01*
X36809Y242251D01*
X39830Y245789D01*
X39862Y245845D01*
X39909Y245889D01*
X42644Y249653D01*
X42671Y249712D01*
X42715Y249759D01*
X45145Y253726D01*
X45168Y253786D01*
X45208Y253837D01*
X47320Y257982D01*
X47338Y258045D01*
X47374Y258099D01*
X49154Y262396D01*
X49167Y262460D01*
X49198Y262517D01*
X50636Y266941D01*
X50643Y267005D01*
X50670Y267064D01*
X51757Y271587D01*
X51758Y271636D01*
X51776Y271681D01*
X52185Y273972D01*
X52185Y273988D01*
X52190Y274003D01*
X54067Y285853D01*
X55367Y294062D01*
X58287Y312197D01*
X296093D01*
X298965Y294062D01*
D02*
G37*
%LPC*%
G36*
X213721Y294247D02*
X212356Y294068D01*
X211085Y293541D01*
X209993Y292704D01*
X209156Y291612D01*
X208629Y290341D01*
X208600Y290118D01*
X208117Y289989D01*
X207733Y290489D01*
X206558Y291391D01*
X205189Y291957D01*
X204221Y292085D01*
Y286476D01*
Y280868D01*
X205189Y280995D01*
X206558Y281562D01*
X207733Y282464D01*
X208635Y283639D01*
X209202Y285008D01*
X209260Y285447D01*
X209742Y285576D01*
X209993Y285249D01*
X211085Y284412D01*
X212356Y283885D01*
X213721Y283705D01*
X215085Y283885D01*
X216356Y284412D01*
X217448Y285249D01*
X218285Y286341D01*
X218812Y287612D01*
X218992Y288976D01*
X218812Y290341D01*
X218285Y291612D01*
X217448Y292704D01*
X216356Y293541D01*
X215085Y294068D01*
X213721Y294247D01*
D02*
G37*
G36*
X95610D02*
X94246Y294068D01*
X92975Y293541D01*
X91883Y292704D01*
X91045Y291612D01*
X90519Y290341D01*
X90489Y290118D01*
X90006Y289989D01*
X89623Y290489D01*
X88447Y291391D01*
X87079Y291957D01*
X86110Y292085D01*
Y286476D01*
Y280868D01*
X87079Y280995D01*
X88447Y281562D01*
X89623Y282464D01*
X90524Y283639D01*
X91091Y285008D01*
X91149Y285447D01*
X91632Y285576D01*
X91883Y285249D01*
X92975Y284412D01*
X94246Y283885D01*
X95610Y283705D01*
X96974Y283885D01*
X98246Y284412D01*
X99337Y285249D01*
X100175Y286341D01*
X100702Y287612D01*
X100881Y288976D01*
X100702Y290341D01*
X100175Y291612D01*
X99337Y292704D01*
X98246Y293541D01*
X96974Y294068D01*
X95610Y294247D01*
D02*
G37*
G36*
X203221Y292085D02*
X202252Y291957D01*
X200883Y291391D01*
X199708Y290489D01*
X198806Y289314D01*
X198239Y287945D01*
X198112Y286976D01*
X203221D01*
Y292085D01*
D02*
G37*
G36*
X85110D02*
X84141Y291957D01*
X82773Y291391D01*
X81598Y290489D01*
X80696Y289314D01*
X80129Y287945D01*
X80001Y286976D01*
X85110D01*
Y292085D01*
D02*
G37*
G36*
X258721Y294247D02*
X257356Y294068D01*
X256085Y293541D01*
X254993Y292704D01*
X254156Y291612D01*
X253629Y290341D01*
X253450Y288976D01*
X253629Y287612D01*
X254156Y286341D01*
X254993Y285249D01*
X256085Y284412D01*
X257356Y283885D01*
X258721Y283705D01*
X260085Y283885D01*
X261356Y284412D01*
X262448Y285249D01*
X263285Y286341D01*
X263812Y287612D01*
X263992Y288976D01*
X263812Y290341D01*
X263285Y291612D01*
X262448Y292704D01*
X261356Y293541D01*
X260085Y294068D01*
X258721Y294247D01*
D02*
G37*
G36*
X140610D02*
X139246Y294068D01*
X137975Y293541D01*
X136883Y292704D01*
X136045Y291612D01*
X135519Y290341D01*
X135339Y288976D01*
X135519Y287612D01*
X136045Y286341D01*
X136883Y285249D01*
X137975Y284412D01*
X139246Y283885D01*
X140610Y283705D01*
X141974Y283885D01*
X143246Y284412D01*
X144337Y285249D01*
X145175Y286341D01*
X145702Y287612D01*
X145881Y288976D01*
X145702Y290341D01*
X145175Y291612D01*
X144337Y292704D01*
X143246Y293541D01*
X141974Y294068D01*
X140610Y294247D01*
D02*
G37*
G36*
X203221Y285976D02*
X198112D01*
X198239Y285008D01*
X198806Y283639D01*
X199708Y282464D01*
X200883Y281562D01*
X202252Y280995D01*
X203221Y280868D01*
Y285976D01*
D02*
G37*
G36*
X85110D02*
X80001D01*
X80129Y285008D01*
X80696Y283639D01*
X81598Y282464D01*
X82773Y281562D01*
X84141Y280995D01*
X85110Y280868D01*
Y285976D01*
D02*
G37*
G36*
X236221Y281747D02*
X234856Y281568D01*
X233585Y281041D01*
X232493Y280204D01*
X231656Y279112D01*
X231129Y277841D01*
X230949Y276476D01*
X231129Y275112D01*
X231656Y273841D01*
X232493Y272749D01*
X233585Y271912D01*
X234856Y271385D01*
X236221Y271205D01*
X237585Y271385D01*
X238856Y271912D01*
X239948Y272749D01*
X240785Y273841D01*
X241312Y275112D01*
X241492Y276476D01*
X241312Y277841D01*
X240785Y279112D01*
X239948Y280204D01*
X238856Y281041D01*
X237585Y281568D01*
X236221Y281747D01*
D02*
G37*
G36*
X118110D02*
X116746Y281568D01*
X115475Y281041D01*
X114383Y280204D01*
X113545Y279112D01*
X113019Y277841D01*
X112839Y276476D01*
X113019Y275112D01*
X113545Y273841D01*
X114383Y272749D01*
X115475Y271912D01*
X116746Y271385D01*
X118110Y271205D01*
X119474Y271385D01*
X120746Y271912D01*
X121837Y272749D01*
X122675Y273841D01*
X123202Y275112D01*
X123381Y276476D01*
X123202Y277841D01*
X122675Y279112D01*
X121837Y280204D01*
X120746Y281041D01*
X119474Y281568D01*
X118110Y281747D01*
D02*
G37*
G36*
X253721Y256747D02*
X252356Y256568D01*
X251085Y256041D01*
X249993Y255204D01*
X249156Y254112D01*
X248629Y252841D01*
X248449Y251476D01*
X248629Y250112D01*
X249156Y248841D01*
X249993Y247749D01*
X251085Y246912D01*
X252356Y246385D01*
X253721Y246205D01*
X255085Y246385D01*
X256356Y246912D01*
X257448Y247749D01*
X258285Y248841D01*
X258812Y250112D01*
X258992Y251476D01*
X258812Y252841D01*
X258285Y254112D01*
X257448Y255204D01*
X256356Y256041D01*
X255085Y256568D01*
X253721Y256747D01*
D02*
G37*
G36*
X218721D02*
X217356Y256568D01*
X216085Y256041D01*
X214993Y255204D01*
X214156Y254112D01*
X213629Y252841D01*
X213450Y251476D01*
X213629Y250112D01*
X214156Y248841D01*
X214993Y247749D01*
X216085Y246912D01*
X217356Y246385D01*
X218721Y246205D01*
X220085Y246385D01*
X221356Y246912D01*
X222448Y247749D01*
X223285Y248841D01*
X223812Y250112D01*
X223992Y251476D01*
X223812Y252841D01*
X223285Y254112D01*
X222448Y255204D01*
X221356Y256041D01*
X220085Y256568D01*
X218721Y256747D01*
D02*
G37*
G36*
X135610D02*
X134246Y256568D01*
X132975Y256041D01*
X131883Y255204D01*
X131045Y254112D01*
X130519Y252841D01*
X130339Y251476D01*
X130519Y250112D01*
X131045Y248841D01*
X131883Y247749D01*
X132975Y246912D01*
X134246Y246385D01*
X135610Y246205D01*
X136974Y246385D01*
X138246Y246912D01*
X139337Y247749D01*
X140175Y248841D01*
X140702Y250112D01*
X140881Y251476D01*
X140702Y252841D01*
X140175Y254112D01*
X139337Y255204D01*
X138246Y256041D01*
X136974Y256568D01*
X135610Y256747D01*
D02*
G37*
G36*
X100610D02*
X99246Y256568D01*
X97975Y256041D01*
X96883Y255204D01*
X96045Y254112D01*
X95519Y252841D01*
X95339Y251476D01*
X95519Y250112D01*
X96045Y248841D01*
X96883Y247749D01*
X97975Y246912D01*
X99246Y246385D01*
X100610Y246205D01*
X101974Y246385D01*
X103246Y246912D01*
X104337Y247749D01*
X105175Y248841D01*
X105702Y250112D01*
X105881Y251476D01*
X105702Y252841D01*
X105175Y254112D01*
X104337Y255204D01*
X103246Y256041D01*
X101974Y256568D01*
X100610Y256747D01*
D02*
G37*
G36*
X209221Y245993D02*
Y241976D01*
X213237D01*
X213147Y242662D01*
X212689Y243768D01*
X211961Y244717D01*
X211012Y245445D01*
X209907Y245903D01*
X209221Y245993D01*
D02*
G37*
G36*
X208221D02*
X207535Y245903D01*
X206429Y245445D01*
X205480Y244717D01*
X204752Y243768D01*
X204294Y242662D01*
X204204Y241976D01*
X208221D01*
Y245993D01*
D02*
G37*
G36*
X91110D02*
Y241976D01*
X95127D01*
X95037Y242662D01*
X94579Y243768D01*
X93850Y244717D01*
X92901Y245445D01*
X91796Y245903D01*
X91110Y245993D01*
D02*
G37*
G36*
X90110D02*
X89424Y245903D01*
X88319Y245445D01*
X87370Y244717D01*
X86642Y243768D01*
X86184Y242662D01*
X86093Y241976D01*
X90110D01*
Y245993D01*
D02*
G37*
G36*
X213237Y240976D02*
X209221D01*
Y236960D01*
X209907Y237050D01*
X211012Y237508D01*
X211961Y238236D01*
X212689Y239185D01*
X213147Y240290D01*
X213237Y240976D01*
D02*
G37*
G36*
X208221D02*
X204204D01*
X204294Y240290D01*
X204752Y239185D01*
X205480Y238236D01*
X206429Y237508D01*
X207535Y237050D01*
X208221Y236960D01*
Y240976D01*
D02*
G37*
G36*
X95127D02*
X91110D01*
Y236960D01*
X91796Y237050D01*
X92901Y237508D01*
X93850Y238236D01*
X94579Y239185D01*
X95037Y240290D01*
X95127Y240976D01*
D02*
G37*
G36*
X90110D02*
X86093D01*
X86184Y240290D01*
X86642Y239185D01*
X87370Y238236D01*
X88319Y237508D01*
X89424Y237050D01*
X90110Y236960D01*
Y240976D01*
D02*
G37*
G36*
X263721Y243155D02*
X262639Y243013D01*
X261631Y242596D01*
X260766Y241931D01*
X260101Y241066D01*
X259684Y240058D01*
X259542Y238976D01*
X259684Y237895D01*
X260101Y236887D01*
X260766Y236021D01*
X261631Y235357D01*
X262639Y234940D01*
X263721Y234797D01*
X264802Y234940D01*
X265810Y235357D01*
X266676Y236021D01*
X267340Y236887D01*
X267757Y237895D01*
X267900Y238976D01*
X267757Y240058D01*
X267340Y241066D01*
X266676Y241931D01*
X265810Y242596D01*
X264802Y243013D01*
X263721Y243155D01*
D02*
G37*
G36*
X145610D02*
X144528Y243013D01*
X143521Y242596D01*
X142655Y241931D01*
X141991Y241066D01*
X141574Y240058D01*
X141431Y238976D01*
X141574Y237895D01*
X141991Y236887D01*
X142655Y236021D01*
X143521Y235357D01*
X144528Y234940D01*
X145610Y234797D01*
X146692Y234940D01*
X147700Y235357D01*
X148565Y236021D01*
X149229Y236887D01*
X149647Y237895D01*
X149789Y238976D01*
X149647Y240058D01*
X149229Y241066D01*
X148565Y241931D01*
X147700Y242596D01*
X146692Y243013D01*
X145610Y243155D01*
D02*
G37*
G36*
X225471Y228493D02*
Y224476D01*
X229487D01*
X229397Y225162D01*
X228939Y226268D01*
X228211Y227217D01*
X227262Y227945D01*
X226157Y228403D01*
X225471Y228493D01*
D02*
G37*
G36*
X224471D02*
X223784Y228403D01*
X222679Y227945D01*
X221730Y227217D01*
X221002Y226268D01*
X220544Y225162D01*
X220454Y224476D01*
X224471D01*
Y228493D01*
D02*
G37*
G36*
X107360D02*
Y224476D01*
X111377D01*
X111286Y225162D01*
X110829Y226268D01*
X110100Y227217D01*
X109151Y227945D01*
X108046Y228403D01*
X107360Y228493D01*
D02*
G37*
G36*
X106360D02*
X105674Y228403D01*
X104569Y227945D01*
X103620Y227217D01*
X102892Y226268D01*
X102434Y225162D01*
X102343Y224476D01*
X106360D01*
Y228493D01*
D02*
G37*
G36*
X247471Y228155D02*
X246389Y228013D01*
X245381Y227595D01*
X244515Y226931D01*
X243851Y226066D01*
X243434Y225058D01*
X243291Y223976D01*
X243434Y222895D01*
X243851Y221887D01*
X244515Y221021D01*
X245381Y220357D01*
X246389Y219940D01*
X247471Y219797D01*
X248552Y219940D01*
X249560Y220357D01*
X250426Y221021D01*
X251090Y221887D01*
X251507Y222895D01*
X251650Y223976D01*
X251507Y225058D01*
X251090Y226066D01*
X250426Y226931D01*
X249560Y227595D01*
X248552Y228013D01*
X247471Y228155D01*
D02*
G37*
G36*
X129360D02*
X128279Y228013D01*
X127271Y227595D01*
X126405Y226931D01*
X125741Y226066D01*
X125323Y225058D01*
X125181Y223976D01*
X125323Y222895D01*
X125741Y221887D01*
X126405Y221021D01*
X127271Y220357D01*
X128279Y219940D01*
X129360Y219797D01*
X130442Y219940D01*
X131450Y220357D01*
X132315Y221021D01*
X132979Y221887D01*
X133397Y222895D01*
X133539Y223976D01*
X133397Y225058D01*
X132979Y226066D01*
X132315Y226931D01*
X131450Y227595D01*
X130442Y228013D01*
X129360Y228155D01*
D02*
G37*
G36*
X229487Y223476D02*
X225471D01*
Y219460D01*
X226157Y219550D01*
X227262Y220008D01*
X228211Y220736D01*
X228939Y221685D01*
X229397Y222790D01*
X229487Y223476D01*
D02*
G37*
G36*
X224471D02*
X220454D01*
X220544Y222790D01*
X221002Y221685D01*
X221730Y220736D01*
X222679Y220008D01*
X223784Y219550D01*
X224471Y219460D01*
Y223476D01*
D02*
G37*
G36*
X111377D02*
X107360D01*
Y219460D01*
X108046Y219550D01*
X109151Y220008D01*
X110100Y220736D01*
X110829Y221685D01*
X111286Y222790D01*
X111377Y223476D01*
D02*
G37*
G36*
X106360D02*
X102343D01*
X102434Y222790D01*
X102892Y221685D01*
X103620Y220736D01*
X104569Y220008D01*
X105674Y219550D01*
X106360Y219460D01*
Y223476D01*
D02*
G37*
G36*
X236221Y225655D02*
X235139Y225513D01*
X234131Y225096D01*
X233265Y224431D01*
X232601Y223566D01*
X232184Y222558D01*
X232042Y221476D01*
X232184Y220395D01*
X232601Y219387D01*
X233265Y218521D01*
X234131Y217857D01*
X235139Y217440D01*
X236221Y217297D01*
X237302Y217440D01*
X238310Y217857D01*
X239176Y218521D01*
X239840Y219387D01*
X240257Y220395D01*
X240400Y221476D01*
X240257Y222558D01*
X239840Y223566D01*
X239176Y224431D01*
X238310Y225096D01*
X237302Y225513D01*
X236221Y225655D01*
D02*
G37*
G36*
X118110D02*
X117028Y225513D01*
X116021Y225096D01*
X115155Y224431D01*
X114491Y223566D01*
X114074Y222558D01*
X113931Y221476D01*
X114074Y220395D01*
X114491Y219387D01*
X115155Y218521D01*
X116021Y217857D01*
X117028Y217440D01*
X118110Y217297D01*
X119192Y217440D01*
X120200Y217857D01*
X121065Y218521D01*
X121729Y219387D01*
X122147Y220395D01*
X122289Y221476D01*
X122147Y222558D01*
X121729Y223566D01*
X121065Y224431D01*
X120200Y225096D01*
X119192Y225513D01*
X118110Y225655D01*
D02*
G37*
G36*
X236221Y213430D02*
X235526Y213291D01*
X234937Y212898D01*
X234543Y212309D01*
X234405Y211614D01*
X234543Y210919D01*
X234937Y210330D01*
X235526Y209936D01*
X236221Y209798D01*
X236916Y209936D01*
X237505Y210330D01*
X237899Y210919D01*
X238037Y211614D01*
X237899Y212309D01*
X237505Y212898D01*
X236916Y213291D01*
X236221Y213430D01*
D02*
G37*
G36*
X154331Y202210D02*
X153636Y202071D01*
X153047Y201678D01*
X152653Y201089D01*
X152515Y200394D01*
X152653Y199699D01*
X153047Y199110D01*
X153636Y198716D01*
X154331Y198578D01*
X155026Y198716D01*
X155615Y199110D01*
X156009Y199699D01*
X156147Y200394D01*
X156009Y201089D01*
X155615Y201678D01*
X155026Y202071D01*
X154331Y202210D01*
D02*
G37*
G36*
X120472D02*
X119777Y202071D01*
X119188Y201678D01*
X118795Y201089D01*
X118656Y200394D01*
X118795Y199699D01*
X119188Y199110D01*
X119777Y198716D01*
X120472Y198578D01*
X121167Y198716D01*
X121756Y199110D01*
X122150Y199699D01*
X122288Y200394D01*
X122150Y201089D01*
X121756Y201678D01*
X121167Y202071D01*
X120472Y202210D01*
D02*
G37*
G36*
X267470Y205521D02*
X259971D01*
Y198022D01*
X267470D01*
Y205521D01*
D02*
G37*
G36*
X212470D02*
X204971D01*
Y198022D01*
X212470D01*
Y205521D01*
D02*
G37*
G36*
X184646Y201422D02*
X183951Y201284D01*
X183362Y200890D01*
X182968Y200301D01*
X182830Y199606D01*
X182968Y198911D01*
X183362Y198322D01*
X183951Y197929D01*
X184646Y197790D01*
X185341Y197929D01*
X185930Y198322D01*
X186323Y198911D01*
X186462Y199606D01*
X186323Y200301D01*
X185930Y200890D01*
X185341Y201284D01*
X184646Y201422D01*
D02*
G37*
G36*
X32697Y189099D02*
X32002Y188961D01*
X31413Y188567D01*
X31019Y187978D01*
X30881Y187283D01*
X31019Y186588D01*
X31413Y185999D01*
X32002Y185606D01*
X32697Y185467D01*
X33392Y185606D01*
X33981Y185999D01*
X34374Y186588D01*
X34513Y187283D01*
X34374Y187978D01*
X33981Y188567D01*
X33392Y188961D01*
X32697Y189099D01*
D02*
G37*
G36*
X354331Y211274D02*
X352074Y211097D01*
X349873Y210568D01*
X347782Y209702D01*
X345852Y208520D01*
X344131Y207050D01*
X342661Y205329D01*
X341479Y203399D01*
X340613Y201308D01*
X340084Y199107D01*
X339907Y196850D01*
X340084Y194594D01*
X340613Y192393D01*
X341479Y190302D01*
X342661Y188372D01*
X344131Y186651D01*
X345852Y185181D01*
X347782Y183999D01*
X349873Y183132D01*
X352074Y182604D01*
X354331Y182426D01*
X356587Y182604D01*
X358788Y183132D01*
X360879Y183999D01*
X362809Y185181D01*
X364530Y186651D01*
X366000Y188372D01*
X367183Y190302D01*
X368049Y192393D01*
X368577Y194594D01*
X368755Y196850D01*
X368577Y199107D01*
X368049Y201308D01*
X367183Y203399D01*
X366000Y205329D01*
X364530Y207050D01*
X362809Y208520D01*
X360879Y209702D01*
X358788Y210568D01*
X356587Y211097D01*
X354331Y211274D01*
D02*
G37*
G36*
X-0D02*
X-2256Y211097D01*
X-4457Y210568D01*
X-6548Y209702D01*
X-8478Y208520D01*
X-10199Y207050D01*
X-11669Y205329D01*
X-12852Y203399D01*
X-13718Y201308D01*
X-14246Y199107D01*
X-14424Y196850D01*
X-14246Y194594D01*
X-13718Y192393D01*
X-12852Y190302D01*
X-11669Y188372D01*
X-10199Y186651D01*
X-8478Y185181D01*
X-6548Y183999D01*
X-4457Y183132D01*
X-2256Y182604D01*
X-0Y182426D01*
X2256Y182604D01*
X4457Y183132D01*
X6548Y183999D01*
X8478Y185181D01*
X10199Y186651D01*
X11669Y188372D01*
X12852Y190302D01*
X13718Y192393D01*
X14246Y194594D01*
X14424Y196850D01*
X14246Y199107D01*
X13718Y201308D01*
X12852Y203399D01*
X11669Y205329D01*
X10199Y207050D01*
X8478Y208520D01*
X6548Y209702D01*
X4457Y210568D01*
X2256Y211097D01*
X-0Y211274D01*
D02*
G37*
G36*
X263721Y185869D02*
X262742Y185740D01*
X261830Y185362D01*
X261046Y184761D01*
X260445Y183977D01*
X260068Y183065D01*
X259939Y182087D01*
X260068Y181108D01*
X260445Y180196D01*
X261046Y179412D01*
X261830Y178811D01*
X262742Y178434D01*
X263721Y178305D01*
X264699Y178434D01*
X265612Y178811D01*
X266395Y179412D01*
X266996Y180196D01*
X267374Y181108D01*
X267502Y182087D01*
X267374Y183065D01*
X266996Y183977D01*
X266395Y184761D01*
X265612Y185362D01*
X264699Y185740D01*
X263721Y185869D01*
D02*
G37*
G36*
X208721D02*
X207742Y185740D01*
X206830Y185362D01*
X206046Y184761D01*
X205445Y183977D01*
X205067Y183065D01*
X204939Y182087D01*
X205067Y181108D01*
X205445Y180196D01*
X206046Y179412D01*
X206830Y178811D01*
X207742Y178434D01*
X208721Y178305D01*
X209699Y178434D01*
X210612Y178811D01*
X211395Y179412D01*
X211996Y180196D01*
X212374Y181108D01*
X212503Y182087D01*
X212374Y183065D01*
X211996Y183977D01*
X211395Y184761D01*
X210612Y185362D01*
X209699Y185740D01*
X208721Y185869D01*
D02*
G37*
G36*
X95874Y180851D02*
X95179Y180713D01*
X94590Y180319D01*
X94196Y179730D01*
X94058Y179035D01*
X94196Y178340D01*
X94590Y177751D01*
X95179Y177358D01*
X95874Y177219D01*
X96569Y177358D01*
X97158Y177751D01*
X97552Y178340D01*
X97690Y179035D01*
X97552Y179730D01*
X97158Y180319D01*
X96569Y180713D01*
X95874Y180851D01*
D02*
G37*
G36*
X320639Y183789D02*
X312747D01*
Y175896D01*
X320639D01*
Y183789D01*
D02*
G37*
G36*
X306693Y183823D02*
X305663Y183687D01*
X304703Y183290D01*
X303878Y182657D01*
X303246Y181833D01*
X302848Y180873D01*
X302712Y179842D01*
X302848Y178812D01*
X303246Y177852D01*
X303878Y177028D01*
X304703Y176395D01*
X305663Y175998D01*
X306693Y175862D01*
X307723Y175998D01*
X308683Y176395D01*
X309507Y177028D01*
X310140Y177852D01*
X310538Y178812D01*
X310673Y179842D01*
X310538Y180873D01*
X310140Y181833D01*
X309507Y182657D01*
X308683Y183290D01*
X307723Y183687D01*
X306693Y183823D01*
D02*
G37*
G36*
X134646Y178194D02*
X133951Y178056D01*
X133362Y177662D01*
X132968Y177073D01*
X132830Y176378D01*
X132968Y175683D01*
X133362Y175094D01*
X133951Y174700D01*
X134646Y174562D01*
X135341Y174700D01*
X135930Y175094D01*
X136323Y175683D01*
X136462Y176378D01*
X136323Y177073D01*
X135930Y177662D01*
X135341Y178056D01*
X134646Y178194D01*
D02*
G37*
G36*
X-8677Y177794D02*
X-9812Y177644D01*
X-10869Y177206D01*
X-11377Y176817D01*
X-8677Y174117D01*
X-5977Y176817D01*
X-6485Y177206D01*
X-7542Y177644D01*
X-8677Y177794D01*
D02*
G37*
G36*
X384646Y176225D02*
X383951Y176087D01*
X383362Y175694D01*
X382968Y175104D01*
X382830Y174409D01*
X382968Y173714D01*
X383362Y173125D01*
X383951Y172732D01*
X384646Y172593D01*
X385341Y172732D01*
X385930Y173125D01*
X386323Y173714D01*
X386462Y174409D01*
X386323Y175104D01*
X385930Y175694D01*
X385341Y176087D01*
X384646Y176225D01*
D02*
G37*
G36*
X-12084Y176110D02*
X-12474Y175602D01*
X-12912Y174544D01*
X-13061Y173410D01*
X-12912Y172275D01*
X-12474Y171218D01*
X-12084Y170710D01*
X-9384Y173410D01*
X-12084Y176110D01*
D02*
G37*
G36*
X-5270Y176110D02*
X-7970Y173410D01*
X-5270Y170710D01*
X-4880Y171218D01*
X-4442Y172275D01*
X-4293Y173410D01*
X-4442Y174544D01*
X-4880Y175602D01*
X-5270Y176110D01*
D02*
G37*
G36*
X184252Y174257D02*
X183557Y174119D01*
X182968Y173725D01*
X182574Y173136D01*
X182436Y172441D01*
X182574Y171746D01*
X182968Y171157D01*
X183557Y170763D01*
X184252Y170625D01*
X184947Y170763D01*
X185536Y171157D01*
X185930Y171746D01*
X186068Y172441D01*
X185930Y173136D01*
X185536Y173725D01*
X184947Y174119D01*
X184252Y174257D01*
D02*
G37*
G36*
X-8677Y172703D02*
X-11377Y170003D01*
X-10869Y169613D01*
X-9812Y169175D01*
X-8677Y169026D01*
X-7542Y169175D01*
X-6485Y169613D01*
X-5977Y170003D01*
X-8677Y172703D01*
D02*
G37*
G36*
X50394Y170329D02*
X49699Y170191D01*
X49110Y169798D01*
X48716Y169208D01*
X48578Y168513D01*
X48716Y167818D01*
X49110Y167229D01*
X49699Y166836D01*
X50394Y166697D01*
X51089Y166836D01*
X51678Y167229D01*
X52071Y167818D01*
X52210Y168513D01*
X52071Y169208D01*
X51678Y169798D01*
X51089Y170191D01*
X50394Y170329D01*
D02*
G37*
G36*
X316693Y173823D02*
X315663Y173687D01*
X314703Y173290D01*
X313878Y172657D01*
X313246Y171833D01*
X312848Y170873D01*
X312712Y169843D01*
X312848Y168812D01*
X313246Y167852D01*
X313878Y167028D01*
X314703Y166395D01*
X315663Y165998D01*
X316693Y165862D01*
X317723Y165998D01*
X318683Y166395D01*
X319508Y167028D01*
X320140Y167852D01*
X320538Y168812D01*
X320673Y169843D01*
X320538Y170873D01*
X320140Y171833D01*
X319508Y172657D01*
X318683Y173290D01*
X317723Y173687D01*
X316693Y173823D01*
D02*
G37*
G36*
X306693D02*
X305663Y173687D01*
X304703Y173290D01*
X303878Y172657D01*
X303246Y171833D01*
X302848Y170873D01*
X302712Y169843D01*
X302848Y168812D01*
X303246Y167852D01*
X303878Y167028D01*
X304703Y166395D01*
X305663Y165998D01*
X306693Y165862D01*
X307723Y165998D01*
X308683Y166395D01*
X309507Y167028D01*
X310140Y167852D01*
X310538Y168812D01*
X310673Y169843D01*
X310538Y170873D01*
X310140Y171833D01*
X309507Y172657D01*
X308683Y173290D01*
X307723Y173687D01*
X306693Y173823D01*
D02*
G37*
G36*
X363789Y170797D02*
X355896D01*
Y162904D01*
X363789D01*
Y170797D01*
D02*
G37*
G36*
X353789D02*
X345896D01*
Y162904D01*
X353789D01*
Y170797D01*
D02*
G37*
G36*
X190551Y166383D02*
X189856Y166245D01*
X189267Y165851D01*
X188873Y165262D01*
X188735Y164567D01*
X188873Y163872D01*
X189267Y163283D01*
X189856Y162889D01*
X190551Y162751D01*
X191246Y162889D01*
X191835Y163283D01*
X192229Y163872D01*
X192367Y164567D01*
X192229Y165262D01*
X191835Y165851D01*
X191246Y166245D01*
X190551Y166383D01*
D02*
G37*
G36*
X-15748Y170319D02*
X-16778Y170183D01*
X-17738Y169786D01*
X-18563Y169153D01*
X-19195Y168329D01*
X-19593Y167369D01*
X-19728Y166339D01*
X-19593Y165308D01*
X-19195Y164348D01*
X-18563Y163524D01*
X-17738Y162891D01*
X-16778Y162494D01*
X-15748Y162358D01*
X-14718Y162494D01*
X-13758Y162891D01*
X-12933Y163524D01*
X-12301Y164348D01*
X-11903Y165308D01*
X-11767Y166339D01*
X-11903Y167369D01*
X-12301Y168329D01*
X-12933Y169153D01*
X-13758Y169786D01*
X-14718Y170183D01*
X-15748Y170319D01*
D02*
G37*
G36*
X121653Y161659D02*
X120959Y161520D01*
X120369Y161127D01*
X119976Y160538D01*
X119838Y159843D01*
X119976Y159148D01*
X120369Y158558D01*
X120959Y158165D01*
X121653Y158027D01*
X122348Y158165D01*
X122938Y158558D01*
X123331Y159148D01*
X123469Y159843D01*
X123331Y160538D01*
X122938Y161127D01*
X122348Y161520D01*
X121653Y161659D01*
D02*
G37*
G36*
X113779D02*
X113085Y161520D01*
X112495Y161127D01*
X112102Y160538D01*
X111963Y159843D01*
X112102Y159148D01*
X112495Y158558D01*
X113085Y158165D01*
X113779Y158027D01*
X114474Y158165D01*
X115064Y158558D01*
X115457Y159148D01*
X115595Y159843D01*
X115457Y160538D01*
X115064Y161127D01*
X114474Y161520D01*
X113779Y161659D01*
D02*
G37*
G36*
X150000Y160871D02*
X149305Y160733D01*
X148716Y160339D01*
X148322Y159750D01*
X148184Y159055D01*
X148322Y158360D01*
X148716Y157771D01*
X149305Y157377D01*
X150000Y157239D01*
X150695Y157377D01*
X151284Y157771D01*
X151678Y158360D01*
X151816Y159055D01*
X151678Y159750D01*
X151284Y160339D01*
X150695Y160733D01*
X150000Y160871D01*
D02*
G37*
G36*
X212992Y160477D02*
X212297Y160339D01*
X211708Y159945D01*
X211314Y159356D01*
X211176Y158661D01*
X211314Y157966D01*
X211708Y157377D01*
X212297Y156984D01*
X212992Y156845D01*
X213687Y156984D01*
X214276Y157377D01*
X214670Y157966D01*
X214808Y158661D01*
X214670Y159356D01*
X214276Y159945D01*
X213687Y160339D01*
X212992Y160477D01*
D02*
G37*
G36*
X203150Y160084D02*
X202455Y159945D01*
X201866Y159552D01*
X201472Y158963D01*
X201334Y158268D01*
X201472Y157573D01*
X201866Y156984D01*
X202455Y156590D01*
X203150Y156452D01*
X203845Y156590D01*
X204434Y156984D01*
X204827Y157573D01*
X204966Y158268D01*
X204827Y158963D01*
X204434Y159552D01*
X203845Y159945D01*
X203150Y160084D01*
D02*
G37*
G36*
X316693Y163823D02*
X315663Y163687D01*
X314703Y163290D01*
X313878Y162657D01*
X313246Y161833D01*
X312848Y160873D01*
X312712Y159843D01*
X312848Y158812D01*
X313246Y157852D01*
X313878Y157028D01*
X314703Y156395D01*
X315663Y155998D01*
X316693Y155862D01*
X317723Y155998D01*
X318683Y156395D01*
X319508Y157028D01*
X320140Y157852D01*
X320538Y158812D01*
X320673Y159843D01*
X320538Y160873D01*
X320140Y161833D01*
X319508Y162657D01*
X318683Y163290D01*
X317723Y163687D01*
X316693Y163823D01*
D02*
G37*
G36*
X306693D02*
X305663Y163687D01*
X304703Y163290D01*
X303878Y162657D01*
X303246Y161833D01*
X302848Y160873D01*
X302712Y159843D01*
X302848Y158812D01*
X303246Y157852D01*
X303878Y157028D01*
X304703Y156395D01*
X305663Y155998D01*
X306693Y155862D01*
X307723Y155998D01*
X308683Y156395D01*
X309507Y157028D01*
X310140Y157852D01*
X310538Y158812D01*
X310673Y159843D01*
X310538Y160873D01*
X310140Y161833D01*
X309507Y162657D01*
X308683Y163290D01*
X307723Y163687D01*
X306693Y163823D01*
D02*
G37*
G36*
X14961Y158903D02*
X14266Y158764D01*
X13677Y158371D01*
X13283Y157782D01*
X13145Y157087D01*
X13283Y156392D01*
X13677Y155803D01*
X14266Y155409D01*
X14961Y155271D01*
X15656Y155409D01*
X16245Y155803D01*
X16638Y156392D01*
X16777Y157087D01*
X16638Y157782D01*
X16245Y158371D01*
X15656Y158764D01*
X14961Y158903D01*
D02*
G37*
G36*
X-22819Y164849D02*
X-28400Y159267D01*
X-22819Y153686D01*
X-17238Y159267D01*
X-22819Y164849D01*
D02*
G37*
G36*
X359842Y160831D02*
X358812Y160695D01*
X357852Y160298D01*
X357028Y159665D01*
X356395Y158841D01*
X355998Y157881D01*
X355862Y156850D01*
X355998Y155820D01*
X356395Y154860D01*
X357028Y154036D01*
X357852Y153403D01*
X358812Y153006D01*
X359842Y152870D01*
X360873Y153006D01*
X361833Y153403D01*
X362657Y154036D01*
X363290Y154860D01*
X363687Y155820D01*
X363823Y156850D01*
X363687Y157881D01*
X363290Y158841D01*
X362657Y159665D01*
X361833Y160298D01*
X360873Y160695D01*
X359842Y160831D01*
D02*
G37*
G36*
X349843D02*
X348812Y160695D01*
X347852Y160298D01*
X347028Y159665D01*
X346395Y158841D01*
X345998Y157881D01*
X345862Y156850D01*
X345998Y155820D01*
X346395Y154860D01*
X347028Y154036D01*
X347852Y153403D01*
X348812Y153006D01*
X349843Y152870D01*
X350873Y153006D01*
X351833Y153403D01*
X352657Y154036D01*
X353290Y154860D01*
X353687Y155820D01*
X353823Y156850D01*
X353687Y157881D01*
X353290Y158841D01*
X352657Y159665D01*
X351833Y160298D01*
X350873Y160695D01*
X349843Y160831D01*
D02*
G37*
G36*
X-7087Y152013D02*
X-7782Y151875D01*
X-8371Y151481D01*
X-8764Y150892D01*
X-8903Y150197D01*
X-8764Y149502D01*
X-8371Y148913D01*
X-7782Y148519D01*
X-7087Y148381D01*
X-6392Y148519D01*
X-5802Y148913D01*
X-5409Y149502D01*
X-5271Y150197D01*
X-5409Y150892D01*
X-5802Y151481D01*
X-6392Y151875D01*
X-7087Y152013D01*
D02*
G37*
G36*
X316693Y153823D02*
X315663Y153687D01*
X314703Y153290D01*
X313878Y152657D01*
X313246Y151833D01*
X312848Y150873D01*
X312712Y149843D01*
X312848Y148812D01*
X313246Y147852D01*
X313878Y147028D01*
X314703Y146395D01*
X315663Y145998D01*
X316693Y145862D01*
X317723Y145998D01*
X318683Y146395D01*
X319508Y147028D01*
X320140Y147852D01*
X320538Y148812D01*
X320673Y149843D01*
X320538Y150873D01*
X320140Y151833D01*
X319508Y152657D01*
X318683Y153290D01*
X317723Y153687D01*
X316693Y153823D01*
D02*
G37*
G36*
X306693D02*
X305663Y153687D01*
X304703Y153290D01*
X303878Y152657D01*
X303246Y151833D01*
X302848Y150873D01*
X302712Y149843D01*
X302848Y148812D01*
X303246Y147852D01*
X303878Y147028D01*
X304703Y146395D01*
X305663Y145998D01*
X306693Y145862D01*
X307723Y145998D01*
X308683Y146395D01*
X309507Y147028D01*
X310140Y147852D01*
X310538Y148812D01*
X310673Y149843D01*
X310538Y150873D01*
X310140Y151833D01*
X309507Y152657D01*
X308683Y153290D01*
X307723Y153687D01*
X306693Y153823D01*
D02*
G37*
G36*
X375984Y148666D02*
X375289Y148528D01*
X374700Y148135D01*
X374307Y147545D01*
X374168Y146850D01*
X374307Y146155D01*
X374700Y145566D01*
X375289Y145173D01*
X375984Y145034D01*
X376679Y145173D01*
X377268Y145566D01*
X377662Y146155D01*
X377800Y146850D01*
X377662Y147545D01*
X377268Y148135D01*
X376679Y148528D01*
X375984Y148666D01*
D02*
G37*
G36*
X-984Y148469D02*
X-1679Y148331D01*
X-2268Y147938D01*
X-2662Y147348D01*
X-2800Y146653D01*
X-2662Y145959D01*
X-2268Y145369D01*
X-1679Y144976D01*
X-984Y144838D01*
X-289Y144976D01*
X300Y145369D01*
X693Y145959D01*
X832Y146653D01*
X693Y147348D01*
X300Y147938D01*
X-289Y148331D01*
X-984Y148469D01*
D02*
G37*
G36*
X71653Y148273D02*
X70959Y148134D01*
X70369Y147741D01*
X69976Y147152D01*
X69837Y146457D01*
X69976Y145762D01*
X70369Y145173D01*
X70959Y144779D01*
X71653Y144641D01*
X72348Y144779D01*
X72938Y145173D01*
X73331Y145762D01*
X73470Y146457D01*
X73331Y147152D01*
X72938Y147741D01*
X72348Y148134D01*
X71653Y148273D01*
D02*
G37*
G36*
X36220D02*
X35526Y148134D01*
X34936Y147741D01*
X34543Y147152D01*
X34405Y146457D01*
X34543Y145762D01*
X34936Y145173D01*
X35526Y144779D01*
X36220Y144641D01*
X36915Y144779D01*
X37505Y145173D01*
X37898Y145762D01*
X38037Y146457D01*
X37898Y147152D01*
X37505Y147741D01*
X36915Y148134D01*
X36220Y148273D01*
D02*
G37*
G36*
X359842Y150831D02*
X358812Y150695D01*
X357852Y150298D01*
X357028Y149665D01*
X356395Y148841D01*
X355998Y147881D01*
X355862Y146850D01*
X355998Y145820D01*
X356395Y144860D01*
X357028Y144036D01*
X357852Y143403D01*
X358812Y143006D01*
X359842Y142870D01*
X360873Y143006D01*
X361833Y143403D01*
X362657Y144036D01*
X363290Y144860D01*
X363687Y145820D01*
X363823Y146850D01*
X363687Y147881D01*
X363290Y148841D01*
X362657Y149665D01*
X361833Y150298D01*
X360873Y150695D01*
X359842Y150831D01*
D02*
G37*
G36*
X349843D02*
X348812Y150695D01*
X347852Y150298D01*
X347028Y149665D01*
X346395Y148841D01*
X345998Y147881D01*
X345862Y146850D01*
X345998Y145820D01*
X346395Y144860D01*
X347028Y144036D01*
X347852Y143403D01*
X348812Y143006D01*
X349843Y142870D01*
X350873Y143006D01*
X351833Y143403D01*
X352657Y144036D01*
X353290Y144860D01*
X353687Y145820D01*
X353823Y146850D01*
X353687Y147881D01*
X353290Y148841D01*
X352657Y149665D01*
X351833Y150298D01*
X350873Y150695D01*
X349843Y150831D01*
D02*
G37*
G36*
X316693Y143823D02*
X315663Y143687D01*
X314703Y143290D01*
X313878Y142657D01*
X313246Y141833D01*
X312848Y140873D01*
X312712Y139842D01*
X312848Y138812D01*
X313246Y137852D01*
X313878Y137028D01*
X314703Y136395D01*
X315663Y135998D01*
X316693Y135862D01*
X317723Y135998D01*
X318683Y136395D01*
X319508Y137028D01*
X320140Y137852D01*
X320538Y138812D01*
X320673Y139842D01*
X320538Y140873D01*
X320140Y141833D01*
X319508Y142657D01*
X318683Y143290D01*
X317723Y143687D01*
X316693Y143823D01*
D02*
G37*
G36*
X306693D02*
X305663Y143687D01*
X304703Y143290D01*
X303878Y142657D01*
X303246Y141833D01*
X302848Y140873D01*
X302712Y139842D01*
X302848Y138812D01*
X303246Y137852D01*
X303878Y137028D01*
X304703Y136395D01*
X305663Y135998D01*
X306693Y135862D01*
X307723Y135998D01*
X308683Y136395D01*
X309507Y137028D01*
X310140Y137852D01*
X310538Y138812D01*
X310673Y139842D01*
X310538Y140873D01*
X310140Y141833D01*
X309507Y142657D01*
X308683Y143290D01*
X307723Y143687D01*
X306693Y143823D01*
D02*
G37*
G36*
X359842Y140831D02*
X358812Y140695D01*
X357852Y140298D01*
X357028Y139665D01*
X356395Y138841D01*
X355998Y137881D01*
X355862Y136850D01*
X355998Y135820D01*
X356395Y134860D01*
X357028Y134036D01*
X357852Y133403D01*
X358812Y133005D01*
X359842Y132870D01*
X360873Y133005D01*
X361833Y133403D01*
X362657Y134036D01*
X363290Y134860D01*
X363687Y135820D01*
X363823Y136850D01*
X363687Y137881D01*
X363290Y138841D01*
X362657Y139665D01*
X361833Y140298D01*
X360873Y140695D01*
X359842Y140831D01*
D02*
G37*
G36*
X349843D02*
X348812Y140695D01*
X347852Y140298D01*
X347028Y139665D01*
X346395Y138841D01*
X345998Y137881D01*
X345862Y136850D01*
X345998Y135820D01*
X346395Y134860D01*
X347028Y134036D01*
X347852Y133403D01*
X348812Y133005D01*
X349843Y132870D01*
X350873Y133005D01*
X351833Y133403D01*
X352657Y134036D01*
X353290Y134860D01*
X353687Y135820D01*
X353823Y136850D01*
X353687Y137881D01*
X353290Y138841D01*
X352657Y139665D01*
X351833Y140298D01*
X350873Y140695D01*
X349843Y140831D01*
D02*
G37*
G36*
X-19685Y136462D02*
X-20380Y136323D01*
X-20969Y135930D01*
X-21363Y135341D01*
X-21501Y134646D01*
X-21363Y133951D01*
X-20969Y133362D01*
X-20380Y132968D01*
X-19685Y132830D01*
X-18990Y132968D01*
X-18401Y133362D01*
X-18007Y133951D01*
X-17869Y134646D01*
X-18007Y135341D01*
X-18401Y135930D01*
X-18990Y136323D01*
X-19685Y136462D01*
D02*
G37*
G36*
X150000Y134887D02*
X149305Y134749D01*
X148716Y134355D01*
X148322Y133766D01*
X148184Y133071D01*
X148322Y132376D01*
X148716Y131787D01*
X149305Y131393D01*
X150000Y131255D01*
X150695Y131393D01*
X151284Y131787D01*
X151678Y132376D01*
X151816Y133071D01*
X151678Y133766D01*
X151284Y134355D01*
X150695Y134749D01*
X150000Y134887D01*
D02*
G37*
G36*
X215748Y134493D02*
X215053Y134355D01*
X214464Y133961D01*
X214070Y133372D01*
X213932Y132677D01*
X214070Y131982D01*
X214464Y131393D01*
X215053Y130999D01*
X215748Y130861D01*
X216443Y130999D01*
X217032Y131393D01*
X217426Y131982D01*
X217564Y132677D01*
X217426Y133372D01*
X217032Y133961D01*
X216443Y134355D01*
X215748Y134493D01*
D02*
G37*
G36*
X254331Y131904D02*
X253636Y131766D01*
X253047Y131372D01*
X252653Y130783D01*
X252515Y130088D01*
X252653Y129393D01*
X253047Y128804D01*
X253636Y128410D01*
X254331Y128272D01*
X255026Y128410D01*
X255615Y128804D01*
X256009Y129393D01*
X256147Y130088D01*
X256009Y130783D01*
X255615Y131372D01*
X255026Y131766D01*
X254331Y131904D01*
D02*
G37*
G36*
X360343Y131168D02*
Y127350D01*
X364161D01*
X364077Y127985D01*
X363639Y129042D01*
X362943Y129950D01*
X362035Y130647D01*
X360977Y131085D01*
X360343Y131168D01*
D02*
G37*
G36*
X350342D02*
Y127350D01*
X354161D01*
X354077Y127985D01*
X353639Y129042D01*
X352942Y129950D01*
X352034Y130647D01*
X350977Y131085D01*
X350342Y131168D01*
D02*
G37*
G36*
X349342Y131168D02*
X348708Y131085D01*
X347651Y130647D01*
X346743Y129950D01*
X346046Y129042D01*
X345608Y127985D01*
X345524Y127350D01*
X349342D01*
Y131168D01*
D02*
G37*
G36*
X359343D02*
X358708Y131085D01*
X357650Y130647D01*
X356743Y129950D01*
X356046Y129042D01*
X355608Y127985D01*
X355524Y127350D01*
X359343D01*
Y131168D01*
D02*
G37*
G36*
X152756Y130556D02*
X152061Y130418D01*
X151472Y130024D01*
X151078Y129435D01*
X150940Y128740D01*
X151078Y128045D01*
X151472Y127456D01*
X152061Y127062D01*
X152756Y126924D01*
X153451Y127062D01*
X154040Y127456D01*
X154434Y128045D01*
X154572Y128740D01*
X154434Y129435D01*
X154040Y130024D01*
X153451Y130418D01*
X152756Y130556D01*
D02*
G37*
G36*
X68898D02*
X68203Y130418D01*
X67614Y130024D01*
X67220Y129435D01*
X67082Y128740D01*
X67220Y128045D01*
X67614Y127456D01*
X68203Y127062D01*
X68898Y126924D01*
X69593Y127062D01*
X70182Y127456D01*
X70575Y128045D01*
X70714Y128740D01*
X70575Y129435D01*
X70182Y130024D01*
X69593Y130418D01*
X68898Y130556D01*
D02*
G37*
G36*
X316693Y133823D02*
X315663Y133687D01*
X314703Y133290D01*
X313878Y132657D01*
X313246Y131833D01*
X312848Y130873D01*
X312712Y129842D01*
X312848Y128812D01*
X313246Y127852D01*
X313878Y127028D01*
X314703Y126395D01*
X315663Y125998D01*
X316693Y125862D01*
X317723Y125998D01*
X318683Y126395D01*
X319508Y127028D01*
X320140Y127852D01*
X320538Y128812D01*
X320673Y129842D01*
X320538Y130873D01*
X320140Y131833D01*
X319508Y132657D01*
X318683Y133290D01*
X317723Y133687D01*
X316693Y133823D01*
D02*
G37*
G36*
X306693D02*
X305663Y133687D01*
X304703Y133290D01*
X303878Y132657D01*
X303246Y131833D01*
X302848Y130873D01*
X302712Y129842D01*
X302848Y128812D01*
X303246Y127852D01*
X303878Y127028D01*
X304703Y126395D01*
X305663Y125998D01*
X306693Y125862D01*
X307723Y125998D01*
X308683Y126395D01*
X309507Y127028D01*
X310140Y127852D01*
X310538Y128812D01*
X310673Y129842D01*
X310538Y130873D01*
X310140Y131833D01*
X309507Y132657D01*
X308683Y133290D01*
X307723Y133687D01*
X306693Y133823D01*
D02*
G37*
G36*
X157480Y126225D02*
X156785Y126087D01*
X156196Y125694D01*
X155803Y125104D01*
X155664Y124409D01*
X155803Y123714D01*
X156196Y123125D01*
X156785Y122732D01*
X157480Y122593D01*
X158175Y122732D01*
X158765Y123125D01*
X159158Y123714D01*
X159296Y124409D01*
X159158Y125104D01*
X158765Y125694D01*
X158175Y126087D01*
X157480Y126225D01*
D02*
G37*
G36*
X349342Y126350D02*
X345524D01*
X345608Y125716D01*
X346046Y124658D01*
X346743Y123750D01*
X347651Y123054D01*
X348708Y122616D01*
X349342Y122532D01*
Y126350D01*
D02*
G37*
G36*
X359343D02*
X355524D01*
X355608Y125716D01*
X356046Y124658D01*
X356743Y123750D01*
X357650Y123054D01*
X358708Y122616D01*
X359343Y122532D01*
Y126350D01*
D02*
G37*
G36*
X364161D02*
X360343D01*
Y122532D01*
X360977Y122616D01*
X362035Y123054D01*
X362943Y123750D01*
X363639Y124658D01*
X364077Y125716D01*
X364161Y126350D01*
D02*
G37*
G36*
X354161D02*
X350342D01*
Y122532D01*
X350977Y122616D01*
X352034Y123054D01*
X352942Y123750D01*
X353639Y124658D01*
X354077Y125716D01*
X354161Y126350D01*
D02*
G37*
G36*
X163779Y123863D02*
X163085Y123725D01*
X162495Y123331D01*
X162102Y122742D01*
X161963Y122047D01*
X162102Y121352D01*
X162495Y120763D01*
X163085Y120370D01*
X163779Y120231D01*
X164474Y120370D01*
X165064Y120763D01*
X165457Y121352D01*
X165595Y122047D01*
X165457Y122742D01*
X165064Y123331D01*
X164474Y123725D01*
X163779Y123863D01*
D02*
G37*
G36*
X72047Y120320D02*
X71352Y120182D01*
X70763Y119788D01*
X70369Y119199D01*
X70231Y118504D01*
X70369Y117809D01*
X70763Y117220D01*
X71352Y116826D01*
X72047Y116688D01*
X72742Y116826D01*
X73331Y117220D01*
X73725Y117809D01*
X73863Y118504D01*
X73725Y119199D01*
X73331Y119788D01*
X72742Y120182D01*
X72047Y120320D01*
D02*
G37*
G36*
X163779Y119533D02*
X163085Y119394D01*
X162495Y119001D01*
X162102Y118412D01*
X161963Y117717D01*
X162102Y117022D01*
X162495Y116432D01*
X163085Y116039D01*
X163779Y115901D01*
X164474Y116039D01*
X165064Y116432D01*
X165457Y117022D01*
X165595Y117717D01*
X165457Y118412D01*
X165064Y119001D01*
X164474Y119394D01*
X163779Y119533D01*
D02*
G37*
G36*
X316693Y123823D02*
X315663Y123687D01*
X314703Y123290D01*
X313878Y122657D01*
X313246Y121833D01*
X312848Y120873D01*
X312712Y119843D01*
X312848Y118812D01*
X313246Y117852D01*
X313878Y117028D01*
X314703Y116395D01*
X315663Y115998D01*
X316693Y115862D01*
X317723Y115998D01*
X318683Y116395D01*
X319508Y117028D01*
X320140Y117852D01*
X320538Y118812D01*
X320673Y119843D01*
X320538Y120873D01*
X320140Y121833D01*
X319508Y122657D01*
X318683Y123290D01*
X317723Y123687D01*
X316693Y123823D01*
D02*
G37*
G36*
X306693D02*
X305663Y123687D01*
X304703Y123290D01*
X303878Y122657D01*
X303246Y121833D01*
X302848Y120873D01*
X302712Y119843D01*
X302848Y118812D01*
X303246Y117852D01*
X303878Y117028D01*
X304703Y116395D01*
X305663Y115998D01*
X306693Y115862D01*
X307723Y115998D01*
X308683Y116395D01*
X309507Y117028D01*
X310140Y117852D01*
X310538Y118812D01*
X310673Y119843D01*
X310538Y120873D01*
X310140Y121833D01*
X309507Y122657D01*
X308683Y123290D01*
X307723Y123687D01*
X306693Y123823D01*
D02*
G37*
G36*
X95276Y118351D02*
X94581Y118213D01*
X93992Y117819D01*
X93598Y117230D01*
X93460Y116535D01*
X93598Y115840D01*
X93992Y115251D01*
X94581Y114858D01*
X95276Y114719D01*
X95970Y114858D01*
X96560Y115251D01*
X96953Y115840D01*
X97092Y116535D01*
X96953Y117230D01*
X96560Y117819D01*
X95970Y118213D01*
X95276Y118351D01*
D02*
G37*
G36*
X328740Y117564D02*
X328045Y117426D01*
X327456Y117032D01*
X327062Y116443D01*
X326924Y115748D01*
X327062Y115053D01*
X327456Y114464D01*
X328045Y114070D01*
X328740Y113932D01*
X329435Y114070D01*
X330024Y114464D01*
X330418Y115053D01*
X330556Y115748D01*
X330418Y116443D01*
X330024Y117032D01*
X329435Y117426D01*
X328740Y117564D01*
D02*
G37*
G36*
X129921Y116974D02*
X129226Y116835D01*
X128637Y116442D01*
X128244Y115852D01*
X128105Y115158D01*
X128244Y114463D01*
X128637Y113874D01*
X129226Y113480D01*
X129921Y113342D01*
X130616Y113480D01*
X131205Y113874D01*
X131599Y114463D01*
X131737Y115158D01*
X131599Y115852D01*
X131205Y116442D01*
X130616Y116835D01*
X129921Y116974D01*
D02*
G37*
G36*
X134843Y115989D02*
X134148Y115851D01*
X133558Y115457D01*
X133165Y114868D01*
X133027Y114173D01*
X133165Y113478D01*
X133558Y112889D01*
X134148Y112495D01*
X134843Y112357D01*
X135538Y112495D01*
X136127Y112889D01*
X136520Y113478D01*
X136659Y114173D01*
X136520Y114868D01*
X136127Y115457D01*
X135538Y115851D01*
X134843Y115989D01*
D02*
G37*
G36*
X72047Y115595D02*
X71352Y115457D01*
X70763Y115064D01*
X70369Y114474D01*
X70231Y113779D01*
X70369Y113085D01*
X70763Y112495D01*
X71352Y112102D01*
X72047Y111963D01*
X72742Y112102D01*
X73331Y112495D01*
X73725Y113085D01*
X73863Y113779D01*
X73725Y114474D01*
X73331Y115064D01*
X72742Y115457D01*
X72047Y115595D01*
D02*
G37*
G36*
X40945Y114021D02*
X40250Y113883D01*
X39661Y113489D01*
X39267Y112900D01*
X39129Y112205D01*
X39267Y111510D01*
X39661Y110921D01*
X40250Y110527D01*
X40945Y110389D01*
X41640Y110527D01*
X42229Y110921D01*
X42623Y111510D01*
X42761Y112205D01*
X42623Y112900D01*
X42229Y113489D01*
X41640Y113883D01*
X40945Y114021D01*
D02*
G37*
G36*
X317193Y114161D02*
Y110343D01*
X321011D01*
X320928Y110977D01*
X320490Y112034D01*
X319793Y112943D01*
X318885Y113639D01*
X317828Y114077D01*
X317193Y114161D01*
D02*
G37*
G36*
X307193D02*
Y110343D01*
X311011D01*
X310928Y110977D01*
X310490Y112034D01*
X309793Y112943D01*
X308885Y113639D01*
X307828Y114077D01*
X307193Y114161D01*
D02*
G37*
G36*
X316193D02*
X315558Y114077D01*
X314501Y113639D01*
X313593Y112943D01*
X312896Y112034D01*
X312458Y110977D01*
X312375Y110343D01*
X316193D01*
Y114161D01*
D02*
G37*
G36*
X306193D02*
X305558Y114077D01*
X304501Y113639D01*
X303593Y112943D01*
X302896Y112034D01*
X302458Y110977D01*
X302375Y110343D01*
X306193D01*
Y114161D01*
D02*
G37*
G36*
X-16535Y113627D02*
X-17230Y113489D01*
X-17819Y113095D01*
X-18213Y112506D01*
X-18351Y111811D01*
X-18213Y111116D01*
X-17819Y110527D01*
X-17230Y110133D01*
X-16535Y109995D01*
X-15841Y110133D01*
X-15251Y110527D01*
X-14858Y111116D01*
X-14719Y111811D01*
X-14858Y112506D01*
X-15251Y113095D01*
X-15841Y113489D01*
X-16535Y113627D01*
D02*
G37*
G36*
X376910Y114328D02*
X373760D01*
X372834Y114144D01*
X372050Y113620D01*
X371526Y112835D01*
X371342Y111910D01*
X371526Y110985D01*
X372050Y110200D01*
X372834Y109676D01*
X373760Y109492D01*
X376910D01*
X377835Y109676D01*
X378620Y110200D01*
X379144Y110985D01*
X379328Y111910D01*
X379144Y112835D01*
X378620Y113620D01*
X377835Y114144D01*
X376910Y114328D01*
D02*
G37*
G36*
X364981D02*
X359075D01*
X358149Y114144D01*
X357365Y113620D01*
X356841Y112835D01*
X356657Y111910D01*
X356841Y110985D01*
X357365Y110200D01*
X358149Y109676D01*
X359075Y109492D01*
X364981D01*
X365906Y109676D01*
X366690Y110200D01*
X367214Y110985D01*
X367398Y111910D01*
X367214Y112835D01*
X366690Y113620D01*
X365906Y114144D01*
X364981Y114328D01*
D02*
G37*
G36*
X131890Y113037D02*
X131195Y112898D01*
X130606Y112505D01*
X130212Y111916D01*
X130074Y111221D01*
X130212Y110526D01*
X130606Y109936D01*
X131195Y109543D01*
X131890Y109405D01*
X132585Y109543D01*
X133174Y109936D01*
X133568Y110526D01*
X133706Y111221D01*
X133568Y111916D01*
X133174Y112505D01*
X132585Y112898D01*
X131890Y113037D01*
D02*
G37*
G36*
X90158Y111659D02*
X89463Y111520D01*
X88873Y111127D01*
X88480Y110538D01*
X88341Y109843D01*
X88480Y109148D01*
X88873Y108558D01*
X89463Y108165D01*
X90158Y108027D01*
X90852Y108165D01*
X91442Y108558D01*
X91835Y109148D01*
X91974Y109843D01*
X91835Y110538D01*
X91442Y111127D01*
X90852Y111520D01*
X90158Y111659D01*
D02*
G37*
G36*
X358670Y108820D02*
Y107095D01*
X360395D01*
X360317Y107484D01*
X359813Y108238D01*
X359059Y108742D01*
X358670Y108820D01*
D02*
G37*
G36*
X363984D02*
Y107095D01*
X365708D01*
X365631Y107484D01*
X365127Y108238D01*
X364373Y108742D01*
X363984Y108820D01*
D02*
G37*
G36*
X362984D02*
X362594Y108742D01*
X361840Y108238D01*
X361336Y107484D01*
X361259Y107095D01*
X362984D01*
Y108820D01*
D02*
G37*
G36*
X357670D02*
X357280Y108742D01*
X356526Y108238D01*
X356023Y107484D01*
X355945Y107095D01*
X357670D01*
Y108820D01*
D02*
G37*
G36*
X128159Y110084D02*
X127464Y109945D01*
X126875Y109552D01*
X126481Y108963D01*
X126343Y108268D01*
X126481Y107573D01*
X126875Y106984D01*
X127464Y106590D01*
X128159Y106452D01*
X128854Y106590D01*
X129443Y106984D01*
X129837Y107573D01*
X129975Y108268D01*
X129837Y108963D01*
X129443Y109552D01*
X128854Y109945D01*
X128159Y110084D01*
D02*
G37*
G36*
X-12598Y109690D02*
X-13293Y109552D01*
X-13882Y109158D01*
X-14276Y108569D01*
X-14414Y107874D01*
X-14276Y107179D01*
X-13882Y106590D01*
X-13293Y106196D01*
X-12598Y106058D01*
X-11903Y106196D01*
X-11314Y106590D01*
X-10921Y107179D01*
X-10782Y107874D01*
X-10921Y108569D01*
X-11314Y109158D01*
X-11903Y109552D01*
X-12598Y109690D01*
D02*
G37*
G36*
X321011Y109343D02*
X317193D01*
Y105524D01*
X317828Y105608D01*
X318885Y106046D01*
X319793Y106743D01*
X320490Y107650D01*
X320928Y108708D01*
X321011Y109343D01*
D02*
G37*
G36*
X311011D02*
X307193D01*
Y105524D01*
X307828Y105608D01*
X308885Y106046D01*
X309793Y106743D01*
X310490Y107650D01*
X310928Y108708D01*
X311011Y109343D01*
D02*
G37*
G36*
X316193D02*
X312375D01*
X312458Y108708D01*
X312896Y107650D01*
X313593Y106743D01*
X314501Y106046D01*
X315558Y105608D01*
X316193Y105524D01*
Y109343D01*
D02*
G37*
G36*
X306193D02*
X302375D01*
X302458Y108708D01*
X302896Y107650D01*
X303593Y106743D01*
X304501Y106046D01*
X305558Y105608D01*
X306193Y105524D01*
Y109343D01*
D02*
G37*
G36*
X-28740Y108903D02*
X-29435Y108764D01*
X-30024Y108371D01*
X-30418Y107782D01*
X-30556Y107087D01*
X-30418Y106392D01*
X-30024Y105803D01*
X-29435Y105409D01*
X-28740Y105271D01*
X-28045Y105409D01*
X-27456Y105803D01*
X-27062Y106392D01*
X-26924Y107087D01*
X-27062Y107782D01*
X-27456Y108371D01*
X-28045Y108764D01*
X-28740Y108903D01*
D02*
G37*
G36*
X199803Y108607D02*
X199108Y108469D01*
X198519Y108075D01*
X198125Y107486D01*
X197987Y106791D01*
X198125Y106096D01*
X198519Y105507D01*
X199108Y105114D01*
X199803Y104975D01*
X200498Y105114D01*
X201087Y105507D01*
X201481Y106096D01*
X201619Y106791D01*
X201481Y107486D01*
X201087Y108075D01*
X200498Y108469D01*
X199803Y108607D01*
D02*
G37*
G36*
X190748D02*
X190053Y108469D01*
X189464Y108075D01*
X189070Y107486D01*
X188932Y106791D01*
X189070Y106096D01*
X189464Y105507D01*
X190053Y105114D01*
X190748Y104975D01*
X191443Y105114D01*
X192032Y105507D01*
X192426Y106096D01*
X192564Y106791D01*
X192426Y107486D01*
X192032Y108075D01*
X191443Y108469D01*
X190748Y108607D01*
D02*
G37*
G36*
X152362Y107814D02*
X151667Y107676D01*
X151078Y107282D01*
X150684Y106693D01*
X150546Y105998D01*
X150684Y105303D01*
X150356Y104895D01*
X150000Y104966D01*
X149305Y104827D01*
X148716Y104434D01*
X148322Y103845D01*
X148184Y103150D01*
X148322Y102455D01*
X148716Y101865D01*
X149305Y101472D01*
X150000Y101334D01*
X150695Y101472D01*
X151284Y101865D01*
X151678Y102455D01*
X151816Y103150D01*
X151678Y103845D01*
X152006Y104253D01*
X152362Y104182D01*
X153057Y104321D01*
X153646Y104714D01*
X154040Y105303D01*
X154178Y105998D01*
X154040Y106693D01*
X153646Y107282D01*
X153057Y107676D01*
X152362Y107814D01*
D02*
G37*
G36*
X136221Y108509D02*
X135526Y108371D01*
X134936Y107977D01*
X134543Y107388D01*
X134405Y106693D01*
X134543Y105998D01*
X134936Y105409D01*
X135526Y105015D01*
X136221Y104877D01*
X136916Y105015D01*
X137505Y105409D01*
X137898Y105998D01*
X138037Y106693D01*
X137898Y107388D01*
X137505Y107977D01*
X136916Y108371D01*
X136221Y108509D01*
D02*
G37*
G36*
X127953Y102997D02*
X127258Y102859D01*
X126669Y102465D01*
X126275Y101876D01*
X126137Y101181D01*
X126275Y100486D01*
X126669Y99897D01*
X127258Y99503D01*
X127953Y99365D01*
X128648Y99503D01*
X129237Y99897D01*
X129630Y100486D01*
X129769Y101181D01*
X129630Y101876D01*
X129237Y102465D01*
X128648Y102859D01*
X127953Y102997D01*
D02*
G37*
G36*
X64961D02*
X64266Y102859D01*
X63677Y102465D01*
X63283Y101876D01*
X63145Y101181D01*
X63283Y100486D01*
X63677Y99897D01*
X64266Y99503D01*
X64961Y99365D01*
X65656Y99503D01*
X66245Y99897D01*
X66638Y100486D01*
X66777Y101181D01*
X66638Y101876D01*
X66245Y102465D01*
X65656Y102859D01*
X64961Y102997D01*
D02*
G37*
G36*
X183071Y97485D02*
X182376Y97347D01*
X181787Y96953D01*
X181393Y96364D01*
X181255Y95669D01*
X181393Y94974D01*
X181787Y94385D01*
X182376Y93992D01*
X183071Y93853D01*
X183766Y93992D01*
X184355Y94385D01*
X184749Y94974D01*
X184887Y95669D01*
X184749Y96364D01*
X184355Y96953D01*
X183766Y97347D01*
X183071Y97485D01*
D02*
G37*
G36*
X175197Y97092D02*
X174502Y96953D01*
X173913Y96560D01*
X173519Y95970D01*
X173381Y95276D01*
X173519Y94581D01*
X173913Y93992D01*
X174502Y93598D01*
X175197Y93460D01*
X175892Y93598D01*
X176481Y93992D01*
X176875Y94581D01*
X177013Y95276D01*
X176875Y95970D01*
X176481Y96560D01*
X175892Y96953D01*
X175197Y97092D01*
D02*
G37*
G36*
X245669Y95911D02*
X244974Y95772D01*
X244385Y95379D01*
X243991Y94789D01*
X243853Y94095D01*
X243991Y93400D01*
X244385Y92810D01*
X244974Y92417D01*
X245669Y92278D01*
X246364Y92417D01*
X246953Y92810D01*
X247347Y93400D01*
X247485Y94095D01*
X247347Y94789D01*
X246953Y95379D01*
X246364Y95772D01*
X245669Y95911D01*
D02*
G37*
G36*
X224803D02*
X224108Y95772D01*
X223519Y95379D01*
X223125Y94789D01*
X222987Y94095D01*
X223125Y93400D01*
X223519Y92810D01*
X224108Y92417D01*
X224803Y92278D01*
X225498Y92417D01*
X226087Y92810D01*
X226481Y93400D01*
X226619Y94095D01*
X226481Y94789D01*
X226087Y95379D01*
X225498Y95772D01*
X224803Y95911D01*
D02*
G37*
G36*
X68504Y95329D02*
X67809Y95191D01*
X67220Y94797D01*
X66826Y94208D01*
X66688Y93513D01*
X66826Y92818D01*
X67220Y92229D01*
X67809Y91836D01*
X68504Y91697D01*
X69199Y91836D01*
X69788Y92229D01*
X70182Y92818D01*
X70320Y93513D01*
X70182Y94208D01*
X69788Y94797D01*
X69199Y95191D01*
X68504Y95329D01*
D02*
G37*
G36*
X-28928Y95123D02*
X-29623Y94985D01*
X-30212Y94591D01*
X-30605Y94002D01*
X-30744Y93307D01*
X-30605Y92612D01*
X-30212Y92023D01*
X-29623Y91629D01*
X-28928Y91491D01*
X-28233Y91629D01*
X-27643Y92023D01*
X-27250Y92612D01*
X-27112Y93307D01*
X-27250Y94002D01*
X-27643Y94591D01*
X-28233Y94985D01*
X-28928Y95123D01*
D02*
G37*
G36*
X64961Y91580D02*
X64266Y91442D01*
X63677Y91048D01*
X63283Y90459D01*
X63145Y89764D01*
X63283Y89069D01*
X63427Y88854D01*
X63126Y88403D01*
X62992Y88430D01*
X62297Y88292D01*
X61708Y87898D01*
X61314Y87309D01*
X61176Y86614D01*
X61314Y85919D01*
X61708Y85330D01*
X62297Y84936D01*
X62992Y84798D01*
X63687Y84936D01*
X64276Y85330D01*
X64670Y85919D01*
X64808Y86614D01*
X64670Y87309D01*
X64526Y87524D01*
X64827Y87974D01*
X64961Y87948D01*
X65656Y88086D01*
X66245Y88480D01*
X66638Y89069D01*
X66777Y89764D01*
X66638Y90459D01*
X66245Y91048D01*
X65656Y91442D01*
X64961Y91580D01*
D02*
G37*
G36*
X149606Y90755D02*
X148911Y90616D01*
X148322Y90223D01*
X147929Y89634D01*
X147790Y88939D01*
X147929Y88244D01*
X148322Y87655D01*
X148911Y87261D01*
X149606Y87123D01*
X150301Y87261D01*
X150890Y87655D01*
X151284Y88244D01*
X151422Y88939D01*
X151284Y89634D01*
X150890Y90223D01*
X150301Y90616D01*
X149606Y90755D01*
D02*
G37*
G36*
X102362Y88430D02*
X101667Y88292D01*
X101078Y87898D01*
X100684Y87309D01*
X100546Y86614D01*
X100684Y85919D01*
X101078Y85330D01*
X101667Y84936D01*
X102362Y84798D01*
X103057Y84936D01*
X103646Y85330D01*
X104040Y85919D01*
X104178Y86614D01*
X104040Y87309D01*
X103646Y87898D01*
X103057Y88292D01*
X102362Y88430D01*
D02*
G37*
G36*
X365708Y106095D02*
X363484D01*
X361259D01*
X361336Y105705D01*
X361840Y104952D01*
X361923Y104295D01*
X361713Y103981D01*
X361567Y103248D01*
X361713Y102515D01*
X362129Y101893D01*
X362230Y101825D01*
Y101325D01*
X362129Y101257D01*
X361713Y100635D01*
X361567Y99902D01*
X361713Y99169D01*
X362129Y98547D01*
X362231Y98479D01*
Y97979D01*
X362129Y97910D01*
X361713Y97288D01*
X361567Y96555D01*
X361713Y95822D01*
X362129Y95200D01*
X362230Y95132D01*
Y94632D01*
X362129Y94564D01*
X361713Y93942D01*
X361567Y93209D01*
X361713Y92476D01*
X362129Y91854D01*
X362231Y91786D01*
Y91286D01*
X362129Y91217D01*
X361713Y90595D01*
X361567Y89862D01*
X361713Y89129D01*
X362129Y88507D01*
X362230Y88439D01*
Y87939D01*
X362129Y87871D01*
X361713Y87249D01*
X361567Y86516D01*
X361713Y85783D01*
X361923Y85469D01*
X361840Y84812D01*
X361336Y84058D01*
X361259Y83669D01*
X363484D01*
X365708D01*
X365631Y84058D01*
X365127Y84812D01*
X365045Y85469D01*
X365254Y85783D01*
X365400Y86516D01*
X365254Y87249D01*
X364839Y87871D01*
X364737Y87939D01*
Y88439D01*
X364839Y88507D01*
X365254Y89129D01*
X365400Y89862D01*
X365254Y90595D01*
X364839Y91217D01*
X364736Y91286D01*
Y91786D01*
X364839Y91854D01*
X365254Y92476D01*
X365400Y93209D01*
X365254Y93942D01*
X364839Y94564D01*
X364737Y94632D01*
Y95132D01*
X364839Y95200D01*
X365254Y95822D01*
X365400Y96555D01*
X365254Y97288D01*
X364839Y97910D01*
X364736Y97979D01*
Y98479D01*
X364839Y98547D01*
X365254Y99169D01*
X365400Y99902D01*
X365254Y100635D01*
X364839Y101257D01*
X364737Y101325D01*
Y101825D01*
X364839Y101893D01*
X365254Y102515D01*
X365400Y103248D01*
X365254Y103981D01*
X365045Y104295D01*
X365127Y104952D01*
X365631Y105705D01*
X365708Y106095D01*
D02*
G37*
G36*
X360395D02*
X358170D01*
X355945D01*
X356023Y105705D01*
X356526Y104952D01*
X356609Y104295D01*
X356399Y103981D01*
X356253Y103248D01*
X356399Y102515D01*
X356815Y101893D01*
X356916Y101825D01*
Y101325D01*
X356815Y101257D01*
X356399Y100635D01*
X356253Y99902D01*
X356399Y99169D01*
X356815Y98547D01*
X356917Y98479D01*
Y97979D01*
X356815Y97910D01*
X356399Y97288D01*
X356253Y96555D01*
X356399Y95822D01*
X356815Y95200D01*
X356916Y95132D01*
Y94632D01*
X356815Y94564D01*
X356399Y93942D01*
X356253Y93209D01*
X356399Y92476D01*
X356815Y91854D01*
X356917Y91786D01*
Y91286D01*
X356815Y91217D01*
X356399Y90595D01*
X356253Y89862D01*
X356399Y89129D01*
X356815Y88507D01*
X356916Y88439D01*
Y87939D01*
X356815Y87871D01*
X356399Y87249D01*
X356253Y86516D01*
X356399Y85783D01*
X356609Y85469D01*
X356526Y84812D01*
X356023Y84058D01*
X355945Y83669D01*
X358170D01*
X360395D01*
X360317Y84058D01*
X359813Y84812D01*
X359731Y85469D01*
X359940Y85783D01*
X360086Y86516D01*
X359940Y87249D01*
X359525Y87871D01*
X359423Y87939D01*
Y88439D01*
X359525Y88507D01*
X359940Y89129D01*
X360086Y89862D01*
X359940Y90595D01*
X359525Y91217D01*
X359422Y91286D01*
Y91786D01*
X359525Y91854D01*
X359940Y92476D01*
X360086Y93209D01*
X359940Y93942D01*
X359525Y94564D01*
X359423Y94632D01*
Y95132D01*
X359525Y95200D01*
X359940Y95822D01*
X360086Y96555D01*
X359940Y97288D01*
X359525Y97910D01*
X359422Y97979D01*
Y98479D01*
X359525Y98547D01*
X359940Y99169D01*
X360086Y99902D01*
X359940Y100635D01*
X359525Y101257D01*
X359423Y101325D01*
Y101825D01*
X359525Y101893D01*
X359940Y102515D01*
X360086Y103248D01*
X359940Y103981D01*
X359731Y104295D01*
X359813Y104952D01*
X360317Y105705D01*
X360395Y106095D01*
D02*
G37*
G36*
X90945Y87249D02*
X90250Y87111D01*
X89661Y86717D01*
X89267Y86128D01*
X89129Y85433D01*
X89267Y84738D01*
X89661Y84149D01*
X90250Y83755D01*
X90945Y83617D01*
X91640Y83755D01*
X92229Y84149D01*
X92623Y84738D01*
X92761Y85433D01*
X92623Y86128D01*
X92229Y86717D01*
X91640Y87111D01*
X90945Y87249D01*
D02*
G37*
G36*
X259055Y86068D02*
X258360Y85930D01*
X257771Y85536D01*
X257377Y84947D01*
X257239Y84252D01*
X257377Y83557D01*
X257771Y82968D01*
X258360Y82574D01*
X259055Y82436D01*
X259750Y82574D01*
X260339Y82968D01*
X260733Y83557D01*
X260871Y84252D01*
X260733Y84947D01*
X260339Y85536D01*
X259750Y85930D01*
X259055Y86068D01*
D02*
G37*
G36*
X65748Y85281D02*
X65053Y85142D01*
X64464Y84749D01*
X64070Y84159D01*
X63932Y83465D01*
X64070Y82770D01*
X64464Y82181D01*
X65053Y81787D01*
X65748Y81649D01*
X66443Y81787D01*
X67032Y82181D01*
X67426Y82770D01*
X67564Y83465D01*
X67426Y84159D01*
X67032Y84749D01*
X66443Y85142D01*
X65748Y85281D01*
D02*
G37*
G36*
X71260Y84493D02*
X70565Y84355D01*
X69976Y83961D01*
X69582Y83372D01*
X69444Y82677D01*
X69582Y81982D01*
X69976Y81393D01*
X70565Y80999D01*
X71260Y80861D01*
X71955Y80999D01*
X72544Y81393D01*
X72938Y81982D01*
X73076Y82677D01*
X72938Y83372D01*
X72544Y83961D01*
X71955Y84355D01*
X71260Y84493D01*
D02*
G37*
G36*
X148622Y83509D02*
X147927Y83371D01*
X147338Y82977D01*
X146944Y82388D01*
X146806Y81693D01*
X146944Y80998D01*
X147338Y80409D01*
X147927Y80015D01*
X148622Y79877D01*
X149317Y80015D01*
X149906Y80409D01*
X150300Y80998D01*
X150438Y81693D01*
X150300Y82388D01*
X149906Y82977D01*
X149317Y83371D01*
X148622Y83509D01*
D02*
G37*
G36*
X-29921Y82525D02*
X-30616Y82386D01*
X-31205Y81993D01*
X-31599Y81404D01*
X-31737Y80709D01*
X-31599Y80014D01*
X-31205Y79425D01*
X-30616Y79031D01*
X-29921Y78893D01*
X-29226Y79031D01*
X-28637Y79425D01*
X-28243Y80014D01*
X-28105Y80709D01*
X-28243Y81404D01*
X-28637Y81993D01*
X-29226Y82386D01*
X-29921Y82525D01*
D02*
G37*
G36*
X360395Y82669D02*
X358170D01*
X355945D01*
X356023Y82279D01*
X356526Y81525D01*
X357280Y81022D01*
X357884Y80902D01*
X357935Y80382D01*
X357677Y80275D01*
X357098Y79831D01*
X356654Y79252D01*
X356375Y78578D01*
X356345Y78354D01*
X362028D01*
X367710D01*
X367681Y78578D01*
X367401Y79252D01*
X366957Y79831D01*
X366378Y80275D01*
X365704Y80554D01*
X364981Y80649D01*
X364716D01*
X364564Y81149D01*
X365127Y81525D01*
X365631Y82279D01*
X365708Y82669D01*
X363484D01*
X361259D01*
X361336Y82279D01*
X361840Y81525D01*
X362403Y81149D01*
X362252Y80649D01*
X359402D01*
X359250Y81149D01*
X359813Y81525D01*
X360317Y82279D01*
X360395Y82669D01*
D02*
G37*
G36*
X205020Y80753D02*
X204325Y80615D01*
X203736Y80221D01*
X203342Y79632D01*
X203204Y78937D01*
X203342Y78242D01*
X203736Y77653D01*
X204325Y77259D01*
X205020Y77121D01*
X205715Y77259D01*
X206304Y77653D01*
X206697Y78242D01*
X206836Y78937D01*
X206697Y79632D01*
X206304Y80221D01*
X205715Y80615D01*
X205020Y80753D01*
D02*
G37*
G36*
X318898Y79375D02*
X318203Y79237D01*
X317614Y78843D01*
X317220Y78254D01*
X317082Y77559D01*
X317220Y76864D01*
X317614Y76275D01*
X318203Y75881D01*
X318898Y75743D01*
X319593Y75881D01*
X320182Y76275D01*
X320575Y76864D01*
X320714Y77559D01*
X320575Y78254D01*
X320182Y78843D01*
X319593Y79237D01*
X318898Y79375D01*
D02*
G37*
G36*
X376910Y80272D02*
X373760D01*
X372834Y80088D01*
X372050Y79564D01*
X371526Y78779D01*
X371342Y77854D01*
X371526Y76929D01*
X372050Y76144D01*
X372834Y75620D01*
X373760Y75436D01*
X376910D01*
X377835Y75620D01*
X378620Y76144D01*
X379144Y76929D01*
X379328Y77854D01*
X379144Y78779D01*
X378620Y79564D01*
X377835Y80088D01*
X376910Y80272D01*
D02*
G37*
G36*
X367710Y77354D02*
X362528D01*
Y75059D01*
X364981D01*
X365704Y75154D01*
X366378Y75433D01*
X366957Y75877D01*
X367401Y76456D01*
X367681Y77130D01*
X367710Y77354D01*
D02*
G37*
G36*
X361528D02*
X356345D01*
X356375Y77130D01*
X356654Y76456D01*
X357098Y75877D01*
X357677Y75433D01*
X358351Y75154D01*
X359075Y75059D01*
X361528D01*
Y77354D01*
D02*
G37*
G36*
X256693Y76225D02*
X255998Y76087D01*
X255409Y75694D01*
X255015Y75104D01*
X254877Y74410D01*
X255015Y73715D01*
X255409Y73125D01*
X255998Y72732D01*
X256693Y72593D01*
X257388Y72732D01*
X257977Y73125D01*
X258371Y73715D01*
X258509Y74410D01*
X258371Y75104D01*
X257977Y75694D01*
X257388Y76087D01*
X256693Y76225D01*
D02*
G37*
G36*
X195374Y75438D02*
X194679Y75300D01*
X194090Y74906D01*
X193696Y74317D01*
X193558Y73622D01*
X193696Y72927D01*
X194090Y72338D01*
X194679Y71944D01*
X195374Y71806D01*
X196069Y71944D01*
X196658Y72338D01*
X197052Y72927D01*
X197190Y73622D01*
X197052Y74317D01*
X196658Y74906D01*
X196069Y75300D01*
X195374Y75438D01*
D02*
G37*
G36*
X331890Y78794D02*
X331195Y78656D01*
X330606Y78262D01*
X330212Y77673D01*
X330074Y76978D01*
X330212Y76283D01*
X330606Y75694D01*
Y75300D01*
X330212Y74711D01*
X330074Y74016D01*
X330212Y73321D01*
X330606Y72732D01*
X331149Y72369D01*
X331164Y72187D01*
X331096Y71848D01*
X330633Y71757D01*
X330044Y71363D01*
X329651Y70774D01*
X329512Y70079D01*
X329651Y69384D01*
X330044Y68795D01*
X330633Y68401D01*
X331328Y68263D01*
X332023Y68401D01*
X332612Y68795D01*
X333006Y69384D01*
X333144Y70079D01*
X333006Y70774D01*
X332612Y71363D01*
X332069Y71726D01*
X332054Y71907D01*
X332122Y72246D01*
X332585Y72338D01*
X333174Y72732D01*
X333568Y73321D01*
X333706Y74016D01*
X333568Y74711D01*
X333174Y75300D01*
Y75694D01*
X333568Y76283D01*
X333706Y76978D01*
X333568Y77673D01*
X333174Y78262D01*
X332585Y78656D01*
X331890Y78794D01*
D02*
G37*
G36*
X90158Y71107D02*
X89463Y70969D01*
X88873Y70575D01*
X88480Y69986D01*
X88341Y69291D01*
X88480Y68596D01*
X88873Y68007D01*
X89463Y67614D01*
X90158Y67475D01*
X90852Y67614D01*
X91442Y68007D01*
X91835Y68596D01*
X91974Y69291D01*
X91835Y69986D01*
X91442Y70575D01*
X90852Y70969D01*
X90158Y71107D01*
D02*
G37*
G36*
X272047Y70320D02*
X271352Y70182D01*
X270763Y69788D01*
X270370Y69199D01*
X270231Y68504D01*
X270370Y67809D01*
X270763Y67220D01*
X271352Y66826D01*
X272047Y66688D01*
X272742Y66826D01*
X273331Y67220D01*
X273725Y67809D01*
X273863Y68504D01*
X273725Y69199D01*
X273331Y69788D01*
X272742Y70182D01*
X272047Y70320D01*
D02*
G37*
G36*
X205118Y70222D02*
X204423Y70083D01*
X203834Y69690D01*
X203440Y69100D01*
X203302Y68405D01*
X203440Y67711D01*
X203834Y67121D01*
X204423Y66728D01*
X205118Y66589D01*
X205813Y66728D01*
X206402Y67121D01*
X206796Y67711D01*
X206934Y68405D01*
X206796Y69100D01*
X206402Y69690D01*
X205813Y70083D01*
X205118Y70222D01*
D02*
G37*
G36*
X-15354Y69139D02*
X-16049Y69001D01*
X-16638Y68607D01*
X-17032Y68018D01*
X-17170Y67323D01*
X-17032Y66628D01*
X-16638Y66039D01*
X-16049Y65645D01*
X-15354Y65507D01*
X-14659Y65645D01*
X-14070Y66039D01*
X-13677Y66628D01*
X-13538Y67323D01*
X-13677Y68018D01*
X-14070Y68607D01*
X-14659Y69001D01*
X-15354Y69139D01*
D02*
G37*
G36*
X324852Y68745D02*
X324157Y68607D01*
X323568Y68213D01*
X323174Y67624D01*
X323036Y66929D01*
X323174Y66234D01*
X323568Y65645D01*
X324157Y65251D01*
X324852Y65113D01*
X325547Y65251D01*
X326136Y65645D01*
X326530Y66234D01*
X326668Y66929D01*
X326530Y67624D01*
X326136Y68213D01*
X325547Y68607D01*
X324852Y68745D01*
D02*
G37*
G36*
X355118Y66777D02*
X354423Y66638D01*
X353834Y66245D01*
X353440Y65656D01*
X353302Y64961D01*
X353440Y64266D01*
X353834Y63677D01*
X354423Y63283D01*
X355118Y63145D01*
X355813Y63283D01*
X356402Y63677D01*
X356796Y64266D01*
X356934Y64961D01*
X356796Y65656D01*
X356402Y66245D01*
X355813Y66638D01*
X355118Y66777D01*
D02*
G37*
G36*
X-29528Y66383D02*
X-30222Y66245D01*
X-30812Y65851D01*
X-31205Y65262D01*
X-31343Y64567D01*
X-31205Y63872D01*
X-30812Y63283D01*
X-30222Y62889D01*
X-29528Y62751D01*
X-28833Y62889D01*
X-28243Y63283D01*
X-27850Y63872D01*
X-27712Y64567D01*
X-27850Y65262D01*
X-28243Y65851D01*
X-28833Y66245D01*
X-29528Y66383D01*
D02*
G37*
G36*
X244882Y64414D02*
X244187Y64276D01*
X243598Y63882D01*
X243204Y63293D01*
X243066Y62598D01*
X243204Y61904D01*
X243598Y61314D01*
X244187Y60921D01*
X244882Y60782D01*
X245577Y60921D01*
X246166Y61314D01*
X246560Y61904D01*
X246698Y62598D01*
X246560Y63293D01*
X246166Y63882D01*
X245577Y64276D01*
X244882Y64414D01*
D02*
G37*
G36*
X224016Y64021D02*
X223321Y63882D01*
X222732Y63489D01*
X222338Y62900D01*
X222200Y62205D01*
X222338Y61510D01*
X222732Y60921D01*
X223321Y60527D01*
X224016Y60389D01*
X224711Y60527D01*
X225300Y60921D01*
X225693Y61510D01*
X225832Y62205D01*
X225693Y62900D01*
X225300Y63489D01*
X224711Y63882D01*
X224016Y64021D01*
D02*
G37*
G36*
X223622Y59896D02*
X222927Y59758D01*
X222338Y59364D01*
X221944Y58775D01*
X221806Y58080D01*
X221944Y57385D01*
X222338Y56796D01*
X222927Y56402D01*
X223622Y56264D01*
X224317Y56402D01*
X224906Y56796D01*
X225300Y57385D01*
X225438Y58080D01*
X225300Y58775D01*
X224906Y59364D01*
X224317Y59758D01*
X223622Y59896D01*
D02*
G37*
G36*
X279134Y57328D02*
X278439Y57190D01*
X277850Y56796D01*
X277456Y56207D01*
X277318Y55512D01*
X277456Y54817D01*
X277850Y54228D01*
X278439Y53834D01*
X279134Y53696D01*
X279829Y53834D01*
X280418Y54228D01*
X280812Y54817D01*
X280950Y55512D01*
X280812Y56207D01*
X280418Y56796D01*
X279829Y57190D01*
X279134Y57328D01*
D02*
G37*
G36*
X8960Y58115D02*
X8265Y57977D01*
X7676Y57583D01*
X7282Y56994D01*
X7144Y56299D01*
X7282Y55604D01*
X7676Y55015D01*
X8265Y54621D01*
X8960Y54483D01*
X8988Y54489D01*
X9148Y54040D01*
X8558Y53646D01*
X8165Y53057D01*
X8027Y52362D01*
X8165Y51667D01*
X8558Y51078D01*
X9148Y50684D01*
X9843Y50546D01*
X10537Y50684D01*
X11127Y51078D01*
X11520Y51667D01*
X11659Y52362D01*
X11520Y53057D01*
X11127Y53646D01*
X10537Y54040D01*
X9843Y54178D01*
X9814Y54173D01*
X9655Y54621D01*
X10244Y55015D01*
X10637Y55604D01*
X10776Y56299D01*
X10637Y56994D01*
X10244Y57583D01*
X9655Y57977D01*
X8960Y58115D01*
D02*
G37*
G36*
X249080Y53578D02*
X248385Y53440D01*
X247796Y53046D01*
X247403Y52457D01*
X247264Y51762D01*
X247403Y51067D01*
X247796Y50478D01*
X248385Y50084D01*
X249080Y49946D01*
X249775Y50084D01*
X250364Y50478D01*
X250758Y51067D01*
X250896Y51762D01*
X250758Y52457D01*
X250364Y53046D01*
X249775Y53440D01*
X249080Y53578D01*
D02*
G37*
G36*
X71653Y53199D02*
X70959Y53061D01*
X70369Y52667D01*
X69976Y52078D01*
X69837Y51383D01*
X69976Y50688D01*
X70369Y50099D01*
X70959Y49705D01*
X71653Y49567D01*
X72348Y49705D01*
X72938Y50099D01*
X73331Y50688D01*
X73470Y51383D01*
X73331Y52078D01*
X72938Y52667D01*
X72348Y53061D01*
X71653Y53199D01*
D02*
G37*
G36*
X316666Y54381D02*
X315971Y54242D01*
X315382Y53849D01*
X314988Y53259D01*
X314869Y52659D01*
X314739Y52466D01*
X314417Y52180D01*
X313872Y52071D01*
X313283Y51678D01*
X312889Y51089D01*
X312751Y50394D01*
X312889Y49699D01*
X313283Y49110D01*
X313872Y48716D01*
X314567Y48578D01*
X315262Y48716D01*
X315851Y49110D01*
X316245Y49699D01*
X316364Y50299D01*
X316494Y50492D01*
X316816Y50778D01*
X317361Y50887D01*
X317950Y51280D01*
X318344Y51870D01*
X318482Y52565D01*
X318344Y53259D01*
X317950Y53849D01*
X317361Y54242D01*
X316666Y54381D01*
D02*
G37*
G36*
X240158Y51029D02*
X239462Y50890D01*
X238873Y50497D01*
X238480Y49907D01*
X238341Y49213D01*
X238480Y48518D01*
X238873Y47929D01*
X239462Y47535D01*
X240158Y47397D01*
X240852Y47535D01*
X241442Y47929D01*
X241835Y48518D01*
X241973Y49213D01*
X241835Y49907D01*
X241442Y50497D01*
X240852Y50890D01*
X240158Y51029D01*
D02*
G37*
G36*
X110993Y50022D02*
X109858Y49873D01*
X108800Y49435D01*
X108293Y49045D01*
X110993Y46345D01*
X113692Y49045D01*
X113184Y49435D01*
X112127Y49873D01*
X110993Y50022D01*
D02*
G37*
G36*
X-15354Y47879D02*
X-16049Y47741D01*
X-16638Y47347D01*
X-17032Y46758D01*
X-17170Y46063D01*
X-17032Y45368D01*
X-16638Y44779D01*
X-16049Y44385D01*
X-15354Y44247D01*
X-14659Y44385D01*
X-14070Y44779D01*
X-13677Y45368D01*
X-13538Y46063D01*
X-13677Y46758D01*
X-14070Y47347D01*
X-14659Y47741D01*
X-15354Y47879D01*
D02*
G37*
G36*
X349410Y47092D02*
X348714Y46953D01*
X348125Y46560D01*
X347732Y45970D01*
X347593Y45276D01*
X347732Y44581D01*
X348125Y43992D01*
X348714Y43598D01*
X349410Y43460D01*
X350104Y43598D01*
X350694Y43992D01*
X351087Y44581D01*
X351225Y45276D01*
X351087Y45970D01*
X350694Y46560D01*
X350104Y46953D01*
X349410Y47092D01*
D02*
G37*
G36*
X114400Y48338D02*
X111700Y45638D01*
X114400Y42938D01*
X114789Y43446D01*
X115227Y44504D01*
X115376Y45638D01*
X115227Y46773D01*
X114789Y47830D01*
X114400Y48338D01*
D02*
G37*
G36*
X107586D02*
X107196Y47830D01*
X106758Y46773D01*
X106608Y45638D01*
X106758Y44504D01*
X107196Y43446D01*
X107586Y42938D01*
X110285Y45638D01*
X107586Y48338D01*
D02*
G37*
G36*
X215748Y45517D02*
X215053Y45379D01*
X214464Y44985D01*
X214070Y44396D01*
X213932Y43701D01*
X214070Y43006D01*
X214464Y42417D01*
X215053Y42023D01*
X215748Y41885D01*
X216443Y42023D01*
X217032Y42417D01*
X217426Y43006D01*
X217564Y43701D01*
X217426Y44396D01*
X217032Y44985D01*
X216443Y45379D01*
X215748Y45517D01*
D02*
G37*
G36*
X242126Y45123D02*
X241431Y44985D01*
X240842Y44591D01*
X240448Y44002D01*
X240310Y43307D01*
X240448Y42612D01*
X240842Y42023D01*
X241431Y41629D01*
X242126Y41491D01*
X242821Y41629D01*
X243410Y42023D01*
X243804Y42612D01*
X243942Y43307D01*
X243804Y44002D01*
X243410Y44591D01*
X242821Y44985D01*
X242126Y45123D01*
D02*
G37*
G36*
X110993Y44931D02*
X108293Y42231D01*
X108800Y41842D01*
X109858Y41404D01*
X110993Y41254D01*
X112127Y41404D01*
X113184Y41842D01*
X113692Y42231D01*
X110993Y44931D01*
D02*
G37*
G36*
X220472Y42367D02*
X219777Y42229D01*
X219188Y41835D01*
X218795Y41246D01*
X218656Y40551D01*
X218795Y39856D01*
X219188Y39267D01*
X219777Y38873D01*
X220472Y38735D01*
X221167Y38873D01*
X221757Y39267D01*
X222150Y39856D01*
X222288Y40551D01*
X222150Y41246D01*
X221757Y41835D01*
X221167Y42229D01*
X220472Y42367D01*
D02*
G37*
G36*
X342520Y42170D02*
X341825Y42032D01*
X341236Y41638D01*
X340842Y41049D01*
X340704Y40354D01*
X340842Y39659D01*
X341236Y39070D01*
X341825Y38677D01*
X342520Y38538D01*
X343215Y38677D01*
X343804Y39070D01*
X344197Y39659D01*
X344336Y40354D01*
X344197Y41049D01*
X343804Y41638D01*
X343215Y42032D01*
X342520Y42170D01*
D02*
G37*
G36*
X-29435Y41094D02*
X-30130Y40955D01*
X-30719Y40562D01*
X-31113Y39973D01*
X-31251Y39278D01*
X-31113Y38583D01*
X-30719Y37994D01*
X-30130Y37600D01*
X-29435Y37462D01*
X-28740Y37600D01*
X-28151Y37994D01*
X-27757Y38583D01*
X-27619Y39278D01*
X-27757Y39973D01*
X-28151Y40562D01*
X-28740Y40955D01*
X-29435Y41094D01*
D02*
G37*
G36*
X235827Y40792D02*
X235132Y40654D01*
X234543Y40260D01*
X234149Y39671D01*
X234011Y38976D01*
X234149Y38281D01*
X234543Y37692D01*
X235132Y37299D01*
X235827Y37160D01*
X236522Y37299D01*
X237111Y37692D01*
X237505Y38281D01*
X237643Y38976D01*
X237505Y39671D01*
X237111Y40260D01*
X236522Y40654D01*
X235827Y40792D01*
D02*
G37*
G36*
X246457Y39611D02*
X245762Y39473D01*
X245173Y39079D01*
X244779Y38490D01*
X244641Y37795D01*
X244779Y37100D01*
X245173Y36511D01*
X245762Y36118D01*
X246457Y35979D01*
X247152Y36118D01*
X247741Y36511D01*
X248134Y37100D01*
X248273Y37795D01*
X248134Y38490D01*
X247741Y39079D01*
X247152Y39473D01*
X246457Y39611D01*
D02*
G37*
G36*
X103921Y42548D02*
X102891Y42412D01*
X101931Y42014D01*
X101107Y41382D01*
X100474Y40557D01*
X100077Y39597D01*
X99941Y38567D01*
X100077Y37537D01*
X100474Y36577D01*
X101107Y35752D01*
X101931Y35120D01*
X102891Y34722D01*
X103921Y34587D01*
X104952Y34722D01*
X105912Y35120D01*
X106736Y35752D01*
X107369Y36577D01*
X107766Y37537D01*
X107902Y38567D01*
X107766Y39597D01*
X107369Y40557D01*
X106736Y41382D01*
X105912Y42014D01*
X104952Y42412D01*
X103921Y42548D01*
D02*
G37*
G36*
X-28740Y36462D02*
X-29435Y36323D01*
X-30024Y35930D01*
X-30418Y35341D01*
X-30556Y34646D01*
X-30418Y33951D01*
X-30024Y33362D01*
X-29435Y32968D01*
X-28740Y32830D01*
X-28045Y32968D01*
X-27456Y33362D01*
X-27062Y33951D01*
X-26924Y34646D01*
X-27062Y35341D01*
X-27456Y35930D01*
X-28045Y36323D01*
X-28740Y36462D01*
D02*
G37*
G36*
X208661Y34287D02*
X207966Y34149D01*
X207377Y33755D01*
X206984Y33166D01*
X206845Y32471D01*
X206984Y31776D01*
X207377Y31187D01*
X207966Y30793D01*
X208661Y30655D01*
X209356Y30793D01*
X209946Y31187D01*
X210339Y31776D01*
X210477Y32471D01*
X210339Y33166D01*
X209946Y33755D01*
X209356Y34149D01*
X208661Y34287D01*
D02*
G37*
G36*
X251969Y34100D02*
X251273Y33961D01*
X250684Y33568D01*
X250291Y32978D01*
X250152Y32283D01*
X250291Y31589D01*
X250684Y30999D01*
X251273Y30606D01*
X251969Y30468D01*
X252663Y30606D01*
X253253Y30999D01*
X253646Y31589D01*
X253784Y32283D01*
X253646Y32978D01*
X253253Y33568D01*
X252663Y33961D01*
X251969Y34100D01*
D02*
G37*
G36*
X213779Y33706D02*
X213085Y33568D01*
X212495Y33174D01*
X212102Y32585D01*
X211964Y31890D01*
X212102Y31195D01*
X212495Y30606D01*
X213085Y30212D01*
X213779Y30074D01*
X214475Y30212D01*
X215064Y30606D01*
X215457Y31195D01*
X215596Y31890D01*
X215457Y32585D01*
X215064Y33174D01*
X214475Y33568D01*
X213779Y33706D01*
D02*
G37*
G36*
X203937Y32918D02*
X203242Y32780D01*
X202653Y32386D01*
X202259Y31797D01*
X202121Y31102D01*
X202259Y30407D01*
X202653Y29818D01*
X203242Y29425D01*
X203937Y29286D01*
X204632Y29425D01*
X205221Y29818D01*
X205615Y30407D01*
X205753Y31102D01*
X205615Y31797D01*
X205221Y32386D01*
X204632Y32780D01*
X203937Y32918D01*
D02*
G37*
G36*
X323819Y31343D02*
X323124Y31205D01*
X322535Y30812D01*
X322141Y30222D01*
X322003Y29528D01*
X322141Y28833D01*
X322535Y28243D01*
X323124Y27850D01*
X323819Y27712D01*
X324514Y27850D01*
X325103Y28243D01*
X325497Y28833D01*
X325635Y29528D01*
X325497Y30222D01*
X325103Y30812D01*
X324514Y31205D01*
X323819Y31343D01*
D02*
G37*
G36*
X96850Y35477D02*
X95820Y35341D01*
X94860Y34943D01*
X94036Y34311D01*
X93403Y33486D01*
X93006Y32526D01*
X92870Y31496D01*
X93006Y30466D01*
X93403Y29506D01*
X94036Y28681D01*
X94860Y28049D01*
X95820Y27651D01*
X96850Y27516D01*
X97881Y27651D01*
X98841Y28049D01*
X99665Y28681D01*
X100298Y29506D01*
X100695Y30466D01*
X100831Y31496D01*
X100695Y32526D01*
X100298Y33486D01*
X99665Y34311D01*
X98841Y34943D01*
X97881Y35341D01*
X96850Y35477D01*
D02*
G37*
G36*
X243701Y29375D02*
X243006Y29237D01*
X242417Y28843D01*
X242023Y28254D01*
X241885Y27559D01*
X242023Y26864D01*
X242417Y26275D01*
X243006Y25881D01*
X243701Y25743D01*
X244396Y25881D01*
X244985Y26275D01*
X245378Y26864D01*
X245517Y27559D01*
X245378Y28254D01*
X244985Y28843D01*
X244396Y29237D01*
X243701Y29375D01*
D02*
G37*
G36*
X43307Y27406D02*
X42612Y27268D01*
X42023Y26875D01*
X41629Y26285D01*
X41491Y25591D01*
X41629Y24896D01*
X42023Y24306D01*
X42612Y23913D01*
X43307Y23775D01*
X44002Y23913D01*
X44591Y24306D01*
X44985Y24896D01*
X45123Y25591D01*
X44985Y26285D01*
X44591Y26875D01*
X44002Y27268D01*
X43307Y27406D01*
D02*
G37*
G36*
X67716Y26225D02*
X67022Y26087D01*
X66432Y25694D01*
X66039Y25104D01*
X65900Y24409D01*
X66039Y23715D01*
X66432Y23125D01*
X67022Y22732D01*
X67716Y22593D01*
X68411Y22732D01*
X69001Y23125D01*
X69394Y23715D01*
X69533Y24409D01*
X69394Y25104D01*
X69001Y25694D01*
X68411Y26087D01*
X67716Y26225D01*
D02*
G37*
G36*
X89779Y28405D02*
X88749Y28270D01*
X87789Y27872D01*
X86965Y27240D01*
X86332Y26415D01*
X85934Y25455D01*
X85799Y24425D01*
X85934Y23395D01*
X86332Y22435D01*
X86965Y21610D01*
X87789Y20978D01*
X88749Y20580D01*
X89779Y20445D01*
X90810Y20580D01*
X91770Y20978D01*
X92594Y21610D01*
X93226Y22435D01*
X93624Y23395D01*
X93760Y24425D01*
X93624Y25455D01*
X93226Y26415D01*
X92594Y27240D01*
X91770Y27872D01*
X90810Y28270D01*
X89779Y28405D01*
D02*
G37*
G36*
X-7087Y23076D02*
X-7782Y22938D01*
X-8371Y22544D01*
X-8764Y21955D01*
X-8903Y21260D01*
X-8764Y20565D01*
X-8371Y19976D01*
X-7782Y19582D01*
X-7087Y19444D01*
X-6392Y19582D01*
X-5802Y19976D01*
X-5409Y20565D01*
X-5271Y21260D01*
X-5409Y21955D01*
X-5802Y22544D01*
X-6392Y22938D01*
X-7087Y23076D01*
D02*
G37*
G36*
X258268Y19668D02*
X257573Y19530D01*
X256984Y19136D01*
X256590Y18547D01*
X256471Y17949D01*
X256160Y17819D01*
X255970Y17798D01*
X255850Y17978D01*
X255261Y18372D01*
X254566Y18510D01*
X253871Y18372D01*
X253282Y17978D01*
X252888Y17389D01*
X252750Y16694D01*
X252888Y15999D01*
X253282Y15410D01*
X253871Y15016D01*
X254566Y14878D01*
X255261Y15016D01*
X255850Y15410D01*
X256244Y15999D01*
X256363Y16597D01*
X256674Y16726D01*
X256864Y16747D01*
X256984Y16568D01*
X257573Y16174D01*
X258268Y16036D01*
X258963Y16174D01*
X259552Y16568D01*
X259946Y17157D01*
X260084Y17852D01*
X259946Y18547D01*
X259552Y19136D01*
X258963Y19530D01*
X258268Y19668D01*
D02*
G37*
G36*
X215748Y18351D02*
X215053Y18213D01*
X214464Y17819D01*
X214070Y17230D01*
X213932Y16535D01*
X214070Y15841D01*
X214464Y15251D01*
X215053Y14858D01*
X215748Y14719D01*
X216443Y14858D01*
X217032Y15251D01*
X217426Y15841D01*
X217564Y16535D01*
X217426Y17230D01*
X217032Y17819D01*
X216443Y18213D01*
X215748Y18351D01*
D02*
G37*
G36*
X238546Y17601D02*
X237851Y17463D01*
X237262Y17069D01*
X236868Y16480D01*
X236730Y15785D01*
X236868Y15090D01*
X237262Y14501D01*
X237851Y14107D01*
X238546Y13969D01*
X239241Y14107D01*
X239830Y14501D01*
X240223Y15090D01*
X240362Y15785D01*
X240223Y16480D01*
X239830Y17069D01*
X239241Y17463D01*
X238546Y17601D01*
D02*
G37*
G36*
X16142Y17564D02*
X15447Y17426D01*
X14858Y17032D01*
X14464Y16443D01*
X14326Y15748D01*
X14464Y15053D01*
X14858Y14464D01*
X15447Y14070D01*
X16142Y13932D01*
X16837Y14070D01*
X17426Y14464D01*
X17819Y15053D01*
X17958Y15748D01*
X17819Y16443D01*
X17426Y17032D01*
X16837Y17426D01*
X16142Y17564D01*
D02*
G37*
G36*
X82708Y22935D02*
X77127Y17354D01*
X82708Y11773D01*
X88289Y17354D01*
X82708Y22935D01*
D02*
G37*
G36*
X229134Y12840D02*
X228439Y12701D01*
X227850Y12308D01*
X227456Y11719D01*
X227318Y11024D01*
X227456Y10329D01*
X227850Y9740D01*
X228439Y9346D01*
X229134Y9208D01*
X229829Y9346D01*
X230418Y9740D01*
X230812Y10329D01*
X230950Y11024D01*
X230812Y11719D01*
X230418Y12308D01*
X229829Y12701D01*
X229134Y12840D01*
D02*
G37*
G36*
X214567Y8903D02*
X213872Y8764D01*
X213283Y8371D01*
X212889Y7782D01*
X212751Y7087D01*
X212889Y6392D01*
X213283Y5802D01*
X213872Y5409D01*
X214567Y5271D01*
X215262Y5409D01*
X215851Y5802D01*
X216245Y6392D01*
X216383Y7087D01*
X216245Y7782D01*
X215851Y8371D01*
X215262Y8764D01*
X214567Y8903D01*
D02*
G37*
G36*
X277559Y2210D02*
X276864Y2072D01*
X276275Y1678D01*
X275881Y1089D01*
X275743Y394D01*
X275881Y-301D01*
X276275Y-890D01*
X276864Y-1284D01*
X277559Y-1422D01*
X278254Y-1284D01*
X278843Y-890D01*
X279237Y-301D01*
X279375Y394D01*
X279237Y1089D01*
X278843Y1678D01*
X278254Y2072D01*
X277559Y2210D01*
D02*
G37*
G36*
X354331Y14424D02*
X352074Y14246D01*
X349873Y13718D01*
X347782Y12852D01*
X345852Y11669D01*
X344131Y10199D01*
X342661Y8478D01*
X341479Y6548D01*
X340613Y4457D01*
X340084Y2256D01*
X339907Y-0D01*
X340084Y-2256D01*
X340613Y-4457D01*
X341479Y-6548D01*
X342661Y-8478D01*
X344131Y-10199D01*
X345852Y-11669D01*
X347782Y-12852D01*
X349873Y-13718D01*
X352074Y-14246D01*
X354331Y-14424D01*
X356587Y-14246D01*
X358788Y-13718D01*
X360879Y-12852D01*
X362809Y-11669D01*
X364530Y-10199D01*
X366000Y-8478D01*
X367183Y-6548D01*
X368049Y-4457D01*
X368577Y-2256D01*
X368755Y-0D01*
X368577Y2256D01*
X368049Y4457D01*
X367183Y6548D01*
X366000Y8478D01*
X364530Y10199D01*
X362809Y11669D01*
X360879Y12852D01*
X358788Y13718D01*
X356587Y14246D01*
X354331Y14424D01*
D02*
G37*
G36*
X-0D02*
X-2256Y14246D01*
X-4457Y13718D01*
X-6548Y12852D01*
X-8478Y11669D01*
X-10199Y10199D01*
X-11669Y8478D01*
X-12852Y6548D01*
X-13718Y4457D01*
X-14246Y2256D01*
X-14424Y-0D01*
X-14246Y-2256D01*
X-13718Y-4457D01*
X-12852Y-6548D01*
X-11669Y-8478D01*
X-10199Y-10199D01*
X-8478Y-11669D01*
X-6548Y-12852D01*
X-4457Y-13718D01*
X-2256Y-14246D01*
X-0Y-14424D01*
X2256Y-14246D01*
X4457Y-13718D01*
X6548Y-12852D01*
X8478Y-11669D01*
X10199Y-10199D01*
X11669Y-8478D01*
X12852Y-6548D01*
X13718Y-4457D01*
X14246Y-2256D01*
X14424Y-0D01*
X14246Y2256D01*
X13718Y4457D01*
X12852Y6548D01*
X11669Y8478D01*
X10199Y10199D01*
X8478Y11669D01*
X6548Y12852D01*
X4457Y13718D01*
X2256Y14246D01*
X-0Y14424D01*
D02*
G37*
G36*
X62795Y-13834D02*
X62100Y-13972D01*
X61511Y-14366D01*
X61118Y-14955D01*
X60979Y-15650D01*
X61118Y-16345D01*
X61511Y-16934D01*
X62100Y-17327D01*
X62795Y-17466D01*
X63490Y-17327D01*
X64079Y-16934D01*
X64473Y-16345D01*
X64611Y-15650D01*
X64473Y-14955D01*
X64079Y-14366D01*
X63490Y-13972D01*
X62795Y-13834D01*
D02*
G37*
G36*
X292520Y-13932D02*
X291825Y-14070D01*
X291236Y-14464D01*
X290842Y-15053D01*
X290704Y-15748D01*
X290842Y-16443D01*
X291236Y-17032D01*
X291825Y-17426D01*
X292520Y-17564D01*
X293215Y-17426D01*
X293804Y-17032D01*
X294197Y-16443D01*
X294336Y-15748D01*
X294197Y-15053D01*
X293804Y-14464D01*
X293215Y-14070D01*
X292520Y-13932D01*
D02*
G37*
G36*
X218504Y-16688D02*
X217809Y-16826D01*
X217220Y-17220D01*
X216826Y-17809D01*
X216688Y-18504D01*
X216826Y-19199D01*
X217220Y-19788D01*
X217809Y-20182D01*
X218504Y-20320D01*
X219199Y-20182D01*
X219788Y-19788D01*
X220182Y-19199D01*
X220320Y-18504D01*
X220182Y-17809D01*
X219788Y-17220D01*
X219199Y-16826D01*
X218504Y-16688D01*
D02*
G37*
G36*
X160236Y-20231D02*
X159541Y-20369D01*
X158952Y-20763D01*
X158558Y-21352D01*
X158420Y-22047D01*
X158558Y-22742D01*
X158952Y-23331D01*
X159541Y-23725D01*
X160236Y-23863D01*
X160931Y-23725D01*
X161520Y-23331D01*
X161914Y-22742D01*
X162052Y-22047D01*
X161914Y-21352D01*
X161520Y-20763D01*
X160931Y-20369D01*
X160236Y-20231D01*
D02*
G37*
G36*
X154724D02*
X154030Y-20369D01*
X153440Y-20763D01*
X153047Y-21352D01*
X152908Y-22047D01*
X153047Y-22742D01*
X153440Y-23331D01*
X154030Y-23725D01*
X154724Y-23863D01*
X155419Y-23725D01*
X156009Y-23331D01*
X156402Y-22742D01*
X156540Y-22047D01*
X156402Y-21352D01*
X156009Y-20763D01*
X155419Y-20369D01*
X154724Y-20231D01*
D02*
G37*
G36*
X200000Y-20625D02*
X199305Y-20763D01*
X198716Y-21157D01*
X198322Y-21746D01*
X198184Y-22441D01*
X198322Y-23136D01*
X198716Y-23725D01*
X199305Y-24119D01*
X200000Y-24257D01*
X200695Y-24119D01*
X201284Y-23725D01*
X201678Y-23136D01*
X201816Y-22441D01*
X201678Y-21746D01*
X201284Y-21157D01*
X200695Y-20763D01*
X200000Y-20625D01*
D02*
G37*
G36*
X218504Y-21806D02*
X217809Y-21944D01*
X217220Y-22338D01*
X216826Y-22927D01*
X216688Y-23622D01*
X216826Y-24317D01*
X217220Y-24906D01*
X217809Y-25300D01*
X218504Y-25438D01*
X219199Y-25300D01*
X219788Y-24906D01*
X220182Y-24317D01*
X220320Y-23622D01*
X220182Y-22927D01*
X219788Y-22338D01*
X219199Y-21944D01*
X218504Y-21806D01*
D02*
G37*
G36*
X62894Y-24070D02*
X62199Y-24208D01*
X61610Y-24602D01*
X61216Y-25191D01*
X61078Y-25886D01*
X61216Y-26581D01*
X61610Y-27170D01*
X62199Y-27564D01*
X62894Y-27702D01*
X63589Y-27564D01*
X64178Y-27170D01*
X64571Y-26581D01*
X64710Y-25886D01*
X64571Y-25191D01*
X64178Y-24602D01*
X63589Y-24208D01*
X62894Y-24070D01*
D02*
G37*
G36*
X152756Y-24562D02*
X152061Y-24700D01*
X151472Y-25094D01*
X151078Y-25683D01*
X150940Y-26378D01*
X151078Y-27073D01*
X151472Y-27662D01*
X152061Y-28056D01*
X152756Y-28194D01*
X153451Y-28056D01*
X154040Y-27662D01*
X154434Y-27073D01*
X154572Y-26378D01*
X154434Y-25683D01*
X154040Y-25094D01*
X153451Y-24700D01*
X152756Y-24562D01*
D02*
G37*
G36*
X129921D02*
X129226Y-24700D01*
X128637Y-25094D01*
X128244Y-25683D01*
X128105Y-26378D01*
X128244Y-27073D01*
X128637Y-27662D01*
X129226Y-28056D01*
X129921Y-28194D01*
X130616Y-28056D01*
X131205Y-27662D01*
X131599Y-27073D01*
X131737Y-26378D01*
X131599Y-25683D01*
X131205Y-25094D01*
X130616Y-24700D01*
X129921Y-24562D01*
D02*
G37*
G36*
X305118Y-25349D02*
X304423Y-25488D01*
X303834Y-25881D01*
X303440Y-26471D01*
X303302Y-27165D01*
X303440Y-27860D01*
X303834Y-28449D01*
X304423Y-28843D01*
X305118Y-28981D01*
X305813Y-28843D01*
X306402Y-28449D01*
X306796Y-27860D01*
X306934Y-27165D01*
X306796Y-26471D01*
X306402Y-25881D01*
X305813Y-25488D01*
X305118Y-25349D01*
D02*
G37*
G36*
X121724Y-26404D02*
X121029Y-26543D01*
X120440Y-26936D01*
X120047Y-27525D01*
X119908Y-28220D01*
X120047Y-28915D01*
X120440Y-29504D01*
X121029Y-29898D01*
X121724Y-30036D01*
X122419Y-29898D01*
X123008Y-29504D01*
X123402Y-28915D01*
X123540Y-28220D01*
X123402Y-27525D01*
X123008Y-26936D01*
X122419Y-26543D01*
X121724Y-26404D01*
D02*
G37*
G36*
X126279Y-27515D02*
X125585Y-27653D01*
X124996Y-28047D01*
X124602Y-28636D01*
X124464Y-29331D01*
X124602Y-30026D01*
X124996Y-30615D01*
X125585Y-31008D01*
X126279Y-31147D01*
X126974Y-31008D01*
X127564Y-30615D01*
X127957Y-30026D01*
X128095Y-29331D01*
X127957Y-28636D01*
X127564Y-28047D01*
X126974Y-27653D01*
X126279Y-27515D01*
D02*
G37*
G36*
X82677Y-30468D02*
X81982Y-30606D01*
X81393Y-30999D01*
X80999Y-31589D01*
X80861Y-32283D01*
X80999Y-32978D01*
X81393Y-33568D01*
X81982Y-33961D01*
X82677Y-34100D01*
X83372Y-33961D01*
X83961Y-33568D01*
X84355Y-32978D01*
X84493Y-32283D01*
X84355Y-31589D01*
X83961Y-30999D01*
X83372Y-30606D01*
X82677Y-30468D01*
D02*
G37*
G36*
X218898Y-31649D02*
X218203Y-31787D01*
X217614Y-32181D01*
X217220Y-32770D01*
X217082Y-33465D01*
X217220Y-34159D01*
X217614Y-34749D01*
X218203Y-35142D01*
X218898Y-35281D01*
X219593Y-35142D01*
X220182Y-34749D01*
X220575Y-34159D01*
X220714Y-33465D01*
X220575Y-32770D01*
X220182Y-32181D01*
X219593Y-31787D01*
X218898Y-31649D01*
D02*
G37*
G36*
X198031Y-32042D02*
X197337Y-32181D01*
X196747Y-32574D01*
X196354Y-33163D01*
X196215Y-33858D01*
X196354Y-34553D01*
X196747Y-35142D01*
X197337Y-35536D01*
X198031Y-35674D01*
X198726Y-35536D01*
X199316Y-35142D01*
X199709Y-34553D01*
X199847Y-33858D01*
X199709Y-33163D01*
X199316Y-32574D01*
X198726Y-32181D01*
X198031Y-32042D01*
D02*
G37*
G36*
X279134Y-35192D02*
X278439Y-35330D01*
X277850Y-35724D01*
X277456Y-36313D01*
X277318Y-37008D01*
X277456Y-37703D01*
X277850Y-38292D01*
X278439Y-38686D01*
X279134Y-38824D01*
X279829Y-38686D01*
X280418Y-38292D01*
X280812Y-37703D01*
X280950Y-37008D01*
X280812Y-36313D01*
X280418Y-35724D01*
X279829Y-35330D01*
X279134Y-35192D01*
D02*
G37*
G36*
X103937Y-37948D02*
X103242Y-38086D01*
X102653Y-38480D01*
X102259Y-39069D01*
X102121Y-39764D01*
X102259Y-40459D01*
X102653Y-41048D01*
X103242Y-41442D01*
X103937Y-41580D01*
X104632Y-41442D01*
X105221Y-41048D01*
X105615Y-40459D01*
X105753Y-39764D01*
X105615Y-39069D01*
X105221Y-38480D01*
X104632Y-38086D01*
X103937Y-37948D01*
D02*
G37*
G36*
X122835Y-38735D02*
X122140Y-38873D01*
X121551Y-39267D01*
X121157Y-39856D01*
X121019Y-40551D01*
X121157Y-41246D01*
X121551Y-41835D01*
X122140Y-42229D01*
X122835Y-42367D01*
X123530Y-42229D01*
X124119Y-41835D01*
X124512Y-41246D01*
X124651Y-40551D01*
X124512Y-39856D01*
X124119Y-39267D01*
X123530Y-38873D01*
X122835Y-38735D01*
D02*
G37*
G36*
X154331Y-41885D02*
X153636Y-42023D01*
X153047Y-42417D01*
X152653Y-43006D01*
X152515Y-43701D01*
X152653Y-44396D01*
X153047Y-44985D01*
X153636Y-45379D01*
X154331Y-45517D01*
X155026Y-45379D01*
X155615Y-44985D01*
X156009Y-44396D01*
X156147Y-43701D01*
X156009Y-43006D01*
X155615Y-42417D01*
X155026Y-42023D01*
X154331Y-41885D01*
D02*
G37*
G36*
X62205Y-45034D02*
X61510Y-45173D01*
X60921Y-45566D01*
X60527Y-46155D01*
X60389Y-46850D01*
X60527Y-47545D01*
X60921Y-48134D01*
X61510Y-48528D01*
X62205Y-48666D01*
X62900Y-48528D01*
X63489Y-48134D01*
X63882Y-47545D01*
X64021Y-46850D01*
X63882Y-46155D01*
X63489Y-45566D01*
X62900Y-45173D01*
X62205Y-45034D01*
D02*
G37*
G36*
X154331Y-46885D02*
X153636Y-47023D01*
X153047Y-47417D01*
X152653Y-48006D01*
X152515Y-48701D01*
X152653Y-49396D01*
X153047Y-49985D01*
X153636Y-50379D01*
X154331Y-50517D01*
X155026Y-50379D01*
X155615Y-49985D01*
X156009Y-49396D01*
X156147Y-48701D01*
X156009Y-48006D01*
X155615Y-47417D01*
X155026Y-47023D01*
X154331Y-46885D01*
D02*
G37*
G36*
X128347Y-47003D02*
X127652Y-47141D01*
X127062Y-47535D01*
X126669Y-48124D01*
X126531Y-48819D01*
X126669Y-49514D01*
X127062Y-50103D01*
X127652Y-50497D01*
X128347Y-50635D01*
X129041Y-50497D01*
X129631Y-50103D01*
X130024Y-49514D01*
X130162Y-48819D01*
X130024Y-48124D01*
X129631Y-47535D01*
X129041Y-47141D01*
X128347Y-47003D01*
D02*
G37*
G36*
X119595Y-49658D02*
Y-53476D01*
X123413D01*
X123329Y-52842D01*
X122891Y-51784D01*
X122194Y-50876D01*
X121286Y-50180D01*
X120229Y-49742D01*
X119595Y-49658D01*
D02*
G37*
G36*
X118595D02*
X117960Y-49742D01*
X116902Y-50180D01*
X115995Y-50876D01*
X115298Y-51784D01*
X114860Y-52842D01*
X114776Y-53476D01*
X118595D01*
Y-49658D01*
D02*
G37*
G36*
X198031Y-51727D02*
X197337Y-51866D01*
X196747Y-52259D01*
X196354Y-52848D01*
X196215Y-53543D01*
X196354Y-54238D01*
X196747Y-54827D01*
X197337Y-55221D01*
X198031Y-55359D01*
X198726Y-55221D01*
X199316Y-54827D01*
X199709Y-54238D01*
X199847Y-53543D01*
X199709Y-52848D01*
X199316Y-52259D01*
X198726Y-51866D01*
X198031Y-51727D01*
D02*
G37*
G36*
X123413Y-54476D02*
X119595D01*
Y-58294D01*
X120229Y-58211D01*
X121286Y-57773D01*
X122194Y-57076D01*
X122891Y-56168D01*
X123329Y-55111D01*
X123413Y-54476D01*
D02*
G37*
G36*
X118595D02*
X114776D01*
X114860Y-55111D01*
X115298Y-56168D01*
X115995Y-57076D01*
X116902Y-57773D01*
X117960Y-58211D01*
X118595Y-58294D01*
Y-54476D01*
D02*
G37*
G36*
X279454Y-56525D02*
X278759Y-56664D01*
X278170Y-57057D01*
X277776Y-57647D01*
X277638Y-58341D01*
X277776Y-59036D01*
X278170Y-59626D01*
X278759Y-60019D01*
X279454Y-60158D01*
X280149Y-60019D01*
X280738Y-59626D01*
X281132Y-59036D01*
X281270Y-58341D01*
X281132Y-57647D01*
X280738Y-57057D01*
X280149Y-56664D01*
X279454Y-56525D01*
D02*
G37*
G36*
X154331Y-56885D02*
X153636Y-57023D01*
X153047Y-57417D01*
X152653Y-58006D01*
X152515Y-58701D01*
X152653Y-59396D01*
X153047Y-59985D01*
X153636Y-60379D01*
X154331Y-60517D01*
X155026Y-60379D01*
X155615Y-59985D01*
X156009Y-59396D01*
X156147Y-58701D01*
X156009Y-58006D01*
X155615Y-57417D01*
X155026Y-57023D01*
X154331Y-56885D01*
D02*
G37*
G36*
X128347Y-57239D02*
X127652Y-57377D01*
X127062Y-57771D01*
X126669Y-58360D01*
X126531Y-59055D01*
X126669Y-59750D01*
X127062Y-60339D01*
X127652Y-60733D01*
X128347Y-60871D01*
X129041Y-60733D01*
X129631Y-60339D01*
X130024Y-59750D01*
X130162Y-59055D01*
X130024Y-58360D01*
X129631Y-57771D01*
X129041Y-57377D01*
X128347Y-57239D01*
D02*
G37*
G36*
X89764Y-55664D02*
X89069Y-55803D01*
X88480Y-56196D01*
X88086Y-56785D01*
X87948Y-57480D01*
X88086Y-58175D01*
X88480Y-58764D01*
X89069Y-59158D01*
X89764Y-59296D01*
X90352Y-59179D01*
X90611Y-59448D01*
X90682Y-59585D01*
X90448Y-59935D01*
X90310Y-60630D01*
X90448Y-61325D01*
X90842Y-61914D01*
X91431Y-62308D01*
X92126Y-62446D01*
X92821Y-62308D01*
X93410Y-61914D01*
X93804Y-61325D01*
X93942Y-60630D01*
X93804Y-59935D01*
X93410Y-59346D01*
X92821Y-58952D01*
X92126Y-58814D01*
X91538Y-58931D01*
X91279Y-58662D01*
X91207Y-58526D01*
X91442Y-58175D01*
X91580Y-57480D01*
X91442Y-56785D01*
X91048Y-56196D01*
X90459Y-55803D01*
X89764Y-55664D01*
D02*
G37*
G36*
X221260Y-61963D02*
X220565Y-62102D01*
X219976Y-62495D01*
X219582Y-63085D01*
X219444Y-63779D01*
X219582Y-64474D01*
X219976Y-65064D01*
X220565Y-65457D01*
X221260Y-65596D01*
X221955Y-65457D01*
X222544Y-65064D01*
X222938Y-64474D01*
X223076Y-63779D01*
X222938Y-63085D01*
X222544Y-62495D01*
X221955Y-62102D01*
X221260Y-61963D01*
D02*
G37*
G36*
X237008Y-63538D02*
X236313Y-63677D01*
X235724Y-64070D01*
X235330Y-64659D01*
X235192Y-65354D01*
X235330Y-66049D01*
X235724Y-66638D01*
X236313Y-67032D01*
X237008Y-67170D01*
X237703Y-67032D01*
X238292Y-66638D01*
X238686Y-66049D01*
X238824Y-65354D01*
X238686Y-64659D01*
X238292Y-64070D01*
X237703Y-63677D01*
X237008Y-63538D01*
D02*
G37*
G36*
X119095Y-59996D02*
X118064Y-60132D01*
X117104Y-60529D01*
X116280Y-61162D01*
X115647Y-61986D01*
X115250Y-62946D01*
X115114Y-63976D01*
X115250Y-65007D01*
X115647Y-65967D01*
X116280Y-66791D01*
X117104Y-67424D01*
X118064Y-67821D01*
X119095Y-67957D01*
X120125Y-67821D01*
X121085Y-67424D01*
X121909Y-66791D01*
X122542Y-65967D01*
X122939Y-65007D01*
X123075Y-63976D01*
X122939Y-62946D01*
X122542Y-61986D01*
X121909Y-61162D01*
X121085Y-60529D01*
X120125Y-60132D01*
X119095Y-59996D01*
D02*
G37*
G36*
X203150Y-71806D02*
X202455Y-71944D01*
X201866Y-72338D01*
X201472Y-72927D01*
X201334Y-73622D01*
X201472Y-74317D01*
X201866Y-74906D01*
X202455Y-75300D01*
X203150Y-75438D01*
X203845Y-75300D01*
X204434Y-74906D01*
X204827Y-74317D01*
X204966Y-73622D01*
X204827Y-72927D01*
X204434Y-72338D01*
X203845Y-71944D01*
X203150Y-71806D01*
D02*
G37*
G36*
X238976Y-73775D02*
X238281Y-73913D01*
X237692Y-74306D01*
X237299Y-74896D01*
X237160Y-75590D01*
X237299Y-76285D01*
X237692Y-76875D01*
X238281Y-77268D01*
X238976Y-77407D01*
X239671Y-77268D01*
X240261Y-76875D01*
X240654Y-76285D01*
X240792Y-75590D01*
X240654Y-74896D01*
X240261Y-74306D01*
X239671Y-73913D01*
X238976Y-73775D01*
D02*
G37*
G36*
X123041Y-70030D02*
X115148D01*
Y-77923D01*
X123041D01*
Y-70030D01*
D02*
G37*
G36*
X128347Y-74562D02*
X127652Y-74700D01*
X127062Y-75094D01*
X126669Y-75683D01*
X126531Y-76378D01*
X126669Y-77073D01*
X127062Y-77662D01*
X127652Y-78056D01*
X128347Y-78194D01*
X129041Y-78056D01*
X129631Y-77662D01*
X130024Y-77073D01*
X130162Y-76378D01*
X130024Y-75683D01*
X129631Y-75094D01*
X129041Y-74700D01*
X128347Y-74562D01*
D02*
G37*
G36*
X65945Y-76137D02*
X65250Y-76275D01*
X64661Y-76669D01*
X64267Y-77258D01*
X64129Y-77953D01*
X64267Y-78648D01*
X64661Y-79237D01*
X65250Y-79631D01*
X65945Y-79769D01*
X66640Y-79631D01*
X67229Y-79237D01*
X67623Y-78648D01*
X67761Y-77953D01*
X67623Y-77258D01*
X67229Y-76669D01*
X66640Y-76275D01*
X65945Y-76137D01*
D02*
G37*
G36*
X170473Y-78617D02*
X169778Y-78755D01*
X169188Y-79149D01*
X168795Y-79738D01*
X168657Y-80433D01*
X168795Y-81128D01*
X169188Y-81717D01*
X169778Y-82111D01*
X170473Y-82249D01*
X171167Y-82111D01*
X171756Y-81717D01*
X172150Y-81128D01*
X172288Y-80433D01*
X172150Y-79738D01*
X171756Y-79149D01*
X171167Y-78755D01*
X170473Y-78617D01*
D02*
G37*
G36*
X238976Y-80467D02*
X238281Y-80606D01*
X237692Y-80999D01*
X237299Y-81589D01*
X237160Y-82284D01*
X237299Y-82978D01*
X237692Y-83568D01*
X238281Y-83961D01*
X238976Y-84100D01*
X239671Y-83961D01*
X240261Y-83568D01*
X240654Y-82978D01*
X240792Y-82284D01*
X240654Y-81589D01*
X240261Y-80999D01*
X239671Y-80606D01*
X238976Y-80467D01*
D02*
G37*
G36*
X170473Y-83617D02*
X169778Y-83755D01*
X169188Y-84149D01*
X168795Y-84738D01*
X168657Y-85433D01*
X168795Y-86128D01*
X169188Y-86717D01*
X169778Y-87111D01*
X170473Y-87249D01*
X171167Y-87111D01*
X171756Y-86717D01*
X172150Y-86128D01*
X172288Y-85433D01*
X172150Y-84738D01*
X171756Y-84149D01*
X171167Y-83755D01*
X170473Y-83617D01*
D02*
G37*
%LPD*%
D143*
X-8677Y173410D02*
D03*
X119095Y-53976D02*
D03*
X110993Y45638D02*
D03*
X359842Y126850D02*
D03*
X349843D02*
D03*
X306693Y109843D02*
D03*
X316693D02*
D03*
D146*
X358170Y83169D02*
D03*
Y106595D02*
D03*
X363484D02*
D03*
Y83169D02*
D03*
D147*
X362028Y77854D02*
D03*
D149*
X208721Y241476D02*
D03*
X224971Y223976D02*
D03*
X90610Y241476D02*
D03*
X106860Y223976D02*
D03*
D150*
X203721Y286476D02*
D03*
X85610D02*
D03*
D154*
X377953Y97638D02*
D03*
X377559Y53543D02*
D03*
X349016Y-25787D02*
D03*
X137894Y82087D02*
D03*
X198819Y-49606D02*
D03*
X73425Y-62598D02*
D03*
Y-66535D02*
D03*
Y-58661D02*
D03*
X228937Y81319D02*
D03*
Y73445D02*
D03*
Y77382D02*
D03*
X172047Y73327D02*
D03*
X29724Y-20669D02*
D03*
X48917Y-20768D02*
D03*
X39173Y-26870D02*
D03*
Y-14665D02*
D03*
X181890Y68209D02*
D03*
X181595Y79724D02*
D03*
X236221Y5906D02*
D03*
X86221Y-48819D02*
D03*
X137402Y-83858D02*
D03*
X266929Y50000D02*
D03*
X291732Y27559D02*
D03*
X285827Y17323D02*
D03*
X257480Y-5118D02*
D03*
X255906Y-19291D02*
D03*
X218898Y119291D02*
D03*
X253937D02*
D03*
X254331Y140157D02*
D03*
X224514Y150104D02*
D03*
X17323Y177559D02*
D03*
X153937Y196063D02*
D03*
X99606Y200394D02*
D03*
X120079Y196063D02*
D03*
X133071Y200394D02*
D03*
X131496Y186221D02*
D03*
X134646D02*
D03*
X127165Y160236D02*
D03*
X101406Y164567D02*
D03*
X140157Y157087D02*
D03*
X181103Y152264D02*
D03*
X175197Y157874D02*
D03*
X389764Y-18701D02*
D03*
Y984D02*
D03*
Y20669D02*
D03*
Y40354D02*
D03*
Y79724D02*
D03*
Y99409D02*
D03*
Y119095D02*
D03*
Y138779D02*
D03*
Y158465D02*
D03*
Y178150D02*
D03*
Y197835D02*
D03*
Y215551D02*
D03*
X360236Y220965D02*
D03*
X331693Y229331D02*
D03*
X308071Y252953D02*
D03*
X301181Y270669D02*
D03*
X294882Y311024D02*
D03*
X298228Y291338D02*
D03*
X88583Y311024D02*
D03*
X118110Y311024D02*
D03*
X147638Y311024D02*
D03*
X167323D02*
D03*
X216535D02*
D03*
X236220D02*
D03*
X255906D02*
D03*
X275590D02*
D03*
X60039Y310039D02*
D03*
X38780Y242717D02*
D03*
X-35433Y215551D02*
D03*
Y197835D02*
D03*
Y178150D02*
D03*
Y158465D02*
D03*
Y138779D02*
D03*
Y119095D02*
D03*
Y99409D02*
D03*
Y79724D02*
D03*
Y60039D02*
D03*
Y40354D02*
D03*
Y20669D02*
D03*
Y984D02*
D03*
Y-18701D02*
D03*
X77756Y-114173D02*
D03*
X274606D02*
D03*
X5315Y222638D02*
D03*
X53543Y274606D02*
D03*
Y-77756D02*
D03*
X4921Y-25787D02*
D03*
X38780Y-45866D02*
D03*
X59449Y-113780D02*
D03*
X294882Y-114173D02*
D03*
X227953Y-82677D02*
D03*
X-28346Y99213D02*
D03*
Y87008D02*
D03*
X-29528Y75590D02*
D03*
X-29921Y50394D02*
D03*
X-1575Y46063D02*
D03*
X-16535Y114961D02*
D03*
X-12598Y119685D02*
D03*
X265354Y-76772D02*
D03*
X234252Y-56299D02*
D03*
X227165Y-61417D02*
D03*
X69291Y-42520D02*
D03*
X351181Y94882D02*
D03*
X325590Y-11024D02*
D03*
X285433Y-51968D02*
D03*
X162992Y113779D02*
D03*
X40157Y146457D02*
D03*
X-8750Y144685D02*
D03*
X314961Y33465D02*
D03*
X315945Y37402D02*
D03*
X338583Y28543D02*
D03*
X340551Y34449D02*
D03*
X138189Y88939D02*
D03*
X314819Y61024D02*
D03*
X298031Y58858D02*
D03*
X298819Y47638D02*
D03*
X243701Y73622D02*
D03*
X244488Y98425D02*
D03*
X334252Y153543D02*
D03*
X67716Y105512D02*
D03*
X54331Y106693D02*
D03*
Y123622D02*
D03*
X72441Y124016D02*
D03*
X21260Y157087D02*
D03*
X90158Y113386D02*
D03*
X268898Y-63779D02*
D03*
X202756Y-65748D02*
D03*
X219291Y-42520D02*
D03*
X265354Y35433D02*
D03*
X181890Y-53937D02*
D03*
X159055Y168898D02*
D03*
X282283Y191732D02*
D03*
X151969Y255118D02*
D03*
X235039Y198031D02*
D03*
X113386Y229921D02*
D03*
X8268Y148819D02*
D03*
X135827Y-26378D02*
D03*
X277559Y109843D02*
D03*
X277559Y94488D02*
D03*
X206299Y101575D02*
D03*
X306299Y75197D02*
D03*
X313779Y77559D02*
D03*
X258661Y90945D02*
D03*
X334252Y144095D02*
D03*
X345276Y151969D02*
D03*
X365354Y129528D02*
D03*
X365748Y141339D02*
D03*
X336614Y131496D02*
D03*
X323622Y185039D02*
D03*
X338583Y159636D02*
D03*
X311811Y193307D02*
D03*
X338189Y120079D02*
D03*
X333177Y55111D02*
D03*
X346063Y64961D02*
D03*
X343307Y70079D02*
D03*
X196063Y120079D02*
D03*
X219291Y140551D02*
D03*
X200787Y162598D02*
D03*
X163386Y160817D02*
D03*
X184646Y168504D02*
D03*
X273228Y162598D02*
D03*
X90158Y-32283D02*
D03*
X243701Y31102D02*
D03*
X257480Y5118D02*
D03*
X269685Y17323D02*
D03*
X274803Y66142D02*
D03*
X158405Y14091D02*
D03*
X90158Y81496D02*
D03*
X157677Y118110D02*
D03*
X287008Y-20472D02*
D03*
X252362Y-78740D02*
D03*
X242028Y-78740D02*
D03*
X17323Y182283D02*
D03*
X-15354Y72835D02*
D03*
X68504Y173228D02*
D03*
Y190551D02*
D03*
X133465Y71653D02*
D03*
X56299Y24409D02*
D03*
X50787Y17717D02*
D03*
X37795Y21654D02*
D03*
X10630Y15748D02*
D03*
X-11024Y21260D02*
D03*
X64567Y129134D02*
D03*
X75590Y146457D02*
D03*
X96850Y105512D02*
D03*
X100787Y101181D02*
D03*
X95669Y85827D02*
D03*
X72441Y67716D02*
D03*
X126772Y135827D02*
D03*
X137008Y131102D02*
D03*
X180512Y129921D02*
D03*
X161417Y152756D02*
D03*
X153150D02*
D03*
X184646Y195669D02*
D03*
X127953Y104724D02*
D03*
X88583Y-64961D02*
D03*
X99606Y186221D02*
D03*
X241732Y-33071D02*
D03*
X299213Y-33465D02*
D03*
M02*
