G04*
G04 #@! TF.GenerationSoftware,Altium Limited,Altium Designer,20.0.11 (256)*
G04*
G04 Layer_Color=16711935*
%FSLAX25Y25*%
%MOIN*%
G70*
G01*
G75*
%ADD75C,0.04921*%
%ADD76R,0.06312X0.05328*%
%ADD79R,0.03556X0.03162*%
%ADD80R,0.03162X0.03556*%
%ADD83R,0.04147X0.04147*%
%ADD96R,0.04143X0.04537*%
%ADD97R,0.04537X0.04143*%
%ADD110R,0.06312X0.07887*%
%ADD130C,0.07493*%
%ADD131P,0.10597X4X90.0*%
%ADD132R,0.07493X0.07493*%
%ADD133C,0.03359*%
%ADD134O,0.10249X0.04343*%
%ADD135O,0.07493X0.04343*%
%ADD136C,0.07887*%
%ADD137C,0.10052*%
%ADD138C,0.07099*%
%ADD139R,0.07099X0.07099*%
%ADD140C,0.28359*%
%ADD141C,0.03162*%
%ADD165R,0.03162X0.07887*%
%ADD166O,0.03162X0.07887*%
%ADD167R,0.03800X0.02200*%
%ADD168R,0.09300X0.07800*%
G04:AMPARAMS|DCode=169|XSize=63.12mil|YSize=53.28mil|CornerRadius=0mil|HoleSize=0mil|Usage=FLASHONLY|Rotation=135.000|XOffset=0mil|YOffset=0mil|HoleType=Round|Shape=Rectangle|*
%AMROTATEDRECTD169*
4,1,4,0.04115,-0.00348,0.00348,-0.04115,-0.04115,0.00348,-0.00348,0.04115,0.04115,-0.00348,0.0*
%
%ADD169ROTATEDRECTD169*%

G04:AMPARAMS|DCode=170|XSize=31.62mil|YSize=35.56mil|CornerRadius=0mil|HoleSize=0mil|Usage=FLASHONLY|Rotation=225.000|XOffset=0mil|YOffset=0mil|HoleType=Round|Shape=Rectangle|*
%AMROTATEDRECTD170*
4,1,4,-0.00139,0.02375,0.02375,-0.00139,0.00139,-0.02375,-0.02375,0.00139,-0.00139,0.02375,0.0*
%
%ADD170ROTATEDRECTD170*%

%ADD171R,0.03162X0.03950*%
%ADD172R,0.07800X0.09300*%
D75*
X52657Y-77562D02*
G03*
X6293Y-27122I-59965J-8591D01*
G01*
X1083Y222933D02*
G03*
X51523Y269298I-8591J59965D01*
G01*
X302731Y269036D02*
G03*
X350449Y223475I59362J14404D01*
G01*
X348038Y-27122D02*
G03*
X301673Y-77562I13600J-59031D01*
G01*
X52803Y-77539D02*
X58731Y-114964D01*
X-36220Y-20167D02*
X4973Y-26744D01*
X390551Y217086D02*
X390551Y-20167D01*
X-36319Y216860D02*
X-36319Y-20025D01*
X369185Y220470D02*
X390551Y217086D01*
X51900Y270617D02*
X58478Y311811D01*
X295672D01*
X350417Y223443D02*
X369185Y220470D01*
X295672Y311811D02*
X302534Y268839D01*
X-36319Y216860D02*
X1106Y222787D01*
X58597Y-114961D02*
X289421D01*
X295374D01*
X295600Y-114964D02*
X301527Y-77539D01*
X349357Y-26744D02*
X390551Y-20167D01*
D76*
X106693Y172106D02*
D03*
Y178996D02*
D03*
X114961Y172205D02*
D03*
Y179095D02*
D03*
X233858Y132421D02*
D03*
Y125531D02*
D03*
X225984Y132421D02*
D03*
Y125532D02*
D03*
D79*
X-12598Y115748D02*
D03*
Y111811D02*
D03*
X44488Y78740D02*
D03*
Y82677D02*
D03*
X149606Y-51181D02*
D03*
Y-55118D02*
D03*
X165354Y-84646D02*
D03*
Y-80709D02*
D03*
X67717Y109449D02*
D03*
Y113386D02*
D03*
X152559Y120472D02*
D03*
Y124409D02*
D03*
X67717Y122441D02*
D03*
Y118504D02*
D03*
X69291Y101181D02*
D03*
Y97244D02*
D03*
X45669Y101181D02*
D03*
Y105118D02*
D03*
X202756Y-62205D02*
D03*
Y-58268D02*
D03*
Y-53543D02*
D03*
Y-49606D02*
D03*
X195669Y-58268D02*
D03*
Y-62205D02*
D03*
D80*
X6299Y59842D02*
D03*
X2362D02*
D03*
X27559D02*
D03*
X31496D02*
D03*
X335827Y70079D02*
D03*
X339764D02*
D03*
X332795Y61063D02*
D03*
X328858D02*
D03*
D83*
X57677Y94882D02*
D03*
X63779D02*
D03*
X208721Y211614D02*
D03*
X214824D02*
D03*
X263721D02*
D03*
X257619D02*
D03*
D96*
X-6004Y46063D02*
D03*
X-11319D02*
D03*
D97*
X372835Y103150D02*
D03*
Y97835D02*
D03*
X59842Y118504D02*
D03*
Y123819D02*
D03*
X59842Y112205D02*
D03*
Y106890D02*
D03*
X-10236Y72638D02*
D03*
Y67323D02*
D03*
D110*
X132775Y91536D02*
D03*
X143602D02*
D03*
X132480Y82087D02*
D03*
X143307D02*
D03*
D130*
X-8677Y173410D02*
D03*
X-15748Y166339D02*
D03*
X119095Y-53976D02*
D03*
Y-63976D02*
D03*
X89779Y24425D02*
D03*
X96850Y31496D02*
D03*
X103921Y38567D02*
D03*
X110993Y45638D02*
D03*
X359842Y126850D02*
D03*
Y136850D02*
D03*
Y146850D02*
D03*
Y156850D02*
D03*
X349843Y126850D02*
D03*
Y136850D02*
D03*
Y146850D02*
D03*
Y156850D02*
D03*
X306693Y179842D02*
D03*
Y169843D02*
D03*
Y159843D02*
D03*
Y149843D02*
D03*
Y139842D02*
D03*
Y129842D02*
D03*
Y119843D02*
D03*
Y109843D02*
D03*
X316693D02*
D03*
Y119843D02*
D03*
Y129842D02*
D03*
Y139842D02*
D03*
Y149843D02*
D03*
Y159843D02*
D03*
Y169843D02*
D03*
D131*
X-22819Y159267D02*
D03*
X82708Y17354D02*
D03*
D132*
X119095Y-73976D02*
D03*
X359842Y166850D02*
D03*
X349843D02*
D03*
X316693Y179842D02*
D03*
D133*
X358170Y83169D02*
D03*
Y86516D02*
D03*
Y89862D02*
D03*
Y93209D02*
D03*
Y96555D02*
D03*
Y99902D02*
D03*
Y103248D02*
D03*
Y106595D02*
D03*
X363484D02*
D03*
Y103248D02*
D03*
Y99902D02*
D03*
Y96555D02*
D03*
Y93209D02*
D03*
Y89862D02*
D03*
Y86516D02*
D03*
Y83169D02*
D03*
D134*
X362028Y77854D02*
D03*
Y111910D02*
D03*
D135*
X375335D02*
D03*
Y77854D02*
D03*
D136*
X208721Y241476D02*
D03*
X263721Y238976D02*
D03*
X236221Y221476D02*
D03*
X224971Y223976D02*
D03*
X247471D02*
D03*
X90610Y241476D02*
D03*
X145610Y238976D02*
D03*
X118110Y221476D02*
D03*
X106860Y223976D02*
D03*
X129360D02*
D03*
D137*
X218721Y251476D02*
D03*
X253721D02*
D03*
X203721Y286476D02*
D03*
X213721Y288976D02*
D03*
X236221Y276476D02*
D03*
X258721Y288976D02*
D03*
X100610Y251476D02*
D03*
X135610D02*
D03*
X85610Y286476D02*
D03*
X95610Y288976D02*
D03*
X118110Y276476D02*
D03*
X140610Y288976D02*
D03*
D138*
X208721Y182087D02*
D03*
X263721D02*
D03*
D139*
X208721Y201772D02*
D03*
X263721D02*
D03*
D140*
X354331Y196850D02*
D03*
X-0D02*
D03*
X354331Y-0D02*
D03*
X-0D02*
D03*
D141*
X40551Y13386D02*
D03*
X349016Y-25787D02*
D03*
X389764Y-18701D02*
D03*
Y984D02*
D03*
Y20669D02*
D03*
Y40354D02*
D03*
Y79724D02*
D03*
Y99409D02*
D03*
Y119095D02*
D03*
Y138779D02*
D03*
Y158465D02*
D03*
Y178150D02*
D03*
Y197835D02*
D03*
Y215551D02*
D03*
X360236Y220965D02*
D03*
X331693Y229331D02*
D03*
X308071Y252953D02*
D03*
X301181Y270669D02*
D03*
X294882Y311024D02*
D03*
X298228Y291338D02*
D03*
X88583Y311024D02*
D03*
X118110Y311024D02*
D03*
X147638Y311024D02*
D03*
X167323D02*
D03*
X216535D02*
D03*
X236220D02*
D03*
X255906D02*
D03*
X275590D02*
D03*
X60039Y310039D02*
D03*
X38780Y242717D02*
D03*
X-35433Y-18701D02*
D03*
X77756Y-114173D02*
D03*
X274606D02*
D03*
X5315Y222638D02*
D03*
X53543Y274606D02*
D03*
Y-77756D02*
D03*
X4921Y-25787D02*
D03*
X38780Y-45866D02*
D03*
X59449Y-113780D02*
D03*
X294882Y-114173D02*
D03*
D165*
X36398Y66929D02*
D03*
D166*
X31398D02*
D03*
X26398D02*
D03*
X21398D02*
D03*
X16398D02*
D03*
X11398D02*
D03*
X6398D02*
D03*
X1398D02*
D03*
X36398Y103937D02*
D03*
X31398D02*
D03*
X26398D02*
D03*
X21398D02*
D03*
X16398D02*
D03*
X11398D02*
D03*
X6398D02*
D03*
X1398D02*
D03*
D167*
X166749Y100173D02*
D03*
Y102173D02*
D03*
Y104173D02*
D03*
Y106173D02*
D03*
Y108173D02*
D03*
Y110173D02*
D03*
Y112173D02*
D03*
Y114173D02*
D03*
X159449D02*
D03*
Y112173D02*
D03*
Y110173D02*
D03*
Y108173D02*
D03*
Y106173D02*
D03*
Y104173D02*
D03*
Y102173D02*
D03*
Y100173D02*
D03*
D168*
X282284Y182284D02*
D03*
Y198284D02*
D03*
X227165Y182284D02*
D03*
Y198284D02*
D03*
X159843Y238976D02*
D03*
Y254976D02*
D03*
D169*
X295669Y-19291D02*
D03*
X290797Y-24163D02*
D03*
D170*
X296429Y-27193D02*
D03*
X299213Y-24409D02*
D03*
X262125Y13736D02*
D03*
X259341Y10952D02*
D03*
D171*
X51181Y112205D02*
D03*
X45669D02*
D03*
D172*
X129360Y237402D02*
D03*
X113360D02*
D03*
M02*
