G04*
G04 #@! TF.GenerationSoftware,Altium Limited,Altium Designer,20.0.11 (256)*
G04*
G04 Layer_Color=32768*
%FSLAX25Y25*%
%MOIN*%
G70*
G01*
G75*
%ADD174C,0.00050*%
%ADD175C,0.00051*%
D174*
X296093Y287400D02*
G03*
X296093Y287400I-12628J0D01*
G01*
Y-90553D02*
G03*
X296093Y-90553I-12628J0D01*
G01*
X83495Y287400D02*
G03*
X83495Y287400I-12628J0D01*
G01*
X353001Y-28164D02*
G03*
X303753Y-77412I9268J-58516D01*
G01*
X1331Y225010D02*
G03*
X50579Y274258I-9268J58516D01*
G01*
Y-77412D02*
G03*
X1331Y-28164I-58516J-9268D01*
G01*
X303753Y274258D02*
G03*
X353001Y225010I58516J9268D01*
G01*
X392568Y-21847D02*
X392572Y-21845D01*
X392563Y-21849D02*
X392568Y-21847D01*
X392559Y-21850D02*
X392563Y-21849D01*
X392554Y-21852D02*
X392559Y-21850D01*
X392549Y-21854D02*
X392554Y-21852D01*
X392545Y-21855D02*
X392549Y-21854D01*
X392540Y-21857D02*
X392545Y-21855D01*
X392536Y-21859D02*
X392540Y-21857D01*
X392531Y-21860D02*
X392536Y-21859D01*
X392527Y-21862D02*
X392531Y-21860D01*
X392522Y-21864D02*
X392527Y-21862D01*
X392517Y-21865D02*
X392522Y-21864D01*
X392513Y-21867D02*
X392517Y-21865D01*
X392508Y-21869D02*
X392513Y-21867D01*
X392503Y-21870D02*
X392508Y-21869D01*
X392499Y-21872D02*
X392503Y-21870D01*
X392494Y-21873D02*
X392499Y-21872D01*
X392490Y-21875D02*
X392494Y-21873D01*
X392485Y-21876D02*
X392490Y-21875D01*
X392480Y-21878D02*
X392485Y-21876D01*
X392476Y-21880D02*
X392480Y-21878D01*
X392471Y-21881D02*
X392476Y-21880D01*
X392467Y-21883D02*
X392471Y-21881D01*
X392462Y-21884D02*
X392467Y-21883D01*
X392457Y-21886D02*
X392462Y-21884D01*
X392453Y-21887D02*
X392457Y-21886D01*
X392448Y-21889D02*
X392453Y-21887D01*
X392443Y-21890D02*
X392448Y-21889D01*
X392439Y-21891D02*
X392443Y-21890D01*
X392434Y-21893D02*
X392439Y-21891D01*
X392429Y-21894D02*
X392434Y-21893D01*
X392425Y-21896D02*
X392429Y-21894D01*
X392420Y-21897D02*
X392425Y-21896D01*
X392415Y-21899D02*
X392420Y-21897D01*
X392411Y-21900D02*
X392415Y-21899D01*
X392406Y-21901D02*
X392411Y-21900D01*
X392401Y-21903D02*
X392406Y-21901D01*
X392397Y-21904D02*
X392401Y-21903D01*
X392392Y-21906D02*
X392397Y-21904D01*
X392387Y-21907D02*
X392392Y-21906D01*
X392383Y-21908D02*
X392387Y-21907D01*
X392378Y-21910D02*
X392383Y-21908D01*
X392373Y-21911D02*
X392378Y-21910D01*
X392369Y-21912D02*
X392373Y-21911D01*
X392364Y-21914D02*
X392369Y-21912D01*
X392359Y-21915D02*
X392364Y-21914D01*
X392355Y-21916D02*
X392359Y-21915D01*
X392350Y-21918D02*
X392355Y-21916D01*
X392345Y-21919D02*
X392350Y-21918D01*
X392340Y-21920D02*
X392345Y-21919D01*
X392336Y-21921D02*
X392340Y-21920D01*
X392331Y-21923D02*
X392336Y-21921D01*
X392326Y-21924D02*
X392331Y-21923D01*
X392321Y-21925D02*
X392326Y-21924D01*
X392317Y-21926D02*
X392321Y-21925D01*
X392312Y-21927D02*
X392317Y-21926D01*
X392307Y-21929D02*
X392312Y-21927D01*
X392303Y-21930D02*
X392307Y-21929D01*
X392298Y-21931D02*
X392303Y-21930D01*
X392293Y-21932D02*
X392298Y-21931D01*
X392288Y-21933D02*
X392293Y-21932D01*
X392284Y-21934D02*
X392288Y-21933D01*
X392279Y-21936D02*
X392284Y-21934D01*
X392274Y-21937D02*
X392279Y-21936D01*
X392269Y-21938D02*
X392274Y-21937D01*
X392265Y-21939D02*
X392269Y-21938D01*
X392260Y-21940D02*
X392265Y-21939D01*
X392255Y-21941D02*
X392260Y-21940D01*
X392250Y-21942D02*
X392255Y-21941D01*
X392246Y-21943D02*
X392250Y-21942D01*
X392241Y-21944D02*
X392246Y-21943D01*
X392236Y-21945D02*
X392241Y-21944D01*
X392231Y-21946D02*
X392236Y-21945D01*
X392227Y-21947D02*
X392231Y-21946D01*
X392222Y-21948D02*
X392227Y-21947D01*
X392217Y-21949D02*
X392222Y-21948D01*
X392212Y-21950D02*
X392217Y-21949D01*
X392208Y-21951D02*
X392212Y-21950D01*
X392203Y-21952D02*
X392208Y-21951D01*
X392198Y-21953D02*
X392203Y-21952D01*
X392193Y-21954D02*
X392198Y-21953D01*
X392188Y-21955D02*
X392193Y-21954D01*
X392184Y-21956D02*
X392188Y-21955D01*
X392179Y-21957D02*
X392184Y-21956D01*
X392174Y-21958D02*
X392179Y-21957D01*
X392169Y-21959D02*
X392174Y-21958D01*
X392164Y-21960D02*
X392169Y-21959D01*
X392160Y-21961D02*
X392164Y-21960D01*
X392155Y-21962D02*
X392160Y-21961D01*
X392150Y-21963D02*
X392155Y-21962D01*
X392145Y-21963D02*
X392150Y-21963D01*
X392140Y-21964D02*
X392145Y-21963D01*
X392136Y-21965D02*
X392140Y-21964D01*
X392131Y-21966D02*
X392136Y-21965D01*
X392126Y-21967D02*
X392131Y-21966D01*
X392121Y-21968D02*
X392126Y-21967D01*
X392116Y-21968D02*
X392121Y-21968D01*
X392111Y-21969D02*
X392116Y-21968D01*
X392107Y-21970D02*
X392111Y-21969D01*
X392102Y-21971D02*
X392107Y-21970D01*
X300576Y294317D02*
X301876Y286108D01*
X52456Y-89262D02*
X56772Y-116511D01*
X192718Y313829D02*
X297435D01*
X297435Y313830D02*
X297436Y313825D01*
X297438Y313820D01*
X297440Y313816D01*
X297442Y313811D01*
X297443Y313807D01*
X297445Y313802D01*
X297447Y313798D01*
X297448Y313793D01*
X297450Y313788D01*
X297452Y313784D01*
X297453Y313779D01*
X297455Y313775D01*
X297457Y313770D01*
X297458Y313765D01*
X297460Y313761D01*
X297462Y313756D01*
X297463Y313752D01*
X297465Y313747D01*
X297466Y313742D01*
X297468Y313738D01*
X297469Y313733D01*
X297471Y313728D01*
X297472Y313724D01*
X297474Y313719D01*
X297475Y313714D01*
X297477Y313710D01*
X297478Y313705D01*
X297480Y313701D01*
X297481Y313696D01*
X297483Y313691D01*
X297484Y313687D01*
X297486Y313682D01*
X297487Y313677D01*
X297488Y313673D01*
X297490Y313668D01*
X297491Y313663D01*
X297493Y313659D01*
X297494Y313654D01*
X297495Y313649D01*
X297497Y313645D01*
X297498Y313640D01*
X297499Y313635D01*
X297501Y313630D01*
X297502Y313626D01*
X297503Y313621D01*
X297505Y313616D01*
X297506Y313612D01*
X297507Y313607D01*
X297509Y313602D01*
X297510Y313598D01*
X297511Y313593D01*
X297512Y313588D01*
X297514Y313583D01*
X297515Y313579D01*
X297516Y313574D01*
X297517Y313569D01*
X297518Y313564D01*
X297519Y313560D01*
X297521Y313555D01*
X297522Y313550D01*
X297523Y313546D01*
X297524Y313541D01*
X297525Y313536D01*
X297527Y313531D01*
X297528Y313527D01*
X297529Y313522D01*
X297530Y313517D01*
X297531Y313512D01*
X297532Y313508D01*
X297533Y313503D01*
X297534Y313498D01*
X297535Y313493D01*
X297536Y313488D01*
X297537Y313484D01*
X297538Y313479D01*
X297539Y313474D01*
X297540Y313469D01*
X297541Y313465D01*
X297542Y313460D01*
X297543Y313455D01*
X297544Y313450D01*
X297545Y313445D01*
X297546Y313441D01*
X297547Y313436D01*
X297548Y313431D01*
X297549Y313426D01*
X297550Y313422D01*
X297551Y313417D01*
X297551Y313412D01*
X297552Y313407D01*
X297553Y313402D01*
X297554Y313398D01*
X297555Y313393D01*
X297556Y313388D01*
X297557Y313383D01*
X297557Y313378D01*
X297558Y313373D01*
X297559Y313369D01*
X297560Y313364D01*
X297561Y313359D01*
X50579Y274259D02*
X52456Y286108D01*
X613100Y18580D02*
X616116Y37620D01*
X617416Y45829D01*
X-38239Y218692D02*
X1331Y225011D01*
X353001D02*
X392101Y218818D01*
X56897Y-116982D02*
X297435D01*
X613099Y18574D02*
X613100Y18578D01*
X613098Y18569D02*
X613099Y18574D01*
X613097Y18564D02*
X613098Y18569D01*
X613097Y18559D02*
X613097Y18564D01*
X613096Y18554D02*
X613097Y18559D01*
X613095Y18550D02*
X613096Y18554D01*
X613094Y18545D02*
X613095Y18550D01*
X613093Y18540D02*
X613094Y18545D01*
X613093Y18535D02*
X613093Y18540D01*
X613092Y18530D02*
X613093Y18535D01*
X613091Y18526D02*
X613092Y18530D01*
X613090Y18521D02*
X613091Y18526D01*
X613089Y18516D02*
X613090Y18521D01*
X613088Y18511D02*
X613089Y18516D01*
X613087Y18506D02*
X613088Y18511D01*
X613086Y18502D02*
X613087Y18506D01*
X613085Y18497D02*
X613086Y18502D01*
X613084Y18492D02*
X613085Y18497D01*
X613084Y18487D02*
X613084Y18492D01*
X613083Y18482D02*
X613084Y18487D01*
X613082Y18478D02*
X613083Y18482D01*
X613081Y18473D02*
X613082Y18478D01*
X613080Y18468D02*
X613081Y18473D01*
X613078Y18463D02*
X613080Y18468D01*
X613077Y18459D02*
X613078Y18463D01*
X613077Y18454D02*
X613077Y18459D01*
X613076Y18449D02*
X613077Y18454D01*
X613074Y18444D02*
X613076Y18449D01*
X613073Y18439D02*
X613074Y18444D01*
X613072Y18435D02*
X613073Y18439D01*
X613071Y18430D02*
X613072Y18435D01*
X613070Y18425D02*
X613071Y18430D01*
X613069Y18420D02*
X613070Y18425D01*
X613068Y18416D02*
X613069Y18420D01*
X613067Y18411D02*
X613068Y18416D01*
X613066Y18406D02*
X613067Y18411D01*
X613065Y18401D02*
X613066Y18406D01*
X613064Y18397D02*
X613065Y18401D01*
X613062Y18392D02*
X613064Y18397D01*
X613061Y18387D02*
X613062Y18392D01*
X613060Y18382D02*
X613061Y18387D01*
X613059Y18378D02*
X613060Y18382D01*
X613058Y18373D02*
X613059Y18378D01*
X613057Y18368D02*
X613058Y18373D01*
X613055Y18364D02*
X613057Y18368D01*
X613054Y18359D02*
X613055Y18364D01*
X613053Y18354D02*
X613054Y18359D01*
X613052Y18349D02*
X613053Y18354D01*
X613050Y18345D02*
X613052Y18349D01*
X613049Y18340D02*
X613050Y18345D01*
X613048Y18335D02*
X613049Y18340D01*
X613047Y18331D02*
X613048Y18335D01*
X613045Y18326D02*
X613047Y18331D01*
X613044Y18321D02*
X613045Y18326D01*
X613043Y18316D02*
X613044Y18321D01*
X613042Y18312D02*
X613043Y18316D01*
X613040Y18307D02*
X613042Y18312D01*
X613039Y18302D02*
X613040Y18307D01*
X613038Y18298D02*
X613039Y18302D01*
X613036Y18293D02*
X613038Y18298D01*
X613035Y18288D02*
X613036Y18293D01*
X613033Y18284D02*
X613035Y18288D01*
X613032Y18279D02*
X613033Y18284D01*
X613031Y18274D02*
X613032Y18279D01*
X613029Y18270D02*
X613031Y18274D01*
X613028Y18265D02*
X613029Y18270D01*
X613026Y18260D02*
X613028Y18265D01*
X613025Y18256D02*
X613026Y18260D01*
X613024Y18251D02*
X613025Y18256D01*
X613022Y18246D02*
X613024Y18251D01*
X613021Y18242D02*
X613022Y18246D01*
X613019Y18237D02*
X613021Y18242D01*
X613018Y18232D02*
X613019Y18237D01*
X613016Y18228D02*
X613018Y18232D01*
X613015Y18223D02*
X613016Y18228D01*
X613013Y18218D02*
X613015Y18223D01*
X613012Y18214D02*
X613013Y18218D01*
X613010Y18209D02*
X613012Y18214D01*
X613009Y18204D02*
X613010Y18209D01*
X613007Y18200D02*
X613009Y18204D01*
X613006Y18195D02*
X613007Y18200D01*
X613004Y18191D02*
X613006Y18195D01*
X613002Y18186D02*
X613004Y18191D01*
X613001Y18181D02*
X613002Y18186D01*
X612999Y18177D02*
X613001Y18181D01*
X612997Y18172D02*
X612999Y18177D01*
X612996Y18168D02*
X612997Y18172D01*
X612994Y18163D02*
X612996Y18168D01*
X612993Y18158D02*
X612994Y18163D01*
X612991Y18154D02*
X612993Y18158D01*
X612990Y18149D02*
X612991Y18154D01*
X612988Y18145D02*
X612990Y18149D01*
X612986Y18140D02*
X612988Y18145D01*
X612985Y18135D02*
X612986Y18140D01*
X612983Y18131D02*
X612985Y18135D01*
X612981Y18126D02*
X612983Y18131D01*
X612979Y18122D02*
X612981Y18126D01*
X612978Y18117D02*
X612979Y18122D01*
X612976Y18113D02*
X612978Y18117D01*
X612974Y18108D02*
X612976Y18113D01*
X52456Y286108D02*
X53756Y294317D01*
X617416Y45829D02*
X619293Y57679D01*
X617416Y45829D02*
X619293Y57679D01*
X297561Y313358D02*
X300576Y294317D01*
X56897Y313829D02*
X161615D01*
X192718D01*
X53756Y294317D02*
X56897Y313829D01*
X392102Y218818D02*
X392107Y218817D01*
X392111Y218816D01*
X392116Y218815D01*
X392121Y218814D01*
X392126Y218814D01*
X392131Y218813D01*
X392136Y218812D01*
X392140Y218811D01*
X392145Y218810D01*
X392150Y218809D01*
X392155Y218809D01*
X392160Y218808D01*
X392164Y218807D01*
X392169Y218806D01*
X392174Y218805D01*
X392179Y218804D01*
X392184Y218803D01*
X392188Y218802D01*
X392193Y218801D01*
X392198Y218800D01*
X392203Y218799D01*
X392208Y218798D01*
X392212Y218797D01*
X392217Y218796D01*
X392222Y218795D01*
X392227Y218794D01*
X392231Y218793D01*
X392236Y218792D01*
X392241Y218791D01*
X392246Y218790D01*
X392250Y218789D01*
X392255Y218788D01*
X392260Y218787D01*
X392265Y218786D01*
X392269Y218785D01*
X392274Y218784D01*
X392279Y218783D01*
X392284Y218781D01*
X392288Y218780D01*
X392293Y218779D01*
X392298Y218778D01*
X392303Y218777D01*
X392307Y218776D01*
X392312Y218774D01*
X392317Y218773D01*
X392321Y218772D01*
X392326Y218771D01*
X392331Y218769D01*
X392336Y218768D01*
X392340Y218767D01*
X392345Y218766D01*
X392350Y218764D01*
X392355Y218763D01*
X392359Y218762D01*
X392364Y218761D01*
X392369Y218759D01*
X392373Y218758D01*
X392378Y218757D01*
X392383Y218755D01*
X392387Y218754D01*
X392392Y218753D01*
X392397Y218751D01*
X392401Y218750D01*
X392406Y218748D01*
X392411Y218747D01*
X392415Y218746D01*
X392420Y218744D01*
X392425Y218743D01*
X392429Y218741D01*
X392434Y218740D01*
X392439Y218738D01*
X392443Y218737D01*
X392448Y218735D01*
X392453Y218734D01*
X392457Y218733D01*
X392462Y218731D01*
X392467Y218729D01*
X392471Y218728D01*
X392476Y218726D01*
X392480Y218725D01*
X392485Y218723D01*
X392490Y218722D01*
X392494Y218720D01*
X392499Y218719D01*
X392503Y218717D01*
X392508Y218715D01*
X392513Y218714D01*
X392517Y218712D01*
X392522Y218711D01*
X392527Y218709D01*
X392531Y218707D01*
X392536Y218706D01*
X392540Y218704D01*
X392545Y218702D01*
X392549Y218701D01*
X392554Y218699D01*
X392559Y218697D01*
X392563Y218696D01*
X392568Y218694D01*
X392572Y218692D01*
X-38239Y-21845D02*
X1331Y-28164D01*
X50579Y-77412D02*
X52456Y-89262D01*
X301876Y286108D02*
X303753Y274259D01*
X-38239Y-21845D02*
Y218692D01*
X353001Y-28164D02*
X392101Y-21971D01*
X392571Y-21845D02*
Y218692D01*
D175*
X56772Y-116511D02*
X56897Y-116982D01*
X297435D02*
X303753Y-77412D01*
M02*
