M48
;Layer_Color=9474304
;FILE_FORMAT=2:5
INCH,TZ
;TYPE=PLATED
T1F00S00C0.01181
T2F00S00C0.01575
T4F00S00C0.03346
T5F00S00C0.03937
T6F00S00C0.04724
T7F00S00C0.06299
T8F00S00C0.14961
%
T01
X59449Y-113780
X77756Y-114173
X274606
X294882
X297821Y-32101
X303656Y-26123
X324030Y-9055
X323758Y29589
X314961Y33465
X315945Y37402
X314567Y50394
X316666Y52565
X333177Y55111
X342520Y40354
X340551Y34449
X338583Y28543
X349410Y45276
X377559Y53543
X389764Y40354
Y20669
Y984
Y-18701
X349016Y-25787
X298819Y47638
X298031Y58858
X279134Y55512
X266929Y50000
X265354Y35433
X251969Y32283
X243701Y31102
Y27559
X246457Y37795
X242126Y43307
X240158Y49213
X249080Y51762
X235827Y38976
X220472Y40551
X215748Y43701
X213779Y31890
X208661Y32471
X203937Y31102
X215748Y16535
X214567Y7087
X229134Y11024
X236221Y5906
X238546Y15785
X254566Y16694
X258268Y17852
X269685Y17323
X284252Y18504
X290053Y29238
X277559Y394
X257480Y5118
X255906Y-3543
X260236Y-18078
X287008Y-20472
X292520Y-15748
X279134Y-37008
X283071Y-50394
X279454Y-58341
X268898Y-63779
X265354Y-76772
X250787Y-83465
X242520
X231782Y-83090
X222835Y-66929
X221260Y-63779
X237561Y-61971
X234252Y-56299
X244094Y-51575
X241732Y-33071
X224410Y-35039
X218898Y-33465
X219291Y-42520
X218504Y-23622
Y-18504
X200000Y-22441
X198031Y-33858
X198819Y-49606
X198031Y-53543
X202756Y-65748
X203150Y-73622
X190157Y-65748
X181890Y-66142
X168110Y-69685
Y-61417
X168504Y-47638
Y-36220
X180315
X175591Y-42913
X154331Y-43701
Y-48701
Y-58701
X152756Y-26378
X154724Y-22047
X160236
X158405Y14091
X170473Y-80433
Y-85433
X137402Y-83858
X223622Y58080
X71653Y51383
X67716Y24409
X56299
X50787Y17717
X40551Y13386
X37795Y21654
X43307Y25591
X16142Y15748
X10630
X-7087Y21260
X-11024
X-15354Y46063
X-15748Y58071
X-9449Y58661
X-1575Y46063
X9843Y52362
X8960Y56299
X10236Y60630
X24016Y59842
X35039
X39173Y-14665
Y-26870
X29724Y-20669
X48917Y-20768
X62795Y-15650
X62894Y-25886
X64961Y-32480
X69291Y-42520
X62205Y-46850
X73425Y-58661
Y-62598
Y-66535
X88583Y-64961
X92126Y-60630
X89764Y-57480
X86221Y-48819
X82677Y-32283
X90158
X103937Y-39764
X122835Y-40551
X121724Y-28220
X126279Y-29331
X129921Y-26378
X135827
X128347Y-48819
Y-59055
Y-76378
X65945Y-77953
X53543Y-77756
X38780Y-45866
X4921Y-25787
X-35433Y-18701
Y984
Y20669
Y40354
X-29435Y39278
X-28740Y34646
X-29921Y50394
X-35433Y60039
X-29528Y64567
Y75590
X-29921Y80709
X-35433Y79724
X-28346Y87008
X-28928Y93307
X-28346Y99213
X-35433Y99409
X-28740Y107087
X-35433Y119095
Y138779
Y158465
Y178150
Y197835
Y215551
X17323Y182283
Y177559
X14961Y157087
X21260
X8268Y148819
X-984Y146653
X-7087Y150197
X-8750Y144685
X-19685Y134646
X-12598Y119685
X-16535Y114961
Y111811
X-12598Y107874
X-15354Y72835
Y67323
X-1575Y61811
X48819Y82677
X57874Y87983
X68013Y86093
X66899Y83349
X71260Y82677
X62598Y78740
X68504Y93513
X64961Y101181
X67716Y105512
X72047Y113779
Y118504
X72441Y124016
X68898Y128740
X64567Y129134
X54331Y123622
Y106693
X40945Y112205
X40157Y146457
X36220
X71653
X75590
X68504Y173228
Y190551
X99606Y186221
X95874Y179035
X101406Y164567
X127165Y160236
X134646Y176378
Y186221
X131496
X133071Y200394
X120472Y200394
X120079Y196063
X99606Y200394
X32697Y187283
X50394Y168513
X90158Y113386
Y109843
X96850Y105512
X100787Y101181
X102362Y86614
X95669Y85827
X90945Y85433
X90158Y81496
Y69291
X72441Y67716
X133465Y71653
X127953Y101181
Y104724
X128159Y108268
X131890Y111221
X129921Y115158
X134843Y114173
X136221Y106693
X126772Y135827
X95276Y116535
X137008Y131102
X150000Y133071
X152756Y128740
X157480Y124409
X157677Y118110
X163779Y117717
Y122047
X162992Y113779
X152362Y105998
X150000Y103150
X149606Y88939
X148622Y81693
X137894Y82087
X138189Y88939
X175197Y95276
X183071Y95669
X183465Y101575
X190748Y106791
X199803
X206299Y101575
X195275Y98425
X196063Y120079
X185039Y121260
X180512Y129921
X181103Y152264
X175197Y157874
X163386Y160817
X161417Y152756
X153150
X150000Y159055
X140157Y157087
X159055Y168898
X184646Y168504
X184252Y172441
X190551Y164567
X200787Y162598
X203150Y158268
X212992Y158661
X224514Y150104
X219291Y140551
X215748Y132677
X218898Y119291
X224803Y94095
X228937Y81319
Y77382
Y73445
X243701Y73622
X244882Y62598
X224016Y62205
X205118Y68405
X205020Y78937
X195374Y73622
X181890Y68209
X181595Y79724
X172047Y73327
X256693Y74410
X259055Y84252
X258661Y90945
X245669Y94095
X244488Y98425
X253937Y119291
X254331Y130088
Y140157
X273228Y162598
X282283Y191732
X235039Y198031
X236221Y211614
X184646Y199606
Y195669
X153937Y196063
X154331Y200394
X277559Y109843
X277559Y94488
X274803Y66142
X272047Y68504
X306299Y75197
X313779Y77559
X318898
X331890Y76978
Y74016
X331328Y70079
X324852Y66929
X314819Y61024
X346063Y64961
X343307Y70079
X355118Y64961
X351181Y94882
X377953Y97638
X389764Y99409
Y79724
Y119095
Y138779
Y158465
Y178150
X384646Y174409
X389764Y197835
Y215551
X375984Y146850
X365748Y141339
X365354Y129528
X336614Y131496
X338189Y120079
X328740Y115748
X334252Y144095
Y153543
X338583Y159636
X345276Y151969
X323622Y185039
X311811Y193307
X331693Y229331
X360236Y220965
X308071Y252953
X301181Y270669
X298228Y291338
X294882Y311024
X275590
X255906
X236220
X216535
X167323
X147638
X151969Y255118
X113386Y229921
X118110Y311024
X88583Y311024
X60039Y310039
X53543Y274606
X38780Y242717
X5315Y222638
T02
X358170Y83169
Y86516
Y89862
Y93209
Y96555
Y99902
Y103248
Y106595
X363484
Y103248
Y99902
Y96555
Y93209
Y89862
Y86516
Y83169
T04
X208721Y182087
Y201772
X263721
Y182087
T05
X119095Y-73976
Y-63976
Y-53976
X82708Y17354
X89779Y24425
X96850Y31496
X103921Y38567
X110993Y45638
X-22819Y159267
X-15748Y166339
X-8677Y173410
X306693Y169843
Y179842
X316693
Y169843
Y159843
X306693
Y149843
Y139842
Y129842
Y119843
Y109843
X316693
Y119843
Y129842
Y139842
Y149843
X349843Y146850
X359842
Y136850
Y126850
X349843
Y136850
Y156850
X359842
Y166850
X349843
T06
X145610Y238976
X208721Y241476
X224971Y223976
X236221Y221476
X247471Y223976
X263721Y238976
X129360Y223976
X118110Y221476
X106860Y223976
X90610Y241476
T07
X140610Y288976
X203721Y286476
X213721Y288976
X236221Y276476
X258721Y288976
X253721Y251476
X218721
X135610
X100610
X95610Y288976
X85610Y286476
X118110Y276476
T08
X354331Y-0
X-0
Y196850
X354331
M30
