G04*
G04 #@! TF.GenerationSoftware,Altium Limited,Altium Designer,20.0.11 (256)*
G04*
G04 Layer_Color=255*
%FSLAX25Y25*%
%MOIN*%
G70*
G01*
G75*
%ADD23R,0.02756X0.02362*%
%ADD24R,0.02362X0.02756*%
%ADD27R,0.03347X0.03347*%
%ADD40R,0.03543X0.03937*%
%ADD41R,0.03937X0.03543*%
%ADD50R,0.05512X0.04528*%
%ADD55R,0.05512X0.07087*%
%ADD143C,0.06693*%
%ADD144P,0.09465X4X90.0*%
%ADD145R,0.06693X0.06693*%
%ADD146C,0.02559*%
%ADD147O,0.09449X0.03543*%
%ADD148O,0.06693X0.03543*%
%ADD149C,0.07087*%
%ADD150C,0.09252*%
%ADD151C,0.06299*%
%ADD152R,0.06299X0.06299*%
%ADD153C,0.27559*%
%ADD155R,0.03000X0.01400*%
%ADD156R,0.08500X0.07000*%
G04:AMPARAMS|DCode=157|XSize=55.12mil|YSize=45.28mil|CornerRadius=0mil|HoleSize=0mil|Usage=FLASHONLY|Rotation=135.000|XOffset=0mil|YOffset=0mil|HoleType=Round|Shape=Rectangle|*
%AMROTATEDRECTD157*
4,1,4,0.03550,-0.00348,0.00348,-0.03550,-0.03550,0.00348,-0.00348,0.03550,0.03550,-0.00348,0.0*
%
%ADD157ROTATEDRECTD157*%

G04:AMPARAMS|DCode=158|XSize=23.62mil|YSize=27.56mil|CornerRadius=0mil|HoleSize=0mil|Usage=FLASHONLY|Rotation=225.000|XOffset=0mil|YOffset=0mil|HoleType=Round|Shape=Rectangle|*
%AMROTATEDRECTD158*
4,1,4,-0.00139,0.01810,0.01810,-0.00139,0.00139,-0.01810,-0.01810,0.00139,-0.00139,0.01810,0.0*
%
%ADD158ROTATEDRECTD158*%

%ADD159R,0.02362X0.03150*%
%ADD160R,0.07000X0.08500*%
D23*
X149606Y-51181D02*
D03*
Y-55118D02*
D03*
X165354Y-84646D02*
D03*
Y-80709D02*
D03*
X67717Y109449D02*
D03*
Y113386D02*
D03*
X152559Y120472D02*
D03*
Y124409D02*
D03*
X67717Y122441D02*
D03*
Y118504D02*
D03*
X69291Y101181D02*
D03*
Y97244D02*
D03*
X45669Y101181D02*
D03*
Y105118D02*
D03*
X202756Y-62205D02*
D03*
Y-58268D02*
D03*
Y-53543D02*
D03*
Y-49606D02*
D03*
X195669Y-58268D02*
D03*
Y-62205D02*
D03*
X-12598Y111811D02*
D03*
Y115748D02*
D03*
D24*
X335827Y70079D02*
D03*
X339764D02*
D03*
X332795Y61063D02*
D03*
X328858D02*
D03*
D27*
X208721Y211614D02*
D03*
X214824D02*
D03*
X263721D02*
D03*
X257619D02*
D03*
D40*
X-11319Y46063D02*
D03*
X-6004D02*
D03*
D41*
X372835Y103150D02*
D03*
Y97835D02*
D03*
X59842Y118504D02*
D03*
Y123819D02*
D03*
X59842Y112205D02*
D03*
Y106890D02*
D03*
X-10236Y72638D02*
D03*
Y67323D02*
D03*
D50*
X106693Y172106D02*
D03*
Y178996D02*
D03*
X114961Y172205D02*
D03*
Y179095D02*
D03*
X233858Y132421D02*
D03*
Y125531D02*
D03*
X225984Y132421D02*
D03*
Y125532D02*
D03*
D55*
X132775Y91536D02*
D03*
X143602D02*
D03*
X132480Y82087D02*
D03*
X143307D02*
D03*
D143*
X-8677Y173410D02*
D03*
X-15748Y166339D02*
D03*
X119095Y-53976D02*
D03*
Y-63976D02*
D03*
X89779Y24425D02*
D03*
X96850Y31496D02*
D03*
X103921Y38567D02*
D03*
X110993Y45638D02*
D03*
X359842Y126850D02*
D03*
Y136850D02*
D03*
Y146850D02*
D03*
Y156850D02*
D03*
X349843Y126850D02*
D03*
Y136850D02*
D03*
Y146850D02*
D03*
Y156850D02*
D03*
X306693Y179842D02*
D03*
Y169843D02*
D03*
Y159843D02*
D03*
Y149843D02*
D03*
Y139842D02*
D03*
Y129842D02*
D03*
Y119843D02*
D03*
Y109843D02*
D03*
X316693D02*
D03*
Y119843D02*
D03*
Y129842D02*
D03*
Y139842D02*
D03*
Y149843D02*
D03*
Y159843D02*
D03*
Y169843D02*
D03*
D144*
X-22819Y159267D02*
D03*
X82708Y17354D02*
D03*
D145*
X119095Y-73976D02*
D03*
X359842Y166850D02*
D03*
X349843D02*
D03*
X316693Y179842D02*
D03*
D146*
X358170Y83169D02*
D03*
Y86516D02*
D03*
Y89862D02*
D03*
Y93209D02*
D03*
Y96555D02*
D03*
Y99902D02*
D03*
Y103248D02*
D03*
Y106595D02*
D03*
X363484D02*
D03*
Y103248D02*
D03*
Y99902D02*
D03*
Y96555D02*
D03*
Y93209D02*
D03*
Y89862D02*
D03*
Y86516D02*
D03*
Y83169D02*
D03*
D147*
X362028Y77854D02*
D03*
Y111910D02*
D03*
D148*
X375335D02*
D03*
Y77854D02*
D03*
D149*
X208721Y241476D02*
D03*
X263721Y238976D02*
D03*
X236221Y221476D02*
D03*
X224971Y223976D02*
D03*
X247471D02*
D03*
X90610Y241476D02*
D03*
X145610Y238976D02*
D03*
X118110Y221476D02*
D03*
X106860Y223976D02*
D03*
X129360D02*
D03*
D150*
X218721Y251476D02*
D03*
X253721D02*
D03*
X203721Y286476D02*
D03*
X213721Y288976D02*
D03*
X236221Y276476D02*
D03*
X258721Y288976D02*
D03*
X100610Y251476D02*
D03*
X135610D02*
D03*
X85610Y286476D02*
D03*
X95610Y288976D02*
D03*
X118110Y276476D02*
D03*
X140610Y288976D02*
D03*
D151*
X208721Y182087D02*
D03*
X263721D02*
D03*
D152*
X208721Y201772D02*
D03*
X263721D02*
D03*
D153*
X354331Y196850D02*
D03*
X-0D02*
D03*
X354331Y-0D02*
D03*
X-0D02*
D03*
D155*
X166749Y100173D02*
D03*
Y102173D02*
D03*
Y104173D02*
D03*
Y106173D02*
D03*
Y108173D02*
D03*
Y110173D02*
D03*
Y112173D02*
D03*
Y114173D02*
D03*
X159449D02*
D03*
Y112173D02*
D03*
Y110173D02*
D03*
Y108173D02*
D03*
Y106173D02*
D03*
Y104173D02*
D03*
Y102173D02*
D03*
Y100173D02*
D03*
D156*
X282284Y182284D02*
D03*
Y198284D02*
D03*
X227165Y182284D02*
D03*
Y198284D02*
D03*
X159843Y238976D02*
D03*
Y254976D02*
D03*
D157*
X296063Y-19685D02*
D03*
X291191Y-24557D02*
D03*
D158*
X298004Y-28768D02*
D03*
X300787Y-25984D02*
D03*
X262125Y13736D02*
D03*
X259341Y10952D02*
D03*
D159*
X51181Y112205D02*
D03*
X45669D02*
D03*
D160*
X129360Y237402D02*
D03*
X113360D02*
D03*
M02*
