G04*
G04 #@! TF.GenerationSoftware,Altium Limited,Altium Designer,20.0.11 (256)*
G04*
G04 Layer_Physical_Order=3*
G04 Layer_Color=16440176*
%FSLAX25Y25*%
%MOIN*%
G70*
G01*
G75*
%ADD13C,0.00787*%
%ADD145C,0.06693*%
%ADD147R,0.06693X0.06693*%
%ADD156C,0.02362*%
G36*
X293207Y311786D02*
X293200Y311697D01*
X293066Y311024D01*
X293204Y310329D01*
X293598Y309739D01*
X294187Y309346D01*
X294882Y309208D01*
X295577Y309346D01*
X295994Y309625D01*
X296528Y309450D01*
X298965Y294062D01*
Y294062D01*
X299057Y293482D01*
X298615Y293078D01*
X298228Y293155D01*
X297533Y293016D01*
X296944Y292623D01*
X296550Y292034D01*
X296412Y291338D01*
X296550Y290644D01*
X296944Y290054D01*
X297533Y289661D01*
X298228Y289523D01*
X298923Y289661D01*
X299134Y289801D01*
X299678Y289563D01*
X300265Y285853D01*
Y285853D01*
X302142Y274003D01*
X302148Y273988D01*
X302148Y273972D01*
X302392Y272604D01*
X301937Y272306D01*
X301876Y272347D01*
X301181Y272485D01*
X300486Y272347D01*
X299897Y271953D01*
X299503Y271364D01*
X299365Y270669D01*
X299503Y269974D01*
X299897Y269385D01*
X300486Y268991D01*
X301181Y268853D01*
X301876Y268991D01*
X302465Y269385D01*
X302557Y269523D01*
X303095Y269427D01*
X303662Y267064D01*
X303689Y267005D01*
X303697Y266941D01*
X305134Y262517D01*
X305166Y262460D01*
X305179Y262396D01*
X306959Y258099D01*
X306995Y258045D01*
X307013Y257982D01*
X308455Y255151D01*
X308153Y254752D01*
X308071Y254769D01*
X307376Y254630D01*
X306787Y254237D01*
X306393Y253648D01*
X306255Y252953D01*
X306393Y252258D01*
X306787Y251669D01*
X307376Y251275D01*
X308071Y251137D01*
X308766Y251275D01*
X309355Y251669D01*
X309619Y252064D01*
X310187Y252094D01*
X311618Y249759D01*
X311662Y249711D01*
X311689Y249653D01*
X314423Y245889D01*
X314471Y245845D01*
X314503Y245789D01*
X317524Y242251D01*
X317575Y242211D01*
X317611Y242157D01*
X320900Y238868D01*
X320954Y238832D01*
X320994Y238781D01*
X324531Y235760D01*
X324588Y235728D01*
X324632Y235680D01*
X328396Y232946D01*
X328454Y232919D01*
X328502Y232875D01*
X330833Y231447D01*
X330803Y230878D01*
X330409Y230615D01*
X330015Y230026D01*
X329877Y229331D01*
X330015Y228636D01*
X330409Y228047D01*
X330998Y227653D01*
X331693Y227515D01*
X332388Y227653D01*
X332977Y228047D01*
X333371Y228636D01*
X333509Y229331D01*
X333493Y229412D01*
X333891Y229714D01*
X336725Y228270D01*
X336788Y228252D01*
X336841Y228216D01*
X341139Y226436D01*
X341203Y226423D01*
X341259Y226392D01*
X345684Y224954D01*
X345748Y224946D01*
X345807Y224919D01*
X350330Y223833D01*
X350379Y223831D01*
X350424Y223814D01*
X352715Y223405D01*
X352731Y223405D01*
X352746Y223399D01*
X358510Y222486D01*
X358748Y221942D01*
X358558Y221659D01*
X358420Y220965D01*
X358558Y220270D01*
X358952Y219680D01*
X359541Y219287D01*
X360236Y219148D01*
X360931Y219287D01*
X361520Y219680D01*
X361914Y220270D01*
X362052Y220965D01*
X361959Y221434D01*
X362320Y221883D01*
X388902Y217673D01*
X388924Y217615D01*
X388961Y217157D01*
X388480Y216835D01*
X388086Y216246D01*
X387948Y215551D01*
X388086Y214856D01*
X388480Y214267D01*
X389069Y213873D01*
X389764Y213735D01*
X390437Y213869D01*
X390525Y213876D01*
X390936Y213616D01*
X390937Y199769D01*
X390525Y199510D01*
X390437Y199517D01*
X389764Y199651D01*
X389069Y199512D01*
X388480Y199119D01*
X388086Y198530D01*
X387948Y197835D01*
X388086Y197140D01*
X388480Y196551D01*
X389069Y196157D01*
X389764Y196019D01*
X390437Y196152D01*
X390525Y196160D01*
X390937Y195900D01*
X390937Y180085D01*
X390526Y179824D01*
X390437Y179832D01*
X389764Y179966D01*
X389069Y179827D01*
X388480Y179434D01*
X388086Y178844D01*
X387948Y178150D01*
X388086Y177455D01*
X388480Y176865D01*
X389069Y176472D01*
X389764Y176334D01*
X390437Y176468D01*
X390526Y176475D01*
X390937Y176215D01*
X390937Y162567D01*
X390937Y162067D01*
X340023Y162067D01*
X339878Y162007D01*
X339722Y161993D01*
X339657Y161915D01*
X339564Y161876D01*
X339507Y161739D01*
X339501Y161729D01*
X339403Y161612D01*
X339355Y161457D01*
X339278Y161314D01*
X338583Y161452D01*
X337888Y161314D01*
X337811Y161457D01*
X337762Y161612D01*
X337664Y161729D01*
X337658Y161739D01*
X337602Y161876D01*
X337508Y161915D01*
X337443Y161993D01*
X337287Y162007D01*
X337142Y162067D01*
X320762Y162067D01*
X320701Y162041D01*
X320636Y162054D01*
X320597Y162029D01*
X320279Y161892D01*
X319908Y162135D01*
X319508Y162657D01*
X318683Y163290D01*
X317723Y163687D01*
X316693Y163823D01*
X315663Y163687D01*
X314703Y163290D01*
X313878Y162657D01*
X313478Y162135D01*
X313107Y161892D01*
X312788Y162029D01*
X312750Y162054D01*
X312342Y162368D01*
X312342Y187008D01*
X312152Y187467D01*
X311693Y187657D01*
X295276Y187657D01*
X294816Y187467D01*
X294626Y187008D01*
Y108917D01*
X279639D01*
X279291Y109417D01*
X279375Y109843D01*
X279237Y110537D01*
X278843Y111126D01*
X278254Y111520D01*
X277559Y111658D01*
X276864Y111520D01*
X276275Y111126D01*
X275881Y110537D01*
X275743Y109843D01*
X275828Y109417D01*
X275480Y108917D01*
X266542D01*
X266083Y108727D01*
X265892Y108268D01*
Y79009D01*
X265479Y78596D01*
X231035D01*
X231004Y78583D01*
X230971Y78593D01*
X230778Y78490D01*
X230576Y78406D01*
X230221Y78666D01*
X229632Y79060D01*
X229452Y79096D01*
Y79605D01*
X229632Y79641D01*
X230221Y80035D01*
X230615Y80624D01*
X230753Y81319D01*
X230615Y82014D01*
X230221Y82603D01*
X229632Y82997D01*
X228937Y83135D01*
X228242Y82997D01*
X227653Y82603D01*
X227259Y82014D01*
X227121Y81319D01*
X227259Y80624D01*
X227653Y80035D01*
X228242Y79641D01*
X228422Y79605D01*
Y79096D01*
X228242Y79060D01*
X227653Y78666D01*
X227298Y78406D01*
X227096Y78490D01*
X226903Y78593D01*
X226871Y78583D01*
X226839Y78596D01*
X216804D01*
X216391Y79009D01*
Y108268D01*
X216201Y108727D01*
X215742Y108917D01*
X201560D01*
X201469Y108880D01*
X201372Y108889D01*
X201248Y108788D01*
X201101Y108727D01*
X201082Y108680D01*
X200981Y108572D01*
X200518Y108456D01*
X200498Y108469D01*
X199803Y108607D01*
X199108Y108469D01*
X199089Y108456D01*
X198626Y108572D01*
X198525Y108680D01*
X198505Y108727D01*
X198358Y108788D01*
X198235Y108889D01*
X198137Y108880D01*
X198046Y108917D01*
X192505D01*
X192414Y108880D01*
X192317Y108889D01*
X192193Y108788D01*
X192046Y108727D01*
X192027Y108680D01*
X191926Y108572D01*
X191463Y108456D01*
X191443Y108469D01*
X190748Y108607D01*
X190053Y108469D01*
X190034Y108456D01*
X189571Y108572D01*
X189470Y108680D01*
X189450Y108727D01*
X189303Y108788D01*
X189180Y108889D01*
X189082Y108880D01*
X188991Y108917D01*
X152977Y108917D01*
X152760Y108827D01*
X152540Y108748D01*
X152362Y108587D01*
X152184Y108748D01*
X151964Y108827D01*
X151748Y108917D01*
X137901D01*
X137805Y108878D01*
X137702Y108886D01*
X137585Y108786D01*
X137442Y108727D01*
X137402Y108631D01*
X137323Y108564D01*
X137271Y108463D01*
X136916Y108371D01*
X136221Y108509D01*
X135526Y108371D01*
X135170Y108463D01*
X135118Y108564D01*
X135039Y108631D01*
X134999Y108727D01*
X134856Y108786D01*
X134739Y108886D01*
X134636Y108878D01*
X134540Y108917D01*
X132002D01*
X131953Y109417D01*
X132585Y109543D01*
X133174Y109936D01*
X133568Y110526D01*
X133706Y111221D01*
X133568Y111916D01*
X133174Y112505D01*
X132585Y112898D01*
X131890Y113037D01*
X131195Y112898D01*
X130606Y112505D01*
X130212Y111916D01*
X130074Y111221D01*
X130212Y110526D01*
X130606Y109936D01*
X131195Y109543D01*
X131826Y109417D01*
X131777Y108917D01*
X129975D01*
X129945Y108905D01*
X129837Y108963D01*
X129443Y109552D01*
X128854Y109945D01*
X128159Y110084D01*
X127464Y109945D01*
X126875Y109552D01*
X126481Y108963D01*
X126373Y108905D01*
X126343Y108917D01*
X120785D01*
X120326Y108727D01*
X120135Y108268D01*
Y59055D01*
X120326Y58596D01*
X120785Y58406D01*
X221539D01*
X221806Y58080D01*
X221944Y57385D01*
X222338Y56796D01*
X222927Y56402D01*
X223622Y56264D01*
X224317Y56402D01*
X224906Y56796D01*
X225229Y57279D01*
X225729Y57173D01*
Y-68898D01*
X225919Y-69357D01*
X226378Y-69547D01*
X303449D01*
X303743Y-69952D01*
X303697Y-70094D01*
X303689Y-70158D01*
X303662Y-70217D01*
X302576Y-74741D01*
X302574Y-74789D01*
X302556Y-74835D01*
X302148Y-77125D01*
X302148Y-77140D01*
X302143Y-77154D01*
X296492Y-112545D01*
X295953Y-112747D01*
X295577Y-112496D01*
X294882Y-112357D01*
X294187Y-112496D01*
X293598Y-112889D01*
X293204Y-113478D01*
X293066Y-114173D01*
X293200Y-114850D01*
X293211Y-114939D01*
X292943Y-115350D01*
X276545D01*
X276277Y-114939D01*
X276288Y-114850D01*
X276422Y-114173D01*
X276284Y-113478D01*
X275890Y-112889D01*
X275301Y-112496D01*
X274606Y-112357D01*
X273911Y-112496D01*
X273322Y-112889D01*
X272929Y-113478D01*
X272790Y-114173D01*
X272925Y-114850D01*
X272936Y-114939D01*
X272667Y-115350D01*
X272185D01*
Y-88386D01*
X271988Y-88583D01*
X83209D01*
Y-115350D01*
X79695D01*
X79427Y-114939D01*
X79437Y-114850D01*
X79572Y-114173D01*
X79434Y-113478D01*
X79040Y-112889D01*
X78451Y-112496D01*
X77756Y-112357D01*
X77061Y-112496D01*
X76472Y-112889D01*
X76078Y-113478D01*
X75940Y-114173D01*
X76074Y-114850D01*
X76085Y-114939D01*
X75817Y-115350D01*
X61135D01*
X60875Y-114850D01*
X61127Y-114474D01*
X61265Y-113780D01*
X61127Y-113085D01*
X60733Y-112496D01*
X60144Y-112102D01*
X59449Y-111964D01*
X58754Y-112102D01*
X58281Y-112417D01*
X57753Y-112279D01*
X54067Y-89006D01*
Y-89006D01*
X52614Y-79833D01*
X53064Y-79477D01*
X53543Y-79572D01*
X54238Y-79434D01*
X54827Y-79040D01*
X55221Y-78451D01*
X55359Y-77756D01*
X55221Y-77061D01*
X54827Y-76472D01*
X54238Y-76078D01*
X53543Y-75940D01*
X52848Y-76078D01*
X52543Y-76283D01*
X51993Y-76048D01*
X51776Y-74835D01*
X51758Y-74789D01*
X51757Y-74741D01*
X50670Y-70217D01*
X50643Y-70158D01*
X50636Y-70094D01*
X49198Y-65670D01*
X49167Y-65613D01*
X49154Y-65549D01*
X47374Y-61252D01*
X47338Y-61198D01*
X47320Y-61135D01*
X45208Y-56990D01*
X45168Y-56940D01*
X45145Y-56879D01*
X42715Y-52912D01*
X42671Y-52865D01*
X42644Y-52806D01*
X39909Y-49042D01*
X39862Y-48998D01*
X39830Y-48942D01*
X39130Y-48122D01*
X39320Y-47575D01*
X39474Y-47544D01*
X40064Y-47150D01*
X40457Y-46561D01*
X40595Y-45866D01*
X40457Y-45171D01*
X40064Y-44582D01*
X39474Y-44188D01*
X38780Y-44050D01*
X38085Y-44188D01*
X37495Y-44582D01*
X37170Y-45070D01*
X37161Y-45078D01*
X37068Y-45127D01*
X36811Y-45175D01*
X36590Y-45179D01*
X33432Y-42021D01*
X33379Y-41985D01*
X33338Y-41934D01*
X29801Y-38913D01*
X29744Y-38881D01*
X29700Y-38833D01*
X25937Y-36099D01*
X25878Y-36072D01*
X25831Y-36028D01*
X21864Y-33597D01*
X21803Y-33575D01*
X21752Y-33535D01*
X17607Y-31423D01*
X17545Y-31405D01*
X17491Y-31369D01*
X13193Y-29589D01*
X13130Y-29576D01*
X13073Y-29545D01*
X8649Y-28107D01*
X8585Y-28100D01*
X8526Y-28072D01*
X6328Y-27545D01*
X6246Y-27011D01*
X6599Y-26482D01*
X6737Y-25787D01*
X6599Y-25093D01*
X6205Y-24503D01*
X5616Y-24110D01*
X4921Y-23971D01*
X4226Y-24110D01*
X3637Y-24503D01*
X3243Y-25093D01*
X3105Y-25787D01*
X3214Y-26335D01*
X2890Y-26785D01*
X1618Y-26558D01*
X1603Y-26558D01*
X1588Y-26553D01*
X-34468Y-20796D01*
X-34578Y-20272D01*
X-34149Y-19985D01*
X-33755Y-19396D01*
X-33617Y-18701D01*
X-33755Y-18006D01*
X-34149Y-17417D01*
X-34738Y-17023D01*
X-35433Y-16885D01*
X-36108Y-17019D01*
X-36196Y-17027D01*
X-36608Y-16765D01*
Y-951D01*
X-36196Y-689D01*
X-36108Y-698D01*
X-35433Y-832D01*
X-34738Y-694D01*
X-34149Y-300D01*
X-33755Y289D01*
X-33617Y984D01*
X-33755Y1679D01*
X-34149Y2268D01*
X-34738Y2662D01*
X-35433Y2800D01*
X-36108Y2666D01*
X-36196Y2658D01*
X-36608Y2920D01*
Y18734D01*
X-36196Y18996D01*
X-36108Y18987D01*
X-35433Y18853D01*
X-34738Y18992D01*
X-34149Y19385D01*
X-33755Y19974D01*
X-33617Y20669D01*
X-33755Y21364D01*
X-34149Y21953D01*
X-34738Y22347D01*
X-35433Y22485D01*
X-36108Y22351D01*
X-36196Y22343D01*
X-36608Y22605D01*
Y38419D01*
X-36196Y38681D01*
X-36108Y38672D01*
X-35433Y38538D01*
X-34738Y38677D01*
X-34149Y39070D01*
X-33755Y39659D01*
X-33617Y40354D01*
X-33755Y41049D01*
X-34149Y41638D01*
X-34738Y42032D01*
X-35433Y42170D01*
X-36108Y42036D01*
X-36196Y42028D01*
X-36608Y42290D01*
Y58104D01*
X-36196Y58366D01*
X-36108Y58358D01*
X-35433Y58223D01*
X-34738Y58362D01*
X-34149Y58755D01*
X-33755Y59344D01*
X-33617Y60039D01*
X-33755Y60734D01*
X-34149Y61323D01*
X-34738Y61717D01*
X-35433Y61855D01*
X-36108Y61721D01*
X-36196Y61713D01*
X-36608Y61975D01*
Y77789D01*
X-36196Y78051D01*
X-36108Y78043D01*
X-35433Y77908D01*
X-34738Y78047D01*
X-34149Y78440D01*
X-33755Y79029D01*
X-33617Y79724D01*
X-33755Y80419D01*
X-34149Y81008D01*
X-34738Y81402D01*
X-35433Y81540D01*
X-36108Y81406D01*
X-36196Y81398D01*
X-36608Y81660D01*
Y97474D01*
X-36196Y97736D01*
X-36108Y97728D01*
X-35433Y97593D01*
X-34738Y97732D01*
X-34149Y98125D01*
X-33755Y98715D01*
X-33617Y99409D01*
X-33755Y100104D01*
X-34149Y100694D01*
X-34738Y101087D01*
X-35433Y101225D01*
X-36108Y101091D01*
X-36196Y101083D01*
X-36608Y101345D01*
Y117159D01*
X-36196Y117421D01*
X-36108Y117413D01*
X-35433Y117279D01*
X-34738Y117417D01*
X-34149Y117810D01*
X-33755Y118400D01*
X-33617Y119095D01*
X-33755Y119789D01*
X-34149Y120378D01*
X-34738Y120772D01*
X-35433Y120910D01*
X-36108Y120776D01*
X-36196Y120768D01*
X-36608Y121030D01*
Y136844D01*
X-36196Y137106D01*
X-36108Y137098D01*
X-35433Y136963D01*
X-34738Y137102D01*
X-34149Y137495D01*
X-33755Y138084D01*
X-33617Y138779D01*
X-33755Y139474D01*
X-34149Y140064D01*
X-34738Y140457D01*
X-35433Y140595D01*
X-36108Y140461D01*
X-36196Y140453D01*
X-36608Y140715D01*
Y156529D01*
X-36196Y156791D01*
X-36108Y156783D01*
X-35433Y156649D01*
X-34738Y156787D01*
X-34149Y157180D01*
X-33755Y157770D01*
X-33617Y158465D01*
X-33755Y159160D01*
X-34149Y159749D01*
X-34738Y160142D01*
X-35433Y160281D01*
X-36108Y160146D01*
X-36196Y160138D01*
X-36608Y160400D01*
Y176214D01*
X-36196Y176476D01*
X-36108Y176468D01*
X-35433Y176334D01*
X-34738Y176472D01*
X-34149Y176865D01*
X-33755Y177455D01*
X-33617Y178150D01*
X-33755Y178844D01*
X-34149Y179434D01*
X-34738Y179827D01*
X-35433Y179966D01*
X-36108Y179831D01*
X-36196Y179823D01*
X-36608Y180085D01*
Y195899D01*
X-36196Y196161D01*
X-36108Y196153D01*
X-35433Y196019D01*
X-34738Y196157D01*
X-34149Y196551D01*
X-33755Y197140D01*
X-33617Y197835D01*
X-33755Y198530D01*
X-34149Y199119D01*
X-34738Y199512D01*
X-35433Y199651D01*
X-36108Y199516D01*
X-36196Y199508D01*
X-36608Y199770D01*
Y213616D01*
X-36196Y213878D01*
X-36108Y213869D01*
X-35433Y213735D01*
X-34738Y213873D01*
X-34149Y214267D01*
X-33755Y214856D01*
X-33617Y215551D01*
X-33755Y216246D01*
X-34149Y216835D01*
X-34574Y217119D01*
X-34459Y217644D01*
X1588Y223400D01*
X1603Y223405D01*
X1618Y223405D01*
X3282Y223702D01*
X3450Y223528D01*
X3622Y223254D01*
X3499Y222638D01*
X3637Y221943D01*
X4031Y221354D01*
X4620Y220960D01*
X5315Y220822D01*
X6010Y220960D01*
X6599Y221354D01*
X6993Y221943D01*
X7131Y222638D01*
X6993Y223333D01*
X6599Y223922D01*
X6529Y223969D01*
X6617Y224461D01*
X8526Y224919D01*
X8585Y224946D01*
X8649Y224954D01*
X13073Y226392D01*
X13130Y226423D01*
X13193Y226436D01*
X17491Y228216D01*
X17545Y228252D01*
X17607Y228270D01*
X21752Y230382D01*
X21803Y230422D01*
X21864Y230444D01*
X25831Y232875D01*
X25878Y232919D01*
X25937Y232946D01*
X29700Y235680D01*
X29744Y235728D01*
X29801Y235760D01*
X33338Y238781D01*
X33379Y238832D01*
X33432Y238868D01*
X36591Y242026D01*
X36808Y242024D01*
X37067Y241976D01*
X37161Y241927D01*
X37171Y241917D01*
X37495Y241432D01*
X38085Y241039D01*
X38780Y240900D01*
X39474Y241039D01*
X40064Y241432D01*
X40457Y242021D01*
X40595Y242717D01*
X40457Y243411D01*
X40064Y244001D01*
X39474Y244394D01*
X39323Y244424D01*
X39133Y244972D01*
X39830Y245789D01*
X39862Y245845D01*
X39909Y245889D01*
X42644Y249653D01*
X42671Y249712D01*
X42715Y249759D01*
X45145Y253726D01*
X45168Y253786D01*
X45208Y253837D01*
X47320Y257982D01*
X47338Y258045D01*
X47374Y258099D01*
X49154Y262396D01*
X49167Y262460D01*
X49198Y262517D01*
X50636Y266941D01*
X50643Y267005D01*
X50670Y267064D01*
X51757Y271587D01*
X51758Y271636D01*
X51776Y271681D01*
X51993Y272898D01*
X52543Y273132D01*
X52848Y272929D01*
X53543Y272790D01*
X54238Y272929D01*
X54827Y273322D01*
X55221Y273911D01*
X55359Y274606D01*
X55221Y275301D01*
X54827Y275890D01*
X54238Y276284D01*
X53543Y276422D01*
X53065Y276327D01*
X52615Y276684D01*
X54067Y285853D01*
X55367Y294062D01*
X57838Y309411D01*
X58346Y309421D01*
X58362Y309344D01*
X58755Y308755D01*
X59344Y308362D01*
X60039Y308223D01*
X60734Y308362D01*
X61323Y308755D01*
X61717Y309344D01*
X61855Y310039D01*
X61717Y310734D01*
X61323Y311323D01*
X60764Y311697D01*
X60759Y311734D01*
X61014Y312197D01*
X86647D01*
X86908Y311786D01*
X86901Y311697D01*
X86767Y311024D01*
X86905Y310329D01*
X87299Y309739D01*
X87888Y309346D01*
X88583Y309208D01*
X89278Y309346D01*
X89867Y309739D01*
X90260Y310329D01*
X90399Y311024D01*
X90265Y311697D01*
X90257Y311786D01*
X90518Y312197D01*
X116175D01*
X116436Y311786D01*
X116428Y311697D01*
X116294Y311024D01*
X116432Y310329D01*
X116826Y309739D01*
X117415Y309346D01*
X118110Y309208D01*
X118805Y309346D01*
X119394Y309739D01*
X119788Y310329D01*
X119926Y311024D01*
X119792Y311697D01*
X119785Y311786D01*
X120045Y312197D01*
X145703D01*
X145963Y311786D01*
X145956Y311697D01*
X145822Y311024D01*
X145960Y310329D01*
X146354Y309739D01*
X146943Y309346D01*
X147638Y309208D01*
X148333Y309346D01*
X148922Y309739D01*
X149316Y310329D01*
X149454Y311024D01*
X149320Y311697D01*
X149312Y311786D01*
X149573Y312197D01*
X165388D01*
X165648Y311786D01*
X165641Y311697D01*
X165507Y311024D01*
X165645Y310329D01*
X166039Y309739D01*
X166628Y309346D01*
X167323Y309208D01*
X168018Y309346D01*
X168607Y309739D01*
X169000Y310329D01*
X169139Y311024D01*
X169005Y311697D01*
X168997Y311786D01*
X169258Y312197D01*
X214600D01*
X214861Y311786D01*
X214853Y311697D01*
X214719Y311024D01*
X214858Y310329D01*
X215251Y309739D01*
X215840Y309346D01*
X216535Y309208D01*
X217230Y309346D01*
X217819Y309739D01*
X218213Y310329D01*
X218351Y311024D01*
X218217Y311697D01*
X218210Y311786D01*
X218471Y312197D01*
X234285D01*
X234546Y311786D01*
X234538Y311697D01*
X234404Y311024D01*
X234543Y310329D01*
X234936Y309739D01*
X235525Y309346D01*
X236220Y309208D01*
X236915Y309346D01*
X237505Y309739D01*
X237898Y310329D01*
X238036Y311024D01*
X237902Y311697D01*
X237895Y311786D01*
X238156Y312197D01*
X253970D01*
X254231Y311786D01*
X254223Y311697D01*
X254089Y311024D01*
X254228Y310329D01*
X254621Y309739D01*
X255210Y309346D01*
X255906Y309208D01*
X256600Y309346D01*
X257190Y309739D01*
X257583Y310329D01*
X257721Y311024D01*
X257588Y311697D01*
X257580Y311786D01*
X257841Y312197D01*
X273655D01*
X273916Y311786D01*
X273908Y311697D01*
X273775Y311024D01*
X273913Y310329D01*
X274306Y309739D01*
X274896Y309346D01*
X275590Y309208D01*
X276285Y309346D01*
X276875Y309739D01*
X277268Y310329D01*
X277407Y311024D01*
X277273Y311697D01*
X277265Y311786D01*
X277526Y312197D01*
X292947D01*
X293207Y311786D01*
D02*
G37*
G36*
X311693Y187008D02*
X311693Y161417D01*
X312624D01*
X312901Y161002D01*
X312848Y160873D01*
X312712Y159843D01*
X312848Y158812D01*
X313246Y157852D01*
X313878Y157028D01*
X314703Y156395D01*
X315663Y155998D01*
X316693Y155862D01*
X317723Y155998D01*
X318683Y156395D01*
X319508Y157028D01*
X320140Y157852D01*
X320538Y158812D01*
X320673Y159843D01*
X320538Y160873D01*
X320484Y161002D01*
X320762Y161417D01*
X337142Y161417D01*
X337299Y160920D01*
X336905Y160331D01*
X336767Y159636D01*
X336905Y158941D01*
X337299Y158352D01*
X337888Y157958D01*
X338583Y157820D01*
X339278Y157958D01*
X339867Y158352D01*
X340260Y158941D01*
X340399Y159636D01*
X340260Y160331D01*
X339867Y160920D01*
X340023Y161417D01*
X390937Y161417D01*
X390937Y160400D01*
X390526Y160139D01*
X390437Y160146D01*
X389764Y160281D01*
X389069Y160142D01*
X388480Y159749D01*
X388086Y159160D01*
X387948Y158465D01*
X388086Y157770D01*
X388480Y157180D01*
X389069Y156787D01*
X389764Y156649D01*
X390437Y156782D01*
X390526Y156790D01*
X390937Y156529D01*
X390938Y140715D01*
X390526Y140454D01*
X390438Y140461D01*
X389764Y140595D01*
X389069Y140457D01*
X388480Y140064D01*
X388086Y139474D01*
X387948Y138779D01*
X388086Y138084D01*
X388480Y137495D01*
X389069Y137102D01*
X389764Y136963D01*
X390438Y137098D01*
X390526Y137105D01*
X390938Y136844D01*
X390938Y121030D01*
X390527Y120768D01*
X390438Y120776D01*
X389764Y120910D01*
X389069Y120772D01*
X388480Y120378D01*
X388086Y119789D01*
X387948Y119095D01*
X388086Y118400D01*
X388480Y117810D01*
X389069Y117417D01*
X389764Y117279D01*
X390438Y117413D01*
X390527Y117421D01*
X390938Y117159D01*
X390938Y101345D01*
X390527Y101083D01*
X390438Y101091D01*
X389764Y101225D01*
X389069Y101087D01*
X388521Y100721D01*
X388318Y100769D01*
X388021Y100907D01*
Y116929D01*
X387944Y117317D01*
X387724Y117646D01*
X385756Y119614D01*
X385427Y119834D01*
X385039Y119911D01*
X355512D01*
X355124Y119834D01*
X354795Y119614D01*
X351942Y116761D01*
X330652D01*
X330588Y116791D01*
X330505Y116794D01*
X330451Y116800D01*
X330400Y116811D01*
X330352Y116826D01*
X330304Y116844D01*
X330255Y116868D01*
X330205Y116898D01*
X330155Y116934D01*
X330102Y116978D01*
X330032Y117045D01*
X329969Y117069D01*
X329435Y117426D01*
X328740Y117564D01*
X328045Y117426D01*
X327456Y117032D01*
X327062Y116443D01*
X326924Y115748D01*
X327062Y115053D01*
X327456Y114464D01*
X328045Y114070D01*
X328740Y113932D01*
X329435Y114070D01*
X329969Y114427D01*
X330032Y114452D01*
X330102Y114518D01*
X330155Y114562D01*
X330205Y114598D01*
X330255Y114628D01*
X330304Y114652D01*
X330352Y114671D01*
X330400Y114685D01*
X330451Y114696D01*
X330505Y114702D01*
X330588Y114705D01*
X330652Y114735D01*
X352362D01*
X352750Y114812D01*
X353079Y115032D01*
X355931Y117885D01*
X384620D01*
X385995Y116509D01*
Y-4761D01*
Y-6693D01*
X385995Y-6695D01*
Y-15092D01*
X348005Y-21109D01*
X347514Y-21180D01*
X347514Y-21180D01*
X347514Y-21180D01*
X343275Y-22024D01*
X338456Y-23382D01*
X333759Y-25115D01*
X329213Y-27211D01*
X324845Y-29657D01*
X320682Y-32439D01*
X316751Y-35538D01*
X313075Y-38936D01*
X309676Y-42612D01*
X306577Y-46544D01*
X303796Y-50707D01*
X302664Y-52728D01*
X302600Y-52803D01*
X302592Y-52817D01*
X302585Y-52837D01*
X302572Y-52853D01*
X300335Y-57245D01*
X281332D01*
X281267Y-57215D01*
X281184Y-57212D01*
X281127Y-57206D01*
X281071Y-57195D01*
X281017Y-57180D01*
X280962Y-57160D01*
X280906Y-57135D01*
X280849Y-57104D01*
X280790Y-57067D01*
X280730Y-57023D01*
X280653Y-56959D01*
X280535Y-56922D01*
X280149Y-56664D01*
X279454Y-56525D01*
X278759Y-56664D01*
X278170Y-57057D01*
X277776Y-57647D01*
X277638Y-58341D01*
X277776Y-59036D01*
X278170Y-59626D01*
X278759Y-60019D01*
X279454Y-60158D01*
X280149Y-60019D01*
X280738Y-59626D01*
X280773Y-59573D01*
X280832Y-59545D01*
X280895Y-59477D01*
X280939Y-59435D01*
X280982Y-59401D01*
X281024Y-59374D01*
X281065Y-59352D01*
X281106Y-59334D01*
X281149Y-59321D01*
X281195Y-59311D01*
X281246Y-59304D01*
X281329Y-59301D01*
X281339Y-59296D01*
X281351Y-59299D01*
X281406Y-59271D01*
X300955D01*
X301111Y-59241D01*
X301268Y-59222D01*
X301304Y-59202D01*
X301343Y-59194D01*
X301475Y-59106D01*
X301613Y-59029D01*
X301638Y-58997D01*
X301672Y-58975D01*
X301760Y-58843D01*
X301858Y-58718D01*
X304353Y-53822D01*
X304393Y-53810D01*
X304393D01*
X305534Y-51772D01*
X308227Y-47743D01*
X311227Y-43937D01*
X314516Y-40378D01*
X318075Y-37089D01*
X321881Y-34088D01*
X325910Y-31396D01*
X330139Y-29028D01*
X334540Y-26999D01*
X339086Y-25322D01*
X343751Y-24006D01*
X347855Y-23190D01*
X347855Y-23190D01*
Y-23190D01*
X347859Y-23184D01*
X386503Y-17063D01*
X386503Y-17063D01*
X387167Y-16958D01*
X387279Y-16917D01*
X387396Y-16893D01*
X387463Y-16849D01*
X387538Y-16821D01*
X387625Y-16740D01*
X387725Y-16674D01*
X387769Y-16607D01*
X387828Y-16553D01*
X387878Y-16444D01*
X387944Y-16345D01*
X387960Y-16266D01*
X387994Y-16194D01*
X387998Y-16074D01*
X388021Y-15957D01*
Y-6693D01*
X388021Y-6692D01*
Y-4761D01*
X388021Y-4759D01*
Y-514D01*
X388318Y-375D01*
X388521Y-328D01*
X389069Y-694D01*
X389764Y-832D01*
X390440Y-697D01*
X390529Y-688D01*
X390940Y-953D01*
X390940Y-16763D01*
X390529Y-17029D01*
X390440Y-17019D01*
X389764Y-16885D01*
X389069Y-17023D01*
X388480Y-17417D01*
X388086Y-18006D01*
X387948Y-18701D01*
X388086Y-19396D01*
X388480Y-19985D01*
X388966Y-20310D01*
X388934Y-20749D01*
X388906Y-20825D01*
X352746Y-26552D01*
X352731Y-26558D01*
X352715Y-26558D01*
X351045Y-26856D01*
X350874Y-26674D01*
X350708Y-26408D01*
X350832Y-25787D01*
X350693Y-25093D01*
X350300Y-24503D01*
X349711Y-24110D01*
X349016Y-23971D01*
X348321Y-24110D01*
X347732Y-24503D01*
X347338Y-25093D01*
X347200Y-25787D01*
X347338Y-26482D01*
X347732Y-27071D01*
X347759Y-27090D01*
X347663Y-27627D01*
X345807Y-28072D01*
X345748Y-28100D01*
X345684Y-28107D01*
X341259Y-29545D01*
X341203Y-29576D01*
X341139Y-29589D01*
X336841Y-31369D01*
X336788Y-31405D01*
X336725Y-31423D01*
X332580Y-33535D01*
X332529Y-33575D01*
X332468Y-33597D01*
X328502Y-36028D01*
X328454Y-36072D01*
X328396Y-36099D01*
X324632Y-38833D01*
X324588Y-38881D01*
X324531Y-38913D01*
X320994Y-41934D01*
X320954Y-41985D01*
X320900Y-42021D01*
X317611Y-45310D01*
X317575Y-45364D01*
X317524Y-45404D01*
X314503Y-48942D01*
X314471Y-48998D01*
X314423Y-49042D01*
X311689Y-52806D01*
X311662Y-52865D01*
X311618Y-52912D01*
X309187Y-56879D01*
X309165Y-56940D01*
X309124Y-56990D01*
X307013Y-61135D01*
X306995Y-61198D01*
X306959Y-61252D01*
X305179Y-65549D01*
X305166Y-65613D01*
X305134Y-65670D01*
X304086Y-68898D01*
X226378D01*
Y59055D01*
X225113D01*
X224906Y59364D01*
X224317Y59758D01*
X223622Y59896D01*
X222927Y59758D01*
X222338Y59364D01*
X222131Y59055D01*
X120785D01*
Y108268D01*
X126343D01*
X126481Y107573D01*
X126875Y106984D01*
X127086Y106843D01*
X127090Y106833D01*
X127052Y106264D01*
X126669Y106009D01*
X126275Y105419D01*
X126137Y104724D01*
X126275Y104030D01*
X126669Y103440D01*
X127258Y103047D01*
X127953Y102908D01*
X128648Y103047D01*
X129237Y103440D01*
X129630Y104030D01*
X129769Y104724D01*
X129630Y105419D01*
X129237Y106009D01*
X129026Y106149D01*
X129022Y106159D01*
X129060Y106728D01*
X129443Y106984D01*
X129837Y107573D01*
X129975Y108268D01*
X134540D01*
X134797Y107768D01*
X134543Y107388D01*
X134405Y106693D01*
X134543Y105998D01*
X134936Y105409D01*
X135526Y105015D01*
X136221Y104877D01*
X136916Y105015D01*
X137505Y105409D01*
X137898Y105998D01*
X138037Y106693D01*
X137898Y107388D01*
X137645Y107768D01*
X137901Y108268D01*
X151748D01*
X152111Y107938D01*
X152111Y107938D01*
X152111D01*
X152128Y107768D01*
X152115Y107765D01*
X151667Y107676D01*
X151078Y107282D01*
X150684Y106693D01*
X150546Y105998D01*
X150684Y105303D01*
X150356Y104895D01*
X150000Y104966D01*
X149305Y104827D01*
X148716Y104434D01*
X148322Y103845D01*
X148184Y103150D01*
X148322Y102455D01*
X148716Y101865D01*
X149305Y101472D01*
X150000Y101334D01*
X150695Y101472D01*
X151284Y101865D01*
X151678Y102455D01*
X151816Y103150D01*
X151678Y103845D01*
X152006Y104253D01*
X152362Y104182D01*
X153057Y104321D01*
X153646Y104714D01*
X154040Y105303D01*
X154178Y105998D01*
X154040Y106693D01*
X153646Y107282D01*
X153057Y107676D01*
X152610Y107765D01*
X152597Y107768D01*
X152613Y107938D01*
X152613D01*
X152613Y107938D01*
X152977Y108268D01*
X188991Y108268D01*
X189258Y107768D01*
X189070Y107486D01*
X188932Y106791D01*
X189070Y106096D01*
X189464Y105507D01*
X190053Y105114D01*
X190748Y104975D01*
X191443Y105114D01*
X192032Y105507D01*
X192426Y106096D01*
X192564Y106791D01*
X192426Y107486D01*
X192238Y107768D01*
X192505Y108268D01*
X198046D01*
X198313Y107768D01*
X198125Y107486D01*
X197987Y106791D01*
X198125Y106096D01*
X198519Y105507D01*
X199108Y105114D01*
X199803Y104975D01*
X200498Y105114D01*
X201087Y105507D01*
X201481Y106096D01*
X201619Y106791D01*
X201481Y107486D01*
X201293Y107768D01*
X201560Y108268D01*
X215742D01*
Y78740D01*
X216535Y77947D01*
X226839D01*
X227156Y77560D01*
X227121Y77382D01*
X227259Y76687D01*
X227653Y76098D01*
X228242Y75704D01*
X228422Y75668D01*
Y75159D01*
X228242Y75123D01*
X227653Y74729D01*
X227259Y74140D01*
X227121Y73445D01*
X227259Y72750D01*
X227653Y72161D01*
X228242Y71767D01*
X228937Y71629D01*
X229632Y71767D01*
X230221Y72161D01*
X230615Y72750D01*
X230753Y73445D01*
X230615Y74140D01*
X230221Y74729D01*
X229632Y75123D01*
X229452Y75159D01*
Y75668D01*
X229632Y75704D01*
X230221Y76098D01*
X230615Y76687D01*
X230753Y77382D01*
X230718Y77560D01*
X231035Y77947D01*
X265748D01*
X266542Y78740D01*
Y108268D01*
X276710D01*
X276864Y108165D01*
X277559Y108027D01*
X278254Y108165D01*
X278408Y108268D01*
X295276D01*
Y187008D01*
X311693Y187008D01*
D02*
G37*
G36*
X329670Y116492D02*
X329759Y116419D01*
X329850Y116354D01*
X329944Y116298D01*
X330041Y116250D01*
X330140Y116211D01*
X330241Y116181D01*
X330346Y116159D01*
X330453Y116146D01*
X330562Y116142D01*
Y115354D01*
X330453Y115350D01*
X330346Y115337D01*
X330241Y115315D01*
X330140Y115285D01*
X330041Y115246D01*
X329944Y115198D01*
X329850Y115142D01*
X329759Y115077D01*
X329670Y115004D01*
X329584Y114921D01*
Y116575D01*
X329670Y116492D01*
D02*
G37*
G36*
X389069Y97732D02*
X389764Y97593D01*
X390438Y97728D01*
X390527Y97736D01*
X390938Y97474D01*
X390938Y81660D01*
X390527Y81397D01*
X390439Y81406D01*
X389764Y81540D01*
X389069Y81402D01*
X388521Y81036D01*
X388318Y81084D01*
X388021Y81222D01*
Y97912D01*
X388318Y98050D01*
X388521Y98098D01*
X389069Y97732D01*
D02*
G37*
G36*
Y78047D02*
X389764Y77908D01*
X390439Y78043D01*
X390527Y78051D01*
X390939Y77788D01*
X390939Y42291D01*
X390528Y42027D01*
X390439Y42036D01*
X389764Y42170D01*
X389069Y42032D01*
X388521Y41666D01*
X388318Y41714D01*
X388021Y41852D01*
Y78227D01*
X388318Y78365D01*
X388521Y78413D01*
X389069Y78047D01*
D02*
G37*
G36*
Y38677D02*
X389764Y38538D01*
X390439Y38673D01*
X390528Y38682D01*
X390939Y38418D01*
X390939Y22606D01*
X390528Y22342D01*
X390439Y22351D01*
X389764Y22485D01*
X389069Y22347D01*
X388521Y21981D01*
X388318Y22029D01*
X388021Y22167D01*
Y38857D01*
X388318Y38995D01*
X388521Y39042D01*
X389069Y38677D01*
D02*
G37*
G36*
Y18992D02*
X389764Y18853D01*
X390439Y18988D01*
X390528Y18997D01*
X390939Y18732D01*
X390940Y2921D01*
X390529Y2656D01*
X390440Y2666D01*
X389764Y2800D01*
X389069Y2662D01*
X388521Y2296D01*
X388318Y2344D01*
X388021Y2482D01*
Y19172D01*
X388318Y19310D01*
X388521Y19357D01*
X389069Y18992D01*
D02*
G37*
G36*
X280330Y-57535D02*
X280424Y-57604D01*
X280521Y-57665D01*
X280619Y-57718D01*
X280718Y-57763D01*
X280820Y-57799D01*
X280923Y-57828D01*
X281028Y-57848D01*
X281135Y-57860D01*
X281243Y-57864D01*
X281302Y-58652D01*
X281191Y-58657D01*
X281084Y-58670D01*
X280981Y-58693D01*
X280881Y-58725D01*
X280784Y-58766D01*
X280691Y-58816D01*
X280601Y-58875D01*
X280515Y-58943D01*
X280433Y-59020D01*
X280353Y-59107D01*
X280237Y-57457D01*
X280330Y-57535D01*
D02*
G37*
%LPC*%
G36*
X213721Y294247D02*
X212356Y294068D01*
X211085Y293541D01*
X209993Y292704D01*
X209156Y291612D01*
X208629Y290341D01*
X208533Y289611D01*
X208010Y289471D01*
X207448Y290204D01*
X206356Y291041D01*
X205085Y291568D01*
X203721Y291747D01*
X202356Y291568D01*
X201085Y291041D01*
X199993Y290204D01*
X199156Y289112D01*
X198629Y287841D01*
X198450Y286476D01*
X198629Y285112D01*
X199156Y283841D01*
X199993Y282749D01*
X201085Y281911D01*
X202356Y281385D01*
X203721Y281205D01*
X205085Y281385D01*
X206356Y281911D01*
X207448Y282749D01*
X208285Y283841D01*
X208812Y285112D01*
X208908Y285842D01*
X209431Y285982D01*
X209993Y285249D01*
X211085Y284412D01*
X212356Y283885D01*
X213721Y283705D01*
X215085Y283885D01*
X216356Y284412D01*
X217448Y285249D01*
X218285Y286341D01*
X218812Y287612D01*
X218992Y288976D01*
X218812Y290341D01*
X218285Y291612D01*
X217448Y292704D01*
X216356Y293541D01*
X215085Y294068D01*
X213721Y294247D01*
D02*
G37*
G36*
X95610D02*
X94246Y294068D01*
X92975Y293541D01*
X91883Y292704D01*
X91045Y291612D01*
X90519Y290341D01*
X90423Y289611D01*
X89900Y289471D01*
X89337Y290204D01*
X88246Y291041D01*
X86974Y291568D01*
X85610Y291747D01*
X84246Y291568D01*
X82975Y291041D01*
X81883Y290204D01*
X81045Y289112D01*
X80519Y287841D01*
X80339Y286476D01*
X80519Y285112D01*
X81045Y283841D01*
X81883Y282749D01*
X82975Y281911D01*
X84246Y281385D01*
X85610Y281205D01*
X86974Y281385D01*
X88246Y281911D01*
X89337Y282749D01*
X90175Y283841D01*
X90702Y285112D01*
X90798Y285842D01*
X91321Y285982D01*
X91883Y285249D01*
X92975Y284412D01*
X94246Y283885D01*
X95610Y283705D01*
X96974Y283885D01*
X98246Y284412D01*
X99337Y285249D01*
X100175Y286341D01*
X100702Y287612D01*
X100881Y288976D01*
X100702Y290341D01*
X100175Y291612D01*
X99337Y292704D01*
X98246Y293541D01*
X96974Y294068D01*
X95610Y294247D01*
D02*
G37*
G36*
X258721D02*
X257356Y294068D01*
X256085Y293541D01*
X254993Y292704D01*
X254156Y291612D01*
X253629Y290341D01*
X253450Y288976D01*
X253629Y287612D01*
X254156Y286341D01*
X254993Y285249D01*
X256085Y284412D01*
X257356Y283885D01*
X258721Y283705D01*
X260085Y283885D01*
X261356Y284412D01*
X262448Y285249D01*
X263285Y286341D01*
X263812Y287612D01*
X263992Y288976D01*
X263812Y290341D01*
X263285Y291612D01*
X262448Y292704D01*
X261356Y293541D01*
X260085Y294068D01*
X258721Y294247D01*
D02*
G37*
G36*
X140610D02*
X139246Y294068D01*
X137975Y293541D01*
X136883Y292704D01*
X136045Y291612D01*
X135519Y290341D01*
X135339Y288976D01*
X135519Y287612D01*
X136045Y286341D01*
X136883Y285249D01*
X137975Y284412D01*
X139246Y283885D01*
X140610Y283705D01*
X141974Y283885D01*
X143246Y284412D01*
X144337Y285249D01*
X145175Y286341D01*
X145702Y287612D01*
X145881Y288976D01*
X145702Y290341D01*
X145175Y291612D01*
X144337Y292704D01*
X143246Y293541D01*
X141974Y294068D01*
X140610Y294247D01*
D02*
G37*
G36*
X236221Y281747D02*
X234856Y281568D01*
X233585Y281041D01*
X232493Y280204D01*
X231656Y279112D01*
X231129Y277841D01*
X230949Y276476D01*
X231129Y275112D01*
X231656Y273841D01*
X232493Y272749D01*
X233585Y271912D01*
X234856Y271385D01*
X236221Y271205D01*
X237585Y271385D01*
X238856Y271912D01*
X239948Y272749D01*
X240785Y273841D01*
X241312Y275112D01*
X241492Y276476D01*
X241312Y277841D01*
X240785Y279112D01*
X239948Y280204D01*
X238856Y281041D01*
X237585Y281568D01*
X236221Y281747D01*
D02*
G37*
G36*
X118110D02*
X116746Y281568D01*
X115475Y281041D01*
X114383Y280204D01*
X113545Y279112D01*
X113019Y277841D01*
X112839Y276476D01*
X113019Y275112D01*
X113545Y273841D01*
X114383Y272749D01*
X115475Y271912D01*
X116746Y271385D01*
X118110Y271205D01*
X119474Y271385D01*
X120746Y271912D01*
X121837Y272749D01*
X122675Y273841D01*
X123202Y275112D01*
X123381Y276476D01*
X123202Y277841D01*
X122675Y279112D01*
X121837Y280204D01*
X120746Y281041D01*
X119474Y281568D01*
X118110Y281747D01*
D02*
G37*
G36*
X151969Y256934D02*
X151274Y256796D01*
X150684Y256402D01*
X150291Y255813D01*
X150153Y255118D01*
X150291Y254423D01*
X150684Y253834D01*
X151274Y253440D01*
X151969Y253302D01*
X152663Y253440D01*
X153253Y253834D01*
X153646Y254423D01*
X153785Y255118D01*
X153646Y255813D01*
X153253Y256402D01*
X152663Y256796D01*
X151969Y256934D01*
D02*
G37*
G36*
X253721Y256747D02*
X252356Y256568D01*
X251085Y256041D01*
X249993Y255204D01*
X249156Y254112D01*
X248629Y252841D01*
X248449Y251476D01*
X248629Y250112D01*
X249156Y248841D01*
X249993Y247749D01*
X251085Y246912D01*
X252356Y246385D01*
X253721Y246205D01*
X255085Y246385D01*
X256356Y246912D01*
X257448Y247749D01*
X258285Y248841D01*
X258812Y250112D01*
X258992Y251476D01*
X258812Y252841D01*
X258285Y254112D01*
X257448Y255204D01*
X256356Y256041D01*
X255085Y256568D01*
X253721Y256747D01*
D02*
G37*
G36*
X218721D02*
X217356Y256568D01*
X216085Y256041D01*
X214993Y255204D01*
X214156Y254112D01*
X213629Y252841D01*
X213450Y251476D01*
X213629Y250112D01*
X214156Y248841D01*
X214993Y247749D01*
X216085Y246912D01*
X217356Y246385D01*
X218721Y246205D01*
X220085Y246385D01*
X221356Y246912D01*
X222448Y247749D01*
X223285Y248841D01*
X223812Y250112D01*
X223992Y251476D01*
X223812Y252841D01*
X223285Y254112D01*
X222448Y255204D01*
X221356Y256041D01*
X220085Y256568D01*
X218721Y256747D01*
D02*
G37*
G36*
X135610D02*
X134246Y256568D01*
X132975Y256041D01*
X131883Y255204D01*
X131045Y254112D01*
X130519Y252841D01*
X130339Y251476D01*
X130519Y250112D01*
X131045Y248841D01*
X131883Y247749D01*
X132975Y246912D01*
X134246Y246385D01*
X135610Y246205D01*
X136974Y246385D01*
X138246Y246912D01*
X139337Y247749D01*
X140175Y248841D01*
X140702Y250112D01*
X140881Y251476D01*
X140702Y252841D01*
X140175Y254112D01*
X139337Y255204D01*
X138246Y256041D01*
X136974Y256568D01*
X135610Y256747D01*
D02*
G37*
G36*
X100610D02*
X99246Y256568D01*
X97975Y256041D01*
X96883Y255204D01*
X96045Y254112D01*
X95519Y252841D01*
X95339Y251476D01*
X95519Y250112D01*
X96045Y248841D01*
X96883Y247749D01*
X97975Y246912D01*
X99246Y246385D01*
X100610Y246205D01*
X101974Y246385D01*
X103246Y246912D01*
X104337Y247749D01*
X105175Y248841D01*
X105702Y250112D01*
X105881Y251476D01*
X105702Y252841D01*
X105175Y254112D01*
X104337Y255204D01*
X103246Y256041D01*
X101974Y256568D01*
X100610Y256747D01*
D02*
G37*
G36*
X208721Y245655D02*
X207639Y245513D01*
X206631Y245095D01*
X205766Y244431D01*
X205101Y243566D01*
X204684Y242558D01*
X204541Y241476D01*
X204684Y240395D01*
X205101Y239387D01*
X205766Y238521D01*
X206631Y237857D01*
X207639Y237440D01*
X208721Y237297D01*
X209802Y237440D01*
X210810Y237857D01*
X211676Y238521D01*
X212340Y239387D01*
X212757Y240395D01*
X212900Y241476D01*
X212757Y242558D01*
X212340Y243566D01*
X211676Y244431D01*
X210810Y245095D01*
X209802Y245513D01*
X208721Y245655D01*
D02*
G37*
G36*
X90610D02*
X89529Y245513D01*
X88521Y245095D01*
X87655Y244431D01*
X86991Y243566D01*
X86573Y242558D01*
X86431Y241476D01*
X86573Y240395D01*
X86991Y239387D01*
X87655Y238521D01*
X88521Y237857D01*
X89529Y237440D01*
X90610Y237297D01*
X91692Y237440D01*
X92700Y237857D01*
X93565Y238521D01*
X94229Y239387D01*
X94647Y240395D01*
X94789Y241476D01*
X94647Y242558D01*
X94229Y243566D01*
X93565Y244431D01*
X92700Y245095D01*
X91692Y245513D01*
X90610Y245655D01*
D02*
G37*
G36*
X263721Y243155D02*
X262639Y243013D01*
X261631Y242596D01*
X260766Y241931D01*
X260101Y241066D01*
X259684Y240058D01*
X259542Y238976D01*
X259684Y237895D01*
X260101Y236887D01*
X260766Y236021D01*
X261631Y235357D01*
X262639Y234940D01*
X263721Y234797D01*
X264802Y234940D01*
X265810Y235357D01*
X266676Y236021D01*
X267340Y236887D01*
X267757Y237895D01*
X267900Y238976D01*
X267757Y240058D01*
X267340Y241066D01*
X266676Y241931D01*
X265810Y242596D01*
X264802Y243013D01*
X263721Y243155D01*
D02*
G37*
G36*
X145610D02*
X144528Y243013D01*
X143521Y242596D01*
X142655Y241931D01*
X141991Y241066D01*
X141574Y240058D01*
X141431Y238976D01*
X141574Y237895D01*
X141991Y236887D01*
X142655Y236021D01*
X143521Y235357D01*
X144528Y234940D01*
X145610Y234797D01*
X146692Y234940D01*
X147700Y235357D01*
X148565Y236021D01*
X149229Y236887D01*
X149647Y237895D01*
X149789Y238976D01*
X149647Y240058D01*
X149229Y241066D01*
X148565Y241931D01*
X147700Y242596D01*
X146692Y243013D01*
X145610Y243155D01*
D02*
G37*
G36*
X113386Y231737D02*
X112691Y231599D01*
X112102Y231205D01*
X111708Y230616D01*
X111570Y229921D01*
X111708Y229226D01*
X112102Y228637D01*
X112691Y228243D01*
X113386Y228105D01*
X114081Y228243D01*
X114670Y228637D01*
X115064Y229226D01*
X115202Y229921D01*
X115064Y230616D01*
X114670Y231205D01*
X114081Y231599D01*
X113386Y231737D01*
D02*
G37*
G36*
X247471Y228155D02*
X246389Y228013D01*
X245381Y227595D01*
X244515Y226931D01*
X243851Y226066D01*
X243434Y225058D01*
X243291Y223976D01*
X243434Y222895D01*
X243851Y221887D01*
X244515Y221021D01*
X245381Y220357D01*
X246389Y219940D01*
X247471Y219797D01*
X248552Y219940D01*
X249560Y220357D01*
X250426Y221021D01*
X251090Y221887D01*
X251507Y222895D01*
X251650Y223976D01*
X251507Y225058D01*
X251090Y226066D01*
X250426Y226931D01*
X249560Y227595D01*
X248552Y228013D01*
X247471Y228155D01*
D02*
G37*
G36*
X224971D02*
X223889Y228013D01*
X222881Y227595D01*
X222016Y226931D01*
X221351Y226066D01*
X220934Y225058D01*
X220792Y223976D01*
X220934Y222895D01*
X221351Y221887D01*
X222016Y221021D01*
X222881Y220357D01*
X223889Y219940D01*
X224971Y219797D01*
X226052Y219940D01*
X227060Y220357D01*
X227926Y221021D01*
X228590Y221887D01*
X229007Y222895D01*
X229150Y223976D01*
X229007Y225058D01*
X228590Y226066D01*
X227926Y226931D01*
X227060Y227595D01*
X226052Y228013D01*
X224971Y228155D01*
D02*
G37*
G36*
X129360D02*
X128279Y228013D01*
X127271Y227595D01*
X126405Y226931D01*
X125741Y226066D01*
X125323Y225058D01*
X125181Y223976D01*
X125323Y222895D01*
X125741Y221887D01*
X126405Y221021D01*
X127271Y220357D01*
X128279Y219940D01*
X129360Y219797D01*
X130442Y219940D01*
X131450Y220357D01*
X132315Y221021D01*
X132979Y221887D01*
X133397Y222895D01*
X133539Y223976D01*
X133397Y225058D01*
X132979Y226066D01*
X132315Y226931D01*
X131450Y227595D01*
X130442Y228013D01*
X129360Y228155D01*
D02*
G37*
G36*
X106860D02*
X105779Y228013D01*
X104771Y227595D01*
X103905Y226931D01*
X103241Y226066D01*
X102823Y225058D01*
X102681Y223976D01*
X102823Y222895D01*
X103241Y221887D01*
X103905Y221021D01*
X104771Y220357D01*
X105779Y219940D01*
X106860Y219797D01*
X107942Y219940D01*
X108950Y220357D01*
X109815Y221021D01*
X110479Y221887D01*
X110897Y222895D01*
X111039Y223976D01*
X110897Y225058D01*
X110479Y226066D01*
X109815Y226931D01*
X108950Y227595D01*
X107942Y228013D01*
X106860Y228155D01*
D02*
G37*
G36*
X236221Y225655D02*
X235139Y225513D01*
X234131Y225096D01*
X233265Y224431D01*
X232601Y223566D01*
X232184Y222558D01*
X232042Y221476D01*
X232184Y220395D01*
X232601Y219387D01*
X233265Y218521D01*
X234131Y217857D01*
X235139Y217440D01*
X236221Y217297D01*
X237302Y217440D01*
X238310Y217857D01*
X239176Y218521D01*
X239840Y219387D01*
X240257Y220395D01*
X240400Y221476D01*
X240257Y222558D01*
X239840Y223566D01*
X239176Y224431D01*
X238310Y225096D01*
X237302Y225513D01*
X236221Y225655D01*
D02*
G37*
G36*
X118110D02*
X117028Y225513D01*
X116021Y225096D01*
X115155Y224431D01*
X114491Y223566D01*
X114074Y222558D01*
X113931Y221476D01*
X114074Y220395D01*
X114491Y219387D01*
X115155Y218521D01*
X116021Y217857D01*
X117028Y217440D01*
X118110Y217297D01*
X119192Y217440D01*
X120200Y217857D01*
X121065Y218521D01*
X121729Y219387D01*
X122147Y220395D01*
X122289Y221476D01*
X122147Y222558D01*
X121729Y223566D01*
X121065Y224431D01*
X120200Y225096D01*
X119192Y225513D01*
X118110Y225655D01*
D02*
G37*
G36*
X236221Y213430D02*
X235526Y213291D01*
X234937Y212898D01*
X234543Y212309D01*
X234405Y211614D01*
X234543Y210919D01*
X234937Y210330D01*
X235526Y209936D01*
X236221Y209798D01*
X236916Y209936D01*
X237505Y210330D01*
X237899Y210919D01*
X238037Y211614D01*
X237899Y212309D01*
X237505Y212898D01*
X236916Y213291D01*
X236221Y213430D01*
D02*
G37*
G36*
X154331Y202210D02*
X153636Y202071D01*
X153047Y201678D01*
X152653Y201089D01*
X152515Y200394D01*
X152653Y199699D01*
X153047Y199110D01*
X153636Y198716D01*
X154331Y198578D01*
X155026Y198716D01*
X155615Y199110D01*
X156009Y199699D01*
X156147Y200394D01*
X156009Y201089D01*
X155615Y201678D01*
X155026Y202071D01*
X154331Y202210D01*
D02*
G37*
G36*
X120472D02*
X119777Y202071D01*
X119188Y201678D01*
X118795Y201089D01*
X118656Y200394D01*
X118795Y199699D01*
X119188Y199110D01*
X119777Y198716D01*
X120472Y198578D01*
X121167Y198716D01*
X121756Y199110D01*
X122150Y199699D01*
X122288Y200394D01*
X122150Y201089D01*
X121756Y201678D01*
X121167Y202071D01*
X120472Y202210D01*
D02*
G37*
G36*
X133071Y202210D02*
X132376Y202071D01*
X131787Y201678D01*
X131393Y201089D01*
X131255Y200394D01*
X131393Y199699D01*
X131787Y199110D01*
X132376Y198716D01*
X133071Y198578D01*
X133766Y198716D01*
X134355Y199110D01*
X134749Y199699D01*
X134887Y200394D01*
X134749Y201089D01*
X134355Y201678D01*
X133766Y202071D01*
X133071Y202210D01*
D02*
G37*
G36*
X99606D02*
X98911Y202071D01*
X98322Y201678D01*
X97929Y201089D01*
X97790Y200394D01*
X97929Y199699D01*
X98322Y199110D01*
X98911Y198716D01*
X99606Y198578D01*
X100301Y198716D01*
X100890Y199110D01*
X101284Y199699D01*
X101422Y200394D01*
X101284Y201089D01*
X100890Y201678D01*
X100301Y202071D01*
X99606Y202210D01*
D02*
G37*
G36*
X267470Y205521D02*
X259971D01*
Y198022D01*
X267470D01*
Y205521D01*
D02*
G37*
G36*
X212470D02*
X204971D01*
Y198022D01*
X212470D01*
Y205521D01*
D02*
G37*
G36*
X235039Y199847D02*
X234344Y199709D01*
X233755Y199316D01*
X233362Y198726D01*
X233223Y198031D01*
X233362Y197337D01*
X233755Y196747D01*
X234344Y196354D01*
X235039Y196215D01*
X235734Y196354D01*
X236323Y196747D01*
X236717Y197337D01*
X236855Y198031D01*
X236717Y198726D01*
X236323Y199316D01*
X235734Y199709D01*
X235039Y199847D01*
D02*
G37*
G36*
X153937Y197879D02*
X153242Y197741D01*
X152653Y197347D01*
X152259Y196758D01*
X152121Y196063D01*
X152259Y195368D01*
X152653Y194779D01*
X153242Y194385D01*
X153937Y194247D01*
X154632Y194385D01*
X155221Y194779D01*
X155615Y195368D01*
X155753Y196063D01*
X155615Y196758D01*
X155221Y197347D01*
X154632Y197741D01*
X153937Y197879D01*
D02*
G37*
G36*
X120079D02*
X119384Y197741D01*
X118795Y197347D01*
X118401Y196758D01*
X118263Y196063D01*
X118401Y195368D01*
X118795Y194779D01*
X119384Y194385D01*
X120079Y194247D01*
X120774Y194385D01*
X121363Y194779D01*
X121756Y195368D01*
X121895Y196063D01*
X121756Y196758D01*
X121363Y197347D01*
X120774Y197741D01*
X120079Y197879D01*
D02*
G37*
G36*
X184646Y201422D02*
X183951Y201284D01*
X183362Y200890D01*
X182968Y200301D01*
X182830Y199606D01*
X182968Y198911D01*
X183362Y198322D01*
X183951Y197929D01*
X184131Y197893D01*
Y197383D01*
X183951Y197347D01*
X183362Y196953D01*
X182968Y196364D01*
X182830Y195669D01*
X182968Y194974D01*
X183362Y194385D01*
X183951Y193991D01*
X184646Y193853D01*
X185341Y193991D01*
X185930Y194385D01*
X186323Y194974D01*
X186462Y195669D01*
X186323Y196364D01*
X185930Y196953D01*
X185341Y197347D01*
X185160Y197383D01*
Y197893D01*
X185341Y197929D01*
X185930Y198322D01*
X186323Y198911D01*
X186462Y199606D01*
X186323Y200301D01*
X185930Y200890D01*
X185341Y201284D01*
X184646Y201422D01*
D02*
G37*
G36*
X311811Y195123D02*
X311116Y194985D01*
X310527Y194591D01*
X310133Y194002D01*
X309995Y193307D01*
X310133Y192612D01*
X310527Y192023D01*
X311116Y191629D01*
X311811Y191491D01*
X312506Y191629D01*
X313095Y192023D01*
X313489Y192612D01*
X313627Y193307D01*
X313489Y194002D01*
X313095Y194591D01*
X312506Y194985D01*
X311811Y195123D01*
D02*
G37*
G36*
X282283Y193548D02*
X281589Y193410D01*
X280999Y193016D01*
X280606Y192427D01*
X280468Y191732D01*
X280606Y191037D01*
X280999Y190448D01*
X281589Y190055D01*
X282283Y189916D01*
X282978Y190055D01*
X283568Y190448D01*
X283961Y191037D01*
X284099Y191732D01*
X283961Y192427D01*
X283568Y193016D01*
X282978Y193410D01*
X282283Y193548D01*
D02*
G37*
G36*
X68504Y192367D02*
X67809Y192229D01*
X67220Y191835D01*
X66826Y191246D01*
X66688Y190551D01*
X66826Y189856D01*
X67220Y189267D01*
X67809Y188873D01*
X68504Y188735D01*
X69199Y188873D01*
X69788Y189267D01*
X70182Y189856D01*
X70320Y190551D01*
X70182Y191246D01*
X69788Y191835D01*
X69199Y192229D01*
X68504Y192367D01*
D02*
G37*
G36*
X134646Y188037D02*
X133951Y187898D01*
X133362Y187505D01*
X133321Y187444D01*
X132821D01*
X132780Y187505D01*
X132191Y187898D01*
X131496Y188037D01*
X130801Y187898D01*
X130212Y187505D01*
X129818Y186915D01*
X129680Y186221D01*
X129818Y185526D01*
X130212Y184936D01*
X130801Y184543D01*
X131496Y184405D01*
X132191Y184543D01*
X132780Y184936D01*
X132821Y184997D01*
X133321D01*
X133362Y184936D01*
X133951Y184543D01*
X134646Y184405D01*
X135341Y184543D01*
X135930Y184936D01*
X136323Y185526D01*
X136462Y186221D01*
X136323Y186915D01*
X135930Y187505D01*
X135341Y187898D01*
X134646Y188037D01*
D02*
G37*
G36*
X99606Y188037D02*
X98911Y187898D01*
X98322Y187505D01*
X97929Y186916D01*
X97790Y186221D01*
X97929Y185526D01*
X98322Y184936D01*
X98911Y184543D01*
X99606Y184405D01*
X100301Y184543D01*
X100890Y184936D01*
X101284Y185526D01*
X101422Y186221D01*
X101284Y186916D01*
X100890Y187505D01*
X100301Y187898D01*
X99606Y188037D01*
D02*
G37*
G36*
X323622Y186855D02*
X322927Y186717D01*
X322338Y186323D01*
X321944Y185734D01*
X321806Y185039D01*
X321944Y184344D01*
X322338Y183755D01*
X322927Y183362D01*
X323622Y183223D01*
X324317Y183362D01*
X324906Y183755D01*
X325300Y184344D01*
X325438Y185039D01*
X325300Y185734D01*
X324906Y186323D01*
X324317Y186717D01*
X323622Y186855D01*
D02*
G37*
G36*
X354331Y211274D02*
X352074Y211097D01*
X349873Y210568D01*
X347782Y209702D01*
X345852Y208520D01*
X344131Y207050D01*
X342661Y205329D01*
X341479Y203399D01*
X340613Y201308D01*
X340084Y199107D01*
X339907Y196850D01*
X340084Y194594D01*
X340613Y192393D01*
X341479Y190302D01*
X342661Y188372D01*
X344131Y186651D01*
X345852Y185181D01*
X347782Y183999D01*
X349873Y183132D01*
X352074Y182604D01*
X354331Y182426D01*
X356587Y182604D01*
X358788Y183132D01*
X360879Y183999D01*
X362809Y185181D01*
X364530Y186651D01*
X366000Y188372D01*
X367183Y190302D01*
X368049Y192393D01*
X368577Y194594D01*
X368755Y196850D01*
X368577Y199107D01*
X368049Y201308D01*
X367183Y203399D01*
X366000Y205329D01*
X364530Y207050D01*
X362809Y208520D01*
X360879Y209702D01*
X358788Y210568D01*
X356587Y211097D01*
X354331Y211274D01*
D02*
G37*
G36*
X-0D02*
X-2256Y211097D01*
X-4457Y210568D01*
X-6548Y209702D01*
X-8478Y208520D01*
X-10199Y207050D01*
X-11669Y205329D01*
X-12852Y203399D01*
X-13718Y201308D01*
X-14246Y199107D01*
X-14424Y196850D01*
X-14246Y194594D01*
X-13718Y192393D01*
X-12852Y190302D01*
X-11669Y188372D01*
X-10199Y186651D01*
X-8478Y185181D01*
X-6548Y183999D01*
X-4457Y183132D01*
X-2256Y182604D01*
X-0Y182426D01*
X2256Y182604D01*
X4457Y183132D01*
X6548Y183999D01*
X8478Y185181D01*
X10199Y186651D01*
X11669Y188372D01*
X12852Y190302D01*
X13718Y192393D01*
X14246Y194594D01*
X14424Y196850D01*
X14246Y199107D01*
X13718Y201308D01*
X12852Y203399D01*
X11669Y205329D01*
X10199Y207050D01*
X8478Y208520D01*
X6548Y209702D01*
X4457Y210568D01*
X2256Y211097D01*
X-0Y211274D01*
D02*
G37*
G36*
X17323Y184099D02*
X16628Y183961D01*
X16039Y183568D01*
X15645Y182978D01*
X15507Y182283D01*
X15645Y181588D01*
X16039Y180999D01*
X16628Y180606D01*
X17323Y180467D01*
X18018Y180606D01*
X18607Y180999D01*
X19001Y181588D01*
X19139Y182283D01*
X19001Y182978D01*
X18607Y183568D01*
X18018Y183961D01*
X17323Y184099D01*
D02*
G37*
G36*
X263721Y185869D02*
X262742Y185740D01*
X261830Y185362D01*
X261046Y184761D01*
X260445Y183977D01*
X260068Y183065D01*
X259939Y182087D01*
X260068Y181108D01*
X260445Y180196D01*
X261046Y179412D01*
X261830Y178811D01*
X262742Y178434D01*
X263721Y178305D01*
X264699Y178434D01*
X265612Y178811D01*
X266395Y179412D01*
X266996Y180196D01*
X267374Y181108D01*
X267502Y182087D01*
X267374Y183065D01*
X266996Y183977D01*
X266395Y184761D01*
X265612Y185362D01*
X264699Y185740D01*
X263721Y185869D01*
D02*
G37*
G36*
X208721D02*
X207742Y185740D01*
X206830Y185362D01*
X206046Y184761D01*
X205445Y183977D01*
X205067Y183065D01*
X204939Y182087D01*
X205067Y181108D01*
X205445Y180196D01*
X206046Y179412D01*
X206830Y178811D01*
X207742Y178434D01*
X208721Y178305D01*
X209699Y178434D01*
X210612Y178811D01*
X211395Y179412D01*
X211996Y180196D01*
X212374Y181108D01*
X212503Y182087D01*
X212374Y183065D01*
X211996Y183977D01*
X211395Y184761D01*
X210612Y185362D01*
X209699Y185740D01*
X208721Y185869D01*
D02*
G37*
G36*
X95874Y180851D02*
X95179Y180713D01*
X94590Y180319D01*
X94196Y179730D01*
X94058Y179035D01*
X94196Y178340D01*
X94590Y177751D01*
X95179Y177358D01*
X95874Y177219D01*
X96569Y177358D01*
X97158Y177751D01*
X97552Y178340D01*
X97690Y179035D01*
X97552Y179730D01*
X97158Y180319D01*
X96569Y180713D01*
X95874Y180851D01*
D02*
G37*
G36*
X17323Y179375D02*
X16628Y179237D01*
X16039Y178843D01*
X15645Y178254D01*
X15507Y177559D01*
X15645Y176864D01*
X16039Y176275D01*
X16628Y175881D01*
X17323Y175743D01*
X18018Y175881D01*
X18607Y176275D01*
X19001Y176864D01*
X19139Y177559D01*
X19001Y178254D01*
X18607Y178843D01*
X18018Y179237D01*
X17323Y179375D01*
D02*
G37*
G36*
X134646Y178194D02*
X133951Y178056D01*
X133362Y177662D01*
X132968Y177073D01*
X132830Y176378D01*
X132968Y175683D01*
X133362Y175094D01*
X133951Y174700D01*
X134646Y174562D01*
X135341Y174700D01*
X135930Y175094D01*
X136323Y175683D01*
X136462Y176378D01*
X136323Y177073D01*
X135930Y177662D01*
X135341Y178056D01*
X134646Y178194D01*
D02*
G37*
G36*
X384646Y176225D02*
X383951Y176087D01*
X383362Y175694D01*
X382968Y175104D01*
X382830Y174409D01*
X382968Y173714D01*
X383362Y173125D01*
X383951Y172732D01*
X384646Y172593D01*
X385341Y172732D01*
X385930Y173125D01*
X386323Y173714D01*
X386462Y174409D01*
X386323Y175104D01*
X385930Y175694D01*
X385341Y176087D01*
X384646Y176225D01*
D02*
G37*
G36*
X68504Y175044D02*
X67809Y174906D01*
X67220Y174512D01*
X66826Y173923D01*
X66688Y173228D01*
X66826Y172533D01*
X67220Y171944D01*
X67809Y171551D01*
X68504Y171412D01*
X69199Y171551D01*
X69788Y171944D01*
X70182Y172533D01*
X70320Y173228D01*
X70182Y173923D01*
X69788Y174512D01*
X69199Y174906D01*
X68504Y175044D01*
D02*
G37*
G36*
X-8677Y177390D02*
X-9707Y177254D01*
X-10667Y176857D01*
X-11492Y176224D01*
X-12124Y175400D01*
X-12522Y174440D01*
X-12657Y173410D01*
X-12522Y172379D01*
X-12124Y171419D01*
X-11492Y170595D01*
X-10667Y169962D01*
X-9707Y169565D01*
X-8677Y169429D01*
X-7647Y169565D01*
X-6687Y169962D01*
X-5862Y170595D01*
X-5230Y171419D01*
X-4832Y172379D01*
X-4696Y173410D01*
X-4832Y174440D01*
X-5230Y175400D01*
X-5862Y176224D01*
X-6687Y176857D01*
X-7647Y177254D01*
X-8677Y177390D01*
D02*
G37*
G36*
X159055Y170714D02*
X158360Y170575D01*
X157771Y170182D01*
X157377Y169593D01*
X157239Y168898D01*
X157377Y168203D01*
X157771Y167613D01*
X158360Y167220D01*
X159055Y167082D01*
X159750Y167220D01*
X160339Y167613D01*
X160733Y168203D01*
X160871Y168898D01*
X160733Y169593D01*
X160339Y170182D01*
X159750Y170575D01*
X159055Y170714D01*
D02*
G37*
G36*
X50394Y170329D02*
X49699Y170191D01*
X49110Y169798D01*
X48716Y169208D01*
X48578Y168513D01*
X48716Y167818D01*
X49110Y167229D01*
X49699Y166836D01*
X50394Y166697D01*
X51089Y166836D01*
X51678Y167229D01*
X52071Y167818D01*
X52210Y168513D01*
X52071Y169208D01*
X51678Y169798D01*
X51089Y170191D01*
X50394Y170329D01*
D02*
G37*
G36*
X184252Y174257D02*
X183557Y174119D01*
X182968Y173725D01*
X182574Y173136D01*
X182436Y172441D01*
X182574Y171746D01*
X182968Y171157D01*
X183557Y170763D01*
X183934Y170688D01*
X183950Y170213D01*
X183943Y170177D01*
X183362Y169788D01*
X182968Y169199D01*
X182830Y168504D01*
X182968Y167809D01*
X183362Y167220D01*
X183951Y166826D01*
X184646Y166688D01*
X185341Y166826D01*
X185930Y167220D01*
X186323Y167809D01*
X186462Y168504D01*
X186323Y169199D01*
X185930Y169788D01*
X185341Y170182D01*
X184964Y170257D01*
X184948Y170732D01*
X184955Y170768D01*
X185536Y171157D01*
X185930Y171746D01*
X186068Y172441D01*
X185930Y173136D01*
X185536Y173725D01*
X184947Y174119D01*
X184252Y174257D01*
D02*
G37*
G36*
X363789Y170797D02*
X355896D01*
Y162904D01*
X363789D01*
Y170797D01*
D02*
G37*
G36*
X101406Y166383D02*
X100711Y166245D01*
X100122Y165851D01*
X99729Y165262D01*
X99590Y164567D01*
X99729Y163872D01*
X100122Y163283D01*
X100711Y162889D01*
X101406Y162751D01*
X102101Y162889D01*
X102690Y163283D01*
X103084Y163872D01*
X103222Y164567D01*
X103084Y165262D01*
X102690Y165851D01*
X102101Y166245D01*
X101406Y166383D01*
D02*
G37*
G36*
X190551Y166383D02*
X189856Y166245D01*
X189267Y165851D01*
X188873Y165262D01*
X188735Y164567D01*
X188873Y163872D01*
X189267Y163283D01*
X189856Y162889D01*
X190551Y162751D01*
X191246Y162889D01*
X191835Y163283D01*
X192229Y163872D01*
X192367Y164567D01*
X192229Y165262D01*
X191835Y165851D01*
X191246Y166245D01*
X190551Y166383D01*
D02*
G37*
G36*
X-15748Y170319D02*
X-16778Y170183D01*
X-17738Y169786D01*
X-18563Y169153D01*
X-19195Y168329D01*
X-19593Y167369D01*
X-19728Y166339D01*
X-19593Y165308D01*
X-19195Y164348D01*
X-18563Y163524D01*
X-17738Y162891D01*
X-16778Y162494D01*
X-15748Y162358D01*
X-14718Y162494D01*
X-13758Y162891D01*
X-12933Y163524D01*
X-12301Y164348D01*
X-11903Y165308D01*
X-11767Y166339D01*
X-11903Y167369D01*
X-12301Y168329D01*
X-12933Y169153D01*
X-13758Y169786D01*
X-14718Y170183D01*
X-15748Y170319D01*
D02*
G37*
G36*
X273228Y164414D02*
X272533Y164276D01*
X271944Y163883D01*
X271551Y163293D01*
X271412Y162598D01*
X271551Y161904D01*
X271944Y161314D01*
X272533Y160921D01*
X273228Y160782D01*
X273923Y160921D01*
X274512Y161314D01*
X274906Y161904D01*
X275044Y162598D01*
X274906Y163293D01*
X274512Y163883D01*
X273923Y164276D01*
X273228Y164414D01*
D02*
G37*
G36*
X200787D02*
X200093Y164276D01*
X199503Y163883D01*
X199110Y163293D01*
X198971Y162598D01*
X199110Y161904D01*
X199503Y161314D01*
X200093Y160921D01*
X200787Y160782D01*
X201482Y160921D01*
X202071Y161314D01*
X202465Y161904D01*
X202603Y162598D01*
X202465Y163293D01*
X202071Y163883D01*
X201482Y164276D01*
X200787Y164414D01*
D02*
G37*
G36*
X163386Y162633D02*
X162691Y162495D01*
X162102Y162101D01*
X161708Y161512D01*
X161570Y160817D01*
X161708Y160122D01*
X162102Y159533D01*
X162691Y159140D01*
X163386Y159001D01*
X164081Y159140D01*
X164670Y159533D01*
X165064Y160122D01*
X165202Y160817D01*
X165064Y161512D01*
X164670Y162101D01*
X164081Y162495D01*
X163386Y162633D01*
D02*
G37*
G36*
X127165Y162052D02*
X126470Y161914D01*
X125881Y161520D01*
X125488Y160931D01*
X125349Y160236D01*
X125488Y159541D01*
X125881Y158952D01*
X126470Y158558D01*
X127165Y158420D01*
X127860Y158558D01*
X128449Y158952D01*
X128843Y159541D01*
X128981Y160236D01*
X128843Y160931D01*
X128449Y161520D01*
X127860Y161914D01*
X127165Y162052D01*
D02*
G37*
G36*
X150000Y160871D02*
X149305Y160733D01*
X148716Y160339D01*
X148322Y159750D01*
X148184Y159055D01*
X148322Y158360D01*
X148716Y157771D01*
X149305Y157377D01*
X150000Y157239D01*
X150695Y157377D01*
X151284Y157771D01*
X151678Y158360D01*
X151816Y159055D01*
X151678Y159750D01*
X151284Y160339D01*
X150695Y160733D01*
X150000Y160871D01*
D02*
G37*
G36*
X212992Y160477D02*
X212297Y160339D01*
X211708Y159945D01*
X211314Y159356D01*
X211176Y158661D01*
X211314Y157966D01*
X211708Y157377D01*
X212297Y156984D01*
X212992Y156845D01*
X213687Y156984D01*
X214276Y157377D01*
X214670Y157966D01*
X214808Y158661D01*
X214670Y159356D01*
X214276Y159945D01*
X213687Y160339D01*
X212992Y160477D01*
D02*
G37*
G36*
X203150Y160084D02*
X202455Y159945D01*
X201866Y159552D01*
X201472Y158963D01*
X201334Y158268D01*
X201472Y157573D01*
X201866Y156984D01*
X202455Y156590D01*
X203150Y156452D01*
X203845Y156590D01*
X204434Y156984D01*
X204827Y157573D01*
X204966Y158268D01*
X204827Y158963D01*
X204434Y159552D01*
X203845Y159945D01*
X203150Y160084D01*
D02*
G37*
G36*
X175197Y159690D02*
X174502Y159552D01*
X173913Y159158D01*
X173519Y158569D01*
X173381Y157874D01*
X173519Y157179D01*
X173913Y156590D01*
X174502Y156196D01*
X175197Y156058D01*
X175892Y156196D01*
X176481Y156590D01*
X176875Y157179D01*
X177013Y157874D01*
X176875Y158569D01*
X176481Y159158D01*
X175892Y159552D01*
X175197Y159690D01*
D02*
G37*
G36*
X140157Y158903D02*
X139462Y158764D01*
X138873Y158371D01*
X138480Y157782D01*
X138341Y157087D01*
X138480Y156392D01*
X138873Y155803D01*
X139462Y155409D01*
X140157Y155271D01*
X140852Y155409D01*
X141442Y155803D01*
X141835Y156392D01*
X141973Y157087D01*
X141835Y157782D01*
X141442Y158371D01*
X140852Y158764D01*
X140157Y158903D01*
D02*
G37*
G36*
X21260D02*
X20565Y158764D01*
X19976Y158371D01*
X19582Y157782D01*
X19444Y157087D01*
X19582Y156392D01*
X19976Y155803D01*
X20565Y155409D01*
X21260Y155271D01*
X21955Y155409D01*
X22544Y155803D01*
X22938Y156392D01*
X23076Y157087D01*
X22938Y157782D01*
X22544Y158371D01*
X21955Y158764D01*
X21260Y158903D01*
D02*
G37*
G36*
X-22819Y164849D02*
X-28400Y159267D01*
X-22819Y153686D01*
X-17238Y159267D01*
X-22819Y164849D01*
D02*
G37*
G36*
X161417Y154572D02*
X160722Y154434D01*
X160133Y154040D01*
X159740Y153451D01*
X159601Y152756D01*
X159740Y152061D01*
X160133Y151472D01*
X160722Y151078D01*
X161417Y150940D01*
X162112Y151078D01*
X162701Y151472D01*
X163095Y152061D01*
X163233Y152756D01*
X163095Y153451D01*
X162701Y154040D01*
X162112Y154434D01*
X161417Y154572D01*
D02*
G37*
G36*
X153150D02*
X152455Y154434D01*
X151865Y154040D01*
X151472Y153451D01*
X151334Y152756D01*
X151472Y152061D01*
X151865Y151472D01*
X152455Y151078D01*
X153150Y150940D01*
X153845Y151078D01*
X154434Y151472D01*
X154827Y152061D01*
X154966Y152756D01*
X154827Y153451D01*
X154434Y154040D01*
X153845Y154434D01*
X153150Y154572D01*
D02*
G37*
G36*
X181103Y154080D02*
X180408Y153942D01*
X179818Y153548D01*
X179425Y152959D01*
X179287Y152264D01*
X179425Y151569D01*
X179818Y150980D01*
X180408Y150586D01*
X181103Y150448D01*
X181797Y150586D01*
X182387Y150980D01*
X182780Y151569D01*
X182919Y152264D01*
X182780Y152959D01*
X182387Y153548D01*
X181797Y153942D01*
X181103Y154080D01*
D02*
G37*
G36*
X-7087Y152013D02*
X-7782Y151875D01*
X-8371Y151481D01*
X-8764Y150892D01*
X-8903Y150197D01*
X-8764Y149502D01*
X-8371Y148913D01*
X-7782Y148519D01*
X-7087Y148381D01*
X-6392Y148519D01*
X-5802Y148913D01*
X-5409Y149502D01*
X-5271Y150197D01*
X-5409Y150892D01*
X-5802Y151481D01*
X-6392Y151875D01*
X-7087Y152013D01*
D02*
G37*
G36*
X224514Y151920D02*
X223819Y151782D01*
X223230Y151389D01*
X222836Y150800D01*
X222698Y150104D01*
X222836Y149410D01*
X223230Y148820D01*
X223819Y148427D01*
X224514Y148289D01*
X225209Y148427D01*
X225798Y148820D01*
X226192Y149410D01*
X226330Y150104D01*
X226192Y150800D01*
X225798Y151389D01*
X225209Y151782D01*
X224514Y151920D01*
D02*
G37*
G36*
X8268Y150635D02*
X7573Y150497D01*
X6984Y150103D01*
X6590Y149514D01*
X6452Y148819D01*
X6590Y148124D01*
X6984Y147535D01*
X7573Y147141D01*
X8268Y147003D01*
X8963Y147141D01*
X9552Y147535D01*
X9945Y148124D01*
X10084Y148819D01*
X9945Y149514D01*
X9552Y150103D01*
X8963Y150497D01*
X8268Y150635D01*
D02*
G37*
G36*
X75590Y148273D02*
X74896Y148134D01*
X74306Y147741D01*
X73913Y147152D01*
X73775Y146457D01*
X73913Y145762D01*
X74306Y145173D01*
X74896Y144779D01*
X75590Y144641D01*
X76285Y144779D01*
X76875Y145173D01*
X77268Y145762D01*
X77407Y146457D01*
X77268Y147152D01*
X76875Y147741D01*
X76285Y148134D01*
X75590Y148273D01*
D02*
G37*
G36*
X40157D02*
X39463Y148134D01*
X38873Y147741D01*
X38480Y147152D01*
X38342Y146457D01*
X38480Y145762D01*
X38873Y145173D01*
X39463Y144779D01*
X40157Y144641D01*
X40852Y144779D01*
X41442Y145173D01*
X41835Y145762D01*
X41974Y146457D01*
X41835Y147152D01*
X41442Y147741D01*
X40852Y148134D01*
X40157Y148273D01*
D02*
G37*
G36*
X-8750Y146501D02*
X-9445Y146363D01*
X-10034Y145969D01*
X-10428Y145380D01*
X-10566Y144685D01*
X-10428Y143990D01*
X-10034Y143401D01*
X-9445Y143007D01*
X-8750Y142869D01*
X-8055Y143007D01*
X-7466Y143401D01*
X-7073Y143990D01*
X-6934Y144685D01*
X-7073Y145380D01*
X-7466Y145969D01*
X-8055Y146363D01*
X-8750Y146501D01*
D02*
G37*
G36*
X219291Y142367D02*
X218596Y142229D01*
X218007Y141835D01*
X217614Y141246D01*
X217475Y140551D01*
X217614Y139856D01*
X218007Y139267D01*
X218596Y138873D01*
X219291Y138735D01*
X219986Y138873D01*
X220575Y139267D01*
X220969Y139856D01*
X221107Y140551D01*
X220969Y141246D01*
X220575Y141835D01*
X219986Y142229D01*
X219291Y142367D01*
D02*
G37*
G36*
X254331Y141973D02*
X253636Y141835D01*
X253047Y141442D01*
X252653Y140852D01*
X252515Y140157D01*
X252653Y139462D01*
X253047Y138873D01*
X253636Y138480D01*
X254331Y138341D01*
X255026Y138480D01*
X255615Y138873D01*
X256009Y139462D01*
X256147Y140157D01*
X256009Y140852D01*
X255615Y141442D01*
X255026Y141835D01*
X254331Y141973D01*
D02*
G37*
G36*
X126772Y137643D02*
X126077Y137504D01*
X125488Y137111D01*
X125094Y136522D01*
X124956Y135827D01*
X125094Y135132D01*
X125488Y134543D01*
X126077Y134149D01*
X126772Y134011D01*
X127467Y134149D01*
X128056Y134543D01*
X128449Y135132D01*
X128588Y135827D01*
X128449Y136522D01*
X128056Y137111D01*
X127467Y137504D01*
X126772Y137643D01*
D02*
G37*
G36*
X-19685Y136462D02*
X-20380Y136323D01*
X-20969Y135930D01*
X-21363Y135341D01*
X-21501Y134646D01*
X-21363Y133951D01*
X-20969Y133362D01*
X-20380Y132968D01*
X-19685Y132830D01*
X-18990Y132968D01*
X-18401Y133362D01*
X-18007Y133951D01*
X-17869Y134646D01*
X-18007Y135341D01*
X-18401Y135930D01*
X-18990Y136323D01*
X-19685Y136462D01*
D02*
G37*
G36*
X150000Y134887D02*
X149305Y134749D01*
X148716Y134355D01*
X148322Y133766D01*
X148184Y133071D01*
X148322Y132376D01*
X148716Y131787D01*
X149305Y131393D01*
X150000Y131255D01*
X150695Y131393D01*
X151284Y131787D01*
X151678Y132376D01*
X151816Y133071D01*
X151678Y133766D01*
X151284Y134355D01*
X150695Y134749D01*
X150000Y134887D01*
D02*
G37*
G36*
X215748Y134493D02*
X215053Y134355D01*
X214464Y133961D01*
X214070Y133372D01*
X213932Y132677D01*
X214070Y131982D01*
X214464Y131393D01*
X215053Y130999D01*
X215748Y130861D01*
X216443Y130999D01*
X217032Y131393D01*
X217426Y131982D01*
X217564Y132677D01*
X217426Y133372D01*
X217032Y133961D01*
X216443Y134355D01*
X215748Y134493D01*
D02*
G37*
G36*
X137008Y132918D02*
X136313Y132780D01*
X135724Y132387D01*
X135330Y131797D01*
X135192Y131102D01*
X135330Y130407D01*
X135724Y129818D01*
X136313Y129425D01*
X137008Y129286D01*
X137703Y129425D01*
X138292Y129818D01*
X138686Y130407D01*
X138824Y131102D01*
X138686Y131797D01*
X138292Y132387D01*
X137703Y132780D01*
X137008Y132918D01*
D02*
G37*
G36*
X254331Y131904D02*
X253636Y131766D01*
X253047Y131372D01*
X252653Y130783D01*
X252515Y130088D01*
X252653Y129393D01*
X253047Y128804D01*
X253636Y128410D01*
X254331Y128272D01*
X255026Y128410D01*
X255615Y128804D01*
X256009Y129393D01*
X256147Y130088D01*
X256009Y130783D01*
X255615Y131372D01*
X255026Y131766D01*
X254331Y131904D01*
D02*
G37*
G36*
X180512Y131737D02*
X179817Y131599D01*
X179228Y131205D01*
X178834Y130616D01*
X178696Y129921D01*
X178834Y129226D01*
X179228Y128637D01*
X179817Y128244D01*
X180512Y128105D01*
X181207Y128244D01*
X181796Y128637D01*
X182190Y129226D01*
X182328Y129921D01*
X182190Y130616D01*
X181796Y131205D01*
X181207Y131599D01*
X180512Y131737D01*
D02*
G37*
G36*
X64567Y130950D02*
X63872Y130812D01*
X63283Y130418D01*
X62889Y129829D01*
X62751Y129134D01*
X62889Y128439D01*
X63283Y127850D01*
X63872Y127456D01*
X64567Y127318D01*
X65262Y127456D01*
X65851Y127850D01*
X66245Y128439D01*
X66383Y129134D01*
X66245Y129829D01*
X65851Y130418D01*
X65262Y130812D01*
X64567Y130950D01*
D02*
G37*
G36*
X152756Y130556D02*
X152061Y130418D01*
X151472Y130024D01*
X151078Y129435D01*
X150940Y128740D01*
X151078Y128045D01*
X151472Y127456D01*
X152061Y127062D01*
X152756Y126924D01*
X153451Y127062D01*
X154040Y127456D01*
X154434Y128045D01*
X154572Y128740D01*
X154434Y129435D01*
X154040Y130024D01*
X153451Y130418D01*
X152756Y130556D01*
D02*
G37*
G36*
X68898D02*
X68203Y130418D01*
X67614Y130024D01*
X67220Y129435D01*
X67082Y128740D01*
X67220Y128045D01*
X67614Y127456D01*
X68203Y127062D01*
X68898Y126924D01*
X69593Y127062D01*
X70182Y127456D01*
X70575Y128045D01*
X70714Y128740D01*
X70575Y129435D01*
X70182Y130024D01*
X69593Y130418D01*
X68898Y130556D01*
D02*
G37*
G36*
X157480Y126225D02*
X156785Y126087D01*
X156196Y125694D01*
X155803Y125104D01*
X155664Y124409D01*
X155803Y123714D01*
X156196Y123125D01*
X156785Y122732D01*
X157480Y122593D01*
X158175Y122732D01*
X158765Y123125D01*
X159158Y123714D01*
X159296Y124409D01*
X159158Y125104D01*
X158765Y125694D01*
X158175Y126087D01*
X157480Y126225D01*
D02*
G37*
G36*
X72441Y125832D02*
X71746Y125694D01*
X71157Y125300D01*
X70763Y124711D01*
X70625Y124016D01*
X70763Y123321D01*
X71157Y122732D01*
X71746Y122338D01*
X72441Y122200D01*
X73136Y122338D01*
X73725Y122732D01*
X74119Y123321D01*
X74257Y124016D01*
X74119Y124711D01*
X73725Y125300D01*
X73136Y125694D01*
X72441Y125832D01*
D02*
G37*
G36*
X54331Y125438D02*
X53636Y125300D01*
X53047Y124906D01*
X52653Y124317D01*
X52515Y123622D01*
X52653Y122927D01*
X53047Y122338D01*
X53636Y121944D01*
X54331Y121806D01*
X55026Y121944D01*
X55615Y122338D01*
X56008Y122927D01*
X56147Y123622D01*
X56008Y124317D01*
X55615Y124906D01*
X55026Y125300D01*
X54331Y125438D01*
D02*
G37*
G36*
X185039Y123076D02*
X184344Y122938D01*
X183755Y122544D01*
X183362Y121955D01*
X183223Y121260D01*
X183362Y120565D01*
X183755Y119976D01*
X184344Y119582D01*
X185039Y119444D01*
X185734Y119582D01*
X186323Y119976D01*
X186717Y120565D01*
X186855Y121260D01*
X186717Y121955D01*
X186323Y122544D01*
X185734Y122938D01*
X185039Y123076D01*
D02*
G37*
G36*
X196063Y121895D02*
X195368Y121756D01*
X194779Y121363D01*
X194385Y120774D01*
X194247Y120079D01*
X194385Y119384D01*
X194779Y118795D01*
X195368Y118401D01*
X196063Y118263D01*
X196758Y118401D01*
X197347Y118795D01*
X197741Y119384D01*
X197879Y120079D01*
X197741Y120774D01*
X197347Y121363D01*
X196758Y121756D01*
X196063Y121895D01*
D02*
G37*
G36*
X-12598Y121501D02*
X-13293Y121363D01*
X-13882Y120969D01*
X-14276Y120380D01*
X-14414Y119685D01*
X-14276Y118990D01*
X-13882Y118401D01*
X-13293Y118007D01*
X-12598Y117869D01*
X-11903Y118007D01*
X-11314Y118401D01*
X-10921Y118990D01*
X-10782Y119685D01*
X-10921Y120380D01*
X-11314Y120969D01*
X-11903Y121363D01*
X-12598Y121501D01*
D02*
G37*
G36*
X253937Y121107D02*
X253242Y120969D01*
X252653Y120575D01*
X252259Y119986D01*
X252121Y119291D01*
X252259Y118596D01*
X252653Y118007D01*
X253242Y117614D01*
X253937Y117475D01*
X254632Y117614D01*
X255221Y118007D01*
X255615Y118596D01*
X255753Y119291D01*
X255615Y119986D01*
X255221Y120575D01*
X254632Y120969D01*
X253937Y121107D01*
D02*
G37*
G36*
X218898D02*
X218203Y120969D01*
X217614Y120575D01*
X217220Y119986D01*
X217082Y119291D01*
X217220Y118596D01*
X217614Y118007D01*
X218203Y117614D01*
X218898Y117475D01*
X219593Y117614D01*
X220182Y118007D01*
X220575Y118596D01*
X220714Y119291D01*
X220575Y119986D01*
X220182Y120575D01*
X219593Y120969D01*
X218898Y121107D01*
D02*
G37*
G36*
X72047Y120320D02*
X71352Y120182D01*
X70763Y119788D01*
X70369Y119199D01*
X70231Y118504D01*
X70369Y117809D01*
X70763Y117220D01*
X71352Y116826D01*
X72047Y116688D01*
X72742Y116826D01*
X73331Y117220D01*
X73725Y117809D01*
X73863Y118504D01*
X73725Y119199D01*
X73331Y119788D01*
X72742Y120182D01*
X72047Y120320D01*
D02*
G37*
G36*
X157677Y119926D02*
X156982Y119788D01*
X156393Y119394D01*
X155999Y118805D01*
X155861Y118110D01*
X155999Y117415D01*
X156393Y116826D01*
X156982Y116432D01*
X157677Y116294D01*
X158372Y116432D01*
X158961Y116826D01*
X159355Y117415D01*
X159493Y118110D01*
X159355Y118805D01*
X158961Y119394D01*
X158372Y119788D01*
X157677Y119926D01*
D02*
G37*
G36*
X95276Y118351D02*
X94581Y118213D01*
X93992Y117819D01*
X93598Y117230D01*
X93460Y116535D01*
X93598Y115840D01*
X93992Y115251D01*
X94581Y114858D01*
X95276Y114719D01*
X95970Y114858D01*
X96560Y115251D01*
X96953Y115840D01*
X97092Y116535D01*
X96953Y117230D01*
X96560Y117819D01*
X95970Y118213D01*
X95276Y118351D01*
D02*
G37*
G36*
X129921Y116974D02*
X129226Y116835D01*
X128637Y116442D01*
X128244Y115852D01*
X128105Y115158D01*
X128244Y114463D01*
X128637Y113874D01*
X129226Y113480D01*
X129921Y113342D01*
X130616Y113480D01*
X131205Y113874D01*
X131599Y114463D01*
X131737Y115158D01*
X131599Y115852D01*
X131205Y116442D01*
X130616Y116835D01*
X129921Y116974D01*
D02*
G37*
G36*
X-16535Y116777D02*
X-17230Y116638D01*
X-17819Y116245D01*
X-18213Y115656D01*
X-18351Y114961D01*
X-18213Y114266D01*
X-17819Y113677D01*
X-17230Y113283D01*
X-16535Y113145D01*
X-15841Y113283D01*
X-15251Y113677D01*
X-14858Y114266D01*
X-14719Y114961D01*
X-14858Y115656D01*
X-15251Y116245D01*
X-15841Y116638D01*
X-16535Y116777D01*
D02*
G37*
G36*
X134843Y115989D02*
X134148Y115851D01*
X133558Y115457D01*
X133165Y114868D01*
X133027Y114173D01*
X133165Y113478D01*
X133558Y112889D01*
X134148Y112495D01*
X134843Y112357D01*
X135538Y112495D01*
X136127Y112889D01*
X136520Y113478D01*
X136659Y114173D01*
X136520Y114868D01*
X136127Y115457D01*
X135538Y115851D01*
X134843Y115989D01*
D02*
G37*
G36*
X163779Y119533D02*
X163085Y119394D01*
X162495Y119001D01*
X162102Y118412D01*
X161963Y117717D01*
X162102Y117022D01*
X162495Y116432D01*
X163031Y116074D01*
X163010Y115814D01*
X162934Y115584D01*
X162297Y115457D01*
X161708Y115064D01*
X161314Y114474D01*
X161176Y113779D01*
X161314Y113085D01*
X161708Y112495D01*
X162297Y112102D01*
X162992Y111963D01*
X163687Y112102D01*
X164276Y112495D01*
X164670Y113085D01*
X164808Y113779D01*
X164670Y114474D01*
X164276Y115064D01*
X163740Y115422D01*
X163762Y115682D01*
X163838Y115912D01*
X164474Y116039D01*
X165064Y116432D01*
X165457Y117022D01*
X165595Y117717D01*
X165457Y118412D01*
X165064Y119001D01*
X164474Y119394D01*
X163779Y119533D01*
D02*
G37*
G36*
X72047Y115595D02*
X71352Y115457D01*
X70763Y115064D01*
X70369Y114474D01*
X70231Y113779D01*
X70369Y113085D01*
X70763Y112495D01*
X71352Y112102D01*
X72047Y111963D01*
X72742Y112102D01*
X73331Y112495D01*
X73725Y113085D01*
X73863Y113779D01*
X73725Y114474D01*
X73331Y115064D01*
X72742Y115457D01*
X72047Y115595D01*
D02*
G37*
G36*
X90158Y115202D02*
X89463Y115064D01*
X88873Y114670D01*
X88480Y114081D01*
X88341Y113386D01*
X88480Y112691D01*
X88873Y112102D01*
X89463Y111708D01*
X90158Y111570D01*
X90852Y111708D01*
X91442Y112102D01*
X91835Y112691D01*
X91974Y113386D01*
X91835Y114081D01*
X91442Y114670D01*
X90852Y115064D01*
X90158Y115202D01*
D02*
G37*
G36*
X54331Y108509D02*
X53636Y108371D01*
X53047Y107977D01*
X52653Y107388D01*
X52515Y106693D01*
X52653Y105998D01*
X53047Y105409D01*
X53636Y105015D01*
X54331Y104877D01*
X55026Y105015D01*
X55615Y105409D01*
X56008Y105998D01*
X56147Y106693D01*
X56008Y107388D01*
X55615Y107977D01*
X55026Y108371D01*
X54331Y108509D01*
D02*
G37*
G36*
X96850Y107328D02*
X96155Y107190D01*
X95566Y106796D01*
X95173Y106207D01*
X95034Y105512D01*
X95173Y104817D01*
X95566Y104228D01*
X96155Y103834D01*
X96850Y103696D01*
X97545Y103834D01*
X98134Y104228D01*
X98528Y104817D01*
X98666Y105512D01*
X98528Y106207D01*
X98134Y106796D01*
X97545Y107190D01*
X96850Y107328D01*
D02*
G37*
G36*
X67716D02*
X67022Y107190D01*
X66432Y106796D01*
X66039Y106207D01*
X65900Y105512D01*
X66039Y104817D01*
X66432Y104228D01*
X67022Y103834D01*
X67716Y103696D01*
X68411Y103834D01*
X69001Y104228D01*
X69394Y104817D01*
X69533Y105512D01*
X69394Y106207D01*
X69001Y106796D01*
X68411Y107190D01*
X67716Y107328D01*
D02*
G37*
G36*
X100787Y102997D02*
X100092Y102859D01*
X99503Y102465D01*
X99110Y101876D01*
X98971Y101181D01*
X99110Y100486D01*
X99503Y99897D01*
X100092Y99503D01*
X100787Y99365D01*
X101482Y99503D01*
X102071Y99897D01*
X102465Y100486D01*
X102603Y101181D01*
X102465Y101876D01*
X102071Y102465D01*
X101482Y102859D01*
X100787Y102997D01*
D02*
G37*
G36*
X64961D02*
X64266Y102859D01*
X63677Y102465D01*
X63283Y101876D01*
X63145Y101181D01*
X63283Y100486D01*
X63677Y99897D01*
X64266Y99503D01*
X64961Y99365D01*
X65656Y99503D01*
X66245Y99897D01*
X66638Y100486D01*
X66777Y101181D01*
X66638Y101876D01*
X66245Y102465D01*
X65656Y102859D01*
X64961Y102997D01*
D02*
G37*
G36*
X-28346Y101029D02*
X-29041Y100890D01*
X-29631Y100497D01*
X-30024Y99908D01*
X-30163Y99213D01*
X-30024Y98518D01*
X-29631Y97929D01*
X-29041Y97535D01*
X-28346Y97397D01*
X-27652Y97535D01*
X-27062Y97929D01*
X-26669Y98518D01*
X-26531Y99213D01*
X-26669Y99908D01*
X-27062Y100497D01*
X-27652Y100890D01*
X-28346Y101029D01*
D02*
G37*
G36*
X244488Y100241D02*
X243793Y100103D01*
X243204Y99709D01*
X242810Y99120D01*
X242672Y98425D01*
X242810Y97730D01*
X243204Y97141D01*
X243793Y96747D01*
X244488Y96609D01*
X245183Y96747D01*
X245772Y97141D01*
X246166Y97730D01*
X246304Y98425D01*
X246166Y99120D01*
X245772Y99709D01*
X245183Y100103D01*
X244488Y100241D01*
D02*
G37*
G36*
X245669Y95911D02*
X244974Y95772D01*
X244385Y95379D01*
X243991Y94789D01*
X243853Y94095D01*
X243991Y93400D01*
X244385Y92810D01*
X244974Y92417D01*
X245669Y92278D01*
X246364Y92417D01*
X246953Y92810D01*
X247347Y93400D01*
X247485Y94095D01*
X247347Y94789D01*
X246953Y95379D01*
X246364Y95772D01*
X245669Y95911D01*
D02*
G37*
G36*
X68504Y95329D02*
X67809Y95191D01*
X67220Y94797D01*
X66826Y94208D01*
X66688Y93513D01*
X66826Y92818D01*
X67220Y92229D01*
X67809Y91836D01*
X68504Y91697D01*
X69199Y91836D01*
X69788Y92229D01*
X70182Y92818D01*
X70320Y93513D01*
X70182Y94208D01*
X69788Y94797D01*
X69199Y95191D01*
X68504Y95329D01*
D02*
G37*
G36*
X258661Y92761D02*
X257966Y92623D01*
X257377Y92229D01*
X256984Y91640D01*
X256845Y90945D01*
X256984Y90250D01*
X257377Y89661D01*
X257966Y89267D01*
X258661Y89129D01*
X259356Y89267D01*
X259946Y89661D01*
X260339Y90250D01*
X260477Y90945D01*
X260339Y91640D01*
X259946Y92229D01*
X259356Y92623D01*
X258661Y92761D01*
D02*
G37*
G36*
X57874Y89799D02*
X57179Y89660D01*
X56590Y89267D01*
X56196Y88678D01*
X56058Y87983D01*
X56196Y87288D01*
X56590Y86699D01*
X57179Y86305D01*
X57874Y86167D01*
X58569Y86305D01*
X59158Y86699D01*
X59552Y87288D01*
X59690Y87983D01*
X59552Y88678D01*
X59158Y89267D01*
X58569Y89660D01*
X57874Y89799D01*
D02*
G37*
G36*
X-28346Y88824D02*
X-29041Y88686D01*
X-29631Y88292D01*
X-30024Y87703D01*
X-30163Y87008D01*
X-30024Y86313D01*
X-29631Y85724D01*
X-29041Y85330D01*
X-28346Y85192D01*
X-27652Y85330D01*
X-27062Y85724D01*
X-26669Y86313D01*
X-26531Y87008D01*
X-26669Y87703D01*
X-27062Y88292D01*
X-27652Y88686D01*
X-28346Y88824D01*
D02*
G37*
G36*
X95669Y87643D02*
X94974Y87505D01*
X94385Y87111D01*
X93992Y86522D01*
X93853Y85827D01*
X93992Y85132D01*
X94385Y84543D01*
X94974Y84149D01*
X95669Y84011D01*
X96364Y84149D01*
X96953Y84543D01*
X97347Y85132D01*
X97485Y85827D01*
X97347Y86522D01*
X96953Y87111D01*
X96364Y87505D01*
X95669Y87643D01*
D02*
G37*
G36*
X68013Y87909D02*
X67318Y87771D01*
X66729Y87378D01*
X66335Y86788D01*
X66197Y86093D01*
X66335Y85399D01*
X66051Y84924D01*
X65615Y84633D01*
X65221Y84044D01*
X65083Y83349D01*
X65221Y82654D01*
X65615Y82065D01*
X66204Y81671D01*
X66899Y81533D01*
X67594Y81671D01*
X68183Y82065D01*
X68577Y82654D01*
X68715Y83349D01*
X68577Y84044D01*
X68861Y84518D01*
X69297Y84809D01*
X69691Y85399D01*
X69829Y86093D01*
X69691Y86788D01*
X69297Y87378D01*
X68708Y87771D01*
X68013Y87909D01*
D02*
G37*
G36*
X71260Y84493D02*
X70565Y84355D01*
X69976Y83961D01*
X69582Y83372D01*
X69444Y82677D01*
X69582Y81982D01*
X69976Y81393D01*
X70565Y80999D01*
X71260Y80861D01*
X71955Y80999D01*
X72544Y81393D01*
X72938Y81982D01*
X73076Y82677D01*
X72938Y83372D01*
X72544Y83961D01*
X71955Y84355D01*
X71260Y84493D01*
D02*
G37*
G36*
X90158Y83312D02*
X89463Y83174D01*
X88873Y82780D01*
X88480Y82191D01*
X88341Y81496D01*
X88480Y80801D01*
X88873Y80212D01*
X89463Y79818D01*
X90158Y79680D01*
X90852Y79818D01*
X91442Y80212D01*
X91835Y80801D01*
X91974Y81496D01*
X91835Y82191D01*
X91442Y82780D01*
X90852Y83174D01*
X90158Y83312D01*
D02*
G37*
G36*
X-29921Y82525D02*
X-30616Y82386D01*
X-31205Y81993D01*
X-31599Y81404D01*
X-31737Y80709D01*
X-31599Y80014D01*
X-31205Y79425D01*
X-30616Y79031D01*
X-29921Y78893D01*
X-29226Y79031D01*
X-28637Y79425D01*
X-28243Y80014D01*
X-28105Y80709D01*
X-28243Y81404D01*
X-28637Y81993D01*
X-29226Y82386D01*
X-29921Y82525D01*
D02*
G37*
G36*
X62598Y80556D02*
X61904Y80418D01*
X61314Y80024D01*
X60921Y79435D01*
X60782Y78740D01*
X60921Y78045D01*
X61314Y77456D01*
X61904Y77062D01*
X62598Y76924D01*
X63293Y77062D01*
X63882Y77456D01*
X64276Y78045D01*
X64414Y78740D01*
X64276Y79435D01*
X63882Y80024D01*
X63293Y80418D01*
X62598Y80556D01*
D02*
G37*
G36*
X-29528Y77407D02*
X-30222Y77268D01*
X-30812Y76875D01*
X-31205Y76285D01*
X-31343Y75590D01*
X-31205Y74896D01*
X-30812Y74306D01*
X-30222Y73913D01*
X-29528Y73775D01*
X-28833Y73913D01*
X-28243Y74306D01*
X-27850Y74896D01*
X-27712Y75590D01*
X-27850Y76285D01*
X-28243Y76875D01*
X-28833Y77268D01*
X-29528Y77407D01*
D02*
G37*
G36*
X-15354Y74651D02*
X-16049Y74512D01*
X-16638Y74119D01*
X-17032Y73530D01*
X-17170Y72835D01*
X-17032Y72140D01*
X-16638Y71551D01*
X-16049Y71157D01*
X-15354Y71019D01*
X-14659Y71157D01*
X-14070Y71551D01*
X-13677Y72140D01*
X-13538Y72835D01*
X-13677Y73530D01*
X-14070Y74119D01*
X-14659Y74512D01*
X-15354Y74651D01*
D02*
G37*
G36*
X72441Y69533D02*
X71746Y69394D01*
X71157Y69001D01*
X70763Y68411D01*
X70625Y67716D01*
X70763Y67022D01*
X71157Y66432D01*
X71746Y66039D01*
X72441Y65900D01*
X73136Y66039D01*
X73725Y66432D01*
X74119Y67022D01*
X74257Y67716D01*
X74119Y68411D01*
X73725Y69001D01*
X73136Y69394D01*
X72441Y69533D01*
D02*
G37*
G36*
X10236Y62446D02*
X9541Y62308D01*
X8952Y61914D01*
X8558Y61325D01*
X8420Y60630D01*
X8558Y59935D01*
X8952Y59346D01*
X9541Y58952D01*
X10236Y58814D01*
X10931Y58952D01*
X11520Y59346D01*
X11914Y59935D01*
X12052Y60630D01*
X11914Y61325D01*
X11520Y61914D01*
X10931Y62308D01*
X10236Y62446D01*
D02*
G37*
G36*
X24016Y61659D02*
X23321Y61520D01*
X22732Y61127D01*
X22338Y60537D01*
X22200Y59842D01*
X22338Y59148D01*
X22732Y58558D01*
X23321Y58165D01*
X24016Y58026D01*
X24711Y58165D01*
X25300Y58558D01*
X25694Y59148D01*
X25832Y59842D01*
X25694Y60537D01*
X25300Y61127D01*
X24711Y61520D01*
X24016Y61659D01*
D02*
G37*
G36*
X-9449Y60477D02*
X-10144Y60339D01*
X-10733Y59945D01*
X-11127Y59356D01*
X-11265Y58661D01*
X-11127Y57967D01*
X-10733Y57377D01*
X-10144Y56984D01*
X-9449Y56845D01*
X-8754Y56984D01*
X-8165Y57377D01*
X-7771Y57967D01*
X-7633Y58661D01*
X-7771Y59356D01*
X-8165Y59945D01*
X-8754Y60339D01*
X-9449Y60477D01*
D02*
G37*
G36*
X-15748Y59887D02*
X-16443Y59749D01*
X-17032Y59355D01*
X-17426Y58766D01*
X-17564Y58071D01*
X-17426Y57376D01*
X-17032Y56787D01*
X-16443Y56393D01*
X-15748Y56255D01*
X-15053Y56393D01*
X-14464Y56787D01*
X-14070Y57376D01*
X-13932Y58071D01*
X-14070Y58766D01*
X-14464Y59355D01*
X-15053Y59749D01*
X-15748Y59887D01*
D02*
G37*
G36*
X8960Y58115D02*
X8265Y57977D01*
X7676Y57583D01*
X7282Y56994D01*
X7144Y56299D01*
X7282Y55604D01*
X7676Y55015D01*
X8265Y54621D01*
X8960Y54483D01*
X8988Y54489D01*
X9148Y54040D01*
X8558Y53646D01*
X8165Y53057D01*
X8027Y52362D01*
X8165Y51667D01*
X8558Y51078D01*
X9148Y50684D01*
X9843Y50546D01*
X10537Y50684D01*
X11127Y51078D01*
X11520Y51667D01*
X11659Y52362D01*
X11520Y53057D01*
X11127Y53646D01*
X10537Y54040D01*
X9843Y54178D01*
X9814Y54173D01*
X9655Y54621D01*
X10244Y55015D01*
X10637Y55604D01*
X10776Y56299D01*
X10637Y56994D01*
X10244Y57583D01*
X9655Y57977D01*
X8960Y58115D01*
D02*
G37*
G36*
X-29921Y52210D02*
X-30616Y52071D01*
X-31205Y51678D01*
X-31599Y51089D01*
X-31737Y50394D01*
X-31599Y49699D01*
X-31205Y49110D01*
X-30616Y48716D01*
X-29921Y48578D01*
X-29226Y48716D01*
X-28637Y49110D01*
X-28243Y49699D01*
X-28105Y50394D01*
X-28243Y51089D01*
X-28637Y51678D01*
X-29226Y52071D01*
X-29921Y52210D01*
D02*
G37*
G36*
X-1575Y47879D02*
X-2270Y47741D01*
X-2859Y47347D01*
X-3253Y46758D01*
X-3391Y46063D01*
X-3253Y45368D01*
X-2859Y44779D01*
X-2270Y44385D01*
X-1575Y44247D01*
X-880Y44385D01*
X-291Y44779D01*
X103Y45368D01*
X241Y46063D01*
X103Y46758D01*
X-291Y47347D01*
X-880Y47741D01*
X-1575Y47879D01*
D02*
G37*
G36*
X-15354D02*
X-16049Y47741D01*
X-16638Y47347D01*
X-17032Y46758D01*
X-17170Y46063D01*
X-17032Y45368D01*
X-16638Y44779D01*
X-16049Y44385D01*
X-15354Y44247D01*
X-14659Y44385D01*
X-14070Y44779D01*
X-13677Y45368D01*
X-13538Y46063D01*
X-13677Y46758D01*
X-14070Y47347D01*
X-14659Y47741D01*
X-15354Y47879D01*
D02*
G37*
G36*
X215748Y45517D02*
X215053Y45379D01*
X214464Y44985D01*
X214070Y44396D01*
X213932Y43701D01*
X214070Y43006D01*
X214464Y42417D01*
X215053Y42023D01*
X215748Y41885D01*
X216443Y42023D01*
X217032Y42417D01*
X217426Y43006D01*
X217564Y43701D01*
X217426Y44396D01*
X217032Y44985D01*
X216443Y45379D01*
X215748Y45517D01*
D02*
G37*
G36*
X110993Y49619D02*
X109962Y49483D01*
X109002Y49085D01*
X108178Y48453D01*
X107545Y47628D01*
X107148Y46668D01*
X107012Y45638D01*
X107148Y44608D01*
X107545Y43648D01*
X108178Y42823D01*
X109002Y42191D01*
X109962Y41793D01*
X110993Y41658D01*
X112023Y41793D01*
X112983Y42191D01*
X113807Y42823D01*
X114440Y43648D01*
X114837Y44608D01*
X114973Y45638D01*
X114837Y46668D01*
X114440Y47628D01*
X113807Y48453D01*
X112983Y49085D01*
X112023Y49483D01*
X110993Y49619D01*
D02*
G37*
G36*
X220472Y42367D02*
X219777Y42229D01*
X219188Y41835D01*
X218795Y41246D01*
X218656Y40551D01*
X218795Y39856D01*
X219188Y39267D01*
X219777Y38873D01*
X220472Y38735D01*
X221167Y38873D01*
X221757Y39267D01*
X222150Y39856D01*
X222288Y40551D01*
X222150Y41246D01*
X221757Y41835D01*
X221167Y42229D01*
X220472Y42367D01*
D02*
G37*
G36*
X103921Y42548D02*
X102891Y42412D01*
X101931Y42014D01*
X101107Y41382D01*
X100474Y40557D01*
X100077Y39597D01*
X99941Y38567D01*
X100077Y37537D01*
X100474Y36577D01*
X101107Y35752D01*
X101931Y35120D01*
X102891Y34722D01*
X103921Y34587D01*
X104952Y34722D01*
X105912Y35120D01*
X106736Y35752D01*
X107369Y36577D01*
X107766Y37537D01*
X107902Y38567D01*
X107766Y39597D01*
X107369Y40557D01*
X106736Y41382D01*
X105912Y42014D01*
X104952Y42412D01*
X103921Y42548D01*
D02*
G37*
G36*
X-28740Y36462D02*
X-29435Y36323D01*
X-30024Y35930D01*
X-30418Y35341D01*
X-30556Y34646D01*
X-30418Y33951D01*
X-30024Y33362D01*
X-29435Y32968D01*
X-28740Y32830D01*
X-28045Y32968D01*
X-27456Y33362D01*
X-27062Y33951D01*
X-26924Y34646D01*
X-27062Y35341D01*
X-27456Y35930D01*
X-28045Y36323D01*
X-28740Y36462D01*
D02*
G37*
G36*
X208661Y34287D02*
X207966Y34149D01*
X207377Y33755D01*
X206984Y33166D01*
X206845Y32471D01*
X206984Y31776D01*
X207377Y31187D01*
X207966Y30793D01*
X208661Y30655D01*
X209356Y30793D01*
X209946Y31187D01*
X210339Y31776D01*
X210477Y32471D01*
X210339Y33166D01*
X209946Y33755D01*
X209356Y34149D01*
X208661Y34287D01*
D02*
G37*
G36*
X213779Y33706D02*
X213085Y33568D01*
X212495Y33174D01*
X212102Y32585D01*
X211964Y31890D01*
X212102Y31195D01*
X212495Y30606D01*
X213085Y30212D01*
X213779Y30074D01*
X214475Y30212D01*
X215064Y30606D01*
X215457Y31195D01*
X215596Y31890D01*
X215457Y32585D01*
X215064Y33174D01*
X214475Y33568D01*
X213779Y33706D01*
D02*
G37*
G36*
X203937Y32918D02*
X203242Y32780D01*
X202653Y32386D01*
X202259Y31797D01*
X202121Y31102D01*
X202259Y30407D01*
X202653Y29818D01*
X203242Y29425D01*
X203937Y29286D01*
X204632Y29425D01*
X205221Y29818D01*
X205615Y30407D01*
X205753Y31102D01*
X205615Y31797D01*
X205221Y32386D01*
X204632Y32780D01*
X203937Y32918D01*
D02*
G37*
G36*
X96850Y35477D02*
X95820Y35341D01*
X94860Y34943D01*
X94036Y34311D01*
X93403Y33486D01*
X93006Y32526D01*
X92870Y31496D01*
X93006Y30466D01*
X93403Y29506D01*
X94036Y28681D01*
X94860Y28049D01*
X95820Y27651D01*
X96850Y27516D01*
X97881Y27651D01*
X98841Y28049D01*
X99665Y28681D01*
X100298Y29506D01*
X100695Y30466D01*
X100831Y31496D01*
X100695Y32526D01*
X100298Y33486D01*
X99665Y34311D01*
X98841Y34943D01*
X97881Y35341D01*
X96850Y35477D01*
D02*
G37*
G36*
X56299Y26225D02*
X55604Y26087D01*
X55015Y25694D01*
X54621Y25104D01*
X54483Y24409D01*
X54621Y23715D01*
X55015Y23125D01*
X55604Y22732D01*
X56299Y22593D01*
X56994Y22732D01*
X57583Y23125D01*
X57977Y23715D01*
X58115Y24409D01*
X57977Y25104D01*
X57583Y25694D01*
X56994Y26087D01*
X56299Y26225D01*
D02*
G37*
G36*
X89779Y28405D02*
X88749Y28270D01*
X87789Y27872D01*
X86965Y27240D01*
X86332Y26415D01*
X85934Y25455D01*
X85799Y24425D01*
X85934Y23395D01*
X86332Y22435D01*
X86965Y21610D01*
X87789Y20978D01*
X88749Y20580D01*
X89779Y20445D01*
X90810Y20580D01*
X91770Y20978D01*
X92594Y21610D01*
X93226Y22435D01*
X93624Y23395D01*
X93760Y24425D01*
X93624Y25455D01*
X93226Y26415D01*
X92594Y27240D01*
X91770Y27872D01*
X90810Y28270D01*
X89779Y28405D01*
D02*
G37*
G36*
X37795Y23470D02*
X37100Y23331D01*
X36511Y22938D01*
X36118Y22348D01*
X35979Y21654D01*
X36118Y20959D01*
X36511Y20369D01*
X37100Y19976D01*
X37795Y19838D01*
X38490Y19976D01*
X39079Y20369D01*
X39473Y20959D01*
X39611Y21654D01*
X39473Y22348D01*
X39079Y22938D01*
X38490Y23331D01*
X37795Y23470D01*
D02*
G37*
G36*
X-11024Y23076D02*
X-11719Y22938D01*
X-12308Y22544D01*
X-12701Y21955D01*
X-12840Y21260D01*
X-12701Y20565D01*
X-12308Y19976D01*
X-11719Y19582D01*
X-11024Y19444D01*
X-10329Y19582D01*
X-9740Y19976D01*
X-9346Y20565D01*
X-9208Y21260D01*
X-9346Y21955D01*
X-9740Y22544D01*
X-10329Y22938D01*
X-11024Y23076D01*
D02*
G37*
G36*
X50787Y19533D02*
X50093Y19394D01*
X49503Y19001D01*
X49110Y18411D01*
X48971Y17717D01*
X49110Y17022D01*
X49503Y16432D01*
X50093Y16039D01*
X50787Y15901D01*
X51482Y16039D01*
X52071Y16432D01*
X52465Y17022D01*
X52603Y17717D01*
X52465Y18411D01*
X52071Y19001D01*
X51482Y19394D01*
X50787Y19533D01*
D02*
G37*
G36*
X215748Y18351D02*
X215053Y18213D01*
X214464Y17819D01*
X214070Y17230D01*
X213932Y16535D01*
X214070Y15841D01*
X214464Y15251D01*
X215053Y14858D01*
X215748Y14719D01*
X216443Y14858D01*
X217032Y15251D01*
X217426Y15841D01*
X217564Y16535D01*
X217426Y17230D01*
X217032Y17819D01*
X216443Y18213D01*
X215748Y18351D01*
D02*
G37*
G36*
X10630Y17564D02*
X9935Y17426D01*
X9346Y17032D01*
X8952Y16443D01*
X8814Y15748D01*
X8952Y15053D01*
X9346Y14464D01*
X9935Y14070D01*
X10630Y13932D01*
X11325Y14070D01*
X11914Y14464D01*
X12308Y15053D01*
X12446Y15748D01*
X12308Y16443D01*
X11914Y17032D01*
X11325Y17426D01*
X10630Y17564D01*
D02*
G37*
G36*
X158405Y15907D02*
X157711Y15769D01*
X157122Y15375D01*
X156728Y14786D01*
X156590Y14091D01*
X156728Y13396D01*
X157122Y12807D01*
X157711Y12414D01*
X158405Y12275D01*
X159100Y12414D01*
X159690Y12807D01*
X160083Y13396D01*
X160222Y14091D01*
X160083Y14786D01*
X159690Y15375D01*
X159100Y15769D01*
X158405Y15907D01*
D02*
G37*
G36*
X82708Y22935D02*
X77127Y17354D01*
X82708Y11773D01*
X88289Y17354D01*
X82708Y22935D01*
D02*
G37*
G36*
X40551Y15202D02*
X39856Y15064D01*
X39267Y14670D01*
X38873Y14081D01*
X38735Y13386D01*
X38873Y12691D01*
X39267Y12102D01*
X39856Y11708D01*
X40551Y11570D01*
X41246Y11708D01*
X41835Y12102D01*
X42229Y12691D01*
X42367Y13386D01*
X42229Y14081D01*
X41835Y14670D01*
X41246Y15064D01*
X40551Y15202D01*
D02*
G37*
G36*
X214567Y8903D02*
X213872Y8764D01*
X213283Y8371D01*
X212889Y7782D01*
X212751Y7087D01*
X212889Y6392D01*
X213283Y5802D01*
X213872Y5409D01*
X214567Y5271D01*
X215262Y5409D01*
X215851Y5802D01*
X216245Y6392D01*
X216383Y7087D01*
X216245Y7782D01*
X215851Y8371D01*
X215262Y8764D01*
X214567Y8903D01*
D02*
G37*
G36*
X-0Y14424D02*
X-2256Y14246D01*
X-4457Y13718D01*
X-6548Y12852D01*
X-8478Y11669D01*
X-10199Y10199D01*
X-11669Y8478D01*
X-12852Y6548D01*
X-13718Y4457D01*
X-14246Y2256D01*
X-14424Y-0D01*
X-14246Y-2256D01*
X-13718Y-4457D01*
X-12852Y-6548D01*
X-11669Y-8478D01*
X-10199Y-10199D01*
X-8478Y-11669D01*
X-6548Y-12852D01*
X-4457Y-13718D01*
X-2256Y-14246D01*
X-0Y-14424D01*
X2256Y-14246D01*
X4457Y-13718D01*
X6548Y-12852D01*
X8478Y-11669D01*
X10199Y-10199D01*
X11669Y-8478D01*
X12852Y-6548D01*
X13718Y-4457D01*
X14246Y-2256D01*
X14424Y-0D01*
X14246Y2256D01*
X13718Y4457D01*
X12852Y6548D01*
X11669Y8478D01*
X10199Y10199D01*
X8478Y11669D01*
X6548Y12852D01*
X4457Y13718D01*
X2256Y14246D01*
X-0Y14424D01*
D02*
G37*
G36*
X39173Y-12849D02*
X38478Y-12988D01*
X37889Y-13381D01*
X37495Y-13970D01*
X37357Y-14665D01*
X37495Y-15360D01*
X37889Y-15949D01*
X38478Y-16343D01*
X39173Y-16481D01*
X39868Y-16343D01*
X40457Y-15949D01*
X40851Y-15360D01*
X40989Y-14665D01*
X40851Y-13970D01*
X40457Y-13381D01*
X39868Y-12988D01*
X39173Y-12849D01*
D02*
G37*
G36*
X218504Y-16688D02*
X217809Y-16826D01*
X217220Y-17220D01*
X216826Y-17809D01*
X216688Y-18504D01*
X216826Y-19199D01*
X217220Y-19788D01*
X217809Y-20182D01*
X218504Y-20320D01*
X219199Y-20182D01*
X219788Y-19788D01*
X220182Y-19199D01*
X220320Y-18504D01*
X220182Y-17809D01*
X219788Y-17220D01*
X219199Y-16826D01*
X218504Y-16688D01*
D02*
G37*
G36*
X29724Y-18853D02*
X29030Y-18992D01*
X28440Y-19385D01*
X28047Y-19974D01*
X27908Y-20669D01*
X28047Y-21364D01*
X28440Y-21953D01*
X29030Y-22347D01*
X29724Y-22485D01*
X30419Y-22347D01*
X31008Y-21953D01*
X31402Y-21364D01*
X31540Y-20669D01*
X31402Y-19974D01*
X31008Y-19385D01*
X30419Y-18992D01*
X29724Y-18853D01*
D02*
G37*
G36*
X48917Y-18952D02*
X48222Y-19090D01*
X47633Y-19484D01*
X47240Y-20073D01*
X47101Y-20768D01*
X47240Y-21463D01*
X47633Y-22052D01*
X48222Y-22445D01*
X48917Y-22584D01*
X49612Y-22445D01*
X50201Y-22052D01*
X50595Y-21463D01*
X50733Y-20768D01*
X50595Y-20073D01*
X50201Y-19484D01*
X49612Y-19090D01*
X48917Y-18952D01*
D02*
G37*
G36*
X160236Y-20231D02*
X159541Y-20369D01*
X158952Y-20763D01*
X158558Y-21352D01*
X158420Y-22047D01*
X158558Y-22742D01*
X158952Y-23331D01*
X159541Y-23725D01*
X160236Y-23863D01*
X160931Y-23725D01*
X161520Y-23331D01*
X161914Y-22742D01*
X162052Y-22047D01*
X161914Y-21352D01*
X161520Y-20763D01*
X160931Y-20369D01*
X160236Y-20231D01*
D02*
G37*
G36*
X154724D02*
X154030Y-20369D01*
X153440Y-20763D01*
X153047Y-21352D01*
X152908Y-22047D01*
X153047Y-22742D01*
X153440Y-23331D01*
X154030Y-23725D01*
X154724Y-23863D01*
X155419Y-23725D01*
X156009Y-23331D01*
X156402Y-22742D01*
X156540Y-22047D01*
X156402Y-21352D01*
X156009Y-20763D01*
X155419Y-20369D01*
X154724Y-20231D01*
D02*
G37*
G36*
X200000Y-20625D02*
X199305Y-20763D01*
X198716Y-21157D01*
X198322Y-21746D01*
X198184Y-22441D01*
X198322Y-23136D01*
X198716Y-23725D01*
X199305Y-24119D01*
X200000Y-24257D01*
X200695Y-24119D01*
X201284Y-23725D01*
X201678Y-23136D01*
X201816Y-22441D01*
X201678Y-21746D01*
X201284Y-21157D01*
X200695Y-20763D01*
X200000Y-20625D01*
D02*
G37*
G36*
X218504Y-21806D02*
X217809Y-21944D01*
X217220Y-22338D01*
X216826Y-22927D01*
X216688Y-23622D01*
X216826Y-24317D01*
X217220Y-24906D01*
X217809Y-25300D01*
X218504Y-25438D01*
X219199Y-25300D01*
X219788Y-24906D01*
X220182Y-24317D01*
X220320Y-23622D01*
X220182Y-22927D01*
X219788Y-22338D01*
X219199Y-21944D01*
X218504Y-21806D01*
D02*
G37*
G36*
X152756Y-24562D02*
X152061Y-24700D01*
X151472Y-25094D01*
X151078Y-25683D01*
X150940Y-26378D01*
X151078Y-27073D01*
X151472Y-27662D01*
X152061Y-28056D01*
X152756Y-28194D01*
X153451Y-28056D01*
X154040Y-27662D01*
X154434Y-27073D01*
X154572Y-26378D01*
X154434Y-25683D01*
X154040Y-25094D01*
X153451Y-24700D01*
X152756Y-24562D01*
D02*
G37*
G36*
X135827D02*
X135132Y-24700D01*
X134543Y-25094D01*
X134149Y-25683D01*
X134011Y-26378D01*
X134149Y-27073D01*
X134543Y-27662D01*
X135132Y-28056D01*
X135827Y-28194D01*
X136522Y-28056D01*
X137111Y-27662D01*
X137504Y-27073D01*
X137643Y-26378D01*
X137504Y-25683D01*
X137111Y-25094D01*
X136522Y-24700D01*
X135827Y-24562D01*
D02*
G37*
G36*
X39173Y-25054D02*
X38478Y-25192D01*
X37889Y-25586D01*
X37495Y-26175D01*
X37357Y-26870D01*
X37495Y-27565D01*
X37889Y-28154D01*
X38478Y-28548D01*
X39173Y-28686D01*
X39868Y-28548D01*
X40457Y-28154D01*
X40851Y-27565D01*
X40989Y-26870D01*
X40851Y-26175D01*
X40457Y-25586D01*
X39868Y-25192D01*
X39173Y-25054D01*
D02*
G37*
G36*
X121724Y-26404D02*
X121029Y-26543D01*
X120440Y-26936D01*
X120047Y-27525D01*
X119908Y-28220D01*
X120047Y-28915D01*
X120440Y-29504D01*
X121029Y-29898D01*
X121724Y-30036D01*
X122419Y-29898D01*
X123008Y-29504D01*
X123402Y-28915D01*
X123540Y-28220D01*
X123402Y-27525D01*
X123008Y-26936D01*
X122419Y-26543D01*
X121724Y-26404D01*
D02*
G37*
G36*
X126279Y-27515D02*
X125585Y-27653D01*
X124996Y-28047D01*
X124602Y-28636D01*
X124464Y-29331D01*
X124602Y-30026D01*
X124996Y-30615D01*
X125585Y-31008D01*
X126279Y-31147D01*
X126974Y-31008D01*
X127564Y-30615D01*
X127957Y-30026D01*
X128095Y-29331D01*
X127957Y-28636D01*
X127564Y-28047D01*
X126974Y-27653D01*
X126279Y-27515D01*
D02*
G37*
G36*
X90158Y-30468D02*
X89463Y-30606D01*
X88873Y-30999D01*
X88480Y-31589D01*
X88341Y-32283D01*
X88480Y-32978D01*
X88873Y-33568D01*
X89463Y-33961D01*
X90158Y-34100D01*
X90852Y-33961D01*
X91442Y-33568D01*
X91835Y-32978D01*
X91974Y-32283D01*
X91835Y-31589D01*
X91442Y-30999D01*
X90852Y-30606D01*
X90158Y-30468D01*
D02*
G37*
G36*
X64961Y-30664D02*
X64266Y-30803D01*
X63677Y-31196D01*
X63283Y-31785D01*
X63145Y-32480D01*
X63283Y-33175D01*
X63677Y-33764D01*
X64266Y-34158D01*
X64961Y-34296D01*
X65656Y-34158D01*
X66245Y-33764D01*
X66638Y-33175D01*
X66777Y-32480D01*
X66638Y-31785D01*
X66245Y-31196D01*
X65656Y-30803D01*
X64961Y-30664D01*
D02*
G37*
G36*
X218898Y-31649D02*
X218203Y-31787D01*
X217614Y-32181D01*
X217220Y-32770D01*
X217082Y-33465D01*
X217220Y-34159D01*
X217614Y-34749D01*
X218203Y-35142D01*
X218898Y-35281D01*
X219593Y-35142D01*
X220182Y-34749D01*
X220575Y-34159D01*
X220714Y-33465D01*
X220575Y-32770D01*
X220182Y-32181D01*
X219593Y-31787D01*
X218898Y-31649D01*
D02*
G37*
G36*
X198031Y-32042D02*
X197337Y-32181D01*
X196747Y-32574D01*
X196354Y-33163D01*
X196215Y-33858D01*
X196354Y-34553D01*
X196747Y-35142D01*
X197337Y-35536D01*
X198031Y-35674D01*
X198726Y-35536D01*
X199316Y-35142D01*
X199709Y-34553D01*
X199847Y-33858D01*
X199709Y-33163D01*
X199316Y-32574D01*
X198726Y-32181D01*
X198031Y-32042D01*
D02*
G37*
G36*
X180315Y-34405D02*
X179620Y-34543D01*
X179031Y-34936D01*
X178637Y-35526D01*
X178499Y-36220D01*
X178637Y-36915D01*
X179031Y-37505D01*
X179620Y-37898D01*
X180315Y-38037D01*
X181010Y-37898D01*
X181599Y-37505D01*
X181993Y-36915D01*
X182131Y-36220D01*
X181993Y-35526D01*
X181599Y-34936D01*
X181010Y-34543D01*
X180315Y-34405D01*
D02*
G37*
G36*
X168504D02*
X167809Y-34543D01*
X167220Y-34936D01*
X166826Y-35526D01*
X166688Y-36220D01*
X166826Y-36915D01*
X167220Y-37505D01*
X167809Y-37898D01*
X168504Y-38037D01*
X169199Y-37898D01*
X169788Y-37505D01*
X170182Y-36915D01*
X170320Y-36220D01*
X170182Y-35526D01*
X169788Y-34936D01*
X169199Y-34543D01*
X168504Y-34405D01*
D02*
G37*
G36*
X103937Y-37948D02*
X103242Y-38086D01*
X102653Y-38480D01*
X102259Y-39069D01*
X102121Y-39764D01*
X102259Y-40459D01*
X102653Y-41048D01*
X103242Y-41442D01*
X103937Y-41580D01*
X104632Y-41442D01*
X105221Y-41048D01*
X105615Y-40459D01*
X105753Y-39764D01*
X105615Y-39069D01*
X105221Y-38480D01*
X104632Y-38086D01*
X103937Y-37948D01*
D02*
G37*
G36*
X122835Y-38735D02*
X122140Y-38873D01*
X121551Y-39267D01*
X121157Y-39856D01*
X121019Y-40551D01*
X121157Y-41246D01*
X121551Y-41835D01*
X122140Y-42229D01*
X122835Y-42367D01*
X123530Y-42229D01*
X124119Y-41835D01*
X124512Y-41246D01*
X124651Y-40551D01*
X124512Y-39856D01*
X124119Y-39267D01*
X123530Y-38873D01*
X122835Y-38735D01*
D02*
G37*
G36*
X219291Y-40704D02*
X218596Y-40842D01*
X218007Y-41236D01*
X217614Y-41825D01*
X217475Y-42520D01*
X217614Y-43215D01*
X218007Y-43804D01*
X218596Y-44197D01*
X219291Y-44336D01*
X219986Y-44197D01*
X220575Y-43804D01*
X220969Y-43215D01*
X221107Y-42520D01*
X220969Y-41825D01*
X220575Y-41236D01*
X219986Y-40842D01*
X219291Y-40704D01*
D02*
G37*
G36*
X69291D02*
X68596Y-40842D01*
X68007Y-41236D01*
X67614Y-41825D01*
X67475Y-42520D01*
X67614Y-43215D01*
X68007Y-43804D01*
X68596Y-44197D01*
X69291Y-44336D01*
X69986Y-44197D01*
X70575Y-43804D01*
X70969Y-43215D01*
X71107Y-42520D01*
X70969Y-41825D01*
X70575Y-41236D01*
X69986Y-40842D01*
X69291Y-40704D01*
D02*
G37*
G36*
X175591Y-41097D02*
X174896Y-41236D01*
X174306Y-41629D01*
X173913Y-42218D01*
X173775Y-42913D01*
X173913Y-43608D01*
X174306Y-44197D01*
X174896Y-44591D01*
X175591Y-44729D01*
X176286Y-44591D01*
X176875Y-44197D01*
X177268Y-43608D01*
X177407Y-42913D01*
X177268Y-42218D01*
X176875Y-41629D01*
X176286Y-41236D01*
X175591Y-41097D01*
D02*
G37*
G36*
X154331Y-41885D02*
X153636Y-42023D01*
X153047Y-42417D01*
X152653Y-43006D01*
X152515Y-43701D01*
X152653Y-44396D01*
X153047Y-44985D01*
X153636Y-45379D01*
X154331Y-45517D01*
X155026Y-45379D01*
X155615Y-44985D01*
X156009Y-44396D01*
X156147Y-43701D01*
X156009Y-43006D01*
X155615Y-42417D01*
X155026Y-42023D01*
X154331Y-41885D01*
D02*
G37*
G36*
X168504Y-45822D02*
X167809Y-45960D01*
X167220Y-46354D01*
X166826Y-46943D01*
X166688Y-47638D01*
X166826Y-48333D01*
X167220Y-48922D01*
X167809Y-49316D01*
X168504Y-49454D01*
X169199Y-49316D01*
X169788Y-48922D01*
X170182Y-48333D01*
X170320Y-47638D01*
X170182Y-46943D01*
X169788Y-46354D01*
X169199Y-45960D01*
X168504Y-45822D01*
D02*
G37*
G36*
X154331Y-46885D02*
X153636Y-47023D01*
X153047Y-47417D01*
X152653Y-48006D01*
X152515Y-48701D01*
X152653Y-49396D01*
X153047Y-49985D01*
X153636Y-50379D01*
X154331Y-50517D01*
X155026Y-50379D01*
X155615Y-49985D01*
X156009Y-49396D01*
X156147Y-48701D01*
X156009Y-48006D01*
X155615Y-47417D01*
X155026Y-47023D01*
X154331Y-46885D01*
D02*
G37*
G36*
X86221Y-47003D02*
X85526Y-47141D01*
X84936Y-47535D01*
X84543Y-48124D01*
X84404Y-48819D01*
X84543Y-49514D01*
X84936Y-50103D01*
X85526Y-50497D01*
X86221Y-50635D01*
X86915Y-50497D01*
X87505Y-50103D01*
X87898Y-49514D01*
X88037Y-48819D01*
X87898Y-48124D01*
X87505Y-47535D01*
X86915Y-47141D01*
X86221Y-47003D01*
D02*
G37*
G36*
X198819Y-47790D02*
X198124Y-47929D01*
X197535Y-48322D01*
X197141Y-48911D01*
X197003Y-49606D01*
X197141Y-50301D01*
X197535Y-50890D01*
X198071Y-51249D01*
X198049Y-51509D01*
X197973Y-51739D01*
X197337Y-51866D01*
X196747Y-52259D01*
X196354Y-52848D01*
X196215Y-53543D01*
X196354Y-54238D01*
X196747Y-54827D01*
X197337Y-55221D01*
X198031Y-55359D01*
X198726Y-55221D01*
X199316Y-54827D01*
X199709Y-54238D01*
X199847Y-53543D01*
X199709Y-52848D01*
X199316Y-52259D01*
X198780Y-51901D01*
X198801Y-51641D01*
X198877Y-51411D01*
X199514Y-51284D01*
X200103Y-50890D01*
X200497Y-50301D01*
X200635Y-49606D01*
X200497Y-48911D01*
X200103Y-48322D01*
X199514Y-47929D01*
X198819Y-47790D01*
D02*
G37*
G36*
X119095Y-49996D02*
X118064Y-50131D01*
X117104Y-50529D01*
X116280Y-51162D01*
X115647Y-51986D01*
X115250Y-52946D01*
X115114Y-53976D01*
X115250Y-55007D01*
X115647Y-55967D01*
X116280Y-56791D01*
X117104Y-57424D01*
X118064Y-57821D01*
X119095Y-57957D01*
X120125Y-57821D01*
X121085Y-57424D01*
X121909Y-56791D01*
X122542Y-55967D01*
X122939Y-55007D01*
X123075Y-53976D01*
X122939Y-52946D01*
X122542Y-51986D01*
X121909Y-51162D01*
X121085Y-50529D01*
X120125Y-50131D01*
X119095Y-49996D01*
D02*
G37*
G36*
X154331Y-56885D02*
X153636Y-57023D01*
X153047Y-57417D01*
X152653Y-58006D01*
X152515Y-58701D01*
X152653Y-59396D01*
X153047Y-59985D01*
X153636Y-60379D01*
X154331Y-60517D01*
X155026Y-60379D01*
X155615Y-59985D01*
X156009Y-59396D01*
X156147Y-58701D01*
X156009Y-58006D01*
X155615Y-57417D01*
X155026Y-57023D01*
X154331Y-56885D01*
D02*
G37*
G36*
X89764Y-55664D02*
X89069Y-55803D01*
X88480Y-56196D01*
X88086Y-56785D01*
X87948Y-57480D01*
X88086Y-58175D01*
X88480Y-58764D01*
X89069Y-59158D01*
X89764Y-59296D01*
X90352Y-59179D01*
X90611Y-59448D01*
X90682Y-59585D01*
X90448Y-59935D01*
X90310Y-60630D01*
X90448Y-61325D01*
X90842Y-61914D01*
X91431Y-62308D01*
X92126Y-62446D01*
X92821Y-62308D01*
X93410Y-61914D01*
X93804Y-61325D01*
X93942Y-60630D01*
X93804Y-59935D01*
X93410Y-59346D01*
X92821Y-58952D01*
X92126Y-58814D01*
X91538Y-58931D01*
X91279Y-58662D01*
X91207Y-58526D01*
X91442Y-58175D01*
X91580Y-57480D01*
X91442Y-56785D01*
X91048Y-56196D01*
X90459Y-55803D01*
X89764Y-55664D01*
D02*
G37*
G36*
X168110Y-59601D02*
X167415Y-59740D01*
X166826Y-60133D01*
X166432Y-60722D01*
X166294Y-61417D01*
X166432Y-62112D01*
X166826Y-62701D01*
X167415Y-63095D01*
X168110Y-63233D01*
X168805Y-63095D01*
X169394Y-62701D01*
X169788Y-62112D01*
X169926Y-61417D01*
X169788Y-60722D01*
X169394Y-60133D01*
X168805Y-59740D01*
X168110Y-59601D01*
D02*
G37*
G36*
X88583Y-63145D02*
X87888Y-63283D01*
X87299Y-63677D01*
X86905Y-64266D01*
X86767Y-64961D01*
X86905Y-65656D01*
X87299Y-66245D01*
X87888Y-66638D01*
X88583Y-66777D01*
X89278Y-66638D01*
X89867Y-66245D01*
X90260Y-65656D01*
X90399Y-64961D01*
X90260Y-64266D01*
X89867Y-63677D01*
X89278Y-63283D01*
X88583Y-63145D01*
D02*
G37*
G36*
X202756Y-63932D02*
X202061Y-64070D01*
X201472Y-64464D01*
X201078Y-65053D01*
X200940Y-65748D01*
X201078Y-66443D01*
X201472Y-67032D01*
X202061Y-67426D01*
X202756Y-67564D01*
X203451Y-67426D01*
X204040Y-67032D01*
X204434Y-66443D01*
X204572Y-65748D01*
X204434Y-65053D01*
X204040Y-64464D01*
X203451Y-64070D01*
X202756Y-63932D01*
D02*
G37*
G36*
X190157D02*
X189462Y-64070D01*
X188873Y-64464D01*
X188480Y-65053D01*
X188341Y-65748D01*
X188480Y-66443D01*
X188873Y-67032D01*
X189462Y-67426D01*
X190157Y-67564D01*
X190852Y-67426D01*
X191442Y-67032D01*
X191835Y-66443D01*
X191973Y-65748D01*
X191835Y-65053D01*
X191442Y-64464D01*
X190852Y-64070D01*
X190157Y-63932D01*
D02*
G37*
G36*
X119095Y-59996D02*
X118064Y-60132D01*
X117104Y-60529D01*
X116280Y-61162D01*
X115647Y-61986D01*
X115250Y-62946D01*
X115114Y-63976D01*
X115250Y-65007D01*
X115647Y-65967D01*
X116280Y-66791D01*
X117104Y-67424D01*
X118064Y-67821D01*
X119095Y-67957D01*
X120125Y-67821D01*
X121085Y-67424D01*
X121909Y-66791D01*
X122542Y-65967D01*
X122939Y-65007D01*
X123075Y-63976D01*
X122939Y-62946D01*
X122542Y-61986D01*
X121909Y-61162D01*
X121085Y-60529D01*
X120125Y-60132D01*
X119095Y-59996D01*
D02*
G37*
G36*
X181890Y-64326D02*
X181195Y-64464D01*
X180606Y-64858D01*
X180212Y-65447D01*
X180074Y-66142D01*
X180212Y-66837D01*
X180606Y-67426D01*
X181195Y-67819D01*
X181890Y-67958D01*
X182585Y-67819D01*
X183174Y-67426D01*
X183568Y-66837D01*
X183706Y-66142D01*
X183568Y-65447D01*
X183174Y-64858D01*
X182585Y-64464D01*
X181890Y-64326D01*
D02*
G37*
G36*
X73425Y-56845D02*
X72730Y-56984D01*
X72141Y-57377D01*
X71747Y-57967D01*
X71609Y-58661D01*
X71747Y-59356D01*
X72141Y-59945D01*
X72730Y-60339D01*
X72910Y-60375D01*
Y-60885D01*
X72730Y-60921D01*
X72141Y-61314D01*
X71747Y-61904D01*
X71609Y-62598D01*
X71747Y-63293D01*
X72141Y-63882D01*
X72730Y-64276D01*
X72910Y-64312D01*
Y-64822D01*
X72730Y-64858D01*
X72141Y-65251D01*
X71747Y-65841D01*
X71609Y-66535D01*
X71747Y-67230D01*
X72141Y-67819D01*
X72730Y-68213D01*
X73425Y-68351D01*
X74120Y-68213D01*
X74709Y-67819D01*
X75103Y-67230D01*
X75241Y-66535D01*
X75103Y-65841D01*
X74709Y-65251D01*
X74120Y-64858D01*
X73940Y-64822D01*
Y-64312D01*
X74120Y-64276D01*
X74709Y-63882D01*
X75103Y-63293D01*
X75241Y-62598D01*
X75103Y-61904D01*
X74709Y-61314D01*
X74120Y-60921D01*
X73940Y-60885D01*
Y-60375D01*
X74120Y-60339D01*
X74709Y-59945D01*
X75103Y-59356D01*
X75241Y-58661D01*
X75103Y-57967D01*
X74709Y-57377D01*
X74120Y-56984D01*
X73425Y-56845D01*
D02*
G37*
G36*
X221260Y-61963D02*
X220565Y-62102D01*
X219976Y-62495D01*
X219582Y-63085D01*
X219444Y-63779D01*
X219582Y-64474D01*
X219976Y-65064D01*
X220565Y-65457D01*
X221015Y-65547D01*
X221268Y-66059D01*
X221268Y-66068D01*
X221157Y-66234D01*
X221019Y-66929D01*
X221157Y-67624D01*
X221551Y-68213D01*
X222140Y-68607D01*
X222835Y-68745D01*
X223530Y-68607D01*
X224119Y-68213D01*
X224512Y-67624D01*
X224651Y-66929D01*
X224512Y-66234D01*
X224119Y-65645D01*
X223530Y-65251D01*
X223080Y-65162D01*
X222827Y-64649D01*
X222827Y-64640D01*
X222938Y-64474D01*
X223076Y-63779D01*
X222938Y-63085D01*
X222544Y-62495D01*
X221955Y-62102D01*
X221260Y-61963D01*
D02*
G37*
G36*
X168110Y-67869D02*
X167415Y-68007D01*
X166826Y-68401D01*
X166432Y-68990D01*
X166294Y-69685D01*
X166432Y-70380D01*
X166826Y-70969D01*
X167415Y-71363D01*
X168110Y-71501D01*
X168805Y-71363D01*
X169394Y-70969D01*
X169788Y-70380D01*
X169926Y-69685D01*
X169788Y-68990D01*
X169394Y-68401D01*
X168805Y-68007D01*
X168110Y-67869D01*
D02*
G37*
G36*
X203150Y-71806D02*
X202455Y-71944D01*
X201866Y-72338D01*
X201472Y-72927D01*
X201334Y-73622D01*
X201472Y-74317D01*
X201866Y-74906D01*
X202455Y-75300D01*
X203150Y-75438D01*
X203845Y-75300D01*
X204434Y-74906D01*
X204827Y-74317D01*
X204966Y-73622D01*
X204827Y-72927D01*
X204434Y-72338D01*
X203845Y-71944D01*
X203150Y-71806D01*
D02*
G37*
G36*
X123041Y-70030D02*
X115148D01*
Y-77923D01*
X123041D01*
Y-70030D01*
D02*
G37*
G36*
X265354Y-74956D02*
X264659Y-75094D01*
X264070Y-75488D01*
X263677Y-76077D01*
X263538Y-76772D01*
X263677Y-77467D01*
X264070Y-78056D01*
X264659Y-78449D01*
X265354Y-78588D01*
X266049Y-78449D01*
X266638Y-78056D01*
X267032Y-77467D01*
X267170Y-76772D01*
X267032Y-76077D01*
X266638Y-75488D01*
X266049Y-75094D01*
X265354Y-74956D01*
D02*
G37*
G36*
X65945Y-76137D02*
X65250Y-76275D01*
X64661Y-76669D01*
X64267Y-77258D01*
X64129Y-77953D01*
X64267Y-78648D01*
X64661Y-79237D01*
X65250Y-79631D01*
X65945Y-79769D01*
X66640Y-79631D01*
X67229Y-79237D01*
X67623Y-78648D01*
X67761Y-77953D01*
X67623Y-77258D01*
X67229Y-76669D01*
X66640Y-76275D01*
X65945Y-76137D01*
D02*
G37*
G36*
X170473Y-78617D02*
X169778Y-78755D01*
X169188Y-79149D01*
X168795Y-79738D01*
X168657Y-80433D01*
X168795Y-81128D01*
X169188Y-81717D01*
X169778Y-82111D01*
X170473Y-82249D01*
X171167Y-82111D01*
X171756Y-81717D01*
X172150Y-81128D01*
X172288Y-80433D01*
X172150Y-79738D01*
X171756Y-79149D01*
X171167Y-78755D01*
X170473Y-78617D01*
D02*
G37*
G36*
X231782Y-81274D02*
X231087Y-81412D01*
X230498Y-81806D01*
X230104Y-82395D01*
X229966Y-83090D01*
X230104Y-83785D01*
X230498Y-84374D01*
X231087Y-84768D01*
X231782Y-84906D01*
X232477Y-84768D01*
X233066Y-84374D01*
X233460Y-83785D01*
X233598Y-83090D01*
X233460Y-82395D01*
X233066Y-81806D01*
X232477Y-81412D01*
X231782Y-81274D01*
D02*
G37*
G36*
X137402Y-82042D02*
X136707Y-82181D01*
X136117Y-82574D01*
X135724Y-83163D01*
X135586Y-83858D01*
X135724Y-84553D01*
X136117Y-85142D01*
X136707Y-85536D01*
X137402Y-85674D01*
X138096Y-85536D01*
X138686Y-85142D01*
X139079Y-84553D01*
X139218Y-83858D01*
X139079Y-83163D01*
X138686Y-82574D01*
X138096Y-82181D01*
X137402Y-82042D01*
D02*
G37*
G36*
X170473Y-83617D02*
X169778Y-83755D01*
X169188Y-84149D01*
X168795Y-84738D01*
X168657Y-85433D01*
X168795Y-86128D01*
X169188Y-86717D01*
X169778Y-87111D01*
X170473Y-87249D01*
X171167Y-87111D01*
X171756Y-86717D01*
X172150Y-86128D01*
X172288Y-85433D01*
X172150Y-84738D01*
X171756Y-84149D01*
X171167Y-83755D01*
X170473Y-83617D01*
D02*
G37*
G36*
X306693Y163823D02*
X305663Y163687D01*
X304703Y163290D01*
X303878Y162657D01*
X303246Y161833D01*
X302848Y160873D01*
X302712Y159843D01*
X302848Y158812D01*
X303246Y157852D01*
X303878Y157028D01*
X304703Y156395D01*
X305663Y155998D01*
X306693Y155862D01*
X307723Y155998D01*
X308683Y156395D01*
X309507Y157028D01*
X310140Y157852D01*
X310538Y158812D01*
X310673Y159843D01*
X310538Y160873D01*
X310140Y161833D01*
X309507Y162657D01*
X308683Y163290D01*
X307723Y163687D01*
X306693Y163823D01*
D02*
G37*
G36*
X359842Y160831D02*
X358812Y160695D01*
X357852Y160298D01*
X357028Y159665D01*
X356395Y158841D01*
X355998Y157881D01*
X355862Y156850D01*
X355998Y155820D01*
X356395Y154860D01*
X357028Y154036D01*
X357852Y153403D01*
X358812Y153006D01*
X359842Y152870D01*
X360873Y153006D01*
X361833Y153403D01*
X362657Y154036D01*
X363290Y154860D01*
X363687Y155820D01*
X363823Y156850D01*
X363687Y157881D01*
X363290Y158841D01*
X362657Y159665D01*
X361833Y160298D01*
X360873Y160695D01*
X359842Y160831D01*
D02*
G37*
G36*
X334252Y155359D02*
X333557Y155221D01*
X332968Y154827D01*
X332574Y154238D01*
X332436Y153543D01*
X332574Y152848D01*
X332968Y152259D01*
X333557Y151866D01*
X334252Y151727D01*
X334947Y151866D01*
X335536Y152259D01*
X335930Y152848D01*
X336068Y153543D01*
X335930Y154238D01*
X335536Y154827D01*
X334947Y155221D01*
X334252Y155359D01*
D02*
G37*
G36*
X345276Y153785D02*
X344581Y153646D01*
X343991Y153253D01*
X343598Y152663D01*
X343460Y151969D01*
X343598Y151274D01*
X343991Y150684D01*
X344581Y150291D01*
X345276Y150153D01*
X345971Y150291D01*
X346560Y150684D01*
X346953Y151274D01*
X347092Y151969D01*
X346953Y152663D01*
X346560Y153253D01*
X345971Y153646D01*
X345276Y153785D01*
D02*
G37*
G36*
X316693Y153823D02*
X315663Y153687D01*
X314703Y153290D01*
X313878Y152657D01*
X313246Y151833D01*
X312848Y150873D01*
X312712Y149843D01*
X312848Y148812D01*
X313246Y147852D01*
X313878Y147028D01*
X314703Y146395D01*
X315663Y145998D01*
X316693Y145862D01*
X317723Y145998D01*
X318683Y146395D01*
X319508Y147028D01*
X320140Y147852D01*
X320538Y148812D01*
X320673Y149843D01*
X320538Y150873D01*
X320140Y151833D01*
X319508Y152657D01*
X318683Y153290D01*
X317723Y153687D01*
X316693Y153823D01*
D02*
G37*
G36*
X306693D02*
X305663Y153687D01*
X304703Y153290D01*
X303878Y152657D01*
X303246Y151833D01*
X302848Y150873D01*
X302712Y149843D01*
X302848Y148812D01*
X303246Y147852D01*
X303878Y147028D01*
X304703Y146395D01*
X305663Y145998D01*
X306693Y145862D01*
X307723Y145998D01*
X308683Y146395D01*
X309507Y147028D01*
X310140Y147852D01*
X310538Y148812D01*
X310673Y149843D01*
X310538Y150873D01*
X310140Y151833D01*
X309507Y152657D01*
X308683Y153290D01*
X307723Y153687D01*
X306693Y153823D01*
D02*
G37*
G36*
X375984Y148666D02*
X375289Y148528D01*
X374700Y148135D01*
X374307Y147545D01*
X374168Y146850D01*
X374307Y146155D01*
X374700Y145566D01*
X375289Y145173D01*
X375984Y145034D01*
X376679Y145173D01*
X377268Y145566D01*
X377662Y146155D01*
X377800Y146850D01*
X377662Y147545D01*
X377268Y148135D01*
X376679Y148528D01*
X375984Y148666D01*
D02*
G37*
G36*
X359842Y150831D02*
X358812Y150695D01*
X357852Y150298D01*
X357028Y149665D01*
X356395Y148841D01*
X355998Y147881D01*
X355862Y146850D01*
X355998Y145820D01*
X356395Y144860D01*
X357028Y144036D01*
X357852Y143403D01*
X358812Y143006D01*
X359842Y142870D01*
X360873Y143006D01*
X361833Y143403D01*
X362657Y144036D01*
X363290Y144860D01*
X363687Y145820D01*
X363823Y146850D01*
X363687Y147881D01*
X363290Y148841D01*
X362657Y149665D01*
X361833Y150298D01*
X360873Y150695D01*
X359842Y150831D01*
D02*
G37*
G36*
X349843D02*
X348812Y150695D01*
X347852Y150298D01*
X347028Y149665D01*
X346395Y148841D01*
X345998Y147881D01*
X345862Y146850D01*
X345998Y145820D01*
X346395Y144860D01*
X347028Y144036D01*
X347852Y143403D01*
X348812Y143006D01*
X349843Y142870D01*
X350873Y143006D01*
X351833Y143403D01*
X352657Y144036D01*
X353290Y144860D01*
X353687Y145820D01*
X353823Y146850D01*
X353687Y147881D01*
X353290Y148841D01*
X352657Y149665D01*
X351833Y150298D01*
X350873Y150695D01*
X349843Y150831D01*
D02*
G37*
G36*
X334252Y145911D02*
X333557Y145772D01*
X332968Y145379D01*
X332574Y144789D01*
X332436Y144095D01*
X332574Y143400D01*
X332968Y142810D01*
X333557Y142417D01*
X334252Y142279D01*
X334947Y142417D01*
X335536Y142810D01*
X335930Y143400D01*
X336068Y144095D01*
X335930Y144789D01*
X335536Y145379D01*
X334947Y145772D01*
X334252Y145911D01*
D02*
G37*
G36*
X365748Y143155D02*
X365053Y143016D01*
X364464Y142623D01*
X364070Y142034D01*
X363932Y141339D01*
X364070Y140644D01*
X364464Y140055D01*
X365053Y139661D01*
X365748Y139523D01*
X366443Y139661D01*
X367032Y140055D01*
X367426Y140644D01*
X367564Y141339D01*
X367426Y142034D01*
X367032Y142623D01*
X366443Y143016D01*
X365748Y143155D01*
D02*
G37*
G36*
X316693Y143823D02*
X315663Y143687D01*
X314703Y143290D01*
X313878Y142657D01*
X313246Y141833D01*
X312848Y140873D01*
X312712Y139842D01*
X312848Y138812D01*
X313246Y137852D01*
X313878Y137028D01*
X314703Y136395D01*
X315663Y135998D01*
X316693Y135862D01*
X317723Y135998D01*
X318683Y136395D01*
X319508Y137028D01*
X320140Y137852D01*
X320538Y138812D01*
X320673Y139842D01*
X320538Y140873D01*
X320140Y141833D01*
X319508Y142657D01*
X318683Y143290D01*
X317723Y143687D01*
X316693Y143823D01*
D02*
G37*
G36*
X306693D02*
X305663Y143687D01*
X304703Y143290D01*
X303878Y142657D01*
X303246Y141833D01*
X302848Y140873D01*
X302712Y139842D01*
X302848Y138812D01*
X303246Y137852D01*
X303878Y137028D01*
X304703Y136395D01*
X305663Y135998D01*
X306693Y135862D01*
X307723Y135998D01*
X308683Y136395D01*
X309507Y137028D01*
X310140Y137852D01*
X310538Y138812D01*
X310673Y139842D01*
X310538Y140873D01*
X310140Y141833D01*
X309507Y142657D01*
X308683Y143290D01*
X307723Y143687D01*
X306693Y143823D01*
D02*
G37*
G36*
X359842Y140831D02*
X358812Y140695D01*
X357852Y140298D01*
X357028Y139665D01*
X356395Y138841D01*
X355998Y137881D01*
X355862Y136850D01*
X355998Y135820D01*
X356395Y134860D01*
X357028Y134036D01*
X357852Y133403D01*
X358812Y133005D01*
X359842Y132870D01*
X360873Y133005D01*
X361833Y133403D01*
X362657Y134036D01*
X363290Y134860D01*
X363687Y135820D01*
X363823Y136850D01*
X363687Y137881D01*
X363290Y138841D01*
X362657Y139665D01*
X361833Y140298D01*
X360873Y140695D01*
X359842Y140831D01*
D02*
G37*
G36*
X349843D02*
X348812Y140695D01*
X347852Y140298D01*
X347028Y139665D01*
X346395Y138841D01*
X345998Y137881D01*
X345862Y136850D01*
X345998Y135820D01*
X346395Y134860D01*
X347028Y134036D01*
X347852Y133403D01*
X348812Y133005D01*
X349843Y132870D01*
X350873Y133005D01*
X351833Y133403D01*
X352657Y134036D01*
X353290Y134860D01*
X353687Y135820D01*
X353823Y136850D01*
X353687Y137881D01*
X353290Y138841D01*
X352657Y139665D01*
X351833Y140298D01*
X350873Y140695D01*
X349843Y140831D01*
D02*
G37*
G36*
X336614Y133312D02*
X335919Y133174D01*
X335330Y132780D01*
X334936Y132191D01*
X334798Y131496D01*
X334936Y130801D01*
X335330Y130212D01*
X335919Y129818D01*
X336614Y129680D01*
X337309Y129818D01*
X337898Y130212D01*
X338292Y130801D01*
X338430Y131496D01*
X338292Y132191D01*
X337898Y132780D01*
X337309Y133174D01*
X336614Y133312D01*
D02*
G37*
G36*
X365354Y131344D02*
X364659Y131205D01*
X364070Y130812D01*
X363677Y130222D01*
X363538Y129528D01*
X363589Y129272D01*
X363122Y129060D01*
X362657Y129665D01*
X361833Y130298D01*
X360873Y130695D01*
X359842Y130831D01*
X358812Y130695D01*
X357852Y130298D01*
X357028Y129665D01*
X356395Y128841D01*
X355998Y127881D01*
X355862Y126850D01*
X355998Y125820D01*
X356395Y124860D01*
X357028Y124036D01*
X357852Y123403D01*
X358812Y123005D01*
X359842Y122870D01*
X360873Y123005D01*
X361833Y123403D01*
X362657Y124036D01*
X363290Y124860D01*
X363687Y125820D01*
X363823Y126850D01*
X363687Y127881D01*
X363648Y127975D01*
X364070Y128244D01*
X364659Y127850D01*
X365354Y127712D01*
X366049Y127850D01*
X366638Y128244D01*
X367032Y128833D01*
X367170Y129528D01*
X367032Y130222D01*
X366638Y130812D01*
X366049Y131205D01*
X365354Y131344D01*
D02*
G37*
G36*
X316693Y133823D02*
X315663Y133687D01*
X314703Y133290D01*
X313878Y132657D01*
X313246Y131833D01*
X312848Y130873D01*
X312712Y129842D01*
X312848Y128812D01*
X313246Y127852D01*
X313878Y127028D01*
X314703Y126395D01*
X315663Y125998D01*
X316693Y125862D01*
X317723Y125998D01*
X318683Y126395D01*
X319508Y127028D01*
X320140Y127852D01*
X320538Y128812D01*
X320673Y129842D01*
X320538Y130873D01*
X320140Y131833D01*
X319508Y132657D01*
X318683Y133290D01*
X317723Y133687D01*
X316693Y133823D01*
D02*
G37*
G36*
X306693D02*
X305663Y133687D01*
X304703Y133290D01*
X303878Y132657D01*
X303246Y131833D01*
X302848Y130873D01*
X302712Y129842D01*
X302848Y128812D01*
X303246Y127852D01*
X303878Y127028D01*
X304703Y126395D01*
X305663Y125998D01*
X306693Y125862D01*
X307723Y125998D01*
X308683Y126395D01*
X309507Y127028D01*
X310140Y127852D01*
X310538Y128812D01*
X310673Y129842D01*
X310538Y130873D01*
X310140Y131833D01*
X309507Y132657D01*
X308683Y133290D01*
X307723Y133687D01*
X306693Y133823D01*
D02*
G37*
G36*
X349843Y130831D02*
X348812Y130695D01*
X347852Y130298D01*
X347028Y129665D01*
X346395Y128841D01*
X345998Y127881D01*
X345862Y126850D01*
X345998Y125820D01*
X346395Y124860D01*
X347028Y124036D01*
X347852Y123403D01*
X348812Y123005D01*
X349843Y122870D01*
X350873Y123005D01*
X351833Y123403D01*
X352657Y124036D01*
X353290Y124860D01*
X353687Y125820D01*
X353823Y126850D01*
X353687Y127881D01*
X353290Y128841D01*
X352657Y129665D01*
X351833Y130298D01*
X350873Y130695D01*
X349843Y130831D01*
D02*
G37*
G36*
X338189Y121895D02*
X337494Y121756D01*
X336905Y121363D01*
X336511Y120774D01*
X336373Y120079D01*
X336511Y119384D01*
X336905Y118795D01*
X337494Y118401D01*
X338189Y118263D01*
X338884Y118401D01*
X339473Y118795D01*
X339867Y119384D01*
X340005Y120079D01*
X339867Y120774D01*
X339473Y121363D01*
X338884Y121756D01*
X338189Y121895D01*
D02*
G37*
G36*
X316693Y123823D02*
X315663Y123687D01*
X314703Y123290D01*
X313878Y122657D01*
X313246Y121833D01*
X312848Y120873D01*
X312712Y119843D01*
X312848Y118812D01*
X313246Y117852D01*
X313878Y117028D01*
X314703Y116395D01*
X315663Y115998D01*
X316693Y115862D01*
X317723Y115998D01*
X318683Y116395D01*
X319508Y117028D01*
X320140Y117852D01*
X320538Y118812D01*
X320673Y119843D01*
X320538Y120873D01*
X320140Y121833D01*
X319508Y122657D01*
X318683Y123290D01*
X317723Y123687D01*
X316693Y123823D01*
D02*
G37*
G36*
X306693D02*
X305663Y123687D01*
X304703Y123290D01*
X303878Y122657D01*
X303246Y121833D01*
X302848Y120873D01*
X302712Y119843D01*
X302848Y118812D01*
X303246Y117852D01*
X303878Y117028D01*
X304703Y116395D01*
X305663Y115998D01*
X306693Y115862D01*
X307723Y115998D01*
X308683Y116395D01*
X309507Y117028D01*
X310140Y117852D01*
X310538Y118812D01*
X310673Y119843D01*
X310538Y120873D01*
X310140Y121833D01*
X309507Y122657D01*
X308683Y123290D01*
X307723Y123687D01*
X306693Y123823D01*
D02*
G37*
G36*
X376910Y114328D02*
X373760D01*
X372834Y114144D01*
X372050Y113620D01*
X371526Y112835D01*
X371342Y111910D01*
X371526Y110985D01*
X372050Y110200D01*
X372834Y109676D01*
X373760Y109492D01*
X376910D01*
X377835Y109676D01*
X378620Y110200D01*
X379144Y110985D01*
X379328Y111910D01*
X379144Y112835D01*
X378620Y113620D01*
X377835Y114144D01*
X376910Y114328D01*
D02*
G37*
G36*
X364981D02*
X359075D01*
X358149Y114144D01*
X357365Y113620D01*
X356841Y112835D01*
X356657Y111910D01*
X356841Y110985D01*
X357365Y110200D01*
X358149Y109676D01*
X359075Y109492D01*
X364981D01*
X365906Y109676D01*
X366690Y110200D01*
X367214Y110985D01*
X367398Y111910D01*
X367214Y112835D01*
X366690Y113620D01*
X365906Y114144D01*
X364981Y114328D01*
D02*
G37*
G36*
X316693Y113823D02*
X315663Y113687D01*
X314703Y113290D01*
X313878Y112657D01*
X313246Y111833D01*
X312848Y110873D01*
X312712Y109843D01*
X312848Y108812D01*
X313246Y107852D01*
X313878Y107028D01*
X314703Y106395D01*
X315663Y105998D01*
X316693Y105862D01*
X317723Y105998D01*
X318683Y106395D01*
X319508Y107028D01*
X320140Y107852D01*
X320538Y108812D01*
X320673Y109843D01*
X320538Y110873D01*
X320140Y111833D01*
X319508Y112657D01*
X318683Y113290D01*
X317723Y113687D01*
X316693Y113823D01*
D02*
G37*
G36*
X306693D02*
X305663Y113687D01*
X304703Y113290D01*
X303878Y112657D01*
X303246Y111833D01*
X302848Y110873D01*
X302712Y109843D01*
X302848Y108812D01*
X303246Y107852D01*
X303878Y107028D01*
X304703Y106395D01*
X305663Y105998D01*
X306693Y105862D01*
X307723Y105998D01*
X308683Y106395D01*
X309507Y107028D01*
X310140Y107852D01*
X310538Y108812D01*
X310673Y109843D01*
X310538Y110873D01*
X310140Y111833D01*
X309507Y112657D01*
X308683Y113290D01*
X307723Y113687D01*
X306693Y113823D01*
D02*
G37*
G36*
X206299Y103391D02*
X205604Y103253D01*
X205015Y102859D01*
X204622Y102270D01*
X204483Y101575D01*
X204622Y100880D01*
X205015Y100291D01*
X205604Y99897D01*
X206299Y99759D01*
X206994Y99897D01*
X207583Y100291D01*
X207977Y100880D01*
X208115Y101575D01*
X207977Y102270D01*
X207583Y102859D01*
X206994Y103253D01*
X206299Y103391D01*
D02*
G37*
G36*
X183465D02*
X182770Y103253D01*
X182181Y102859D01*
X181787Y102270D01*
X181649Y101575D01*
X181787Y100880D01*
X182181Y100291D01*
X182770Y99897D01*
X183465Y99759D01*
X184160Y99897D01*
X184749Y100291D01*
X185142Y100880D01*
X185281Y101575D01*
X185142Y102270D01*
X184749Y102859D01*
X184160Y103253D01*
X183465Y103391D01*
D02*
G37*
G36*
X195275Y100241D02*
X194581Y100103D01*
X193991Y99709D01*
X193598Y99120D01*
X193460Y98425D01*
X193598Y97730D01*
X193991Y97141D01*
X194581Y96747D01*
X195275Y96609D01*
X195970Y96747D01*
X196560Y97141D01*
X196953Y97730D01*
X197091Y98425D01*
X196953Y99120D01*
X196560Y99709D01*
X195970Y100103D01*
X195275Y100241D01*
D02*
G37*
G36*
X377953Y99454D02*
X377258Y99316D01*
X376669Y98922D01*
X376275Y98333D01*
X376137Y97638D01*
X376275Y96943D01*
X376669Y96354D01*
X377258Y95960D01*
X377953Y95822D01*
X378648Y95960D01*
X379237Y96354D01*
X379630Y96943D01*
X379769Y97638D01*
X379630Y98333D01*
X379237Y98922D01*
X378648Y99316D01*
X377953Y99454D01*
D02*
G37*
G36*
X183071Y97485D02*
X182376Y97347D01*
X181787Y96953D01*
X181393Y96364D01*
X181255Y95669D01*
X181393Y94974D01*
X181787Y94385D01*
X182376Y93992D01*
X183071Y93853D01*
X183766Y93992D01*
X184355Y94385D01*
X184749Y94974D01*
X184887Y95669D01*
X184749Y96364D01*
X184355Y96953D01*
X183766Y97347D01*
X183071Y97485D01*
D02*
G37*
G36*
X175197Y97092D02*
X174502Y96953D01*
X173913Y96560D01*
X173519Y95970D01*
X173381Y95276D01*
X173519Y94581D01*
X173913Y93992D01*
X174502Y93598D01*
X175197Y93460D01*
X175892Y93598D01*
X176481Y93992D01*
X176875Y94581D01*
X177013Y95276D01*
X176875Y95970D01*
X176481Y96560D01*
X175892Y96953D01*
X175197Y97092D01*
D02*
G37*
G36*
X351181Y96698D02*
X350486Y96560D01*
X349897Y96166D01*
X349503Y95577D01*
X349365Y94882D01*
X349503Y94187D01*
X349897Y93598D01*
X350486Y93204D01*
X351181Y93066D01*
X351876Y93204D01*
X352465Y93598D01*
X352859Y94187D01*
X352997Y94882D01*
X352859Y95577D01*
X352465Y96166D01*
X351876Y96560D01*
X351181Y96698D01*
D02*
G37*
G36*
X277559Y96304D02*
X276864Y96166D01*
X276275Y95772D01*
X275881Y95183D01*
X275743Y94488D01*
X275881Y93793D01*
X276275Y93204D01*
X276864Y92810D01*
X277559Y92672D01*
X278254Y92810D01*
X278843Y93204D01*
X279237Y93793D01*
X279375Y94488D01*
X279237Y95183D01*
X278843Y95772D01*
X278254Y96166D01*
X277559Y96304D01*
D02*
G37*
G36*
X138189Y90755D02*
X137494Y90616D01*
X136905Y90223D01*
X136511Y89634D01*
X136373Y88939D01*
X136511Y88244D01*
X136905Y87655D01*
X137494Y87261D01*
X138189Y87123D01*
X138884Y87261D01*
X139473Y87655D01*
X139867Y88244D01*
X140005Y88939D01*
X139867Y89634D01*
X139473Y90223D01*
X138884Y90616D01*
X138189Y90755D01*
D02*
G37*
G36*
X363484Y108511D02*
X362750Y108365D01*
X362129Y107950D01*
X361713Y107328D01*
X361567Y106595D01*
X361713Y105862D01*
X362129Y105240D01*
X362231Y105172D01*
Y104672D01*
X362129Y104603D01*
X361713Y103981D01*
X361567Y103248D01*
X361713Y102515D01*
X362129Y101893D01*
X362230Y101825D01*
Y101325D01*
X362129Y101257D01*
X361713Y100635D01*
X361567Y99902D01*
X361713Y99169D01*
X362129Y98547D01*
X362231Y98479D01*
Y97979D01*
X362129Y97910D01*
X361713Y97288D01*
X361567Y96555D01*
X361713Y95822D01*
X362129Y95200D01*
X362230Y95132D01*
Y94632D01*
X362129Y94564D01*
X361713Y93942D01*
X361567Y93209D01*
X361713Y92476D01*
X362129Y91854D01*
X362231Y91786D01*
Y91286D01*
X362129Y91217D01*
X361713Y90595D01*
X361567Y89862D01*
X361713Y89129D01*
X362129Y88507D01*
X362230Y88439D01*
Y87939D01*
X362129Y87871D01*
X361713Y87249D01*
X361567Y86516D01*
X361713Y85783D01*
X362129Y85161D01*
X362231Y85093D01*
Y84592D01*
X362129Y84524D01*
X361713Y83902D01*
X361567Y83169D01*
X361713Y82436D01*
X362129Y81814D01*
X362750Y81398D01*
X363484Y81253D01*
X364217Y81398D01*
X364839Y81814D01*
X365254Y82436D01*
X365400Y83169D01*
X365254Y83902D01*
X364839Y84524D01*
X364736Y84592D01*
Y85093D01*
X364839Y85161D01*
X365254Y85783D01*
X365400Y86516D01*
X365254Y87249D01*
X364839Y87871D01*
X364737Y87939D01*
Y88439D01*
X364839Y88507D01*
X365254Y89129D01*
X365400Y89862D01*
X365254Y90595D01*
X364839Y91217D01*
X364736Y91286D01*
Y91786D01*
X364839Y91854D01*
X365254Y92476D01*
X365400Y93209D01*
X365254Y93942D01*
X364839Y94564D01*
X364737Y94632D01*
Y95132D01*
X364839Y95200D01*
X365254Y95822D01*
X365400Y96555D01*
X365254Y97288D01*
X364839Y97910D01*
X364736Y97979D01*
Y98479D01*
X364839Y98547D01*
X365254Y99169D01*
X365400Y99902D01*
X365254Y100635D01*
X364839Y101257D01*
X364737Y101325D01*
Y101825D01*
X364839Y101893D01*
X365254Y102515D01*
X365400Y103248D01*
X365254Y103981D01*
X364839Y104603D01*
X364736Y104672D01*
Y105172D01*
X364839Y105240D01*
X365254Y105862D01*
X365400Y106595D01*
X365254Y107328D01*
X364839Y107950D01*
X364217Y108365D01*
X363484Y108511D01*
D02*
G37*
G36*
X358170D02*
X357436Y108365D01*
X356815Y107950D01*
X356399Y107328D01*
X356253Y106595D01*
X356399Y105862D01*
X356815Y105240D01*
X356917Y105172D01*
Y104672D01*
X356815Y104603D01*
X356399Y103981D01*
X356253Y103248D01*
X356399Y102515D01*
X356815Y101893D01*
X356916Y101825D01*
Y101325D01*
X356815Y101257D01*
X356399Y100635D01*
X356253Y99902D01*
X356399Y99169D01*
X356815Y98547D01*
X356917Y98479D01*
Y97979D01*
X356815Y97910D01*
X356399Y97288D01*
X356253Y96555D01*
X356399Y95822D01*
X356815Y95200D01*
X356916Y95132D01*
Y94632D01*
X356815Y94564D01*
X356399Y93942D01*
X356253Y93209D01*
X356399Y92476D01*
X356815Y91854D01*
X356917Y91786D01*
Y91286D01*
X356815Y91217D01*
X356399Y90595D01*
X356253Y89862D01*
X356399Y89129D01*
X356815Y88507D01*
X356916Y88439D01*
Y87939D01*
X356815Y87871D01*
X356399Y87249D01*
X356253Y86516D01*
X356399Y85783D01*
X356815Y85161D01*
X356917Y85093D01*
Y84592D01*
X356815Y84524D01*
X356399Y83902D01*
X356253Y83169D01*
X356399Y82436D01*
X356815Y81814D01*
X357436Y81398D01*
X358170Y81253D01*
X358903Y81398D01*
X359525Y81814D01*
X359940Y82436D01*
X360086Y83169D01*
X359940Y83902D01*
X359525Y84524D01*
X359422Y84592D01*
Y85093D01*
X359525Y85161D01*
X359940Y85783D01*
X360086Y86516D01*
X359940Y87249D01*
X359525Y87871D01*
X359423Y87939D01*
Y88439D01*
X359525Y88507D01*
X359940Y89129D01*
X360086Y89862D01*
X359940Y90595D01*
X359525Y91217D01*
X359422Y91286D01*
Y91786D01*
X359525Y91854D01*
X359940Y92476D01*
X360086Y93209D01*
X359940Y93942D01*
X359525Y94564D01*
X359423Y94632D01*
Y95132D01*
X359525Y95200D01*
X359940Y95822D01*
X360086Y96555D01*
X359940Y97288D01*
X359525Y97910D01*
X359422Y97979D01*
Y98479D01*
X359525Y98547D01*
X359940Y99169D01*
X360086Y99902D01*
X359940Y100635D01*
X359525Y101257D01*
X359423Y101325D01*
Y101825D01*
X359525Y101893D01*
X359940Y102515D01*
X360086Y103248D01*
X359940Y103981D01*
X359525Y104603D01*
X359422Y104672D01*
Y105172D01*
X359525Y105240D01*
X359940Y105862D01*
X360086Y106595D01*
X359940Y107328D01*
X359525Y107950D01*
X358903Y108365D01*
X358170Y108511D01*
D02*
G37*
G36*
X137894Y83903D02*
X137199Y83764D01*
X136610Y83371D01*
X136216Y82781D01*
X136078Y82087D01*
X136216Y81392D01*
X136610Y80803D01*
X137199Y80409D01*
X137894Y80271D01*
X138589Y80409D01*
X139178Y80803D01*
X139571Y81392D01*
X139710Y82087D01*
X139571Y82781D01*
X139178Y83371D01*
X138589Y83764D01*
X137894Y83903D01*
D02*
G37*
G36*
X181595Y81540D02*
X180900Y81402D01*
X180310Y81008D01*
X179917Y80419D01*
X179779Y79724D01*
X179917Y79030D01*
X180310Y78440D01*
X180900Y78047D01*
X181595Y77908D01*
X182289Y78047D01*
X182879Y78440D01*
X183272Y79030D01*
X183411Y79724D01*
X183272Y80419D01*
X182879Y81008D01*
X182289Y81402D01*
X181595Y81540D01*
D02*
G37*
G36*
X313779Y79375D02*
X313085Y79237D01*
X312495Y78843D01*
X312102Y78254D01*
X311964Y77559D01*
X312102Y76864D01*
X312495Y76275D01*
X313085Y75881D01*
X313779Y75743D01*
X314475Y75881D01*
X315064Y76275D01*
X315457Y76864D01*
X315596Y77559D01*
X315457Y78254D01*
X315064Y78843D01*
X314475Y79237D01*
X313779Y79375D01*
D02*
G37*
G36*
X376910Y80272D02*
X373760D01*
X372834Y80088D01*
X372050Y79564D01*
X371526Y78779D01*
X371342Y77854D01*
X371526Y76929D01*
X372050Y76144D01*
X372834Y75620D01*
X373760Y75436D01*
X376910D01*
X377835Y75620D01*
X378620Y76144D01*
X379144Y76929D01*
X379328Y77854D01*
X379144Y78779D01*
X378620Y79564D01*
X377835Y80088D01*
X376910Y80272D01*
D02*
G37*
G36*
X364981D02*
X359075D01*
X358149Y80088D01*
X357365Y79564D01*
X356841Y78779D01*
X356657Y77854D01*
X356841Y76929D01*
X357365Y76144D01*
X358149Y75620D01*
X359075Y75436D01*
X364981D01*
X365906Y75620D01*
X366690Y76144D01*
X367214Y76929D01*
X367398Y77854D01*
X367214Y78779D01*
X366690Y79564D01*
X365906Y80088D01*
X364981Y80272D01*
D02*
G37*
G36*
X306299Y77013D02*
X305604Y76875D01*
X305015Y76481D01*
X304622Y75892D01*
X304483Y75197D01*
X304622Y74502D01*
X305015Y73913D01*
X305604Y73519D01*
X306299Y73381D01*
X306994Y73519D01*
X307583Y73913D01*
X307977Y74502D01*
X308115Y75197D01*
X307977Y75892D01*
X307583Y76481D01*
X306994Y76875D01*
X306299Y77013D01*
D02*
G37*
G36*
X256693Y76225D02*
X255998Y76087D01*
X255409Y75694D01*
X255015Y75104D01*
X254877Y74410D01*
X255015Y73715D01*
X255409Y73125D01*
X255998Y72732D01*
X256693Y72593D01*
X257388Y72732D01*
X257977Y73125D01*
X258371Y73715D01*
X258509Y74410D01*
X258371Y75104D01*
X257977Y75694D01*
X257388Y76087D01*
X256693Y76225D01*
D02*
G37*
G36*
X331890Y78794D02*
X331195Y78656D01*
X330606Y78262D01*
X330212Y77673D01*
X330074Y76978D01*
X330212Y76283D01*
X330606Y75694D01*
Y75300D01*
X330212Y74711D01*
X330074Y74016D01*
X330212Y73321D01*
X330606Y72732D01*
X331195Y72338D01*
X331890Y72200D01*
X332585Y72338D01*
X333174Y72732D01*
X333568Y73321D01*
X333706Y74016D01*
X333568Y74711D01*
X333174Y75300D01*
Y75694D01*
X333568Y76283D01*
X333706Y76978D01*
X333568Y77673D01*
X333174Y78262D01*
X332585Y78656D01*
X331890Y78794D01*
D02*
G37*
G36*
X243701Y75438D02*
X243006Y75300D01*
X242417Y74906D01*
X242023Y74317D01*
X241885Y73622D01*
X242023Y72927D01*
X242417Y72338D01*
X243006Y71944D01*
X243701Y71806D01*
X244396Y71944D01*
X244985Y72338D01*
X245378Y72927D01*
X245517Y73622D01*
X245378Y74317D01*
X244985Y74906D01*
X244396Y75300D01*
X243701Y75438D01*
D02*
G37*
G36*
X172047Y75143D02*
X171352Y75005D01*
X170763Y74611D01*
X170370Y74022D01*
X170231Y73327D01*
X170370Y72632D01*
X170763Y72043D01*
X171352Y71649D01*
X172047Y71511D01*
X172742Y71649D01*
X173331Y72043D01*
X173725Y72632D01*
X173863Y73327D01*
X173725Y74022D01*
X173331Y74611D01*
X172742Y75005D01*
X172047Y75143D01*
D02*
G37*
G36*
X133465Y73470D02*
X132770Y73331D01*
X132181Y72938D01*
X131787Y72348D01*
X131649Y71653D01*
X131787Y70959D01*
X132181Y70369D01*
X132770Y69976D01*
X133465Y69837D01*
X134160Y69976D01*
X134749Y70369D01*
X135142Y70959D01*
X135281Y71653D01*
X135142Y72348D01*
X134749Y72938D01*
X134160Y73331D01*
X133465Y73470D01*
D02*
G37*
G36*
X343307Y71895D02*
X342612Y71757D01*
X342023Y71363D01*
X341629Y70774D01*
X341491Y70079D01*
X341629Y69384D01*
X342023Y68795D01*
X342612Y68401D01*
X343307Y68263D01*
X344002Y68401D01*
X344591Y68795D01*
X344985Y69384D01*
X345123Y70079D01*
X344985Y70774D01*
X344591Y71363D01*
X344002Y71757D01*
X343307Y71895D01*
D02*
G37*
G36*
X181890Y70025D02*
X181195Y69886D01*
X180606Y69493D01*
X180212Y68904D01*
X180074Y68209D01*
X180212Y67514D01*
X180606Y66925D01*
X181195Y66531D01*
X181890Y66393D01*
X182585Y66531D01*
X183174Y66925D01*
X183568Y67514D01*
X183706Y68209D01*
X183568Y68904D01*
X183174Y69493D01*
X182585Y69886D01*
X181890Y70025D01*
D02*
G37*
G36*
X324852Y68745D02*
X324157Y68607D01*
X323568Y68213D01*
X323174Y67624D01*
X323036Y66929D01*
X323174Y66234D01*
X323568Y65645D01*
X324157Y65251D01*
X324852Y65113D01*
X325547Y65251D01*
X326136Y65645D01*
X326530Y66234D01*
X326668Y66929D01*
X326530Y67624D01*
X326136Y68213D01*
X325547Y68607D01*
X324852Y68745D01*
D02*
G37*
G36*
X274803Y67958D02*
X274108Y67819D01*
X273519Y67426D01*
X273125Y66837D01*
X272987Y66142D01*
X273125Y65447D01*
X273519Y64858D01*
X274108Y64464D01*
X274803Y64326D01*
X275498Y64464D01*
X276087Y64858D01*
X276481Y65447D01*
X276619Y66142D01*
X276481Y66837D01*
X276087Y67426D01*
X275498Y67819D01*
X274803Y67958D01*
D02*
G37*
G36*
X346063Y66777D02*
X345368Y66638D01*
X344779Y66245D01*
X344385Y65656D01*
X344247Y64961D01*
X344385Y64266D01*
X344779Y63677D01*
X345368Y63283D01*
X346063Y63145D01*
X346758Y63283D01*
X347347Y63677D01*
X347741Y64266D01*
X347879Y64961D01*
X347741Y65656D01*
X347347Y66245D01*
X346758Y66638D01*
X346063Y66777D01*
D02*
G37*
G36*
X244882Y64414D02*
X244187Y64276D01*
X243598Y63882D01*
X243204Y63293D01*
X243066Y62598D01*
X243204Y61904D01*
X243598Y61314D01*
X244187Y60921D01*
X244882Y60782D01*
X245577Y60921D01*
X246166Y61314D01*
X246560Y61904D01*
X246698Y62598D01*
X246560Y63293D01*
X246166Y63882D01*
X245577Y64276D01*
X244882Y64414D01*
D02*
G37*
G36*
X224016Y64021D02*
X223321Y63882D01*
X222732Y63489D01*
X222338Y62900D01*
X222200Y62205D01*
X222338Y61510D01*
X222732Y60921D01*
X223321Y60527D01*
X224016Y60389D01*
X224711Y60527D01*
X225300Y60921D01*
X225693Y61510D01*
X225832Y62205D01*
X225693Y62900D01*
X225300Y63489D01*
X224711Y63882D01*
X224016Y64021D01*
D02*
G37*
G36*
X314819Y62840D02*
X314124Y62701D01*
X313535Y62308D01*
X313142Y61719D01*
X313003Y61024D01*
X313142Y60329D01*
X313535Y59740D01*
X314124Y59346D01*
X314819Y59208D01*
X315514Y59346D01*
X316103Y59740D01*
X316497Y60329D01*
X316635Y61024D01*
X316497Y61719D01*
X316103Y62308D01*
X315514Y62701D01*
X314819Y62840D01*
D02*
G37*
G36*
X298031Y60674D02*
X297337Y60536D01*
X296747Y60142D01*
X296354Y59553D01*
X296216Y58858D01*
X296354Y58163D01*
X296747Y57574D01*
X297337Y57181D01*
X298031Y57042D01*
X298727Y57181D01*
X299316Y57574D01*
X299709Y58163D01*
X299848Y58858D01*
X299709Y59553D01*
X299316Y60142D01*
X298727Y60536D01*
X298031Y60674D01*
D02*
G37*
G36*
X279134Y57328D02*
X278439Y57190D01*
X277850Y56796D01*
X277456Y56207D01*
X277318Y55512D01*
X277456Y54817D01*
X277850Y54228D01*
X278439Y53834D01*
X279134Y53696D01*
X279829Y53834D01*
X280418Y54228D01*
X280812Y54817D01*
X280950Y55512D01*
X280812Y56207D01*
X280418Y56796D01*
X279829Y57190D01*
X279134Y57328D01*
D02*
G37*
G36*
X333177Y56927D02*
X332482Y56788D01*
X331893Y56395D01*
X331499Y55806D01*
X331361Y55111D01*
X331499Y54416D01*
X331893Y53827D01*
X332482Y53433D01*
X333177Y53295D01*
X333872Y53433D01*
X334461Y53827D01*
X334854Y54416D01*
X334993Y55111D01*
X334854Y55806D01*
X334461Y56395D01*
X333872Y56788D01*
X333177Y56927D01*
D02*
G37*
G36*
X377559Y55359D02*
X376864Y55221D01*
X376275Y54827D01*
X375881Y54238D01*
X375743Y53543D01*
X375881Y52848D01*
X376275Y52259D01*
X376864Y51866D01*
X377559Y51727D01*
X378254Y51866D01*
X378843Y52259D01*
X379237Y52848D01*
X379375Y53543D01*
X379237Y54238D01*
X378843Y54827D01*
X378254Y55221D01*
X377559Y55359D01*
D02*
G37*
G36*
X249080Y53578D02*
X248385Y53440D01*
X247796Y53046D01*
X247403Y52457D01*
X247264Y51762D01*
X247403Y51067D01*
X247796Y50478D01*
X248385Y50084D01*
X249080Y49946D01*
X249775Y50084D01*
X250364Y50478D01*
X250758Y51067D01*
X250896Y51762D01*
X250758Y52457D01*
X250364Y53046D01*
X249775Y53440D01*
X249080Y53578D01*
D02*
G37*
G36*
X316666Y54381D02*
X315971Y54242D01*
X315382Y53849D01*
X314988Y53259D01*
X314869Y52659D01*
X314739Y52466D01*
X314417Y52180D01*
X313872Y52071D01*
X313283Y51678D01*
X312889Y51089D01*
X312751Y50394D01*
X312889Y49699D01*
X313283Y49110D01*
X313872Y48716D01*
X314567Y48578D01*
X315262Y48716D01*
X315851Y49110D01*
X316245Y49699D01*
X316364Y50299D01*
X316494Y50492D01*
X316816Y50778D01*
X317361Y50887D01*
X317950Y51280D01*
X318344Y51870D01*
X318482Y52565D01*
X318344Y53259D01*
X317950Y53849D01*
X317361Y54242D01*
X316666Y54381D01*
D02*
G37*
G36*
X266929Y51816D02*
X266234Y51678D01*
X265645Y51284D01*
X265251Y50695D01*
X265113Y50000D01*
X265251Y49305D01*
X265645Y48716D01*
X266234Y48322D01*
X266929Y48184D01*
X267624Y48322D01*
X268213Y48716D01*
X268607Y49305D01*
X268745Y50000D01*
X268607Y50695D01*
X268213Y51284D01*
X267624Y51678D01*
X266929Y51816D01*
D02*
G37*
G36*
X240158Y51029D02*
X239462Y50890D01*
X238873Y50497D01*
X238480Y49907D01*
X238341Y49213D01*
X238480Y48518D01*
X238873Y47929D01*
X239462Y47535D01*
X240158Y47397D01*
X240852Y47535D01*
X241442Y47929D01*
X241835Y48518D01*
X241973Y49213D01*
X241835Y49907D01*
X241442Y50497D01*
X240852Y50890D01*
X240158Y51029D01*
D02*
G37*
G36*
X298819Y49454D02*
X298124Y49316D01*
X297535Y48922D01*
X297141Y48333D01*
X297003Y47638D01*
X297141Y46943D01*
X297535Y46354D01*
X298124Y45960D01*
X298819Y45822D01*
X299514Y45960D01*
X300103Y46354D01*
X300497Y46943D01*
X300635Y47638D01*
X300497Y48333D01*
X300103Y48922D01*
X299514Y49316D01*
X298819Y49454D01*
D02*
G37*
G36*
X242126Y45123D02*
X241431Y44985D01*
X240842Y44591D01*
X240448Y44002D01*
X240310Y43307D01*
X240448Y42612D01*
X240842Y42023D01*
X241431Y41629D01*
X242126Y41491D01*
X242821Y41629D01*
X243410Y42023D01*
X243804Y42612D01*
X243942Y43307D01*
X243804Y44002D01*
X243410Y44591D01*
X242821Y44985D01*
X242126Y45123D01*
D02*
G37*
G36*
X246457Y39611D02*
X245762Y39473D01*
X245173Y39079D01*
X244779Y38490D01*
X244641Y37795D01*
X244779Y37100D01*
X245173Y36511D01*
X245762Y36118D01*
X246457Y35979D01*
X247152Y36118D01*
X247741Y36511D01*
X248134Y37100D01*
X248273Y37795D01*
X248134Y38490D01*
X247741Y39079D01*
X247152Y39473D01*
X246457Y39611D01*
D02*
G37*
G36*
X315945Y39218D02*
X315250Y39079D01*
X314661Y38686D01*
X314267Y38096D01*
X314129Y37402D01*
X314267Y36707D01*
X314661Y36118D01*
X315250Y35724D01*
X315133Y35246D01*
X314961Y35281D01*
X314266Y35142D01*
X313677Y34749D01*
X313283Y34159D01*
X313145Y33465D01*
X313283Y32770D01*
X313677Y32181D01*
X314266Y31787D01*
X314961Y31649D01*
X315656Y31787D01*
X316245Y32181D01*
X316638Y32770D01*
X316777Y33465D01*
X316638Y34159D01*
X316245Y34749D01*
X315656Y35142D01*
X315772Y35620D01*
X315945Y35586D01*
X316640Y35724D01*
X317229Y36118D01*
X317623Y36707D01*
X317761Y37402D01*
X317623Y38096D01*
X317229Y38686D01*
X316640Y39079D01*
X315945Y39218D01*
D02*
G37*
G36*
X265354Y37249D02*
X264659Y37111D01*
X264070Y36717D01*
X263677Y36128D01*
X263538Y35433D01*
X263677Y34738D01*
X264070Y34149D01*
X264659Y33755D01*
X265354Y33617D01*
X266049Y33755D01*
X266638Y34149D01*
X267032Y34738D01*
X267170Y35433D01*
X267032Y36128D01*
X266638Y36717D01*
X266049Y37111D01*
X265354Y37249D01*
D02*
G37*
G36*
X340551Y36265D02*
X339856Y36127D01*
X339267Y35733D01*
X338873Y35144D01*
X338735Y34449D01*
X338873Y33754D01*
X339267Y33165D01*
X339856Y32771D01*
X340551Y32633D01*
X341246Y32771D01*
X341835Y33165D01*
X342229Y33754D01*
X342367Y34449D01*
X342229Y35144D01*
X341835Y35733D01*
X341246Y36127D01*
X340551Y36265D01*
D02*
G37*
G36*
X251969Y34100D02*
X251273Y33961D01*
X250684Y33568D01*
X250291Y32978D01*
X250152Y32283D01*
X250291Y31589D01*
X250684Y30999D01*
X251273Y30606D01*
X251969Y30468D01*
X252663Y30606D01*
X253253Y30999D01*
X253646Y31589D01*
X253784Y32283D01*
X253646Y32978D01*
X253253Y33568D01*
X252663Y33961D01*
X251969Y34100D01*
D02*
G37*
G36*
X290053Y31054D02*
X289358Y30916D01*
X288769Y30522D01*
X288375Y29933D01*
X288237Y29238D01*
X288375Y28543D01*
X288769Y27954D01*
X289358Y27560D01*
X290053Y27422D01*
X290748Y27560D01*
X291337Y27954D01*
X291731Y28543D01*
X291869Y29238D01*
X291731Y29933D01*
X291337Y30522D01*
X290748Y30916D01*
X290053Y31054D01*
D02*
G37*
G36*
X338583Y30359D02*
X337888Y30221D01*
X337299Y29827D01*
X336905Y29238D01*
X336767Y28543D01*
X336905Y27848D01*
X337299Y27259D01*
X337888Y26866D01*
X338583Y26727D01*
X339278Y26866D01*
X339867Y27259D01*
X340260Y27848D01*
X340399Y28543D01*
X340260Y29238D01*
X339867Y29827D01*
X339278Y30221D01*
X338583Y30359D01*
D02*
G37*
G36*
X243701Y32918D02*
X243006Y32780D01*
X242417Y32386D01*
X242023Y31797D01*
X241885Y31102D01*
X242023Y30407D01*
X242417Y29818D01*
X242696Y29631D01*
Y29030D01*
X242417Y28843D01*
X242023Y28254D01*
X241885Y27559D01*
X242023Y26864D01*
X242417Y26275D01*
X243006Y25881D01*
X243701Y25743D01*
X244396Y25881D01*
X244985Y26275D01*
X245378Y26864D01*
X245517Y27559D01*
X245378Y28254D01*
X244985Y28843D01*
X244705Y29030D01*
Y29631D01*
X244985Y29818D01*
X245378Y30407D01*
X245517Y31102D01*
X245378Y31797D01*
X244985Y32386D01*
X244396Y32780D01*
X243701Y32918D01*
D02*
G37*
G36*
X284252Y20320D02*
X283557Y20182D01*
X282968Y19788D01*
X282574Y19199D01*
X282436Y18504D01*
X282574Y17809D01*
X282968Y17220D01*
X283557Y16826D01*
X284252Y16688D01*
X284947Y16826D01*
X285536Y17220D01*
X285930Y17809D01*
X286068Y18504D01*
X285930Y19199D01*
X285536Y19788D01*
X284947Y20182D01*
X284252Y20320D01*
D02*
G37*
G36*
X269685Y19139D02*
X268990Y19001D01*
X268401Y18607D01*
X268007Y18018D01*
X267869Y17323D01*
X268007Y16628D01*
X268401Y16039D01*
X268990Y15645D01*
X269685Y15507D01*
X270380Y15645D01*
X270969Y16039D01*
X271363Y16628D01*
X271501Y17323D01*
X271363Y18018D01*
X270969Y18607D01*
X270380Y19001D01*
X269685Y19139D01*
D02*
G37*
G36*
X254566Y18510D02*
X253871Y18372D01*
X253282Y17978D01*
X252888Y17389D01*
X252750Y16694D01*
X252888Y15999D01*
X253282Y15410D01*
X253871Y15016D01*
X254566Y14878D01*
X255261Y15016D01*
X255850Y15410D01*
X256244Y15999D01*
X256382Y16694D01*
X256244Y17389D01*
X255850Y17978D01*
X255261Y18372D01*
X254566Y18510D01*
D02*
G37*
G36*
X238546Y17601D02*
X237851Y17463D01*
X237262Y17069D01*
X236868Y16480D01*
X236730Y15785D01*
X236868Y15090D01*
X237262Y14501D01*
X237851Y14107D01*
X238546Y13969D01*
X239241Y14107D01*
X239830Y14501D01*
X240223Y15090D01*
X240362Y15785D01*
X240223Y16480D01*
X239830Y17069D01*
X239241Y17463D01*
X238546Y17601D01*
D02*
G37*
G36*
X229134Y12840D02*
X228439Y12701D01*
X227850Y12308D01*
X227456Y11719D01*
X227318Y11024D01*
X227456Y10329D01*
X227850Y9740D01*
X228439Y9346D01*
X229134Y9208D01*
X229829Y9346D01*
X230418Y9740D01*
X230812Y10329D01*
X230950Y11024D01*
X230812Y11719D01*
X230418Y12308D01*
X229829Y12701D01*
X229134Y12840D01*
D02*
G37*
G36*
X236221Y7722D02*
X235525Y7583D01*
X234936Y7190D01*
X234543Y6600D01*
X234404Y5906D01*
X234543Y5211D01*
X234936Y4621D01*
X235525Y4228D01*
X236221Y4090D01*
X236915Y4228D01*
X237505Y4621D01*
X237898Y5211D01*
X238036Y5906D01*
X237898Y6600D01*
X237505Y7190D01*
X236915Y7583D01*
X236221Y7722D01*
D02*
G37*
G36*
X257480Y6934D02*
X256785Y6796D01*
X256196Y6402D01*
X255803Y5813D01*
X255664Y5118D01*
X255803Y4423D01*
X256196Y3834D01*
X256785Y3440D01*
X257480Y3302D01*
X258175Y3440D01*
X258764Y3834D01*
X259158Y4423D01*
X259296Y5118D01*
X259158Y5813D01*
X258764Y6402D01*
X258175Y6796D01*
X257480Y6934D01*
D02*
G37*
G36*
X277559Y2210D02*
X276864Y2072D01*
X276275Y1678D01*
X275881Y1089D01*
X275743Y394D01*
X275881Y-301D01*
X276275Y-890D01*
X276864Y-1284D01*
X277559Y-1422D01*
X278254Y-1284D01*
X278843Y-890D01*
X279237Y-301D01*
X279375Y394D01*
X279237Y1089D01*
X278843Y1678D01*
X278254Y2072D01*
X277559Y2210D01*
D02*
G37*
G36*
X255906Y-1727D02*
X255211Y-1866D01*
X254621Y-2259D01*
X254228Y-2848D01*
X254089Y-3543D01*
X254228Y-4238D01*
X254621Y-4827D01*
X255211Y-5221D01*
X255906Y-5359D01*
X256600Y-5221D01*
X257190Y-4827D01*
X257583Y-4238D01*
X257721Y-3543D01*
X257583Y-2848D01*
X257190Y-2259D01*
X256600Y-1866D01*
X255906Y-1727D01*
D02*
G37*
G36*
X324030Y-7239D02*
X323335Y-7377D01*
X322746Y-7771D01*
X322352Y-8360D01*
X322214Y-9055D01*
X322352Y-9750D01*
X322746Y-10339D01*
X323335Y-10733D01*
X324030Y-10871D01*
X324725Y-10733D01*
X325314Y-10339D01*
X325708Y-9750D01*
X325846Y-9055D01*
X325708Y-8360D01*
X325314Y-7771D01*
X324725Y-7377D01*
X324030Y-7239D01*
D02*
G37*
G36*
X354331Y14424D02*
X352074Y14246D01*
X349873Y13718D01*
X347782Y12852D01*
X345852Y11669D01*
X344131Y10199D01*
X342661Y8478D01*
X341479Y6548D01*
X340613Y4457D01*
X340084Y2256D01*
X339907Y-0D01*
X340084Y-2256D01*
X340613Y-4457D01*
X341479Y-6548D01*
X342661Y-8478D01*
X344131Y-10199D01*
X345852Y-11669D01*
X347782Y-12852D01*
X349873Y-13718D01*
X352074Y-14246D01*
X354331Y-14424D01*
X356587Y-14246D01*
X358788Y-13718D01*
X360879Y-12852D01*
X362809Y-11669D01*
X364530Y-10199D01*
X366000Y-8478D01*
X367183Y-6548D01*
X368049Y-4457D01*
X368577Y-2256D01*
X368755Y-0D01*
X368577Y2256D01*
X368049Y4457D01*
X367183Y6548D01*
X366000Y8478D01*
X364530Y10199D01*
X362809Y11669D01*
X360879Y12852D01*
X358788Y13718D01*
X356587Y14246D01*
X354331Y14424D01*
D02*
G37*
G36*
X260236Y-16262D02*
X259541Y-16400D01*
X258952Y-16794D01*
X258559Y-17383D01*
X258420Y-18078D01*
X258559Y-18773D01*
X258952Y-19362D01*
X259541Y-19756D01*
X260236Y-19894D01*
X260931Y-19756D01*
X261520Y-19362D01*
X261914Y-18773D01*
X262052Y-18078D01*
X261914Y-17383D01*
X261520Y-16794D01*
X260931Y-16400D01*
X260236Y-16262D01*
D02*
G37*
G36*
X287008Y-18656D02*
X286313Y-18795D01*
X285724Y-19188D01*
X285330Y-19778D01*
X285192Y-20472D01*
X285330Y-21167D01*
X285724Y-21757D01*
X286313Y-22150D01*
X287008Y-22288D01*
X287703Y-22150D01*
X288292Y-21757D01*
X288686Y-21167D01*
X288824Y-20472D01*
X288686Y-19778D01*
X288292Y-19188D01*
X287703Y-18795D01*
X287008Y-18656D01*
D02*
G37*
G36*
X297821Y-30285D02*
X297126Y-30423D01*
X296537Y-30817D01*
X296143Y-31406D01*
X296005Y-32101D01*
X296143Y-32796D01*
X296537Y-33385D01*
X297126Y-33778D01*
X297821Y-33917D01*
X298516Y-33778D01*
X299105Y-33385D01*
X299498Y-32796D01*
X299637Y-32101D01*
X299498Y-31406D01*
X299105Y-30817D01*
X298516Y-30423D01*
X297821Y-30285D01*
D02*
G37*
G36*
X241732Y-31255D02*
X241037Y-31393D01*
X240448Y-31787D01*
X240055Y-32376D01*
X239916Y-33071D01*
X240055Y-33766D01*
X240448Y-34355D01*
X241037Y-34749D01*
X241732Y-34887D01*
X242427Y-34749D01*
X243016Y-34355D01*
X243410Y-33766D01*
X243548Y-33071D01*
X243410Y-32376D01*
X243016Y-31787D01*
X242427Y-31393D01*
X241732Y-31255D01*
D02*
G37*
G36*
X279134Y-35192D02*
X278439Y-35330D01*
X277850Y-35724D01*
X277456Y-36313D01*
X277318Y-37008D01*
X277456Y-37703D01*
X277850Y-38292D01*
X278439Y-38686D01*
X279134Y-38824D01*
X279829Y-38686D01*
X280418Y-38292D01*
X280812Y-37703D01*
X280950Y-37008D01*
X280812Y-36313D01*
X280418Y-35724D01*
X279829Y-35330D01*
X279134Y-35192D01*
D02*
G37*
G36*
X283071Y-48578D02*
X282376Y-48716D01*
X281787Y-49110D01*
X281393Y-49699D01*
X281255Y-50394D01*
X281393Y-51089D01*
X281787Y-51678D01*
X282376Y-52071D01*
X283071Y-52210D01*
X283766Y-52071D01*
X284355Y-51678D01*
X284749Y-51089D01*
X284887Y-50394D01*
X284749Y-49699D01*
X284355Y-49110D01*
X283766Y-48716D01*
X283071Y-48578D01*
D02*
G37*
G36*
X244094Y-49759D02*
X243400Y-49897D01*
X242810Y-50291D01*
X242417Y-50880D01*
X242279Y-51575D01*
X242417Y-52270D01*
X242810Y-52859D01*
X243400Y-53253D01*
X244094Y-53391D01*
X244789Y-53253D01*
X245379Y-52859D01*
X245772Y-52270D01*
X245911Y-51575D01*
X245772Y-50880D01*
X245379Y-50291D01*
X244789Y-49897D01*
X244094Y-49759D01*
D02*
G37*
G36*
X234252Y-54483D02*
X233557Y-54621D01*
X232968Y-55015D01*
X232574Y-55604D01*
X232436Y-56299D01*
X232574Y-56994D01*
X232968Y-57583D01*
X233557Y-57977D01*
X234252Y-58115D01*
X234947Y-57977D01*
X235536Y-57583D01*
X235930Y-56994D01*
X236068Y-56299D01*
X235930Y-55604D01*
X235536Y-55015D01*
X234947Y-54621D01*
X234252Y-54483D01*
D02*
G37*
G36*
X237561Y-60155D02*
X236866Y-60293D01*
X236277Y-60687D01*
X235884Y-61276D01*
X235745Y-61971D01*
X235884Y-62666D01*
X236277Y-63255D01*
X236866Y-63649D01*
X237561Y-63787D01*
X238256Y-63649D01*
X238845Y-63255D01*
X239239Y-62666D01*
X239377Y-61971D01*
X239239Y-61276D01*
X238845Y-60687D01*
X238256Y-60293D01*
X237561Y-60155D01*
D02*
G37*
G36*
X268898Y-61963D02*
X268203Y-62102D01*
X267614Y-62495D01*
X267220Y-63085D01*
X267082Y-63779D01*
X267220Y-64474D01*
X267614Y-65064D01*
X268203Y-65457D01*
X268898Y-65596D01*
X269593Y-65457D01*
X270182Y-65064D01*
X270575Y-64474D01*
X270714Y-63779D01*
X270575Y-63085D01*
X270182Y-62495D01*
X269593Y-62102D01*
X268898Y-61963D01*
D02*
G37*
%LPD*%
D13*
X347685Y-22186D02*
G03*
X303483Y-53299I10474J-61835D01*
G01*
X385039Y118898D02*
X387008Y116929D01*
Y-4761D02*
Y116929D01*
X347688Y-22185D02*
X386344Y-16062D01*
X387008Y-15957D02*
Y-6693D01*
X387008Y-6693D02*
X387008Y-6693D01*
X386344Y-16062D02*
X387008Y-15957D01*
X387008Y-6693D02*
Y-4761D01*
X387008Y-4761D02*
X387008Y-4761D01*
X387008Y-6693D02*
Y-4761D01*
X347685Y-22186D02*
X347688Y-22185D01*
X279454Y-58258D02*
X300955D01*
Y-58258D02*
X303475Y-53313D01*
X303483Y-53299D01*
X279454Y-58341D02*
Y-58258D01*
X355512Y118898D02*
X385039D01*
X328740Y115748D02*
X352362D01*
X355512Y118898D01*
D145*
X349843Y156850D02*
D03*
X306693Y179842D02*
D03*
Y169843D02*
D03*
X316693D02*
D03*
D147*
X349843Y166850D02*
D03*
X316693Y179842D02*
D03*
D156*
X224410Y-35039D02*
D03*
X242520Y-83465D02*
D03*
X250787D02*
D03*
X303656Y-26123D02*
D03*
X48819Y82677D02*
D03*
X-1575Y61811D02*
D03*
X35039Y59842D02*
D03*
X323758Y29589D02*
D03*
X62894Y-25886D02*
D03*
X62795Y-15650D02*
D03*
X205118Y68405D02*
D03*
X205020Y78937D02*
D03*
X195374Y73622D02*
D03*
X-28740Y107087D02*
D03*
X-29435Y39278D02*
D03*
X-28928Y93307D02*
D03*
X-16535Y111811D02*
D03*
X-12598Y107874D02*
D03*
X62205Y-46850D02*
D03*
X163779Y122047D02*
D03*
X36220Y146457D02*
D03*
X-984Y146653D02*
D03*
X349410Y45276D02*
D03*
X342520Y40354D02*
D03*
X149606Y88939D02*
D03*
X148622Y81693D02*
D03*
X71653Y51383D02*
D03*
X224803Y94095D02*
D03*
X40945Y112205D02*
D03*
X90158Y109843D02*
D03*
X279454Y-58341D02*
D03*
X328740Y115748D02*
D03*
X128347Y-59055D02*
D03*
Y-48819D02*
D03*
Y-76378D02*
D03*
X14961Y157087D02*
D03*
X129921Y-26378D02*
D03*
X318898Y77559D02*
D03*
X259055Y84252D02*
D03*
X355118Y64961D02*
D03*
X331328Y70079D02*
D03*
X272047Y68504D02*
D03*
X82677Y-32283D02*
D03*
X235827Y38976D02*
D03*
X258268Y17852D02*
D03*
X292520Y-15748D02*
D03*
X90945Y85433D02*
D03*
X32697Y187283D02*
D03*
X-15354Y67323D02*
D03*
X-29528Y64567D02*
D03*
X90158Y69291D02*
D03*
X67716Y24409D02*
D03*
X43307Y25591D02*
D03*
X16142Y15748D02*
D03*
X-7087Y21260D02*
D03*
X71653Y146457D02*
D03*
X102362Y86614D02*
D03*
X127953Y101181D02*
D03*
M02*
