G04*
G04 #@! TF.GenerationSoftware,Altium Limited,Altium Designer,20.0.11 (256)*
G04*
G04 Layer_Color=32768*
%FSLAX25Y25*%
%MOIN*%
G70*
G01*
G75*
%ADD16C,0.00394*%
%ADD170C,0.00197*%
%ADD175C,0.00197*%
D16*
X372047Y94882D02*
X375984D01*
X374016Y92914D02*
Y96851D01*
X181102Y150295D02*
Y154232D01*
X179134Y152264D02*
X183071D01*
X167421Y91339D02*
X170571D01*
X168996Y89764D02*
Y92913D01*
X104724Y175551D02*
X108662D01*
X106693Y173583D02*
Y177520D01*
X112992Y175650D02*
X116929D01*
X114961Y173681D02*
Y177618D01*
X211772Y210039D02*
Y213188D01*
X210198Y211614D02*
X213347D01*
X260670Y210039D02*
Y213188D01*
X259095Y211614D02*
X262245D01*
X372835Y98602D02*
Y102382D01*
X370945Y100492D02*
X374724D01*
X292235Y-23513D02*
X295019Y-20729D01*
X292235D02*
X295019Y-23513D01*
X59842Y119272D02*
Y123051D01*
X57953Y121161D02*
X61732D01*
X59842Y107658D02*
Y111437D01*
X57953Y109547D02*
X61732D01*
X138189Y89567D02*
Y93504D01*
X136221Y91536D02*
X140157D01*
X137894Y80118D02*
Y84055D01*
X135925Y82087D02*
X139862D01*
X133465Y149606D02*
Y153543D01*
X131496Y151575D02*
X135433D01*
X-12126Y69980D02*
X-8346D01*
X-10236Y68091D02*
Y71870D01*
X50886Y-22736D02*
Y-18799D01*
X48917Y-20768D02*
X52854D01*
X193405Y71653D02*
Y75591D01*
X191437Y73622D02*
X195374D01*
X-10551Y46063D02*
X-6772D01*
X-8662Y44173D02*
Y47953D01*
X90847Y120866D02*
X93996D01*
X92421Y119291D02*
Y122441D01*
X340827Y92717D02*
Y96654D01*
X338858Y94685D02*
X342795D01*
X332953Y101772D02*
X348701D01*
X332953Y87598D02*
X348701D01*
X332953D02*
Y101772D01*
X348701Y87598D02*
Y101772D01*
X307461Y189370D02*
X311240D01*
X309350Y187480D02*
Y191260D01*
X327953Y180610D02*
Y184390D01*
X326063Y182500D02*
X329843D01*
X370079Y130394D02*
Y134173D01*
X368189Y132283D02*
X371969D01*
X370079Y142303D02*
Y146083D01*
X368189Y144193D02*
X371969D01*
X329626Y159843D02*
X333405D01*
X331516Y157953D02*
Y161732D01*
X331516Y147716D02*
Y151496D01*
X329626Y149606D02*
X333406D01*
X341339Y147421D02*
Y151201D01*
X339449Y149311D02*
X343228D01*
X341417Y132382D02*
Y136162D01*
X339528Y134272D02*
X343307D01*
X329626Y139842D02*
X333405D01*
X331516Y137953D02*
Y141732D01*
X329626Y120079D02*
X333405D01*
X331516Y118189D02*
Y121968D01*
X366929Y62717D02*
X370866D01*
X368898Y60748D02*
Y64685D01*
X374803Y44641D02*
Y47790D01*
X373229Y46215D02*
X376378D01*
X374803Y44685D02*
Y47835D01*
X373228Y46260D02*
X376378D01*
X319076Y33757D02*
X322855D01*
X320965Y31867D02*
Y35646D01*
X331988Y34685D02*
X335768D01*
X333878Y32795D02*
Y36575D01*
X314350Y72835D02*
X318130D01*
X316240Y70945D02*
Y74725D01*
X230413Y59842D02*
X233563D01*
X231988Y58268D02*
Y61417D01*
X251575Y87697D02*
X255512D01*
X253543Y85728D02*
Y89665D01*
X166929Y196063D02*
X170866D01*
X168898Y194095D02*
Y198032D01*
X166929Y169016D02*
X170866D01*
X168898Y167047D02*
Y170984D01*
X107947Y164567D02*
X111884D01*
X109915Y162598D02*
Y166535D01*
X122736Y164567D02*
X126673D01*
X124705Y162598D02*
Y166535D01*
X145768Y146850D02*
X149705D01*
X147736Y144882D02*
Y148819D01*
X164862Y146850D02*
X168799D01*
X166831Y144882D02*
Y148819D01*
X211910Y126339D02*
Y129488D01*
X210335Y127913D02*
X213484D01*
X224902Y119291D02*
X228838D01*
X226870Y117323D02*
Y121260D01*
X243996Y119390D02*
X247933D01*
X245965Y117421D02*
Y121358D01*
X238090Y-78740D02*
X242028D01*
X240059Y-80709D02*
Y-76772D01*
X77067Y-79921D02*
X80216D01*
X78642Y-81496D02*
Y-78347D01*
X86319Y-39764D02*
Y-35827D01*
X84350Y-37795D02*
X88287D01*
X116929Y-18504D02*
X120866D01*
X118898Y-20472D02*
Y-16535D01*
X131201Y-33858D02*
X134350D01*
X132776Y-35433D02*
Y-32283D01*
X131299Y-68898D02*
X134449D01*
X132874Y-70472D02*
Y-67323D01*
X44882Y15059D02*
Y18209D01*
X43307Y16634D02*
X46457D01*
X13484Y17795D02*
Y21575D01*
X11594Y19685D02*
X15374D01*
X63386Y153543D02*
X66535D01*
X64961Y151969D02*
Y155118D01*
X60236Y147638D02*
X63386D01*
X61811Y146063D02*
Y149213D01*
X52756Y145965D02*
Y149114D01*
X51181Y147539D02*
X54331D01*
X46457Y145965D02*
Y149114D01*
X44882Y147539D02*
X48031D01*
X18012Y149606D02*
Y153543D01*
X16043Y151575D02*
X19980D01*
X3917Y144095D02*
X7697D01*
X5807Y142205D02*
Y145984D01*
X-12205Y145571D02*
Y148721D01*
X-13779Y147146D02*
X-10630D01*
X199803Y104823D02*
Y108760D01*
X197835Y106791D02*
X201772D01*
X188779Y104823D02*
Y108760D01*
X186811Y106791D02*
X190748D01*
X116929Y-36220D02*
X120866D01*
X118898Y-38189D02*
Y-34252D01*
X233858Y127008D02*
Y130945D01*
X231890Y128976D02*
X235827D01*
X225984Y127008D02*
Y130945D01*
X224016Y128976D02*
X227953D01*
X260925Y127559D02*
X264075D01*
X262500Y125984D02*
Y129134D01*
X118853Y75984D02*
Y79133D01*
X117278Y77559D02*
X120428D01*
X118898Y75984D02*
Y79134D01*
X117323Y77559D02*
X120472D01*
X118656Y70905D02*
Y74055D01*
X117082Y72480D02*
X120231D01*
X118701Y70906D02*
Y74055D01*
X117126Y72480D02*
X120276D01*
X118853Y65748D02*
Y68897D01*
X117278Y67323D02*
X120428D01*
X118897Y65748D02*
Y68898D01*
X117323Y67323D02*
X120472D01*
X118853Y60236D02*
Y63385D01*
X117278Y61811D02*
X120428D01*
X118897Y60236D02*
Y63386D01*
X117323Y61811D02*
X120472D01*
X238780Y-30276D02*
Y-27126D01*
X237205Y-28701D02*
X240354D01*
X238824Y-30275D02*
Y-27126D01*
X237249Y-28700D02*
X240399D01*
X142027Y173996D02*
X145177D01*
X143602Y172421D02*
Y175571D01*
X88287Y173996D02*
X91437D01*
X89862Y172421D02*
Y175571D01*
D170*
X176575Y143209D02*
X185630D01*
X176575Y161319D02*
X185630D01*
X176575Y143209D02*
Y161319D01*
X185630Y143209D02*
Y161319D01*
X174705Y88583D02*
Y94095D01*
X163287Y88583D02*
Y94095D01*
Y88583D02*
X174705D01*
X163287Y94095D02*
X174705D01*
X110433Y168858D02*
Y182244D01*
X102953Y168858D02*
Y182244D01*
Y168858D02*
X110433D01*
X102953Y182244D02*
X110433D01*
X118701Y168957D02*
Y182343D01*
X111221Y168957D02*
Y182343D01*
Y168957D02*
X118701D01*
X111221Y182343D02*
X118701D01*
X206064Y208858D02*
X217481D01*
X206064Y214370D02*
X217481D01*
X206064Y208858D02*
Y214370D01*
X217481Y208858D02*
Y214370D01*
X254961D02*
X266378D01*
X254961Y208858D02*
X266378D01*
Y214370D01*
X254961Y208858D02*
Y214370D01*
X369882Y105807D02*
X375787D01*
X369882Y95177D02*
X375787D01*
X369882D02*
Y105807D01*
X375787Y95177D02*
Y105807D01*
X295715Y-14744D02*
X301004Y-20033D01*
X286250Y-24209D02*
X291539Y-29498D01*
X286250Y-24209D02*
X295715Y-14744D01*
X291539Y-29498D02*
X301004Y-20033D01*
X56890Y115847D02*
X62795D01*
X56890Y126476D02*
X62795D01*
Y115847D02*
Y126476D01*
X56890Y115847D02*
Y126476D01*
X56890Y114862D02*
X62795D01*
X56890Y104232D02*
X62795D01*
X56890D02*
Y114862D01*
X62795Y104232D02*
Y114862D01*
X129134Y87008D02*
X147244D01*
X129134Y96063D02*
X147244D01*
X129134Y87008D02*
Y96063D01*
X147244Y87008D02*
Y96063D01*
X128839Y77559D02*
X146949D01*
X128839Y86614D02*
X146949D01*
X128839Y77559D02*
Y86614D01*
X146949Y77559D02*
Y86614D01*
X128937Y142520D02*
X137992D01*
X128937Y160630D02*
X137992D01*
X128937Y142520D02*
Y160630D01*
X137992Y142520D02*
Y160630D01*
X-13189Y64665D02*
Y75295D01*
X-7283Y64665D02*
Y75295D01*
X-13189D02*
X-7283D01*
X-13189Y64665D02*
X-7283D01*
X28445Y-3839D02*
X73327D01*
X28445Y-37697D02*
X73327D01*
X28445D02*
Y-3839D01*
X73327Y-37697D02*
Y-3839D01*
X170965Y90551D02*
X215846D01*
X170965Y56693D02*
X215846D01*
X170965D02*
Y90551D01*
X215846Y56693D02*
Y90551D01*
X-13976Y43110D02*
Y49016D01*
X-3347Y43110D02*
Y49016D01*
X-13976Y43110D02*
X-3347D01*
X-13976Y49016D02*
X-3347D01*
X98130Y118110D02*
Y123622D01*
X86713Y118110D02*
Y123622D01*
Y118110D02*
X98130D01*
X86713Y123622D02*
X98130D01*
X304035Y186417D02*
Y192323D01*
X314665Y186417D02*
Y192323D01*
X304035D02*
X314665D01*
X304035Y186417D02*
X314665D01*
X325000Y177185D02*
X330906D01*
X325000Y187815D02*
X330906D01*
X325000Y177185D02*
Y187815D01*
X330906Y177185D02*
Y187815D01*
X367126Y137598D02*
X373032D01*
X367126Y126969D02*
X373032D01*
Y137598D01*
X367126Y126969D02*
Y137598D01*
X367126Y149508D02*
X373031D01*
X367126Y138878D02*
X373031D01*
Y149508D01*
X367126Y138878D02*
Y149508D01*
X326201Y156890D02*
Y162795D01*
X336831Y156890D02*
Y162795D01*
X326201D02*
X336831D01*
X326201Y156890D02*
X336831D01*
X326201Y146653D02*
X336831D01*
X326201Y152559D02*
X336831D01*
Y146653D02*
Y152559D01*
X326201Y146653D02*
Y152559D01*
X338386Y143996D02*
X344291D01*
X338386Y154626D02*
X344291D01*
X338386Y143996D02*
Y154626D01*
X344291Y143996D02*
Y154626D01*
X338465Y139587D02*
X344370D01*
X338465Y128957D02*
X344370D01*
Y139587D01*
X338465Y128957D02*
Y139587D01*
X326201Y136890D02*
Y142795D01*
X336831Y136890D02*
Y142795D01*
X326201D02*
X336831D01*
X326201Y136890D02*
X336831D01*
X326201Y117126D02*
Y123031D01*
X336831Y117126D02*
Y123031D01*
X326201D02*
X336831D01*
X326201Y117126D02*
X336831D01*
X363780Y53662D02*
Y71772D01*
X374016Y53662D02*
Y71772D01*
X363780Y53662D02*
X374016D01*
X363780Y71772D02*
X374016D01*
X326280Y30804D02*
Y36709D01*
X315650Y30804D02*
Y36709D01*
Y30804D02*
X326280D01*
X315650Y36709D02*
X326280D01*
X328563Y31732D02*
Y37638D01*
X339193Y31732D02*
Y37638D01*
X328563D02*
X339193D01*
X328563Y31732D02*
X339193D01*
X345472Y42874D02*
Y67441D01*
X320905Y42874D02*
X345472D01*
X320905D02*
Y67441D01*
X345472D01*
X321555Y69882D02*
Y75788D01*
X310925Y69882D02*
Y75788D01*
Y69882D02*
X321555D01*
X310925Y75788D02*
X321555D01*
X237697Y57087D02*
Y62598D01*
X226279Y57087D02*
Y62598D01*
Y57087D02*
X237697D01*
X226279Y62598D02*
X237697D01*
X257283Y81004D02*
Y94390D01*
X249803Y81004D02*
Y94390D01*
X257283D01*
X249803Y81004D02*
X257283D01*
X160630Y188976D02*
Y203150D01*
X177165Y188976D02*
Y203150D01*
X160630D02*
X177165D01*
X160630Y188976D02*
X177165D01*
X160630Y161929D02*
Y176102D01*
X177165Y161929D02*
Y176102D01*
X160630D02*
X177165D01*
X160630Y161929D02*
X177165D01*
X103222Y160827D02*
Y168307D01*
X116608Y160827D02*
Y168307D01*
X103222D02*
X116608D01*
X103222Y160827D02*
X116608D01*
X131398D02*
Y168307D01*
X118012Y160827D02*
Y168307D01*
Y160827D02*
X131398D01*
X118012Y168307D02*
X131398D01*
X138681Y142323D02*
Y151378D01*
X156791Y142323D02*
Y151378D01*
X138681D02*
X156791D01*
X138681Y142323D02*
X156791D01*
X175886D02*
Y151378D01*
X157775Y142323D02*
Y151378D01*
Y142323D02*
X175886D01*
X157775Y151378D02*
X175886D01*
X206201Y130669D02*
X217618D01*
X206201Y125158D02*
X217618D01*
X206201D02*
Y130669D01*
X217618Y125158D02*
Y130669D01*
X220177Y115551D02*
Y123032D01*
X233563Y115551D02*
Y123032D01*
X220177D02*
X233563D01*
X220177Y115551D02*
X233563D01*
X252658Y115650D02*
Y123130D01*
X239272Y115650D02*
Y123130D01*
Y115650D02*
X252658D01*
X239272Y123130D02*
X252658D01*
X228838Y-86417D02*
Y-71063D01*
X251280Y-86417D02*
Y-71063D01*
X228838D02*
X251280D01*
X228838Y-86417D02*
X251280D01*
X72933Y-82677D02*
Y-77165D01*
X84350Y-82677D02*
Y-77165D01*
X72933D02*
X84350D01*
X72933Y-82677D02*
X84350D01*
X79626Y-41535D02*
X93012D01*
X79626Y-34055D02*
X93012D01*
Y-41535D02*
Y-34055D01*
X79626Y-41535D02*
Y-34055D01*
X111516Y-25394D02*
Y-11614D01*
X126279Y-25394D02*
Y-11614D01*
X111516D02*
X126279D01*
X111516Y-25394D02*
X126279D01*
X127067Y-36614D02*
Y-31102D01*
X138484Y-36614D02*
Y-31102D01*
X127067D02*
X138484D01*
X127067Y-36614D02*
X138484D01*
X127165Y-71653D02*
Y-66142D01*
X138583Y-71653D02*
Y-66142D01*
X127165D02*
X138583D01*
X127165Y-71653D02*
X138583D01*
X42126Y10925D02*
X47638D01*
X42126Y22343D02*
X47638D01*
X42126Y10925D02*
Y22343D01*
X47638Y10925D02*
Y22343D01*
X8169Y22638D02*
X18799D01*
X8169Y16732D02*
X18799D01*
X8169D02*
Y22638D01*
X18799Y16732D02*
Y22638D01*
X70669Y150787D02*
Y156299D01*
X59252Y150787D02*
Y156299D01*
Y150787D02*
X70669D01*
X59252Y156299D02*
X70669D01*
X67520Y144882D02*
Y150394D01*
X56102Y144882D02*
Y150394D01*
Y144882D02*
X67520D01*
X56102Y150394D02*
X67520D01*
X50000Y153248D02*
X55512D01*
X50000Y141831D02*
X55512D01*
Y153248D01*
X50000Y141831D02*
Y153248D01*
X43701Y153248D02*
X49213D01*
X43701Y141831D02*
X49213D01*
Y153248D01*
X43701Y141831D02*
Y153248D01*
X11319Y147835D02*
X24705D01*
X11319Y155315D02*
X24705D01*
Y147835D02*
Y155315D01*
X11319Y147835D02*
Y155315D01*
X492Y141142D02*
Y147047D01*
X11122Y141142D02*
Y147047D01*
X492D02*
X11122D01*
X492Y141142D02*
X11122D01*
X-14961Y152854D02*
X-9449D01*
X-14961Y141437D02*
X-9449D01*
Y152854D01*
X-14961Y141437D02*
Y152854D01*
X195275Y115846D02*
X204331D01*
X195275Y97736D02*
X204331D01*
Y115846D01*
X195275Y97736D02*
Y115846D01*
X184252D02*
X193307D01*
X184252Y97736D02*
X193307D01*
Y115846D01*
X184252Y97736D02*
Y115846D01*
X111516Y-43110D02*
Y-29331D01*
X126279Y-43110D02*
Y-29331D01*
X111516D02*
X126279D01*
X111516Y-43110D02*
X126279D01*
X230118Y135669D02*
X237598D01*
X230118Y122283D02*
X237598D01*
X230118D02*
Y135669D01*
X237598Y122283D02*
Y135669D01*
X222244Y135669D02*
X229724D01*
X222244Y122283D02*
X229724D01*
X222244D02*
Y135669D01*
X229724Y122283D02*
Y135669D01*
X256791Y124803D02*
Y130315D01*
X268209Y124803D02*
Y130315D01*
X256791D02*
X268209D01*
X256791Y124803D02*
X268209D01*
X137894Y171240D02*
Y176752D01*
X149311Y171240D02*
Y176752D01*
X137894D02*
X149311D01*
X137894Y171240D02*
X149311D01*
X95571D02*
Y176752D01*
X84153Y171240D02*
Y176752D01*
Y171240D02*
X95571D01*
X84153Y176752D02*
X95571D01*
D175*
X393012Y74803D02*
Y115158D01*
X355020Y74803D02*
Y115158D01*
Y74803D02*
X393012D01*
X355020Y115158D02*
X393012D01*
M02*
