G04*
G04 #@! TF.GenerationSoftware,Altium Limited,Altium Designer,20.0.11 (256)*
G04*
G04 Layer_Color=255*
%FSLAX25Y25*%
%MOIN*%
G70*
G01*
G75*
%ADD21R,0.05512X0.04528*%
%ADD22R,0.01181X0.06299*%
%ADD23R,0.06299X0.01181*%
%ADD24R,0.02756X0.02362*%
%ADD25R,0.02362X0.02756*%
%ADD26R,0.07087X0.05512*%
G04:AMPARAMS|DCode=27|XSize=23.62mil|YSize=27.56mil|CornerRadius=0mil|HoleSize=0mil|Usage=FLASHONLY|Rotation=315.000|XOffset=0mil|YOffset=0mil|HoleType=Round|Shape=Rectangle|*
%AMROTATEDRECTD27*
4,1,4,-0.01810,-0.00139,0.00139,0.01810,0.01810,0.00139,-0.00139,-0.01810,-0.01810,-0.00139,0.0*
%
%ADD27ROTATEDRECTD27*%

%ADD28R,0.03347X0.03347*%
%ADD29R,0.12795X0.12795*%
%ADD30R,0.01181X0.03740*%
%ADD31R,0.03740X0.01181*%
%ADD32R,0.05512X0.06299*%
%ADD33R,0.09843X0.02953*%
G04:AMPARAMS|DCode=34|XSize=29.53mil|YSize=98.43mil|CornerRadius=7.38mil|HoleSize=0mil|Usage=FLASHONLY|Rotation=270.000|XOffset=0mil|YOffset=0mil|HoleType=Round|Shape=RoundedRectangle|*
%AMROUNDEDRECTD34*
21,1,0.02953,0.08366,0,0,270.0*
21,1,0.01476,0.09843,0,0,270.0*
1,1,0.01476,-0.04183,-0.00738*
1,1,0.01476,-0.04183,0.00738*
1,1,0.01476,0.04183,0.00738*
1,1,0.01476,0.04183,-0.00738*
%
%ADD34ROUNDEDRECTD34*%
%ADD35R,0.01968X0.00984*%
%ADD36R,0.01968X0.01378*%
%ADD37R,0.13583X0.06102*%
%ADD38R,0.03150X0.04331*%
%ADD39R,0.07087X0.03937*%
%ADD40R,0.04331X0.02559*%
%ADD41R,0.03543X0.03937*%
%ADD42R,0.03937X0.03543*%
%ADD43R,0.07992X0.04488*%
%ADD44R,0.03150X0.03150*%
%ADD45R,0.01024X0.03386*%
%ADD46R,0.03386X0.01024*%
%ADD47R,0.13780X0.13780*%
%ADD48R,0.04331X0.05118*%
G04:AMPARAMS|DCode=49|XSize=17.72mil|YSize=59.06mil|CornerRadius=0mil|HoleSize=0mil|Usage=FLASHONLY|Rotation=135.000|XOffset=0mil|YOffset=0mil|HoleType=Round|Shape=Rectangle|*
%AMROTATEDRECTD49*
4,1,4,0.02714,0.01462,-0.01462,-0.02714,-0.02714,-0.01462,0.01462,0.02714,0.02714,0.01462,0.0*
%
%ADD49ROTATEDRECTD49*%

G04:AMPARAMS|DCode=50|XSize=17.72mil|YSize=59.06mil|CornerRadius=4.43mil|HoleSize=0mil|Usage=FLASHONLY|Rotation=135.000|XOffset=0mil|YOffset=0mil|HoleType=Round|Shape=RoundedRectangle|*
%AMROUNDEDRECTD50*
21,1,0.01772,0.05020,0,0,135.0*
21,1,0.00886,0.05906,0,0,135.0*
1,1,0.00886,0.01462,0.02088*
1,1,0.00886,0.02088,0.01462*
1,1,0.00886,-0.01462,-0.02088*
1,1,0.00886,-0.02088,-0.01462*
%
%ADD50ROUNDEDRECTD50*%
%ADD51R,0.03937X0.02362*%
G04:AMPARAMS|DCode=52|XSize=23.62mil|YSize=39.37mil|CornerRadius=5.91mil|HoleSize=0mil|Usage=FLASHONLY|Rotation=90.000|XOffset=0mil|YOffset=0mil|HoleType=Round|Shape=RoundedRectangle|*
%AMROUNDEDRECTD52*
21,1,0.02362,0.02756,0,0,90.0*
21,1,0.01181,0.03937,0,0,90.0*
1,1,0.01181,0.01378,0.00591*
1,1,0.01181,0.01378,-0.00591*
1,1,0.01181,-0.01378,-0.00591*
1,1,0.01181,-0.01378,0.00591*
%
%ADD52ROUNDEDRECTD52*%
%ADD53R,0.04528X0.05512*%
%ADD54O,0.07284X0.01772*%
%ADD55R,0.05512X0.07087*%
G04:AMPARAMS|DCode=56|XSize=19.68mil|YSize=118.11mil|CornerRadius=0mil|HoleSize=0mil|Usage=FLASHONLY|Rotation=135.000|XOffset=0mil|YOffset=0mil|HoleType=Round|Shape=Rectangle|*
%AMROTATEDRECTD56*
4,1,4,0.04872,0.03480,-0.03480,-0.04872,-0.04872,-0.03480,0.03480,0.04872,0.04872,0.03480,0.0*
%
%ADD56ROTATEDRECTD56*%

G04:AMPARAMS|DCode=57|XSize=9.84mil|YSize=15.75mil|CornerRadius=0mil|HoleSize=0mil|Usage=FLASHONLY|Rotation=225.000|XOffset=0mil|YOffset=0mil|HoleType=Round|Shape=Rectangle|*
%AMROTATEDRECTD57*
4,1,4,-0.00209,0.00905,0.00905,-0.00209,0.00209,-0.00905,-0.00905,0.00209,-0.00209,0.00905,0.0*
%
%ADD57ROTATEDRECTD57*%

%ADD58R,0.11417X0.04921*%
%ADD59R,0.06299X0.05512*%
%ADD60R,0.03543X0.03150*%
%ADD61R,0.03347X0.03347*%
%ADD62R,0.07874X0.03543*%
%ADD63R,0.03543X0.07874*%
%ADD64R,0.19685X0.19685*%
%ADD65R,0.03150X0.03150*%
G04:AMPARAMS|DCode=66|XSize=31.5mil|YSize=48.82mil|CornerRadius=0mil|HoleSize=0mil|Usage=FLASHONLY|Rotation=225.000|XOffset=0mil|YOffset=0mil|HoleType=Round|Shape=Rectangle|*
%AMROTATEDRECTD66*
4,1,4,-0.00613,0.02840,0.02840,-0.00613,0.00613,-0.02840,-0.02840,0.00613,-0.00613,0.02840,0.0*
%
%ADD66ROTATEDRECTD66*%

G04:AMPARAMS|DCode=67|XSize=37.4mil|YSize=98.43mil|CornerRadius=0mil|HoleSize=0mil|Usage=FLASHONLY|Rotation=225.000|XOffset=0mil|YOffset=0mil|HoleType=Round|Shape=Rectangle|*
%AMROTATEDRECTD67*
4,1,4,-0.02158,0.04802,0.04802,-0.02158,0.02158,-0.04802,-0.04802,0.02158,-0.02158,0.04802,0.0*
%
%ADD67ROTATEDRECTD67*%

G04:AMPARAMS|DCode=68|XSize=45.28mil|YSize=86.61mil|CornerRadius=0mil|HoleSize=0mil|Usage=FLASHONLY|Rotation=225.000|XOffset=0mil|YOffset=0mil|HoleType=Round|Shape=Rectangle|*
%AMROTATEDRECTD68*
4,1,4,-0.01462,0.04663,0.04663,-0.01462,0.01462,-0.04663,-0.04663,0.01462,-0.01462,0.04663,0.0*
%
%ADD68ROTATEDRECTD68*%

G04:AMPARAMS|DCode=69|XSize=45.67mil|YSize=49.21mil|CornerRadius=0mil|HoleSize=0mil|Usage=FLASHONLY|Rotation=225.000|XOffset=0mil|YOffset=0mil|HoleType=Round|Shape=Rectangle|*
%AMROTATEDRECTD69*
4,1,4,-0.00125,0.03355,0.03355,-0.00125,0.00125,-0.03355,-0.03355,0.00125,-0.00125,0.03355,0.0*
%
%ADD69ROTATEDRECTD69*%

G04:AMPARAMS|DCode=70|XSize=45.67mil|YSize=47.24mil|CornerRadius=0mil|HoleSize=0mil|Usage=FLASHONLY|Rotation=225.000|XOffset=0mil|YOffset=0mil|HoleType=Round|Shape=Rectangle|*
%AMROTATEDRECTD70*
4,1,4,-0.00056,0.03285,0.03285,-0.00056,0.00056,-0.03285,-0.03285,0.00056,-0.00056,0.03285,0.0*
%
%ADD70ROTATEDRECTD70*%

G04:AMPARAMS|DCode=71|XSize=59.06mil|YSize=45.28mil|CornerRadius=0mil|HoleSize=0mil|Usage=FLASHONLY|Rotation=225.000|XOffset=0mil|YOffset=0mil|HoleType=Round|Shape=Rectangle|*
%AMROTATEDRECTD71*
4,1,4,0.00487,0.03689,0.03689,0.00487,-0.00487,-0.03689,-0.03689,-0.00487,0.00487,0.03689,0.0*
%
%ADD71ROTATEDRECTD71*%

%ADD72R,0.05118X0.13386*%
G04:AMPARAMS|DCode=73|XSize=23.62mil|YSize=61.02mil|CornerRadius=5.91mil|HoleSize=0mil|Usage=FLASHONLY|Rotation=90.000|XOffset=0mil|YOffset=0mil|HoleType=Round|Shape=RoundedRectangle|*
%AMROUNDEDRECTD73*
21,1,0.02362,0.04921,0,0,90.0*
21,1,0.01181,0.06102,0,0,90.0*
1,1,0.01181,0.02461,0.00591*
1,1,0.01181,0.02461,-0.00591*
1,1,0.01181,-0.02461,-0.00591*
1,1,0.01181,-0.02461,0.00591*
%
%ADD73ROUNDEDRECTD73*%
%ADD74R,0.06102X0.02362*%
%ADD145C,0.06693*%
%ADD146P,0.09465X4X90.0*%
%ADD147R,0.06693X0.06693*%
%ADD148C,0.02559*%
%ADD149O,0.09449X0.03543*%
%ADD150O,0.06693X0.03543*%
%ADD151C,0.07087*%
%ADD152C,0.09252*%
%ADD153C,0.06299*%
%ADD154R,0.06299X0.06299*%
%ADD155C,0.27559*%
D21*
X227165Y-76476D02*
D03*
Y-83366D02*
D03*
X253543Y91142D02*
D03*
Y84252D02*
D03*
D22*
X70472Y34252D02*
D03*
X68504D02*
D03*
X66535D02*
D03*
X64567D02*
D03*
X62598D02*
D03*
X60630D02*
D03*
X58661D02*
D03*
X56693D02*
D03*
X54724D02*
D03*
X52756D02*
D03*
X50787D02*
D03*
X48819D02*
D03*
X46850D02*
D03*
X44882D02*
D03*
X42913D02*
D03*
X40945D02*
D03*
X38976D02*
D03*
X37008D02*
D03*
X35039D02*
D03*
X33071D02*
D03*
X31102D02*
D03*
X29134D02*
D03*
X27165D02*
D03*
X25197D02*
D03*
X23228D02*
D03*
X21260D02*
D03*
X19291D02*
D03*
X17323D02*
D03*
X15354D02*
D03*
X13386D02*
D03*
X11417D02*
D03*
X9449D02*
D03*
X7480D02*
D03*
X5512D02*
D03*
X3543D02*
D03*
X1575D02*
D03*
X-394D02*
D03*
X-2362D02*
D03*
X-4331D02*
D03*
X-6299D02*
D03*
X-8268D02*
D03*
X-10236D02*
D03*
X-12205D02*
D03*
X-14173D02*
D03*
Y134646D02*
D03*
X-12205D02*
D03*
X-10236D02*
D03*
X-8268D02*
D03*
X-6299D02*
D03*
X-4331D02*
D03*
X-2362D02*
D03*
X-394D02*
D03*
X1575D02*
D03*
X3543D02*
D03*
X5512D02*
D03*
X7480D02*
D03*
X9449D02*
D03*
X11417D02*
D03*
X13386D02*
D03*
X15354D02*
D03*
X17323D02*
D03*
X19291D02*
D03*
X21260D02*
D03*
X23228D02*
D03*
X25197D02*
D03*
X27165D02*
D03*
X29134D02*
D03*
X31102D02*
D03*
X33071D02*
D03*
X35039D02*
D03*
X37008D02*
D03*
X38976D02*
D03*
X40945D02*
D03*
X42913D02*
D03*
X44882D02*
D03*
X46850D02*
D03*
X48819D02*
D03*
X50787D02*
D03*
X52756D02*
D03*
X54724D02*
D03*
X56693D02*
D03*
X58661D02*
D03*
X60630D02*
D03*
X62598D02*
D03*
X64567D02*
D03*
X66535D02*
D03*
X68504D02*
D03*
X70472D02*
D03*
D23*
X-22047Y42126D02*
D03*
Y44094D02*
D03*
Y46063D02*
D03*
Y48031D02*
D03*
Y50000D02*
D03*
Y51969D02*
D03*
Y53937D02*
D03*
Y55906D02*
D03*
Y57874D02*
D03*
Y59843D02*
D03*
Y61811D02*
D03*
Y63780D02*
D03*
Y65748D02*
D03*
Y67717D02*
D03*
Y69685D02*
D03*
Y71654D02*
D03*
Y73622D02*
D03*
Y75591D02*
D03*
Y77559D02*
D03*
Y79528D02*
D03*
Y81496D02*
D03*
Y83465D02*
D03*
Y85433D02*
D03*
Y87402D02*
D03*
Y89370D02*
D03*
Y91339D02*
D03*
Y93307D02*
D03*
Y95276D02*
D03*
Y97244D02*
D03*
Y99213D02*
D03*
Y101181D02*
D03*
Y103150D02*
D03*
Y105118D02*
D03*
Y107087D02*
D03*
Y109055D02*
D03*
Y111024D02*
D03*
Y112992D02*
D03*
Y114961D02*
D03*
Y116929D02*
D03*
Y118898D02*
D03*
Y120866D02*
D03*
Y122835D02*
D03*
Y124803D02*
D03*
Y126772D02*
D03*
X78346D02*
D03*
Y124803D02*
D03*
Y122835D02*
D03*
Y120866D02*
D03*
Y118898D02*
D03*
Y116929D02*
D03*
Y114961D02*
D03*
Y112992D02*
D03*
Y111024D02*
D03*
Y109055D02*
D03*
Y107087D02*
D03*
Y105118D02*
D03*
Y103150D02*
D03*
Y101181D02*
D03*
Y99213D02*
D03*
Y97244D02*
D03*
Y95276D02*
D03*
Y93307D02*
D03*
Y91339D02*
D03*
Y89370D02*
D03*
Y87402D02*
D03*
Y85433D02*
D03*
Y83465D02*
D03*
Y81496D02*
D03*
Y79528D02*
D03*
Y77559D02*
D03*
Y75591D02*
D03*
Y73622D02*
D03*
Y71654D02*
D03*
Y69685D02*
D03*
Y67717D02*
D03*
Y65748D02*
D03*
Y63780D02*
D03*
Y61811D02*
D03*
Y59843D02*
D03*
Y57874D02*
D03*
Y55906D02*
D03*
Y53937D02*
D03*
Y51969D02*
D03*
Y50000D02*
D03*
Y48031D02*
D03*
Y46063D02*
D03*
Y44094D02*
D03*
Y42126D02*
D03*
D24*
X99536Y178839D02*
D03*
Y182776D02*
D03*
X-29528Y42913D02*
D03*
Y46850D02*
D03*
X-29528Y68110D02*
D03*
Y72047D02*
D03*
X87008Y196457D02*
D03*
Y200394D02*
D03*
X92913Y189469D02*
D03*
Y185532D02*
D03*
X87008D02*
D03*
Y189469D02*
D03*
X224016Y-38701D02*
D03*
Y-42638D02*
D03*
X86614Y109843D02*
D03*
Y113779D02*
D03*
X85433Y97244D02*
D03*
Y101181D02*
D03*
X102362Y94488D02*
D03*
Y90551D02*
D03*
X86221Y85433D02*
D03*
Y81496D02*
D03*
X86614Y69291D02*
D03*
Y65354D02*
D03*
X92913Y62598D02*
D03*
Y66535D02*
D03*
Y52756D02*
D03*
Y48819D02*
D03*
X380315Y47244D02*
D03*
Y43307D02*
D03*
X349606Y61063D02*
D03*
Y65000D02*
D03*
X355512Y57126D02*
D03*
Y61063D02*
D03*
X349606Y52362D02*
D03*
Y48425D02*
D03*
X245937Y83382D02*
D03*
Y87319D02*
D03*
X180709Y168622D02*
D03*
Y172559D02*
D03*
Y195669D02*
D03*
Y199606D02*
D03*
X157480Y192126D02*
D03*
Y196063D02*
D03*
X146457Y196457D02*
D03*
Y200394D02*
D03*
X134252Y124016D02*
D03*
Y127953D02*
D03*
X127165D02*
D03*
Y131890D02*
D03*
X131496Y100787D02*
D03*
Y104724D02*
D03*
X134252Y138189D02*
D03*
Y134252D02*
D03*
X180512Y137402D02*
D03*
Y133465D02*
D03*
X185236Y127165D02*
D03*
Y131102D02*
D03*
X191929Y124016D02*
D03*
Y120079D02*
D03*
X197441Y124016D02*
D03*
Y127953D02*
D03*
X254331Y137008D02*
D03*
Y133071D02*
D03*
X224212Y-47637D02*
D03*
Y-51574D02*
D03*
X231692D02*
D03*
Y-47637D02*
D03*
X238385D02*
D03*
Y-51574D02*
D03*
X219291Y-73622D02*
D03*
Y-69685D02*
D03*
X252362Y-41339D02*
D03*
Y-37402D02*
D03*
X219291Y-78740D02*
D03*
Y-82677D02*
D03*
X108268Y-32677D02*
D03*
Y-28740D02*
D03*
Y-14961D02*
D03*
Y-18898D02*
D03*
X135827Y-18504D02*
D03*
Y-22441D02*
D03*
X129823D02*
D03*
Y-18504D02*
D03*
X50787Y21654D02*
D03*
Y25591D02*
D03*
X180709Y117323D02*
D03*
Y121260D02*
D03*
X265354Y142913D02*
D03*
Y138976D02*
D03*
Y155118D02*
D03*
Y151181D02*
D03*
X259449Y138976D02*
D03*
Y142913D02*
D03*
X208661Y155118D02*
D03*
Y151181D02*
D03*
X214961Y138976D02*
D03*
Y142913D02*
D03*
X208661D02*
D03*
Y138976D02*
D03*
X219291Y137008D02*
D03*
Y133071D02*
D03*
X146457Y189075D02*
D03*
Y185138D02*
D03*
X140551D02*
D03*
Y189075D02*
D03*
X134646Y179528D02*
D03*
Y183465D02*
D03*
D25*
X277559Y105905D02*
D03*
X273622D02*
D03*
X277559Y98425D02*
D03*
X273622D02*
D03*
X309528Y49528D02*
D03*
X305591D02*
D03*
X96850Y200394D02*
D03*
X92913D02*
D03*
X257492Y-76772D02*
D03*
X261429D02*
D03*
X91732Y88976D02*
D03*
X95669D02*
D03*
X323623Y38875D02*
D03*
X319686D02*
D03*
X339094Y40197D02*
D03*
X335157D02*
D03*
X331221Y23661D02*
D03*
X335157D02*
D03*
Y28780D02*
D03*
X331221D02*
D03*
X318898Y64961D02*
D03*
X314961D02*
D03*
X302441Y71575D02*
D03*
X306378D02*
D03*
X240945Y98425D02*
D03*
X237008D02*
D03*
Y94095D02*
D03*
X240945D02*
D03*
X232677D02*
D03*
X228740D02*
D03*
X269291Y162598D02*
D03*
X265354D02*
D03*
X204724D02*
D03*
X208661D02*
D03*
X136614Y200394D02*
D03*
X140551D02*
D03*
X116929D02*
D03*
X112992D02*
D03*
X112992Y195669D02*
D03*
X116929D02*
D03*
X227953Y155906D02*
D03*
X231890D02*
D03*
Y150787D02*
D03*
X227953D02*
D03*
X148031Y-6693D02*
D03*
X144095D02*
D03*
X73228Y-32087D02*
D03*
X69291D02*
D03*
Y-38779D02*
D03*
X73228D02*
D03*
X70079Y-46653D02*
D03*
X66142D02*
D03*
X82480Y-45669D02*
D03*
X86417D02*
D03*
X135827Y-48701D02*
D03*
X131890D02*
D03*
X135827Y-58661D02*
D03*
X131890D02*
D03*
X135827Y-74016D02*
D03*
X131890D02*
D03*
X135827Y-78740D02*
D03*
X131890D02*
D03*
X63779Y24409D02*
D03*
X59842D02*
D03*
X39764Y25591D02*
D03*
X35827D02*
D03*
X16142Y25197D02*
D03*
X12205D02*
D03*
X-7087Y25197D02*
D03*
X-11024D02*
D03*
X75590Y142126D02*
D03*
X71653D02*
D03*
X36220Y142913D02*
D03*
X40157D02*
D03*
X16142D02*
D03*
X20079D02*
D03*
X-2362D02*
D03*
X-6299D02*
D03*
X163386Y157087D02*
D03*
X167323D02*
D03*
X224016Y-28701D02*
D03*
X227953D02*
D03*
D26*
X181102Y146850D02*
D03*
Y157677D02*
D03*
X133465Y146161D02*
D03*
Y156988D02*
D03*
X199803Y112205D02*
D03*
Y101378D02*
D03*
X188779Y112205D02*
D03*
Y101378D02*
D03*
D27*
X249185Y25225D02*
D03*
X251969Y22441D02*
D03*
X272075Y63358D02*
D03*
X269291Y66142D02*
D03*
X241367Y33830D02*
D03*
X238583Y36614D02*
D03*
D28*
X172047Y91339D02*
D03*
X165945D02*
D03*
X95472Y120866D02*
D03*
X89370D02*
D03*
X235039Y59842D02*
D03*
X228937D02*
D03*
X208858Y127913D02*
D03*
X214961D02*
D03*
X75590Y-79921D02*
D03*
X81693D02*
D03*
X129724Y-33858D02*
D03*
X135827D02*
D03*
X129823Y-68898D02*
D03*
X135925D02*
D03*
X68012Y153543D02*
D03*
X61910D02*
D03*
X64862Y147638D02*
D03*
X58760D02*
D03*
X259449Y127559D02*
D03*
X265551D02*
D03*
X140551Y173996D02*
D03*
X146653D02*
D03*
X92913D02*
D03*
X86811D02*
D03*
D29*
X73425Y-62598D02*
D03*
X228937Y77382D02*
D03*
D30*
X79331Y-72047D02*
D03*
X77362D02*
D03*
X75394D02*
D03*
X73425D02*
D03*
X71457D02*
D03*
X69488D02*
D03*
X67520D02*
D03*
Y-53150D02*
D03*
X69488D02*
D03*
X71457D02*
D03*
X73425D02*
D03*
X75394D02*
D03*
X77362D02*
D03*
X79331D02*
D03*
X234843Y86831D02*
D03*
X232874D02*
D03*
X230906D02*
D03*
X228937D02*
D03*
X226969D02*
D03*
X225000D02*
D03*
X223032D02*
D03*
Y67933D02*
D03*
X225000D02*
D03*
X226969D02*
D03*
X228937D02*
D03*
X230906D02*
D03*
X232874D02*
D03*
X234843D02*
D03*
D31*
X63976Y-68504D02*
D03*
Y-66535D02*
D03*
Y-64567D02*
D03*
Y-62598D02*
D03*
Y-60630D02*
D03*
Y-58661D02*
D03*
Y-56693D02*
D03*
X82874D02*
D03*
Y-58661D02*
D03*
Y-60630D02*
D03*
Y-62598D02*
D03*
Y-64567D02*
D03*
Y-66535D02*
D03*
Y-68504D02*
D03*
X238386Y71477D02*
D03*
Y73445D02*
D03*
Y75414D02*
D03*
Y77382D02*
D03*
Y79351D02*
D03*
Y81319D02*
D03*
Y83288D02*
D03*
X219488D02*
D03*
Y81319D02*
D03*
Y79351D02*
D03*
Y77382D02*
D03*
Y75414D02*
D03*
Y73445D02*
D03*
Y71477D02*
D03*
D32*
X68504Y167716D02*
D03*
Y196063D02*
D03*
X56693Y167716D02*
D03*
Y196063D02*
D03*
X259055Y-41339D02*
D03*
Y-69685D02*
D03*
X270866Y-41339D02*
D03*
Y-69685D02*
D03*
D33*
X25197Y187284D02*
D03*
D34*
X40551D02*
D03*
Y182283D02*
D03*
X25197D02*
D03*
X40551Y177284D02*
D03*
X25197D02*
D03*
X40551Y172283D02*
D03*
X25197D02*
D03*
X40551Y167283D02*
D03*
X25197D02*
D03*
D35*
X129528Y65945D02*
D03*
Y63976D02*
D03*
X133465Y65945D02*
D03*
Y63976D02*
D03*
D36*
X129528Y68110D02*
D03*
X133465D02*
D03*
X129528Y61811D02*
D03*
X133465D02*
D03*
D37*
X39272Y-20768D02*
D03*
X62500D02*
D03*
X181791Y73622D02*
D03*
X205020D02*
D03*
D38*
X96850Y94882D02*
D03*
Y101575D02*
D03*
X91732D02*
D03*
Y94882D02*
D03*
D39*
X101575Y52756D02*
D03*
Y62598D02*
D03*
D40*
X336102Y90945D02*
D03*
Y94685D02*
D03*
Y98425D02*
D03*
X345551D02*
D03*
Y94685D02*
D03*
Y90945D02*
D03*
D41*
X306693Y189370D02*
D03*
X312008D02*
D03*
X328858Y159843D02*
D03*
X334173D02*
D03*
Y149606D02*
D03*
X328858D02*
D03*
X328858Y139842D02*
D03*
X334173D02*
D03*
X328858Y120079D02*
D03*
X334173D02*
D03*
X323623Y33757D02*
D03*
X318308D02*
D03*
X331221Y34685D02*
D03*
X336535D02*
D03*
X318898Y72835D02*
D03*
X313583D02*
D03*
X10827Y19685D02*
D03*
X16142D02*
D03*
X3150Y144095D02*
D03*
X8465D02*
D03*
D42*
X327953Y179842D02*
D03*
Y185158D02*
D03*
X370079Y134941D02*
D03*
Y129626D02*
D03*
X370079Y146850D02*
D03*
Y141535D02*
D03*
X341339Y146653D02*
D03*
Y151969D02*
D03*
X341417Y136929D02*
D03*
Y131614D02*
D03*
D43*
X368898Y57480D02*
D03*
Y67953D02*
D03*
D44*
X374803Y49213D02*
D03*
Y43307D02*
D03*
D45*
X339094Y64744D02*
D03*
X337126D02*
D03*
X335157D02*
D03*
X333189D02*
D03*
X331221D02*
D03*
X329252D02*
D03*
X327284D02*
D03*
Y45571D02*
D03*
X329252D02*
D03*
X331221D02*
D03*
X333189D02*
D03*
X335157D02*
D03*
X337126D02*
D03*
X339094D02*
D03*
D46*
X323602Y61063D02*
D03*
Y59095D02*
D03*
Y57126D02*
D03*
Y55158D02*
D03*
Y53189D02*
D03*
Y51221D02*
D03*
Y49252D02*
D03*
X342776D02*
D03*
Y51221D02*
D03*
Y53189D02*
D03*
Y55158D02*
D03*
Y57126D02*
D03*
Y59095D02*
D03*
Y61063D02*
D03*
D47*
X333189Y55158D02*
D03*
D48*
X302441Y64882D02*
D03*
Y55827D02*
D03*
X309528Y64882D02*
D03*
Y55827D02*
D03*
D49*
X248826Y44087D02*
D03*
X217719Y13767D02*
D03*
D50*
X250636Y42277D02*
D03*
X252445Y40468D02*
D03*
X254255Y38658D02*
D03*
X256065Y36849D02*
D03*
X257874Y35039D02*
D03*
X259683Y33230D02*
D03*
X261493Y31420D02*
D03*
X264973Y60233D02*
D03*
X266782Y58424D02*
D03*
X268592Y56615D02*
D03*
X270402Y54805D02*
D03*
X272211Y52995D02*
D03*
X274021Y51186D02*
D03*
X275830Y49376D02*
D03*
X277640Y47567D02*
D03*
X246532Y17247D02*
D03*
X244723Y19057D02*
D03*
X242913Y20866D02*
D03*
X241104Y22676D02*
D03*
X239294Y24485D02*
D03*
X237485Y26295D02*
D03*
X235675Y28104D02*
D03*
X233866Y29914D02*
D03*
X230386Y1101D02*
D03*
X228576Y2910D02*
D03*
X226767Y4720D02*
D03*
X224957Y6529D02*
D03*
X223148Y8339D02*
D03*
X221338Y10148D02*
D03*
X219529Y11958D02*
D03*
D51*
X163484Y199803D02*
D03*
Y172756D02*
D03*
D52*
Y196063D02*
D03*
Y192323D02*
D03*
X174311D02*
D03*
Y199803D02*
D03*
X163484Y169016D02*
D03*
Y165275D02*
D03*
X174311D02*
D03*
Y172756D02*
D03*
D53*
X106471Y164567D02*
D03*
X113360D02*
D03*
X128149D02*
D03*
X121260D02*
D03*
X223425Y119291D02*
D03*
X230315D02*
D03*
X249410Y119390D02*
D03*
X242520D02*
D03*
X89764Y-37795D02*
D03*
X82874D02*
D03*
X21456Y151575D02*
D03*
X14567D02*
D03*
D54*
X171949Y101476D02*
D03*
Y104035D02*
D03*
Y106595D02*
D03*
Y109154D02*
D03*
Y111713D02*
D03*
Y114272D02*
D03*
Y116831D02*
D03*
Y119390D02*
D03*
Y121949D02*
D03*
Y124508D02*
D03*
Y127067D02*
D03*
Y129626D02*
D03*
Y132185D02*
D03*
Y134744D02*
D03*
X143405Y101476D02*
D03*
Y104035D02*
D03*
Y106595D02*
D03*
Y109154D02*
D03*
Y111713D02*
D03*
Y114272D02*
D03*
Y116831D02*
D03*
Y119390D02*
D03*
Y121949D02*
D03*
Y124508D02*
D03*
Y127067D02*
D03*
Y129626D02*
D03*
Y132185D02*
D03*
Y134744D02*
D03*
D55*
X142323Y146850D02*
D03*
X153149D02*
D03*
X172244D02*
D03*
X161417D02*
D03*
D56*
X263447Y11300D02*
D03*
D57*
X257671Y9282D02*
D03*
X258784Y10395D02*
D03*
X259898Y11509D02*
D03*
X261011Y12622D02*
D03*
X262125Y13736D02*
D03*
X263238Y14849D02*
D03*
X264352Y15963D02*
D03*
X265465Y17077D02*
D03*
X269224Y13318D02*
D03*
X268110Y12205D02*
D03*
X266997Y11091D02*
D03*
X265883Y9978D02*
D03*
X264770Y8864D02*
D03*
X263656Y7751D02*
D03*
X262543Y6637D02*
D03*
X261429Y5523D02*
D03*
D58*
X246063Y-76870D02*
D03*
Y-63287D02*
D03*
D59*
X172579Y14091D02*
D03*
X144232D02*
D03*
X172579Y2280D02*
D03*
X144232D02*
D03*
D60*
X114961Y-14961D02*
D03*
Y-22047D02*
D03*
X122835Y-18504D02*
D03*
X114961Y-32677D02*
D03*
Y-39764D02*
D03*
X122835Y-36220D02*
D03*
D61*
X44882Y13583D02*
D03*
Y19685D02*
D03*
X52756Y150591D02*
D03*
Y144488D02*
D03*
X46457Y150591D02*
D03*
Y144488D02*
D03*
X-12205Y150197D02*
D03*
Y144095D02*
D03*
D62*
X144232Y-83701D02*
D03*
Y-78701D02*
D03*
Y-73701D02*
D03*
Y-68701D02*
D03*
Y-63701D02*
D03*
Y-58701D02*
D03*
Y-53701D02*
D03*
Y-48701D02*
D03*
Y-43701D02*
D03*
Y-38701D02*
D03*
Y-33701D02*
D03*
Y-28701D02*
D03*
Y-23701D02*
D03*
Y-18701D02*
D03*
X211161D02*
D03*
Y-23701D02*
D03*
Y-28701D02*
D03*
Y-33701D02*
D03*
Y-38701D02*
D03*
Y-43701D02*
D03*
Y-48701D02*
D03*
Y-53701D02*
D03*
Y-58701D02*
D03*
Y-63701D02*
D03*
Y-68701D02*
D03*
Y-73701D02*
D03*
Y-78701D02*
D03*
Y-83701D02*
D03*
D63*
X155197Y-14764D02*
D03*
X160197D02*
D03*
X165197D02*
D03*
X170197D02*
D03*
X175197D02*
D03*
X180197D02*
D03*
X185197D02*
D03*
X190197D02*
D03*
X195197D02*
D03*
X200197D02*
D03*
D64*
X181634Y-54173D02*
D03*
D65*
X121806Y77559D02*
D03*
X115901D02*
D03*
X121609Y72480D02*
D03*
X115704D02*
D03*
X121806Y67323D02*
D03*
X115901D02*
D03*
X121806Y61811D02*
D03*
X115901D02*
D03*
X241732Y-28701D02*
D03*
X235827D02*
D03*
D66*
X316316Y-20248D02*
D03*
X313254Y-23310D02*
D03*
X310191Y-26373D02*
D03*
X307129Y-29435D02*
D03*
X304067Y-32497D02*
D03*
X301005Y-35560D02*
D03*
X297942Y-38622D02*
D03*
X294880Y-41684D02*
D03*
D67*
X326658Y-6398D02*
D03*
D68*
X287016Y-46876D02*
D03*
X294838Y24865D02*
D03*
D69*
X282158Y-39763D02*
D03*
D70*
X257103Y-14708D02*
D03*
D71*
X280641Y15093D02*
D03*
X258982Y-6565D02*
D03*
D72*
X236614Y135413D02*
D03*
X117323Y181496D02*
D03*
D73*
X247244Y127913D02*
D03*
Y132913D02*
D03*
Y137913D02*
D03*
Y142913D02*
D03*
X225984Y127913D02*
D03*
Y132913D02*
D03*
Y137913D02*
D03*
X127953Y173996D02*
D03*
Y178996D02*
D03*
Y183996D02*
D03*
Y188996D02*
D03*
X106693Y173996D02*
D03*
Y178996D02*
D03*
Y183996D02*
D03*
D74*
X225984Y142913D02*
D03*
X106693Y188996D02*
D03*
D145*
X-8677Y173410D02*
D03*
X-15748Y166339D02*
D03*
X119095Y-53976D02*
D03*
Y-63976D02*
D03*
X89779Y24425D02*
D03*
X96850Y31496D02*
D03*
X103921Y38567D02*
D03*
X110993Y45638D02*
D03*
X359842Y126850D02*
D03*
Y136850D02*
D03*
Y146850D02*
D03*
Y156850D02*
D03*
X349843Y126850D02*
D03*
Y136850D02*
D03*
Y146850D02*
D03*
Y156850D02*
D03*
X306693Y179842D02*
D03*
Y169843D02*
D03*
Y159843D02*
D03*
Y149843D02*
D03*
Y139842D02*
D03*
Y129842D02*
D03*
Y119843D02*
D03*
Y109843D02*
D03*
X316693D02*
D03*
Y119843D02*
D03*
Y129842D02*
D03*
Y139842D02*
D03*
Y149843D02*
D03*
Y159843D02*
D03*
Y169843D02*
D03*
D146*
X-22819Y159267D02*
D03*
X82708Y17354D02*
D03*
D147*
X119095Y-73976D02*
D03*
X359842Y166850D02*
D03*
X349843D02*
D03*
X316693Y179842D02*
D03*
D148*
X358170Y83169D02*
D03*
Y86516D02*
D03*
Y89862D02*
D03*
Y93209D02*
D03*
Y96555D02*
D03*
Y99902D02*
D03*
Y103248D02*
D03*
Y106595D02*
D03*
X363484D02*
D03*
Y103248D02*
D03*
Y99902D02*
D03*
Y96555D02*
D03*
Y93209D02*
D03*
Y89862D02*
D03*
Y86516D02*
D03*
Y83169D02*
D03*
D149*
X362028Y77854D02*
D03*
Y111910D02*
D03*
D150*
X375335D02*
D03*
Y77854D02*
D03*
D151*
X208721Y241476D02*
D03*
X263721Y238976D02*
D03*
X236221Y221476D02*
D03*
X224971Y223976D02*
D03*
X247471D02*
D03*
X90610Y241476D02*
D03*
X145610Y238976D02*
D03*
X118110Y221476D02*
D03*
X106860Y223976D02*
D03*
X129360D02*
D03*
D152*
X218721Y251476D02*
D03*
X253721D02*
D03*
X203721Y286476D02*
D03*
X213721Y288976D02*
D03*
X236221Y276476D02*
D03*
X258721Y288976D02*
D03*
X100610Y251476D02*
D03*
X135610D02*
D03*
X85610Y286476D02*
D03*
X95610Y288976D02*
D03*
X118110Y276476D02*
D03*
X140610Y288976D02*
D03*
D153*
X208721Y182087D02*
D03*
X263721D02*
D03*
D154*
X208721Y201772D02*
D03*
X263721D02*
D03*
D155*
X354331Y196850D02*
D03*
X-0D02*
D03*
X354331Y-0D02*
D03*
X-0D02*
D03*
M02*
