G04*
G04 #@! TF.GenerationSoftware,Altium Limited,Altium Designer,20.0.11 (256)*
G04*
G04 Layer_Physical_Order=4*
G04 Layer_Color=16711680*
%FSLAX25Y25*%
%MOIN*%
G70*
G01*
G75*
%ADD13C,0.00787*%
%ADD23R,0.02756X0.02362*%
%ADD24R,0.02362X0.02756*%
%ADD27R,0.03347X0.03347*%
%ADD40R,0.03543X0.03937*%
%ADD41R,0.03937X0.03543*%
%ADD50R,0.05512X0.04528*%
%ADD55R,0.05512X0.07087*%
%ADD141C,0.03937*%
%ADD142C,0.01968*%
%ADD143C,0.06693*%
%ADD144P,0.09465X4X90.0*%
%ADD145R,0.06693X0.06693*%
%ADD146C,0.02559*%
%ADD147O,0.09449X0.03543*%
%ADD148O,0.06693X0.03543*%
%ADD149C,0.07087*%
%ADD150C,0.09252*%
%ADD151C,0.06299*%
%ADD152R,0.06299X0.06299*%
%ADD153C,0.27559*%
%ADD154C,0.02362*%
%ADD155R,0.03000X0.01400*%
%ADD156R,0.08500X0.07000*%
G04:AMPARAMS|DCode=157|XSize=55.12mil|YSize=45.28mil|CornerRadius=0mil|HoleSize=0mil|Usage=FLASHONLY|Rotation=135.000|XOffset=0mil|YOffset=0mil|HoleType=Round|Shape=Rectangle|*
%AMROTATEDRECTD157*
4,1,4,0.03550,-0.00348,0.00348,-0.03550,-0.03550,0.00348,-0.00348,0.03550,0.03550,-0.00348,0.0*
%
%ADD157ROTATEDRECTD157*%

G04:AMPARAMS|DCode=158|XSize=23.62mil|YSize=27.56mil|CornerRadius=0mil|HoleSize=0mil|Usage=FLASHONLY|Rotation=225.000|XOffset=0mil|YOffset=0mil|HoleType=Round|Shape=Rectangle|*
%AMROTATEDRECTD158*
4,1,4,-0.00139,0.01810,0.01810,-0.00139,0.00139,-0.01810,-0.01810,0.00139,-0.00139,0.01810,0.0*
%
%ADD158ROTATEDRECTD158*%

%ADD159R,0.02362X0.03150*%
%ADD160R,0.07000X0.08500*%
G36*
X298965Y294062D02*
Y294062D01*
X300265Y285853D01*
Y285853D01*
X302142Y274003D01*
X302148Y273988D01*
X302148Y273972D01*
X302556Y271681D01*
X302574Y271636D01*
X302576Y271587D01*
X303662Y267064D01*
X303689Y267005D01*
X303697Y266941D01*
X305134Y262517D01*
X305166Y262460D01*
X305179Y262396D01*
X306959Y258099D01*
X306995Y258045D01*
X307013Y257982D01*
X309124Y253837D01*
X309165Y253786D01*
X309187Y253726D01*
X311618Y249759D01*
X311662Y249711D01*
X311689Y249653D01*
X314423Y245889D01*
X314471Y245845D01*
X314503Y245789D01*
X317524Y242251D01*
X317575Y242211D01*
X317611Y242157D01*
X320900Y238868D01*
X320954Y238832D01*
X320994Y238781D01*
X324531Y235760D01*
X324588Y235728D01*
X324632Y235680D01*
X328396Y232946D01*
X328454Y232919D01*
X328502Y232875D01*
X332468Y230444D01*
X332529Y230422D01*
X332580Y230382D01*
X336725Y228270D01*
X336788Y228252D01*
X336841Y228216D01*
X341139Y226436D01*
X341203Y226423D01*
X341259Y226392D01*
X345684Y224954D01*
X345748Y224946D01*
X345807Y224919D01*
X350330Y223833D01*
X350379Y223831D01*
X350424Y223814D01*
X352715Y223405D01*
X352731Y223405D01*
X352746Y223399D01*
X390936Y217351D01*
X390940Y-20503D01*
X352746Y-26552D01*
X352731Y-26558D01*
X352715Y-26558D01*
X350424Y-26967D01*
X350379Y-26985D01*
X350330Y-26986D01*
X345807Y-28072D01*
X345748Y-28100D01*
X345684Y-28107D01*
X341259Y-29545D01*
X341203Y-29576D01*
X341139Y-29589D01*
X336841Y-31369D01*
X336788Y-31405D01*
X336725Y-31423D01*
X332580Y-33535D01*
X332529Y-33575D01*
X332468Y-33597D01*
X328502Y-36028D01*
X328454Y-36072D01*
X328396Y-36099D01*
X324632Y-38833D01*
X324588Y-38881D01*
X324531Y-38913D01*
X320994Y-41934D01*
X320954Y-41985D01*
X320900Y-42021D01*
X317611Y-45310D01*
X317575Y-45364D01*
X317524Y-45404D01*
X314503Y-48942D01*
X314471Y-48998D01*
X314423Y-49042D01*
X311689Y-52806D01*
X311662Y-52865D01*
X311618Y-52912D01*
X309187Y-56879D01*
X309165Y-56940D01*
X309124Y-56990D01*
X307013Y-61135D01*
X306995Y-61198D01*
X306959Y-61252D01*
X305179Y-65549D01*
X305166Y-65613D01*
X305134Y-65670D01*
X303697Y-70094D01*
X303689Y-70158D01*
X303662Y-70217D01*
X302576Y-74741D01*
X302574Y-74789D01*
X302556Y-74835D01*
X302148Y-77125D01*
X302148Y-77140D01*
X302143Y-77154D01*
X296044Y-115350D01*
X272185D01*
Y-88386D01*
X271988Y-88583D01*
X83209D01*
Y-115350D01*
X58240D01*
X54067Y-89006D01*
Y-89006D01*
X52190Y-77157D01*
X52185Y-77141D01*
X52185Y-77125D01*
X51776Y-74835D01*
X51758Y-74789D01*
X51757Y-74741D01*
X50670Y-70217D01*
X50643Y-70158D01*
X50636Y-70094D01*
X49198Y-65670D01*
X49167Y-65613D01*
X49154Y-65549D01*
X47374Y-61252D01*
X47338Y-61198D01*
X47320Y-61135D01*
X45208Y-56990D01*
X45168Y-56940D01*
X45145Y-56879D01*
X42715Y-52912D01*
X42671Y-52865D01*
X42644Y-52806D01*
X39909Y-49042D01*
X39862Y-48998D01*
X39830Y-48942D01*
X36809Y-45404D01*
X36758Y-45364D01*
X36722Y-45310D01*
X33432Y-42021D01*
X33379Y-41985D01*
X33338Y-41934D01*
X29801Y-38913D01*
X29744Y-38881D01*
X29700Y-38833D01*
X25937Y-36099D01*
X25878Y-36072D01*
X25831Y-36028D01*
X21864Y-33597D01*
X21803Y-33575D01*
X21752Y-33535D01*
X17607Y-31423D01*
X17545Y-31405D01*
X17491Y-31369D01*
X13193Y-29589D01*
X13130Y-29576D01*
X13073Y-29545D01*
X8649Y-28107D01*
X8585Y-28100D01*
X8526Y-28072D01*
X4002Y-26986D01*
X3954Y-26985D01*
X3908Y-26967D01*
X1618Y-26558D01*
X1603Y-26558D01*
X1588Y-26553D01*
X-36608Y-20454D01*
Y217301D01*
X1588Y223400D01*
X1603Y223405D01*
X1618Y223405D01*
X3908Y223814D01*
X3954Y223831D01*
X4002Y223833D01*
X8526Y224919D01*
X8585Y224946D01*
X8649Y224954D01*
X13073Y226392D01*
X13130Y226423D01*
X13193Y226436D01*
X17491Y228216D01*
X17545Y228252D01*
X17607Y228270D01*
X21752Y230382D01*
X21803Y230422D01*
X21864Y230444D01*
X25831Y232875D01*
X25878Y232919D01*
X25937Y232946D01*
X29700Y235680D01*
X29744Y235728D01*
X29801Y235760D01*
X33338Y238781D01*
X33379Y238832D01*
X33432Y238868D01*
X36722Y242157D01*
X36758Y242211D01*
X36809Y242251D01*
X39830Y245789D01*
X39862Y245845D01*
X39909Y245889D01*
X42644Y249653D01*
X42671Y249712D01*
X42715Y249759D01*
X45145Y253726D01*
X45168Y253786D01*
X45208Y253837D01*
X47320Y257982D01*
X47338Y258045D01*
X47374Y258099D01*
X49154Y262396D01*
X49167Y262460D01*
X49198Y262517D01*
X50636Y266941D01*
X50643Y267005D01*
X50670Y267064D01*
X51757Y271587D01*
X51758Y271636D01*
X51776Y271681D01*
X52185Y273972D01*
X52185Y273988D01*
X52190Y274003D01*
X54067Y285853D01*
X55367Y294062D01*
X58287Y312197D01*
X296093D01*
X298965Y294062D01*
D02*
G37*
%LPC*%
G36*
X213721Y294247D02*
X212356Y294068D01*
X211085Y293541D01*
X209993Y292704D01*
X209156Y291612D01*
X208629Y290341D01*
X208600Y290118D01*
X208117Y289989D01*
X207733Y290489D01*
X206558Y291391D01*
X205189Y291957D01*
X204221Y292085D01*
Y286476D01*
Y280868D01*
X205189Y280995D01*
X206558Y281562D01*
X207733Y282464D01*
X208635Y283639D01*
X209202Y285008D01*
X209260Y285447D01*
X209742Y285576D01*
X209993Y285249D01*
X211085Y284412D01*
X212356Y283885D01*
X213721Y283705D01*
X215085Y283885D01*
X216356Y284412D01*
X217448Y285249D01*
X218285Y286341D01*
X218812Y287612D01*
X218992Y288976D01*
X218812Y290341D01*
X218285Y291612D01*
X217448Y292704D01*
X216356Y293541D01*
X215085Y294068D01*
X213721Y294247D01*
D02*
G37*
G36*
X95610D02*
X94246Y294068D01*
X92975Y293541D01*
X91883Y292704D01*
X91045Y291612D01*
X90519Y290341D01*
X90489Y290118D01*
X90006Y289989D01*
X89623Y290489D01*
X88447Y291391D01*
X87079Y291957D01*
X86110Y292085D01*
Y286476D01*
Y280868D01*
X87079Y280995D01*
X88447Y281562D01*
X89623Y282464D01*
X90524Y283639D01*
X91091Y285008D01*
X91149Y285447D01*
X91632Y285576D01*
X91883Y285249D01*
X92975Y284412D01*
X94246Y283885D01*
X95610Y283705D01*
X96974Y283885D01*
X98246Y284412D01*
X99337Y285249D01*
X100175Y286341D01*
X100702Y287612D01*
X100881Y288976D01*
X100702Y290341D01*
X100175Y291612D01*
X99337Y292704D01*
X98246Y293541D01*
X96974Y294068D01*
X95610Y294247D01*
D02*
G37*
G36*
X203221Y292085D02*
X202252Y291957D01*
X200883Y291391D01*
X199708Y290489D01*
X198806Y289314D01*
X198239Y287945D01*
X198112Y286976D01*
X203221D01*
Y292085D01*
D02*
G37*
G36*
X85110D02*
X84141Y291957D01*
X82773Y291391D01*
X81598Y290489D01*
X80696Y289314D01*
X80129Y287945D01*
X80001Y286976D01*
X85110D01*
Y292085D01*
D02*
G37*
G36*
X258721Y294247D02*
X257356Y294068D01*
X256085Y293541D01*
X254993Y292704D01*
X254156Y291612D01*
X253629Y290341D01*
X253450Y288976D01*
X253629Y287612D01*
X254156Y286341D01*
X254993Y285249D01*
X256085Y284412D01*
X257356Y283885D01*
X258721Y283705D01*
X260085Y283885D01*
X261356Y284412D01*
X262448Y285249D01*
X263285Y286341D01*
X263812Y287612D01*
X263992Y288976D01*
X263812Y290341D01*
X263285Y291612D01*
X262448Y292704D01*
X261356Y293541D01*
X260085Y294068D01*
X258721Y294247D01*
D02*
G37*
G36*
X140610D02*
X139246Y294068D01*
X137975Y293541D01*
X136883Y292704D01*
X136045Y291612D01*
X135519Y290341D01*
X135339Y288976D01*
X135519Y287612D01*
X136045Y286341D01*
X136883Y285249D01*
X137975Y284412D01*
X139246Y283885D01*
X140610Y283705D01*
X141974Y283885D01*
X143246Y284412D01*
X144337Y285249D01*
X145175Y286341D01*
X145702Y287612D01*
X145881Y288976D01*
X145702Y290341D01*
X145175Y291612D01*
X144337Y292704D01*
X143246Y293541D01*
X141974Y294068D01*
X140610Y294247D01*
D02*
G37*
G36*
X203221Y285976D02*
X198112D01*
X198239Y285008D01*
X198806Y283639D01*
X199708Y282464D01*
X200883Y281562D01*
X202252Y280995D01*
X203221Y280868D01*
Y285976D01*
D02*
G37*
G36*
X85110D02*
X80001D01*
X80129Y285008D01*
X80696Y283639D01*
X81598Y282464D01*
X82773Y281562D01*
X84141Y280995D01*
X85110Y280868D01*
Y285976D01*
D02*
G37*
G36*
X236221Y281747D02*
X234856Y281568D01*
X233585Y281041D01*
X232493Y280204D01*
X231656Y279112D01*
X231129Y277841D01*
X230949Y276476D01*
X231129Y275112D01*
X231656Y273841D01*
X232493Y272749D01*
X233585Y271912D01*
X234856Y271385D01*
X236221Y271205D01*
X237585Y271385D01*
X238856Y271912D01*
X239948Y272749D01*
X240785Y273841D01*
X241312Y275112D01*
X241492Y276476D01*
X241312Y277841D01*
X240785Y279112D01*
X239948Y280204D01*
X238856Y281041D01*
X237585Y281568D01*
X236221Y281747D01*
D02*
G37*
G36*
X118110D02*
X116746Y281568D01*
X115475Y281041D01*
X114383Y280204D01*
X113545Y279112D01*
X113019Y277841D01*
X112839Y276476D01*
X113019Y275112D01*
X113545Y273841D01*
X114383Y272749D01*
X115475Y271912D01*
X116746Y271385D01*
X118110Y271205D01*
X119474Y271385D01*
X120746Y271912D01*
X121837Y272749D01*
X122675Y273841D01*
X123202Y275112D01*
X123381Y276476D01*
X123202Y277841D01*
X122675Y279112D01*
X121837Y280204D01*
X120746Y281041D01*
X119474Y281568D01*
X118110Y281747D01*
D02*
G37*
G36*
X159343Y259476D02*
X154593D01*
Y256592D01*
X152721D01*
X152693Y256610D01*
X152075Y256733D01*
X151969D01*
X151350Y256610D01*
X150826Y256260D01*
X150476Y255736D01*
X150353Y255118D01*
X150476Y254500D01*
X150826Y253976D01*
X151350Y253626D01*
X151402Y253615D01*
X151599Y253484D01*
X152217Y253361D01*
X154593D01*
Y250476D01*
X159343D01*
Y254976D01*
Y259476D01*
D02*
G37*
G36*
X165093D02*
X160343D01*
Y255476D01*
X165093D01*
Y259476D01*
D02*
G37*
G36*
X253721Y256747D02*
X252356Y256568D01*
X251085Y256041D01*
X249993Y255204D01*
X249156Y254112D01*
X248629Y252841D01*
X248583Y252489D01*
X223858D01*
X223812Y252841D01*
X223285Y254112D01*
X222448Y255204D01*
X221356Y256041D01*
X220085Y256568D01*
X218721Y256747D01*
X217356Y256568D01*
X216085Y256041D01*
X214993Y255204D01*
X214156Y254112D01*
X213629Y252841D01*
X213450Y251476D01*
X213629Y250112D01*
X214156Y248841D01*
X214993Y247749D01*
X216085Y246912D01*
X217356Y246385D01*
X218721Y246205D01*
X220085Y246385D01*
X221356Y246912D01*
X222448Y247749D01*
X223285Y248841D01*
X223812Y250112D01*
X223858Y250463D01*
X248583D01*
X248629Y250112D01*
X249156Y248841D01*
X249993Y247749D01*
X251085Y246912D01*
X252356Y246385D01*
X253721Y246205D01*
X255085Y246385D01*
X256356Y246912D01*
X257448Y247749D01*
X258285Y248841D01*
X258812Y250112D01*
X258858Y250463D01*
X268576D01*
X270640Y248399D01*
Y196089D01*
X263004Y188453D01*
X262785Y188124D01*
X262707Y187736D01*
Y185725D01*
X261830Y185362D01*
X261046Y184761D01*
X260445Y183977D01*
X260068Y183065D01*
X259939Y182087D01*
X260068Y181108D01*
X260445Y180196D01*
X261046Y179412D01*
X261830Y178811D01*
X262742Y178434D01*
X263721Y178305D01*
X264699Y178434D01*
X265612Y178811D01*
X266395Y179412D01*
X266996Y180196D01*
X267110Y180471D01*
X277434D01*
Y178184D01*
X287134D01*
Y186384D01*
X277434D01*
Y183702D01*
X267110D01*
X266996Y183977D01*
X266395Y184761D01*
X265612Y185362D01*
X264734Y185725D01*
Y187317D01*
X272370Y194953D01*
X272590Y195282D01*
X272667Y195669D01*
Y248819D01*
X272590Y249207D01*
X272370Y249535D01*
X269712Y252193D01*
X269384Y252412D01*
X268996Y252489D01*
X258858D01*
X258812Y252841D01*
X258285Y254112D01*
X257448Y255204D01*
X256356Y256041D01*
X255085Y256568D01*
X253721Y256747D01*
D02*
G37*
G36*
X165093Y254476D02*
X160343D01*
Y250476D01*
X165093D01*
Y254476D01*
D02*
G37*
G36*
X135610Y256747D02*
X134246Y256568D01*
X132975Y256041D01*
X131883Y255204D01*
X131045Y254112D01*
X130519Y252841D01*
X130339Y251476D01*
X130519Y250112D01*
X131045Y248841D01*
X131883Y247749D01*
X132975Y246912D01*
X134246Y246385D01*
X135610Y246205D01*
X136974Y246385D01*
X138246Y246912D01*
X139337Y247749D01*
X140175Y248841D01*
X140702Y250112D01*
X140881Y251476D01*
X140702Y252841D01*
X140175Y254112D01*
X139337Y255204D01*
X138246Y256041D01*
X136974Y256568D01*
X135610Y256747D01*
D02*
G37*
G36*
X100610D02*
X99246Y256568D01*
X97975Y256041D01*
X96883Y255204D01*
X96045Y254112D01*
X95519Y252841D01*
X95339Y251476D01*
X95519Y250112D01*
X96045Y248841D01*
X96883Y247749D01*
X97975Y246912D01*
X99246Y246385D01*
X100610Y246205D01*
X101974Y246385D01*
X103246Y246912D01*
X104337Y247749D01*
X105175Y248841D01*
X105702Y250112D01*
X105881Y251476D01*
X105702Y252841D01*
X105175Y254112D01*
X104337Y255204D01*
X103246Y256041D01*
X101974Y256568D01*
X100610Y256747D01*
D02*
G37*
G36*
X209221Y245993D02*
Y241976D01*
X213237D01*
X213147Y242662D01*
X212689Y243768D01*
X211961Y244717D01*
X211012Y245445D01*
X209907Y245903D01*
X209221Y245993D01*
D02*
G37*
G36*
X208221D02*
X207535Y245903D01*
X206429Y245445D01*
X205480Y244717D01*
X204752Y243768D01*
X204294Y242662D01*
X204204Y241976D01*
X208221D01*
Y245993D01*
D02*
G37*
G36*
X91110D02*
Y241976D01*
X95127D01*
X95037Y242662D01*
X94579Y243768D01*
X93850Y244717D01*
X92901Y245445D01*
X91796Y245903D01*
X91110Y245993D01*
D02*
G37*
G36*
X90110D02*
X89424Y245903D01*
X88319Y245445D01*
X87370Y244717D01*
X86642Y243768D01*
X86184Y242662D01*
X86093Y241976D01*
X90110D01*
Y245993D01*
D02*
G37*
G36*
X117860Y242652D02*
X113860D01*
Y237902D01*
X117860D01*
Y242652D01*
D02*
G37*
G36*
X112860D02*
X108860D01*
Y237902D01*
X112860D01*
Y242652D01*
D02*
G37*
G36*
X213237Y240976D02*
X209221D01*
Y236960D01*
X209907Y237050D01*
X211012Y237508D01*
X211961Y238236D01*
X212689Y239185D01*
X213147Y240290D01*
X213237Y240976D01*
D02*
G37*
G36*
X208221D02*
X204204D01*
X204294Y240290D01*
X204752Y239185D01*
X205480Y238236D01*
X206429Y237508D01*
X207535Y237050D01*
X208221Y236960D01*
Y240976D01*
D02*
G37*
G36*
X95127D02*
X91110D01*
Y236960D01*
X91796Y237050D01*
X92901Y237508D01*
X93850Y238236D01*
X94579Y239185D01*
X95037Y240290D01*
X95127Y240976D01*
D02*
G37*
G36*
X90110D02*
X86093D01*
X86184Y240290D01*
X86642Y239185D01*
X87370Y238236D01*
X88319Y237508D01*
X89424Y237050D01*
X90110Y236960D01*
Y240976D01*
D02*
G37*
G36*
X145610Y243155D02*
X144528Y243013D01*
X143521Y242596D01*
X142655Y241931D01*
X141991Y241066D01*
X141574Y240058D01*
X141431Y238976D01*
X141574Y237895D01*
X141991Y236887D01*
X142655Y236021D01*
X143521Y235357D01*
X144528Y234940D01*
X145610Y234797D01*
X146692Y234940D01*
X147700Y235357D01*
X148565Y236021D01*
X149229Y236887D01*
X149426Y237361D01*
X154993D01*
Y234876D01*
X164693D01*
Y243076D01*
X154993D01*
Y240592D01*
X149426D01*
X149229Y241066D01*
X148565Y241931D01*
X147700Y242596D01*
X146692Y243013D01*
X145610Y243155D01*
D02*
G37*
G36*
X117860Y236902D02*
X113360D01*
X108860D01*
Y232152D01*
X111770D01*
Y229921D01*
X111893Y229303D01*
X112244Y228779D01*
X112768Y228429D01*
X113386Y228306D01*
X114004Y228429D01*
X114528Y228779D01*
X114878Y229303D01*
X115001Y229921D01*
Y232152D01*
X117860D01*
Y236902D01*
D02*
G37*
G36*
X107360Y228493D02*
Y224476D01*
X111377D01*
X111286Y225162D01*
X110829Y226268D01*
X110100Y227217D01*
X109151Y227945D01*
X108046Y228403D01*
X107360Y228493D01*
D02*
G37*
G36*
X106360D02*
X105674Y228403D01*
X104569Y227945D01*
X103620Y227217D01*
X102892Y226268D01*
X102434Y225162D01*
X102343Y224476D01*
X106360D01*
Y228493D01*
D02*
G37*
G36*
X241526Y230934D02*
X206693D01*
X206305Y230857D01*
X205977Y230638D01*
X202040Y226701D01*
X201820Y226372D01*
X201743Y225984D01*
Y188051D01*
X201820Y187663D01*
X202040Y187335D01*
X205431Y183943D01*
X205067Y183065D01*
X204939Y182087D01*
X205067Y181108D01*
X205445Y180196D01*
X206046Y179412D01*
X206830Y178811D01*
X207742Y178434D01*
X208721Y178305D01*
X209699Y178434D01*
X210612Y178811D01*
X211395Y179412D01*
X211996Y180196D01*
X212110Y180471D01*
X222315D01*
Y178184D01*
X232015D01*
Y186384D01*
X222315D01*
Y183702D01*
X212110D01*
X211996Y183977D01*
X211395Y184761D01*
X210612Y185362D01*
X209699Y185740D01*
X208721Y185869D01*
X207742Y185740D01*
X206864Y185376D01*
X203769Y188471D01*
Y225565D01*
X207113Y228908D01*
X223793D01*
X223825Y228408D01*
X223784Y228403D01*
X222679Y227945D01*
X221730Y227217D01*
X221002Y226268D01*
X220544Y225162D01*
X220454Y224476D01*
X229487D01*
X229397Y225162D01*
X228939Y226268D01*
X228211Y227217D01*
X227262Y227945D01*
X226157Y228403D01*
X226116Y228408D01*
X226149Y228908D01*
X241106D01*
X243893Y226121D01*
X243851Y226066D01*
X243434Y225058D01*
X243291Y223976D01*
X243434Y222895D01*
X243851Y221887D01*
X244515Y221021D01*
X245381Y220357D01*
X246389Y219940D01*
X247471Y219797D01*
X248552Y219940D01*
X249560Y220357D01*
X250426Y221021D01*
X251090Y221887D01*
X251507Y222895D01*
X251650Y223976D01*
X251507Y225058D01*
X251090Y226066D01*
X250426Y226931D01*
X249560Y227595D01*
X248552Y228013D01*
X247471Y228155D01*
X246389Y228013D01*
X245381Y227595D01*
X245326Y227554D01*
X242242Y230638D01*
X241913Y230857D01*
X241526Y230934D01*
D02*
G37*
G36*
X133460Y242252D02*
X125260D01*
Y232552D01*
X127745D01*
Y227792D01*
X127271Y227595D01*
X126405Y226931D01*
X125741Y226066D01*
X125323Y225058D01*
X125181Y223976D01*
X125323Y222895D01*
X125741Y221887D01*
X126405Y221021D01*
X127271Y220357D01*
X128279Y219940D01*
X129360Y219797D01*
X130442Y219940D01*
X131450Y220357D01*
X132315Y221021D01*
X132979Y221887D01*
X133397Y222895D01*
X133539Y223976D01*
X133397Y225058D01*
X132979Y226066D01*
X132315Y226931D01*
X131450Y227595D01*
X130975Y227792D01*
Y232552D01*
X133460D01*
Y242252D01*
D02*
G37*
G36*
X229487Y223476D02*
X225471D01*
Y219460D01*
X226157Y219550D01*
X227262Y220008D01*
X228211Y220736D01*
X228939Y221685D01*
X229397Y222790D01*
X229487Y223476D01*
D02*
G37*
G36*
X224471D02*
X220454D01*
X220544Y222790D01*
X221002Y221685D01*
X221730Y220736D01*
X222679Y220008D01*
X223784Y219550D01*
X224471Y219460D01*
Y223476D01*
D02*
G37*
G36*
X111377D02*
X107360D01*
Y219460D01*
X108046Y219550D01*
X109151Y220008D01*
X110100Y220736D01*
X110829Y221685D01*
X111286Y222790D01*
X111377Y223476D01*
D02*
G37*
G36*
X106360D02*
X102343D01*
X102434Y222790D01*
X102892Y221685D01*
X103620Y220736D01*
X104569Y220008D01*
X105674Y219550D01*
X106360Y219460D01*
Y223476D01*
D02*
G37*
G36*
X236221Y225655D02*
X235139Y225513D01*
X234131Y225096D01*
X233265Y224431D01*
X232601Y223566D01*
X232184Y222558D01*
X232042Y221476D01*
X232184Y220395D01*
X232601Y219387D01*
X232643Y219332D01*
X232041Y218730D01*
X211417D01*
X211030Y218653D01*
X210701Y218433D01*
X208005Y215737D01*
X207785Y215408D01*
X207708Y215020D01*
Y213887D01*
X206448D01*
Y209340D01*
X207708D01*
Y205521D01*
X204971D01*
Y198022D01*
X212470D01*
Y205521D01*
X209734D01*
Y209340D01*
X210994D01*
Y213887D01*
X209734D01*
Y214601D01*
X211837Y216703D01*
X232461D01*
X232849Y216780D01*
X233177Y217000D01*
X234076Y217899D01*
X234131Y217857D01*
X235139Y217440D01*
X236221Y217297D01*
X237302Y217440D01*
X238310Y217857D01*
X239176Y218521D01*
X239840Y219387D01*
X240257Y220395D01*
X240400Y221476D01*
X240257Y222558D01*
X239840Y223566D01*
X239176Y224431D01*
X238310Y225096D01*
X237302Y225513D01*
X236221Y225655D01*
D02*
G37*
G36*
X118110D02*
X117028Y225513D01*
X116021Y225096D01*
X115155Y224431D01*
X114491Y223566D01*
X114074Y222558D01*
X113931Y221476D01*
X114074Y220395D01*
X114491Y219387D01*
X115155Y218521D01*
X116021Y217857D01*
X117028Y217440D01*
X118110Y217297D01*
X119192Y217440D01*
X120200Y217857D01*
X121065Y218521D01*
X121729Y219387D01*
X122147Y220395D01*
X122289Y221476D01*
X122147Y222558D01*
X121729Y223566D01*
X121065Y224431D01*
X120200Y225096D01*
X119192Y225513D01*
X118110Y225655D01*
D02*
G37*
G36*
X259892Y213887D02*
X255346D01*
Y212627D01*
X237686D01*
X237505Y212898D01*
X236916Y213291D01*
X236221Y213430D01*
X235526Y213291D01*
X234937Y212898D01*
X234756Y212627D01*
X217097D01*
Y213887D01*
X212550D01*
Y209340D01*
X217097D01*
Y210600D01*
X234756D01*
X234937Y210330D01*
X235526Y209936D01*
X236221Y209798D01*
X236916Y209936D01*
X237505Y210330D01*
X237686Y210600D01*
X255346D01*
Y209340D01*
X259892D01*
Y213887D01*
D02*
G37*
G36*
X152156Y203582D02*
X122647D01*
X122259Y203504D01*
X121931Y203285D01*
X120792Y202146D01*
X120472Y202210D01*
X119777Y202071D01*
X119188Y201678D01*
X118795Y201089D01*
X118656Y200394D01*
X118795Y199699D01*
X119188Y199110D01*
X119777Y198716D01*
X120472Y198578D01*
X121167Y198716D01*
X121756Y199110D01*
X122150Y199699D01*
X122288Y200394D01*
X122225Y200713D01*
X123067Y201555D01*
X151736D01*
X152578Y200713D01*
X152515Y200394D01*
X152653Y199699D01*
X153047Y199110D01*
X153636Y198716D01*
X154331Y198578D01*
X155026Y198716D01*
X155615Y199110D01*
X156009Y199699D01*
X156147Y200394D01*
X156009Y201089D01*
X155615Y201678D01*
X155026Y202071D01*
X154331Y202210D01*
X154011Y202146D01*
X152872Y203285D01*
X152544Y203504D01*
X152156Y203582D01*
D02*
G37*
G36*
X287534Y202784D02*
X282784D01*
Y198784D01*
X287534D01*
Y202784D01*
D02*
G37*
G36*
X281784D02*
X277034D01*
Y198784D01*
X281784D01*
Y202784D01*
D02*
G37*
G36*
X226665D02*
X221915D01*
Y198784D01*
X226665D01*
Y202784D01*
D02*
G37*
G36*
X263721Y243155D02*
X262639Y243013D01*
X261631Y242596D01*
X260766Y241931D01*
X260101Y241066D01*
X259684Y240058D01*
X259542Y238976D01*
X259684Y237895D01*
X260101Y236887D01*
X260766Y236021D01*
X261631Y235357D01*
X262639Y234940D01*
X262707Y234931D01*
Y213887D01*
X261448D01*
Y209340D01*
X262707D01*
Y205521D01*
X259971D01*
Y198022D01*
X267470D01*
Y205521D01*
X264734D01*
Y209340D01*
X265994D01*
Y213887D01*
X264734D01*
Y234931D01*
X264802Y234940D01*
X265810Y235357D01*
X266676Y236021D01*
X267340Y236887D01*
X267757Y237895D01*
X267900Y238976D01*
X267757Y240058D01*
X267340Y241066D01*
X266676Y241931D01*
X265810Y242596D01*
X264802Y243013D01*
X263721Y243155D01*
D02*
G37*
G36*
X184646Y201422D02*
X183951Y201284D01*
X183362Y200890D01*
X182968Y200301D01*
X182830Y199606D01*
X182968Y198911D01*
X183362Y198322D01*
X183951Y197929D01*
X184646Y197790D01*
X185341Y197929D01*
X185930Y198322D01*
X186323Y198911D01*
X186462Y199606D01*
X186323Y200301D01*
X185930Y200890D01*
X185341Y201284D01*
X184646Y201422D01*
D02*
G37*
G36*
X232415Y202784D02*
X227665D01*
Y198284D01*
Y193784D01*
X232415D01*
Y196668D01*
X234121D01*
X234315Y196539D01*
X234933Y196416D01*
X235039D01*
X235658Y196539D01*
X236182Y196889D01*
X236532Y197413D01*
X236655Y198031D01*
X236532Y198650D01*
X236182Y199174D01*
X235860Y199388D01*
X235823Y199426D01*
X235299Y199776D01*
X234681Y199899D01*
X232415D01*
Y202784D01*
D02*
G37*
G36*
X226665Y197784D02*
X221915D01*
Y193784D01*
X226665D01*
Y197784D01*
D02*
G37*
G36*
X287534D02*
X282284D01*
X277034D01*
Y193784D01*
X280668D01*
Y191732D01*
X280791Y191114D01*
X281141Y190590D01*
X281665Y190240D01*
X282283Y190117D01*
X282902Y190240D01*
X283426Y190590D01*
X283776Y191114D01*
X283899Y191732D01*
Y193784D01*
X287534D01*
Y197784D01*
D02*
G37*
G36*
X32697Y189099D02*
X32002Y188961D01*
X31413Y188567D01*
X31019Y187978D01*
X30881Y187283D01*
X31019Y186588D01*
X31413Y185999D01*
X32002Y185606D01*
X32697Y185467D01*
X33392Y185606D01*
X33981Y185999D01*
X34374Y186588D01*
X34513Y187283D01*
X34374Y187978D01*
X33981Y188567D01*
X33392Y188961D01*
X32697Y189099D01*
D02*
G37*
G36*
X354331Y211274D02*
X352074Y211097D01*
X349873Y210568D01*
X347782Y209702D01*
X345852Y208520D01*
X344131Y207050D01*
X342661Y205329D01*
X341479Y203399D01*
X340613Y201308D01*
X340084Y199107D01*
X339907Y196850D01*
X340084Y194594D01*
X340613Y192393D01*
X341479Y190302D01*
X342661Y188372D01*
X344131Y186651D01*
X345852Y185181D01*
X347782Y183999D01*
X349873Y183132D01*
X352074Y182604D01*
X354331Y182426D01*
X356587Y182604D01*
X358788Y183132D01*
X360879Y183999D01*
X362809Y185181D01*
X364530Y186651D01*
X366000Y188372D01*
X367183Y190302D01*
X368049Y192393D01*
X368577Y194594D01*
X368755Y196850D01*
X368577Y199107D01*
X368049Y201308D01*
X367183Y203399D01*
X366000Y205329D01*
X364530Y207050D01*
X362809Y208520D01*
X360879Y209702D01*
X358788Y210568D01*
X356587Y211097D01*
X354331Y211274D01*
D02*
G37*
G36*
X-0D02*
X-2256Y211097D01*
X-4457Y210568D01*
X-6548Y209702D01*
X-8478Y208520D01*
X-10199Y207050D01*
X-11669Y205329D01*
X-12852Y203399D01*
X-13718Y201308D01*
X-14246Y199107D01*
X-14424Y196850D01*
X-14246Y194594D01*
X-13718Y192393D01*
X-12852Y190302D01*
X-11669Y188372D01*
X-10199Y186651D01*
X-8478Y185181D01*
X-6548Y183999D01*
X-4457Y183132D01*
X-2256Y182604D01*
X-0Y182426D01*
X2256Y182604D01*
X4457Y183132D01*
X6548Y183999D01*
X8478Y185181D01*
X10199Y186651D01*
X11669Y188372D01*
X12852Y190302D01*
X13718Y192393D01*
X14246Y194594D01*
X14424Y196850D01*
X14246Y199107D01*
X13718Y201308D01*
X12852Y203399D01*
X11669Y205329D01*
X10199Y207050D01*
X8478Y208520D01*
X6548Y209702D01*
X4457Y210568D01*
X2256Y211097D01*
X-0Y211274D01*
D02*
G37*
G36*
X118317Y181958D02*
X111605D01*
Y181626D01*
X110049D01*
Y181860D01*
X103337D01*
Y181626D01*
X95874D01*
X95204Y181538D01*
X94579Y181279D01*
X94042Y180867D01*
X93631Y180331D01*
X93372Y179706D01*
X93284Y179035D01*
X93372Y178365D01*
X93631Y177740D01*
X94042Y177204D01*
X94579Y176792D01*
X95204Y176533D01*
X95874Y176445D01*
X103337D01*
Y176132D01*
X110049D01*
Y176445D01*
X111605D01*
Y176231D01*
X115088D01*
X115256Y176209D01*
X119340D01*
X132814Y162735D01*
X133350Y162323D01*
X133975Y162065D01*
X134646Y161976D01*
X187961D01*
Y106988D01*
X188049Y106318D01*
X188308Y105693D01*
X188719Y105157D01*
X188916Y104959D01*
X189453Y104548D01*
X190078Y104289D01*
X190748Y104201D01*
X199803D01*
X200474Y104289D01*
X201098Y104548D01*
X201635Y104959D01*
X202047Y105496D01*
X202306Y106121D01*
X202394Y106791D01*
X202306Y107462D01*
X202047Y108087D01*
X201635Y108623D01*
X201098Y109035D01*
X200474Y109294D01*
X199803Y109382D01*
X193142D01*
Y129831D01*
X222628D01*
Y129557D01*
X229340D01*
Y129831D01*
X230502D01*
Y129557D01*
X233985D01*
X234154Y129535D01*
X238455D01*
X245019Y122971D01*
X245555Y122560D01*
X246180Y122301D01*
X246850Y122213D01*
X300000D01*
X300671Y122301D01*
X301295Y122560D01*
X301832Y122971D01*
X301998Y123188D01*
X303792D01*
X303953Y122714D01*
X303878Y122657D01*
X303246Y121833D01*
X302848Y120873D01*
X302712Y119843D01*
X302848Y118812D01*
X303246Y117852D01*
X303878Y117028D01*
X304703Y116395D01*
X305663Y115998D01*
X306693Y115862D01*
X307723Y115998D01*
X308683Y116395D01*
X309507Y117028D01*
X310140Y117852D01*
X310538Y118812D01*
X310673Y119843D01*
X310538Y120873D01*
X310140Y121833D01*
X309507Y122657D01*
X309433Y122714D01*
X309594Y123188D01*
X313792D01*
X313953Y122714D01*
X313878Y122657D01*
X313246Y121833D01*
X312848Y120873D01*
X312712Y119843D01*
X312848Y118812D01*
X313246Y117852D01*
X313878Y117028D01*
X314703Y116395D01*
X315663Y115998D01*
X316693Y115862D01*
X317723Y115998D01*
X318683Y116395D01*
X319508Y117028D01*
X320140Y117852D01*
X320538Y118812D01*
X320673Y119843D01*
X320538Y120873D01*
X320140Y121833D01*
X319648Y122475D01*
X320004Y122831D01*
X320358Y122560D01*
X320983Y122301D01*
X321654Y122213D01*
X322324Y122301D01*
X322949Y122560D01*
X323485Y122971D01*
X326241Y125727D01*
X326653Y126264D01*
X326912Y126889D01*
X327000Y127559D01*
Y142126D01*
X326912Y142797D01*
X326653Y143421D01*
X326241Y143958D01*
X320637Y149563D01*
X320673Y149843D01*
X320538Y150873D01*
X320140Y151833D01*
X319508Y152657D01*
X318786Y153211D01*
X318882Y153651D01*
X318915Y153711D01*
X323622D01*
X324010Y153788D01*
X324339Y154008D01*
X331128Y160798D01*
X347753D01*
X347853Y160298D01*
X347852Y160298D01*
X347028Y159665D01*
X346395Y158841D01*
X345998Y157881D01*
X345862Y156850D01*
X345998Y155820D01*
X346395Y154860D01*
X347028Y154036D01*
X347852Y153403D01*
X348812Y153006D01*
X349843Y152870D01*
X350873Y153006D01*
X351833Y153403D01*
X352657Y154036D01*
X353290Y154860D01*
X353687Y155820D01*
X353823Y156850D01*
X353687Y157881D01*
X353290Y158841D01*
X352657Y159665D01*
X351833Y160298D01*
X351832Y160298D01*
X351932Y160798D01*
X357753D01*
X357853Y160298D01*
X357852Y160298D01*
X357028Y159665D01*
X356395Y158841D01*
X355998Y157881D01*
X355862Y156850D01*
X355998Y155820D01*
X356395Y154860D01*
X357028Y154036D01*
X357852Y153403D01*
X358812Y153006D01*
X359842Y152870D01*
X360873Y153006D01*
X361833Y153403D01*
X362657Y154036D01*
X363290Y154860D01*
X363687Y155820D01*
X363690Y155837D01*
X374620D01*
X381043Y149415D01*
Y145453D01*
X380580Y145262D01*
X378275Y147567D01*
X377947Y147786D01*
X377559Y147864D01*
X377449D01*
X377268Y148135D01*
X376679Y148528D01*
X375984Y148666D01*
X375289Y148528D01*
X374700Y148135D01*
X374307Y147545D01*
X374168Y146850D01*
X374307Y146155D01*
X374700Y145566D01*
X375289Y145173D01*
X375984Y145034D01*
X376679Y145173D01*
X377268Y145566D01*
X377398Y145579D01*
X379655Y143322D01*
Y112827D01*
X379155Y112778D01*
X379144Y112835D01*
X378620Y113620D01*
X377835Y114144D01*
X376910Y114328D01*
X373760D01*
X372834Y114144D01*
X372050Y113620D01*
X371526Y112835D01*
X371342Y111910D01*
X371526Y110985D01*
X372050Y110200D01*
X372834Y109676D01*
X373760Y109492D01*
X376910D01*
X377835Y109676D01*
X378620Y110200D01*
X379144Y110985D01*
X379155Y111042D01*
X379655Y110993D01*
Y98842D01*
X379155Y98690D01*
X379095Y98780D01*
X378571Y99130D01*
X377953Y99253D01*
X375803D01*
Y100537D01*
X375803Y100537D01*
Y100607D01*
X375403Y100848D01*
X375403Y101107D01*
Y105521D01*
X370266D01*
Y104261D01*
X365544D01*
X365103Y104761D01*
X365127Y104952D01*
X365631Y105705D01*
X365708Y106095D01*
X363484D01*
X361259D01*
X361336Y105705D01*
X361840Y104952D01*
X361864Y104761D01*
X361423Y104261D01*
X360230D01*
X359789Y104761D01*
X359813Y104952D01*
X360317Y105705D01*
X360395Y106095D01*
X358170D01*
X355945D01*
X356023Y105705D01*
X356526Y104952D01*
X356609Y104295D01*
X356399Y103981D01*
X356253Y103248D01*
X356399Y102515D01*
X356815Y101893D01*
X356916Y101825D01*
Y101325D01*
X356815Y101257D01*
X356399Y100635D01*
X356253Y99902D01*
X356399Y99169D01*
X356815Y98547D01*
X356917Y98479D01*
Y97979D01*
X356815Y97910D01*
X356399Y97288D01*
X356253Y96555D01*
X356399Y95822D01*
X356815Y95200D01*
X356916Y95132D01*
Y94632D01*
X356815Y94564D01*
X356399Y93942D01*
X356253Y93209D01*
X356399Y92476D01*
X356815Y91854D01*
X356917Y91786D01*
Y91286D01*
X356815Y91217D01*
X356399Y90595D01*
X356253Y89862D01*
X356399Y89129D01*
X356815Y88507D01*
X356916Y88439D01*
Y87939D01*
X356815Y87871D01*
X356399Y87249D01*
X356253Y86516D01*
X356399Y85783D01*
X356609Y85469D01*
X356526Y84812D01*
X356023Y84058D01*
X355945Y83669D01*
X358170D01*
Y82669D01*
X355945D01*
X356023Y82279D01*
X356526Y81525D01*
X357280Y81022D01*
X357884Y80902D01*
X357935Y80382D01*
X357677Y80275D01*
X357098Y79831D01*
X356654Y79252D01*
X356375Y78578D01*
X356345Y78354D01*
X362028D01*
X367710D01*
X367681Y78578D01*
X367401Y79252D01*
X366957Y79831D01*
X366378Y80275D01*
X365704Y80554D01*
X364981Y80649D01*
X364716D01*
X364564Y81149D01*
X365127Y81525D01*
X365631Y82279D01*
X365708Y82669D01*
X363484D01*
Y83669D01*
X365708D01*
X365631Y84058D01*
X365127Y84812D01*
X365045Y85469D01*
X365254Y85783D01*
X365400Y86516D01*
X365254Y87249D01*
X364839Y87871D01*
X364737Y87939D01*
Y88439D01*
X364839Y88507D01*
X365254Y89129D01*
X365400Y89862D01*
X365254Y90595D01*
X364839Y91217D01*
X364736Y91286D01*
Y91786D01*
X364839Y91854D01*
X365254Y92476D01*
X365400Y93209D01*
X365254Y93942D01*
X364839Y94564D01*
X364737Y94632D01*
Y95132D01*
X364839Y95200D01*
X365254Y95822D01*
X365400Y96555D01*
X365254Y97288D01*
X364839Y97910D01*
X364736Y97979D01*
Y98479D01*
X364839Y98547D01*
X365254Y99169D01*
X365400Y99902D01*
X365254Y100635D01*
X364839Y101257D01*
X364737Y101325D01*
Y101825D01*
X364839Y101893D01*
X365067Y102235D01*
X369913D01*
X370266Y101881D01*
X370266Y100848D01*
X369866Y100607D01*
X369866Y100537D01*
X369866Y100537D01*
Y98335D01*
X372835D01*
Y97835D01*
X373335D01*
Y95063D01*
X375803D01*
Y96022D01*
X377953D01*
X378571Y96145D01*
X379095Y96496D01*
X379155Y96586D01*
X379655Y96434D01*
Y78771D01*
X379155Y78722D01*
X379144Y78779D01*
X378620Y79564D01*
X377835Y80088D01*
X376910Y80272D01*
X373760D01*
X372834Y80088D01*
X372050Y79564D01*
X371526Y78779D01*
X371342Y77854D01*
X371526Y76929D01*
X372050Y76144D01*
X372834Y75620D01*
X373760Y75436D01*
X376910D01*
X377835Y75620D01*
X378620Y76144D01*
X379144Y76929D01*
X379155Y76986D01*
X379655Y76937D01*
Y-3737D01*
X379658Y-3750D01*
Y-11146D01*
X351744Y-15567D01*
X351720Y-15576D01*
X347911Y-16263D01*
X343149Y-17479D01*
X338486Y-19031D01*
X333945Y-20912D01*
X329550Y-23112D01*
X325323Y-25620D01*
X321286Y-28423D01*
X317459Y-31507D01*
X313862Y-34856D01*
X310513Y-38453D01*
X307429Y-42280D01*
X304626Y-46317D01*
X302118Y-50544D01*
X299918Y-54939D01*
X298037Y-59480D01*
X297180Y-62054D01*
X297136Y-62127D01*
X294942Y-68278D01*
X235039D01*
X234652Y-68355D01*
X234323Y-68575D01*
X227965Y-74933D01*
X205017D01*
X204750Y-74433D01*
X204827Y-74317D01*
X204966Y-73622D01*
X204827Y-72927D01*
X204434Y-72338D01*
X203845Y-71944D01*
X203150Y-71806D01*
X202455Y-71944D01*
X201866Y-72338D01*
X201684Y-72609D01*
X191365D01*
X156228Y-37473D01*
X155900Y-37253D01*
X155512Y-37176D01*
X125197D01*
X124809Y-37253D01*
X124480Y-37473D01*
X123154Y-38799D01*
X122835Y-38735D01*
X122140Y-38873D01*
X121551Y-39267D01*
X121157Y-39856D01*
X121019Y-40551D01*
X121157Y-41246D01*
X121551Y-41835D01*
X122140Y-42229D01*
X122835Y-42367D01*
X123530Y-42229D01*
X124119Y-41835D01*
X124512Y-41246D01*
X124651Y-40551D01*
X124587Y-40232D01*
X125617Y-39202D01*
X155092D01*
X190228Y-74339D01*
X190370Y-74433D01*
X190219Y-74933D01*
X186996D01*
X156083Y-44020D01*
X156147Y-43701D01*
X156009Y-43006D01*
X155615Y-42417D01*
X155026Y-42023D01*
X154331Y-41885D01*
X153636Y-42023D01*
X153047Y-42417D01*
X152653Y-43006D01*
X152515Y-43701D01*
X152653Y-44396D01*
X153047Y-44985D01*
X153636Y-45379D01*
X154331Y-45517D01*
X154650Y-45453D01*
X185056Y-75859D01*
X184864Y-76321D01*
X183383D01*
X156083Y-49020D01*
X156147Y-48701D01*
X156009Y-48006D01*
X155615Y-47417D01*
X155026Y-47023D01*
X154331Y-46885D01*
X153636Y-47023D01*
X153047Y-47417D01*
X152664Y-47989D01*
X151982D01*
X151594Y-48066D01*
X151266Y-48286D01*
X150151Y-49400D01*
X147628D01*
Y-52962D01*
X147628D01*
Y-53337D01*
X147628D01*
Y-56899D01*
X148593D01*
Y-58071D01*
X148670Y-58459D01*
X148890Y-58787D01*
X149548Y-59445D01*
X149877Y-59665D01*
X150264Y-59742D01*
X152884D01*
X153047Y-59985D01*
X153636Y-60379D01*
X154331Y-60517D01*
X154650Y-60453D01*
X172831Y-78634D01*
X172639Y-79096D01*
X171677D01*
X171167Y-78755D01*
X170473Y-78617D01*
X169778Y-78755D01*
X169188Y-79149D01*
X169007Y-79420D01*
X167332D01*
Y-78928D01*
X163376D01*
Y-82490D01*
X163376D01*
Y-82865D01*
X163376D01*
Y-86427D01*
X167332D01*
Y-85659D01*
X168701D01*
X168795Y-86128D01*
X169188Y-86717D01*
X169778Y-87111D01*
X170473Y-87249D01*
X170863Y-87171D01*
X170935Y-87219D01*
X171323Y-87297D01*
X295258D01*
X295646Y-87219D01*
X295975Y-87000D01*
X296331Y-86644D01*
X296345Y-86623D01*
X296365Y-86607D01*
X296454Y-86459D01*
X296550Y-86315D01*
X296555Y-86290D01*
X296568Y-86268D01*
X304297Y-64602D01*
X304299Y-64587D01*
X304307Y-64574D01*
X304311Y-64561D01*
X304318Y-64504D01*
X305906Y-60199D01*
X307873Y-55932D01*
X310169Y-51832D01*
X312779Y-47925D01*
X315688Y-44236D01*
X318878Y-40785D01*
X322328Y-37596D01*
X326018Y-34687D01*
X329925Y-32076D01*
X334024Y-29780D01*
X338291Y-27813D01*
X342700Y-26187D01*
X347222Y-24912D01*
X351757Y-24010D01*
X351821Y-24012D01*
X385800Y-18630D01*
X386049Y-18591D01*
X386161Y-18550D01*
X386278Y-18526D01*
X386345Y-18482D01*
X386420Y-18454D01*
X386507Y-18373D01*
X386607Y-18307D01*
X386937Y-17976D01*
X386955Y-17950D01*
X386980Y-17931D01*
X387061Y-17839D01*
X387138Y-17706D01*
X387227Y-17581D01*
X387540Y-16881D01*
X387543Y-16867D01*
X387551Y-16855D01*
X387587Y-16675D01*
X387628Y-16495D01*
X387625Y-16481D01*
X387628Y-16468D01*
Y169678D01*
X387615Y169740D01*
X387620Y169804D01*
X387226Y172960D01*
X387183Y173089D01*
X387157Y173222D01*
X387121Y173275D01*
X387101Y173335D01*
X387012Y173438D01*
X386937Y173551D01*
X386398Y174090D01*
X386462Y174409D01*
X386323Y175104D01*
X385930Y175694D01*
X385341Y176087D01*
X384646Y176225D01*
X383951Y176087D01*
X383362Y175694D01*
X382968Y175104D01*
X382830Y174409D01*
X382968Y173714D01*
X383362Y173125D01*
X383951Y172732D01*
X384646Y172593D01*
X384854Y172635D01*
X385266Y172302D01*
X385428Y171004D01*
X384979Y170785D01*
X379850Y175913D01*
X379522Y176133D01*
X379134Y176210D01*
X336614D01*
X336227Y176133D01*
X335898Y175913D01*
X326352Y166367D01*
X319468D01*
X319299Y166867D01*
X319508Y167028D01*
X320140Y167852D01*
X320538Y168812D01*
X320673Y169843D01*
X320538Y170873D01*
X320140Y171833D01*
X319508Y172657D01*
X318683Y173290D01*
X317723Y173687D01*
X316693Y173823D01*
X315663Y173687D01*
X314703Y173290D01*
X313878Y172657D01*
X313246Y171833D01*
X312848Y170873D01*
X312712Y169843D01*
X312848Y168812D01*
X313246Y167852D01*
X313878Y167028D01*
X314087Y166867D01*
X313917Y166367D01*
X312205D01*
X311817Y166290D01*
X311488Y166071D01*
X308697Y163279D01*
X308683Y163290D01*
X307723Y163687D01*
X306693Y163823D01*
X305663Y163687D01*
X304703Y163290D01*
X303878Y162657D01*
X303246Y161833D01*
X302848Y160873D01*
X302712Y159843D01*
X302848Y158812D01*
X303246Y157852D01*
X303878Y157028D01*
X304703Y156395D01*
X305663Y155998D01*
X306693Y155862D01*
X307723Y155998D01*
X308683Y156395D01*
X309507Y157028D01*
X310140Y157852D01*
X310538Y158812D01*
X310673Y159843D01*
X310538Y160873D01*
X310140Y161833D01*
X310130Y161846D01*
X312624Y164341D01*
X326772D01*
X327159Y164418D01*
X327488Y164638D01*
X337034Y174184D01*
X378714D01*
X384214Y168684D01*
Y157690D01*
X383714Y157483D01*
X378669Y162527D01*
X378341Y162747D01*
X377953Y162824D01*
X364256D01*
X363789Y162904D01*
X363789Y163324D01*
Y170797D01*
X355896D01*
Y163324D01*
X355896Y162904D01*
X355429Y162824D01*
X354256D01*
X353789Y162904D01*
X353789Y163324D01*
Y170797D01*
X345896D01*
Y163324D01*
X345896Y162904D01*
X345429Y162824D01*
X330709D01*
X330321Y162747D01*
X329992Y162527D01*
X323202Y155738D01*
X318402D01*
X318302Y156238D01*
X318683Y156395D01*
X319508Y157028D01*
X320140Y157852D01*
X320538Y158812D01*
X320673Y159843D01*
X320538Y160873D01*
X320140Y161833D01*
X319508Y162657D01*
X318683Y163290D01*
X317723Y163687D01*
X316693Y163823D01*
X315663Y163687D01*
X314703Y163290D01*
X313878Y162657D01*
X313246Y161833D01*
X312848Y160873D01*
X312712Y159843D01*
X312848Y158812D01*
X313246Y157852D01*
X313878Y157028D01*
X314703Y156395D01*
X315083Y156238D01*
X314984Y155738D01*
X310630D01*
X310242Y155660D01*
X309913Y155441D01*
X308032Y153559D01*
X307723Y153687D01*
X306693Y153823D01*
X305663Y153687D01*
X304703Y153290D01*
X303878Y152657D01*
X303246Y151833D01*
X302848Y150873D01*
X302712Y149843D01*
X302848Y148812D01*
X303246Y147852D01*
X303878Y147028D01*
X304703Y146395D01*
X305663Y145998D01*
X306693Y145862D01*
X307723Y145998D01*
X308683Y146395D01*
X309507Y147028D01*
X310140Y147852D01*
X310538Y148812D01*
X310673Y149843D01*
X310538Y150873D01*
X310140Y151833D01*
X309719Y152381D01*
X311050Y153711D01*
X314471D01*
X314504Y153651D01*
X314600Y153211D01*
X313878Y152657D01*
X313246Y151833D01*
X312848Y150873D01*
X312712Y149843D01*
X312848Y148812D01*
X313246Y147852D01*
X313878Y147028D01*
X314703Y146395D01*
X315663Y145998D01*
X316693Y145862D01*
X316973Y145899D01*
X321819Y141053D01*
Y128632D01*
X319914Y126727D01*
X319908Y126728D01*
X319673Y127244D01*
X320140Y127852D01*
X320538Y128812D01*
X320673Y129842D01*
X320538Y130873D01*
X320140Y131833D01*
X319508Y132657D01*
X318683Y133290D01*
X317723Y133687D01*
X316693Y133823D01*
X315663Y133687D01*
X314703Y133290D01*
X313878Y132657D01*
X313246Y131833D01*
X312848Y130873D01*
X312712Y129842D01*
X312848Y128812D01*
X313246Y127852D01*
X313878Y127028D01*
X314055Y126892D01*
X313895Y126418D01*
X309491D01*
X309330Y126892D01*
X309507Y127028D01*
X310140Y127852D01*
X310538Y128812D01*
X310673Y129842D01*
X310538Y130873D01*
X310140Y131833D01*
X309622Y132508D01*
X309737Y132960D01*
X309810Y133055D01*
X309930Y133080D01*
X310467Y132668D01*
X311092Y132409D01*
X311762Y132321D01*
X312433Y132409D01*
X313057Y132668D01*
X313594Y133080D01*
X316413Y135899D01*
X316693Y135862D01*
X317723Y135998D01*
X318683Y136395D01*
X319508Y137028D01*
X320140Y137852D01*
X320538Y138812D01*
X320673Y139842D01*
X320538Y140873D01*
X320140Y141833D01*
X319508Y142657D01*
X318683Y143290D01*
X317723Y143687D01*
X316693Y143823D01*
X315663Y143687D01*
X314703Y143290D01*
X313878Y142657D01*
X313246Y141833D01*
X312848Y140873D01*
X312712Y139842D01*
X312749Y139563D01*
X310047Y136861D01*
X310012Y136864D01*
X309785Y137389D01*
X310140Y137852D01*
X310538Y138812D01*
X310673Y139842D01*
X310538Y140873D01*
X310140Y141833D01*
X309507Y142657D01*
X308683Y143290D01*
X307723Y143687D01*
X306693Y143823D01*
X305663Y143687D01*
X304703Y143290D01*
X303878Y142657D01*
X303246Y141833D01*
X302848Y140873D01*
X302712Y139842D01*
X302848Y138812D01*
X303246Y137852D01*
X303269Y137822D01*
X302954Y137411D01*
X302639Y137542D01*
X301969Y137630D01*
X299606D01*
X298936Y137542D01*
X298311Y137283D01*
X297774Y136871D01*
X293582Y132679D01*
X250906D01*
X205375Y178210D01*
X204839Y178621D01*
X204214Y178880D01*
X203543Y178969D01*
X134646D01*
X133975Y178880D01*
X133350Y178621D01*
X132814Y178210D01*
X132402Y177673D01*
X132143Y177049D01*
X132055Y176378D01*
X132143Y175707D01*
X132402Y175083D01*
X132814Y174546D01*
X133350Y174134D01*
X133975Y173876D01*
X134646Y173787D01*
X182408D01*
X182675Y173287D01*
X182574Y173136D01*
X182436Y172441D01*
X182574Y171746D01*
X182968Y171157D01*
X183557Y170763D01*
X184252Y170625D01*
X184947Y170763D01*
X185536Y171157D01*
X185930Y171746D01*
X186068Y172441D01*
X185930Y173136D01*
X185829Y173287D01*
X186096Y173787D01*
X202470D01*
X248001Y128256D01*
X248354Y127986D01*
X248232Y127480D01*
X247875Y127443D01*
X241359Y133958D01*
X240823Y134370D01*
X240198Y134628D01*
X239528Y134717D01*
X237214D01*
Y135285D01*
X230502D01*
Y135012D01*
X229340D01*
Y135285D01*
X222628D01*
Y135012D01*
X193142D01*
Y164567D01*
X193054Y165237D01*
X192795Y165862D01*
X192383Y166399D01*
X191847Y166811D01*
X191222Y167069D01*
X190551Y167158D01*
X135719D01*
X122245Y180631D01*
X121709Y181043D01*
X121084Y181302D01*
X120413Y181390D01*
X118317D01*
Y181958D01*
D02*
G37*
G36*
X320639Y183789D02*
X312747D01*
Y175896D01*
X320639D01*
Y183789D01*
D02*
G37*
G36*
X306693Y183823D02*
X305663Y183687D01*
X304703Y183290D01*
X303878Y182657D01*
X303246Y181833D01*
X302848Y180873D01*
X302712Y179842D01*
X302848Y178812D01*
X303246Y177852D01*
X303878Y177028D01*
X304703Y176395D01*
X305663Y175998D01*
X306693Y175862D01*
X307723Y175998D01*
X308683Y176395D01*
X309507Y177028D01*
X310140Y177852D01*
X310538Y178812D01*
X310673Y179842D01*
X310538Y180873D01*
X310140Y181833D01*
X309507Y182657D01*
X308683Y183290D01*
X307723Y183687D01*
X306693Y183823D01*
D02*
G37*
G36*
X-8677Y177794D02*
X-9812Y177644D01*
X-10869Y177206D01*
X-11377Y176817D01*
X-8677Y174117D01*
X-5977Y176817D01*
X-6485Y177206D01*
X-7542Y177644D01*
X-8677Y177794D01*
D02*
G37*
G36*
X118717Y175469D02*
X115461D01*
Y172705D01*
X118717D01*
Y175469D01*
D02*
G37*
G36*
X114461D02*
X111205D01*
Y172705D01*
X114461D01*
Y175469D01*
D02*
G37*
G36*
X110449Y175370D02*
X107193D01*
Y172606D01*
X110449D01*
Y175370D01*
D02*
G37*
G36*
X106193D02*
X102937D01*
Y172606D01*
X106193D01*
Y175370D01*
D02*
G37*
G36*
X-12084Y176110D02*
X-12474Y175602D01*
X-12912Y174544D01*
X-13061Y173410D01*
X-12912Y172275D01*
X-12474Y171218D01*
X-12084Y170710D01*
X-9384Y173410D01*
X-12084Y176110D01*
D02*
G37*
G36*
X-5270Y176110D02*
X-7970Y173410D01*
X-5270Y170710D01*
X-4880Y171218D01*
X-4442Y172275D01*
X-4293Y173410D01*
X-4442Y174544D01*
X-4880Y175602D01*
X-5270Y176110D01*
D02*
G37*
G36*
X-8677Y172703D02*
X-11377Y170003D01*
X-10869Y169613D01*
X-9812Y169175D01*
X-8677Y169026D01*
X-7542Y169175D01*
X-6485Y169613D01*
X-5977Y170003D01*
X-8677Y172703D01*
D02*
G37*
G36*
X118717Y171705D02*
X115461D01*
Y168941D01*
X118717D01*
Y171705D01*
D02*
G37*
G36*
X114461D02*
X111205D01*
Y168941D01*
X114461D01*
Y171705D01*
D02*
G37*
G36*
X110449Y171606D02*
X107193D01*
Y168843D01*
X110449D01*
Y171606D01*
D02*
G37*
G36*
X106193D02*
X102937D01*
Y168843D01*
X106193D01*
Y171606D01*
D02*
G37*
G36*
X306693Y173823D02*
X305663Y173687D01*
X304703Y173290D01*
X303878Y172657D01*
X303246Y171833D01*
X302848Y170873D01*
X302712Y169843D01*
X302848Y168812D01*
X303246Y167852D01*
X303878Y167028D01*
X304703Y166395D01*
X305663Y165998D01*
X306693Y165862D01*
X307723Y165998D01*
X308683Y166395D01*
X309507Y167028D01*
X310140Y167852D01*
X310538Y168812D01*
X310673Y169843D01*
X310538Y170873D01*
X310140Y171833D01*
X309507Y172657D01*
X308683Y173290D01*
X307723Y173687D01*
X306693Y173823D01*
D02*
G37*
G36*
X212992Y160477D02*
X212297Y160339D01*
X211708Y159945D01*
X211396Y159478D01*
X204483D01*
X204434Y159552D01*
X203845Y159945D01*
X203150Y160084D01*
X202455Y159945D01*
X201866Y159552D01*
X201472Y158963D01*
X201334Y158268D01*
X201472Y157573D01*
X201866Y156984D01*
X202455Y156590D01*
X203150Y156452D01*
X203845Y156590D01*
X204434Y156984D01*
X204746Y157451D01*
X211659D01*
X211708Y157377D01*
X212297Y156984D01*
X212992Y156845D01*
X213687Y156984D01*
X214276Y157377D01*
X214670Y157966D01*
X214808Y158661D01*
X214670Y159356D01*
X214276Y159945D01*
X213687Y160339D01*
X212992Y160477D01*
D02*
G37*
G36*
X121653Y161659D02*
X120959Y161520D01*
X120369Y161127D01*
X119976Y160538D01*
X119838Y159843D01*
X119976Y159148D01*
X120369Y158558D01*
X120959Y158165D01*
X121653Y158027D01*
X122348Y158165D01*
X122938Y158558D01*
X123331Y159148D01*
X123469Y159843D01*
X123331Y160538D01*
X122938Y161127D01*
X122348Y161520D01*
X121653Y161659D01*
D02*
G37*
G36*
X113779D02*
X113085Y161520D01*
X112495Y161127D01*
X112102Y160538D01*
X111963Y159843D01*
X112102Y159148D01*
X112495Y158558D01*
X113085Y158165D01*
X113779Y158027D01*
X114474Y158165D01*
X115064Y158558D01*
X115457Y159148D01*
X115595Y159843D01*
X115457Y160538D01*
X115064Y161127D01*
X114474Y161520D01*
X113779Y161659D01*
D02*
G37*
G36*
X150000Y160871D02*
X149305Y160733D01*
X148716Y160339D01*
X148364Y159812D01*
X147638D01*
X147250Y159735D01*
X146921Y159516D01*
X146134Y158728D01*
X145914Y158399D01*
X145837Y158012D01*
Y136221D01*
X145914Y135833D01*
X146134Y135504D01*
X148248Y133390D01*
X148184Y133071D01*
X148322Y132376D01*
X148716Y131787D01*
X149305Y131393D01*
X150000Y131255D01*
X150695Y131393D01*
X151284Y131787D01*
X151678Y132376D01*
X151816Y133071D01*
X151678Y133766D01*
X151284Y134355D01*
X150695Y134749D01*
X150000Y134887D01*
X149680Y134823D01*
X147864Y136640D01*
Y157592D01*
X148057Y157786D01*
X148706D01*
X148716Y157771D01*
X149305Y157377D01*
X150000Y157239D01*
X150695Y157377D01*
X151284Y157771D01*
X151678Y158360D01*
X151816Y159055D01*
X151678Y159750D01*
X151284Y160339D01*
X150695Y160733D01*
X150000Y160871D01*
D02*
G37*
G36*
X-984Y148469D02*
X-1679Y148331D01*
X-2268Y147938D01*
X-2662Y147348D01*
X-2800Y146653D01*
X-2662Y145959D01*
X-2268Y145369D01*
X-1679Y144976D01*
X-984Y144838D01*
X-289Y144976D01*
X300Y145369D01*
X693Y145959D01*
X832Y146653D01*
X693Y147348D01*
X300Y147938D01*
X-289Y148331D01*
X-984Y148469D01*
D02*
G37*
G36*
X71653Y148273D02*
X70959Y148134D01*
X70369Y147741D01*
X69976Y147152D01*
X69837Y146457D01*
X69976Y145762D01*
X70369Y145173D01*
X70959Y144779D01*
X71653Y144641D01*
X72348Y144779D01*
X72938Y145173D01*
X73331Y145762D01*
X73470Y146457D01*
X73331Y147152D01*
X72938Y147741D01*
X72348Y148134D01*
X71653Y148273D01*
D02*
G37*
G36*
X36220D02*
X35526Y148134D01*
X34936Y147741D01*
X34543Y147152D01*
X34405Y146457D01*
X34543Y145762D01*
X34936Y145173D01*
X35526Y144779D01*
X36220Y144641D01*
X36915Y144779D01*
X37505Y145173D01*
X37898Y145762D01*
X38037Y146457D01*
X37898Y147152D01*
X37505Y147741D01*
X36915Y148134D01*
X36220Y148273D01*
D02*
G37*
G36*
X359842Y150831D02*
X358812Y150695D01*
X357852Y150298D01*
X357028Y149665D01*
X356395Y148841D01*
X355998Y147881D01*
X355862Y146850D01*
X355998Y145820D01*
X356395Y144860D01*
X357028Y144036D01*
X357852Y143403D01*
X358812Y143006D01*
X359842Y142870D01*
X360873Y143006D01*
X361833Y143403D01*
X362657Y144036D01*
X363290Y144860D01*
X363687Y145820D01*
X363823Y146850D01*
X363687Y147881D01*
X363290Y148841D01*
X362657Y149665D01*
X361833Y150298D01*
X360873Y150695D01*
X359842Y150831D01*
D02*
G37*
G36*
X349843D02*
X348812Y150695D01*
X347852Y150298D01*
X347028Y149665D01*
X346395Y148841D01*
X345998Y147881D01*
X345862Y146850D01*
X345998Y145820D01*
X346395Y144860D01*
X347028Y144036D01*
X347852Y143403D01*
X348812Y143006D01*
X349843Y142870D01*
X350873Y143006D01*
X351833Y143403D01*
X352657Y144036D01*
X353290Y144860D01*
X353687Y145820D01*
X353823Y146850D01*
X353687Y147881D01*
X353290Y148841D01*
X352657Y149665D01*
X351833Y150298D01*
X350873Y150695D01*
X349843Y150831D01*
D02*
G37*
G36*
X359842Y140831D02*
X358812Y140695D01*
X357852Y140298D01*
X357028Y139665D01*
X356395Y138841D01*
X355998Y137881D01*
X355862Y136850D01*
X355998Y135820D01*
X356395Y134860D01*
X357028Y134036D01*
X357852Y133403D01*
X358812Y133005D01*
X359842Y132870D01*
X360873Y133005D01*
X361833Y133403D01*
X362657Y134036D01*
X363290Y134860D01*
X363687Y135820D01*
X363823Y136850D01*
X363687Y137881D01*
X363290Y138841D01*
X362657Y139665D01*
X361833Y140298D01*
X360873Y140695D01*
X359842Y140831D01*
D02*
G37*
G36*
X349843D02*
X348812Y140695D01*
X347852Y140298D01*
X347028Y139665D01*
X346395Y138841D01*
X345998Y137881D01*
X345862Y136850D01*
X345998Y135820D01*
X346395Y134860D01*
X347028Y134036D01*
X347852Y133403D01*
X348812Y133005D01*
X349843Y132870D01*
X350873Y133005D01*
X351833Y133403D01*
X352657Y134036D01*
X353290Y134860D01*
X353687Y135820D01*
X353823Y136850D01*
X353687Y137881D01*
X353290Y138841D01*
X352657Y139665D01*
X351833Y140298D01*
X350873Y140695D01*
X349843Y140831D01*
D02*
G37*
G36*
X360343Y131168D02*
Y127350D01*
X364161D01*
X364077Y127985D01*
X363639Y129042D01*
X362943Y129950D01*
X362035Y130647D01*
X360977Y131085D01*
X360343Y131168D01*
D02*
G37*
G36*
X350342D02*
Y127350D01*
X354161D01*
X354077Y127985D01*
X353639Y129042D01*
X352942Y129950D01*
X352034Y130647D01*
X350977Y131085D01*
X350342Y131168D01*
D02*
G37*
G36*
X359343Y131168D02*
X358708Y131085D01*
X357650Y130647D01*
X356743Y129950D01*
X356046Y129042D01*
X355608Y127985D01*
X355524Y127350D01*
X359343D01*
Y131168D01*
D02*
G37*
G36*
X349342D02*
X348708Y131085D01*
X347651Y130647D01*
X346743Y129950D01*
X346046Y129042D01*
X345608Y127985D01*
X345524Y127350D01*
X349342D01*
Y131168D01*
D02*
G37*
G36*
X225484Y128795D02*
X222229D01*
Y126032D01*
X225484D01*
Y128795D01*
D02*
G37*
G36*
X234358Y128795D02*
Y126031D01*
X237614D01*
Y128795D01*
X234358D01*
D02*
G37*
G36*
X62811Y126591D02*
X60342D01*
Y124319D01*
X62811D01*
Y126591D01*
D02*
G37*
G36*
X67217Y124622D02*
X65339D01*
Y122941D01*
X67217D01*
Y124622D01*
D02*
G37*
G36*
X152756Y130556D02*
X152061Y130418D01*
X151472Y130024D01*
X151078Y129435D01*
X150940Y128740D01*
X151078Y128045D01*
X151472Y127456D01*
X151743Y127275D01*
Y126190D01*
X150581D01*
Y122653D01*
X150181D01*
Y120972D01*
X152559D01*
X154937D01*
Y122653D01*
X154537D01*
Y123396D01*
X156015D01*
X156196Y123125D01*
X156785Y122732D01*
X157480Y122593D01*
X158175Y122732D01*
X158765Y123125D01*
X159158Y123714D01*
X159296Y124409D01*
X159158Y125104D01*
X158765Y125694D01*
X158175Y126087D01*
X157480Y126225D01*
X156785Y126087D01*
X156196Y125694D01*
X156015Y125423D01*
X154537D01*
Y126190D01*
X153769D01*
Y127275D01*
X154040Y127456D01*
X154434Y128045D01*
X154572Y128740D01*
X154434Y129435D01*
X154040Y130024D01*
X153451Y130418D01*
X152756Y130556D01*
D02*
G37*
G36*
X359343Y126350D02*
X355524D01*
X355608Y125716D01*
X356046Y124658D01*
X356743Y123750D01*
X357650Y123054D01*
X358708Y122616D01*
X359343Y122532D01*
Y126350D01*
D02*
G37*
G36*
X349342D02*
X345524D01*
X345608Y125716D01*
X346046Y124658D01*
X346743Y123750D01*
X347651Y123054D01*
X348708Y122616D01*
X349342Y122532D01*
Y126350D01*
D02*
G37*
G36*
X364161D02*
X360343D01*
Y122532D01*
X360977Y122616D01*
X362035Y123054D01*
X362943Y123750D01*
X363639Y124658D01*
X364077Y125716D01*
X364161Y126350D01*
D02*
G37*
G36*
X354161D02*
X350342D01*
Y122532D01*
X350977Y122616D01*
X352034Y123054D01*
X352942Y123750D01*
X353639Y124658D01*
X354077Y125716D01*
X354161Y126350D01*
D02*
G37*
G36*
X225484Y125032D02*
X222229D01*
Y122268D01*
X225484D01*
Y125032D01*
D02*
G37*
G36*
X237614Y125031D02*
X234358D01*
Y122268D01*
X237614D01*
Y125031D01*
D02*
G37*
G36*
X229740Y128795D02*
X229603Y128795D01*
X226484D01*
Y125532D01*
Y122268D01*
X229602D01*
X230102Y122268D01*
X230240Y122268D01*
X233358D01*
Y125531D01*
Y128795D01*
X230232D01*
X229740Y128795D01*
D02*
G37*
G36*
X154937Y119972D02*
X153059D01*
Y118291D01*
X154937D01*
Y119972D01*
D02*
G37*
G36*
X152059D02*
X150181D01*
Y118291D01*
X152059D01*
Y119972D01*
D02*
G37*
G36*
X163779Y123863D02*
X163085Y123725D01*
X162495Y123331D01*
X162102Y122742D01*
X161963Y122047D01*
X162102Y121352D01*
X162495Y120763D01*
X163085Y120370D01*
X163779Y120231D01*
X164474Y120370D01*
X165064Y120763D01*
X165245Y121034D01*
X168084D01*
X169853Y119265D01*
Y115186D01*
X168849D01*
Y115473D01*
X164649D01*
Y114126D01*
X164149Y113987D01*
X164010Y114195D01*
X163708Y114496D01*
X163380Y114716D01*
X163006Y114790D01*
X162964Y114850D01*
X162766Y115258D01*
X163470Y115962D01*
X163779Y115901D01*
X164474Y116039D01*
X165064Y116432D01*
X165457Y117022D01*
X165595Y117717D01*
X165457Y118412D01*
X165064Y119001D01*
X164474Y119394D01*
X163779Y119533D01*
X163085Y119394D01*
X162495Y119001D01*
X162102Y118412D01*
X161963Y117717D01*
X162029Y117386D01*
X160116Y115473D01*
X157349D01*
Y113186D01*
X147302D01*
X143424Y117064D01*
X143095Y117284D01*
X142707Y117361D01*
X133641D01*
X133253Y117284D01*
X132924Y117064D01*
X132031Y116171D01*
X131386D01*
X131205Y116442D01*
X130616Y116835D01*
X129921Y116974D01*
X129226Y116835D01*
X128637Y116442D01*
X128244Y115852D01*
X128105Y115158D01*
X128244Y114463D01*
X128637Y113874D01*
X129226Y113480D01*
X129921Y113342D01*
X130616Y113480D01*
X131205Y113874D01*
X131386Y114144D01*
X132450D01*
X132557Y114166D01*
X132870Y114171D01*
X133100Y113803D01*
X133165Y113478D01*
X133467Y113025D01*
X133340Y112588D01*
X133269Y112490D01*
X133191Y112479D01*
X133174Y112505D01*
X132585Y112898D01*
X131890Y113037D01*
X131195Y112898D01*
X130606Y112505D01*
X130212Y111916D01*
X130074Y111221D01*
X130212Y110526D01*
X130606Y109936D01*
X130838Y109781D01*
X130687Y109281D01*
X129624D01*
X129443Y109552D01*
X128854Y109945D01*
X128159Y110084D01*
X127464Y109945D01*
X126875Y109552D01*
X126481Y108963D01*
X126343Y108268D01*
X126481Y107573D01*
X126875Y106984D01*
X127464Y106590D01*
X128159Y106452D01*
X128854Y106590D01*
X129443Y106984D01*
X129624Y107255D01*
X131150D01*
X141090Y97315D01*
X141419Y97096D01*
X141806Y97018D01*
X161658D01*
X162046Y97096D01*
X162374Y97315D01*
X163749Y98690D01*
X164017Y98639D01*
X164249Y98505D01*
Y98473D01*
X166249D01*
Y100173D01*
X166749D01*
Y100673D01*
X169249D01*
Y101673D01*
X166749D01*
Y102673D01*
X169249D01*
Y103160D01*
X169921D01*
X170309Y103237D01*
X170638Y103457D01*
X171583Y104402D01*
X171802Y104730D01*
X171879Y105118D01*
Y114173D01*
Y119685D01*
X171802Y120073D01*
X171583Y120402D01*
X169220Y122764D01*
X168892Y122983D01*
X168504Y123060D01*
X165245D01*
X165064Y123331D01*
X164474Y123725D01*
X163779Y123863D01*
D02*
G37*
G36*
X-15748Y170319D02*
X-16778Y170183D01*
X-17738Y169786D01*
X-18563Y169153D01*
X-19195Y168329D01*
X-19593Y167369D01*
X-19595Y167352D01*
X-28543D01*
X-28931Y167275D01*
X-29260Y167055D01*
X-32212Y164102D01*
X-32432Y163774D01*
X-32509Y163386D01*
Y150400D01*
X-32432Y150012D01*
X-32212Y149684D01*
X-28179Y145650D01*
Y123594D01*
X-28101Y123206D01*
X-27882Y122878D01*
X-27305Y122301D01*
X-27305Y122301D01*
X-23271Y118267D01*
Y-17905D01*
X-23248Y-18021D01*
X-23244Y-18140D01*
X-23210Y-18213D01*
X-23194Y-18292D01*
X-23128Y-18391D01*
X-23078Y-18499D01*
X-23019Y-18554D01*
X-22975Y-18621D01*
X-22876Y-18687D01*
X-22789Y-18768D01*
X-22713Y-18796D01*
X-22646Y-18841D01*
X-22529Y-18864D01*
X-22418Y-18905D01*
X5061Y-23293D01*
X5075Y-23313D01*
Y-23313D01*
X6176Y-23512D01*
X10850Y-24705D01*
X15428Y-26228D01*
X19885Y-28074D01*
X24199Y-30234D01*
X28348Y-32695D01*
X32311Y-35447D01*
X36067Y-38474D01*
X39598Y-41761D01*
X42885Y-45292D01*
X45912Y-49049D01*
X48664Y-53011D01*
X51125Y-57160D01*
X53285Y-61474D01*
X55131Y-65931D01*
X56654Y-70509D01*
X57847Y-75183D01*
X58461Y-78586D01*
X58461Y-78586D01*
X58461D01*
X58487Y-78605D01*
X59203Y-83126D01*
Y-83126D01*
X59249Y-83413D01*
X59304Y-83562D01*
X59347Y-83714D01*
X59372Y-83746D01*
X59386Y-83784D01*
X59493Y-83900D01*
X59591Y-84025D01*
X61681Y-85810D01*
X61820Y-85887D01*
X61952Y-85975D01*
X61991Y-85983D01*
X62026Y-86003D01*
X62184Y-86022D01*
X62339Y-86053D01*
X81299D01*
X81687Y-85975D01*
X82016Y-85756D01*
X114299Y-53472D01*
X114308Y-53476D01*
X118595D01*
Y-49658D01*
X117960Y-49742D01*
X116902Y-50180D01*
X115995Y-50876D01*
X115686Y-51278D01*
X115186Y-51108D01*
Y-42939D01*
X126996Y-31130D01*
X127160Y-30885D01*
X127564Y-30615D01*
X127957Y-30026D01*
X128095Y-29331D01*
X127957Y-28636D01*
X127564Y-28047D01*
X126974Y-27653D01*
X126279Y-27515D01*
X125585Y-27653D01*
X124996Y-28047D01*
X124602Y-28636D01*
X124464Y-29331D01*
X124602Y-30026D01*
X124855Y-30405D01*
X113718Y-41542D01*
X113218Y-41335D01*
Y-37428D01*
X120860Y-29785D01*
X121029Y-29898D01*
X121724Y-30036D01*
X122419Y-29898D01*
X123008Y-29504D01*
X123402Y-28915D01*
X123540Y-28220D01*
X123402Y-27525D01*
X123008Y-26936D01*
X122419Y-26543D01*
X121724Y-26404D01*
X121029Y-26543D01*
X120440Y-26936D01*
X120047Y-27525D01*
X119993Y-27793D01*
X119975Y-27805D01*
X111488Y-36292D01*
X111269Y-36620D01*
X111192Y-37008D01*
Y-51746D01*
X80879Y-82058D01*
X67716D01*
X67550Y-82091D01*
X67383Y-82058D01*
X63433D01*
X62343Y-81126D01*
X61854Y-78040D01*
X61833Y-77982D01*
X61196Y-74455D01*
X59943Y-69543D01*
X58342Y-64734D01*
X56402Y-60051D01*
X54133Y-55518D01*
X51547Y-51159D01*
X48656Y-46995D01*
X45475Y-43048D01*
X42021Y-39338D01*
X38311Y-35884D01*
X34364Y-32703D01*
X30200Y-29812D01*
X25841Y-27226D01*
X21308Y-24957D01*
X16625Y-23017D01*
X11816Y-21417D01*
X6904Y-20163D01*
X5720Y-19949D01*
X5684Y-19935D01*
X5684Y-19935D01*
X5676Y-19935D01*
X5668Y-19932D01*
X-19223Y-15958D01*
X-19276Y-15905D01*
Y119109D01*
X-19354Y119496D01*
X-19573Y119825D01*
X-21806Y122058D01*
Y133782D01*
X-21701Y133822D01*
X-21306Y133866D01*
X-20969Y133362D01*
X-20380Y132968D01*
X-19685Y132830D01*
X-18990Y132968D01*
X-18401Y133362D01*
X-18220Y133633D01*
X-12624D01*
X-10462Y131470D01*
Y117929D01*
X-11585D01*
Y119685D01*
X-11662Y120073D01*
X-11882Y120402D01*
X-12211Y120621D01*
X-12598Y120698D01*
X-12986Y120621D01*
X-13315Y120402D01*
X-13534Y120073D01*
X-13612Y119685D01*
Y117929D01*
X-14976D01*
Y116761D01*
X-15322D01*
X-15710Y116684D01*
X-16038Y116464D01*
X-16529Y115974D01*
X-16535D01*
X-16923Y115897D01*
X-17252Y115677D01*
X-17471Y115348D01*
X-17549Y114961D01*
X-17471Y114573D01*
X-17252Y114244D01*
X-16964Y114052D01*
X-16948Y113889D01*
X-17011Y113532D01*
X-17230Y113489D01*
X-17819Y113095D01*
X-18213Y112506D01*
X-18351Y111811D01*
X-18213Y111116D01*
X-17819Y110527D01*
X-17230Y110133D01*
X-16535Y109995D01*
X-15841Y110133D01*
X-15251Y110527D01*
X-15070Y110798D01*
X-14576D01*
Y110030D01*
X-13612D01*
Y109339D01*
X-13882Y109158D01*
X-14276Y108569D01*
X-14414Y107874D01*
X-14276Y107179D01*
X-13882Y106590D01*
X-13293Y106196D01*
X-12598Y106058D01*
X-11903Y106196D01*
X-11314Y106590D01*
X-10962Y107117D01*
X-10725Y107117D01*
X-10462Y107034D01*
Y84252D01*
X-10385Y83864D01*
X-10165Y83536D01*
X-7312Y80683D01*
Y75410D01*
X-9736D01*
Y72638D01*
X-10736D01*
Y75410D01*
X-13205D01*
Y73848D01*
X-15354D01*
X-15742Y73771D01*
X-16071Y73551D01*
X-16290Y73222D01*
X-16367Y72835D01*
X-16290Y72447D01*
X-16071Y72118D01*
X-15742Y71899D01*
X-15354Y71821D01*
X-13205D01*
Y69936D01*
X-13205Y69936D01*
Y69866D01*
X-12805Y69625D01*
X-12805Y69366D01*
Y68336D01*
X-13889D01*
X-14070Y68607D01*
X-14659Y69001D01*
X-15354Y69139D01*
X-16049Y69001D01*
X-16638Y68607D01*
X-17032Y68018D01*
X-17170Y67323D01*
X-17032Y66628D01*
X-16638Y66039D01*
X-16049Y65645D01*
X-15354Y65507D01*
X-14659Y65645D01*
X-14070Y66039D01*
X-13889Y66310D01*
X-12805D01*
Y64951D01*
X-7812D01*
X-7668Y64951D01*
X-7312Y64602D01*
Y59842D01*
X-7235Y59455D01*
X-7016Y59126D01*
X10307Y41803D01*
X10636Y41584D01*
X11024Y41506D01*
X96457D01*
X96844Y41584D01*
X97173Y41803D01*
X103569Y48199D01*
X106912D01*
X107142Y47699D01*
X106758Y46773D01*
X106608Y45638D01*
X106758Y44504D01*
X107196Y43446D01*
X107586Y42938D01*
X110639Y45992D01*
X113692Y49045D01*
X113394Y49274D01*
X113564Y49774D01*
X207480D01*
X207868Y49851D01*
X208197Y50071D01*
X214987Y56861D01*
X222295D01*
X222338Y56796D01*
X222927Y56402D01*
X223622Y56264D01*
X224317Y56402D01*
X224906Y56796D01*
X225300Y57385D01*
X225438Y58080D01*
X225300Y58775D01*
X224906Y59364D01*
X224317Y59758D01*
X223622Y59896D01*
X222927Y59758D01*
X222338Y59364D01*
X222019Y58887D01*
X214567D01*
X214179Y58810D01*
X213850Y58590D01*
X207061Y51801D01*
X205855D01*
X205664Y52263D01*
X214593Y61191D01*
X222551D01*
X222732Y60921D01*
X223321Y60527D01*
X224016Y60389D01*
X224711Y60527D01*
X225300Y60921D01*
X225693Y61510D01*
X225832Y62205D01*
X225693Y62900D01*
X225300Y63489D01*
X224711Y63882D01*
X224016Y64021D01*
X223321Y63882D01*
X222732Y63489D01*
X222551Y63218D01*
X214173D01*
X213786Y63141D01*
X213457Y62921D01*
X203911Y53375D01*
X104331D01*
X103943Y53298D01*
X103614Y53079D01*
X95456Y44920D01*
X12418D01*
X-3899Y61237D01*
Y148022D01*
X-3976Y148410D01*
X-4195Y148739D01*
X-5334Y149877D01*
X-5271Y150197D01*
X-5409Y150892D01*
X-5571Y151135D01*
X-5211Y151495D01*
X-5122Y151436D01*
X-4734Y151358D01*
X14897D01*
X34295Y131961D01*
X34624Y131741D01*
X35011Y131664D01*
X64541D01*
X67145Y129060D01*
X67082Y128740D01*
X67220Y128045D01*
X67614Y127456D01*
X68203Y127062D01*
X68898Y126924D01*
X69593Y127062D01*
X70182Y127456D01*
X70575Y128045D01*
X70714Y128740D01*
X70575Y129435D01*
X70182Y130024D01*
X69593Y130418D01*
X68898Y130556D01*
X68578Y130493D01*
X65938Y133133D01*
X66145Y133633D01*
X76746D01*
X93523Y116855D01*
X93460Y116535D01*
X93598Y115840D01*
X93992Y115251D01*
X94581Y114858D01*
X95276Y114719D01*
X95970Y114858D01*
X96560Y115251D01*
X96953Y115840D01*
X97092Y116535D01*
X96953Y117230D01*
X96560Y117819D01*
X95970Y118213D01*
X95276Y118351D01*
X94956Y118288D01*
X77882Y135362D01*
X77553Y135582D01*
X77165Y135659D01*
X36246D01*
X16858Y155047D01*
X16530Y155267D01*
X16386Y155295D01*
X16245Y155803D01*
X16638Y156392D01*
X16777Y157087D01*
X16638Y157782D01*
X16245Y158371D01*
X15656Y158764D01*
X14961Y158903D01*
X14266Y158764D01*
X13677Y158371D01*
X13283Y157782D01*
X13145Y157087D01*
X13283Y156392D01*
X13649Y155844D01*
X13601Y155641D01*
X13463Y155344D01*
X-3320D01*
X-12311Y164335D01*
X-12301Y164348D01*
X-11903Y165308D01*
X-11767Y166339D01*
X-11903Y167369D01*
X-12301Y168329D01*
X-12933Y169153D01*
X-13758Y169786D01*
X-14718Y170183D01*
X-15748Y170319D01*
D02*
G37*
G36*
X328740Y117564D02*
X328045Y117426D01*
X327456Y117032D01*
X327062Y116443D01*
X326924Y115748D01*
X327062Y115053D01*
X327456Y114464D01*
X328045Y114070D01*
X328740Y113932D01*
X329435Y114070D01*
X330024Y114464D01*
X330418Y115053D01*
X330556Y115748D01*
X330418Y116443D01*
X330024Y117032D01*
X329435Y117426D01*
X328740Y117564D01*
D02*
G37*
G36*
X317193Y114161D02*
Y110343D01*
X321011D01*
X320928Y110977D01*
X320490Y112034D01*
X319793Y112943D01*
X318885Y113639D01*
X317828Y114077D01*
X317193Y114161D01*
D02*
G37*
G36*
X307193D02*
Y110343D01*
X311011D01*
X310928Y110977D01*
X310490Y112034D01*
X309793Y112943D01*
X308885Y113639D01*
X307828Y114077D01*
X307193Y114161D01*
D02*
G37*
G36*
X316193D02*
X315558Y114077D01*
X314501Y113639D01*
X313593Y112943D01*
X312896Y112034D01*
X312458Y110977D01*
X312375Y110343D01*
X316193D01*
Y114161D01*
D02*
G37*
G36*
X306193D02*
X305558Y114077D01*
X304501Y113639D01*
X303593Y112943D01*
X302896Y112034D01*
X302458Y110977D01*
X302375Y110343D01*
X306193D01*
Y114161D01*
D02*
G37*
G36*
X364981Y114328D02*
X359075D01*
X358149Y114144D01*
X357365Y113620D01*
X356841Y112835D01*
X356657Y111910D01*
X356841Y110985D01*
X357365Y110200D01*
X358149Y109676D01*
X359075Y109492D01*
X364981D01*
X365906Y109676D01*
X366690Y110200D01*
X367214Y110985D01*
X367398Y111910D01*
X367214Y112835D01*
X366690Y113620D01*
X365906Y114144D01*
X364981Y114328D01*
D02*
G37*
G36*
X90158Y111659D02*
X89463Y111520D01*
X88873Y111127D01*
X88480Y110538D01*
X88341Y109843D01*
X88480Y109148D01*
X88873Y108558D01*
X89463Y108165D01*
X90158Y108027D01*
X90852Y108165D01*
X91442Y108558D01*
X91835Y109148D01*
X91974Y109843D01*
X91835Y110538D01*
X91442Y111127D01*
X90852Y111520D01*
X90158Y111659D01*
D02*
G37*
G36*
X358670Y108820D02*
Y107095D01*
X360395D01*
X360317Y107484D01*
X359813Y108238D01*
X359059Y108742D01*
X358670Y108820D01*
D02*
G37*
G36*
X363984D02*
Y107095D01*
X365708D01*
X365631Y107484D01*
X365127Y108238D01*
X364373Y108742D01*
X363984Y108820D01*
D02*
G37*
G36*
X362984D02*
X362594Y108742D01*
X361840Y108238D01*
X361336Y107484D01*
X361259Y107095D01*
X362984D01*
Y108820D01*
D02*
G37*
G36*
X357670D02*
X357280Y108742D01*
X356526Y108238D01*
X356023Y107484D01*
X355945Y107095D01*
X357670D01*
Y108820D01*
D02*
G37*
G36*
X321011Y109343D02*
X317193D01*
Y105524D01*
X317828Y105608D01*
X318885Y106046D01*
X319793Y106743D01*
X320490Y107650D01*
X320928Y108708D01*
X321011Y109343D01*
D02*
G37*
G36*
X311011D02*
X307193D01*
Y105524D01*
X307828Y105608D01*
X308885Y106046D01*
X309793Y106743D01*
X310490Y107650D01*
X310928Y108708D01*
X311011Y109343D01*
D02*
G37*
G36*
X316193D02*
X312375D01*
X312458Y108708D01*
X312896Y107650D01*
X313593Y106743D01*
X314501Y106046D01*
X315558Y105608D01*
X316193Y105524D01*
Y109343D01*
D02*
G37*
G36*
X306193D02*
X302375D01*
X302458Y108708D01*
X302896Y107650D01*
X303593Y106743D01*
X304501Y106046D01*
X305558Y105608D01*
X306193Y105524D01*
Y109343D01*
D02*
G37*
G36*
X-28740Y108903D02*
X-29435Y108764D01*
X-30024Y108371D01*
X-30418Y107782D01*
X-30556Y107087D01*
X-30418Y106392D01*
X-30024Y105803D01*
X-29435Y105409D01*
X-28740Y105271D01*
X-28045Y105409D01*
X-27456Y105803D01*
X-27062Y106392D01*
X-26924Y107087D01*
X-27062Y107782D01*
X-27456Y108371D01*
X-28045Y108764D01*
X-28740Y108903D01*
D02*
G37*
G36*
X50394Y170329D02*
X49699Y170191D01*
X49110Y169798D01*
X48716Y169208D01*
X48578Y168513D01*
X48716Y167818D01*
X49110Y167229D01*
X49699Y166836D01*
X50394Y166697D01*
X51089Y166836D01*
X51678Y167229D01*
X51859Y167500D01*
X90909D01*
X99774Y158635D01*
Y116168D01*
X85801Y102194D01*
X71269D01*
Y102962D01*
X67313D01*
Y102194D01*
X66426D01*
X66245Y102465D01*
X65656Y102859D01*
X64961Y102997D01*
X64266Y102859D01*
X63677Y102465D01*
X63495Y102194D01*
X47647D01*
Y102837D01*
X47647Y102962D01*
Y103337D01*
X47647Y103462D01*
Y106899D01*
X46683D01*
Y110030D01*
X47382D01*
Y109802D01*
X47572Y109343D01*
X47926Y108989D01*
X48385Y108799D01*
X48575D01*
X48698Y108850D01*
X48830Y108851D01*
X49255Y109033D01*
X49343Y109123D01*
X49459Y109171D01*
X49510Y109293D01*
X49603Y109388D01*
X49601Y109514D01*
X49649Y109630D01*
X49649Y109948D01*
X50111Y110030D01*
X52251D01*
X52713Y109948D01*
X52713Y109630D01*
X52761Y109514D01*
X52759Y109388D01*
X52852Y109293D01*
X52903Y109171D01*
X53019Y109123D01*
X53107Y109033D01*
X53532Y108851D01*
X53664Y108850D01*
X53787Y108799D01*
X56874D01*
Y107706D01*
X54331D01*
X53943Y107629D01*
X53614Y107409D01*
X53395Y107081D01*
X53317Y106693D01*
X53395Y106305D01*
X53614Y105976D01*
X53943Y105757D01*
X54331Y105680D01*
X56874D01*
Y104118D01*
X59342D01*
Y106890D01*
X59842D01*
Y107390D01*
X62811D01*
Y108799D01*
X65339D01*
Y107268D01*
X66703D01*
Y105512D01*
X66781Y105124D01*
X67000Y104795D01*
X67329Y104576D01*
X67716Y104499D01*
X68104Y104576D01*
X68433Y104795D01*
X68653Y105124D01*
X68730Y105512D01*
Y107268D01*
X70095D01*
Y108799D01*
X74803D01*
X75262Y108989D01*
X75453Y109449D01*
Y121260D01*
X75262Y121719D01*
X74803Y121909D01*
X72229D01*
X72038Y122371D01*
X72726Y123059D01*
X72829Y123080D01*
X73157Y123299D01*
X73377Y123628D01*
X73454Y124016D01*
X73377Y124404D01*
X73157Y124732D01*
X72829Y124952D01*
X72441Y125029D01*
X72250D01*
X71862Y124952D01*
X71533Y124732D01*
X70595Y123793D01*
X70095Y124001D01*
Y124622D01*
X68217D01*
Y122441D01*
X67717D01*
Y121941D01*
X65339D01*
Y121909D01*
X62811D01*
Y123319D01*
X59842D01*
Y123819D01*
X59342D01*
Y126591D01*
X56874D01*
Y124635D01*
X54331D01*
X53943Y124558D01*
X53614Y124338D01*
X53395Y124010D01*
X53317Y123622D01*
X53395Y123234D01*
X53614Y122906D01*
X53943Y122686D01*
X54331Y122609D01*
X56874D01*
Y121909D01*
X48031D01*
X47572Y121719D01*
X47382Y121260D01*
Y114380D01*
X43888D01*
Y113218D01*
X42410D01*
X42229Y113489D01*
X41640Y113883D01*
X40945Y114021D01*
X40250Y113883D01*
X39661Y113489D01*
X39267Y112900D01*
X39129Y112205D01*
X39267Y111510D01*
X39661Y110921D01*
X40250Y110527D01*
X40945Y110389D01*
X41640Y110527D01*
X42229Y110921D01*
X42410Y111192D01*
X43888D01*
Y110030D01*
X44656D01*
Y106899D01*
X43691D01*
Y103462D01*
X43691Y103337D01*
Y102962D01*
X43691Y102837D01*
Y99400D01*
X47647D01*
Y100168D01*
X63495D01*
X63677Y99897D01*
X64266Y99503D01*
X64961Y99365D01*
X65656Y99503D01*
X66245Y99897D01*
X66426Y100168D01*
X67313D01*
Y99425D01*
X66913D01*
Y97744D01*
X69291D01*
X71669D01*
Y99425D01*
X71269D01*
Y100168D01*
X86221D01*
X86608Y100245D01*
X86937Y100465D01*
X101504Y115032D01*
X101724Y115360D01*
X101801Y115748D01*
Y159055D01*
X101724Y159443D01*
X101504Y159772D01*
X92046Y169230D01*
X91717Y169449D01*
X91329Y169527D01*
X51859D01*
X51678Y169798D01*
X51089Y170191D01*
X50394Y170329D01*
D02*
G37*
G36*
X62811Y106390D02*
X60343D01*
Y104118D01*
X62811D01*
Y106390D01*
D02*
G37*
G36*
X127953Y102997D02*
X127258Y102859D01*
X126669Y102465D01*
X126275Y101876D01*
X126137Y101181D01*
X126275Y100486D01*
X126669Y99897D01*
X127258Y99503D01*
X127953Y99365D01*
X128648Y99503D01*
X129237Y99897D01*
X129630Y100486D01*
X129769Y101181D01*
X129630Y101876D01*
X129237Y102465D01*
X128648Y102859D01*
X127953Y102997D01*
D02*
G37*
G36*
X169249Y99673D02*
X167249D01*
Y98473D01*
X169249D01*
Y99673D01*
D02*
G37*
G36*
X183071Y97485D02*
X182376Y97347D01*
X181787Y96953D01*
X181393Y96364D01*
X181378Y96289D01*
X176662D01*
X176481Y96560D01*
X175892Y96953D01*
X175197Y97092D01*
X174502Y96953D01*
X173913Y96560D01*
X173519Y95970D01*
X173381Y95276D01*
X173519Y94581D01*
X173913Y93992D01*
X174502Y93598D01*
X175197Y93460D01*
X175892Y93598D01*
X176481Y93992D01*
X176662Y94262D01*
X181971D01*
X182376Y93992D01*
X183071Y93853D01*
X183766Y93992D01*
X184355Y94385D01*
X184749Y94974D01*
X184887Y95669D01*
X184749Y96364D01*
X184355Y96953D01*
X183766Y97347D01*
X183071Y97485D01*
D02*
G37*
G36*
X372335Y97335D02*
X369866D01*
Y95063D01*
X372335D01*
Y97335D01*
D02*
G37*
G36*
X71669Y96744D02*
X69291D01*
X66913D01*
Y95063D01*
X66913D01*
X67063Y94563D01*
X66826Y94208D01*
X66688Y93513D01*
X66826Y92818D01*
X67220Y92229D01*
X67809Y91836D01*
X68504Y91697D01*
X69199Y91836D01*
X69788Y92229D01*
X70182Y92818D01*
X70320Y93513D01*
X70182Y94208D01*
X69945Y94563D01*
X70212Y95063D01*
X71669D01*
Y96744D01*
D02*
G37*
G36*
X224803Y95911D02*
X224108Y95772D01*
X223519Y95379D01*
X223125Y94789D01*
X222987Y94095D01*
X223125Y93400D01*
X223519Y92810D01*
X224108Y92417D01*
X224803Y92278D01*
X225498Y92417D01*
X226087Y92810D01*
X226481Y93400D01*
X226619Y94095D01*
X226481Y94789D01*
X226087Y95379D01*
X225498Y95772D01*
X224803Y95911D01*
D02*
G37*
G36*
X136531Y96079D02*
X133275D01*
Y92036D01*
X136531D01*
Y96079D01*
D02*
G37*
G36*
X132275D02*
X129020D01*
Y92036D01*
X132275D01*
Y96079D01*
D02*
G37*
G36*
X-28928Y95123D02*
X-29623Y94985D01*
X-30212Y94591D01*
X-30605Y94002D01*
X-30744Y93307D01*
X-30605Y92612D01*
X-30212Y92023D01*
X-29623Y91629D01*
X-28928Y91491D01*
X-28233Y91629D01*
X-27643Y92023D01*
X-27250Y92612D01*
X-27112Y93307D01*
X-27250Y94002D01*
X-27643Y94591D01*
X-28233Y94985D01*
X-28928Y95123D01*
D02*
G37*
G36*
X64961Y91580D02*
X64266Y91442D01*
X63677Y91048D01*
X63283Y90459D01*
X63145Y89764D01*
X63283Y89069D01*
X63427Y88854D01*
X63126Y88403D01*
X62992Y88430D01*
X62297Y88292D01*
X61708Y87898D01*
X61314Y87309D01*
X61176Y86614D01*
X61314Y85919D01*
X61708Y85330D01*
X62297Y84936D01*
X62992Y84798D01*
X63687Y84936D01*
X64276Y85330D01*
X64670Y85919D01*
X64808Y86614D01*
X64670Y87309D01*
X64526Y87524D01*
X64827Y87974D01*
X64961Y87948D01*
X65656Y88086D01*
X66245Y88480D01*
X66638Y89069D01*
X66777Y89764D01*
X66638Y90459D01*
X66245Y91048D01*
X65656Y91442D01*
X64961Y91580D01*
D02*
G37*
G36*
X146958Y95679D02*
X140246D01*
Y87392D01*
X140864D01*
Y86230D01*
X139951D01*
Y77943D01*
X146663D01*
Y79102D01*
X148622D01*
X149293Y79190D01*
X149917Y79449D01*
X150454Y79861D01*
X150866Y80398D01*
X151124Y81022D01*
X151213Y81693D01*
X151124Y82363D01*
X150866Y82988D01*
X150454Y83525D01*
X149917Y83937D01*
X149293Y84195D01*
X148622Y84284D01*
X146663D01*
Y86230D01*
X146045D01*
Y87370D01*
X147511D01*
X147774Y87107D01*
X148311Y86695D01*
X148936Y86436D01*
X149606Y86348D01*
X150277Y86436D01*
X150902Y86695D01*
X151438Y87107D01*
X151850Y87643D01*
X152109Y88268D01*
X152197Y88939D01*
X152109Y89609D01*
X151850Y90234D01*
X151438Y90771D01*
X150416Y91793D01*
X149880Y92204D01*
X149255Y92463D01*
X148584Y92551D01*
X146958D01*
Y95679D01*
D02*
G37*
G36*
X102362Y88430D02*
X101667Y88292D01*
X101078Y87898D01*
X100684Y87309D01*
X100546Y86614D01*
X100684Y85919D01*
X101078Y85330D01*
X101667Y84936D01*
X102362Y84798D01*
X103057Y84936D01*
X103646Y85330D01*
X104040Y85919D01*
X104178Y86614D01*
X104040Y87309D01*
X103646Y87898D01*
X103057Y88292D01*
X102362Y88430D01*
D02*
G37*
G36*
X90945Y87249D02*
X90250Y87111D01*
X89661Y86717D01*
X89267Y86128D01*
X89129Y85433D01*
X89267Y84738D01*
X89661Y84149D01*
X90250Y83755D01*
X90945Y83617D01*
X91640Y83755D01*
X92229Y84149D01*
X92623Y84738D01*
X92761Y85433D01*
X92623Y86128D01*
X92229Y86717D01*
X91640Y87111D01*
X90945Y87249D01*
D02*
G37*
G36*
X259055Y86068D02*
X258360Y85930D01*
X257771Y85536D01*
X257377Y84947D01*
X257239Y84252D01*
X257377Y83557D01*
X257771Y82968D01*
X258360Y82574D01*
X259055Y82436D01*
X259750Y82574D01*
X260339Y82968D01*
X260733Y83557D01*
X260871Y84252D01*
X260733Y84947D01*
X260339Y85536D01*
X259750Y85930D01*
X259055Y86068D01*
D02*
G37*
G36*
X65748Y85281D02*
X65053Y85142D01*
X64464Y84749D01*
X64070Y84159D01*
X63932Y83465D01*
X64070Y82770D01*
X64464Y82181D01*
X65053Y81787D01*
X65748Y81649D01*
X66443Y81787D01*
X67032Y82181D01*
X67426Y82770D01*
X67564Y83465D01*
X67426Y84159D01*
X67032Y84749D01*
X66443Y85142D01*
X65748Y85281D01*
D02*
G37*
G36*
X71260Y84493D02*
X70565Y84355D01*
X69976Y83961D01*
X69582Y83372D01*
X69444Y82677D01*
X69582Y81982D01*
X69976Y81393D01*
X70565Y80999D01*
X71260Y80861D01*
X71955Y80999D01*
X72544Y81393D01*
X72938Y81982D01*
X73076Y82677D01*
X72938Y83372D01*
X72544Y83961D01*
X71955Y84355D01*
X71260Y84493D01*
D02*
G37*
G36*
X136531Y91036D02*
X132775D01*
X129020D01*
Y87130D01*
X129020Y87008D01*
X128724Y86630D01*
X128725Y86615D01*
Y82587D01*
X132480D01*
Y82087D01*
X132980D01*
Y77543D01*
X136236D01*
Y81073D01*
X137894D01*
X138282Y81151D01*
X138610Y81370D01*
X138830Y81699D01*
X138907Y82087D01*
X138830Y82474D01*
X138610Y82803D01*
X138282Y83023D01*
X137894Y83100D01*
X136236D01*
Y86492D01*
X136236Y86615D01*
X136531Y86992D01*
X136531Y87008D01*
Y87925D01*
X138189D01*
X138577Y88003D01*
X138905Y88222D01*
X139125Y88551D01*
X139202Y88939D01*
X139125Y89326D01*
X138905Y89655D01*
X138577Y89875D01*
X138189Y89952D01*
X136531D01*
Y91036D01*
D02*
G37*
G36*
X131980Y81587D02*
X128725D01*
Y77543D01*
X131980D01*
Y81587D01*
D02*
G37*
G36*
X205020Y80753D02*
X204325Y80615D01*
X203736Y80221D01*
X203342Y79632D01*
X203204Y78937D01*
X203342Y78242D01*
X203736Y77653D01*
X204325Y77259D01*
X205020Y77121D01*
X205715Y77259D01*
X206304Y77653D01*
X206697Y78242D01*
X206836Y78937D01*
X206697Y79632D01*
X206304Y80221D01*
X205715Y80615D01*
X205020Y80753D01*
D02*
G37*
G36*
X318898Y79375D02*
X318203Y79237D01*
X317614Y78843D01*
X317220Y78254D01*
X317082Y77559D01*
X317220Y76864D01*
X317614Y76275D01*
X318203Y75881D01*
X318898Y75743D01*
X319593Y75881D01*
X320182Y76275D01*
X320575Y76864D01*
X320714Y77559D01*
X320575Y78254D01*
X320182Y78843D01*
X319593Y79237D01*
X318898Y79375D01*
D02*
G37*
G36*
X367710Y77354D02*
X362528D01*
Y75059D01*
X364981D01*
X365704Y75154D01*
X366378Y75433D01*
X366957Y75877D01*
X367401Y76456D01*
X367681Y77130D01*
X367710Y77354D01*
D02*
G37*
G36*
X361528D02*
X356345D01*
X356375Y77130D01*
X356654Y76456D01*
X357098Y75877D01*
X357677Y75433D01*
X358351Y75154D01*
X359075Y75059D01*
X361528D01*
Y77354D01*
D02*
G37*
G36*
X245669Y95911D02*
X244974Y95772D01*
X244385Y95379D01*
X243991Y94789D01*
X243853Y94095D01*
X243991Y93400D01*
X244385Y92810D01*
X244656Y92629D01*
Y85433D01*
X244733Y85045D01*
X244953Y84717D01*
X254941Y74729D01*
X254877Y74410D01*
X255015Y73715D01*
X255409Y73125D01*
X255998Y72732D01*
X256693Y72593D01*
X257388Y72732D01*
X257977Y73125D01*
X258371Y73715D01*
X258509Y74410D01*
X258371Y75104D01*
X257977Y75694D01*
X257388Y76087D01*
X256693Y76225D01*
X256373Y76162D01*
X246683Y85853D01*
Y92629D01*
X246953Y92810D01*
X247347Y93400D01*
X247485Y94095D01*
X247347Y94789D01*
X246953Y95379D01*
X246364Y95772D01*
X245669Y95911D01*
D02*
G37*
G36*
X195374Y75438D02*
X194679Y75300D01*
X194090Y74906D01*
X193696Y74317D01*
X193558Y73622D01*
X193696Y72927D01*
X194090Y72338D01*
X194679Y71944D01*
X195374Y71806D01*
X196069Y71944D01*
X196658Y72338D01*
X197052Y72927D01*
X197190Y73622D01*
X197052Y74317D01*
X196658Y74906D01*
X196069Y75300D01*
X195374Y75438D01*
D02*
G37*
G36*
X341945Y72457D02*
X340264D01*
Y70079D01*
Y67701D01*
X341945D01*
Y69066D01*
X343307D01*
X343695Y69143D01*
X344023Y69362D01*
X344243Y69691D01*
X344320Y70079D01*
X344243Y70467D01*
X344023Y70795D01*
X343695Y71015D01*
X343307Y71092D01*
X341945D01*
Y72457D01*
D02*
G37*
G36*
X331890Y78794D02*
X331195Y78656D01*
X330606Y78262D01*
X330212Y77673D01*
X330157Y77396D01*
X328676D01*
X328288Y77319D01*
X327959Y77099D01*
X320189Y69329D01*
X319970Y69000D01*
X319892Y68613D01*
Y50065D01*
X315794Y45967D01*
X309153D01*
X295562Y59558D01*
X295753Y60020D01*
X304390D01*
X313062Y51348D01*
X312889Y51089D01*
X312751Y50394D01*
X312889Y49699D01*
X313283Y49110D01*
X313872Y48716D01*
X314567Y48578D01*
X315262Y48716D01*
X315851Y49110D01*
X316245Y49699D01*
X316364Y50299D01*
X316494Y50492D01*
X316816Y50778D01*
X317361Y50887D01*
X317950Y51280D01*
X318344Y51870D01*
X318482Y52565D01*
X318344Y53259D01*
X317950Y53849D01*
X317361Y54242D01*
X316666Y54381D01*
X315971Y54242D01*
X315712Y54069D01*
X306260Y63521D01*
X305931Y63741D01*
X305544Y63818D01*
X266892D01*
X261989Y68721D01*
X261660Y68941D01*
X261272Y69018D01*
X235993D01*
X235763Y69172D01*
X235375Y69249D01*
X210755D01*
X210367Y69172D01*
X210039Y68952D01*
X198918Y57831D01*
X12907D01*
X12519Y57754D01*
X12190Y57534D01*
X11225Y56569D01*
X10708Y56641D01*
X10637Y56994D01*
X10244Y57583D01*
X9655Y57977D01*
X8960Y58115D01*
X8265Y57977D01*
X7676Y57583D01*
X7282Y56994D01*
X7144Y56299D01*
X7282Y55604D01*
X7676Y55015D01*
X8265Y54621D01*
X8960Y54483D01*
X8988Y54489D01*
X9148Y54040D01*
X8558Y53646D01*
X8165Y53057D01*
X8027Y52362D01*
X8165Y51667D01*
X8558Y51078D01*
X9148Y50684D01*
X9843Y50546D01*
X10537Y50684D01*
X11127Y51078D01*
X11520Y51667D01*
X11659Y52362D01*
X11928Y52691D01*
X12298D01*
X12686Y52768D01*
X13014Y52988D01*
X14060Y54033D01*
X200072D01*
X200459Y54110D01*
X200788Y54330D01*
X211909Y65451D01*
X234255D01*
X234485Y65297D01*
X234872Y65220D01*
X260119D01*
X264218Y61121D01*
X264027Y60659D01*
X246085D01*
X245933Y61159D01*
X246166Y61314D01*
X246560Y61904D01*
X246698Y62598D01*
X246560Y63293D01*
X246166Y63882D01*
X245577Y64276D01*
X244882Y64414D01*
X244187Y64276D01*
X243598Y63882D01*
X243417Y63612D01*
X234252D01*
X233864Y63534D01*
X233536Y63315D01*
X223202Y52982D01*
X217717D01*
X217329Y52904D01*
X217000Y52685D01*
X203221Y38905D01*
X203001Y38577D01*
X202924Y38189D01*
Y32568D01*
X202653Y32386D01*
X202259Y31797D01*
X202121Y31102D01*
X202259Y30407D01*
X202653Y29818D01*
X203242Y29425D01*
X203937Y29286D01*
X204632Y29425D01*
X205221Y29818D01*
X205615Y30407D01*
X205753Y31102D01*
X205615Y31797D01*
X205221Y32386D01*
X204950Y32568D01*
Y37769D01*
X218136Y50955D01*
X223622D01*
X224010Y51033D01*
X224339Y51252D01*
X234672Y61585D01*
X243417D01*
X243598Y61314D01*
X243830Y61159D01*
X243679Y60659D01*
X237205D01*
X236817Y60582D01*
X236488Y60362D01*
X222118Y45992D01*
X221899Y45663D01*
X221821Y45276D01*
Y42393D01*
X221322Y42126D01*
X221167Y42229D01*
X220472Y42367D01*
X219777Y42229D01*
X219188Y41835D01*
X218795Y41246D01*
X218656Y40551D01*
X218795Y39856D01*
X219188Y39267D01*
X219149Y38692D01*
X214099Y33642D01*
X213779Y33706D01*
X213085Y33568D01*
X212495Y33174D01*
X212102Y32585D01*
X211964Y31890D01*
X212102Y31195D01*
X212495Y30606D01*
X213085Y30212D01*
X213779Y30074D01*
X214475Y30212D01*
X215064Y30606D01*
X215457Y31195D01*
X215596Y31890D01*
X215532Y32209D01*
X221189Y37866D01*
X221322Y38065D01*
X221821Y37913D01*
Y35065D01*
X213950Y27194D01*
X147888D01*
X147501Y27117D01*
X147172Y26897D01*
X97709Y-22566D01*
X97489Y-22894D01*
X97412Y-23282D01*
Y-49902D01*
X91112Y-56203D01*
X91048Y-56196D01*
X90459Y-55803D01*
X89764Y-55664D01*
X89069Y-55803D01*
X88480Y-56196D01*
X88086Y-56785D01*
X87948Y-57480D01*
X88086Y-58175D01*
X88480Y-58764D01*
X89069Y-59158D01*
X89764Y-59296D01*
X90352Y-59179D01*
X90611Y-59448D01*
X90682Y-59585D01*
X90448Y-59935D01*
X90310Y-60630D01*
X90448Y-61325D01*
X90842Y-61914D01*
X91431Y-62308D01*
X92126Y-62446D01*
X92821Y-62308D01*
X93410Y-61914D01*
X93804Y-61325D01*
X93942Y-60630D01*
X93804Y-59935D01*
X93410Y-59346D01*
X93404Y-59282D01*
X100913Y-51772D01*
X101133Y-51444D01*
X101210Y-51056D01*
Y-24435D01*
X149042Y23396D01*
X215104D01*
X215492Y23473D01*
X215820Y23693D01*
X225323Y33195D01*
X225542Y33524D01*
X225620Y33912D01*
Y44122D01*
X238358Y56861D01*
X277292D01*
X277559Y56361D01*
X277456Y56207D01*
X277318Y55512D01*
X277456Y54817D01*
X277850Y54228D01*
X278439Y53834D01*
X279134Y53696D01*
X279453Y53759D01*
X281664Y51549D01*
Y49239D01*
X217788Y-14638D01*
X217568Y-14967D01*
X217491Y-15354D01*
Y-17039D01*
X217220Y-17220D01*
X216826Y-17809D01*
X216688Y-18504D01*
X216826Y-19199D01*
X217220Y-19788D01*
X217809Y-20182D01*
X218504Y-20320D01*
X219199Y-20182D01*
X219788Y-19788D01*
X220182Y-19199D01*
X220320Y-18504D01*
X220182Y-17809D01*
X219788Y-17220D01*
X219517Y-17039D01*
Y-15774D01*
X252226Y16935D01*
X252685Y16726D01*
X252744Y16304D01*
X230483Y-5957D01*
X230453Y-5976D01*
X230234Y-6305D01*
X230157Y-6693D01*
Y-53450D01*
X221579Y-62027D01*
X221260Y-61963D01*
X220565Y-62102D01*
X219976Y-62495D01*
X219582Y-63085D01*
X219444Y-63779D01*
X219582Y-64474D01*
X219976Y-65064D01*
X220565Y-65457D01*
X221260Y-65596D01*
X221955Y-65457D01*
X222544Y-65064D01*
X222938Y-64474D01*
X223076Y-63779D01*
X223012Y-63460D01*
X231886Y-54586D01*
X232106Y-54257D01*
X232183Y-53869D01*
Y-7122D01*
X254065Y14760D01*
X254662Y14738D01*
X257496Y11905D01*
X256683Y11091D01*
X259480Y8294D01*
X261911Y10724D01*
X262132Y10945D01*
X262353Y11167D01*
X264783Y13597D01*
X261986Y16394D01*
X261507Y15916D01*
X259999Y17424D01*
X260084Y17852D01*
X259946Y18547D01*
X259552Y19136D01*
X258963Y19530D01*
X258268Y19668D01*
X257573Y19530D01*
X256984Y19136D01*
X256590Y18547D01*
X256471Y17949D01*
X256160Y17819D01*
X255970Y17798D01*
X255850Y17978D01*
X255261Y18372D01*
X254566Y18510D01*
X254493Y18495D01*
X254247Y18956D01*
X283394Y48103D01*
X283613Y48431D01*
X283690Y48819D01*
Y51968D01*
X283613Y52356D01*
X283394Y52685D01*
X280886Y55192D01*
X280950Y55512D01*
X280812Y56207D01*
X280709Y56361D01*
X280976Y56861D01*
X292887D01*
X306764Y42984D01*
X307283Y42465D01*
X307611Y42246D01*
X307999Y42169D01*
X316947D01*
X317335Y42246D01*
X317664Y42465D01*
X323394Y48195D01*
X323613Y48524D01*
X323690Y48912D01*
Y61206D01*
X323965Y61350D01*
X324190Y61385D01*
X325268Y60307D01*
X325596Y60088D01*
X325984Y60010D01*
X327077D01*
Y59085D01*
X330614D01*
Y58685D01*
X331782D01*
Y58149D01*
X331859Y57762D01*
X332079Y57433D01*
X332164Y57349D01*
Y55111D01*
X332241Y54723D01*
X332460Y54394D01*
X332789Y54175D01*
X333177Y54097D01*
X333564Y54175D01*
X333893Y54394D01*
X334113Y54723D01*
X334190Y55111D01*
Y57768D01*
X334113Y58156D01*
X334093Y58185D01*
X334361Y58685D01*
X334977D01*
Y60563D01*
X332795D01*
Y61063D01*
X332295D01*
Y63441D01*
X330614D01*
Y63041D01*
X327077D01*
Y62037D01*
X326404D01*
X325865Y62576D01*
Y65464D01*
X326136Y65645D01*
X326530Y66234D01*
X326668Y66929D01*
X326530Y67624D01*
X326136Y68213D01*
X325547Y68607D01*
X325476Y68621D01*
X325331Y69099D01*
X329677Y73446D01*
X330212Y73321D01*
X330606Y72732D01*
X331149Y72369D01*
X331164Y72187D01*
X331096Y71848D01*
X330633Y71757D01*
X330044Y71363D01*
X329651Y70774D01*
X329512Y70079D01*
X329651Y69384D01*
X330044Y68795D01*
X330633Y68401D01*
X331328Y68263D01*
X332023Y68401D01*
X332612Y68795D01*
X332793Y69066D01*
X334046D01*
Y68101D01*
X337583D01*
Y67701D01*
X339264D01*
Y70079D01*
Y72457D01*
X337583D01*
Y72057D01*
X334046D01*
Y71092D01*
X332793D01*
X332612Y71363D01*
X332069Y71726D01*
X332054Y71907D01*
X332122Y72246D01*
X332585Y72338D01*
X333174Y72732D01*
X333568Y73321D01*
X333706Y74016D01*
X333568Y74711D01*
X333174Y75300D01*
Y75694D01*
X333568Y76283D01*
X333706Y76978D01*
X333568Y77673D01*
X333174Y78262D01*
X332585Y78656D01*
X331890Y78794D01*
D02*
G37*
G36*
X90158Y71107D02*
X89463Y70969D01*
X88873Y70575D01*
X88480Y69986D01*
X88341Y69291D01*
X88480Y68596D01*
X88873Y68007D01*
X89463Y67614D01*
X90158Y67475D01*
X90852Y67614D01*
X91442Y68007D01*
X91835Y68596D01*
X91974Y69291D01*
X91835Y69986D01*
X91442Y70575D01*
X90852Y70969D01*
X90158Y71107D01*
D02*
G37*
G36*
X272047Y70320D02*
X271352Y70182D01*
X270763Y69788D01*
X270370Y69199D01*
X270231Y68504D01*
X270370Y67809D01*
X270763Y67220D01*
X271352Y66826D01*
X272047Y66688D01*
X272742Y66826D01*
X273331Y67220D01*
X273725Y67809D01*
X273863Y68504D01*
X273725Y69199D01*
X273331Y69788D01*
X272742Y70182D01*
X272047Y70320D01*
D02*
G37*
G36*
X205118Y70222D02*
X204423Y70083D01*
X203834Y69690D01*
X203440Y69100D01*
X203302Y68405D01*
X203440Y67711D01*
X203834Y67121D01*
X204423Y66728D01*
X205118Y66589D01*
X205813Y66728D01*
X206402Y67121D01*
X206796Y67711D01*
X206934Y68405D01*
X206796Y69100D01*
X206402Y69690D01*
X205813Y70083D01*
X205118Y70222D01*
D02*
G37*
G36*
X355118Y66777D02*
X354423Y66638D01*
X353834Y66245D01*
X353440Y65656D01*
X353302Y64961D01*
X353440Y64266D01*
X353834Y63677D01*
X354423Y63283D01*
X355118Y63145D01*
X355813Y63283D01*
X356402Y63677D01*
X356796Y64266D01*
X356934Y64961D01*
X356796Y65656D01*
X356402Y66245D01*
X355813Y66638D01*
X355118Y66777D01*
D02*
G37*
G36*
X-29528Y66383D02*
X-30222Y66245D01*
X-30812Y65851D01*
X-31205Y65262D01*
X-31343Y64567D01*
X-31205Y63872D01*
X-30812Y63283D01*
X-30222Y62889D01*
X-29528Y62751D01*
X-28833Y62889D01*
X-28243Y63283D01*
X-27850Y63872D01*
X-27712Y64567D01*
X-27850Y65262D01*
X-28243Y65851D01*
X-28833Y66245D01*
X-29528Y66383D01*
D02*
G37*
G36*
X334977Y63441D02*
X333295D01*
Y61563D01*
X334977D01*
Y63441D01*
D02*
G37*
G36*
X71653Y53199D02*
X70959Y53061D01*
X70369Y52667D01*
X69976Y52078D01*
X69837Y51383D01*
X69976Y50688D01*
X70369Y50099D01*
X70959Y49705D01*
X71653Y49567D01*
X72348Y49705D01*
X72938Y50099D01*
X73331Y50688D01*
X73470Y51383D01*
X73331Y52078D01*
X72938Y52667D01*
X72348Y53061D01*
X71653Y53199D01*
D02*
G37*
G36*
X-8776Y49031D02*
X-9017Y48631D01*
X-9275Y48631D01*
X-13690D01*
Y47649D01*
X-13781Y47577D01*
X-14190Y47427D01*
X-14659Y47741D01*
X-15354Y47879D01*
X-16049Y47741D01*
X-16638Y47347D01*
X-17032Y46758D01*
X-17170Y46063D01*
X-17032Y45368D01*
X-16638Y44779D01*
X-16049Y44385D01*
X-15354Y44247D01*
X-14659Y44385D01*
X-14190Y44699D01*
X-13781Y44549D01*
X-13690Y44477D01*
Y43494D01*
X-9017Y43494D01*
X-8776Y43094D01*
X-8706Y43094D01*
X-8706Y43094D01*
X-6504D01*
Y46063D01*
Y49031D01*
X-8706D01*
Y49031D01*
X-8706D01*
X-8776D01*
D02*
G37*
G36*
X349410Y47092D02*
X348714Y46953D01*
X348125Y46560D01*
X347732Y45970D01*
X347593Y45276D01*
X347732Y44581D01*
X348125Y43992D01*
X348714Y43598D01*
X349410Y43460D01*
X350104Y43598D01*
X350694Y43992D01*
X351087Y44581D01*
X351225Y45276D01*
X351087Y45970D01*
X350694Y46560D01*
X350104Y46953D01*
X349410Y47092D01*
D02*
G37*
G36*
X-5504Y49031D02*
Y46063D01*
Y43094D01*
X-3232D01*
Y45050D01*
X-1575D01*
X-1187Y45127D01*
X-858Y45347D01*
X-639Y45675D01*
X-562Y46063D01*
X-639Y46451D01*
X-858Y46779D01*
X-1187Y46999D01*
X-1575Y47076D01*
X-3232D01*
Y49031D01*
X-5504D01*
D02*
G37*
G36*
X114400Y48338D02*
X111700Y45638D01*
X114400Y42938D01*
X114789Y43446D01*
X115227Y44504D01*
X115376Y45638D01*
X115227Y46773D01*
X114789Y47830D01*
X114400Y48338D01*
D02*
G37*
G36*
X215748Y45517D02*
X215053Y45379D01*
X214464Y44985D01*
X214070Y44396D01*
X213932Y43701D01*
X213996Y43381D01*
X207945Y37331D01*
X207725Y37002D01*
X207648Y36614D01*
Y33936D01*
X207377Y33755D01*
X206984Y33166D01*
X206845Y32471D01*
X206984Y31776D01*
X207377Y31187D01*
X207966Y30793D01*
X208661Y30655D01*
X209356Y30793D01*
X209946Y31187D01*
X210339Y31776D01*
X210477Y32471D01*
X210339Y33166D01*
X209946Y33755D01*
X209675Y33936D01*
Y36195D01*
X215428Y41948D01*
X215748Y41885D01*
X216443Y42023D01*
X217032Y42417D01*
X217426Y43006D01*
X217564Y43701D01*
X217426Y44396D01*
X217032Y44985D01*
X216443Y45379D01*
X215748Y45517D01*
D02*
G37*
G36*
X110993Y44931D02*
X108293Y42231D01*
X108800Y41842D01*
X109858Y41404D01*
X110993Y41254D01*
X112127Y41404D01*
X113184Y41842D01*
X113692Y42231D01*
X110993Y44931D01*
D02*
G37*
G36*
X342520Y42170D02*
X341825Y42032D01*
X341236Y41638D01*
X340842Y41049D01*
X340704Y40354D01*
X340842Y39659D01*
X341236Y39070D01*
X341825Y38677D01*
X342520Y38538D01*
X343215Y38677D01*
X343804Y39070D01*
X344197Y39659D01*
X344336Y40354D01*
X344197Y41049D01*
X343804Y41638D01*
X343215Y42032D01*
X342520Y42170D01*
D02*
G37*
G36*
X-29435Y41094D02*
X-30130Y40955D01*
X-30719Y40562D01*
X-31113Y39973D01*
X-31251Y39278D01*
X-31113Y38583D01*
X-30719Y37994D01*
X-30130Y37600D01*
X-29435Y37462D01*
X-28740Y37600D01*
X-28151Y37994D01*
X-27757Y38583D01*
X-27619Y39278D01*
X-27757Y39973D01*
X-28151Y40562D01*
X-28740Y40955D01*
X-29435Y41094D01*
D02*
G37*
G36*
X235827Y40792D02*
X235132Y40654D01*
X234543Y40260D01*
X234149Y39671D01*
X234011Y38976D01*
X234149Y38281D01*
X234543Y37692D01*
X235132Y37299D01*
X235827Y37160D01*
X236522Y37299D01*
X237111Y37692D01*
X237505Y38281D01*
X237643Y38976D01*
X237505Y39671D01*
X237111Y40260D01*
X236522Y40654D01*
X235827Y40792D01*
D02*
G37*
G36*
X-29921Y82525D02*
X-30616Y82386D01*
X-31205Y81993D01*
X-31599Y81404D01*
X-31737Y80709D01*
X-31599Y80014D01*
X-31205Y79425D01*
X-30616Y79031D01*
X-29921Y78893D01*
X-29602Y78956D01*
X-26300Y75655D01*
Y38519D01*
X-28421Y36398D01*
X-28740Y36462D01*
X-29435Y36323D01*
X-30024Y35930D01*
X-30418Y35341D01*
X-30556Y34646D01*
X-30418Y33951D01*
X-30024Y33362D01*
X-29435Y32968D01*
X-28740Y32830D01*
X-28045Y32968D01*
X-27456Y33362D01*
X-27062Y33951D01*
X-26924Y34646D01*
X-26988Y34965D01*
X-24570Y37383D01*
X-24351Y37711D01*
X-24274Y38099D01*
Y76074D01*
X-24351Y76462D01*
X-24570Y76791D01*
X-28169Y80389D01*
X-28105Y80709D01*
X-28243Y81404D01*
X-28637Y81993D01*
X-29226Y82386D01*
X-29921Y82525D01*
D02*
G37*
G36*
X246457Y39611D02*
X245762Y39473D01*
X245173Y39079D01*
X244779Y38490D01*
X244641Y37795D01*
X244704Y37476D01*
X234717Y27488D01*
X234497Y27159D01*
X234420Y26772D01*
Y24042D01*
X216751Y6373D01*
X216290Y6619D01*
X216383Y7087D01*
X216245Y7782D01*
X215851Y8371D01*
X215262Y8764D01*
X214567Y8903D01*
X213872Y8764D01*
X213283Y8371D01*
X212889Y7782D01*
X212751Y7087D01*
X212814Y6767D01*
X192494Y-13554D01*
X153543D01*
X153156Y-13631D01*
X152827Y-13850D01*
X149677Y-17000D01*
X149458Y-17329D01*
X149381Y-17717D01*
Y-24016D01*
X149458Y-24404D01*
X149677Y-24732D01*
X151004Y-26058D01*
X150940Y-26378D01*
X151078Y-27073D01*
X151472Y-27662D01*
X152061Y-28056D01*
X152756Y-28194D01*
X153451Y-28056D01*
X154040Y-27662D01*
X154434Y-27073D01*
X154572Y-26378D01*
X154434Y-25683D01*
X154040Y-25094D01*
X153451Y-24700D01*
X152756Y-24562D01*
X152436Y-24625D01*
X151407Y-23596D01*
Y-18136D01*
X153963Y-15580D01*
X192913D01*
X193301Y-15503D01*
X193630Y-15283D01*
X214247Y5334D01*
X214567Y5271D01*
X215035Y5364D01*
X215281Y4903D01*
X189344Y-21034D01*
X161701D01*
X161520Y-20763D01*
X160931Y-20369D01*
X160236Y-20231D01*
X159541Y-20369D01*
X158952Y-20763D01*
X158558Y-21352D01*
X158420Y-22047D01*
X158558Y-22742D01*
X158952Y-23331D01*
X159541Y-23725D01*
X160236Y-23863D01*
X160931Y-23725D01*
X161520Y-23331D01*
X161701Y-23060D01*
X189764D01*
X190152Y-22983D01*
X190480Y-22764D01*
X236150Y22906D01*
X236369Y23234D01*
X236446Y23622D01*
Y26352D01*
X246137Y36043D01*
X246457Y35979D01*
X247152Y36118D01*
X247741Y36511D01*
X248134Y37100D01*
X248273Y37795D01*
X248134Y38490D01*
X247741Y39079D01*
X247152Y39473D01*
X246457Y39611D01*
D02*
G37*
G36*
X103921Y42548D02*
X102891Y42412D01*
X101931Y42014D01*
X101107Y41382D01*
X100474Y40557D01*
X100077Y39597D01*
X99941Y38567D01*
X100077Y37537D01*
X100474Y36577D01*
X101107Y35752D01*
X101931Y35120D01*
X102891Y34722D01*
X103921Y34587D01*
X104952Y34722D01*
X105912Y35120D01*
X106736Y35752D01*
X107369Y36577D01*
X107766Y37537D01*
X107902Y38567D01*
X107766Y39597D01*
X107369Y40557D01*
X106736Y41382D01*
X105912Y42014D01*
X104952Y42412D01*
X103921Y42548D01*
D02*
G37*
G36*
X249080Y53578D02*
X248385Y53440D01*
X247796Y53046D01*
X247615Y52775D01*
X239632D01*
X239244Y52698D01*
X238915Y52479D01*
X237266Y50830D01*
X237047Y50501D01*
X236969Y50113D01*
Y47450D01*
X237047Y47063D01*
X237266Y46734D01*
X240374Y43627D01*
X240310Y43307D01*
X240448Y42612D01*
X240842Y42023D01*
X241113Y41842D01*
Y39002D01*
X219659Y17549D01*
X217213D01*
X217032Y17819D01*
X216443Y18213D01*
X215748Y18351D01*
X215053Y18213D01*
X214464Y17819D01*
X214070Y17230D01*
X213932Y16535D01*
X214070Y15841D01*
X214464Y15251D01*
X215053Y14858D01*
X215748Y14719D01*
X216443Y14858D01*
X217032Y15251D01*
X217213Y15522D01*
X220079D01*
X220466Y15599D01*
X220795Y15819D01*
X242842Y37866D01*
X243062Y38195D01*
X243139Y38583D01*
Y41842D01*
X243410Y42023D01*
X243804Y42612D01*
X243942Y43307D01*
X243804Y44002D01*
X243410Y44591D01*
X242821Y44985D01*
X242126Y45123D01*
X241806Y45059D01*
X239935Y46931D01*
X240126Y47330D01*
X240173Y47400D01*
X240852Y47535D01*
X241442Y47929D01*
X241623Y48199D01*
X247612D01*
X250289Y45523D01*
Y35580D01*
X244020Y29311D01*
X243701Y29375D01*
X243006Y29237D01*
X242417Y28843D01*
X242023Y28254D01*
X241885Y27559D01*
X242023Y26864D01*
X242417Y26275D01*
X243006Y25881D01*
X243357Y25811D01*
X243521Y25269D01*
X232801Y14549D01*
X232582Y14220D01*
X232505Y13833D01*
Y11496D01*
X231318Y10310D01*
X230857Y10556D01*
X230950Y11024D01*
X230812Y11719D01*
X230418Y12308D01*
X229829Y12701D01*
X229134Y12840D01*
X228439Y12701D01*
X227850Y12308D01*
X227456Y11719D01*
X227321Y11037D01*
X190131Y-26152D01*
X160262D01*
X156477Y-22367D01*
X156540Y-22047D01*
X156402Y-21352D01*
X156009Y-20763D01*
X155419Y-20369D01*
X154724Y-20231D01*
X154030Y-20369D01*
X153440Y-20763D01*
X153047Y-21352D01*
X152908Y-22047D01*
X153047Y-22742D01*
X153440Y-23331D01*
X154030Y-23725D01*
X154724Y-23863D01*
X155044Y-23800D01*
X159126Y-27882D01*
X159455Y-28101D01*
X159843Y-28179D01*
X190551D01*
X190939Y-28101D01*
X191268Y-27882D01*
X228486Y9336D01*
X229134Y9208D01*
X229602Y9301D01*
X229848Y8840D01*
X200320Y-20688D01*
X200000Y-20625D01*
X199305Y-20763D01*
X198716Y-21157D01*
X198322Y-21746D01*
X198184Y-22441D01*
X198322Y-23136D01*
X198716Y-23725D01*
X199305Y-24119D01*
X200000Y-24257D01*
X200695Y-24119D01*
X201284Y-23725D01*
X201678Y-23136D01*
X201816Y-22441D01*
X201752Y-22121D01*
X210336Y-13538D01*
X210798Y-13729D01*
Y-20866D01*
X210875Y-21254D01*
X211095Y-21583D01*
X213850Y-24339D01*
X214179Y-24558D01*
X214567Y-24635D01*
X217039D01*
X217220Y-24906D01*
X217809Y-25300D01*
X218504Y-25438D01*
X219199Y-25300D01*
X219788Y-24906D01*
X220182Y-24317D01*
X220320Y-23622D01*
X220182Y-22927D01*
X219788Y-22338D01*
X219199Y-21944D01*
X218504Y-21806D01*
X217809Y-21944D01*
X217220Y-22338D01*
X217039Y-22609D01*
X214987D01*
X212824Y-20447D01*
Y-13405D01*
X238961Y12731D01*
X239180Y13060D01*
X239258Y13448D01*
Y14119D01*
X239830Y14501D01*
X240223Y15090D01*
X240362Y15785D01*
X240223Y16480D01*
X239830Y17069D01*
X239269Y17444D01*
X239194Y17524D01*
X239065Y17947D01*
X251649Y30531D01*
X251969Y30468D01*
X252663Y30606D01*
X253253Y30999D01*
X253646Y31589D01*
X253784Y32283D01*
X253646Y32978D01*
X253253Y33568D01*
X252663Y33961D01*
X252313Y34031D01*
X252220Y34161D01*
X252110Y34581D01*
X252238Y34772D01*
X252315Y35160D01*
Y45942D01*
X252238Y46330D01*
X252018Y46659D01*
X249214Y49463D01*
X249378Y50006D01*
X249775Y50084D01*
X250364Y50478D01*
X250758Y51067D01*
X250896Y51762D01*
X250758Y52457D01*
X250364Y53046D01*
X249775Y53440D01*
X249080Y53578D01*
D02*
G37*
G36*
X323819Y31343D02*
X323124Y31205D01*
X322535Y30812D01*
X322141Y30222D01*
X322003Y29528D01*
X322141Y28833D01*
X322535Y28243D01*
X323124Y27850D01*
X323819Y27712D01*
X324514Y27850D01*
X325103Y28243D01*
X325497Y28833D01*
X325635Y29528D01*
X325497Y30222D01*
X325103Y30812D01*
X324514Y31205D01*
X323819Y31343D01*
D02*
G37*
G36*
X96850Y35477D02*
X95820Y35341D01*
X94860Y34943D01*
X94036Y34311D01*
X93403Y33486D01*
X93006Y32526D01*
X92870Y31496D01*
X93006Y30466D01*
X93403Y29506D01*
X94036Y28681D01*
X94860Y28049D01*
X95820Y27651D01*
X96850Y27516D01*
X97881Y27651D01*
X98841Y28049D01*
X99665Y28681D01*
X100298Y29506D01*
X100695Y30466D01*
X100831Y31496D01*
X100695Y32526D01*
X100298Y33486D01*
X99665Y34311D01*
X98841Y34943D01*
X97881Y35341D01*
X96850Y35477D01*
D02*
G37*
G36*
X43307Y27406D02*
X42612Y27268D01*
X42023Y26875D01*
X41629Y26285D01*
X41491Y25591D01*
X41629Y24896D01*
X42023Y24306D01*
X42612Y23913D01*
X43307Y23775D01*
X44002Y23913D01*
X44591Y24306D01*
X44985Y24896D01*
X45123Y25591D01*
X44985Y26285D01*
X44591Y26875D01*
X44002Y27268D01*
X43307Y27406D01*
D02*
G37*
G36*
X67716Y26225D02*
X67022Y26087D01*
X66432Y25694D01*
X66039Y25104D01*
X65900Y24409D01*
X66039Y23715D01*
X66432Y23125D01*
X67022Y22732D01*
X67716Y22593D01*
X68411Y22732D01*
X69001Y23125D01*
X69394Y23715D01*
X69533Y24409D01*
X69394Y25104D01*
X69001Y25694D01*
X68411Y26087D01*
X67716Y26225D01*
D02*
G37*
G36*
X89779Y28405D02*
X88749Y28270D01*
X87789Y27872D01*
X86965Y27240D01*
X86332Y26415D01*
X85934Y25455D01*
X85799Y24425D01*
X85934Y23395D01*
X86332Y22435D01*
X86965Y21610D01*
X87789Y20978D01*
X88749Y20580D01*
X89779Y20445D01*
X90810Y20580D01*
X91770Y20978D01*
X92594Y21610D01*
X93226Y22435D01*
X93624Y23395D01*
X93760Y24425D01*
X93624Y25455D01*
X93226Y26415D01*
X92594Y27240D01*
X91770Y27872D01*
X90810Y28270D01*
X89779Y28405D01*
D02*
G37*
G36*
X-7087Y23076D02*
X-7782Y22938D01*
X-8371Y22544D01*
X-8764Y21955D01*
X-8903Y21260D01*
X-8764Y20565D01*
X-8371Y19976D01*
X-7782Y19582D01*
X-7087Y19444D01*
X-6392Y19582D01*
X-5802Y19976D01*
X-5409Y20565D01*
X-5271Y21260D01*
X-5409Y21955D01*
X-5802Y22544D01*
X-6392Y22938D01*
X-7087Y23076D01*
D02*
G37*
G36*
X16142Y17564D02*
X15447Y17426D01*
X14858Y17032D01*
X14464Y16443D01*
X14326Y15748D01*
X14464Y15053D01*
X14858Y14464D01*
X15447Y14070D01*
X16142Y13932D01*
X16837Y14070D01*
X17426Y14464D01*
X17819Y15053D01*
X17958Y15748D01*
X17819Y16443D01*
X17426Y17032D01*
X16837Y17426D01*
X16142Y17564D01*
D02*
G37*
G36*
X82708Y22935D02*
X77127Y17354D01*
X82708Y11773D01*
X88289Y17354D01*
X82708Y22935D01*
D02*
G37*
G36*
X354331Y14424D02*
X352074Y14246D01*
X349873Y13718D01*
X347782Y12852D01*
X345852Y11669D01*
X344131Y10199D01*
X342661Y8478D01*
X341479Y6548D01*
X340613Y4457D01*
X340084Y2256D01*
X339907Y-0D01*
X340084Y-2256D01*
X340613Y-4457D01*
X341479Y-6548D01*
X342661Y-8478D01*
X344131Y-10199D01*
X345852Y-11669D01*
X347782Y-12852D01*
X349873Y-13718D01*
X352074Y-14246D01*
X354331Y-14424D01*
X356587Y-14246D01*
X358788Y-13718D01*
X360879Y-12852D01*
X362809Y-11669D01*
X364530Y-10199D01*
X366000Y-8478D01*
X367183Y-6548D01*
X368049Y-4457D01*
X368577Y-2256D01*
X368755Y-0D01*
X368577Y2256D01*
X368049Y4457D01*
X367183Y6548D01*
X366000Y8478D01*
X364530Y10199D01*
X362809Y11669D01*
X360879Y12852D01*
X358788Y13718D01*
X356587Y14246D01*
X354331Y14424D01*
D02*
G37*
G36*
X-0D02*
X-2256Y14246D01*
X-4457Y13718D01*
X-6548Y12852D01*
X-8478Y11669D01*
X-10199Y10199D01*
X-11669Y8478D01*
X-12852Y6548D01*
X-13718Y4457D01*
X-14246Y2256D01*
X-14424Y-0D01*
X-14246Y-2256D01*
X-13718Y-4457D01*
X-12852Y-6548D01*
X-11669Y-8478D01*
X-10199Y-10199D01*
X-8478Y-11669D01*
X-6548Y-12852D01*
X-4457Y-13718D01*
X-2256Y-14246D01*
X-0Y-14424D01*
X2256Y-14246D01*
X4457Y-13718D01*
X6548Y-12852D01*
X8478Y-11669D01*
X10199Y-10199D01*
X11669Y-8478D01*
X12852Y-6548D01*
X13718Y-4457D01*
X14246Y-2256D01*
X14424Y-0D01*
X14246Y2256D01*
X13718Y4457D01*
X12852Y6548D01*
X11669Y8478D01*
X10199Y10199D01*
X8478Y11669D01*
X6548Y12852D01*
X4457Y13718D01*
X2256Y14246D01*
X-0Y14424D01*
D02*
G37*
G36*
X62795Y-13834D02*
X62100Y-13972D01*
X61511Y-14366D01*
X61118Y-14955D01*
X60979Y-15650D01*
X61118Y-16345D01*
X61511Y-16934D01*
X62100Y-17327D01*
X62795Y-17466D01*
X63490Y-17327D01*
X64079Y-16934D01*
X64473Y-16345D01*
X64611Y-15650D01*
X64473Y-14955D01*
X64079Y-14366D01*
X63490Y-13972D01*
X62795Y-13834D01*
D02*
G37*
G36*
X292520Y-13932D02*
X291825Y-14070D01*
X291236Y-14464D01*
X290842Y-15053D01*
X290704Y-15748D01*
X290842Y-16443D01*
X291236Y-17032D01*
X291825Y-17426D01*
X292520Y-17564D01*
X292898Y-17990D01*
X292902Y-18100D01*
X291665Y-19337D01*
X296411Y-24083D01*
X296932Y-23562D01*
X298672Y-25302D01*
X298147Y-25827D01*
X297864Y-25544D01*
X297039Y-26370D01*
X295864Y-25196D01*
X296155Y-24905D01*
X293852Y-22603D01*
X291898Y-24557D01*
X294200Y-26859D01*
X294431Y-26629D01*
X295606Y-27803D01*
X294780Y-28629D01*
X296108Y-29957D01*
X297650Y-28414D01*
X298004Y-28768D01*
X298357Y-28414D01*
X300039Y-30096D01*
X301227Y-28907D01*
X300944Y-28624D01*
X302432Y-27137D01*
X303230D01*
X303313Y-27219D01*
X303440Y-27860D01*
X303834Y-28449D01*
X304423Y-28843D01*
X305118Y-28981D01*
X305813Y-28843D01*
X306402Y-28449D01*
X306796Y-27860D01*
X306934Y-27165D01*
X306796Y-26471D01*
X306402Y-25881D01*
X305813Y-25488D01*
X305118Y-25349D01*
X304443Y-25484D01*
X304366Y-25407D01*
X304038Y-25187D01*
X303650Y-25110D01*
X302432D01*
X300648Y-23326D01*
X300105Y-23869D01*
X298365Y-22129D01*
X300461Y-20033D01*
X295715Y-15287D01*
X294872Y-16130D01*
X294762Y-16127D01*
X294336Y-15748D01*
X294197Y-15053D01*
X293804Y-14464D01*
X293215Y-14070D01*
X292520Y-13932D01*
D02*
G37*
G36*
X287008Y-19459D02*
X286620Y-19536D01*
X286291Y-19756D01*
X286072Y-20085D01*
X285995Y-20472D01*
X286072Y-20860D01*
X286291Y-21189D01*
X287770Y-22667D01*
X286227Y-24209D01*
X288530Y-26511D01*
X290838Y-24203D01*
X293145Y-21895D01*
X290843Y-19593D01*
X289202Y-21234D01*
X287724Y-19756D01*
X287396Y-19536D01*
X287008Y-19459D01*
D02*
G37*
G36*
X62894Y-24070D02*
X62199Y-24208D01*
X61610Y-24602D01*
X61216Y-25191D01*
X61078Y-25886D01*
X61216Y-26581D01*
X61610Y-27170D01*
X62199Y-27564D01*
X62894Y-27702D01*
X63589Y-27564D01*
X64178Y-27170D01*
X64571Y-26581D01*
X64710Y-25886D01*
X64571Y-25191D01*
X64178Y-24602D01*
X63589Y-24208D01*
X62894Y-24070D01*
D02*
G37*
G36*
X129921Y-24562D02*
X129226Y-24700D01*
X128637Y-25094D01*
X128244Y-25683D01*
X128105Y-26378D01*
X128244Y-27073D01*
X128637Y-27662D01*
X129226Y-28056D01*
X129921Y-28194D01*
X130616Y-28056D01*
X131205Y-27662D01*
X131599Y-27073D01*
X131737Y-26378D01*
X131599Y-25683D01*
X131205Y-25094D01*
X130616Y-24700D01*
X129921Y-24562D01*
D02*
G37*
G36*
X291191Y-25264D02*
X289237Y-27218D01*
X291539Y-29520D01*
X293493Y-27566D01*
X291191Y-25264D01*
D02*
G37*
G36*
X218898Y-31649D02*
X218203Y-31787D01*
X217614Y-32181D01*
X217301Y-32648D01*
X199365D01*
X199316Y-32574D01*
X198726Y-32181D01*
X198031Y-32042D01*
X197337Y-32181D01*
X196747Y-32574D01*
X196354Y-33163D01*
X196215Y-33858D01*
X196354Y-34553D01*
X196747Y-35142D01*
X197337Y-35536D01*
X198031Y-35674D01*
X198726Y-35536D01*
X199316Y-35142D01*
X199628Y-34675D01*
X217564D01*
X217614Y-34749D01*
X218203Y-35142D01*
X218898Y-35281D01*
X219593Y-35142D01*
X220182Y-34749D01*
X220575Y-34159D01*
X220714Y-33465D01*
X220575Y-32770D01*
X220182Y-32181D01*
X219593Y-31787D01*
X218898Y-31649D01*
D02*
G37*
G36*
X82677Y-30468D02*
X81982Y-30606D01*
X81393Y-30999D01*
X80999Y-31589D01*
X80861Y-32283D01*
X80999Y-32978D01*
X81393Y-33568D01*
X81982Y-33961D01*
X82677Y-34100D01*
X83372Y-33961D01*
X83961Y-33568D01*
X84355Y-32978D01*
X84493Y-32283D01*
X84355Y-31589D01*
X83961Y-30999D01*
X83372Y-30606D01*
X82677Y-30468D01*
D02*
G37*
G36*
X298004Y-29475D02*
X296815Y-30664D01*
X297130Y-30979D01*
Y-31969D01*
X297207Y-32356D01*
X297426Y-32685D01*
X298199Y-33458D01*
Y-33465D01*
X298276Y-33852D01*
X298496Y-34181D01*
X298825Y-34401D01*
X299213Y-34478D01*
X299600Y-34401D01*
X299929Y-34181D01*
X300149Y-33852D01*
X300226Y-33465D01*
Y-33038D01*
X300149Y-32651D01*
X299929Y-32322D01*
X299156Y-31549D01*
Y-30979D01*
X299331Y-30803D01*
X298004Y-29475D01*
D02*
G37*
G36*
X277559Y2210D02*
X276864Y2072D01*
X276275Y1678D01*
X275881Y1089D01*
X275743Y394D01*
X275881Y-301D01*
X276275Y-890D01*
X276546Y-1071D01*
Y-35242D01*
X276623Y-35630D01*
X276843Y-35958D01*
X277413Y-36529D01*
X277318Y-37008D01*
X277456Y-37703D01*
X277850Y-38292D01*
X278439Y-38686D01*
X279134Y-38824D01*
X279829Y-38686D01*
X280418Y-38292D01*
X280812Y-37703D01*
X280950Y-37008D01*
X280812Y-36313D01*
X280418Y-35724D01*
X279829Y-35330D01*
X279134Y-35192D01*
X278974Y-35224D01*
X278572Y-34822D01*
Y-1071D01*
X278843Y-890D01*
X279237Y-301D01*
X279375Y394D01*
X279237Y1089D01*
X278843Y1678D01*
X278254Y2072D01*
X277559Y2210D01*
D02*
G37*
G36*
X62205Y-45034D02*
X61510Y-45173D01*
X60921Y-45566D01*
X60527Y-46155D01*
X60389Y-46850D01*
X60527Y-47545D01*
X60921Y-48134D01*
X61510Y-48528D01*
X62205Y-48666D01*
X62900Y-48528D01*
X63489Y-48134D01*
X63882Y-47545D01*
X64021Y-46850D01*
X63882Y-46155D01*
X63489Y-45566D01*
X62900Y-45173D01*
X62205Y-45034D01*
D02*
G37*
G36*
X205134Y-47425D02*
X203256D01*
Y-49106D01*
X205134D01*
Y-47425D01*
D02*
G37*
G36*
X128347Y-47003D02*
X127652Y-47141D01*
X127062Y-47535D01*
X126669Y-48124D01*
X126531Y-48819D01*
X126669Y-49514D01*
X127062Y-50103D01*
X127652Y-50497D01*
X128347Y-50635D01*
X129041Y-50497D01*
X129631Y-50103D01*
X130024Y-49514D01*
X130162Y-48819D01*
X130024Y-48124D01*
X129631Y-47535D01*
X129041Y-47141D01*
X128347Y-47003D01*
D02*
G37*
G36*
X202256Y-47425D02*
X200378D01*
Y-48593D01*
X198819D01*
X198431Y-48670D01*
X198102Y-48890D01*
X197883Y-49219D01*
X197806Y-49606D01*
X197883Y-49994D01*
X198102Y-50323D01*
X198431Y-50542D01*
X198819Y-50620D01*
X200378D01*
Y-51787D01*
X200778D01*
Y-52530D01*
X199497D01*
X199316Y-52259D01*
X198726Y-51866D01*
X198031Y-51727D01*
X197337Y-51866D01*
X196747Y-52259D01*
X196354Y-52848D01*
X196215Y-53543D01*
X196354Y-54238D01*
X196747Y-54827D01*
X197337Y-55221D01*
X198031Y-55359D01*
X198726Y-55221D01*
X199316Y-54827D01*
X199497Y-54557D01*
X200778D01*
Y-55324D01*
X201743D01*
Y-56486D01*
X200778D01*
Y-57254D01*
X197647D01*
Y-56486D01*
X193691D01*
Y-59923D01*
X193691Y-60049D01*
Y-60423D01*
X193691Y-60549D01*
Y-63986D01*
X194656D01*
Y-66929D01*
X194733Y-67317D01*
X194953Y-67646D01*
X196921Y-69614D01*
X197250Y-69834D01*
X197638Y-69911D01*
X226575D01*
X226963Y-69834D01*
X227291Y-69614D01*
X237551Y-59355D01*
X277989D01*
X278170Y-59626D01*
X278759Y-60019D01*
X279454Y-60158D01*
X280149Y-60019D01*
X280738Y-59626D01*
X281132Y-59036D01*
X281270Y-58341D01*
X281132Y-57647D01*
X280738Y-57057D01*
X280149Y-56664D01*
X279454Y-56525D01*
X278759Y-56664D01*
X278170Y-57057D01*
X277989Y-57328D01*
X237131D01*
X236743Y-57406D01*
X236415Y-57625D01*
X226155Y-67884D01*
X198057D01*
X196683Y-66509D01*
Y-63986D01*
X197647D01*
Y-60549D01*
X197647Y-60423D01*
Y-60049D01*
X197647Y-59923D01*
Y-59281D01*
X200778D01*
Y-60023D01*
X200378D01*
Y-61705D01*
X202756D01*
X205134D01*
Y-60023D01*
X204734D01*
Y-56486D01*
X203769D01*
Y-55324D01*
X204734D01*
Y-51787D01*
X205134D01*
Y-50106D01*
X202756D01*
Y-49606D01*
X202256D01*
Y-47425D01*
D02*
G37*
G36*
X119595Y-49658D02*
Y-53476D01*
X123413D01*
X123329Y-52842D01*
X122891Y-51784D01*
X122194Y-50876D01*
X121286Y-50180D01*
X120229Y-49742D01*
X119595Y-49658D01*
D02*
G37*
G36*
X123413Y-54476D02*
X119595D01*
Y-58294D01*
X120229Y-58211D01*
X121286Y-57773D01*
X122194Y-57076D01*
X122891Y-56168D01*
X123329Y-55111D01*
X123413Y-54476D01*
D02*
G37*
G36*
X118595D02*
X114776D01*
X114860Y-55111D01*
X115298Y-56168D01*
X115995Y-57076D01*
X116902Y-57773D01*
X117960Y-58211D01*
X118595Y-58294D01*
Y-54476D01*
D02*
G37*
G36*
X128347Y-57239D02*
X127652Y-57377D01*
X127062Y-57771D01*
X126669Y-58360D01*
X126531Y-59055D01*
X126669Y-59750D01*
X127062Y-60339D01*
X127652Y-60733D01*
X128347Y-60871D01*
X129041Y-60733D01*
X129631Y-60339D01*
X130024Y-59750D01*
X130162Y-59055D01*
X130024Y-58360D01*
X129631Y-57771D01*
X129041Y-57377D01*
X128347Y-57239D01*
D02*
G37*
G36*
X205134Y-62705D02*
X202756D01*
X200378D01*
Y-64386D01*
X201743D01*
Y-65748D01*
X201820Y-66136D01*
X202040Y-66464D01*
X202368Y-66684D01*
X202756Y-66761D01*
X203144Y-66684D01*
X203472Y-66464D01*
X203692Y-66136D01*
X203769Y-65748D01*
Y-64386D01*
X205134D01*
Y-62705D01*
D02*
G37*
G36*
X237008Y-63538D02*
X236313Y-63677D01*
X235724Y-64070D01*
X235330Y-64659D01*
X235192Y-65354D01*
X235330Y-66049D01*
X235724Y-66638D01*
X236313Y-67032D01*
X237008Y-67170D01*
X237703Y-67032D01*
X238292Y-66638D01*
X238686Y-66049D01*
X238824Y-65354D01*
X238686Y-64659D01*
X238292Y-64070D01*
X237703Y-63677D01*
X237008Y-63538D01*
D02*
G37*
G36*
X119095Y-59996D02*
X118064Y-60132D01*
X117104Y-60529D01*
X116280Y-61162D01*
X115647Y-61986D01*
X115250Y-62946D01*
X115114Y-63976D01*
X115250Y-65007D01*
X115647Y-65967D01*
X116280Y-66791D01*
X117104Y-67424D01*
X118064Y-67821D01*
X119095Y-67957D01*
X120125Y-67821D01*
X121085Y-67424D01*
X121909Y-66791D01*
X122542Y-65967D01*
X122939Y-65007D01*
X123075Y-63976D01*
X122939Y-62946D01*
X122542Y-61986D01*
X121909Y-61162D01*
X121085Y-60529D01*
X120125Y-60132D01*
X119095Y-59996D01*
D02*
G37*
G36*
X103937Y-37948D02*
X103242Y-38086D01*
X102653Y-38480D01*
X102259Y-39069D01*
X102121Y-39764D01*
X102259Y-40459D01*
X102653Y-41048D01*
X102924Y-41229D01*
Y-53124D01*
X79108Y-76940D01*
X67410D01*
X67229Y-76669D01*
X66640Y-76275D01*
X65945Y-76137D01*
X65250Y-76275D01*
X64661Y-76669D01*
X64267Y-77258D01*
X64129Y-77953D01*
X64267Y-78648D01*
X64661Y-79237D01*
X65250Y-79631D01*
X65945Y-79769D01*
X66640Y-79631D01*
X67229Y-79237D01*
X67410Y-78966D01*
X79527D01*
X79915Y-78889D01*
X80244Y-78669D01*
X104653Y-54260D01*
X104873Y-53931D01*
X104950Y-53543D01*
Y-41229D01*
X105221Y-41048D01*
X105615Y-40459D01*
X105753Y-39764D01*
X105615Y-39069D01*
X105221Y-38480D01*
X104632Y-38086D01*
X103937Y-37948D01*
D02*
G37*
G36*
X123041Y-70030D02*
X115148D01*
Y-77923D01*
X123041D01*
Y-70030D01*
D02*
G37*
G36*
X128347Y-74562D02*
X127652Y-74700D01*
X127062Y-75094D01*
X126669Y-75683D01*
X126531Y-76378D01*
X126669Y-77073D01*
X127062Y-77662D01*
X127652Y-78056D01*
X128347Y-78194D01*
X129041Y-78056D01*
X129631Y-77662D01*
X130024Y-77073D01*
X130162Y-76378D01*
X130024Y-75683D01*
X129631Y-75094D01*
X129041Y-74700D01*
X128347Y-74562D01*
D02*
G37*
%LPD*%
G36*
X297487Y-73531D02*
X296648Y-75886D01*
X295251Y-79799D01*
X294975Y-79935D01*
X294723Y-79997D01*
X294695Y-79979D01*
X294308Y-79902D01*
X241546D01*
X241037Y-79392D01*
X240708Y-79173D01*
X240320Y-79096D01*
X232833D01*
X232642Y-78634D01*
X238196Y-73079D01*
X297118D01*
X297487Y-73531D01*
D02*
G37*
G36*
X237289Y-81512D02*
X237292Y-81622D01*
X237160Y-82284D01*
X237299Y-82978D01*
X237692Y-83568D01*
X238281Y-83961D01*
X238976Y-84100D01*
X239671Y-83961D01*
X240261Y-83568D01*
X240654Y-82978D01*
X240775Y-82368D01*
X240880Y-82213D01*
X241231Y-81928D01*
X294030D01*
X294104Y-81977D01*
X294490Y-82054D01*
X294799Y-82116D01*
X294966Y-82082D01*
X295451Y-82078D01*
X295770Y-82474D01*
X294773Y-85270D01*
X172256D01*
X172150Y-84738D01*
X171756Y-84149D01*
X171167Y-83755D01*
X170473Y-83617D01*
X169778Y-83755D01*
X169746Y-83776D01*
X169647Y-83710D01*
X169259Y-83632D01*
X167332D01*
Y-82865D01*
X167332D01*
Y-82490D01*
X167332D01*
Y-81446D01*
X169007D01*
X169188Y-81717D01*
X169778Y-82111D01*
X170473Y-82249D01*
X171167Y-82111D01*
X171756Y-81717D01*
X172150Y-81128D01*
X172151Y-81122D01*
X237080D01*
X237289Y-81512D01*
D02*
G37*
%LPC*%
G36*
X238976Y-73775D02*
X238281Y-73913D01*
X237692Y-74306D01*
X237299Y-74896D01*
X237160Y-75590D01*
X237299Y-76285D01*
X237692Y-76875D01*
X238281Y-77268D01*
X238976Y-77407D01*
X239671Y-77268D01*
X240261Y-76875D01*
X240654Y-76285D01*
X240792Y-75590D01*
X240654Y-74896D01*
X240261Y-74306D01*
X239671Y-73913D01*
X238976Y-73775D01*
D02*
G37*
%LPD*%
G36*
X-6028Y152233D02*
X-6347Y151845D01*
X-6392Y151875D01*
X-7087Y152013D01*
X-7782Y151875D01*
X-8371Y151481D01*
X-8764Y150892D01*
X-8903Y150197D01*
X-8764Y149502D01*
X-8371Y148913D01*
X-7782Y148519D01*
X-7087Y148381D01*
X-6767Y148444D01*
X-5925Y147602D01*
Y82814D01*
X-6387Y82623D01*
X-8436Y84672D01*
Y131890D01*
X-8513Y132278D01*
X-8732Y132606D01*
X-11488Y135362D01*
X-11817Y135582D01*
X-12205Y135659D01*
X-18220D01*
X-18401Y135930D01*
X-18990Y136323D01*
X-19685Y136462D01*
X-20380Y136323D01*
X-20969Y135930D01*
X-21306Y135426D01*
X-21701Y135469D01*
X-21806Y135509D01*
Y154700D01*
X-18251Y158254D01*
X-12049D01*
X-6028Y152233D01*
D02*
G37*
G36*
X56874Y121260D02*
Y119004D01*
X62811D01*
Y121260D01*
X65739D01*
Y120685D01*
X65339D01*
Y119004D01*
X67717D01*
X70095D01*
Y120685D01*
X69695D01*
Y121260D01*
X74803D01*
Y109449D01*
X69695D01*
Y111205D01*
X70095D01*
Y112886D01*
X67717D01*
X65339D01*
Y111205D01*
X65739D01*
Y109449D01*
X62811D01*
Y111705D01*
X59842D01*
X56874D01*
Y109449D01*
X53787D01*
X53362Y109630D01*
X53362Y109949D01*
Y111705D01*
X51181D01*
X49000D01*
Y109949D01*
X49000Y109630D01*
X48575Y109449D01*
X48385D01*
X48031Y109802D01*
Y121260D01*
X56874D01*
D02*
G37*
%LPC*%
G36*
X70095Y118004D02*
X68217D01*
Y116323D01*
X70095D01*
Y118004D01*
D02*
G37*
G36*
X67217D02*
X65339D01*
Y116323D01*
X67217D01*
Y118004D01*
D02*
G37*
G36*
X62811Y118004D02*
X60342D01*
Y115732D01*
X62811D01*
Y118004D01*
D02*
G37*
G36*
X59342D02*
X56874D01*
Y115732D01*
X59342D01*
Y118004D01*
D02*
G37*
G36*
X70095Y115567D02*
X68217D01*
Y113886D01*
X70095D01*
Y115567D01*
D02*
G37*
G36*
X67217D02*
X65339D01*
Y113886D01*
X67217D01*
Y115567D01*
D02*
G37*
G36*
X53362Y114779D02*
X51681D01*
Y112705D01*
X53362D01*
Y114779D01*
D02*
G37*
G36*
X50681D02*
X49000D01*
Y112705D01*
X50681D01*
Y114779D01*
D02*
G37*
G36*
X62811Y114976D02*
X60343D01*
Y112705D01*
X62811D01*
Y114976D01*
D02*
G37*
G36*
X59342D02*
X56874D01*
Y112705D01*
X59342D01*
Y114976D01*
D02*
G37*
%LPD*%
D13*
X351524Y-21577D02*
G03*
X302030Y-63813I9756J-61550D01*
G01*
X351430Y-20105D02*
G03*
X300717Y-63365I9992J-63069D01*
G01*
X351663Y-23011D02*
G03*
X303347Y-64248I9529J-60088D01*
G01*
X295571Y-80950D02*
G03*
X296093Y-80457I-221J756D01*
G01*
X351903Y-16568D02*
G03*
X298091Y-62467I10644J-66973D01*
G01*
X352126Y-17937D02*
G03*
X299407Y-62906I10421J-65604D01*
G01*
X294872Y-81084D02*
G03*
X295571Y-80950I-384J3918D01*
G01*
X60853Y-78198D02*
G03*
X5508Y-20933I-69043J-11351D01*
G01*
X59483Y-78418D02*
G03*
X5278Y-22302I-67673J-11131D01*
G01*
X294308Y-80915D02*
G03*
X294872Y-81084I491J615D01*
G01*
X299404Y-62916D02*
X299407Y-62906D01*
X352126Y-17937D02*
X381647Y-13262D01*
X297602Y-76226D02*
X302030Y-63813D01*
X295783Y-68935D02*
X298091Y-62467D01*
X385227Y-15893D02*
Y169104D01*
X296093Y-80457D02*
X297602Y-76226D01*
X351663Y-23011D02*
X385642Y-17630D01*
X295258Y-86283D02*
X295614Y-85927D01*
X351903Y-16568D02*
X380259Y-12077D01*
X300717Y-63365D02*
X300717Y-63365D01*
X296848Y-70082D02*
X299404Y-62916D01*
X299407Y-62906D02*
X299407Y-62906D01*
X302030Y-63813D02*
X302030Y-63813D01*
X298091Y-62467D02*
X298091Y-62467D01*
X297746Y-71691D02*
X300717Y-63365D01*
X303343Y-64261D02*
X303347Y-64248D01*
X384997Y169334D02*
X385227Y169104D01*
X295614Y-85927D02*
X303339Y-64272D01*
X303343Y-64261D01*
X351430Y-20105D02*
X383446Y-15034D01*
X379134Y175197D02*
X384997Y169334D01*
X351524Y-21577D02*
X384816Y-16305D01*
X295427Y-69291D02*
X295783Y-68935D01*
X383446Y-15034D02*
Y-3571D01*
X384816Y-16305D02*
X385227Y-15893D01*
X382058Y-12850D02*
Y-3657D01*
X380671Y-11665D02*
Y-3739D01*
X381647Y-13262D02*
X382058Y-12850D01*
X380259Y-12077D02*
X380671Y-11665D01*
X296250Y-70679D02*
X296848Y-70082D01*
X384646Y174409D02*
X385990Y173065D01*
X170782Y-85743D02*
X171091Y-86052D01*
X385890Y-17590D02*
X386221Y-17260D01*
X171323Y-86283D02*
X295258D01*
X386221Y-17260D02*
X386302Y-17168D01*
X386615Y-16468D01*
Y169678D01*
X386221Y172835D02*
X386615Y169678D01*
X385990Y173065D02*
X386221Y172835D01*
X171091Y-86052D02*
X171323Y-86283D01*
X385642Y-17630D02*
X385890Y-17590D01*
X229753Y-77334D02*
X236408Y-70679D01*
X154331Y-48701D02*
X182964Y-77334D01*
X186576Y-75946D02*
X228384D01*
X375039Y156850D02*
X382056Y149834D01*
Y-3654D02*
Y149834D01*
X236408Y-70679D02*
X296250D01*
X382056Y-3654D02*
X382058Y-3657D01*
X182964Y-77334D02*
X229753D01*
X380668Y-3737D02*
Y143741D01*
X190945Y-73622D02*
X203150D01*
X380668Y-3737D02*
X380671Y-3739D01*
X-22819Y159267D02*
X-11630D01*
X-4734Y152372D01*
X15317D01*
X-3740Y154331D02*
X16142D01*
X-15748Y166339D02*
X-3740Y154331D01*
X-28543Y166339D02*
X-15748D01*
X-31496Y150400D02*
Y163386D01*
X-28543Y166339D01*
X-22819Y121638D02*
X-20290Y119109D01*
Y-16325D02*
Y119109D01*
X-22819Y121638D02*
Y159267D01*
X-26589Y123018D02*
X-22258Y118687D01*
Y-17905D02*
Y118687D01*
Y-17905D02*
X5263Y-22299D01*
X-27165Y123594D02*
X-26589Y123018D01*
X-31496Y150400D02*
X-27165Y146069D01*
Y123594D02*
Y146069D01*
X64961Y101181D02*
X68212D01*
X126279Y-30413D02*
Y-29331D01*
X59483Y-78418D02*
X60204Y-82968D01*
X91329Y168513D02*
X100787Y159055D01*
X50394Y168513D02*
X91329D01*
X45669Y101181D02*
X64961D01*
X114173Y-42520D02*
X126279Y-30413D01*
X81299Y-85039D02*
X114173Y-52165D01*
Y-42520D01*
X81299Y-83071D02*
X112205Y-52165D01*
Y-37008D02*
X120691Y-28522D01*
X60853Y-78198D02*
X60853Y-78199D01*
X112205Y-52165D02*
Y-37008D01*
X60853Y-78199D02*
X61355Y-81367D01*
X67716Y-83071D02*
X81299D01*
X62339Y-85039D02*
X81299D01*
X149606Y-58071D02*
X150264Y-58729D01*
X154303D02*
X154331Y-58701D01*
X150264Y-58729D02*
X154303D01*
X149606Y-58071D02*
Y-55118D01*
Y-51181D02*
X149803D01*
X151982Y-49002D01*
X154029D01*
X154331Y-48701D01*
X169259Y-84646D02*
X170356Y-85743D01*
X170782D01*
X165354Y-84646D02*
X169259D01*
X165354Y-80709D02*
X165630Y-80433D01*
X170473D01*
X132480Y82087D02*
X137894D01*
X202756Y-49606D02*
X202756Y-49606D01*
X198819Y-49606D02*
X202756D01*
X263721Y201772D02*
Y211613D01*
X263721Y211614D01*
X120472Y200394D02*
X122647Y202569D01*
X152156D01*
X154331Y200394D01*
X60249Y-83254D02*
X62339Y-85039D01*
X60204Y-82968D02*
X60249Y-83254D01*
X61401Y-81654D02*
X63059Y-83071D01*
X61355Y-81367D02*
X61401Y-81654D01*
X63059Y-83071D02*
X67383D01*
X5508Y-20933D02*
X5508Y-20933D01*
X-19707Y-16907D02*
X5508Y-20933D01*
X-20290Y-16325D02*
X-19707Y-16907D01*
X5263Y-22299D02*
X5278Y-22302D01*
X235039Y-69291D02*
X295427D01*
X383443Y-3571D02*
Y95667D01*
X297372Y-72066D02*
X297746Y-71691D01*
X237776Y-72066D02*
X297372D01*
X241127Y-80915D02*
X294308D01*
X-29921Y80709D02*
X-25287Y76074D01*
Y38099D02*
Y76074D01*
X-28740Y34646D02*
X-25287Y38099D01*
X-11319Y46063D02*
X-11319Y46063D01*
X-15354Y46063D02*
X-11319D01*
X-6004Y46063D02*
X-6004Y46063D01*
X-1575D01*
X-12598Y111811D02*
X-12598Y111811D01*
X-16535Y111811D02*
X-12598D01*
X-16109Y114961D02*
X-15322Y115748D01*
X-16535Y114961D02*
X-16109D01*
X-15322Y115748D02*
X-12598D01*
Y119685D01*
Y107874D02*
Y111811D01*
X383443Y95667D02*
X383446Y95669D01*
X377953Y161811D02*
X383446Y156318D01*
Y95669D02*
Y156318D01*
X170866Y114173D02*
Y119685D01*
Y105118D02*
Y114173D01*
X166749Y114173D02*
X170866D01*
X170866Y114173D01*
X163779Y122047D02*
X168504D01*
X170866Y119685D01*
X166749Y104173D02*
X169921D01*
X170866Y105118D01*
X166749Y112173D02*
Y114173D01*
X166443Y110479D02*
X166749Y110173D01*
X164837Y110479D02*
X166443D01*
X163294Y112023D02*
X164837Y110479D01*
X163294Y112023D02*
Y113478D01*
X162992Y113779D02*
X163294Y113478D01*
X160249Y114173D02*
X163779Y117704D01*
Y117717D01*
X166749Y108173D02*
Y110173D01*
Y106173D02*
Y108173D01*
X132775Y91301D02*
Y91536D01*
Y91301D02*
X135138Y88939D01*
X138189D01*
X214567Y57874D02*
X223416D01*
X110004Y50787D02*
X207480D01*
X214567Y57874D01*
X214173Y62205D02*
X224016D01*
X104331Y52362D02*
X204331D01*
X214173Y62205D01*
X103150Y49213D02*
X108429D01*
X110004Y50787D01*
X11024Y42520D02*
X96457D01*
X103150Y49213D01*
X223416Y57874D02*
X223622Y58080D01*
X11998Y43907D02*
X95876D01*
X104331Y52362D01*
X9843Y52456D02*
X11091Y53704D01*
X-4912Y60817D02*
X11998Y43907D01*
X-6299Y59842D02*
X11024Y42520D01*
X9843Y52362D02*
Y52456D01*
X-4912Y60817D02*
Y148022D01*
X12298Y53704D02*
X13640Y55046D01*
X11091Y53704D02*
X12298D01*
X12907Y56818D02*
X199338D01*
X11564Y55476D02*
X12907Y56818D01*
X10340Y55476D02*
X11564D01*
X10173Y55512D02*
X10304D01*
X8960Y56299D02*
X9386D01*
X199338Y56818D02*
X210755Y68235D01*
X13640Y55046D02*
X200072D01*
X10304Y55512D02*
X10340Y55476D01*
X9386Y56299D02*
X10173Y55512D01*
X200072Y55046D02*
X211489Y66464D01*
X234642D01*
X210755Y68235D02*
X235375D01*
X245669Y85433D02*
Y94095D01*
Y85433D02*
X256693Y74410D01*
X234252Y62598D02*
X244882D01*
X223622Y51968D02*
X234252Y62598D01*
X217717Y51968D02*
X223622D01*
X203937Y38189D02*
X217717Y51968D01*
X203937Y31102D02*
Y38189D01*
X208661Y32471D02*
Y36614D01*
X198031Y-33858D02*
X198228Y-33661D01*
X218701D01*
X218898Y-33465D01*
X68212Y101181D02*
X69291D01*
X68212Y101181D02*
X68212Y101181D01*
X67716Y109449D02*
X67717Y109449D01*
X67716Y105512D02*
Y109449D01*
X59645Y106693D02*
X59842Y106890D01*
X54331Y106693D02*
X59645D01*
X59645Y123622D02*
X59842Y123819D01*
X54331Y123622D02*
X59645D01*
X67717Y122441D02*
X70675D01*
X72250Y124016D01*
X72441D01*
X40945Y112205D02*
X45669D01*
Y105118D02*
Y112205D01*
X69291Y101181D02*
X86221D01*
X100787Y115748D02*
Y159055D01*
X86221Y101181D02*
X100787Y115748D01*
X15317Y152372D02*
X35011Y132677D01*
X16142Y154331D02*
X35827Y134646D01*
X121423Y-28522D02*
X121724Y-28220D01*
X120691Y-28522D02*
X121423D01*
X79527Y-77953D02*
X103937Y-53543D01*
X65945Y-77953D02*
X79527D01*
X103937Y-53543D02*
Y-39764D01*
X-26589Y123018D02*
Y123018D01*
X35011Y132677D02*
X64961D01*
X35827Y134646D02*
X77165D01*
X95276Y116535D01*
X64961Y132677D02*
X68898Y128740D01*
X213779Y31890D02*
X220472Y38583D01*
X237131Y-58341D02*
X279454D01*
X226575Y-68898D02*
X237131Y-58341D01*
X197638Y-68898D02*
X226575D01*
X195669Y-66929D02*
Y-62205D01*
Y-66929D02*
X197638Y-68898D01*
X125197Y-38189D02*
X155512D01*
X190945Y-73622D01*
X202756Y-62205D02*
X202756Y-62205D01*
X202756Y-65748D02*
Y-62205D01*
X195669Y-58268D02*
X202756D01*
X202756Y-53543D02*
X202756Y-53543D01*
X198031Y-53543D02*
X202756D01*
X202756Y-58268D02*
Y-53543D01*
X231170Y-6693D02*
X231179D01*
X221260Y-63779D02*
X231170Y-53869D01*
Y-6693D01*
X218504Y-18504D02*
Y-15354D01*
X282677Y48819D01*
X214567Y-23622D02*
X218504D01*
X231179Y-6693D02*
X254566Y16694D01*
X262125Y13736D02*
Y13865D01*
X258268Y17722D02*
X262125Y13865D01*
X258268Y17722D02*
Y17852D01*
X259341Y10952D02*
Y11493D01*
X254566Y16268D02*
X259341Y11493D01*
X254566Y16268D02*
Y16694D01*
X282677Y48819D02*
Y51968D01*
X279134Y55512D02*
X282677Y51968D01*
X238244Y15484D02*
X238546Y15785D01*
X233518Y11077D02*
Y13833D01*
X211811Y-12986D02*
X238244Y13448D01*
X251969Y32283D02*
X251969D01*
X233518Y13833D02*
X251969Y32283D01*
X200000Y-22441D02*
X233518Y11077D01*
X238244Y13448D02*
Y15484D01*
X122835Y-40551D02*
X125197Y-38189D01*
X154331Y-43701D02*
X186576Y-75946D01*
X358170Y103248D02*
X363484D01*
X372736D01*
X372835Y103150D01*
X149744Y158799D02*
X150000Y159055D01*
X147638Y158799D02*
X149744D01*
X146850Y158012D02*
X147638Y158799D01*
X146850Y136221D02*
Y158012D01*
Y136221D02*
X150000Y133071D01*
X375984Y146850D02*
X377559D01*
X380668Y143741D01*
X175197Y95276D02*
X182677D01*
X183071Y95669D01*
X333177Y55111D02*
Y57768D01*
X332795Y58149D02*
X333177Y57768D01*
X332795Y58149D02*
Y61063D01*
X328819Y61024D02*
X328858Y61063D01*
X325984Y61024D02*
X328819D01*
X324852Y62156D02*
Y66929D01*
Y62156D02*
X325984Y61024D01*
X320905Y68613D02*
X328676Y76383D01*
X331464Y76978D02*
X331890D01*
X322677Y67879D02*
X329409Y74611D01*
X330868D02*
X331464Y74016D01*
X328676Y76383D02*
X330868D01*
X331464Y76978D01*
X329409Y74611D02*
X330868D01*
X331464Y74016D02*
X331890D01*
X339764Y70079D02*
X343307D01*
X331328D02*
X335827D01*
X320905Y49646D02*
Y68613D01*
X316213Y44954D02*
X320905Y49646D01*
X294041Y59646D02*
X308733Y44954D01*
X237205Y59646D02*
X294041D01*
X308733Y44954D02*
X316213D01*
X222835Y34646D02*
Y45276D01*
X237205Y59646D01*
X214370Y26181D02*
X222835Y34646D01*
X147888Y26181D02*
X214370D01*
X98425Y-50322D02*
Y-23282D01*
X147888Y26181D01*
X91398Y-57349D02*
X98425Y-50322D01*
X89895Y-57349D02*
X91398D01*
X89764Y-57480D02*
X89895Y-57349D01*
X322677Y48912D02*
Y67879D01*
X316947Y43182D02*
X322677Y48912D01*
X307999Y43182D02*
X316947D01*
X293307Y57874D02*
X307480Y43701D01*
X237939Y57874D02*
X293307D01*
X307480Y43701D02*
X307999Y43182D01*
X224606Y33912D02*
Y44542D01*
X237939Y57874D01*
X215104Y24409D02*
X224606Y33912D01*
X148622Y24409D02*
X215104D01*
X100197Y-51056D02*
Y-24016D01*
X148622Y24409D01*
X92257Y-58995D02*
X100197Y-51056D01*
X92257Y-60499D02*
Y-58995D01*
X92126Y-60630D02*
X92257Y-60499D01*
X265739Y61033D02*
X304810D01*
X266472Y62805D02*
X305544D01*
X304810Y61033D02*
X314266Y51577D01*
X261272Y68005D02*
X266472Y62805D01*
X260539Y66233D02*
X265739Y61033D01*
X305544Y62805D02*
X315482Y52866D01*
X235375Y68235D02*
X235606Y68005D01*
X234642Y66464D02*
X234872Y66233D01*
X314266Y50695D02*
X314567Y50394D01*
X314266Y50695D02*
Y51577D01*
X316365Y52866D02*
X316666Y52565D01*
X315482Y52866D02*
X316365D01*
X234872Y66233D02*
X260539D01*
X235606Y68005D02*
X261272D01*
X208661Y36614D02*
X215748Y43701D01*
X220472Y38583D02*
Y40551D01*
X239632Y51762D02*
X249080D01*
X242126Y38583D02*
Y43307D01*
X237983Y47450D02*
X242126Y43307D01*
X240158Y49213D02*
X248031D01*
X237983Y50113D02*
X239632Y51762D01*
X237983Y47450D02*
Y50113D01*
X-6299Y59842D02*
Y81102D01*
X-7087Y150197D02*
X-4912Y148022D01*
X-9449Y84252D02*
Y131890D01*
Y84252D02*
X-6299Y81102D01*
X-19685Y134646D02*
X-12205D01*
X-9449Y131890D01*
X236221Y211614D02*
X257619D01*
X214824D02*
X236221D01*
X203150Y158268D02*
X203346Y158465D01*
X212795D02*
X212992Y158661D01*
X203346Y158465D02*
X212795D01*
X228384Y-75946D02*
X235039Y-69291D01*
X231121Y-78721D02*
X237776Y-72066D01*
X174351Y-78721D02*
X231121D01*
X336614Y175197D02*
X379134D01*
X330709Y161811D02*
X377953D01*
X326772Y165354D02*
X336614Y175197D01*
X312205Y165354D02*
X326772D01*
X306693Y159843D02*
X312205Y165354D01*
X323622Y154724D02*
X330709Y161811D01*
X359842Y156850D02*
X375039D01*
X306693Y149843D02*
Y150787D01*
X310630Y154724D01*
X323622D01*
X359842Y146850D02*
X360236Y146457D01*
X240320Y-80109D02*
X241127Y-80915D01*
X170797Y-80109D02*
X240320D01*
X170473Y-80433D02*
X170797Y-80109D01*
X154331Y-58701D02*
X174351Y-78721D01*
X358170Y96555D02*
X361177Y93548D01*
X363145D01*
X363484Y93209D01*
X152559Y124409D02*
X152756Y124606D01*
Y128740D01*
X152559Y124409D02*
X157480D01*
X220079Y16535D02*
X242126Y38583D01*
X215748Y16535D02*
X220079D01*
X251302Y35160D02*
Y45942D01*
X248031Y49213D02*
X251302Y45942D01*
X235433Y23622D02*
Y26772D01*
X246457Y37795D01*
X243701Y27559D02*
X251302Y35160D01*
X189764Y-22047D02*
X235433Y23622D01*
X153543Y-14567D02*
X192913D01*
X214567Y7087D01*
X160236Y-22047D02*
X189764D01*
X277559Y-35242D02*
Y394D01*
Y-35242D02*
X279134Y-36817D01*
Y-37008D02*
Y-36817D01*
X292520Y-15748D02*
X296063Y-19291D01*
X150394Y-17717D02*
X153543Y-14567D01*
X150394Y-24016D02*
Y-17717D01*
Y-24016D02*
X152756Y-26378D01*
X154724Y-22047D02*
X159843Y-27165D01*
X190551D01*
X228740Y11024D02*
X229134D01*
X190551Y-27165D02*
X228740Y11024D01*
X211811Y-20866D02*
X214567Y-23622D01*
X211811Y-20866D02*
Y-12986D01*
X159449Y106173D02*
X162638D01*
X163099Y105712D01*
Y99472D02*
Y105712D01*
X161658Y98032D02*
X163099Y99472D01*
X141806Y98032D02*
X161658D01*
X142740Y100173D02*
X159449D01*
X151403Y102173D02*
X159449D01*
X150426Y103150D02*
X151403Y102173D01*
X150000Y103150D02*
X150426D01*
X154187Y104173D02*
X159449D01*
X152362Y105998D02*
X154187Y104173D01*
X159449Y114173D02*
X160249D01*
X146882Y112173D02*
X159449D01*
X159386Y110236D02*
X159449Y110173D01*
X145669Y110236D02*
X159386D01*
X145370Y108173D02*
X159449D01*
X131570Y108268D02*
X141806Y98032D01*
X128159Y108268D02*
X131570D01*
X129921Y115158D02*
X132450D01*
X142323Y111221D02*
X145370Y108173D01*
X131890Y111221D02*
X142323D01*
X132450Y115158D02*
X133641Y116348D01*
X142707D01*
X146882Y112173D01*
X134843Y114173D02*
X141732D01*
X145669Y110236D01*
X136221Y106693D02*
X142740Y100173D01*
X296063Y-19685D02*
Y-19291D01*
X291092Y-24557D02*
X291191D01*
X287008Y-20472D02*
X291092Y-24557D01*
X296063Y-21260D02*
Y-19685D01*
Y-21260D02*
X300787Y-25984D01*
X298004Y-28768D02*
X298143Y-28907D01*
X293792Y-24557D02*
X298004Y-28768D01*
X291191Y-24557D02*
X293792D01*
X298143Y-31969D02*
Y-28907D01*
Y-31969D02*
X299213Y-33038D01*
Y-33465D02*
Y-33038D01*
X300787Y-25984D02*
X300926Y-26123D01*
X303650D01*
X304692Y-27165D01*
X305118D01*
X-10433Y72835D02*
X-10236Y72638D01*
X-15354Y72835D02*
X-10433D01*
X-15354Y67323D02*
X-10236D01*
X45669Y105118D02*
X45669Y105118D01*
X202756Y188051D02*
X208721Y182087D01*
X202756Y188051D02*
Y225984D01*
X206693Y229921D01*
X241526D01*
X247471Y223976D01*
X263721Y182087D02*
Y187736D01*
X271654Y195669D02*
Y248819D01*
X263721Y187736D02*
X271654Y195669D01*
X253721Y251476D02*
X268996D01*
X271654Y248819D01*
X218721Y251476D02*
X253721D01*
X232461Y217717D02*
X236221Y221476D01*
X211417Y217717D02*
X232461D01*
X208721Y211614D02*
Y215020D01*
X211417Y217717D01*
X208721Y201772D02*
Y211614D01*
X208721Y201772D02*
X208721Y201772D01*
X263721Y211614D02*
Y238976D01*
D23*
X149606Y-51181D02*
D03*
Y-55118D02*
D03*
X165354Y-84646D02*
D03*
Y-80709D02*
D03*
X67717Y109449D02*
D03*
Y113386D02*
D03*
X152559Y120472D02*
D03*
Y124409D02*
D03*
X67717Y122441D02*
D03*
Y118504D02*
D03*
X69291Y101181D02*
D03*
Y97244D02*
D03*
X45669Y101181D02*
D03*
Y105118D02*
D03*
X202756Y-62205D02*
D03*
Y-58268D02*
D03*
Y-53543D02*
D03*
Y-49606D02*
D03*
X195669Y-58268D02*
D03*
Y-62205D02*
D03*
X-12598Y111811D02*
D03*
Y115748D02*
D03*
D24*
X335827Y70079D02*
D03*
X339764D02*
D03*
X332795Y61063D02*
D03*
X328858D02*
D03*
D27*
X208721Y211614D02*
D03*
X214824D02*
D03*
X263721D02*
D03*
X257619D02*
D03*
D40*
X-11319Y46063D02*
D03*
X-6004D02*
D03*
D41*
X372835Y103150D02*
D03*
Y97835D02*
D03*
X59842Y118504D02*
D03*
Y123819D02*
D03*
X59842Y112205D02*
D03*
Y106890D02*
D03*
X-10236Y72638D02*
D03*
Y67323D02*
D03*
D50*
X106693Y172106D02*
D03*
Y178996D02*
D03*
X114961Y172205D02*
D03*
Y179095D02*
D03*
X233858Y132421D02*
D03*
Y125531D02*
D03*
X225984Y132421D02*
D03*
Y125532D02*
D03*
D55*
X132775Y91536D02*
D03*
X143602D02*
D03*
X132480Y82087D02*
D03*
X143307D02*
D03*
D141*
X148584Y89961D02*
X149606Y88939D01*
X143602Y90748D02*
Y91536D01*
Y90748D02*
X144390Y89961D01*
X148584D01*
X143307Y82087D02*
X143701Y81693D01*
X148622D01*
X143455Y91388D02*
X143602Y91536D01*
X143455Y82234D02*
Y91388D01*
X143307Y82087D02*
X143455Y82234D01*
X192857Y132421D02*
X225984D01*
X316693Y149843D02*
X324410Y142126D01*
Y127559D02*
Y142126D01*
X190748Y106791D02*
X199803D01*
X190551Y106988D02*
X190748Y106791D01*
X95874Y179035D02*
X114823D01*
X190551Y106988D02*
Y164567D01*
X114823Y179035D02*
X114921Y179134D01*
X114961Y179095D01*
X225984Y132421D02*
X233858D01*
X134646Y164567D02*
X190551D01*
X311762Y134912D02*
X316693Y139842D01*
X299606Y135039D02*
X301969D01*
X249833Y130088D02*
X254331D01*
X294655D01*
X299606Y135039D01*
X321654Y124803D02*
X324410Y127559D01*
X246850Y124803D02*
X300000D01*
X233858Y132421D02*
X234154Y132126D01*
X239528D01*
X246850Y124803D01*
X120413Y178799D02*
X134646Y164567D01*
X114961Y179095D02*
X115256Y178799D01*
X120413D01*
X134646Y176378D02*
X203543D01*
X249833Y130088D01*
D142*
X373032Y97638D02*
X377953D01*
X372835Y97835D02*
X373032Y97638D01*
X282283Y198284D02*
X282284Y198284D01*
X282283Y191732D02*
Y198284D01*
X282086Y182087D02*
X282284Y182284D01*
X263721Y182087D02*
X282086D01*
X152217Y254976D02*
X159843D01*
X152075Y255118D02*
X152217Y254976D01*
X151969Y255118D02*
X152075D01*
X145610Y238976D02*
X159843D01*
X227165Y198284D02*
X234681D01*
X234933Y198031D01*
X235039D01*
X226968Y182087D02*
X227165Y182284D01*
X208721Y182087D02*
X226968D01*
X113360Y237402D02*
X113386Y237376D01*
Y229921D02*
Y237376D01*
X129360Y223976D02*
Y237402D01*
X302096Y134912D02*
X311762D01*
X301969Y135039D02*
X302096Y134912D01*
X300000Y124803D02*
X321654D01*
D143*
X-8677Y173410D02*
D03*
X-15748Y166339D02*
D03*
X119095Y-53976D02*
D03*
Y-63976D02*
D03*
X89779Y24425D02*
D03*
X96850Y31496D02*
D03*
X103921Y38567D02*
D03*
X110993Y45638D02*
D03*
X359842Y126850D02*
D03*
Y136850D02*
D03*
Y146850D02*
D03*
Y156850D02*
D03*
X349843Y126850D02*
D03*
Y136850D02*
D03*
Y146850D02*
D03*
Y156850D02*
D03*
X306693Y179842D02*
D03*
Y169843D02*
D03*
Y159843D02*
D03*
Y149843D02*
D03*
Y139842D02*
D03*
Y129842D02*
D03*
Y119843D02*
D03*
Y109843D02*
D03*
X316693D02*
D03*
Y119843D02*
D03*
Y129842D02*
D03*
Y139842D02*
D03*
Y149843D02*
D03*
Y159843D02*
D03*
Y169843D02*
D03*
D144*
X-22819Y159267D02*
D03*
X82708Y17354D02*
D03*
D145*
X119095Y-73976D02*
D03*
X359842Y166850D02*
D03*
X349843D02*
D03*
X316693Y179842D02*
D03*
D146*
X358170Y83169D02*
D03*
Y86516D02*
D03*
Y89862D02*
D03*
Y93209D02*
D03*
Y96555D02*
D03*
Y99902D02*
D03*
Y103248D02*
D03*
Y106595D02*
D03*
X363484D02*
D03*
Y103248D02*
D03*
Y99902D02*
D03*
Y96555D02*
D03*
Y93209D02*
D03*
Y89862D02*
D03*
Y86516D02*
D03*
Y83169D02*
D03*
D147*
X362028Y77854D02*
D03*
Y111910D02*
D03*
D148*
X375335D02*
D03*
Y77854D02*
D03*
D149*
X208721Y241476D02*
D03*
X263721Y238976D02*
D03*
X236221Y221476D02*
D03*
X224971Y223976D02*
D03*
X247471D02*
D03*
X90610Y241476D02*
D03*
X145610Y238976D02*
D03*
X118110Y221476D02*
D03*
X106860Y223976D02*
D03*
X129360D02*
D03*
D150*
X218721Y251476D02*
D03*
X253721D02*
D03*
X203721Y286476D02*
D03*
X213721Y288976D02*
D03*
X236221Y276476D02*
D03*
X258721Y288976D02*
D03*
X100610Y251476D02*
D03*
X135610D02*
D03*
X85610Y286476D02*
D03*
X95610Y288976D02*
D03*
X118110Y276476D02*
D03*
X140610Y288976D02*
D03*
D151*
X208721Y182087D02*
D03*
X263721D02*
D03*
D152*
X208721Y201772D02*
D03*
X263721D02*
D03*
D153*
X354331Y196850D02*
D03*
X-0D02*
D03*
X354331Y-0D02*
D03*
X-0D02*
D03*
D154*
X377953Y97638D02*
D03*
X203150Y-73622D02*
D03*
X377559Y53543D02*
D03*
X349016Y-25787D02*
D03*
X50394Y168513D02*
D03*
X137894Y82087D02*
D03*
X198819Y-49606D02*
D03*
X73425Y-62598D02*
D03*
Y-66535D02*
D03*
Y-58661D02*
D03*
X228937Y81319D02*
D03*
Y73445D02*
D03*
Y77382D02*
D03*
X172047Y73327D02*
D03*
X29724Y-20669D02*
D03*
X48917Y-20768D02*
D03*
X39173Y-26870D02*
D03*
Y-14665D02*
D03*
X62894Y-25886D02*
D03*
X62795Y-15650D02*
D03*
X181890Y68209D02*
D03*
X181595Y79724D02*
D03*
X205118Y68405D02*
D03*
X205020Y78937D02*
D03*
X195374Y73622D02*
D03*
X236221Y5906D02*
D03*
X86221Y-48819D02*
D03*
X137402Y-83858D02*
D03*
X266929Y50000D02*
D03*
X291732Y27559D02*
D03*
X285827Y17323D02*
D03*
X257480Y-5118D02*
D03*
X255906Y-19291D02*
D03*
X218898Y119291D02*
D03*
X253937D02*
D03*
X254331Y140157D02*
D03*
X224514Y150104D02*
D03*
X17323Y177559D02*
D03*
X153937Y196063D02*
D03*
X99606Y200394D02*
D03*
X120079Y196063D02*
D03*
X133071Y200394D02*
D03*
X131496Y186221D02*
D03*
X134646D02*
D03*
X127165Y160236D02*
D03*
X101406Y164567D02*
D03*
X140157Y157087D02*
D03*
X181103Y152264D02*
D03*
X175197Y157874D02*
D03*
X389764Y-18701D02*
D03*
Y984D02*
D03*
Y20669D02*
D03*
Y40354D02*
D03*
Y79724D02*
D03*
Y99409D02*
D03*
Y119095D02*
D03*
Y138779D02*
D03*
Y158465D02*
D03*
Y178150D02*
D03*
Y197835D02*
D03*
Y215551D02*
D03*
X360236Y220965D02*
D03*
X331693Y229331D02*
D03*
X308071Y252953D02*
D03*
X301181Y270669D02*
D03*
X294882Y311024D02*
D03*
X298228Y291338D02*
D03*
X88583Y311024D02*
D03*
X118110Y311024D02*
D03*
X147638Y311024D02*
D03*
X167323D02*
D03*
X216535D02*
D03*
X236220D02*
D03*
X255906D02*
D03*
X275590D02*
D03*
X60039Y310039D02*
D03*
X38780Y242717D02*
D03*
X-35433Y215551D02*
D03*
Y197835D02*
D03*
Y178150D02*
D03*
Y158465D02*
D03*
Y138779D02*
D03*
Y119095D02*
D03*
Y99409D02*
D03*
Y79724D02*
D03*
Y60039D02*
D03*
Y40354D02*
D03*
Y20669D02*
D03*
Y984D02*
D03*
Y-18701D02*
D03*
X77756Y-114173D02*
D03*
X274606D02*
D03*
X5315Y222638D02*
D03*
X53543Y274606D02*
D03*
Y-77756D02*
D03*
X4921Y-25787D02*
D03*
X38780Y-45866D02*
D03*
X59449Y-113780D02*
D03*
X294882Y-114173D02*
D03*
X227953Y-82677D02*
D03*
X-28740Y107087D02*
D03*
X-28346Y99213D02*
D03*
Y87008D02*
D03*
X-29528Y75590D02*
D03*
X-29921Y50394D02*
D03*
X-29435Y39278D02*
D03*
X-1575Y46063D02*
D03*
X-15354D02*
D03*
X-28928Y93307D02*
D03*
X-16535Y111811D02*
D03*
Y114961D02*
D03*
X-12598Y119685D02*
D03*
Y107874D02*
D03*
X-28740Y34646D02*
D03*
X265354Y-76772D02*
D03*
X234252Y-56299D02*
D03*
X227165Y-61417D02*
D03*
X69291Y-42520D02*
D03*
X62205Y-46850D02*
D03*
X351181Y94882D02*
D03*
X325590Y-11024D02*
D03*
X285433Y-51968D02*
D03*
X163779Y122047D02*
D03*
X162992Y113779D02*
D03*
X163779Y117717D02*
D03*
X40157Y146457D02*
D03*
X36220D02*
D03*
X-8750Y144685D02*
D03*
X-984Y146653D02*
D03*
X323819Y29528D02*
D03*
X314961Y33465D02*
D03*
X315945Y37402D02*
D03*
X338583Y28543D02*
D03*
X340551Y34449D02*
D03*
X349410Y45276D02*
D03*
X342520Y40354D02*
D03*
X138189Y88939D02*
D03*
X149606D02*
D03*
X148622Y81693D02*
D03*
X9843Y52362D02*
D03*
X71653Y51383D02*
D03*
X256693Y74410D02*
D03*
X244882Y62598D02*
D03*
X314819Y61024D02*
D03*
X298031Y58858D02*
D03*
X298819Y47638D02*
D03*
X243701Y73622D02*
D03*
X224803Y94095D02*
D03*
X245669D02*
D03*
X244488Y98425D02*
D03*
X223622Y58080D02*
D03*
X203937Y31102D02*
D03*
X208661Y32471D02*
D03*
X218898Y-33465D02*
D03*
X198031Y-33858D02*
D03*
X334252Y153543D02*
D03*
X64961Y101181D02*
D03*
X67716Y105512D02*
D03*
X54331Y106693D02*
D03*
Y123622D02*
D03*
X72441Y124016D02*
D03*
X72047Y113779D02*
D03*
Y118504D02*
D03*
X40945Y112205D02*
D03*
X126279Y-29331D02*
D03*
X121724Y-28220D02*
D03*
X213779Y31890D02*
D03*
X21260Y157087D02*
D03*
X90158Y113386D02*
D03*
Y109843D02*
D03*
X95276Y116535D02*
D03*
X68898Y128740D02*
D03*
X279454Y-58341D02*
D03*
X268898Y-63779D02*
D03*
X202756Y-65748D02*
D03*
X198031Y-53543D02*
D03*
X328740Y115748D02*
D03*
X221260Y-63779D02*
D03*
X219291Y-42520D02*
D03*
X218504Y-23622D02*
D03*
Y-18504D02*
D03*
X254566Y16694D02*
D03*
X265354Y35433D02*
D03*
X238546Y15785D02*
D03*
X181890Y-53937D02*
D03*
X154331Y-43701D02*
D03*
X122835Y-40551D02*
D03*
X128347Y-59055D02*
D03*
Y-48819D02*
D03*
Y-76378D02*
D03*
X159055Y168898D02*
D03*
X150000Y159055D02*
D03*
X282283Y191732D02*
D03*
X151969Y255118D02*
D03*
X235039Y198031D02*
D03*
X113386Y229921D02*
D03*
X14961Y157087D02*
D03*
X8268Y148819D02*
D03*
X129921Y-26378D02*
D03*
X135827D02*
D03*
X103937Y-39764D02*
D03*
X277559Y109843D02*
D03*
X277559Y94488D02*
D03*
X206299Y101575D02*
D03*
X375984Y146850D02*
D03*
X170473Y-85433D02*
D03*
X306299Y75197D02*
D03*
X313779Y77559D02*
D03*
X318898D02*
D03*
X258661Y90945D02*
D03*
X259055Y84252D02*
D03*
X183071Y95669D02*
D03*
X175197Y95276D02*
D03*
X334252Y144095D02*
D03*
X345276Y151969D02*
D03*
X365354Y129528D02*
D03*
X365748Y141339D02*
D03*
X336614Y131496D02*
D03*
X71260Y82677D02*
D03*
X65748Y83465D02*
D03*
X62992Y86614D02*
D03*
X68504Y93513D02*
D03*
X64961Y89764D02*
D03*
X323622Y185039D02*
D03*
X338583Y159636D02*
D03*
X311811Y193307D02*
D03*
X338189Y120079D02*
D03*
X355118Y64961D02*
D03*
X333177Y55111D02*
D03*
X324852Y66929D02*
D03*
X346063Y64961D02*
D03*
X331890Y74016D02*
D03*
X343307Y70079D02*
D03*
X331328D02*
D03*
X89764Y-57480D02*
D03*
X92126Y-60630D02*
D03*
X331890Y76978D02*
D03*
X8960Y56299D02*
D03*
X316666Y52565D02*
D03*
X314567Y50394D02*
D03*
X279134Y55512D02*
D03*
X215748Y43701D02*
D03*
X220472Y40551D02*
D03*
X272047Y68504D02*
D03*
X240158Y49213D02*
D03*
X249080Y51762D02*
D03*
X224016Y62205D02*
D03*
X-19685Y134646D02*
D03*
X-7087Y150197D02*
D03*
X236221Y211614D02*
D03*
X199803Y106791D02*
D03*
X190748D02*
D03*
X196063Y120079D02*
D03*
X95874Y179035D02*
D03*
X215748Y132677D02*
D03*
X219291Y140551D02*
D03*
X190551Y164567D02*
D03*
X203150Y158268D02*
D03*
X200787Y162598D02*
D03*
X163386Y160817D02*
D03*
X184646Y168504D02*
D03*
X184252Y172441D02*
D03*
X273228Y162598D02*
D03*
X212992Y158661D02*
D03*
X254331Y130088D02*
D03*
X238976Y-75590D02*
D03*
X237008Y-65354D02*
D03*
X384646Y174409D02*
D03*
X238976Y-82284D02*
D03*
X154331Y-58701D02*
D03*
Y-48701D02*
D03*
X170473Y-80433D02*
D03*
X113779Y159843D02*
D03*
X121653D02*
D03*
X134646Y176378D02*
D03*
X90158Y-32283D02*
D03*
X82677D02*
D03*
X235827Y38976D02*
D03*
X242126Y43307D02*
D03*
X246457Y37795D02*
D03*
X243701Y27559D02*
D03*
Y31102D02*
D03*
X215748Y16535D02*
D03*
X258268Y17852D02*
D03*
X257480Y5118D02*
D03*
X269685Y17323D02*
D03*
X279134Y-37008D02*
D03*
X277559Y394D02*
D03*
X292520Y-15748D02*
D03*
X154724Y-22047D02*
D03*
X200000Y-22441D02*
D03*
X229134Y11024D02*
D03*
X152756Y-26378D02*
D03*
X214567Y7087D02*
D03*
X160236Y-22047D02*
D03*
X274803Y66142D02*
D03*
X251969Y32283D02*
D03*
X158405Y14091D02*
D03*
X90945Y85433D02*
D03*
X90158Y81496D02*
D03*
X150000Y103150D02*
D03*
X152362Y105998D02*
D03*
X157677Y118110D02*
D03*
X129921Y115158D02*
D03*
X131890Y111221D02*
D03*
X134843Y114173D02*
D03*
X287008Y-20472D02*
D03*
X252362Y-78740D02*
D03*
X242028Y-78740D02*
D03*
X17323Y182283D02*
D03*
X32697Y187283D02*
D03*
X-15354Y72835D02*
D03*
Y67323D02*
D03*
X-29921Y80709D02*
D03*
X68504Y173228D02*
D03*
Y190551D02*
D03*
X-29528Y64567D02*
D03*
X133465Y71653D02*
D03*
X90158Y69291D02*
D03*
X56299Y24409D02*
D03*
X67716D02*
D03*
X50787Y17717D02*
D03*
X37795Y21654D02*
D03*
X43307Y25591D02*
D03*
X16142Y15748D02*
D03*
X10630D02*
D03*
X-7087Y21260D02*
D03*
X-11024D02*
D03*
X64567Y129134D02*
D03*
X75590Y146457D02*
D03*
X71653D02*
D03*
X96850Y105512D02*
D03*
X100787Y101181D02*
D03*
X102362Y86614D02*
D03*
X95669Y85827D02*
D03*
X72441Y67716D02*
D03*
X126772Y135827D02*
D03*
X137008Y131102D02*
D03*
X180512Y129921D02*
D03*
X161417Y152756D02*
D03*
X153150D02*
D03*
X184646Y195669D02*
D03*
Y199606D02*
D03*
X127953Y101181D02*
D03*
Y104724D02*
D03*
X128159Y108268D02*
D03*
X136221Y106693D02*
D03*
X88583Y-64961D02*
D03*
X99606Y186221D02*
D03*
X154331Y200394D02*
D03*
X120472D02*
D03*
X241732Y-33071D02*
D03*
X150000Y133071D02*
D03*
X299213Y-33465D02*
D03*
X305118Y-27165D02*
D03*
X65945Y-77953D02*
D03*
X152756Y128740D02*
D03*
X157480Y124409D02*
D03*
D155*
X166749Y100173D02*
D03*
Y102173D02*
D03*
Y104173D02*
D03*
Y106173D02*
D03*
Y108173D02*
D03*
Y110173D02*
D03*
Y112173D02*
D03*
Y114173D02*
D03*
X159449D02*
D03*
Y112173D02*
D03*
Y110173D02*
D03*
Y108173D02*
D03*
Y106173D02*
D03*
Y104173D02*
D03*
Y102173D02*
D03*
Y100173D02*
D03*
D156*
X282284Y182284D02*
D03*
Y198284D02*
D03*
X227165Y182284D02*
D03*
Y198284D02*
D03*
X159843Y238976D02*
D03*
Y254976D02*
D03*
D157*
X296063Y-19685D02*
D03*
X291191Y-24557D02*
D03*
D158*
X298004Y-28768D02*
D03*
X300787Y-25984D02*
D03*
X262125Y13736D02*
D03*
X259341Y10952D02*
D03*
D159*
X51181Y112205D02*
D03*
X45669D02*
D03*
D160*
X129360Y237402D02*
D03*
X113360D02*
D03*
M02*
