G04*
G04 #@! TF.GenerationSoftware,Altium Limited,Altium Designer,20.0.11 (256)*
G04*
G04 Layer_Color=8388736*
%FSLAX25Y25*%
%MOIN*%
G70*
G01*
G75*
%ADD75C,0.04921*%
%ADD76R,0.01981X0.07099*%
%ADD77R,0.07099X0.01981*%
%ADD78R,0.03556X0.03162*%
%ADD79R,0.03162X0.03556*%
%ADD80R,0.07887X0.06312*%
G04:AMPARAMS|DCode=81|XSize=31.62mil|YSize=35.56mil|CornerRadius=0mil|HoleSize=0mil|Usage=FLASHONLY|Rotation=315.000|XOffset=0mil|YOffset=0mil|HoleType=Round|Shape=Rectangle|*
%AMROTATEDRECTD81*
4,1,4,-0.02375,-0.00139,0.00139,0.02375,0.02375,0.00139,-0.00139,-0.02375,-0.02375,-0.00139,0.0*
%
%ADD81ROTATEDRECTD81*%

%ADD82R,0.04147X0.04147*%
%ADD83R,0.13595X0.13595*%
%ADD84R,0.01981X0.04540*%
%ADD85R,0.04540X0.01981*%
%ADD86R,0.06312X0.07099*%
%ADD87R,0.10642X0.03753*%
G04:AMPARAMS|DCode=88|XSize=37.53mil|YSize=106.42mil|CornerRadius=11.38mil|HoleSize=0mil|Usage=FLASHONLY|Rotation=270.000|XOffset=0mil|YOffset=0mil|HoleType=Round|Shape=RoundedRectangle|*
%AMROUNDEDRECTD88*
21,1,0.03753,0.08366,0,0,270.0*
21,1,0.01476,0.10642,0,0,270.0*
1,1,0.02276,-0.04183,-0.00738*
1,1,0.02276,-0.04183,0.00738*
1,1,0.02276,0.04183,0.00738*
1,1,0.02276,0.04183,-0.00738*
%
%ADD88ROUNDEDRECTD88*%
%ADD89R,0.02769X0.01784*%
%ADD90R,0.02769X0.02178*%
%ADD91R,0.14383X0.06902*%
%ADD92R,0.03950X0.05131*%
%ADD93R,0.07887X0.04737*%
%ADD94R,0.05131X0.03359*%
%ADD95R,0.04143X0.04537*%
%ADD96R,0.04537X0.04143*%
%ADD97R,0.08792X0.05288*%
%ADD98R,0.03950X0.03950*%
%ADD99R,0.01824X0.04186*%
%ADD100R,0.04186X0.01824*%
%ADD101R,0.14580X0.14580*%
%ADD102R,0.05131X0.05918*%
G04:AMPARAMS|DCode=103|XSize=25.72mil|YSize=67.06mil|CornerRadius=0mil|HoleSize=0mil|Usage=FLASHONLY|Rotation=135.000|XOffset=0mil|YOffset=0mil|HoleType=Round|Shape=Rectangle|*
%AMROTATEDRECTD103*
4,1,4,0.03280,0.01462,-0.01462,-0.03280,-0.03280,-0.01462,0.01462,0.03280,0.03280,0.01462,0.0*
%
%ADD103ROTATEDRECTD103*%

G04:AMPARAMS|DCode=104|XSize=25.72mil|YSize=67.06mil|CornerRadius=8.43mil|HoleSize=0mil|Usage=FLASHONLY|Rotation=135.000|XOffset=0mil|YOffset=0mil|HoleType=Round|Shape=RoundedRectangle|*
%AMROUNDEDRECTD104*
21,1,0.02572,0.05020,0,0,135.0*
21,1,0.00886,0.06706,0,0,135.0*
1,1,0.01686,0.01462,0.02088*
1,1,0.01686,0.02088,0.01462*
1,1,0.01686,-0.01462,-0.02088*
1,1,0.01686,-0.02088,-0.01462*
%
%ADD104ROUNDEDRECTD104*%
%ADD105R,0.06312X0.05328*%
%ADD106R,0.04737X0.03162*%
G04:AMPARAMS|DCode=107|XSize=31.62mil|YSize=47.37mil|CornerRadius=9.91mil|HoleSize=0mil|Usage=FLASHONLY|Rotation=90.000|XOffset=0mil|YOffset=0mil|HoleType=Round|Shape=RoundedRectangle|*
%AMROUNDEDRECTD107*
21,1,0.03162,0.02756,0,0,90.0*
21,1,0.01181,0.04737,0,0,90.0*
1,1,0.01981,0.01378,0.00591*
1,1,0.01981,0.01378,-0.00591*
1,1,0.01981,-0.01378,-0.00591*
1,1,0.01981,-0.01378,0.00591*
%
%ADD107ROUNDEDRECTD107*%
%ADD108R,0.05328X0.06312*%
%ADD109O,0.08083X0.02572*%
%ADD110R,0.06312X0.07887*%
G04:AMPARAMS|DCode=111|XSize=27.69mil|YSize=126.11mil|CornerRadius=0mil|HoleSize=0mil|Usage=FLASHONLY|Rotation=135.000|XOffset=0mil|YOffset=0mil|HoleType=Round|Shape=Rectangle|*
%AMROTATEDRECTD111*
4,1,4,0.05438,0.03480,-0.03480,-0.05438,-0.05438,-0.03480,0.03480,0.05438,0.05438,0.03480,0.0*
%
%ADD111ROTATEDRECTD111*%

G04:AMPARAMS|DCode=112|XSize=17.84mil|YSize=23.75mil|CornerRadius=0mil|HoleSize=0mil|Usage=FLASHONLY|Rotation=225.000|XOffset=0mil|YOffset=0mil|HoleType=Round|Shape=Rectangle|*
%AMROTATEDRECTD112*
4,1,4,-0.00209,0.01470,0.01470,-0.00209,0.00209,-0.01470,-0.01470,0.00209,-0.00209,0.01470,0.0*
%
%ADD112ROTATEDRECTD112*%

%ADD113R,0.05721X0.12217*%
%ADD114R,0.07099X0.06312*%
%ADD115R,0.04343X0.03950*%
%ADD116R,0.04147X0.04147*%
%ADD117R,0.08674X0.04343*%
%ADD118R,0.04343X0.08674*%
%ADD119R,0.20485X0.20485*%
%ADD120R,0.03950X0.03950*%
G04:AMPARAMS|DCode=121|XSize=39.5mil|YSize=56.82mil|CornerRadius=0mil|HoleSize=0mil|Usage=FLASHONLY|Rotation=225.000|XOffset=0mil|YOffset=0mil|HoleType=Round|Shape=Rectangle|*
%AMROTATEDRECTD121*
4,1,4,-0.00613,0.03405,0.03405,-0.00613,0.00613,-0.03405,-0.03405,0.00613,-0.00613,0.03405,0.0*
%
%ADD121ROTATEDRECTD121*%

G04:AMPARAMS|DCode=122|XSize=45.4mil|YSize=106.42mil|CornerRadius=0mil|HoleSize=0mil|Usage=FLASHONLY|Rotation=225.000|XOffset=0mil|YOffset=0mil|HoleType=Round|Shape=Rectangle|*
%AMROTATEDRECTD122*
4,1,4,-0.02158,0.05368,0.05368,-0.02158,0.02158,-0.05368,-0.05368,0.02158,-0.02158,0.05368,0.0*
%
%ADD122ROTATEDRECTD122*%

G04:AMPARAMS|DCode=123|XSize=53.28mil|YSize=94.61mil|CornerRadius=0mil|HoleSize=0mil|Usage=FLASHONLY|Rotation=225.000|XOffset=0mil|YOffset=0mil|HoleType=Round|Shape=Rectangle|*
%AMROTATEDRECTD123*
4,1,4,-0.01462,0.05229,0.05229,-0.01462,0.01462,-0.05229,-0.05229,0.01462,-0.01462,0.05229,0.0*
%
%ADD123ROTATEDRECTD123*%

G04:AMPARAMS|DCode=124|XSize=53.67mil|YSize=57.21mil|CornerRadius=0mil|HoleSize=0mil|Usage=FLASHONLY|Rotation=225.000|XOffset=0mil|YOffset=0mil|HoleType=Round|Shape=Rectangle|*
%AMROTATEDRECTD124*
4,1,4,-0.00125,0.03920,0.03920,-0.00125,0.00125,-0.03920,-0.03920,0.00125,-0.00125,0.03920,0.0*
%
%ADD124ROTATEDRECTD124*%

G04:AMPARAMS|DCode=125|XSize=53.67mil|YSize=55.24mil|CornerRadius=0mil|HoleSize=0mil|Usage=FLASHONLY|Rotation=225.000|XOffset=0mil|YOffset=0mil|HoleType=Round|Shape=Rectangle|*
%AMROTATEDRECTD125*
4,1,4,-0.00056,0.03851,0.03851,-0.00056,0.00056,-0.03851,-0.03851,0.00056,-0.00056,0.03851,0.0*
%
%ADD125ROTATEDRECTD125*%

G04:AMPARAMS|DCode=126|XSize=67.06mil|YSize=53.28mil|CornerRadius=0mil|HoleSize=0mil|Usage=FLASHONLY|Rotation=225.000|XOffset=0mil|YOffset=0mil|HoleType=Round|Shape=Rectangle|*
%AMROTATEDRECTD126*
4,1,4,0.00487,0.04254,0.04254,0.00487,-0.00487,-0.04254,-0.04254,-0.00487,0.00487,0.04254,0.0*
%
%ADD126ROTATEDRECTD126*%

%ADD127R,0.05918X0.14186*%
G04:AMPARAMS|DCode=128|XSize=31.62mil|YSize=69.02mil|CornerRadius=9.91mil|HoleSize=0mil|Usage=FLASHONLY|Rotation=90.000|XOffset=0mil|YOffset=0mil|HoleType=Round|Shape=RoundedRectangle|*
%AMROUNDEDRECTD128*
21,1,0.03162,0.04921,0,0,90.0*
21,1,0.01181,0.06902,0,0,90.0*
1,1,0.01981,0.02461,0.00591*
1,1,0.01981,0.02461,-0.00591*
1,1,0.01981,-0.02461,-0.00591*
1,1,0.01981,-0.02461,0.00591*
%
%ADD128ROUNDEDRECTD128*%
%ADD129R,0.06902X0.03162*%
%ADD130C,0.07493*%
%ADD131P,0.10597X4X90.0*%
%ADD132R,0.07493X0.07493*%
%ADD133C,0.03359*%
%ADD134O,0.10249X0.04343*%
%ADD135O,0.07493X0.04343*%
%ADD136C,0.07887*%
%ADD137C,0.10052*%
%ADD138C,0.07099*%
%ADD139R,0.07099X0.07099*%
%ADD140C,0.28359*%
D75*
X52657Y-77562D02*
G03*
X6293Y-27122I-59965J-8591D01*
G01*
X1083Y222933D02*
G03*
X51523Y269298I-8591J59965D01*
G01*
X302731Y269036D02*
G03*
X350449Y223475I59362J14404D01*
G01*
X348038Y-27122D02*
G03*
X301673Y-77562I13600J-59031D01*
G01*
X-36220Y-20167D02*
X4973Y-26744D01*
X52803Y-77539D02*
X58731Y-114964D01*
X390551Y217086D02*
X390551Y-20167D01*
X-36319Y216860D02*
X-36319Y-20025D01*
X369185Y220470D02*
X390551Y217086D01*
X51900Y270617D02*
X58478Y311811D01*
X295672D01*
X350417Y223443D02*
X369185Y220470D01*
X295672Y311811D02*
X302534Y268839D01*
X-36319Y216860D02*
X1106Y222787D01*
X58597Y-114961D02*
X289421D01*
X295374D01*
X295600Y-114964D02*
X301527Y-77539D01*
X349357Y-26744D02*
X390551Y-20167D01*
D76*
X70472Y34252D02*
D03*
X68504D02*
D03*
X66535D02*
D03*
X64567D02*
D03*
X62598D02*
D03*
X60630D02*
D03*
X58661D02*
D03*
X56693D02*
D03*
X54724D02*
D03*
X52756D02*
D03*
X50787D02*
D03*
X48819D02*
D03*
X46850D02*
D03*
X44882D02*
D03*
X42913D02*
D03*
X40945D02*
D03*
X38976D02*
D03*
X37008D02*
D03*
X35039D02*
D03*
X33071D02*
D03*
X31102D02*
D03*
X29134D02*
D03*
X27165D02*
D03*
X25197D02*
D03*
X23228D02*
D03*
X21260D02*
D03*
X19291D02*
D03*
X17323D02*
D03*
X15354D02*
D03*
X13386D02*
D03*
X11417D02*
D03*
X9449D02*
D03*
X7480D02*
D03*
X5512D02*
D03*
X3543D02*
D03*
X1575D02*
D03*
X-394D02*
D03*
X-2362D02*
D03*
X-4331D02*
D03*
X-6299D02*
D03*
X-8268D02*
D03*
X-10236D02*
D03*
X-12205D02*
D03*
X-14173D02*
D03*
Y134646D02*
D03*
X-12205D02*
D03*
X-10236D02*
D03*
X-8268D02*
D03*
X-6299D02*
D03*
X-4331D02*
D03*
X-2362D02*
D03*
X-394D02*
D03*
X1575D02*
D03*
X3543D02*
D03*
X5512D02*
D03*
X7480D02*
D03*
X9449D02*
D03*
X11417D02*
D03*
X13386D02*
D03*
X15354D02*
D03*
X17323D02*
D03*
X19291D02*
D03*
X21260D02*
D03*
X23228D02*
D03*
X25197D02*
D03*
X27165D02*
D03*
X29134D02*
D03*
X31102D02*
D03*
X33071D02*
D03*
X35039D02*
D03*
X37008D02*
D03*
X38976D02*
D03*
X40945D02*
D03*
X42913D02*
D03*
X44882D02*
D03*
X46850D02*
D03*
X48819D02*
D03*
X50787D02*
D03*
X52756D02*
D03*
X54724D02*
D03*
X56693D02*
D03*
X58661D02*
D03*
X60630D02*
D03*
X62598D02*
D03*
X64567D02*
D03*
X66535D02*
D03*
X68504D02*
D03*
X70472D02*
D03*
D77*
X-22047Y42126D02*
D03*
Y44094D02*
D03*
Y46063D02*
D03*
Y48031D02*
D03*
Y50000D02*
D03*
Y51969D02*
D03*
Y53937D02*
D03*
Y55906D02*
D03*
Y57874D02*
D03*
Y59843D02*
D03*
Y61811D02*
D03*
Y63780D02*
D03*
Y65748D02*
D03*
Y67717D02*
D03*
Y69685D02*
D03*
Y71654D02*
D03*
Y73622D02*
D03*
Y75591D02*
D03*
Y77559D02*
D03*
Y79528D02*
D03*
Y81496D02*
D03*
Y83465D02*
D03*
Y85433D02*
D03*
Y87402D02*
D03*
Y89370D02*
D03*
Y91339D02*
D03*
Y93307D02*
D03*
Y95276D02*
D03*
Y97244D02*
D03*
Y99213D02*
D03*
Y101181D02*
D03*
Y103150D02*
D03*
Y105118D02*
D03*
Y107087D02*
D03*
Y109055D02*
D03*
Y111024D02*
D03*
Y112992D02*
D03*
Y114961D02*
D03*
Y116929D02*
D03*
Y118898D02*
D03*
Y120866D02*
D03*
Y122835D02*
D03*
Y124803D02*
D03*
Y126772D02*
D03*
X78346D02*
D03*
Y124803D02*
D03*
Y122835D02*
D03*
Y120866D02*
D03*
Y118898D02*
D03*
Y116929D02*
D03*
Y114961D02*
D03*
Y112992D02*
D03*
Y111024D02*
D03*
Y109055D02*
D03*
Y107087D02*
D03*
Y105118D02*
D03*
Y103150D02*
D03*
Y101181D02*
D03*
Y99213D02*
D03*
Y97244D02*
D03*
Y95276D02*
D03*
Y93307D02*
D03*
Y91339D02*
D03*
Y89370D02*
D03*
Y87402D02*
D03*
Y85433D02*
D03*
Y83465D02*
D03*
Y81496D02*
D03*
Y79528D02*
D03*
Y77559D02*
D03*
Y75591D02*
D03*
Y73622D02*
D03*
Y71654D02*
D03*
Y69685D02*
D03*
Y67717D02*
D03*
Y65748D02*
D03*
Y63780D02*
D03*
Y61811D02*
D03*
Y59843D02*
D03*
Y57874D02*
D03*
Y55906D02*
D03*
Y53937D02*
D03*
Y51969D02*
D03*
Y50000D02*
D03*
Y48031D02*
D03*
Y46063D02*
D03*
Y44094D02*
D03*
Y42126D02*
D03*
D78*
X99536Y178839D02*
D03*
Y182776D02*
D03*
X-29528Y42913D02*
D03*
Y46850D02*
D03*
X-29528Y68110D02*
D03*
Y72047D02*
D03*
X87008Y196457D02*
D03*
Y200394D02*
D03*
X92913Y189469D02*
D03*
Y185532D02*
D03*
X87008D02*
D03*
Y189469D02*
D03*
X224016Y-38701D02*
D03*
Y-42638D02*
D03*
X86614Y109843D02*
D03*
Y113779D02*
D03*
X85433Y97244D02*
D03*
Y101181D02*
D03*
X102362Y94488D02*
D03*
Y90551D02*
D03*
X86221Y85433D02*
D03*
Y81496D02*
D03*
X86614Y69291D02*
D03*
Y65354D02*
D03*
X92913Y62598D02*
D03*
Y66535D02*
D03*
Y52756D02*
D03*
Y48819D02*
D03*
X380315Y47244D02*
D03*
Y43307D02*
D03*
X349606Y61063D02*
D03*
Y65000D02*
D03*
X355512Y57126D02*
D03*
Y61063D02*
D03*
X349606Y52362D02*
D03*
Y48425D02*
D03*
X245937Y83382D02*
D03*
Y87319D02*
D03*
X180709Y168622D02*
D03*
Y172559D02*
D03*
Y195669D02*
D03*
Y199606D02*
D03*
X157480Y192126D02*
D03*
Y196063D02*
D03*
X146457Y196457D02*
D03*
Y200394D02*
D03*
X134252Y124016D02*
D03*
Y127953D02*
D03*
X127165D02*
D03*
Y131890D02*
D03*
X131496Y100787D02*
D03*
Y104724D02*
D03*
X134252Y138189D02*
D03*
Y134252D02*
D03*
X180512Y137402D02*
D03*
Y133465D02*
D03*
X185236Y127165D02*
D03*
Y131102D02*
D03*
X191929Y124016D02*
D03*
Y120079D02*
D03*
X197441Y124016D02*
D03*
Y127953D02*
D03*
X254331Y137008D02*
D03*
Y133071D02*
D03*
X224212Y-47637D02*
D03*
Y-51574D02*
D03*
X231692D02*
D03*
Y-47637D02*
D03*
X238385D02*
D03*
Y-51574D02*
D03*
X223622Y-73622D02*
D03*
Y-69685D02*
D03*
Y-78740D02*
D03*
Y-82677D02*
D03*
X108268Y-32677D02*
D03*
Y-28740D02*
D03*
Y-14961D02*
D03*
Y-18898D02*
D03*
X135827Y-18504D02*
D03*
Y-22441D02*
D03*
X129823D02*
D03*
Y-18504D02*
D03*
X50787Y21654D02*
D03*
Y25591D02*
D03*
X180709Y117323D02*
D03*
Y121260D02*
D03*
X265354Y142913D02*
D03*
Y138976D02*
D03*
Y155118D02*
D03*
Y151181D02*
D03*
X259449Y138976D02*
D03*
Y142913D02*
D03*
X208661Y155118D02*
D03*
Y151181D02*
D03*
X214961Y138976D02*
D03*
Y142913D02*
D03*
X208661D02*
D03*
Y138976D02*
D03*
X219291Y137008D02*
D03*
Y133071D02*
D03*
X146457Y189075D02*
D03*
Y185138D02*
D03*
X140551D02*
D03*
Y189075D02*
D03*
X134646Y179528D02*
D03*
Y183465D02*
D03*
D79*
X277559Y105905D02*
D03*
X273622D02*
D03*
X277559Y98425D02*
D03*
X273622D02*
D03*
X309528Y49528D02*
D03*
X305591D02*
D03*
X96850Y200394D02*
D03*
X92913D02*
D03*
X257492Y-76772D02*
D03*
X261429D02*
D03*
X91732Y88976D02*
D03*
X95669D02*
D03*
X323623Y38875D02*
D03*
X319686D02*
D03*
X339094Y40197D02*
D03*
X335157D02*
D03*
X331221Y23661D02*
D03*
X335157D02*
D03*
Y28780D02*
D03*
X331221D02*
D03*
X318898Y64961D02*
D03*
X314961D02*
D03*
X302441Y71575D02*
D03*
X306378D02*
D03*
X240945Y98425D02*
D03*
X237008D02*
D03*
Y94095D02*
D03*
X240945D02*
D03*
X232677D02*
D03*
X228740D02*
D03*
X269291Y162598D02*
D03*
X265354D02*
D03*
X204724D02*
D03*
X208661D02*
D03*
X136614Y200394D02*
D03*
X140551D02*
D03*
X116929D02*
D03*
X112992D02*
D03*
X112992Y195669D02*
D03*
X116929D02*
D03*
X227953Y155906D02*
D03*
X231890D02*
D03*
Y150787D02*
D03*
X227953D02*
D03*
X229134Y-65354D02*
D03*
X233071D02*
D03*
X148031Y-6693D02*
D03*
X144095D02*
D03*
X73228Y-32087D02*
D03*
X69291D02*
D03*
Y-38779D02*
D03*
X73228D02*
D03*
X70079Y-46653D02*
D03*
X66142D02*
D03*
X82480Y-45669D02*
D03*
X86417D02*
D03*
X135827Y-48701D02*
D03*
X131890D02*
D03*
X135827Y-58661D02*
D03*
X131890D02*
D03*
X135827Y-74016D02*
D03*
X131890D02*
D03*
X135827Y-78740D02*
D03*
X131890D02*
D03*
X63779Y24409D02*
D03*
X59842D02*
D03*
X39764Y25591D02*
D03*
X35827D02*
D03*
X16142Y25197D02*
D03*
X12205D02*
D03*
X-7087Y25197D02*
D03*
X-11024D02*
D03*
X75590Y142126D02*
D03*
X71653D02*
D03*
X36220Y142913D02*
D03*
X40157D02*
D03*
X16142D02*
D03*
X20079D02*
D03*
X-2362D02*
D03*
X-6299D02*
D03*
X163386Y157087D02*
D03*
X167323D02*
D03*
X224016Y-28701D02*
D03*
X227953D02*
D03*
D80*
X181102Y146850D02*
D03*
Y157677D02*
D03*
X133465Y146161D02*
D03*
Y156988D02*
D03*
X199803Y112205D02*
D03*
Y101378D02*
D03*
X188779Y112205D02*
D03*
Y101378D02*
D03*
D81*
X249185Y25225D02*
D03*
X251969Y22441D02*
D03*
X272075Y63358D02*
D03*
X269291Y66142D02*
D03*
X241367Y33830D02*
D03*
X238583Y36614D02*
D03*
D82*
X172047Y91339D02*
D03*
X165945D02*
D03*
X95472Y120866D02*
D03*
X89370D02*
D03*
X235039Y59842D02*
D03*
X228937D02*
D03*
X208858Y127913D02*
D03*
X214961D02*
D03*
X75590Y-79921D02*
D03*
X81693D02*
D03*
X129724Y-33858D02*
D03*
X135827D02*
D03*
X129823Y-68898D02*
D03*
X135925D02*
D03*
X68012Y153543D02*
D03*
X61910D02*
D03*
X64862Y147638D02*
D03*
X58760D02*
D03*
X259449Y127559D02*
D03*
X265551D02*
D03*
X140551Y173996D02*
D03*
X146653D02*
D03*
X92913D02*
D03*
X86811D02*
D03*
D83*
X73425Y-62598D02*
D03*
X228937Y77382D02*
D03*
D84*
X79331Y-72047D02*
D03*
X77362D02*
D03*
X75394D02*
D03*
X73425D02*
D03*
X71457D02*
D03*
X69488D02*
D03*
X67520D02*
D03*
Y-53150D02*
D03*
X69488D02*
D03*
X71457D02*
D03*
X73425D02*
D03*
X75394D02*
D03*
X77362D02*
D03*
X79331D02*
D03*
X234843Y86831D02*
D03*
X232874D02*
D03*
X230906D02*
D03*
X228937D02*
D03*
X226969D02*
D03*
X225000D02*
D03*
X223032D02*
D03*
Y67933D02*
D03*
X225000D02*
D03*
X226969D02*
D03*
X228937D02*
D03*
X230906D02*
D03*
X232874D02*
D03*
X234843D02*
D03*
D85*
X63976Y-68504D02*
D03*
Y-66535D02*
D03*
Y-64567D02*
D03*
Y-62598D02*
D03*
Y-60630D02*
D03*
Y-58661D02*
D03*
Y-56693D02*
D03*
X82874D02*
D03*
Y-58661D02*
D03*
Y-60630D02*
D03*
Y-62598D02*
D03*
Y-64567D02*
D03*
Y-66535D02*
D03*
Y-68504D02*
D03*
X238386Y71477D02*
D03*
Y73445D02*
D03*
Y75414D02*
D03*
Y77382D02*
D03*
Y79351D02*
D03*
Y81319D02*
D03*
Y83288D02*
D03*
X219488D02*
D03*
Y81319D02*
D03*
Y79351D02*
D03*
Y77382D02*
D03*
Y75414D02*
D03*
Y73445D02*
D03*
Y71477D02*
D03*
D86*
X68504Y167716D02*
D03*
Y196063D02*
D03*
X56693Y167716D02*
D03*
Y196063D02*
D03*
X257086Y-41339D02*
D03*
Y-69685D02*
D03*
X268898Y-41339D02*
D03*
Y-69685D02*
D03*
D87*
X25197Y187284D02*
D03*
D88*
X40551D02*
D03*
Y182283D02*
D03*
X25197D02*
D03*
X40551Y177284D02*
D03*
X25197D02*
D03*
X40551Y172283D02*
D03*
X25197D02*
D03*
X40551Y167283D02*
D03*
X25197D02*
D03*
D89*
X129528Y65945D02*
D03*
Y63976D02*
D03*
X133465Y65945D02*
D03*
Y63976D02*
D03*
D90*
X129528Y68110D02*
D03*
X133465D02*
D03*
X129528Y61811D02*
D03*
X133465D02*
D03*
D91*
X39272Y-20768D02*
D03*
X62500D02*
D03*
X181791Y73622D02*
D03*
X205020D02*
D03*
D92*
X96850Y94882D02*
D03*
Y101575D02*
D03*
X91732D02*
D03*
Y94882D02*
D03*
D93*
X101575Y52756D02*
D03*
Y62598D02*
D03*
D94*
X336102Y90945D02*
D03*
Y94685D02*
D03*
Y98425D02*
D03*
X345551D02*
D03*
Y94685D02*
D03*
Y90945D02*
D03*
D95*
X306693Y189370D02*
D03*
X312008D02*
D03*
X328858Y159843D02*
D03*
X334173D02*
D03*
Y149606D02*
D03*
X328858D02*
D03*
X328858Y139842D02*
D03*
X334173D02*
D03*
X328858Y120079D02*
D03*
X334173D02*
D03*
X323623Y33757D02*
D03*
X318308D02*
D03*
X331221Y34685D02*
D03*
X336535D02*
D03*
X318898Y72835D02*
D03*
X313583D02*
D03*
X10827Y19685D02*
D03*
X16142D02*
D03*
X3150Y144095D02*
D03*
X8465D02*
D03*
D96*
X327953Y179842D02*
D03*
Y185158D02*
D03*
X370079Y134941D02*
D03*
Y129626D02*
D03*
X370079Y146850D02*
D03*
Y141535D02*
D03*
X341339Y146653D02*
D03*
Y151969D02*
D03*
X341417Y136929D02*
D03*
Y131614D02*
D03*
D97*
X368898Y57480D02*
D03*
Y67953D02*
D03*
D98*
X374803Y49213D02*
D03*
Y43307D02*
D03*
D99*
X339094Y64744D02*
D03*
X337126D02*
D03*
X335157D02*
D03*
X333189D02*
D03*
X331221D02*
D03*
X329252D02*
D03*
X327284D02*
D03*
Y45571D02*
D03*
X329252D02*
D03*
X331221D02*
D03*
X333189D02*
D03*
X335157D02*
D03*
X337126D02*
D03*
X339094D02*
D03*
D100*
X323602Y61063D02*
D03*
Y59095D02*
D03*
Y57126D02*
D03*
Y55158D02*
D03*
Y53189D02*
D03*
Y51221D02*
D03*
Y49252D02*
D03*
X342776D02*
D03*
Y51221D02*
D03*
Y53189D02*
D03*
Y55158D02*
D03*
Y57126D02*
D03*
Y59095D02*
D03*
Y61063D02*
D03*
D101*
X333189Y55158D02*
D03*
D102*
X302441Y64882D02*
D03*
Y55827D02*
D03*
X309528Y64882D02*
D03*
Y55827D02*
D03*
D103*
X248826Y44087D02*
D03*
X217719Y13767D02*
D03*
D104*
X250636Y42277D02*
D03*
X252445Y40468D02*
D03*
X254255Y38658D02*
D03*
X256065Y36849D02*
D03*
X257874Y35039D02*
D03*
X259683Y33230D02*
D03*
X261493Y31420D02*
D03*
X264973Y60233D02*
D03*
X266782Y58424D02*
D03*
X268592Y56615D02*
D03*
X270402Y54805D02*
D03*
X272211Y52995D02*
D03*
X274021Y51186D02*
D03*
X275830Y49376D02*
D03*
X277640Y47567D02*
D03*
X246532Y17247D02*
D03*
X244723Y19057D02*
D03*
X242913Y20866D02*
D03*
X241104Y22676D02*
D03*
X239294Y24485D02*
D03*
X237485Y26295D02*
D03*
X235675Y28104D02*
D03*
X233866Y29914D02*
D03*
X230386Y1101D02*
D03*
X228576Y2910D02*
D03*
X226767Y4720D02*
D03*
X224957Y6529D02*
D03*
X223148Y8339D02*
D03*
X221338Y10148D02*
D03*
X219529Y11958D02*
D03*
D105*
X253543Y91142D02*
D03*
Y84252D02*
D03*
D106*
X163484Y199803D02*
D03*
Y172756D02*
D03*
D107*
Y196063D02*
D03*
Y192323D02*
D03*
X174311D02*
D03*
Y199803D02*
D03*
X163484Y169016D02*
D03*
Y165275D02*
D03*
X174311D02*
D03*
Y172756D02*
D03*
D108*
X106471Y164567D02*
D03*
X113360D02*
D03*
X128149D02*
D03*
X121260D02*
D03*
X223425Y119291D02*
D03*
X230315D02*
D03*
X249410Y119390D02*
D03*
X242520D02*
D03*
X89764Y-37795D02*
D03*
X82874D02*
D03*
X21456Y151575D02*
D03*
X14567D02*
D03*
D109*
X171949Y101476D02*
D03*
Y104035D02*
D03*
Y106595D02*
D03*
Y109154D02*
D03*
Y111713D02*
D03*
Y114272D02*
D03*
Y116831D02*
D03*
Y119390D02*
D03*
Y121949D02*
D03*
Y124508D02*
D03*
Y127067D02*
D03*
Y129626D02*
D03*
Y132185D02*
D03*
Y134744D02*
D03*
X143405Y101476D02*
D03*
Y104035D02*
D03*
Y106595D02*
D03*
Y109154D02*
D03*
Y111713D02*
D03*
Y114272D02*
D03*
Y116831D02*
D03*
Y119390D02*
D03*
Y121949D02*
D03*
Y124508D02*
D03*
Y127067D02*
D03*
Y129626D02*
D03*
Y132185D02*
D03*
Y134744D02*
D03*
D110*
X142323Y146850D02*
D03*
X153149D02*
D03*
X172244D02*
D03*
X161417D02*
D03*
D111*
X263447Y11300D02*
D03*
D112*
X257671Y9282D02*
D03*
X258784Y10395D02*
D03*
X259898Y11509D02*
D03*
X261011Y12622D02*
D03*
X262125Y13736D02*
D03*
X263238Y14849D02*
D03*
X264352Y15963D02*
D03*
X265465Y17077D02*
D03*
X269224Y13318D02*
D03*
X268110Y12205D02*
D03*
X266997Y11091D02*
D03*
X265883Y9978D02*
D03*
X264770Y8864D02*
D03*
X263656Y7751D02*
D03*
X262543Y6637D02*
D03*
X261429Y5523D02*
D03*
D113*
X233268Y-78740D02*
D03*
X246850D02*
D03*
D114*
X172579Y14091D02*
D03*
X144232D02*
D03*
X172579Y2280D02*
D03*
X144232D02*
D03*
D115*
X114961Y-14961D02*
D03*
Y-22047D02*
D03*
X122835Y-18504D02*
D03*
X114961Y-32677D02*
D03*
Y-39764D02*
D03*
X122835Y-36220D02*
D03*
D116*
X44882Y13583D02*
D03*
Y19685D02*
D03*
X52756Y150591D02*
D03*
Y144488D02*
D03*
X46457Y150591D02*
D03*
Y144488D02*
D03*
X-12205Y150197D02*
D03*
Y144095D02*
D03*
D117*
X144232Y-83701D02*
D03*
Y-78701D02*
D03*
Y-73701D02*
D03*
Y-68701D02*
D03*
Y-63701D02*
D03*
Y-58701D02*
D03*
Y-53701D02*
D03*
Y-48701D02*
D03*
Y-43701D02*
D03*
Y-38701D02*
D03*
Y-33701D02*
D03*
Y-28701D02*
D03*
Y-23701D02*
D03*
Y-18701D02*
D03*
X211161D02*
D03*
Y-23701D02*
D03*
Y-28701D02*
D03*
Y-33701D02*
D03*
Y-38701D02*
D03*
Y-43701D02*
D03*
Y-48701D02*
D03*
Y-53701D02*
D03*
Y-58701D02*
D03*
Y-63701D02*
D03*
Y-68701D02*
D03*
Y-73701D02*
D03*
Y-78701D02*
D03*
Y-83701D02*
D03*
D118*
X155197Y-14764D02*
D03*
X160197D02*
D03*
X165197D02*
D03*
X170197D02*
D03*
X175197D02*
D03*
X180197D02*
D03*
X185197D02*
D03*
X190197D02*
D03*
X195197D02*
D03*
X200197D02*
D03*
D119*
X181634Y-54173D02*
D03*
D120*
X121806Y77559D02*
D03*
X115901D02*
D03*
X121609Y72480D02*
D03*
X115704D02*
D03*
X121806Y67323D02*
D03*
X115901D02*
D03*
X121806Y61811D02*
D03*
X115901D02*
D03*
X241732Y-28701D02*
D03*
X235827D02*
D03*
D121*
X317891Y-21823D02*
D03*
X314828Y-24885D02*
D03*
X311766Y-27948D02*
D03*
X308704Y-31010D02*
D03*
X305642Y-34072D02*
D03*
X302580Y-37134D02*
D03*
X299517Y-40197D02*
D03*
X296455Y-43259D02*
D03*
D122*
X328233Y-7973D02*
D03*
D123*
X288591Y-48451D02*
D03*
X296413Y23290D02*
D03*
D124*
X283733Y-41338D02*
D03*
D125*
X258678Y-16283D02*
D03*
D126*
X282215Y13518D02*
D03*
X260557Y-8140D02*
D03*
D127*
X236614Y135413D02*
D03*
X117323Y181496D02*
D03*
D128*
X247244Y127913D02*
D03*
Y132913D02*
D03*
Y137913D02*
D03*
Y142913D02*
D03*
X225984Y127913D02*
D03*
Y132913D02*
D03*
Y137913D02*
D03*
X127953Y173996D02*
D03*
Y178996D02*
D03*
Y183996D02*
D03*
Y188996D02*
D03*
X106693Y173996D02*
D03*
Y178996D02*
D03*
Y183996D02*
D03*
D129*
X225984Y142913D02*
D03*
X106693Y188996D02*
D03*
D130*
X-8677Y173410D02*
D03*
X-15748Y166339D02*
D03*
X119095Y-53976D02*
D03*
Y-63976D02*
D03*
X89779Y24425D02*
D03*
X96850Y31496D02*
D03*
X103921Y38567D02*
D03*
X110993Y45638D02*
D03*
X359842Y126850D02*
D03*
Y136850D02*
D03*
Y146850D02*
D03*
Y156850D02*
D03*
X349843Y126850D02*
D03*
Y136850D02*
D03*
Y146850D02*
D03*
Y156850D02*
D03*
X306693Y179842D02*
D03*
Y169843D02*
D03*
Y159843D02*
D03*
Y149843D02*
D03*
Y139842D02*
D03*
Y129842D02*
D03*
Y119843D02*
D03*
Y109843D02*
D03*
X316693D02*
D03*
Y119843D02*
D03*
Y129842D02*
D03*
Y139842D02*
D03*
Y149843D02*
D03*
Y159843D02*
D03*
Y169843D02*
D03*
D131*
X-22819Y159267D02*
D03*
X82708Y17354D02*
D03*
D132*
X119095Y-73976D02*
D03*
X359842Y166850D02*
D03*
X349843D02*
D03*
X316693Y179842D02*
D03*
D133*
X358170Y83169D02*
D03*
Y86516D02*
D03*
Y89862D02*
D03*
Y93209D02*
D03*
Y96555D02*
D03*
Y99902D02*
D03*
Y103248D02*
D03*
Y106595D02*
D03*
X363484D02*
D03*
Y103248D02*
D03*
Y99902D02*
D03*
Y96555D02*
D03*
Y93209D02*
D03*
Y89862D02*
D03*
Y86516D02*
D03*
Y83169D02*
D03*
D134*
X362028Y77854D02*
D03*
Y111910D02*
D03*
D135*
X375335D02*
D03*
Y77854D02*
D03*
D136*
X208721Y241476D02*
D03*
X263721Y238976D02*
D03*
X236221Y221476D02*
D03*
X224971Y223976D02*
D03*
X247471D02*
D03*
X90610Y241476D02*
D03*
X145610Y238976D02*
D03*
X118110Y221476D02*
D03*
X106860Y223976D02*
D03*
X129360D02*
D03*
D137*
X218721Y251476D02*
D03*
X253721D02*
D03*
X203721Y286476D02*
D03*
X213721Y288976D02*
D03*
X236221Y276476D02*
D03*
X258721Y288976D02*
D03*
X100610Y251476D02*
D03*
X135610D02*
D03*
X85610Y286476D02*
D03*
X95610Y288976D02*
D03*
X118110Y276476D02*
D03*
X140610Y288976D02*
D03*
D138*
X208721Y182087D02*
D03*
X263721D02*
D03*
D139*
X208721Y201772D02*
D03*
X263721D02*
D03*
D140*
X354331Y196850D02*
D03*
X-0D02*
D03*
X354331Y-0D02*
D03*
X-0D02*
D03*
M02*
