G04*
G04 #@! TF.GenerationSoftware,Altium Limited,Altium Designer,20.0.11 (256)*
G04*
G04 Layer_Color=16711935*
%FSLAX25Y25*%
%MOIN*%
G70*
G01*
G75*
%ADD13C,0.00787*%
%ADD14C,0.01181*%
%ADD16C,0.00394*%
D13*
X83209Y-88583D02*
X142421Y-88386D01*
X83209Y-172244D02*
Y-88583D01*
X272185Y-148622D02*
Y-88386D01*
Y-172244D02*
Y-148622D01*
X212972Y-88386D02*
X272185D01*
X83209Y-172244D02*
X272185D01*
D14*
X190356Y-155584D02*
Y-151255D01*
Y-152698D01*
X187469Y-155584D01*
X189634Y-153419D01*
X187469Y-151255D01*
X183140Y-155584D02*
X186026D01*
Y-151255D01*
X183140D01*
X186026Y-153419D02*
X184583D01*
X178811Y-155584D02*
X181697D01*
Y-151255D01*
X178811D01*
X181697Y-153419D02*
X180254D01*
X177368Y-151255D02*
Y-155584D01*
X175203D01*
X174481Y-154863D01*
Y-153419D01*
X175203Y-152698D01*
X177368D01*
X166544Y-155584D02*
X167987D01*
X168709Y-154863D01*
Y-151976D01*
X167987Y-151255D01*
X166544D01*
X165823Y-151976D01*
Y-154863D01*
X166544Y-155584D01*
X164380D02*
Y-151976D01*
X163658Y-151255D01*
X162215D01*
X161493Y-151976D01*
Y-155584D01*
X160050D02*
X157164D01*
X158607D01*
Y-151255D01*
X192520Y-143225D02*
Y-147554D01*
X189634Y-143225D01*
Y-147554D01*
X186026D02*
X187469D01*
X188191Y-146833D01*
Y-143947D01*
X187469Y-143225D01*
X186026D01*
X185305Y-143947D01*
Y-146833D01*
X186026Y-147554D01*
X176646Y-146833D02*
X177368Y-147554D01*
X178811D01*
X179532Y-146833D01*
Y-143947D01*
X178811Y-143225D01*
X177368D01*
X176646Y-143947D01*
X173038Y-147554D02*
X174481D01*
X175203Y-146833D01*
Y-143947D01*
X174481Y-143225D01*
X173038D01*
X172317Y-143947D01*
Y-146833D01*
X173038Y-147554D01*
X170874Y-143225D02*
Y-147554D01*
X168709D01*
X167987Y-146833D01*
Y-145390D01*
X168709Y-144668D01*
X170874D01*
X166544Y-143225D02*
Y-147554D01*
X164380D01*
X163658Y-146833D01*
Y-145390D01*
X164380Y-144668D01*
X166544D01*
X159329Y-147554D02*
X162215D01*
Y-143225D01*
X159329D01*
X162215Y-145390D02*
X160772D01*
X157886Y-143225D02*
Y-147554D01*
X155721D01*
X154999Y-146833D01*
Y-145390D01*
X155721Y-144668D01*
X157886D01*
X156443D02*
X154999Y-143225D01*
X192520Y-135195D02*
Y-139524D01*
X189634Y-135195D01*
Y-139524D01*
X186026D02*
X187469D01*
X188191Y-138803D01*
Y-135917D01*
X187469Y-135195D01*
X186026D01*
X185305Y-135917D01*
Y-138803D01*
X186026Y-139524D01*
X179532D02*
X176646D01*
X178089D01*
Y-135195D01*
X175203D02*
Y-139524D01*
X173038D01*
X172317Y-138803D01*
Y-137360D01*
X173038Y-136638D01*
X175203D01*
X173760D02*
X172317Y-135195D01*
X170874D02*
Y-138081D01*
X169430Y-139524D01*
X167987Y-138081D01*
Y-135195D01*
Y-137360D01*
X170874D01*
X163658Y-138803D02*
X164380Y-139524D01*
X165823D01*
X166544Y-138803D01*
Y-135917D01*
X165823Y-135195D01*
X164380D01*
X163658Y-135917D01*
X159329Y-139524D02*
X162215D01*
Y-135195D01*
X159329D01*
X162215Y-137360D02*
X160772D01*
X154999Y-138803D02*
X155721Y-139524D01*
X157164D01*
X157886Y-138803D01*
Y-138081D01*
X157164Y-137360D01*
X155721D01*
X154999Y-136638D01*
Y-135917D01*
X155721Y-135195D01*
X157164D01*
X157886Y-135917D01*
X201179Y-127165D02*
Y-131495D01*
X198293Y-127165D01*
Y-131495D01*
X194685D02*
X196128D01*
X196850Y-130773D01*
Y-127887D01*
X196128Y-127165D01*
X194685D01*
X193963Y-127887D01*
Y-130773D01*
X194685Y-131495D01*
X185305Y-130773D02*
X186026Y-131495D01*
X187469D01*
X188191Y-130773D01*
Y-127887D01*
X187469Y-127165D01*
X186026D01*
X185305Y-127887D01*
X181697Y-131495D02*
X183140D01*
X183861Y-130773D01*
Y-127887D01*
X183140Y-127165D01*
X181697D01*
X180975Y-127887D01*
Y-130773D01*
X181697Y-131495D01*
X179532Y-127165D02*
Y-131495D01*
X178089Y-130052D01*
X176646Y-131495D01*
Y-127165D01*
X175203D02*
Y-131495D01*
X173038D01*
X172317Y-130773D01*
Y-129330D01*
X173038Y-128609D01*
X175203D01*
X168709Y-131495D02*
X170152D01*
X170874Y-130773D01*
Y-127887D01*
X170152Y-127165D01*
X168709D01*
X167987Y-127887D01*
Y-130773D01*
X168709Y-131495D01*
X166544Y-127165D02*
Y-131495D01*
X163658Y-127165D01*
Y-131495D01*
X159329D02*
X162215D01*
Y-127165D01*
X159329D01*
X162215Y-129330D02*
X160772D01*
X157886Y-127165D02*
Y-131495D01*
X154999Y-127165D01*
Y-131495D01*
X153556D02*
X150670D01*
X152113D01*
Y-127165D01*
X146341Y-130773D02*
X147062Y-131495D01*
X148505D01*
X149227Y-130773D01*
Y-130052D01*
X148505Y-129330D01*
X147062D01*
X146341Y-128609D01*
Y-127887D01*
X147062Y-127165D01*
X148505D01*
X149227Y-127887D01*
D16*
X73819Y40748D02*
G03*
X73819Y40748I-1969J0D01*
G01*
X81693Y-68898D02*
G03*
X81693Y-68898I-1969J0D01*
G01*
X237205Y71083D02*
G03*
X237205Y71083I-1969J0D01*
G01*
X256850Y46662D02*
G03*
X256850Y46662I-1969J0D01*
G01*
X152165Y135236D02*
G03*
X152165Y135236I-1969J0D01*
G01*
X225743Y16342D02*
G03*
X225743Y16342I-1969J0D01*
G01*
X234252Y141713D02*
G03*
X234252Y141713I-1969J0D01*
G01*
X114961Y187795D02*
G03*
X114961Y187795I-1969J0D01*
G01*
X-19094Y131693D02*
X75394D01*
X-19094Y37205D02*
X75394D01*
X-19094D02*
Y131693D01*
X75394Y37205D02*
Y131693D01*
X63583Y-52756D02*
X83268D01*
X63583Y-72441D02*
X83268D01*
X63583D02*
Y-52756D01*
X83268Y-72441D02*
Y-52756D01*
X238780Y67540D02*
Y87225D01*
X219095Y67540D02*
Y87225D01*
Y67540D02*
X238780D01*
X219095Y87225D02*
X238780D01*
X249870Y46662D02*
X264068Y32464D01*
X262398Y59190D02*
X276596Y44992D01*
X249870Y46662D02*
X262398Y59190D01*
X264068Y32464D02*
X276596Y44992D01*
X146653Y97441D02*
X168701D01*
X146653Y138780D02*
X168701D01*
Y97441D02*
Y138780D01*
X146653Y97441D02*
Y138780D01*
X266161Y17773D02*
X269920Y14014D01*
X256975Y8586D02*
X260733Y4827D01*
X256975Y8586D02*
X266161Y17773D01*
X260733Y4827D02*
X269920Y14014D01*
X232961Y2145D02*
X245489Y14672D01*
X218763Y16342D02*
X231291Y28870D01*
X245489Y14672D01*
X218763Y16342D02*
X232961Y2145D01*
X228740Y125571D02*
X244488D01*
X228740Y145256D02*
X244488D01*
Y125571D02*
Y145256D01*
X228740Y125571D02*
Y145256D01*
X109449Y171654D02*
X125197D01*
X109449Y191339D02*
X125197D01*
Y171654D02*
Y191339D01*
X109449Y171654D02*
Y191339D01*
M02*
