G04*
G04 #@! TF.GenerationSoftware,Altium Limited,Altium Designer,20.0.11 (256)*
G04*
G04 Layer_Color=128*
%FSLAX25Y25*%
%MOIN*%
G70*
G01*
G75*
%ADD21R,0.05512X0.04528*%
%ADD24R,0.02756X0.02362*%
%ADD25R,0.02362X0.02756*%
%ADD28R,0.03347X0.03347*%
%ADD41R,0.03543X0.03937*%
%ADD42R,0.03937X0.03543*%
%ADD55R,0.05512X0.07087*%
%ADD157R,0.02362X0.07087*%
%ADD158O,0.02362X0.07087*%
%ADD159R,0.03000X0.01400*%
%ADD160R,0.08500X0.07000*%
G04:AMPARAMS|DCode=161|XSize=55.12mil|YSize=45.28mil|CornerRadius=0mil|HoleSize=0mil|Usage=FLASHONLY|Rotation=135.000|XOffset=0mil|YOffset=0mil|HoleType=Round|Shape=Rectangle|*
%AMROTATEDRECTD161*
4,1,4,0.03550,-0.00348,0.00348,-0.03550,-0.03550,0.00348,-0.00348,0.03550,0.03550,-0.00348,0.0*
%
%ADD161ROTATEDRECTD161*%

G04:AMPARAMS|DCode=162|XSize=23.62mil|YSize=27.56mil|CornerRadius=0mil|HoleSize=0mil|Usage=FLASHONLY|Rotation=225.000|XOffset=0mil|YOffset=0mil|HoleType=Round|Shape=Rectangle|*
%AMROTATEDRECTD162*
4,1,4,-0.00139,0.01810,0.01810,-0.00139,0.00139,-0.01810,-0.01810,0.00139,-0.00139,0.01810,0.0*
%
%ADD162ROTATEDRECTD162*%

%ADD163R,0.02362X0.03150*%
%ADD164R,0.07000X0.08500*%
D21*
X106693Y172106D02*
D03*
Y178996D02*
D03*
X114961Y172205D02*
D03*
Y179095D02*
D03*
X233858Y132421D02*
D03*
Y125531D02*
D03*
X225984Y132421D02*
D03*
Y125532D02*
D03*
D24*
X-12598Y115748D02*
D03*
Y111811D02*
D03*
X44488Y78740D02*
D03*
Y82677D02*
D03*
X149606Y-51181D02*
D03*
Y-55118D02*
D03*
X165354Y-84646D02*
D03*
Y-80709D02*
D03*
X67717Y109449D02*
D03*
Y113386D02*
D03*
X152559Y120472D02*
D03*
Y124409D02*
D03*
X67717Y122441D02*
D03*
Y118504D02*
D03*
X69291Y101181D02*
D03*
Y97244D02*
D03*
X45669Y101181D02*
D03*
Y105118D02*
D03*
X202756Y-62205D02*
D03*
Y-58268D02*
D03*
Y-53543D02*
D03*
Y-49606D02*
D03*
X195669Y-58268D02*
D03*
Y-62205D02*
D03*
D25*
X6299Y59842D02*
D03*
X2362D02*
D03*
X27559D02*
D03*
X31496D02*
D03*
X335827Y70079D02*
D03*
X339764D02*
D03*
X332795Y61063D02*
D03*
X328858D02*
D03*
D28*
X57677Y94882D02*
D03*
X63779D02*
D03*
X208721Y211614D02*
D03*
X214824D02*
D03*
X263721D02*
D03*
X257619D02*
D03*
D41*
X-6004Y46063D02*
D03*
X-11319D02*
D03*
D42*
X372835Y103150D02*
D03*
Y97835D02*
D03*
X59842Y118504D02*
D03*
Y123819D02*
D03*
X59842Y112205D02*
D03*
Y106890D02*
D03*
X-10236Y72638D02*
D03*
Y67323D02*
D03*
D55*
X132775Y91536D02*
D03*
X143602D02*
D03*
X132480Y82087D02*
D03*
X143307D02*
D03*
D157*
X36398Y66929D02*
D03*
D158*
X31398D02*
D03*
X26398D02*
D03*
X21398D02*
D03*
X16398D02*
D03*
X11398D02*
D03*
X6398D02*
D03*
X1398D02*
D03*
X36398Y103937D02*
D03*
X31398D02*
D03*
X26398D02*
D03*
X21398D02*
D03*
X16398D02*
D03*
X11398D02*
D03*
X6398D02*
D03*
X1398D02*
D03*
D159*
X166749Y100173D02*
D03*
Y102173D02*
D03*
Y104173D02*
D03*
Y106173D02*
D03*
Y108173D02*
D03*
Y110173D02*
D03*
Y112173D02*
D03*
Y114173D02*
D03*
X159449D02*
D03*
Y112173D02*
D03*
Y110173D02*
D03*
Y108173D02*
D03*
Y106173D02*
D03*
Y104173D02*
D03*
Y102173D02*
D03*
Y100173D02*
D03*
D160*
X282284Y182284D02*
D03*
Y198284D02*
D03*
X227165Y182284D02*
D03*
Y198284D02*
D03*
X159843Y238976D02*
D03*
Y254976D02*
D03*
D161*
X295669Y-19291D02*
D03*
X290797Y-24163D02*
D03*
D162*
X296429Y-27193D02*
D03*
X299213Y-24409D02*
D03*
X262125Y13736D02*
D03*
X259341Y10952D02*
D03*
D163*
X51181Y112205D02*
D03*
X45669D02*
D03*
D164*
X129360Y237402D02*
D03*
X113360D02*
D03*
M02*
