G04*
G04 #@! TF.GenerationSoftware,Altium Limited,Altium Designer,20.0.11 (256)*
G04*
G04 Layer_Color=16711935*
%FSLAX25Y25*%
%MOIN*%
G70*
G01*
G75*
%ADD13C,0.00787*%
%ADD16C,0.00394*%
%ADD169C,0.00000*%
%ADD170C,0.00394*%
%ADD171R,0.03150X0.00847*%
%ADD172R,0.00847X0.03150*%
D13*
X187008Y313976D02*
X285433D01*
Y217520D02*
Y313976D01*
X187008Y217520D02*
X285433D01*
X187008D02*
Y313976D01*
X68898D02*
X167323D01*
Y217520D02*
Y313976D01*
X68898Y217520D02*
X167323D01*
X68898D02*
Y313976D01*
D16*
X177658Y145669D02*
X184547D01*
X177658Y158858D02*
X184547D01*
X177658Y145669D02*
Y158858D01*
X184547Y145669D02*
Y158858D01*
X172146Y89764D02*
Y92913D01*
X165847Y89764D02*
Y92913D01*
Y89764D02*
X172146D01*
X165847Y92913D02*
X172146D01*
X109153Y171614D02*
Y179488D01*
X104232Y171614D02*
Y179488D01*
Y171614D02*
X109153D01*
X104232Y179488D02*
X109153D01*
X117421Y171713D02*
Y179587D01*
X112500Y171713D02*
Y179587D01*
Y171713D02*
X117421D01*
X112500Y179587D02*
X117421D01*
X208623Y210039D02*
X214922D01*
X208623Y213188D02*
X214922D01*
X208623Y210039D02*
Y213188D01*
X214922Y210039D02*
Y213188D01*
X257520D02*
X263820D01*
X257520Y210039D02*
X263820D01*
Y213188D01*
X257520Y210039D02*
Y213188D01*
X370945Y103937D02*
X374724D01*
X370945Y97047D02*
X374724D01*
X370945D02*
Y103937D01*
X374724Y97047D02*
Y103937D01*
X294671Y-17597D02*
X298151Y-21077D01*
X289103Y-23165D02*
X292583Y-26645D01*
X289103Y-23165D02*
X294671Y-17597D01*
X292583Y-26645D02*
X298151Y-21077D01*
X57953Y117717D02*
X61732D01*
X57953Y124606D02*
X61732D01*
Y117717D02*
Y124606D01*
X57953Y117717D02*
Y124606D01*
X57953Y112992D02*
X61732D01*
X57953Y106103D02*
X61732D01*
X57953D02*
Y112992D01*
X61732Y106103D02*
Y112992D01*
X131595Y88091D02*
X144783D01*
X131595Y94980D02*
X144783D01*
X131595Y88091D02*
Y94980D01*
X144783Y88091D02*
Y94980D01*
X131299Y78642D02*
X144488D01*
X131299Y85532D02*
X144488D01*
X131299Y78642D02*
Y85532D01*
X144488Y78642D02*
Y85532D01*
X130020Y144980D02*
X136909D01*
X130020Y158169D02*
X136909D01*
X130020Y144980D02*
Y158169D01*
X136909Y144980D02*
Y158169D01*
X-12126Y66535D02*
Y73425D01*
X-8346Y66535D02*
Y73425D01*
X-12126D02*
X-8346D01*
X-12126Y66535D02*
X-8346D01*
X63878Y-28789D02*
Y-12746D01*
X58908Y-7776D02*
X63878Y-12746D01*
X37894Y-7776D02*
X58908D01*
X37894Y-33760D02*
Y-7776D01*
Y-33760D02*
X58908D01*
X63878Y-28789D01*
X206398Y65600D02*
Y81644D01*
X201427Y86614D02*
X206398Y81644D01*
X180413Y86614D02*
X201427D01*
X180413Y60630D02*
Y86614D01*
Y60630D02*
X201427D01*
X206398Y65600D01*
X-12106Y44173D02*
Y47953D01*
X-5217Y44173D02*
Y47953D01*
X-12106Y44173D02*
X-5217D01*
X-12106Y47953D02*
X-5217D01*
X95571Y119291D02*
Y122441D01*
X89272Y119291D02*
Y122441D01*
Y119291D02*
X95571D01*
X89272Y122441D02*
X95571D01*
X337284Y100787D02*
X344370D01*
X337284Y88583D02*
X344370D01*
X337284D02*
Y100787D01*
X344370Y88583D02*
Y100787D01*
X305906Y187480D02*
Y191260D01*
X312795Y187480D02*
Y191260D01*
X305906D02*
X312795D01*
X305906Y187480D02*
X312795D01*
X326063Y179055D02*
X329843D01*
X326063Y185945D02*
X329843D01*
X326063Y179055D02*
Y185945D01*
X329843Y179055D02*
Y185945D01*
X368189Y135728D02*
X371969D01*
X368189Y128839D02*
X371969D01*
Y135728D01*
X368189Y128839D02*
Y135728D01*
X368189Y147638D02*
X371969D01*
X368189Y140748D02*
X371969D01*
Y147638D01*
X368189Y140748D02*
Y147638D01*
X328071Y157953D02*
Y161732D01*
X334961Y157953D02*
Y161732D01*
X328071D02*
X334961D01*
X328071Y157953D02*
X334961D01*
X328071Y147716D02*
X334961D01*
X328071Y151496D02*
X334961D01*
Y147716D02*
Y151496D01*
X328071Y147716D02*
Y151496D01*
X339449Y145866D02*
X343228D01*
X339449Y152756D02*
X343228D01*
X339449Y145866D02*
Y152756D01*
X343228Y145866D02*
Y152756D01*
X339528Y137717D02*
X343307D01*
X339528Y130827D02*
X343307D01*
Y137717D01*
X339528Y130827D02*
Y137717D01*
X328071Y137953D02*
Y141732D01*
X334960Y137953D02*
Y141732D01*
X328071D02*
X334960D01*
X328071Y137953D02*
X334960D01*
X328071Y118189D02*
Y121968D01*
X334961Y118189D02*
Y121968D01*
X328071D02*
X334961D01*
X328071Y118189D02*
X334961D01*
X365650Y56221D02*
Y69213D01*
X372146Y56221D02*
Y69213D01*
X365650Y56221D02*
X372146D01*
X365650Y69213D02*
X372146D01*
X373229Y49365D02*
X376378D01*
X373229Y43066D02*
X376378D01*
Y49365D01*
X373229Y43066D02*
Y49365D01*
X324410Y31867D02*
Y35646D01*
X317520Y31867D02*
Y35646D01*
Y31867D02*
X324410D01*
X317520Y35646D02*
X324410D01*
X330433Y32795D02*
Y36575D01*
X337323Y32795D02*
Y36575D01*
X330433D02*
X337323D01*
X330433Y32795D02*
X337323D01*
X319685Y70945D02*
Y74725D01*
X312795Y70945D02*
Y74725D01*
Y70945D02*
X319685D01*
X312795Y74725D02*
X319685D01*
X235138Y58268D02*
Y61417D01*
X228839Y58268D02*
Y61417D01*
Y58268D02*
X235138D01*
X228839Y61417D02*
X235138D01*
X256004Y83760D02*
Y91634D01*
X251083Y83760D02*
Y91634D01*
X256004D01*
X251083Y83760D02*
X256004D01*
X165453Y190059D02*
Y202067D01*
X172343Y190059D02*
Y202067D01*
X165453D02*
X172343D01*
X165453Y190059D02*
X172343D01*
X165453Y163012D02*
Y175020D01*
X172343Y163012D02*
Y175020D01*
X165453D02*
X172343D01*
X165453Y163012D02*
X172343D01*
X105978Y162106D02*
Y167028D01*
X113852Y162106D02*
Y167028D01*
X105978D02*
X113852D01*
X105978Y162106D02*
X113852D01*
X128642D02*
Y167028D01*
X120768Y162106D02*
Y167028D01*
Y162106D02*
X128642D01*
X120768Y167028D02*
X128642D01*
X141142Y143406D02*
Y150295D01*
X154331Y143406D02*
Y150295D01*
X141142D02*
X154331D01*
X141142Y143406D02*
X154331D01*
X173425D02*
Y150295D01*
X160236Y143406D02*
Y150295D01*
Y143406D02*
X173425D01*
X160236Y150295D02*
X173425D01*
X208760Y129488D02*
X215059D01*
X208760Y126339D02*
X215059D01*
X208760D02*
Y129488D01*
X215059Y126339D02*
Y129488D01*
X222933Y116831D02*
Y121752D01*
X230807Y116831D02*
Y121752D01*
X222933D02*
X230807D01*
X222933Y116831D02*
X230807D01*
X249902Y116929D02*
Y121850D01*
X242028Y116929D02*
Y121850D01*
Y116929D02*
X249902D01*
X242028Y121850D02*
X249902D01*
X232972Y-84252D02*
Y-73228D01*
X247146Y-84252D02*
Y-73228D01*
X232972D02*
X247146D01*
X232972Y-84252D02*
X247146D01*
X75492Y-81496D02*
Y-78347D01*
X81791Y-81496D02*
Y-78347D01*
X75492D02*
X81791D01*
X75492Y-81496D02*
X81791D01*
X82382Y-40256D02*
X90256D01*
X82382Y-35335D02*
X90256D01*
Y-40256D02*
Y-35335D01*
X82382Y-40256D02*
Y-35335D01*
X116142Y-24409D02*
Y-12598D01*
X121653Y-24409D02*
Y-12598D01*
X116142D02*
X121653D01*
X116142Y-24409D02*
X121653D01*
X129626Y-35433D02*
Y-32283D01*
X135925Y-35433D02*
Y-32283D01*
X129626D02*
X135925D01*
X129626Y-35433D02*
X135925D01*
X129724Y-70472D02*
Y-67323D01*
X136024Y-70472D02*
Y-67323D01*
X129724D02*
X136024D01*
X129724Y-70472D02*
X136024D01*
X43307Y13484D02*
X46457D01*
X43307Y19783D02*
X46457D01*
X43307Y13484D02*
Y19783D01*
X46457Y13484D02*
Y19783D01*
X10039Y21575D02*
X16929D01*
X10039Y17795D02*
X16929D01*
X10039D02*
Y21575D01*
X16929Y17795D02*
Y21575D01*
X68110Y151969D02*
Y155118D01*
X61811Y151969D02*
Y155118D01*
Y151969D02*
X68110D01*
X61811Y155118D02*
X68110D01*
X64961Y146063D02*
Y149213D01*
X58661Y146063D02*
Y149213D01*
Y146063D02*
X64961D01*
X58661Y149213D02*
X64961D01*
X51181Y150689D02*
X54331D01*
X51181Y144390D02*
X54331D01*
Y150689D01*
X51181Y144390D02*
Y150689D01*
X44882Y150689D02*
X48031D01*
X44882Y144390D02*
X48031D01*
Y150689D01*
X44882Y144390D02*
Y150689D01*
X14075Y149114D02*
X21949D01*
X14075Y154035D02*
X21949D01*
Y149114D02*
Y154035D01*
X14075Y149114D02*
Y154035D01*
X2362Y142205D02*
Y145984D01*
X9252Y142205D02*
Y145984D01*
X2362D02*
X9252D01*
X2362Y142205D02*
X9252D01*
X-13779Y150295D02*
X-10630D01*
X-13779Y143996D02*
X-10630D01*
Y150295D01*
X-13779Y143996D02*
Y150295D01*
X196358Y113386D02*
X203248D01*
X196358Y100197D02*
X203248D01*
Y113386D01*
X196358Y100197D02*
Y113386D01*
X185335D02*
X192224D01*
X185335Y100197D02*
X192224D01*
Y113386D01*
X185335Y100197D02*
Y113386D01*
X116142Y-42126D02*
Y-30315D01*
X121653Y-42126D02*
Y-30315D01*
X116142D02*
X121653D01*
X116142Y-42126D02*
X121653D01*
X231398Y132913D02*
X236319D01*
X231398Y125039D02*
X236319D01*
X231398D02*
Y132913D01*
X236319Y125039D02*
Y132913D01*
X223524D02*
X228445D01*
X223524Y125039D02*
X228445D01*
X223524D02*
Y132913D01*
X228445Y125039D02*
Y132913D01*
X259350Y125984D02*
Y129134D01*
X265650Y125984D02*
Y129134D01*
X259350D02*
X265650D01*
X259350Y125984D02*
X265650D01*
X115748Y75984D02*
X122047D01*
X115748Y79134D02*
X122047D01*
Y75984D02*
Y79134D01*
X115748Y75984D02*
Y79134D01*
X115551Y70906D02*
X121850D01*
X115551Y74055D02*
X121850D01*
Y70906D02*
Y74055D01*
X115551Y70906D02*
Y74055D01*
X115748Y65748D02*
X122047D01*
X115748Y68898D02*
X122047D01*
Y65748D02*
Y68898D01*
X115748Y65748D02*
Y68898D01*
Y60236D02*
X122047D01*
X115748Y63386D02*
X122047D01*
Y60236D02*
Y63386D01*
X115748Y60236D02*
Y63386D01*
X235674Y-30275D02*
X241973D01*
X235674Y-27126D02*
X241973D01*
Y-30275D02*
Y-27126D01*
X235674Y-30275D02*
Y-27126D01*
X140453Y172421D02*
Y175571D01*
X146752Y172421D02*
Y175571D01*
X140453D02*
X146752D01*
X140453Y172421D02*
X146752D01*
X93012D02*
Y175571D01*
X86712Y172421D02*
Y175571D01*
Y172421D02*
X93012D01*
X86712Y175571D02*
X93012D01*
D169*
X161149Y100873D02*
G03*
X161149Y101473I0J300D01*
G01*
Y102873D02*
G03*
X161149Y103473I0J300D01*
G01*
Y104873D02*
G03*
X161149Y105473I0J300D01*
G01*
Y106873D02*
G03*
X161149Y107473I0J300D01*
G01*
Y108873D02*
G03*
X161149Y109473I0J300D01*
G01*
Y110873D02*
G03*
X161149Y111473I0J300D01*
G01*
Y112873D02*
G03*
X161149Y113473I0J300D01*
G01*
X165049Y101473D02*
G03*
X165049Y100873I0J-300D01*
G01*
Y103473D02*
G03*
X165049Y102873I0J-300D01*
G01*
Y105473D02*
G03*
X165049Y104873I0J-300D01*
G01*
Y107473D02*
G03*
X165049Y106873I0J-300D01*
G01*
Y109473D02*
G03*
X165049Y108873I0J-300D01*
G01*
Y111473D02*
G03*
X165049Y110873I0J-300D01*
G01*
Y113473D02*
G03*
X165049Y112873I0J-300D01*
G01*
D170*
X355965Y77264D02*
Y112500D01*
X392067Y77264D02*
Y112500D01*
X355965D02*
X392067D01*
X355965Y77264D02*
X392067D01*
D171*
X374803Y43489D02*
D03*
D172*
X121624Y77559D02*
D03*
X121427Y72480D02*
D03*
X121624Y67323D02*
D03*
Y61811D02*
D03*
X241550Y-28700D02*
D03*
M02*
