M48
;Layer_Color=9474304
;FILE_FORMAT=2:5
INCH,TZ
;TYPE=PLATED
T1F00S00C0.01181
T2F00S00C0.01575
T3F00S00C0.01772
T5F00S00C0.03000
T6F00S00C0.03150
T7F00S00C0.03937
T8F00S00C0.05197
T9F00S00C0.09409
T10F00S00C0.13976
T11F00S00C0.14961
%
T01
X59449Y-113878
X77756Y-114173
X97441
X117126
X136811
X156496
X176181
X195866
X215551
X235236
X254921
X274606
X294882Y-114075
X389764Y-18701
Y984
Y20669
Y40354
Y60039
X368110Y47244
X336614
X305118
X273622
X242126
X257874Y15748
X289370
X320866
X352362
X349114Y-25984
X336614Y-15748
X302165Y-13684
X273622Y-15748
X242126
X257874Y-47244
X289370
X315453Y-45965
X300787Y-77658
X273622Y-78740
X242126
X226378Y-47244
Y15748
X210630Y47244
X179134
X147638
X116142
X114173Y42323
X115157Y34449
X122047Y28543
X131890Y15748
X163386
X173228Y-4921
Y-13780
X179134Y-15748
X210630
X194882Y-47244
X210630Y-78740
X147638
X116142
X84646
X100394Y-47244
X131890
X116142Y-15748
X84646
X80709Y-5906
X85630Y1969
Y12795
X68898Y15748
Y-47244
X114173Y52165
X45276Y61024
Y71850
X35433Y66929
X33465Y59055
X25591Y70866
X18701Y72835
X-35433Y60039
Y40354
Y20669
X-25591Y15748
X-35433Y984
Y-18701
X-9843Y-15748
X5118Y-25984
X21654Y-15748
X34449Y-9843
X38878Y-45768
X53642Y-77658
X5906Y15748
Y78740
X9843Y76772
X-984
X-35433Y79724
Y99410
Y119095
Y138779
Y158465
Y178150
Y197835
Y215551
X5118Y222638
X64961Y223425
X21654Y173228
X-9843
X-2953Y125984
X15748Y117126
X30906Y135827
X45276Y135827
X51181Y78740
X25591Y88583
X131890Y78740
X163386
X194882
X206693Y105315
Y116142
X184055Y129921
X170276
X210630Y150591
X218504Y145669
X210630Y173228
X205709Y178150
X198819Y185039
X213583
X100394Y186024
Y191929
Y196850
X95472Y205709
Y210630
X100394Y176181
X242126Y173228
X240158Y184055
Y187992
X259636Y193898
X257874Y204724
X266939Y204724
X286221Y208465
Y212795
X290551
Y208465
X286417Y197835
X288386Y193120
X292580Y193898
X293307Y186024
X295276Y175197
X306102Y187008
X310039Y187992
Y193898
X321850Y187992
X320866Y204724
X326772Y208661
Y223425
X331693Y229331
X305057Y232222
X298454Y221437
X295276Y224410
X292435Y226367
X288926Y225250
X277559Y225394
X278543Y218504
X254921Y228346
X258858Y174213
X257874Y141732
X256890Y131890
X266732
X248031Y138779
X231299Y151575
X224410Y145669
X226378Y78740
X257874
X289370
X320866
X352362
X368110Y110236
X336614
X340551Y128937
X337598Y141732
X352362Y141732
X377747Y136811
X368110Y173228
X336614
X326772Y147638
X316929Y213583
X360039Y220965
X273622Y110236
X389764Y119095
Y138779
X383858Y136811
X389764Y158465
Y178150
Y197835
Y215551
Y99410
Y79724
X315945Y234252
X312931Y238127
X308997Y240099
X302576Y238599
X295276Y243110
X285433
X273622Y236220
X259842Y234252
X255906Y252953
X245079Y256890
Y261811
X239173
Y256890
X230315Y261811
Y269685
X245079Y278543
Y283465
X254921Y276368
X270669Y262795
X298228Y260827
X301181Y270669
X298228Y291339
X294980Y311024
X275590
X255906
X228346Y305118
X308071Y252953
X214469Y278543
X210630Y284449
X204724Y269685
X194882Y267717
X181102Y264764
X177165
X173228
Y284449
X165354
X147638Y311024
X118110
X88583
X97441Y242126
X192913Y247047
X38780Y242717
X53642Y274606
X60039Y310039
T02
X165452Y290256
X168799
X172145
X175492
X178838
X182185
X185531
X188878
Y295570
X185531
X182185
X178838
X175492
X172145
X168799
X165452
T03
X223425Y181102
Y190945
T05
X168307Y258858
T06
X167165Y-87598
X177165
T07
X306693Y109843
X316693
Y119843
Y129842
Y139842
Y149843
Y159843
Y169843
Y179842
X306693
Y169843
Y159843
Y149843
Y139842
Y129842
Y119843
T08
X177165Y-63386
Y220866
T09
X208661Y220866
T10
X208661Y-28976
X145669Y188268
T11
X354331Y0
X0
Y196850
X354331
M30
