G04*
G04 #@! TF.GenerationSoftware,Altium Limited,Altium Designer,19.0.15 (446)*
G04*
G04 Layer_Color=8388736*
%FSLAX25Y25*%
%MOIN*%
G70*
G01*
G75*
%ADD49R,0.04147X0.04147*%
%ADD50R,0.03950X0.03950*%
%ADD51R,0.05288X0.08792*%
%ADD52R,0.11430X0.11430*%
G04:AMPARAMS|DCode=53|XSize=17.84mil|YSize=37.53mil|CornerRadius=6.46mil|HoleSize=0mil|Usage=FLASHONLY|Rotation=0.000|XOffset=0mil|YOffset=0mil|HoleType=Round|Shape=RoundedRectangle|*
%AMROUNDEDRECTD53*
21,1,0.01784,0.02461,0,0,0.0*
21,1,0.00492,0.03753,0,0,0.0*
1,1,0.01292,0.00246,-0.01230*
1,1,0.01292,-0.00246,-0.01230*
1,1,0.01292,-0.00246,0.01230*
1,1,0.01292,0.00246,0.01230*
%
%ADD53ROUNDEDRECTD53*%
G04:AMPARAMS|DCode=54|XSize=17.84mil|YSize=37.53mil|CornerRadius=6.46mil|HoleSize=0mil|Usage=FLASHONLY|Rotation=90.000|XOffset=0mil|YOffset=0mil|HoleType=Round|Shape=RoundedRectangle|*
%AMROUNDEDRECTD54*
21,1,0.01784,0.02461,0,0,90.0*
21,1,0.00492,0.03753,0,0,90.0*
1,1,0.01292,0.01230,0.00246*
1,1,0.01292,0.01230,-0.00246*
1,1,0.01292,-0.01230,-0.00246*
1,1,0.01292,-0.01230,0.00246*
%
%ADD54ROUNDEDRECTD54*%
%ADD55R,0.03753X0.01784*%
%ADD56R,0.04537X0.04143*%
%ADD57R,0.06312X0.05328*%
%ADD58R,0.04143X0.04537*%
%ADD59R,0.05328X0.06312*%
%ADD60R,0.09700X0.11700*%
%ADD61R,0.09700X0.12900*%
%ADD62R,0.10485X0.09894*%
%ADD63O,0.06706X0.02572*%
%ADD64R,0.06706X0.02572*%
%ADD65R,0.06706X0.08083*%
%ADD66R,0.04147X0.04147*%
%ADD67R,0.06902X0.14383*%
%ADD68R,0.03359X0.05131*%
%ADD69R,0.04737X0.04737*%
%ADD70R,0.04343X0.03950*%
%ADD71R,0.03950X0.03162*%
G04:AMPARAMS|DCode=72|XSize=67.06mil|YSize=25.72mil|CornerRadius=8.43mil|HoleSize=0mil|Usage=FLASHONLY|Rotation=90.000|XOffset=0mil|YOffset=0mil|HoleType=Round|Shape=RoundedRectangle|*
%AMROUNDEDRECTD72*
21,1,0.06706,0.00886,0,0,90.0*
21,1,0.05020,0.02572,0,0,90.0*
1,1,0.01686,0.00443,0.02510*
1,1,0.01686,0.00443,-0.02510*
1,1,0.01686,-0.00443,-0.02510*
1,1,0.01686,-0.00443,0.02510*
%
%ADD72ROUNDEDRECTD72*%
%ADD73R,0.02572X0.06706*%
%ADD74R,0.09265X0.11824*%
%ADD75R,0.12217X0.05721*%
%ADD76R,0.02375X0.02769*%
%ADD77R,0.08280X0.05131*%
%ADD78R,0.04737X0.04737*%
%ADD79R,0.05131X0.03359*%
%ADD80R,0.14973X0.05328*%
%ADD81R,0.07887X0.03950*%
%ADD82R,0.07099X0.01981*%
%ADD83O,0.07099X0.01981*%
%ADD84R,0.07493X0.07493*%
%ADD85C,0.07493*%
%ADD86C,0.00800*%
%ADD87C,0.07099*%
%ADD88R,0.07099X0.07099*%
%ADD89C,0.06800*%
%ADD90C,0.03359*%
%ADD91O,0.10249X0.04343*%
%ADD92O,0.07493X0.04343*%
%ADD93R,0.06706X0.06706*%
%ADD94C,0.06706*%
%ADD95C,0.03556*%
%ADD96C,0.11430*%
%ADD97C,0.03162*%
D49*
X268701Y225492D02*
D03*
Y219390D02*
D03*
X142126Y175787D02*
D03*
Y181890D02*
D03*
X232087Y174016D02*
D03*
Y180118D02*
D03*
X254921Y225590D02*
D03*
Y219488D02*
D03*
X248031Y219390D02*
D03*
Y225492D02*
D03*
X39390Y122161D02*
D03*
Y116059D02*
D03*
X113976Y21260D02*
D03*
Y15157D02*
D03*
X119882D02*
D03*
Y21260D02*
D03*
X142520Y21063D02*
D03*
Y14961D02*
D03*
X149409D02*
D03*
Y21063D02*
D03*
X188386Y39272D02*
D03*
Y45374D02*
D03*
X225788Y138735D02*
D03*
Y144837D02*
D03*
X165748Y117224D02*
D03*
Y123327D02*
D03*
X159843Y117323D02*
D03*
Y123425D02*
D03*
X122047Y171949D02*
D03*
Y178051D02*
D03*
X116142Y177953D02*
D03*
Y171850D02*
D03*
X109843Y171752D02*
D03*
Y177854D02*
D03*
X85827Y183465D02*
D03*
Y177362D02*
D03*
X79527Y183465D02*
D03*
Y177362D02*
D03*
X55118Y64173D02*
D03*
Y58071D02*
D03*
D50*
X262795Y219587D02*
D03*
Y225492D02*
D03*
X149213Y175787D02*
D03*
Y181693D02*
D03*
X218898Y138735D02*
D03*
Y144641D02*
D03*
D51*
X49055Y205216D02*
D03*
X38583D02*
D03*
X27008Y23622D02*
D03*
X16535D02*
D03*
D52*
X101378Y199409D02*
D03*
D53*
X96457Y207283D02*
D03*
X98425D02*
D03*
X100394D02*
D03*
X102362D02*
D03*
X104331D02*
D03*
X106299D02*
D03*
Y191535D02*
D03*
X104331D02*
D03*
X102362D02*
D03*
X100394D02*
D03*
X98425D02*
D03*
X96457D02*
D03*
D54*
X109252Y204331D02*
D03*
Y202362D02*
D03*
Y200394D02*
D03*
Y198425D02*
D03*
Y196457D02*
D03*
Y194488D02*
D03*
X93504D02*
D03*
Y196457D02*
D03*
Y198425D02*
D03*
Y200394D02*
D03*
Y202362D02*
D03*
D55*
Y204331D02*
D03*
D56*
X84646D02*
D03*
Y209646D02*
D03*
X256693Y200000D02*
D03*
Y194685D02*
D03*
X82480Y65748D02*
D03*
Y60433D02*
D03*
X233268Y30512D02*
D03*
Y25197D02*
D03*
X240158Y33465D02*
D03*
Y28150D02*
D03*
X247047Y39370D02*
D03*
Y34055D02*
D03*
X195866Y35630D02*
D03*
Y30315D02*
D03*
Y42323D02*
D03*
Y47638D02*
D03*
X145079Y139764D02*
D03*
Y134449D02*
D03*
X168701Y130217D02*
D03*
Y135531D02*
D03*
D57*
X99606Y222342D02*
D03*
Y215453D02*
D03*
X91339Y222342D02*
D03*
Y215453D02*
D03*
X139764Y207283D02*
D03*
Y200394D02*
D03*
X138189Y132677D02*
D03*
Y139567D02*
D03*
D58*
X111614Y214173D02*
D03*
X106299D02*
D03*
X27579Y132791D02*
D03*
X22264D02*
D03*
X73425Y74606D02*
D03*
X68110D02*
D03*
X57087Y190748D02*
D03*
X62402D02*
D03*
D59*
X127461Y192126D02*
D03*
X120571D02*
D03*
D60*
X171486Y206424D02*
D03*
D61*
X213386Y192224D02*
D03*
Y220624D02*
D03*
D62*
X236024Y196063D02*
D03*
D63*
X247441Y187106D02*
D03*
Y189665D02*
D03*
Y192224D02*
D03*
Y194783D02*
D03*
Y197343D02*
D03*
Y199902D02*
D03*
Y202461D02*
D03*
Y205020D02*
D03*
X224606Y187106D02*
D03*
Y189665D02*
D03*
Y192224D02*
D03*
Y194783D02*
D03*
Y197343D02*
D03*
Y199902D02*
D03*
Y202461D02*
D03*
D64*
Y205020D02*
D03*
D65*
X213386Y174213D02*
D03*
X202953D02*
D03*
X148622Y150886D02*
D03*
X138189D02*
D03*
D66*
X225591Y180118D02*
D03*
X219488D02*
D03*
X27579Y138697D02*
D03*
X21476D02*
D03*
X183268Y116634D02*
D03*
X177165D02*
D03*
X176969Y110728D02*
D03*
X183071D02*
D03*
X92520Y183858D02*
D03*
X98622D02*
D03*
X98721Y177165D02*
D03*
X92618D02*
D03*
X98721Y169291D02*
D03*
X92618D02*
D03*
X75394Y194488D02*
D03*
X81496D02*
D03*
D67*
X276378Y201969D02*
D03*
Y178740D02*
D03*
D68*
X23819Y125591D02*
D03*
X27559D02*
D03*
X31299D02*
D03*
Y116142D02*
D03*
X27559D02*
D03*
X23819D02*
D03*
D69*
X50315D02*
D03*
X12598D02*
D03*
X51968Y96457D02*
D03*
X60236Y198819D02*
D03*
X59842Y179528D02*
D03*
D70*
X24409Y100000D02*
D03*
X16535Y96457D02*
D03*
Y103543D02*
D03*
X32283Y99803D02*
D03*
X40157Y103347D02*
D03*
Y96260D02*
D03*
X126772Y18504D02*
D03*
X134646Y22047D02*
D03*
Y14961D02*
D03*
D71*
X82480Y73032D02*
D03*
Y78543D02*
D03*
D72*
X75787Y65945D02*
D03*
X73228D02*
D03*
X70669D02*
D03*
X68110D02*
D03*
X75787Y43110D02*
D03*
X73228D02*
D03*
X70669D02*
D03*
D73*
X68110D02*
D03*
D74*
X64567Y23622D02*
D03*
X79921D02*
D03*
D75*
X180512Y130217D02*
D03*
Y143799D02*
D03*
D76*
X158858Y138878D02*
D03*
X156299D02*
D03*
X153740D02*
D03*
X151181D02*
D03*
Y130217D02*
D03*
X153740D02*
D03*
X156299D02*
D03*
X158858D02*
D03*
D77*
X155020Y134547D02*
D03*
D78*
X116142Y161417D02*
D03*
X49213Y218110D02*
D03*
D79*
X48819Y194488D02*
D03*
Y190748D02*
D03*
Y187008D02*
D03*
X39370D02*
D03*
Y190748D02*
D03*
Y194488D02*
D03*
D80*
X125000Y200394D02*
D03*
Y212008D02*
D03*
D81*
X218504Y28346D02*
D03*
Y89764D02*
D03*
D82*
X225590Y82677D02*
D03*
D83*
Y80709D02*
D03*
Y78740D02*
D03*
Y76772D02*
D03*
Y74803D02*
D03*
Y72835D02*
D03*
Y70866D02*
D03*
Y68898D02*
D03*
Y66929D02*
D03*
Y64961D02*
D03*
Y62992D02*
D03*
Y61024D02*
D03*
Y59055D02*
D03*
Y57087D02*
D03*
Y55118D02*
D03*
Y53150D02*
D03*
Y51181D02*
D03*
Y49213D02*
D03*
Y47244D02*
D03*
Y45276D02*
D03*
Y43307D02*
D03*
Y41339D02*
D03*
Y39370D02*
D03*
Y37402D02*
D03*
Y35433D02*
D03*
X211417D02*
D03*
Y37402D02*
D03*
Y39370D02*
D03*
Y41339D02*
D03*
Y43307D02*
D03*
Y45276D02*
D03*
Y47244D02*
D03*
Y49213D02*
D03*
Y51181D02*
D03*
Y53150D02*
D03*
Y55118D02*
D03*
Y57087D02*
D03*
Y59055D02*
D03*
Y61024D02*
D03*
Y62992D02*
D03*
Y64961D02*
D03*
Y66929D02*
D03*
Y68898D02*
D03*
Y70866D02*
D03*
Y72835D02*
D03*
Y74803D02*
D03*
Y76772D02*
D03*
Y78740D02*
D03*
Y80709D02*
D03*
Y82677D02*
D03*
D84*
X136614Y82441D02*
D03*
X43307Y160000D02*
D03*
X95276Y148189D02*
D03*
D85*
X136614Y72441D02*
D03*
Y62441D02*
D03*
X43307Y150000D02*
D03*
Y140000D02*
D03*
X95276Y128189D02*
D03*
Y138189D02*
D03*
D86*
X29055Y48228D02*
D03*
Y81693D02*
D03*
D87*
X34646Y58071D02*
D03*
Y71850D02*
D03*
X16535D02*
D03*
X311024Y139764D02*
D03*
X308543Y163386D02*
D03*
Y129921D02*
D03*
X311024Y190945D02*
D03*
X308543Y214567D02*
D03*
Y181102D02*
D03*
D88*
X16535Y58071D02*
D03*
X311024Y153543D02*
D03*
Y204724D02*
D03*
D89*
X143701Y189961D02*
D03*
X156496D02*
D03*
X197835Y137795D02*
D03*
X287402Y217520D02*
D03*
D90*
X24507Y208563D02*
D03*
Y205216D02*
D03*
Y201870D02*
D03*
Y198523D02*
D03*
Y195177D02*
D03*
Y191830D02*
D03*
Y188484D02*
D03*
Y185137D02*
D03*
X19193D02*
D03*
Y188484D02*
D03*
Y191830D02*
D03*
Y195177D02*
D03*
Y198523D02*
D03*
Y201870D02*
D03*
Y205216D02*
D03*
Y208563D02*
D03*
D91*
X20650Y213878D02*
D03*
Y179822D02*
D03*
D92*
X7342D02*
D03*
Y213878D02*
D03*
D93*
X159449Y222441D02*
D03*
D94*
X149449D02*
D03*
D95*
X212598Y31299D02*
D03*
Y86811D02*
D03*
D96*
X206693Y108268D02*
D03*
X324803D02*
D03*
Y9843D02*
D03*
X206693D02*
D03*
D97*
X156693Y117323D02*
D03*
X134252Y192126D02*
D03*
X75197Y191339D02*
D03*
X81102Y209842D02*
D03*
X83071Y215354D02*
D03*
X78740Y43307D02*
D03*
X82677Y56693D02*
D03*
X139764Y212598D02*
D03*
X142520Y25197D02*
D03*
X134646Y25984D02*
D03*
X44488Y103150D02*
D03*
M02*
