G04*
G04 #@! TF.GenerationSoftware,Altium Limited,Altium Designer,20.0.11 (256)*
G04*
G04 Layer_Color=8388736*
%FSLAX25Y25*%
%MOIN*%
G70*
G01*
G75*
%ADD21C,0.04921*%
%ADD22R,0.03556X0.03162*%
%ADD23R,0.03950X0.03950*%
%ADD24R,0.03950X0.03950*%
%ADD25R,0.04147X0.04147*%
%ADD26R,0.04737X0.04737*%
%ADD27R,0.06312X0.07887*%
%ADD28R,0.04737X0.04737*%
%ADD29O,0.04343X0.07493*%
%ADD30O,0.04343X0.10249*%
%ADD31C,0.03359*%
%ADD32R,0.06706X0.06706*%
%ADD33C,0.06706*%
%ADD34C,0.07493*%
%ADD35R,0.07493X0.07493*%
%ADD36C,0.06800*%
%ADD37C,0.00800*%
%ADD38C,0.09855*%
%ADD39O,0.02965X0.14776*%
%ADD40C,0.16548*%
%ADD41C,0.04343*%
%ADD42R,0.04343X0.04343*%
%ADD43C,0.28359*%
%ADD44C,0.03162*%
D21*
X52658Y-77562D02*
G03*
X6293Y-27122I-59965J-8591D01*
G01*
X348038D02*
G03*
X301673Y-77562I13600J-59031D01*
G01*
X302731Y269036D02*
G03*
X350449Y223475I59362J14404D01*
G01*
X1083Y222933D02*
G03*
X51523Y269298I-8591J59965D01*
G01*
X52803Y-77539D02*
X58731Y-114964D01*
X-36220Y-20167D02*
X4973Y-26744D01*
X349358D02*
X390551Y-20167D01*
X295600Y-114964D02*
X301527Y-77539D01*
X289421Y-114961D02*
X295374D01*
X58597D02*
X289421D01*
X-36319Y216860D02*
X1106Y222787D01*
X295672Y311811D02*
X302534Y268839D01*
X350417Y223443D02*
X369185Y220470D01*
X58478Y311811D02*
X295672D01*
X51900Y270617D02*
X58478Y311811D01*
X369185Y220470D02*
X390551Y217086D01*
X-36319Y216860D02*
X-36319Y-20025D01*
X390551Y217086D02*
X390551Y-20167D01*
D22*
X330709Y134843D02*
D03*
Y130905D02*
D03*
Y151575D02*
D03*
Y147638D02*
D03*
X291339Y171260D02*
D03*
Y175197D02*
D03*
D23*
X336614Y128937D02*
D03*
Y134843D02*
D03*
Y151575D02*
D03*
Y145669D02*
D03*
X284409Y171063D02*
D03*
Y176969D02*
D03*
D24*
X293307Y238189D02*
D03*
X287402D02*
D03*
D25*
X246161Y251969D02*
D03*
X240059D02*
D03*
D26*
X240158Y244094D02*
D03*
D27*
X213583Y269685D02*
D03*
X224410D02*
D03*
D28*
X173228Y271654D02*
D03*
X181102D02*
D03*
X177165Y258858D02*
D03*
D29*
X194193Y307421D02*
D03*
X160137D02*
D03*
D30*
Y294114D02*
D03*
X194193D02*
D03*
D31*
X188878Y295570D02*
D03*
X185531D02*
D03*
X182185D02*
D03*
X178838D02*
D03*
X175492D02*
D03*
X172145D02*
D03*
X168799D02*
D03*
X165452D02*
D03*
Y290256D02*
D03*
X168799D02*
D03*
X172145D02*
D03*
X175492D02*
D03*
X178838D02*
D03*
X182185D02*
D03*
X185531D02*
D03*
X188878D02*
D03*
D32*
X177165Y-87598D02*
D03*
D33*
X167165D02*
D03*
D34*
X316693Y179842D02*
D03*
Y169843D02*
D03*
Y159843D02*
D03*
Y149843D02*
D03*
Y139842D02*
D03*
Y129842D02*
D03*
Y119843D02*
D03*
Y109843D02*
D03*
X306693D02*
D03*
Y119843D02*
D03*
Y129842D02*
D03*
Y139842D02*
D03*
Y149843D02*
D03*
Y159843D02*
D03*
Y169843D02*
D03*
D35*
Y179842D02*
D03*
D36*
X168307Y258858D02*
D03*
D37*
X208661Y-28976D02*
D03*
D38*
X177165Y-63386D02*
D03*
Y220866D02*
D03*
D39*
X145669Y188268D02*
D03*
D40*
X208661Y220866D02*
D03*
D41*
X223425Y190945D02*
D03*
D42*
Y181102D02*
D03*
D43*
X0Y0D02*
D03*
X354331D02*
D03*
X0Y196850D02*
D03*
X354331D02*
D03*
D44*
X240158Y187992D02*
D03*
Y184055D02*
D03*
X294882Y-114075D02*
D03*
X315453Y-45965D02*
D03*
X349114Y-25984D02*
D03*
X300787Y-77658D02*
D03*
X59449Y-113878D02*
D03*
X38878Y-45768D02*
D03*
X5118Y-25984D02*
D03*
X53642Y-77658D02*
D03*
Y274606D02*
D03*
X5118Y222638D02*
D03*
X274606Y-114173D02*
D03*
X254921D02*
D03*
X235236D02*
D03*
X215551D02*
D03*
X195866D02*
D03*
X176181D02*
D03*
X156496D02*
D03*
X136811D02*
D03*
X117126D02*
D03*
X97441D02*
D03*
X77756D02*
D03*
X-35433Y-18701D02*
D03*
Y984D02*
D03*
Y20669D02*
D03*
Y40354D02*
D03*
Y60039D02*
D03*
Y79724D02*
D03*
Y99410D02*
D03*
Y119095D02*
D03*
Y138779D02*
D03*
Y158465D02*
D03*
Y178150D02*
D03*
Y197835D02*
D03*
Y215551D02*
D03*
X38780Y242717D02*
D03*
X60039Y310039D02*
D03*
X275590Y311024D02*
D03*
X255906D02*
D03*
X147638D02*
D03*
X118110D02*
D03*
X88583D02*
D03*
X298228Y291339D02*
D03*
X294980Y311024D02*
D03*
X301181Y270669D02*
D03*
X308071Y252953D02*
D03*
X331693Y229331D02*
D03*
X360039Y220965D02*
D03*
X389764Y215551D02*
D03*
Y197835D02*
D03*
Y178150D02*
D03*
Y158465D02*
D03*
Y138779D02*
D03*
Y119095D02*
D03*
Y99410D02*
D03*
Y79724D02*
D03*
Y60039D02*
D03*
Y40354D02*
D03*
Y20669D02*
D03*
Y984D02*
D03*
Y-18701D02*
D03*
X214469Y278543D02*
D03*
X302165Y-13684D02*
D03*
X377747Y136811D02*
D03*
X383858Y136811D02*
D03*
X266732Y131890D02*
D03*
X256890D02*
D03*
X210630Y150591D02*
D03*
X218504Y145669D02*
D03*
X224410D02*
D03*
X368110Y173228D02*
D03*
X352362Y141732D02*
D03*
X368110Y110236D02*
D03*
X352362Y78740D02*
D03*
X368110Y47244D02*
D03*
X352362Y15748D02*
D03*
X320866Y204724D02*
D03*
X336614Y173228D02*
D03*
Y110236D02*
D03*
X320866Y78740D02*
D03*
X336614Y47244D02*
D03*
X320866Y15748D02*
D03*
X336614Y-15748D02*
D03*
X289370Y78740D02*
D03*
X305118Y47244D02*
D03*
X289370Y15748D02*
D03*
Y-47244D02*
D03*
X273622Y236220D02*
D03*
X257874Y204724D02*
D03*
Y141732D02*
D03*
X273622Y110236D02*
D03*
X257874Y78740D02*
D03*
X273622Y47244D02*
D03*
X257874Y15748D02*
D03*
X273622Y-15748D02*
D03*
X257874Y-47244D02*
D03*
X273622Y-78740D02*
D03*
X242126Y173228D02*
D03*
X226378Y78740D02*
D03*
X242126Y47244D02*
D03*
X226378Y15748D02*
D03*
X242126Y-15748D02*
D03*
X226378Y-47244D02*
D03*
X242126Y-78740D02*
D03*
X194882Y267717D02*
D03*
X210630Y173228D02*
D03*
X194882Y78740D02*
D03*
X210630Y47244D02*
D03*
Y-15748D02*
D03*
X194882Y-47244D02*
D03*
X210630Y-78740D02*
D03*
X163386Y78740D02*
D03*
X179134Y47244D02*
D03*
X163386Y15748D02*
D03*
X179134Y-15748D02*
D03*
X131890Y78740D02*
D03*
X147638Y47244D02*
D03*
X131890Y15748D02*
D03*
Y-47244D02*
D03*
X147638Y-78740D02*
D03*
X116142Y47244D02*
D03*
Y-15748D02*
D03*
X100394Y-47244D02*
D03*
X116142Y-78740D02*
D03*
X68898Y15748D02*
D03*
X84646Y-15748D02*
D03*
X68898Y-47244D02*
D03*
X84646Y-78740D02*
D03*
X21654Y173228D02*
D03*
X5906Y78740D02*
D03*
Y15748D02*
D03*
X21654Y-15748D02*
D03*
X-9843Y173228D02*
D03*
X-25591Y15748D02*
D03*
X-9843Y-15748D02*
D03*
X298228Y260827D02*
D03*
X326772Y208661D02*
D03*
X30906Y135827D02*
D03*
X85630Y1969D02*
D03*
Y12795D02*
D03*
X18701Y72835D02*
D03*
X25591Y70866D02*
D03*
X9843Y76772D02*
D03*
X-984D02*
D03*
X254921Y228346D02*
D03*
X259842Y234252D02*
D03*
X255906Y252953D02*
D03*
X230315Y261811D02*
D03*
X245079Y256890D02*
D03*
X239173Y256890D02*
D03*
X245079Y261811D02*
D03*
X239173D02*
D03*
X340551Y128937D02*
D03*
X326772Y147638D02*
D03*
X295276Y175197D02*
D03*
X293307Y186024D02*
D03*
X308997Y240099D02*
D03*
X312931Y238127D02*
D03*
X326772Y223425D02*
D03*
X302576Y238599D02*
D03*
X306102Y187008D02*
D03*
X292580Y193898D02*
D03*
X288386Y193120D02*
D03*
X286417Y197835D02*
D03*
X298454Y221437D02*
D03*
X295276Y224410D02*
D03*
X315945Y234252D02*
D03*
X254921Y276368D02*
D03*
X245079Y278543D02*
D03*
X278543Y218504D02*
D03*
X277559Y225394D02*
D03*
X259636Y193898D02*
D03*
X266939Y204724D02*
D03*
X288926Y225250D02*
D03*
X270669Y262795D02*
D03*
X305057Y232222D02*
D03*
X292435Y226367D02*
D03*
X295276Y243110D02*
D03*
X285433D02*
D03*
X316929Y213583D02*
D03*
X173228Y-13780D02*
D03*
Y-4921D02*
D03*
X206693Y105315D02*
D03*
Y116142D02*
D03*
X205709Y178150D02*
D03*
X198819Y185039D02*
D03*
X213583D02*
D03*
X321850Y187992D02*
D03*
X310039Y193898D02*
D03*
Y187992D02*
D03*
X337598Y141732D02*
D03*
X204724Y269685D02*
D03*
X210630Y284449D02*
D03*
X177165Y264764D02*
D03*
X173228D02*
D03*
X181102D02*
D03*
X245079Y283465D02*
D03*
X230315Y269685D02*
D03*
X97441Y242126D02*
D03*
X248031Y138779D02*
D03*
X258858Y174213D02*
D03*
X231299Y151575D02*
D03*
X80709Y-5906D02*
D03*
X-2953Y125984D02*
D03*
X15748Y117126D02*
D03*
X25591Y88583D02*
D03*
X34449Y-9843D02*
D03*
X115157Y34449D02*
D03*
X114173Y52165D02*
D03*
Y42323D02*
D03*
X122047Y28543D02*
D03*
X35433Y66929D02*
D03*
X100394Y176181D02*
D03*
Y191929D02*
D03*
Y186024D02*
D03*
Y196850D02*
D03*
X95472Y205709D02*
D03*
Y210630D02*
D03*
X64961Y223425D02*
D03*
X45276Y135827D02*
D03*
X184055Y129921D02*
D03*
X170276D02*
D03*
X45276Y61024D02*
D03*
Y71850D02*
D03*
X51181Y78740D02*
D03*
X33465Y59055D02*
D03*
X192913Y247047D02*
D03*
X228346Y305118D02*
D03*
X165354Y284449D02*
D03*
X173228D02*
D03*
X286221Y212795D02*
D03*
Y208465D02*
D03*
X290551Y212795D02*
D03*
Y208465D02*
D03*
M02*
