G04*
G04 #@! TF.GenerationSoftware,Altium Limited,Altium Designer,20.0.11 (256)*
G04*
G04 Layer_Color=255*
%FSLAX25Y25*%
%MOIN*%
G70*
G01*
G75*
%ADD16R,0.02756X0.02362*%
%ADD17R,0.03150X0.03150*%
%ADD18R,0.03150X0.03150*%
%ADD19R,0.03347X0.03347*%
%ADD20R,0.05512X0.07087*%
%ADD44R,0.03937X0.03937*%
%ADD45C,0.06000*%
%ADD46O,0.03543X0.06693*%
%ADD47O,0.03543X0.09449*%
%ADD48C,0.02559*%
%ADD49R,0.05906X0.05906*%
%ADD50C,0.05906*%
%ADD51C,0.06693*%
%ADD52R,0.06693X0.06693*%
%ADD53C,0.09055*%
%ADD54O,0.02165X0.13976*%
%ADD55C,0.15748*%
%ADD56C,0.03543*%
%ADD57R,0.03543X0.03543*%
%ADD58C,0.27559*%
D16*
X330709Y134843D02*
D03*
Y130905D02*
D03*
Y151575D02*
D03*
Y147638D02*
D03*
X291339Y171260D02*
D03*
Y175197D02*
D03*
D17*
X336614Y128937D02*
D03*
Y134843D02*
D03*
Y151575D02*
D03*
Y145669D02*
D03*
X284409Y171063D02*
D03*
Y176969D02*
D03*
D18*
X293307Y238189D02*
D03*
X287402D02*
D03*
D19*
X246161Y251969D02*
D03*
X240059D02*
D03*
D20*
X213583Y269685D02*
D03*
X224410D02*
D03*
D44*
X177165Y258858D02*
D03*
X167421Y264764D02*
D03*
X186713Y264567D02*
D03*
X240059Y244193D02*
D03*
D45*
X200000Y259744D02*
D03*
D46*
X194193Y307421D02*
D03*
X160137D02*
D03*
D47*
Y294114D02*
D03*
X194193D02*
D03*
D48*
X188878Y295570D02*
D03*
X185531D02*
D03*
X182185D02*
D03*
X178838D02*
D03*
X175492D02*
D03*
X172145D02*
D03*
X168799D02*
D03*
X165452D02*
D03*
Y290256D02*
D03*
X168799D02*
D03*
X172145D02*
D03*
X175492D02*
D03*
X178838D02*
D03*
X182185D02*
D03*
X185531D02*
D03*
X188878D02*
D03*
D49*
X177165Y-87598D02*
D03*
D50*
X167165D02*
D03*
D51*
X316693Y179842D02*
D03*
Y169843D02*
D03*
Y159843D02*
D03*
Y149843D02*
D03*
Y139842D02*
D03*
Y129842D02*
D03*
Y119843D02*
D03*
Y109843D02*
D03*
X306693D02*
D03*
Y119843D02*
D03*
Y129842D02*
D03*
Y139842D02*
D03*
Y149843D02*
D03*
Y159843D02*
D03*
Y169843D02*
D03*
D52*
Y179842D02*
D03*
D53*
X177165Y-63386D02*
D03*
Y220866D02*
D03*
D54*
X145669Y188268D02*
D03*
D55*
X208661Y220866D02*
D03*
D56*
X223425Y190945D02*
D03*
D57*
Y181102D02*
D03*
D58*
X0Y0D02*
D03*
X354331D02*
D03*
X0Y196850D02*
D03*
X354331D02*
D03*
M02*
