G04*
G04 #@! TF.GenerationSoftware,Altium Limited,Altium Designer,20.0.11 (256)*
G04*
G04 Layer_Color=16711935*
%FSLAX25Y25*%
%MOIN*%
G70*
G01*
G75*
%ADD21C,0.04921*%
%ADD22R,0.03556X0.03162*%
%ADD25R,0.04147X0.04147*%
%ADD27R,0.06312X0.07887*%
%ADD29O,0.04343X0.07493*%
%ADD30O,0.04343X0.10249*%
%ADD31C,0.03359*%
%ADD32R,0.06706X0.06706*%
%ADD33C,0.06706*%
%ADD34C,0.07493*%
%ADD35R,0.07493X0.07493*%
%ADD36C,0.06800*%
%ADD37C,0.00800*%
%ADD38C,0.09855*%
%ADD39O,0.02965X0.14776*%
%ADD40C,0.16548*%
%ADD41C,0.04343*%
%ADD42R,0.04343X0.04343*%
%ADD43C,0.28359*%
%ADD44C,0.03162*%
%ADD108R,0.05328X0.06312*%
%ADD109R,0.05131X0.01587*%
%ADD110R,0.07808X0.10052*%
%ADD111R,0.03359X0.05131*%
%ADD112R,0.05288X0.08792*%
%ADD113R,0.04537X0.04143*%
%ADD114R,0.03213X0.04540*%
%ADD115R,0.01981X0.03654*%
%ADD116R,0.03162X0.03556*%
%ADD117R,0.07887X0.06312*%
%ADD118R,0.06312X0.05328*%
%ADD119R,0.02375X0.02769*%
%ADD120R,0.08280X0.05131*%
%ADD121R,0.04143X0.04537*%
%ADD122R,0.05328X0.06312*%
%ADD123R,0.04147X0.04147*%
%ADD124R,0.11824X0.08280*%
%ADD125R,0.01800X0.04147*%
%ADD126R,0.02178X0.06902*%
%ADD127R,0.01587X0.08083*%
%ADD128R,0.03162X0.05328*%
%ADD129R,0.04343X0.07099*%
%ADD130R,0.04343X0.01784*%
%ADD131R,0.08792X0.05288*%
%ADD132R,0.08595X0.16942*%
%ADD133R,0.04383X0.05603*%
%ADD134R,0.05603X0.04383*%
%ADD135R,0.03162X0.04934*%
%ADD136R,0.06863X0.03162*%
G04:AMPARAMS|DCode=137|XSize=68.63mil|YSize=31.62mil|CornerRadius=9.91mil|HoleSize=0mil|Usage=FLASHONLY|Rotation=0.000|XOffset=0mil|YOffset=0mil|HoleType=Round|Shape=RoundedRectangle|*
%AMROUNDEDRECTD137*
21,1,0.06863,0.01181,0,0,0.0*
21,1,0.04882,0.03162,0,0,0.0*
1,1,0.01981,0.02441,-0.00591*
1,1,0.01981,-0.02441,-0.00591*
1,1,0.01981,-0.02441,0.00591*
1,1,0.01981,0.02441,0.00591*
%
%ADD137ROUNDEDRECTD137*%
%ADD138R,0.04343X0.03950*%
%ADD139R,0.03950X0.04343*%
%ADD140R,0.07099X0.07887*%
%ADD141R,0.02178X0.02887*%
%ADD142R,0.04147X0.02887*%
%ADD143R,0.02200X0.03800*%
%ADD144R,0.11430X0.11430*%
%ADD145R,0.03950X0.01981*%
%ADD146R,0.01981X0.03950*%
%ADD147R,0.07099X0.04737*%
%ADD148R,0.01981X0.02572*%
G04:AMPARAMS|DCode=149|XSize=17.84mil|YSize=37.53mil|CornerRadius=6.46mil|HoleSize=0mil|Usage=FLASHONLY|Rotation=270.000|XOffset=0mil|YOffset=0mil|HoleType=Round|Shape=RoundedRectangle|*
%AMROUNDEDRECTD149*
21,1,0.01784,0.02461,0,0,270.0*
21,1,0.00492,0.03753,0,0,270.0*
1,1,0.01292,-0.01230,-0.00246*
1,1,0.01292,-0.01230,0.00246*
1,1,0.01292,0.01230,0.00246*
1,1,0.01292,0.01230,-0.00246*
%
%ADD149ROUNDEDRECTD149*%
G04:AMPARAMS|DCode=150|XSize=17.84mil|YSize=37.53mil|CornerRadius=6.46mil|HoleSize=0mil|Usage=FLASHONLY|Rotation=180.000|XOffset=0mil|YOffset=0mil|HoleType=Round|Shape=RoundedRectangle|*
%AMROUNDEDRECTD150*
21,1,0.01784,0.02461,0,0,180.0*
21,1,0.00492,0.03753,0,0,180.0*
1,1,0.01292,-0.00246,0.01230*
1,1,0.01292,0.00246,0.01230*
1,1,0.01292,0.00246,-0.01230*
1,1,0.01292,-0.00246,-0.01230*
%
%ADD150ROUNDEDRECTD150*%
%ADD151R,0.01784X0.03753*%
%ADD152R,0.09300X0.07800*%
D21*
X52658Y-77562D02*
G03*
X6293Y-27122I-59965J-8591D01*
G01*
X1083Y222933D02*
G03*
X51523Y269298I-8591J59965D01*
G01*
X302731Y269036D02*
G03*
X350449Y223475I59362J14404D01*
G01*
X348038Y-27122D02*
G03*
X301673Y-77562I13600J-59031D01*
G01*
X-36220Y-20167D02*
X4973Y-26744D01*
X52803Y-77539D02*
X58731Y-114964D01*
X390551Y217086D02*
X390551Y-20167D01*
X-36319Y216860D02*
X-36319Y-20025D01*
X369185Y220470D02*
X390551Y217086D01*
X51900Y270617D02*
X58478Y311811D01*
X295672D01*
X350417Y223443D02*
X369185Y220470D01*
X295672Y311811D02*
X302534Y268839D01*
X-36319Y216860D02*
X1106Y222787D01*
X58597Y-114961D02*
X289421D01*
X295374D01*
X295600Y-114964D02*
X301527Y-77539D01*
X349358Y-26744D02*
X390551Y-20167D01*
D22*
X255906Y193898D02*
D03*
Y189961D02*
D03*
X165354Y275590D02*
D03*
Y279528D02*
D03*
X187008Y275590D02*
D03*
Y279528D02*
D03*
X247441Y143701D02*
D03*
Y147638D02*
D03*
X224803Y142717D02*
D03*
Y138779D02*
D03*
X218898Y142717D02*
D03*
Y138779D02*
D03*
X253543Y169882D02*
D03*
Y165945D02*
D03*
X247047Y171260D02*
D03*
Y167323D02*
D03*
X304134Y213583D02*
D03*
Y209646D02*
D03*
X77165Y210630D02*
D03*
Y206693D02*
D03*
X21654Y125000D02*
D03*
Y121063D02*
D03*
X15748D02*
D03*
Y125000D02*
D03*
X21654Y116142D02*
D03*
Y112205D02*
D03*
X25591Y66929D02*
D03*
Y62992D02*
D03*
X58071Y6890D02*
D03*
Y10827D02*
D03*
X35433Y9843D02*
D03*
Y13780D02*
D03*
X55118Y-9843D02*
D03*
Y-13780D02*
D03*
X4921Y143701D02*
D03*
Y147638D02*
D03*
D25*
X116339Y12795D02*
D03*
X110236D02*
D03*
D27*
X259842Y228346D02*
D03*
X249016D02*
D03*
X97441Y248031D02*
D03*
X86614D02*
D03*
X95571Y197244D02*
D03*
X84744D02*
D03*
X95571Y186614D02*
D03*
X84744D02*
D03*
X95571Y175591D02*
D03*
X84744D02*
D03*
X51181Y61024D02*
D03*
X62008D02*
D03*
X51181Y71850D02*
D03*
X62008D02*
D03*
X71850Y61024D02*
D03*
X82677D02*
D03*
X71850Y71850D02*
D03*
X82677D02*
D03*
X61024Y38386D02*
D03*
X50197D02*
D03*
X91535Y12913D02*
D03*
X102362D02*
D03*
X91535Y2087D02*
D03*
X102362D02*
D03*
D29*
X194193Y307421D02*
D03*
X160137D02*
D03*
D30*
Y294114D02*
D03*
X194193D02*
D03*
D31*
X188878Y295570D02*
D03*
X185531D02*
D03*
X182185D02*
D03*
X178838D02*
D03*
X175492D02*
D03*
X172145D02*
D03*
X168799D02*
D03*
X165452D02*
D03*
Y290256D02*
D03*
X168799D02*
D03*
X172145D02*
D03*
X175492D02*
D03*
X178838D02*
D03*
X182185D02*
D03*
X185531D02*
D03*
X188878D02*
D03*
D32*
X177165Y-87598D02*
D03*
D33*
X167165D02*
D03*
D34*
X316693Y179842D02*
D03*
Y169843D02*
D03*
Y159843D02*
D03*
Y149843D02*
D03*
Y139842D02*
D03*
Y129842D02*
D03*
Y119843D02*
D03*
Y109843D02*
D03*
X306693D02*
D03*
Y119843D02*
D03*
Y129842D02*
D03*
Y139842D02*
D03*
Y149843D02*
D03*
Y159843D02*
D03*
Y169843D02*
D03*
D35*
Y179842D02*
D03*
D36*
X168307Y258858D02*
D03*
D37*
X208661Y-28976D02*
D03*
D38*
X177165Y-63386D02*
D03*
Y220866D02*
D03*
D39*
X145669Y188268D02*
D03*
D40*
X208661Y220866D02*
D03*
D41*
X223425Y190945D02*
D03*
D42*
Y181102D02*
D03*
D43*
X0Y0D02*
D03*
X354331D02*
D03*
X0Y196850D02*
D03*
X354331D02*
D03*
D44*
X240158Y187992D02*
D03*
Y184055D02*
D03*
X294882Y-114075D02*
D03*
X315453Y-45965D02*
D03*
X349114Y-25984D02*
D03*
X300787Y-77658D02*
D03*
X59449Y-113878D02*
D03*
X38878Y-45768D02*
D03*
X5118Y-25984D02*
D03*
X53642Y-77658D02*
D03*
Y274606D02*
D03*
X5118Y222638D02*
D03*
X274606Y-114173D02*
D03*
X254921D02*
D03*
X235236D02*
D03*
X215551D02*
D03*
X195866D02*
D03*
X176181D02*
D03*
X156496D02*
D03*
X136811D02*
D03*
X117126D02*
D03*
X97441D02*
D03*
X77756D02*
D03*
X-35433Y-18701D02*
D03*
Y984D02*
D03*
Y20669D02*
D03*
Y40354D02*
D03*
Y60039D02*
D03*
Y79724D02*
D03*
Y99410D02*
D03*
Y119095D02*
D03*
Y138779D02*
D03*
Y158465D02*
D03*
Y178150D02*
D03*
Y197835D02*
D03*
Y215551D02*
D03*
X38780Y242717D02*
D03*
X60039Y310039D02*
D03*
X275590Y311024D02*
D03*
X255906D02*
D03*
X147638D02*
D03*
X118110D02*
D03*
X88583D02*
D03*
X298228Y291339D02*
D03*
X294980Y311024D02*
D03*
X301181Y270669D02*
D03*
X308071Y252953D02*
D03*
X331693Y229331D02*
D03*
X360039Y220965D02*
D03*
X389764Y215551D02*
D03*
Y197835D02*
D03*
Y178150D02*
D03*
Y158465D02*
D03*
Y138779D02*
D03*
Y119095D02*
D03*
Y99410D02*
D03*
Y79724D02*
D03*
Y60039D02*
D03*
Y40354D02*
D03*
Y20669D02*
D03*
Y984D02*
D03*
Y-18701D02*
D03*
X214469Y278543D02*
D03*
X302165Y-13684D02*
D03*
X377747Y136811D02*
D03*
X383858Y136811D02*
D03*
X266732Y131890D02*
D03*
X256890D02*
D03*
X210630Y150591D02*
D03*
X218504Y145669D02*
D03*
X224410D02*
D03*
X368110Y173228D02*
D03*
X352362Y141732D02*
D03*
X368110Y110236D02*
D03*
X352362Y78740D02*
D03*
X368110Y47244D02*
D03*
X352362Y15748D02*
D03*
X320866Y204724D02*
D03*
X336614Y173228D02*
D03*
Y110236D02*
D03*
X320866Y78740D02*
D03*
X336614Y47244D02*
D03*
X320866Y15748D02*
D03*
X336614Y-15748D02*
D03*
X289370Y78740D02*
D03*
X305118Y47244D02*
D03*
X289370Y15748D02*
D03*
Y-47244D02*
D03*
X273622Y236220D02*
D03*
X257874Y204724D02*
D03*
Y141732D02*
D03*
X273622Y110236D02*
D03*
X257874Y78740D02*
D03*
X273622Y47244D02*
D03*
X257874Y15748D02*
D03*
X273622Y-15748D02*
D03*
X257874Y-47244D02*
D03*
X273622Y-78740D02*
D03*
X242126Y173228D02*
D03*
X226378Y78740D02*
D03*
X242126Y47244D02*
D03*
X226378Y15748D02*
D03*
X242126Y-15748D02*
D03*
X226378Y-47244D02*
D03*
X242126Y-78740D02*
D03*
X194882Y267717D02*
D03*
X210630Y173228D02*
D03*
X194882Y78740D02*
D03*
X210630Y47244D02*
D03*
Y-15748D02*
D03*
X194882Y-47244D02*
D03*
X210630Y-78740D02*
D03*
X163386Y78740D02*
D03*
X179134Y47244D02*
D03*
X163386Y15748D02*
D03*
X179134Y-15748D02*
D03*
X131890Y78740D02*
D03*
X147638Y47244D02*
D03*
X131890Y15748D02*
D03*
Y-47244D02*
D03*
X147638Y-78740D02*
D03*
X116142Y47244D02*
D03*
Y-15748D02*
D03*
X100394Y-47244D02*
D03*
X116142Y-78740D02*
D03*
X68898Y15748D02*
D03*
X84646Y-15748D02*
D03*
X68898Y-47244D02*
D03*
X84646Y-78740D02*
D03*
X21654Y173228D02*
D03*
X5906Y78740D02*
D03*
Y15748D02*
D03*
X21654Y-15748D02*
D03*
X-9843Y173228D02*
D03*
X-25591Y15748D02*
D03*
X-9843Y-15748D02*
D03*
X298228Y260827D02*
D03*
X326772Y208661D02*
D03*
X30906Y135827D02*
D03*
X85630Y1969D02*
D03*
Y12795D02*
D03*
X18701Y72835D02*
D03*
X25591Y70866D02*
D03*
X9843Y76772D02*
D03*
X-984D02*
D03*
X254921Y228346D02*
D03*
X259842Y234252D02*
D03*
X255906Y252953D02*
D03*
X230315Y261811D02*
D03*
X245079Y256890D02*
D03*
X239173Y256890D02*
D03*
X245079Y261811D02*
D03*
X239173D02*
D03*
X340551Y128937D02*
D03*
X326772Y147638D02*
D03*
X295276Y175197D02*
D03*
X293307Y186024D02*
D03*
X308997Y240099D02*
D03*
X312931Y238127D02*
D03*
X326772Y223425D02*
D03*
X302576Y238599D02*
D03*
X306102Y187008D02*
D03*
X292580Y193898D02*
D03*
X288386Y193120D02*
D03*
X286417Y197835D02*
D03*
X298454Y221437D02*
D03*
X295276Y224410D02*
D03*
X315945Y234252D02*
D03*
X254921Y276368D02*
D03*
X245079Y278543D02*
D03*
X278543Y218504D02*
D03*
X277559Y225394D02*
D03*
X259636Y193898D02*
D03*
X266939Y204724D02*
D03*
X288926Y225250D02*
D03*
X270669Y262795D02*
D03*
X305057Y232222D02*
D03*
X292435Y226367D02*
D03*
X295276Y243110D02*
D03*
X285433D02*
D03*
X316929Y213583D02*
D03*
X173228Y-13780D02*
D03*
Y-4921D02*
D03*
X206693Y105315D02*
D03*
Y116142D02*
D03*
X205709Y178150D02*
D03*
X198819Y185039D02*
D03*
X213583D02*
D03*
X321850Y187992D02*
D03*
X310039Y193898D02*
D03*
Y187992D02*
D03*
X337598Y141732D02*
D03*
X204724Y269685D02*
D03*
X210630Y284449D02*
D03*
X177165Y264764D02*
D03*
X173228D02*
D03*
X181102D02*
D03*
X245079Y283465D02*
D03*
X230315Y269685D02*
D03*
X97441Y242126D02*
D03*
X248031Y138779D02*
D03*
X258858Y174213D02*
D03*
X231299Y151575D02*
D03*
X80709Y-5906D02*
D03*
X-2953Y125984D02*
D03*
X15748Y117126D02*
D03*
X25591Y88583D02*
D03*
X34449Y-9843D02*
D03*
X115157Y34449D02*
D03*
X114173Y52165D02*
D03*
Y42323D02*
D03*
X122047Y28543D02*
D03*
X35433Y66929D02*
D03*
X100394Y176181D02*
D03*
Y191929D02*
D03*
Y186024D02*
D03*
Y196850D02*
D03*
X95472Y205709D02*
D03*
Y210630D02*
D03*
X64961Y223425D02*
D03*
X45276Y135827D02*
D03*
X184055Y129921D02*
D03*
X170276D02*
D03*
X45276Y61024D02*
D03*
Y71850D02*
D03*
X51181Y78740D02*
D03*
X33465Y59055D02*
D03*
X192913Y247047D02*
D03*
X228346Y305118D02*
D03*
X165354Y284449D02*
D03*
X173228D02*
D03*
X286221Y212795D02*
D03*
Y208465D02*
D03*
X290551Y212795D02*
D03*
Y208465D02*
D03*
D108*
X235827Y200787D02*
D03*
X245079D02*
D03*
X166339Y247047D02*
D03*
X157087D02*
D03*
D109*
X233563Y181299D02*
D03*
Y182874D02*
D03*
Y184449D02*
D03*
Y186024D02*
D03*
Y187598D02*
D03*
Y189173D02*
D03*
Y190748D02*
D03*
X246752D02*
D03*
Y189173D02*
D03*
Y187598D02*
D03*
Y186024D02*
D03*
Y184449D02*
D03*
Y182874D02*
D03*
Y181299D02*
D03*
D110*
X240158Y186024D02*
D03*
D111*
X173406Y269996D02*
D03*
X177146D02*
D03*
X180886D02*
D03*
Y279445D02*
D03*
X177146D02*
D03*
X173406D02*
D03*
X153543Y-50787D02*
D03*
X157283D02*
D03*
X161024D02*
D03*
Y-41339D02*
D03*
X157283D02*
D03*
X153543D02*
D03*
D112*
X214213Y300197D02*
D03*
X203740D02*
D03*
X187638Y200787D02*
D03*
X177165D02*
D03*
D113*
X223425Y305512D02*
D03*
Y300197D02*
D03*
X312008Y213976D02*
D03*
Y208661D02*
D03*
X19685Y136811D02*
D03*
Y142126D02*
D03*
X42323Y78347D02*
D03*
Y83661D02*
D03*
X18701Y68307D02*
D03*
Y62992D02*
D03*
D114*
X333400Y150197D02*
D03*
X337073D02*
D03*
X266600Y169882D02*
D03*
X262927D02*
D03*
D115*
X337795Y154528D02*
D03*
X335236D02*
D03*
X332677D02*
D03*
Y145866D02*
D03*
X335236D02*
D03*
X337795D02*
D03*
X262205Y165551D02*
D03*
X264764D02*
D03*
X267323D02*
D03*
Y174213D02*
D03*
X264764D02*
D03*
X262205D02*
D03*
D116*
X337598Y160433D02*
D03*
X333661D02*
D03*
X335236Y136417D02*
D03*
X339173D02*
D03*
X232283Y156496D02*
D03*
X236221D02*
D03*
X244094Y156496D02*
D03*
X248031D02*
D03*
X264764Y181102D02*
D03*
X260827D02*
D03*
X248031Y273622D02*
D03*
X251969D02*
D03*
X92520Y239173D02*
D03*
X88583D02*
D03*
X92520Y233268D02*
D03*
X88583D02*
D03*
X92126Y210630D02*
D03*
X88189D02*
D03*
X92126Y205512D02*
D03*
X88189D02*
D03*
X8858Y118110D02*
D03*
X4921D02*
D03*
X31496Y147638D02*
D03*
X35433D02*
D03*
X153543Y-57087D02*
D03*
X157480D02*
D03*
X161417Y-33465D02*
D03*
X157480D02*
D03*
X266732Y214567D02*
D03*
X270669D02*
D03*
Y208661D02*
D03*
X266732D02*
D03*
D117*
X257283Y136811D02*
D03*
Y147638D02*
D03*
X267126Y136811D02*
D03*
Y147638D02*
D03*
X170276Y134843D02*
D03*
Y145669D02*
D03*
X184055Y134843D02*
D03*
Y145669D02*
D03*
X211024Y145669D02*
D03*
Y134843D02*
D03*
X199803Y247047D02*
D03*
Y236221D02*
D03*
X45276Y140748D02*
D03*
Y129921D02*
D03*
X-984Y70866D02*
D03*
Y60039D02*
D03*
X9843Y70866D02*
D03*
Y60039D02*
D03*
D118*
X196850Y144095D02*
D03*
Y134843D02*
D03*
D119*
X238779Y138779D02*
D03*
X236221D02*
D03*
X233661D02*
D03*
X231102D02*
D03*
Y147441D02*
D03*
X233661D02*
D03*
X236221D02*
D03*
X238779D02*
D03*
D120*
X234941Y143110D02*
D03*
D121*
X226289Y260827D02*
D03*
X220974D02*
D03*
X219094Y278543D02*
D03*
X224410D02*
D03*
X30118Y124016D02*
D03*
X35433D02*
D03*
X30118Y117126D02*
D03*
X35433D02*
D03*
X115551Y5906D02*
D03*
X110236D02*
D03*
D122*
X217520Y269685D02*
D03*
X210630D02*
D03*
X35433Y155512D02*
D03*
X28543D02*
D03*
X102362Y52284D02*
D03*
X109252D02*
D03*
X102362Y42441D02*
D03*
X109252D02*
D03*
D123*
X259449Y268898D02*
D03*
Y262795D02*
D03*
X266142D02*
D03*
Y268898D02*
D03*
X266732Y247047D02*
D03*
Y253150D02*
D03*
X274606Y247047D02*
D03*
Y253150D02*
D03*
X69685Y223031D02*
D03*
Y216929D02*
D03*
Y210433D02*
D03*
Y204331D02*
D03*
X35433Y83858D02*
D03*
Y77756D02*
D03*
X25591Y83661D02*
D03*
Y77559D02*
D03*
X18701D02*
D03*
Y83661D02*
D03*
X117126Y28858D02*
D03*
Y22756D02*
D03*
X157480Y-63976D02*
D03*
Y-70079D02*
D03*
D124*
X218504Y251969D02*
D03*
Y235827D02*
D03*
X110236Y228543D02*
D03*
Y212402D02*
D03*
D125*
X87402Y224803D02*
D03*
X89370D02*
D03*
X91339D02*
D03*
X93307D02*
D03*
D126*
X92520Y217520D02*
D03*
X88189D02*
D03*
D127*
X90354Y218110D02*
D03*
D128*
X8661Y125984D02*
D03*
X1181D02*
D03*
X4921Y134843D02*
D03*
D129*
X30906Y135827D02*
D03*
D130*
X26378Y138779D02*
D03*
Y136811D02*
D03*
Y134843D02*
D03*
Y132874D02*
D03*
X35433D02*
D03*
Y134843D02*
D03*
Y136811D02*
D03*
Y138779D02*
D03*
D131*
X-15748Y60039D02*
D03*
Y70512D02*
D03*
D132*
X28071Y49213D02*
D03*
X41339D02*
D03*
D133*
X50079D02*
D03*
X62992D02*
D03*
D134*
X71850Y52284D02*
D03*
Y39370D02*
D03*
X82677Y39252D02*
D03*
Y52165D02*
D03*
D135*
X102559Y22559D02*
D03*
X110039D02*
D03*
Y31614D02*
D03*
X106299D02*
D03*
X102559D02*
D03*
D136*
X80709Y-19685D02*
D03*
D137*
Y-9685D02*
D03*
X102362Y-19685D02*
D03*
Y-9685D02*
D03*
D138*
X43307Y6890D02*
D03*
Y13976D02*
D03*
X51181Y10433D02*
D03*
D139*
X43307Y-1969D02*
D03*
X39764Y-9843D02*
D03*
X46850D02*
D03*
D140*
X175197Y-46260D02*
D03*
D141*
X173721Y-40807D02*
D03*
Y-51713D02*
D03*
D142*
X176673Y-40807D02*
D03*
Y-51713D02*
D03*
D143*
X285276Y231299D02*
D03*
X287276D02*
D03*
X289276D02*
D03*
X291276D02*
D03*
X293276D02*
D03*
X295276D02*
D03*
X297276D02*
D03*
X299276D02*
D03*
Y238599D02*
D03*
X297276D02*
D03*
X295276D02*
D03*
X293276D02*
D03*
X291276D02*
D03*
X289276D02*
D03*
X287276D02*
D03*
X285276D02*
D03*
D144*
X288386Y210630D02*
D03*
X242126Y259842D02*
D03*
D145*
X296260Y206693D02*
D03*
Y208661D02*
D03*
Y210630D02*
D03*
Y212598D02*
D03*
Y214567D02*
D03*
X280512D02*
D03*
Y212598D02*
D03*
Y210630D02*
D03*
Y208661D02*
D03*
Y206693D02*
D03*
D146*
X292323Y218504D02*
D03*
X290354D02*
D03*
X288386D02*
D03*
X286417D02*
D03*
X284449D02*
D03*
Y202756D02*
D03*
X286417D02*
D03*
X288386D02*
D03*
X290354D02*
D03*
X292323D02*
D03*
D147*
X35433Y66929D02*
D03*
D148*
X32874Y63090D02*
D03*
X35433D02*
D03*
X37992D02*
D03*
Y70768D02*
D03*
X35433D02*
D03*
X32874D02*
D03*
D149*
X234252Y264764D02*
D03*
Y262795D02*
D03*
Y260827D02*
D03*
Y258858D02*
D03*
Y256890D02*
D03*
Y254921D02*
D03*
X250000D02*
D03*
Y256890D02*
D03*
Y258858D02*
D03*
Y260827D02*
D03*
Y262795D02*
D03*
Y264764D02*
D03*
D150*
X237205Y251969D02*
D03*
X239173D02*
D03*
X241142D02*
D03*
X243110D02*
D03*
X245079D02*
D03*
X247047D02*
D03*
Y267717D02*
D03*
X245079D02*
D03*
X243110D02*
D03*
X241142D02*
D03*
X239173D02*
D03*
D151*
X237205D02*
D03*
D152*
X205709Y184787D02*
D03*
Y200787D02*
D03*
M02*
