G04*
G04 #@! TF.GenerationSoftware,Altium Limited,Altium Designer,20.0.11 (256)*
G04*
G04 Layer_Color=8388736*
%FSLAX25Y25*%
%MOIN*%
G70*
G01*
G75*
%ADD155C,0.00394*%
D155*
X239567Y183465D02*
G03*
X239567Y183465I-1969J0D01*
G01*
X337894Y149114D02*
G03*
X337894Y149114I-1575J0D01*
G01*
X239469Y140945D02*
G03*
X239469Y140945I-1969J0D01*
G01*
X265256Y170965D02*
G03*
X265256Y170965I-1575J0D01*
G01*
X33465Y136811D02*
G03*
X33465Y136811I-1575J0D01*
G01*
X177756Y-49213D02*
G03*
X177756Y-49213I-1575J0D01*
G01*
X294685Y206299D02*
G03*
X294685Y206299I-1969J0D01*
G01*
X36024Y67913D02*
G03*
X36024Y67913I-1575J0D01*
G01*
X239567Y264370D02*
G03*
X239567Y264370I-1969J0D01*
G01*
X234055Y179921D02*
Y192126D01*
X246260Y179921D02*
Y192126D01*
X234055Y179921D02*
X246260D01*
X234055Y192126D02*
X246260D01*
X331004Y145965D02*
Y154429D01*
X339469Y145965D02*
Y154429D01*
X331004D02*
X339469D01*
X331004Y145965D02*
X339469D01*
X228839Y137402D02*
X241043D01*
X228839Y148819D02*
X241043D01*
Y137402D02*
Y148819D01*
X228839Y137402D02*
Y148819D01*
X268996Y165650D02*
Y174114D01*
X260531Y165650D02*
Y174114D01*
Y165650D02*
X268996D01*
X260531Y174114D02*
X268996D01*
X26772Y131693D02*
X35039D01*
X26772Y139961D02*
X35039D01*
X26772Y131693D02*
Y139961D01*
X35039Y131693D02*
Y139961D01*
X171260Y-52362D02*
Y-40354D01*
X179331Y-52362D02*
Y-40354D01*
X171260D02*
X179331D01*
X171260Y-52362D02*
X179331D01*
X280512Y202756D02*
Y218504D01*
X296260Y202756D02*
Y218504D01*
X280512D02*
X296260D01*
X280512Y202756D02*
X296260D01*
X39567Y62795D02*
Y71063D01*
X31299Y62795D02*
Y71063D01*
Y62795D02*
X39567D01*
X31299Y71063D02*
X39567D01*
X250197Y251772D02*
Y267913D01*
X234055Y251772D02*
Y267913D01*
Y251772D02*
X250197D01*
X234055Y267913D02*
X250197D01*
M02*
