G04*
G04 #@! TF.GenerationSoftware,Altium Limited,Altium Designer,20.0.11 (256)*
G04*
G04 Layer_Color=32896*
%FSLAX25Y25*%
%MOIN*%
G70*
G01*
G75*
%ADD11C,0.00591*%
%ADD12C,0.00787*%
%ADD13C,0.01000*%
%ADD151C,0.00984*%
%ADD152C,0.00600*%
D11*
X149605Y-49607D02*
Y-52231D01*
X149080Y-52755D01*
X148031D01*
X147506Y-52231D01*
Y-49607D01*
X146456Y-52755D02*
X145407D01*
X145932D01*
Y-49607D01*
X146456Y-50132D01*
X143833D02*
X143308Y-49607D01*
X142258D01*
X141734Y-50132D01*
Y-52231D01*
X142258Y-52755D01*
X143308D01*
X143833Y-52231D01*
Y-50132D01*
X173489Y-34055D02*
Y-30906D01*
X171915D01*
X171390Y-31431D01*
Y-32480D01*
X171915Y-33005D01*
X173489D01*
X172440D02*
X171390Y-34055D01*
X168767D02*
Y-30906D01*
X170341Y-32480D01*
X168242D01*
X165093Y-34055D02*
X167192D01*
X165093Y-31956D01*
Y-31431D01*
X165618Y-30906D01*
X166667D01*
X167192Y-31431D01*
X163976Y-63256D02*
X160827D01*
Y-64830D01*
X161352Y-65355D01*
X162402D01*
X162926Y-64830D01*
Y-63256D01*
Y-64305D02*
X163976Y-65355D01*
Y-67979D02*
X160827D01*
X162402Y-66404D01*
Y-68503D01*
X163976Y-69553D02*
Y-70603D01*
Y-70078D01*
X160827D01*
X161352Y-69553D01*
X185564Y-42388D02*
Y-40289D01*
X186089Y-39764D01*
X187138D01*
X187663Y-40289D01*
Y-42388D01*
X187138Y-42913D01*
X186089D01*
X186614Y-41863D02*
X185564Y-42913D01*
X186089D02*
X185564Y-42388D01*
X182415Y-39764D02*
X183465Y-40289D01*
X184515Y-41339D01*
Y-42388D01*
X183990Y-42913D01*
X182940D01*
X182415Y-42388D01*
Y-41863D01*
X182940Y-41339D01*
X184515D01*
X165944Y-56037D02*
X166469Y-55512D01*
X167519D01*
X168043Y-56037D01*
Y-58136D01*
X167519Y-58661D01*
X166469D01*
X165944Y-58136D01*
X162796Y-55512D02*
X164895D01*
Y-57087D01*
X163845Y-56562D01*
X163321D01*
X162796Y-57087D01*
Y-58136D01*
X163321Y-58661D01*
X164370D01*
X164895Y-58136D01*
X161746Y-58661D02*
X160697D01*
X161222D01*
Y-55512D01*
X161746Y-56037D01*
X28214Y147244D02*
Y144620D01*
X27690Y144095D01*
X26640D01*
X26115Y144620D01*
Y147244D01*
X25066Y144620D02*
X24541Y144095D01*
X23492D01*
X22967Y144620D01*
Y146719D01*
X23492Y147244D01*
X24541D01*
X25066Y146719D01*
Y146194D01*
X24541Y145669D01*
X22967D01*
X232939Y133464D02*
Y130840D01*
X232414Y130315D01*
X231364D01*
X230840Y130840D01*
Y133464D01*
X229790Y132939D02*
X229265Y133464D01*
X228216D01*
X227691Y132939D01*
Y132414D01*
X228216Y131890D01*
X227691Y131365D01*
Y130840D01*
X228216Y130315D01*
X229265D01*
X229790Y130840D01*
Y131365D01*
X229265Y131890D01*
X229790Y132414D01*
Y132939D01*
X229265Y131890D02*
X228216D01*
X85301Y228937D02*
Y226313D01*
X84776Y225788D01*
X83727D01*
X83202Y226313D01*
Y228937D01*
X82152D02*
X80053D01*
Y228412D01*
X82152Y226313D01*
Y225788D01*
X235892Y175787D02*
Y173163D01*
X235367Y172638D01*
X234317D01*
X233792Y173163D01*
Y175787D01*
X230644D02*
X231693Y175262D01*
X232743Y174213D01*
Y173163D01*
X232218Y172638D01*
X231169D01*
X230644Y173163D01*
Y173688D01*
X231169Y174213D01*
X232743D01*
X299437Y228028D02*
Y225404D01*
X298912Y224880D01*
X297863D01*
X297338Y225404D01*
Y228028D01*
X294189D02*
X296288D01*
Y226454D01*
X295239Y226979D01*
X294714D01*
X294189Y226454D01*
Y225404D01*
X294714Y224880D01*
X295764D01*
X296288Y225404D01*
X83333Y-24016D02*
Y-26640D01*
X82808Y-27165D01*
X81758D01*
X81233Y-26640D01*
Y-24016D01*
X78610Y-27165D02*
Y-24016D01*
X80184Y-25591D01*
X78085D01*
X98096Y24212D02*
Y21588D01*
X97571Y21064D01*
X96522D01*
X95997Y21588D01*
Y24212D01*
X94948Y23687D02*
X94423Y24212D01*
X93373D01*
X92849Y23687D01*
Y23163D01*
X93373Y22638D01*
X93898D01*
X93373D01*
X92849Y22113D01*
Y21588D01*
X93373Y21064D01*
X94423D01*
X94948Y21588D01*
X42637Y80428D02*
Y77804D01*
X42112Y77280D01*
X41063D01*
X40538Y77804D01*
Y80428D01*
X37389Y77280D02*
X39488D01*
X37389Y79379D01*
Y79903D01*
X37914Y80428D01*
X38964D01*
X39488Y79903D01*
X253237Y277828D02*
Y275204D01*
X252712Y274679D01*
X251663D01*
X251138Y275204D01*
Y277828D01*
X250088Y274679D02*
X249039D01*
X249564D01*
Y277828D01*
X250088Y277303D01*
X17322Y118371D02*
X14174D01*
Y116797D01*
X14698Y116272D01*
X15748D01*
X16273Y116797D01*
Y118371D01*
Y117322D02*
X17322Y116272D01*
Y113648D02*
X14174D01*
X15748Y115223D01*
Y113124D01*
X14698Y112074D02*
X14174Y111549D01*
Y110500D01*
X14698Y109975D01*
X16798D01*
X17322Y110500D01*
Y111549D01*
X16798Y112074D01*
X14698D01*
X11088Y112599D02*
Y115747D01*
X9514D01*
X8989Y115223D01*
Y114173D01*
X9514Y113648D01*
X11088D01*
X10038D02*
X8989Y112599D01*
X7939Y115223D02*
X7414Y115747D01*
X6365D01*
X5840Y115223D01*
Y114698D01*
X6365Y114173D01*
X6890D01*
X6365D01*
X5840Y113648D01*
Y113124D01*
X6365Y112599D01*
X7414D01*
X7939Y113124D01*
X4791D02*
X4266Y112599D01*
X3216D01*
X2692Y113124D01*
Y115223D01*
X3216Y115747D01*
X4266D01*
X4791Y115223D01*
Y114698D01*
X4266Y114173D01*
X2692D01*
X25852Y127363D02*
Y130511D01*
X24277D01*
X23753Y129987D01*
Y128937D01*
X24277Y128412D01*
X25852D01*
X24802D02*
X23753Y127363D01*
X22703Y129987D02*
X22178Y130511D01*
X21129D01*
X20604Y129987D01*
Y129462D01*
X21129Y128937D01*
X21654D01*
X21129D01*
X20604Y128412D01*
Y127887D01*
X21129Y127363D01*
X22178D01*
X22703Y127887D01*
X19555Y129987D02*
X19030Y130511D01*
X17980D01*
X17455Y129987D01*
Y129462D01*
X17980Y128937D01*
X17455Y128412D01*
Y127887D01*
X17980Y127363D01*
X19030D01*
X19555Y127887D01*
Y128412D01*
X19030Y128937D01*
X19555Y129462D01*
Y129987D01*
X19030Y128937D02*
X17980D01*
X1574Y149867D02*
X-1574D01*
Y148293D01*
X-1049Y147768D01*
X-0D01*
X525Y148293D01*
Y149867D01*
Y148818D02*
X1574Y147768D01*
X-1049Y146719D02*
X-1574Y146194D01*
Y145144D01*
X-1049Y144620D01*
X-525D01*
X-0Y145144D01*
Y145669D01*
Y145144D01*
X525Y144620D01*
X1049D01*
X1574Y145144D01*
Y146194D01*
X1049Y146719D01*
X-1574Y143570D02*
Y141471D01*
X-1049D01*
X1049Y143570D01*
X1574D01*
X23228Y109513D02*
X20079D01*
Y107939D01*
X20604Y107414D01*
X21654D01*
X22178Y107939D01*
Y109513D01*
Y108464D02*
X23228Y107414D01*
X20604Y106365D02*
X20079Y105840D01*
Y104790D01*
X20604Y104265D01*
X21129D01*
X21654Y104790D01*
Y105315D01*
Y104790D01*
X22178Y104265D01*
X22703D01*
X23228Y104790D01*
Y105840D01*
X22703Y106365D01*
X20079Y101117D02*
X20604Y102166D01*
X21654Y103216D01*
X22703D01*
X23228Y102691D01*
Y101642D01*
X22703Y101117D01*
X22178D01*
X21654Y101642D01*
Y103216D01*
X275852Y179528D02*
Y182677D01*
X274277D01*
X273753Y182152D01*
Y181102D01*
X274277Y180578D01*
X275852D01*
X274802D02*
X273753Y179528D01*
X272703Y182152D02*
X272178Y182677D01*
X271129D01*
X270604Y182152D01*
Y181627D01*
X271129Y181102D01*
X271654D01*
X271129D01*
X270604Y180578D01*
Y180053D01*
X271129Y179528D01*
X272178D01*
X272703Y180053D01*
X267455Y179528D02*
X269554D01*
X267455Y181627D01*
Y182152D01*
X267980Y182677D01*
X269030D01*
X269554Y182152D01*
X237925Y159843D02*
Y162992D01*
X236351D01*
X235826Y162467D01*
Y161417D01*
X236351Y160893D01*
X237925D01*
X236876D02*
X235826Y159843D01*
X234777Y162467D02*
X234252Y162992D01*
X233202D01*
X232678Y162467D01*
Y161942D01*
X233202Y161417D01*
X233727D01*
X233202D01*
X232678Y160893D01*
Y160368D01*
X233202Y159843D01*
X234252D01*
X234777Y160368D01*
X231628Y159843D02*
X230579D01*
X231103D01*
Y162992D01*
X231628Y162467D01*
X243700Y173489D02*
X240552D01*
Y171915D01*
X241076Y171390D01*
X242126D01*
X242651Y171915D01*
Y173489D01*
Y172440D02*
X243700Y171390D01*
X241076Y170341D02*
X240552Y169816D01*
Y168767D01*
X241076Y168242D01*
X241601D01*
X242126Y168767D01*
Y169291D01*
Y168767D01*
X242651Y168242D01*
X243176D01*
X243700Y168767D01*
Y169816D01*
X243176Y170341D01*
X241076Y167192D02*
X240552Y166667D01*
Y165618D01*
X241076Y165093D01*
X243176D01*
X243700Y165618D01*
Y166667D01*
X243176Y167192D01*
X241076D01*
X254527Y181363D02*
X251378D01*
Y179789D01*
X251903Y179264D01*
X252953D01*
X253478Y179789D01*
Y181363D01*
Y180314D02*
X254527Y179264D01*
Y176116D02*
Y178215D01*
X252428Y176116D01*
X251903D01*
X251378Y176641D01*
Y177690D01*
X251903Y178215D01*
X254002Y175066D02*
X254527Y174541D01*
Y173492D01*
X254002Y172967D01*
X251903D01*
X251378Y173492D01*
Y174541D01*
X251903Y175066D01*
X252428D01*
X252953Y174541D01*
Y172967D01*
X250261Y159843D02*
Y162992D01*
X248687D01*
X248162Y162467D01*
Y161417D01*
X248687Y160893D01*
X250261D01*
X249212D02*
X248162Y159843D01*
X245013D02*
X247112D01*
X245013Y161942D01*
Y162467D01*
X245538Y162992D01*
X246588D01*
X247112Y162467D01*
X243964D02*
X243439Y162992D01*
X242390D01*
X241865Y162467D01*
Y161942D01*
X242390Y161417D01*
X241865Y160893D01*
Y160368D01*
X242390Y159843D01*
X243439D01*
X243964Y160368D01*
Y160893D01*
X243439Y161417D01*
X243964Y161942D01*
Y162467D01*
X243439Y161417D02*
X242390D01*
X198425Y158726D02*
X195276D01*
Y157151D01*
X195801Y156627D01*
X196850D01*
X197375Y157151D01*
Y158726D01*
Y157676D02*
X198425Y156627D01*
Y153478D02*
Y155577D01*
X196326Y153478D01*
X195801D01*
X195276Y154003D01*
Y155052D01*
X195801Y155577D01*
X195276Y152428D02*
Y150329D01*
X195801D01*
X197900Y152428D01*
X198425D01*
X351639Y135237D02*
Y138385D01*
X350065D01*
X349540Y137861D01*
Y136811D01*
X350065Y136286D01*
X351639D01*
X350589D02*
X349540Y135237D01*
X346391D02*
X348491D01*
X346391Y137336D01*
Y137861D01*
X346916Y138385D01*
X347966D01*
X348491Y137861D01*
X343243Y138385D02*
X344292Y137861D01*
X345342Y136811D01*
Y135761D01*
X344817Y135237D01*
X343768D01*
X343243Y135761D01*
Y136286D01*
X343768Y136811D01*
X345342D01*
X66535Y223686D02*
X63386D01*
Y222112D01*
X63911Y221587D01*
X64961D01*
X65485Y222112D01*
Y223686D01*
Y222637D02*
X66535Y221587D01*
Y218439D02*
Y220538D01*
X64436Y218439D01*
X63911D01*
X63386Y218963D01*
Y220013D01*
X63911Y220538D01*
X63386Y215290D02*
Y217389D01*
X64961D01*
X64436Y216340D01*
Y215815D01*
X64961Y215290D01*
X66010D01*
X66535Y215815D01*
Y216864D01*
X66010Y217389D01*
X349671Y158859D02*
Y162007D01*
X348096D01*
X347571Y161483D01*
Y160433D01*
X348096Y159908D01*
X349671D01*
X348621D02*
X347571Y158859D01*
X344423D02*
X346522D01*
X344423Y160958D01*
Y161483D01*
X344948Y162007D01*
X345997D01*
X346522Y161483D01*
X343373D02*
X342849Y162007D01*
X341799D01*
X341274Y161483D01*
Y160958D01*
X341799Y160433D01*
X342324D01*
X341799D01*
X341274Y159908D01*
Y159383D01*
X341799Y158859D01*
X342849D01*
X343373Y159383D01*
X66535Y211875D02*
X63386D01*
Y210301D01*
X63911Y209776D01*
X64961D01*
X65485Y210301D01*
Y211875D01*
Y210826D02*
X66535Y209776D01*
Y206628D02*
Y208727D01*
X64436Y206628D01*
X63911D01*
X63386Y207152D01*
Y208202D01*
X63911Y208727D01*
X66535Y203479D02*
Y205578D01*
X64436Y203479D01*
X63911D01*
X63386Y204004D01*
Y205053D01*
X63911Y205578D01*
X152295Y245473D02*
Y248622D01*
X150721D01*
X150196Y248097D01*
Y247047D01*
X150721Y246522D01*
X152295D01*
X151246D02*
X150196Y245473D01*
X147048D02*
X149147D01*
X147048Y247572D01*
Y248097D01*
X147573Y248622D01*
X148622D01*
X149147Y248097D01*
X145998Y245473D02*
X144949D01*
X145474D01*
Y248622D01*
X145998Y248097D01*
X244356Y206103D02*
Y209251D01*
X242781D01*
X242256Y208727D01*
Y207677D01*
X242781Y207152D01*
X244356D01*
X243306D02*
X242256Y206103D01*
X239108D02*
X241207D01*
X239108Y208202D01*
Y208727D01*
X239633Y209251D01*
X240682D01*
X241207Y208727D01*
X238058D02*
X237534Y209251D01*
X236484D01*
X235959Y208727D01*
Y206628D01*
X236484Y206103D01*
X237534D01*
X238058Y206628D01*
Y208727D01*
X271637Y213080D02*
Y216228D01*
X270063D01*
X269538Y215703D01*
Y214654D01*
X270063Y214129D01*
X271637D01*
X270587D02*
X269538Y213080D01*
X268488D02*
X267439D01*
X267964D01*
Y216228D01*
X268488Y215703D01*
X265865Y213604D02*
X265340Y213080D01*
X264290D01*
X263766Y213604D01*
Y215703D01*
X264290Y216228D01*
X265340D01*
X265865Y215703D01*
Y215179D01*
X265340Y214654D01*
X263766D01*
X299937Y243079D02*
Y246228D01*
X298363D01*
X297838Y245703D01*
Y244654D01*
X298363Y244129D01*
X299937D01*
X298887D02*
X297838Y243079D01*
X296788D02*
X295739D01*
X296264D01*
Y246228D01*
X296788Y245703D01*
X294165D02*
X293640Y246228D01*
X292590D01*
X292066Y245703D01*
Y245179D01*
X292590Y244654D01*
X292066Y244129D01*
Y243604D01*
X292590Y243079D01*
X293640D01*
X294165Y243604D01*
Y244129D01*
X293640Y244654D01*
X294165Y245179D01*
Y245703D01*
X293640Y244654D02*
X292590D01*
X271637Y218980D02*
Y222128D01*
X270063D01*
X269538Y221603D01*
Y220554D01*
X270063Y220029D01*
X271637D01*
X270587D02*
X269538Y218980D01*
X268488D02*
X267439D01*
X267964D01*
Y222128D01*
X268488Y221603D01*
X265865Y222128D02*
X263766D01*
Y221603D01*
X265865Y219504D01*
Y218980D01*
X123621Y29526D02*
X120473D01*
Y27952D01*
X120998Y27427D01*
X122047D01*
X122572Y27952D01*
Y29526D01*
Y28477D02*
X123621Y27427D01*
Y26378D02*
Y25328D01*
Y25853D01*
X120473D01*
X120998Y26378D01*
X120473Y21655D02*
X120998Y22704D01*
X122047Y23754D01*
X123097D01*
X123621Y23229D01*
Y22180D01*
X123097Y21655D01*
X122572D01*
X122047Y22180D01*
Y23754D01*
X127952Y11221D02*
Y14370D01*
X126377D01*
X125852Y13845D01*
Y12795D01*
X126377Y12270D01*
X127952D01*
X126902D02*
X125852Y11221D01*
X124803D02*
X123753D01*
X124278D01*
Y14370D01*
X124803Y13845D01*
X120080Y14370D02*
X122179D01*
Y12795D01*
X121130Y13320D01*
X120605D01*
X120080Y12795D01*
Y11746D01*
X120605Y11221D01*
X121654D01*
X122179Y11746D01*
X64566Y12794D02*
X61418D01*
Y11220D01*
X61943Y10695D01*
X62992D01*
X63517Y11220D01*
Y12794D01*
Y11744D02*
X64566Y10695D01*
Y9645D02*
Y8596D01*
Y9121D01*
X61418D01*
X61943Y9645D01*
X64566Y5447D02*
X61418D01*
X62992Y7022D01*
Y4922D01*
X61614Y-7875D02*
X58465D01*
Y-9450D01*
X58990Y-9974D01*
X60039D01*
X60564Y-9450D01*
Y-7875D01*
Y-8925D02*
X61614Y-9974D01*
Y-11024D02*
Y-12073D01*
Y-11549D01*
X58465D01*
X58990Y-11024D01*
Y-13648D02*
X58465Y-14173D01*
Y-15222D01*
X58990Y-15747D01*
X59515D01*
X60039Y-15222D01*
Y-14697D01*
Y-15222D01*
X60564Y-15747D01*
X61089D01*
X61614Y-15222D01*
Y-14173D01*
X61089Y-13648D01*
X37007Y95471D02*
X33859D01*
Y93897D01*
X34383Y93372D01*
X35433D01*
X35958Y93897D01*
Y95471D01*
Y94422D02*
X37007Y93372D01*
Y92323D02*
Y91273D01*
Y91798D01*
X33859D01*
X34383Y92323D01*
X37007Y87600D02*
Y89699D01*
X34908Y87600D01*
X34383D01*
X33859Y88125D01*
Y89174D01*
X34383Y89699D01*
X27165Y94422D02*
X24016D01*
Y92847D01*
X24541Y92323D01*
X25591D01*
X26115Y92847D01*
Y94422D01*
Y93372D02*
X27165Y92323D01*
Y91273D02*
Y90223D01*
Y90748D01*
X24016D01*
X24541Y91273D01*
X27165Y88649D02*
Y87600D01*
Y88125D01*
X24016D01*
X24541Y88649D01*
X32086Y15747D02*
X28938D01*
Y14173D01*
X29462Y13648D01*
X30512D01*
X31037Y14173D01*
Y15747D01*
Y14697D02*
X32086Y13648D01*
Y12598D02*
Y11549D01*
Y12073D01*
X28938D01*
X29462Y12598D01*
Y9974D02*
X28938Y9450D01*
Y8400D01*
X29462Y7875D01*
X31561D01*
X32086Y8400D01*
Y9450D01*
X31561Y9974D01*
X29462D01*
X20275Y92847D02*
X17127D01*
Y91273D01*
X17651Y90748D01*
X18701D01*
X19226Y91273D01*
Y92847D01*
Y91798D02*
X20275Y90748D01*
X19750Y89699D02*
X20275Y89174D01*
Y88125D01*
X19750Y87600D01*
X17651D01*
X17127Y88125D01*
Y89174D01*
X17651Y89699D01*
X18176D01*
X18701Y89174D01*
Y87600D01*
X267322Y278214D02*
X264174D01*
Y276640D01*
X264699Y276115D01*
X265748D01*
X266273Y276640D01*
Y278214D01*
Y277165D02*
X267322Y276115D01*
X264699Y275066D02*
X264174Y274541D01*
Y273492D01*
X264699Y272967D01*
X265223D01*
X265748Y273492D01*
X266273Y272967D01*
X266798D01*
X267322Y273492D01*
Y274541D01*
X266798Y275066D01*
X266273D01*
X265748Y274541D01*
X265223Y275066D01*
X264699D01*
X265748Y274541D02*
Y273492D01*
X276181Y242781D02*
X273032D01*
Y241207D01*
X273557Y240682D01*
X274606D01*
X275131Y241207D01*
Y242781D01*
Y241732D02*
X276181Y240682D01*
X273032Y239633D02*
Y237534D01*
X273557D01*
X275656Y239633D01*
X276181D01*
X261417Y278214D02*
X258268D01*
Y276640D01*
X258793Y276115D01*
X259842D01*
X260367Y276640D01*
Y278214D01*
Y277165D02*
X261417Y276115D01*
X258268Y272967D02*
X258793Y274016D01*
X259842Y275066D01*
X260892D01*
X261417Y274541D01*
Y273492D01*
X260892Y272967D01*
X260367D01*
X259842Y273492D01*
Y275066D01*
X268307Y242781D02*
X265158D01*
Y241207D01*
X265683Y240682D01*
X266732D01*
X267257Y241207D01*
Y242781D01*
Y241732D02*
X268307Y240682D01*
X265158Y237534D02*
Y239633D01*
X266732D01*
X266208Y238583D01*
Y238058D01*
X266732Y237534D01*
X267782D01*
X268307Y238058D01*
Y239108D01*
X267782Y239633D01*
X252624Y276969D02*
Y280118D01*
X251049D01*
X250525Y279593D01*
Y278543D01*
X251049Y278019D01*
X252624D01*
X251574D02*
X250525Y276969D01*
X249475Y279593D02*
X248951Y280118D01*
X247901D01*
X247376Y279593D01*
Y279068D01*
X247901Y278543D01*
X248426D01*
X247901D01*
X247376Y278019D01*
Y277494D01*
X247901Y276969D01*
X248951D01*
X249475Y277494D01*
X193503Y280183D02*
X190355D01*
Y278609D01*
X190880Y278084D01*
X191929D01*
X192454Y278609D01*
Y280183D01*
Y279133D02*
X193503Y278084D01*
Y274935D02*
Y277034D01*
X191404Y274935D01*
X190880D01*
X190355Y275460D01*
Y276509D01*
X190880Y277034D01*
X162007Y279658D02*
X158859D01*
Y278084D01*
X159383Y277559D01*
X160433D01*
X160958Y278084D01*
Y279658D01*
Y278609D02*
X162007Y277559D01*
Y276509D02*
Y275460D01*
Y275985D01*
X158859D01*
X159383Y276509D01*
X-5381Y134777D02*
Y136876D01*
X-4856Y137401D01*
X-3807D01*
X-3282Y136876D01*
Y134777D01*
X-3807Y134253D01*
X-4856D01*
X-4331Y135302D02*
X-5381Y134253D01*
X-4856D02*
X-5381Y134777D01*
X-8529Y137401D02*
X-6430D01*
Y135827D01*
X-7480Y136352D01*
X-8005D01*
X-8529Y135827D01*
Y134777D01*
X-8005Y134253D01*
X-6955D01*
X-6430Y134777D01*
X277100Y163321D02*
Y165420D01*
X277624Y165944D01*
X278674D01*
X279199Y165420D01*
Y163321D01*
X278674Y162796D01*
X277624D01*
X278149Y163845D02*
X277100Y162796D01*
X277624D02*
X277100Y163321D01*
X274476Y162796D02*
Y165944D01*
X276050Y164370D01*
X273951D01*
X347966Y144620D02*
Y146719D01*
X348491Y147244D01*
X349540D01*
X350065Y146719D01*
Y144620D01*
X349540Y144095D01*
X348491D01*
X349015Y145144D02*
X347966Y144095D01*
X348491D02*
X347966Y144620D01*
X346916Y146719D02*
X346391Y147244D01*
X345342D01*
X344817Y146719D01*
Y146194D01*
X345342Y145669D01*
X345867D01*
X345342D01*
X344817Y145144D01*
Y144620D01*
X345342Y144095D01*
X346391D01*
X346916Y144620D01*
X39895Y-16798D02*
Y-14698D01*
X40420Y-14174D01*
X41469D01*
X41994Y-14698D01*
Y-16798D01*
X41469Y-17322D01*
X40420D01*
X40944Y-16273D02*
X39895Y-17322D01*
X40420D02*
X39895Y-16798D01*
X36746Y-17322D02*
X38845D01*
X36746Y-15223D01*
Y-14698D01*
X37271Y-14174D01*
X38320D01*
X38845Y-14698D01*
X49213Y18635D02*
Y20735D01*
X49737Y21259D01*
X50787D01*
X51312Y20735D01*
Y18635D01*
X50787Y18111D01*
X49737D01*
X50262Y19160D02*
X49213Y18111D01*
X49737D02*
X49213Y18635D01*
X48163Y18111D02*
X47113D01*
X47638D01*
Y21259D01*
X48163Y20735D01*
X119837Y238428D02*
Y235279D01*
X117738D01*
X116688Y237903D02*
X116164Y238428D01*
X115114D01*
X114589Y237903D01*
Y237379D01*
X115114Y236854D01*
X115639D01*
X115114D01*
X114589Y236329D01*
Y235804D01*
X115114Y235279D01*
X116164D01*
X116688Y235804D01*
X21325Y44881D02*
Y41733D01*
X19226D01*
X16077D02*
X18176D01*
X16077Y43832D01*
Y44357D01*
X16602Y44881D01*
X17651D01*
X18176Y44357D01*
X234383Y236810D02*
Y233662D01*
X232283D01*
X231234D02*
X230184D01*
X230709D01*
Y236810D01*
X231234Y236286D01*
X188838Y211728D02*
X190937D01*
Y210154D01*
X189887D01*
X190937D01*
Y208579D01*
X187788Y211203D02*
X187264Y211728D01*
X186214D01*
X185689Y211203D01*
Y210679D01*
X186214Y210154D01*
X186739D01*
X186214D01*
X185689Y209629D01*
Y209104D01*
X186214Y208579D01*
X187264D01*
X187788Y209104D01*
X-17322Y52690D02*
Y54789D01*
X-15748D01*
Y53740D01*
Y54789D01*
X-14174D01*
Y49542D02*
Y51641D01*
X-16273Y49542D01*
X-16798D01*
X-17322Y50066D01*
Y51116D01*
X-16798Y51641D01*
X202756Y293897D02*
X204855D01*
Y292323D01*
X203805D01*
X204855D01*
Y290749D01*
X201706D02*
X200657D01*
X201182D01*
Y293897D01*
X201706Y293372D01*
X210637Y211828D02*
Y208680D01*
X209063D01*
X208538Y209204D01*
Y211303D01*
X209063Y211828D01*
X210637D01*
X205389D02*
X207488D01*
Y210254D01*
X206439Y210779D01*
X205914D01*
X205389Y210254D01*
Y209204D01*
X205914Y208680D01*
X206964D01*
X207488Y209204D01*
X44947Y38976D02*
Y35827D01*
X43372D01*
X42848Y36352D01*
Y38451D01*
X43372Y38976D01*
X44947D01*
X40224Y35827D02*
Y38976D01*
X41798Y37402D01*
X39699D01*
X70276Y34120D02*
X73425D01*
Y32546D01*
X72900Y32021D01*
X70801D01*
X70276Y32546D01*
Y34120D01*
X70801Y30971D02*
X70276Y30446D01*
Y29397D01*
X70801Y28872D01*
X71326D01*
X71850Y29397D01*
Y29922D01*
Y29397D01*
X72375Y28872D01*
X72900D01*
X73425Y29397D01*
Y30446D01*
X72900Y30971D01*
X81103Y34120D02*
X84251D01*
Y32546D01*
X83727Y32021D01*
X81628D01*
X81103Y32546D01*
Y34120D01*
X84251Y28872D02*
Y30971D01*
X82152Y28872D01*
X81628D01*
X81103Y29397D01*
Y30446D01*
X81628Y30971D01*
X168438Y268307D02*
Y265158D01*
X166863D01*
X166339Y265683D01*
Y267782D01*
X166863Y268307D01*
X168438D01*
X165289Y265158D02*
X164240D01*
X164764D01*
Y268307D01*
X165289Y267782D01*
X51116Y137926D02*
X50591Y138451D01*
Y139500D01*
X51116Y140025D01*
X53215D01*
X53740Y139500D01*
Y138451D01*
X53215Y137926D01*
X50591Y134777D02*
Y136876D01*
X52165D01*
X51641Y135827D01*
Y135302D01*
X52165Y134777D01*
X53215D01*
X53740Y135302D01*
Y136352D01*
X53215Y136876D01*
X51116Y133728D02*
X50591Y133203D01*
Y132153D01*
X51116Y131629D01*
X53215D01*
X53740Y132153D01*
Y133203D01*
X53215Y133728D01*
X51116D01*
X45406Y118175D02*
X45931Y118700D01*
X46980D01*
X47505Y118175D01*
Y116077D01*
X46980Y115552D01*
X45931D01*
X45406Y116077D01*
X42782Y115552D02*
Y118700D01*
X44357Y117126D01*
X42258D01*
X41208Y116077D02*
X40683Y115552D01*
X39634D01*
X39109Y116077D01*
Y118175D01*
X39634Y118700D01*
X40683D01*
X41208Y118175D01*
Y117651D01*
X40683Y117126D01*
X39109D01*
X45406Y125065D02*
X45931Y125590D01*
X46980D01*
X47505Y125065D01*
Y122966D01*
X46980Y122441D01*
X45931D01*
X45406Y122966D01*
X42782Y122441D02*
Y125590D01*
X44357Y124016D01*
X42258D01*
X41208Y125065D02*
X40683Y125590D01*
X39634D01*
X39109Y125065D01*
Y124540D01*
X39634Y124016D01*
X39109Y123491D01*
Y122966D01*
X39634Y122441D01*
X40683D01*
X41208Y122966D01*
Y123491D01*
X40683Y124016D01*
X41208Y124540D01*
Y125065D01*
X40683Y124016D02*
X39634D01*
X13714Y141863D02*
X13190Y142388D01*
Y143437D01*
X13714Y143962D01*
X15813D01*
X16338Y143437D01*
Y142388D01*
X15813Y141863D01*
X16338Y139239D02*
X13190D01*
X14764Y140813D01*
Y138714D01*
X13190Y137665D02*
Y135566D01*
X13714D01*
X15813Y137665D01*
X16338D01*
X45406Y156561D02*
X45931Y157086D01*
X46980D01*
X47505Y156561D01*
Y154462D01*
X46980Y153937D01*
X45931D01*
X45406Y154462D01*
X42782Y153937D02*
Y157086D01*
X44357Y155512D01*
X42258D01*
X39109Y157086D02*
X40159Y156561D01*
X41208Y155512D01*
Y154462D01*
X40683Y153937D01*
X39634D01*
X39109Y154462D01*
Y154987D01*
X39634Y155512D01*
X41208D01*
X45406Y148687D02*
X45931Y149212D01*
X46980D01*
X47505Y148687D01*
Y146588D01*
X46980Y146063D01*
X45931D01*
X45406Y146588D01*
X42782Y146063D02*
Y149212D01*
X44357Y147638D01*
X42258D01*
X39109Y149212D02*
X41208D01*
Y147638D01*
X40159Y148163D01*
X39634D01*
X39109Y147638D01*
Y146588D01*
X39634Y146063D01*
X40683D01*
X41208Y146588D01*
X265683Y158595D02*
X265158Y159120D01*
Y160169D01*
X265683Y160694D01*
X267782D01*
X268307Y160169D01*
Y159120D01*
X267782Y158595D01*
X268307Y155971D02*
X265158D01*
X266732Y157546D01*
Y155447D01*
X268307Y152823D02*
X265158D01*
X266732Y154397D01*
Y152298D01*
X256824Y158595D02*
X256300Y159120D01*
Y160169D01*
X256824Y160694D01*
X258924D01*
X259448Y160169D01*
Y159120D01*
X258924Y158595D01*
X259448Y155971D02*
X256300D01*
X257874Y157546D01*
Y155447D01*
X256824Y154397D02*
X256300Y153872D01*
Y152823D01*
X256824Y152298D01*
X257349D01*
X257874Y152823D01*
Y153348D01*
Y152823D01*
X258399Y152298D01*
X258924D01*
X259448Y152823D01*
Y153872D01*
X258924Y154397D01*
X245998Y138910D02*
X245473Y139435D01*
Y140484D01*
X245998Y141009D01*
X248097D01*
X248622Y140484D01*
Y139435D01*
X248097Y138910D01*
X248622Y136286D02*
X245473D01*
X247047Y137861D01*
Y135761D01*
X248622Y132613D02*
Y134712D01*
X246522Y132613D01*
X245998D01*
X245473Y133138D01*
Y134187D01*
X245998Y134712D01*
X209580Y156627D02*
X209056Y157151D01*
Y158201D01*
X209580Y158726D01*
X211679D01*
X212204Y158201D01*
Y157151D01*
X211679Y156627D01*
X212204Y154003D02*
X209056D01*
X210630Y155577D01*
Y153478D01*
X212204Y152428D02*
Y151379D01*
Y151904D01*
X209056D01*
X209580Y152428D01*
X169226Y156627D02*
X168701Y157151D01*
Y158201D01*
X169226Y158726D01*
X171325D01*
X171850Y158201D01*
Y157151D01*
X171325Y156627D01*
X171850Y154003D02*
X168701D01*
X170276Y155577D01*
Y153478D01*
X169226Y152428D02*
X168701Y151904D01*
Y150854D01*
X169226Y150329D01*
X171325D01*
X171850Y150854D01*
Y151904D01*
X171325Y152428D01*
X169226D01*
X183214Y156627D02*
X182689Y157151D01*
Y158201D01*
X183214Y158726D01*
X185313D01*
X185838Y158201D01*
Y157151D01*
X185313Y156627D01*
X183214Y155577D02*
X182689Y155052D01*
Y154003D01*
X183214Y153478D01*
X183739D01*
X184263Y154003D01*
Y154528D01*
Y154003D01*
X184788Y153478D01*
X185313D01*
X185838Y154003D01*
Y155052D01*
X185313Y155577D01*
Y152428D02*
X185838Y151904D01*
Y150854D01*
X185313Y150329D01*
X183214D01*
X182689Y150854D01*
Y151904D01*
X183214Y152428D01*
X183739D01*
X184263Y151904D01*
Y150329D01*
X223360Y151705D02*
X222835Y152230D01*
Y153280D01*
X223360Y153804D01*
X225459D01*
X225984Y153280D01*
Y152230D01*
X225459Y151705D01*
X223360Y150656D02*
X222835Y150131D01*
Y149082D01*
X223360Y148557D01*
X223885D01*
X224409Y149082D01*
Y149606D01*
Y149082D01*
X224934Y148557D01*
X225459D01*
X225984Y149082D01*
Y150131D01*
X225459Y150656D01*
X223360Y147507D02*
X222835Y146983D01*
Y145933D01*
X223360Y145408D01*
X223885D01*
X224409Y145933D01*
X224934Y145408D01*
X225459D01*
X225984Y145933D01*
Y146983D01*
X225459Y147507D01*
X224934D01*
X224409Y146983D01*
X223885Y147507D01*
X223360D01*
X224409Y146983D02*
Y145933D01*
X218439Y151705D02*
X217914Y152230D01*
Y153280D01*
X218439Y153804D01*
X220538D01*
X221062Y153280D01*
Y152230D01*
X220538Y151705D01*
X218439Y150656D02*
X217914Y150131D01*
Y149082D01*
X218439Y148557D01*
X218963D01*
X219488Y149082D01*
Y149606D01*
Y149082D01*
X220013Y148557D01*
X220538D01*
X221062Y149082D01*
Y150131D01*
X220538Y150656D01*
X217914Y147507D02*
Y145408D01*
X218439D01*
X220538Y147507D01*
X221062D01*
X77886Y177231D02*
X78411Y177755D01*
X79461D01*
X79985Y177231D01*
Y175132D01*
X79461Y174607D01*
X78411D01*
X77886Y175132D01*
X76837Y177231D02*
X76312Y177755D01*
X75263D01*
X74738Y177231D01*
Y176706D01*
X75263Y176181D01*
X75787D01*
X75263D01*
X74738Y175656D01*
Y175132D01*
X75263Y174607D01*
X76312D01*
X76837Y175132D01*
X71589Y177755D02*
X72639Y177231D01*
X73688Y176181D01*
Y175132D01*
X73164Y174607D01*
X72114D01*
X71589Y175132D01*
Y175656D01*
X72114Y176181D01*
X73688D01*
X77886Y187073D02*
X78411Y187598D01*
X79461D01*
X79985Y187073D01*
Y184974D01*
X79461Y184449D01*
X78411D01*
X77886Y184974D01*
X76837Y187073D02*
X76312Y187598D01*
X75263D01*
X74738Y187073D01*
Y186548D01*
X75263Y186024D01*
X75787D01*
X75263D01*
X74738Y185499D01*
Y184974D01*
X75263Y184449D01*
X76312D01*
X76837Y184974D01*
X71589Y187598D02*
X73688D01*
Y186024D01*
X72639Y186548D01*
X72114D01*
X71589Y186024D01*
Y184974D01*
X72114Y184449D01*
X73164D01*
X73688Y184974D01*
X77886Y197900D02*
X78411Y198425D01*
X79461D01*
X79985Y197900D01*
Y195801D01*
X79461Y195276D01*
X78411D01*
X77886Y195801D01*
X76837Y197900D02*
X76312Y198425D01*
X75263D01*
X74738Y197900D01*
Y197375D01*
X75263Y196850D01*
X75787D01*
X75263D01*
X74738Y196326D01*
Y195801D01*
X75263Y195276D01*
X76312D01*
X76837Y195801D01*
X72114Y195276D02*
Y198425D01*
X73688Y196850D01*
X71589D01*
X79330Y249081D02*
X79855Y249606D01*
X80905D01*
X81429Y249081D01*
Y246982D01*
X80905Y246457D01*
X79855D01*
X79330Y246982D01*
X78281Y249081D02*
X77756Y249606D01*
X76706D01*
X76182Y249081D01*
Y248556D01*
X76706Y248031D01*
X77231D01*
X76706D01*
X76182Y247507D01*
Y246982D01*
X76706Y246457D01*
X77756D01*
X78281Y246982D01*
X75132Y246457D02*
X74083D01*
X74607D01*
Y249606D01*
X75132Y249081D01*
X82808Y234317D02*
X83333Y234842D01*
X84382D01*
X84907Y234317D01*
Y232218D01*
X84382Y231693D01*
X83333D01*
X82808Y232218D01*
X81758Y234317D02*
X81233Y234842D01*
X80184D01*
X79659Y234317D01*
Y233792D01*
X80184Y233268D01*
X80709D01*
X80184D01*
X79659Y232743D01*
Y232218D01*
X80184Y231693D01*
X81233D01*
X81758Y232218D01*
X78610Y234317D02*
X78085Y234842D01*
X77035D01*
X76511Y234317D01*
Y232218D01*
X77035Y231693D01*
X78085D01*
X78610Y232218D01*
Y234317D01*
X82808Y240223D02*
X83333Y240747D01*
X84382D01*
X84907Y240223D01*
Y238124D01*
X84382Y237599D01*
X83333D01*
X82808Y238124D01*
X79659Y237599D02*
X81758D01*
X79659Y239698D01*
Y240223D01*
X80184Y240747D01*
X81233D01*
X81758Y240223D01*
X78610Y238124D02*
X78085Y237599D01*
X77035D01*
X76511Y238124D01*
Y240223D01*
X77035Y240747D01*
X78085D01*
X78610Y240223D01*
Y239698D01*
X78085Y239173D01*
X76511D01*
X75722Y219619D02*
X75197Y220144D01*
Y221193D01*
X75722Y221718D01*
X77821D01*
X78346Y221193D01*
Y220144D01*
X77821Y219619D01*
X78346Y216470D02*
Y218569D01*
X76247Y216470D01*
X75722D01*
X75197Y216995D01*
Y218044D01*
X75722Y218569D01*
Y215421D02*
X75197Y214896D01*
Y213846D01*
X75722Y213322D01*
X76247D01*
X76772Y213846D01*
X77296Y213322D01*
X77821D01*
X78346Y213846D01*
Y214896D01*
X77821Y215421D01*
X77296D01*
X76772Y214896D01*
X76247Y215421D01*
X75722D01*
X76772Y214896D02*
Y213846D01*
X259777Y194028D02*
X259253Y194553D01*
Y195603D01*
X259777Y196127D01*
X261876D01*
X262401Y195603D01*
Y194553D01*
X261876Y194028D01*
X262401Y190880D02*
Y192979D01*
X260302Y190880D01*
X259777D01*
X259253Y191404D01*
Y192454D01*
X259777Y192979D01*
X259253Y189830D02*
Y187731D01*
X259777D01*
X261876Y189830D01*
X262401D01*
X303084Y223556D02*
X302560Y224080D01*
Y225130D01*
X303084Y225655D01*
X305183D01*
X305708Y225130D01*
Y224080D01*
X305183Y223556D01*
X305708Y220407D02*
Y222506D01*
X303609Y220407D01*
X303084D01*
X302560Y220932D01*
Y221981D01*
X303084Y222506D01*
X305708Y217783D02*
X302560D01*
X304134Y219358D01*
Y217259D01*
X310958Y223556D02*
X310434Y224080D01*
Y225130D01*
X310958Y225655D01*
X313057D01*
X313582Y225130D01*
Y224080D01*
X313057Y223556D01*
X313582Y220407D02*
Y222506D01*
X311483Y220407D01*
X310958D01*
X310434Y220932D01*
Y221982D01*
X310958Y222506D01*
Y219358D02*
X310434Y218833D01*
Y217783D01*
X310958Y217259D01*
X311483D01*
X312008Y217783D01*
Y218308D01*
Y217783D01*
X312533Y217259D01*
X313057D01*
X313582Y217783D01*
Y218833D01*
X313057Y219358D01*
X96062Y43372D02*
X96587Y43897D01*
X97637D01*
X98162Y43372D01*
Y41273D01*
X97637Y40749D01*
X96587D01*
X96062Y41273D01*
X92914Y40749D02*
X95013D01*
X92914Y42848D01*
Y43372D01*
X93439Y43897D01*
X94488D01*
X95013Y43372D01*
X89765Y40749D02*
X91864D01*
X89765Y42848D01*
Y43372D01*
X90290Y43897D01*
X91340D01*
X91864Y43372D01*
X96062Y53215D02*
X96587Y53740D01*
X97637D01*
X98162Y53215D01*
Y51116D01*
X97637Y50591D01*
X96587D01*
X96062Y51116D01*
X92914Y50591D02*
X95013D01*
X92914Y52690D01*
Y53215D01*
X93439Y53740D01*
X94488D01*
X95013Y53215D01*
X91864Y50591D02*
X90815D01*
X91340D01*
Y53740D01*
X91864Y53215D01*
X126115Y6955D02*
X126640Y7480D01*
X127689D01*
X128214Y6955D01*
Y4856D01*
X127689Y4331D01*
X126640D01*
X126115Y4856D01*
X122966Y4331D02*
X125065D01*
X122966Y6430D01*
Y6955D01*
X123491Y7480D01*
X124540D01*
X125065Y6955D01*
X121917D02*
X121392Y7480D01*
X120342D01*
X119818Y6955D01*
Y4856D01*
X120342Y4331D01*
X121392D01*
X121917Y4856D01*
Y6955D01*
X80577Y3018D02*
X81102Y3543D01*
X82151D01*
X82676Y3018D01*
Y919D01*
X82151Y394D01*
X81102D01*
X80577Y919D01*
X79527Y394D02*
X78478D01*
X79002D01*
Y3543D01*
X79527Y3018D01*
X76903Y919D02*
X76379Y394D01*
X75329D01*
X74804Y919D01*
Y3018D01*
X75329Y3543D01*
X76379D01*
X76903Y3018D01*
Y2493D01*
X76379Y1969D01*
X74804D01*
X80577Y13845D02*
X81102Y14370D01*
X82151D01*
X82676Y13845D01*
Y11746D01*
X82151Y11221D01*
X81102D01*
X80577Y11746D01*
X79527Y11221D02*
X78478D01*
X79002D01*
Y14370D01*
X79527Y13845D01*
X76903D02*
X76379Y14370D01*
X75329D01*
X74804Y13845D01*
Y13320D01*
X75329Y12795D01*
X74804Y12270D01*
Y11746D01*
X75329Y11221D01*
X76379D01*
X76903Y11746D01*
Y12270D01*
X76379Y12795D01*
X76903Y13320D01*
Y13845D01*
X76379Y12795D02*
X75329D01*
X41273Y93372D02*
X40749Y93897D01*
Y94946D01*
X41273Y95471D01*
X43372D01*
X43897Y94946D01*
Y93897D01*
X43372Y93372D01*
X43897Y92323D02*
Y91273D01*
Y91798D01*
X40749D01*
X41273Y92323D01*
X40749Y89699D02*
Y87600D01*
X41273D01*
X43372Y89699D01*
X43897D01*
X61876Y86680D02*
X62401Y87204D01*
X63450D01*
X63975Y86680D01*
Y84580D01*
X63450Y84056D01*
X62401D01*
X61876Y84580D01*
X60826Y84056D02*
X59777D01*
X60302D01*
Y87204D01*
X60826Y86680D01*
X56104Y87204D02*
X57153Y86680D01*
X58203Y85630D01*
Y84580D01*
X57678Y84056D01*
X56628D01*
X56104Y84580D01*
Y85105D01*
X56628Y85630D01*
X58203D01*
X61876Y80774D02*
X62401Y81299D01*
X63450D01*
X63975Y80774D01*
Y78675D01*
X63450Y78150D01*
X62401D01*
X61876Y78675D01*
X60826Y78150D02*
X59777D01*
X60302D01*
Y81299D01*
X60826Y80774D01*
X56104Y81299D02*
X58203D01*
Y79724D01*
X57153Y80249D01*
X56628D01*
X56104Y79724D01*
Y78675D01*
X56628Y78150D01*
X57678D01*
X58203Y78675D01*
X8793Y53018D02*
X8268Y53543D01*
Y54592D01*
X8793Y55117D01*
X10892D01*
X11417Y54592D01*
Y53543D01*
X10892Y53018D01*
X11417Y51968D02*
Y50919D01*
Y51443D01*
X8268D01*
X8793Y51968D01*
Y49344D02*
X8268Y48820D01*
Y47770D01*
X8793Y47245D01*
X9318D01*
X9843Y47770D01*
Y48295D01*
Y47770D01*
X10367Y47245D01*
X10892D01*
X11417Y47770D01*
Y48820D01*
X10892Y49344D01*
X-2034Y53018D02*
X-2559Y53543D01*
Y54592D01*
X-2034Y55117D01*
X65D01*
X590Y54592D01*
Y53543D01*
X65Y53018D01*
X590Y51968D02*
Y50919D01*
Y51443D01*
X-2559D01*
X-2034Y51968D01*
X590Y47245D02*
Y49344D01*
X-1509Y47245D01*
X-2034D01*
X-2559Y47770D01*
Y48820D01*
X-2034Y49344D01*
X93372Y72900D02*
X93897Y73425D01*
X94946D01*
X95471Y72900D01*
Y70801D01*
X94946Y70276D01*
X93897D01*
X93372Y70801D01*
X92323Y70276D02*
X91273D01*
X91798D01*
Y73425D01*
X92323Y72900D01*
X89699D02*
X89174Y73425D01*
X88125D01*
X87600Y72900D01*
Y70801D01*
X88125Y70276D01*
X89174D01*
X89699Y70801D01*
Y72900D01*
X93044Y62073D02*
X93569Y62598D01*
X94619D01*
X95144Y62073D01*
Y59974D01*
X94619Y59449D01*
X93569D01*
X93044Y59974D01*
X91995D02*
X91470Y59449D01*
X90421D01*
X89896Y59974D01*
Y62073D01*
X90421Y62598D01*
X91470D01*
X91995Y62073D01*
Y61548D01*
X91470Y61024D01*
X89896D01*
X56627Y31561D02*
X57152Y32086D01*
X58201D01*
X58726Y31561D01*
Y29462D01*
X58201Y28938D01*
X57152D01*
X56627Y29462D01*
X55578Y31561D02*
X55053Y32086D01*
X54003D01*
X53478Y31561D01*
Y31037D01*
X54003Y30512D01*
X53478Y29987D01*
Y29462D01*
X54003Y28938D01*
X55053D01*
X55578Y29462D01*
Y29987D01*
X55053Y30512D01*
X55578Y31037D01*
Y31561D01*
X55053Y30512D02*
X54003D01*
X241667Y229396D02*
X242191Y229921D01*
X243241D01*
X243765Y229396D01*
Y227297D01*
X243241Y226772D01*
X242191D01*
X241667Y227297D01*
X238518Y229921D02*
X239567Y229396D01*
X240617Y228346D01*
Y227297D01*
X240092Y226772D01*
X239043D01*
X238518Y227297D01*
Y227822D01*
X239043Y228346D01*
X240617D01*
X203281Y270735D02*
X203805Y271259D01*
X204855D01*
X205380Y270735D01*
Y268636D01*
X204855Y268111D01*
X203805D01*
X203281Y268636D01*
X200132Y271259D02*
X202231D01*
Y269685D01*
X201182Y270210D01*
X200657D01*
X200132Y269685D01*
Y268636D01*
X200657Y268111D01*
X201706D01*
X202231Y268636D01*
X198754Y255446D02*
X198229Y255971D01*
Y257020D01*
X198754Y257545D01*
X200853D01*
X201377Y257020D01*
Y255971D01*
X200853Y255446D01*
X201377Y252822D02*
X198229D01*
X199803Y254397D01*
Y252297D01*
X216076Y261876D02*
X216601Y262401D01*
X217650D01*
X218175Y261876D01*
Y259777D01*
X217650Y259253D01*
X216601D01*
X216076Y259777D01*
X215026Y261876D02*
X214502Y262401D01*
X213452D01*
X212927Y261876D01*
Y261351D01*
X213452Y260827D01*
X213977D01*
X213452D01*
X212927Y260302D01*
Y259777D01*
X213452Y259253D01*
X214502D01*
X215026Y259777D01*
X221981Y284514D02*
X222506Y285039D01*
X223556D01*
X224080Y284514D01*
Y282415D01*
X223556Y281890D01*
X222506D01*
X221981Y282415D01*
X218833Y281890D02*
X220932D01*
X218833Y283989D01*
Y284514D01*
X219358Y285039D01*
X220407D01*
X220932Y284514D01*
X230315Y301246D02*
X230840Y301771D01*
X231889D01*
X232414Y301246D01*
Y299147D01*
X231889Y298623D01*
X230840D01*
X230315Y299147D01*
X229265Y298623D02*
X228216D01*
X228741D01*
Y301771D01*
X229265Y301246D01*
D12*
X95669Y217520D02*
G03*
X95669Y217520I-394J0D01*
G01*
X94193Y-22244D02*
G03*
X89193Y-22244I-2500J0D01*
G01*
X171043Y273736D02*
X183248D01*
X171043Y275705D02*
X183248D01*
Y273736D02*
Y275705D01*
X171043Y273736D02*
Y275705D01*
X207205Y303799D02*
X210748D01*
X207205Y296595D02*
X210748D01*
X260433Y141043D02*
Y143405D01*
X254134Y141043D02*
Y143405D01*
X270276Y141043D02*
Y143405D01*
X263976Y141043D02*
Y143405D01*
X173425Y139075D02*
Y141437D01*
X167126Y139075D02*
Y141437D01*
X187205Y139075D02*
Y141437D01*
X180905Y139075D02*
Y141437D01*
X207874Y139075D02*
Y141437D01*
X214173Y139075D02*
Y141437D01*
X241142Y136811D02*
X241634D01*
Y142028D01*
Y144193D02*
Y149409D01*
X241142D02*
X241634D01*
X228248D02*
X228740D01*
X228248Y144193D02*
Y149409D01*
Y136811D02*
X228740D01*
X228248D02*
Y142028D01*
X253248Y231496D02*
X255610D01*
X253248Y225197D02*
X255610D01*
X196653Y240453D02*
Y242815D01*
X202953Y240453D02*
Y242815D01*
X90847Y251181D02*
X93209D01*
X90847Y244882D02*
X93209D01*
X88976Y200394D02*
X91339D01*
X88976Y194095D02*
X91339D01*
X88976Y189764D02*
X91339D01*
X88976Y183465D02*
X91339D01*
X88976Y178740D02*
X91339D01*
X88976Y172441D02*
X91339D01*
X10827Y129626D02*
Y133169D01*
X7677D02*
X10827D01*
X-984Y129626D02*
Y133169D01*
X2165D01*
X42126Y134153D02*
Y136516D01*
X48425Y134153D02*
Y136516D01*
X55413Y57874D02*
X57776D01*
X55413Y64173D02*
X57776D01*
X55413Y68701D02*
X57776D01*
X55413Y75000D02*
X57776D01*
X76083Y57874D02*
X78445D01*
X76083Y64173D02*
X78445D01*
X76083Y68701D02*
X78445D01*
X76083Y75000D02*
X78445D01*
X-12146Y63504D02*
Y67047D01*
X-19350Y63504D02*
Y67047D01*
X-4134Y64272D02*
Y66634D01*
X2165Y64272D02*
Y66634D01*
X6693Y64272D02*
Y66634D01*
X12992Y64272D02*
Y66634D01*
X54429Y41535D02*
X56791D01*
X54429Y35236D02*
X56791D01*
X100394Y25512D02*
X112205D01*
X100394Y28661D02*
X112205D01*
Y25512D02*
Y28661D01*
X100394Y25512D02*
Y28661D01*
X95768Y9764D02*
X98130D01*
X95768Y16063D02*
X98130D01*
X86555Y-22244D02*
X89232D01*
X94390D02*
X96909D01*
Y-6693D01*
X86555D02*
X96909D01*
X86555Y-22244D02*
Y-6693D01*
X95768Y-1063D02*
X98130D01*
X95768Y5236D02*
X98130D01*
X46260Y4724D02*
X49803D01*
Y7283D01*
X46260Y16142D02*
X49803D01*
Y13583D02*
Y16142D01*
X37992Y-3150D02*
X40157D01*
X37992Y-7480D02*
Y-3150D01*
X46457D02*
X48622D01*
Y-7480D02*
Y-3150D01*
X151181Y-47047D02*
X163386D01*
X151181Y-45079D02*
X163386D01*
Y-47047D02*
Y-45079D01*
X151181Y-47047D02*
Y-45079D01*
X170669Y-52953D02*
Y-47441D01*
Y-52953D02*
X171260D01*
X170669Y-45276D02*
Y-39764D01*
X171260D01*
X179331D02*
X179921D01*
Y-45276D02*
Y-39764D01*
Y-52953D02*
Y-47441D01*
X179331Y-52953D02*
X179921D01*
X279921Y202165D02*
Y204527D01*
Y202165D02*
X282283D01*
X279921Y216732D02*
Y219094D01*
X282283D01*
X294488D02*
X296850D01*
Y216732D02*
Y219094D01*
Y202165D02*
Y204527D01*
X294488Y202165D02*
X296850D01*
X250787Y266831D02*
Y268504D01*
X249114D02*
X250787D01*
Y251181D02*
Y252854D01*
X249114Y251181D02*
X250787D01*
X233465D02*
X235138D01*
X233465D02*
Y252854D01*
Y266831D02*
Y268504D01*
X235138D01*
X200733Y205654D02*
X210433D01*
X180630Y204390D02*
X184173D01*
X180630Y197185D02*
X184173D01*
D13*
X66142Y46457D02*
Y51968D01*
X69095Y36220D02*
X74606D01*
X79921Y55315D02*
X85433D01*
D151*
X232776Y178150D02*
G03*
X232776Y178150I-492J0D01*
G01*
X170453Y279445D02*
G03*
X170453Y279445I-492J0D01*
G01*
X341732Y144193D02*
G03*
X341732Y144193I-492J0D01*
G01*
X241535Y134252D02*
G03*
X241535Y134252I-492J0D01*
G01*
X259252Y175886D02*
G03*
X259252Y175886I-492J0D01*
G01*
X8760Y135728D02*
G03*
X8760Y135728I-492J0D01*
G01*
X37303Y141732D02*
G03*
X37303Y141732I-492J0D01*
G01*
X99705Y31614D02*
G03*
X99705Y31614I-492J0D01*
G01*
X43799Y3150D02*
G03*
X43799Y3150I-492J0D01*
G01*
X51083Y-9843D02*
G03*
X51083Y-9843I-492J0D01*
G01*
X150591Y-41339D02*
G03*
X150591Y-41339I-492J0D01*
G01*
X179823Y-55512D02*
G03*
X179823Y-55512I-492J0D01*
G01*
X296752Y199606D02*
G03*
X296752Y199606I-492J0D01*
G01*
X30020Y72835D02*
G03*
X30020Y72835I-492J0D01*
G01*
X234547Y271063D02*
G03*
X234547Y271063I-492J0D01*
G01*
D152*
X300276Y234074D02*
Y235824D01*
X284276Y234074D02*
Y235824D01*
M02*
