G04*
G04 #@! TF.GenerationSoftware,Altium Limited,Altium Designer,20.0.11 (256)*
G04*
G04 Layer_Color=65535*
%FSLAX25Y25*%
%MOIN*%
G70*
G01*
G75*
%ADD10C,0.00787*%
%ADD11C,0.00591*%
%ADD12C,0.00787*%
%ADD13C,0.01000*%
%ADD14C,0.03937*%
%ADD15C,0.01968*%
G36*
X313904Y74870D02*
X313822D01*
Y74787D01*
X313740D01*
Y74705D01*
X313657D01*
Y74623D01*
X313493D01*
Y74541D01*
X313411D01*
Y74459D01*
X313329D01*
Y74376D01*
X313246D01*
Y74294D01*
X313164D01*
Y74212D01*
X313000D01*
Y74129D01*
X312917D01*
Y74047D01*
X312835D01*
Y73965D01*
X312753D01*
Y73883D01*
X312670D01*
Y73800D01*
X312506D01*
Y73718D01*
X312424D01*
Y73636D01*
X312341D01*
Y73554D01*
X312259D01*
Y73471D01*
X312177D01*
Y73389D01*
X312013D01*
Y73307D01*
X311930D01*
Y73225D01*
X311848D01*
Y73143D01*
X311766D01*
Y73060D01*
X311684D01*
Y72978D01*
X311519D01*
Y72896D01*
X311437D01*
Y72813D01*
X311354D01*
Y72731D01*
X311272D01*
Y72649D01*
X311190D01*
Y72567D01*
X311026D01*
Y72485D01*
X310943D01*
Y72402D01*
X310861D01*
Y72320D01*
X310779D01*
Y72238D01*
X310697D01*
Y72156D01*
X310532D01*
Y72073D01*
X310450D01*
Y71991D01*
X310367D01*
Y71909D01*
X310285D01*
Y71827D01*
X310203D01*
Y71744D01*
X310038D01*
Y71662D01*
X309956D01*
Y71580D01*
X309874D01*
Y71498D01*
X309792D01*
Y71415D01*
X309710D01*
Y71333D01*
X309545D01*
Y71251D01*
X309463D01*
Y71169D01*
X309381D01*
Y71086D01*
X309298D01*
Y71004D01*
X309216D01*
Y70922D01*
X309051D01*
Y70840D01*
X308969D01*
Y70757D01*
X308887D01*
Y70675D01*
X308805D01*
Y70593D01*
X308722D01*
Y70511D01*
X308558D01*
Y70428D01*
X308476D01*
Y70346D01*
X308394D01*
Y70264D01*
X308311D01*
Y70182D01*
X308229D01*
Y70099D01*
X308065D01*
Y70017D01*
X307982D01*
Y69935D01*
X307900D01*
Y69853D01*
X307818D01*
Y69770D01*
X307735D01*
Y69688D01*
X307571D01*
Y69606D01*
X307489D01*
Y69524D01*
X307406D01*
Y69441D01*
X307324D01*
Y69359D01*
X307242D01*
Y69277D01*
X307078D01*
Y69195D01*
X306995D01*
Y69112D01*
X306913D01*
Y69030D01*
X306831D01*
Y68948D01*
X306749D01*
Y68866D01*
X306584D01*
Y68783D01*
X306502D01*
Y68701D01*
X306419D01*
Y68619D01*
X306337D01*
Y68537D01*
X306255D01*
Y68454D01*
X306090D01*
Y68372D01*
X306008D01*
Y68290D01*
X305926D01*
Y68208D01*
X305844D01*
Y68125D01*
X305762D01*
Y68043D01*
X305597D01*
Y67961D01*
X305515D01*
Y67879D01*
X305433D01*
Y67796D01*
X305350D01*
Y67714D01*
Y67632D01*
Y67550D01*
X305433D01*
Y67467D01*
X305515D01*
Y67385D01*
Y67303D01*
X305597D01*
Y67221D01*
Y67138D01*
X305679D01*
Y67056D01*
X305762D01*
Y66974D01*
Y66892D01*
X305844D01*
Y66809D01*
Y66727D01*
X305926D01*
Y66645D01*
X306008D01*
Y66563D01*
Y66480D01*
X306090D01*
Y66398D01*
Y66316D01*
X306173D01*
Y66234D01*
X306255D01*
Y66151D01*
Y66069D01*
X306337D01*
Y65987D01*
Y65905D01*
X306419D01*
Y65822D01*
Y65740D01*
X306502D01*
Y65658D01*
X306584D01*
Y65576D01*
Y65493D01*
X306666D01*
Y65411D01*
X306749D01*
Y65329D01*
Y65247D01*
X306831D01*
Y65164D01*
Y65082D01*
X306913D01*
Y65000D01*
X306995D01*
Y64918D01*
Y64835D01*
X307078D01*
Y64753D01*
Y64671D01*
X307160D01*
Y64589D01*
X307242D01*
Y64506D01*
Y64424D01*
X307324D01*
Y64342D01*
Y64260D01*
X307406D01*
Y64177D01*
X307489D01*
Y64095D01*
Y64013D01*
X307571D01*
Y63931D01*
Y63848D01*
X307653D01*
Y63766D01*
X307735D01*
Y63684D01*
Y63602D01*
X307818D01*
Y63519D01*
Y63437D01*
X307900D01*
Y63355D01*
Y63273D01*
X307982D01*
Y63190D01*
X308065D01*
Y63108D01*
Y63026D01*
X308147D01*
Y62944D01*
X308229D01*
Y62861D01*
Y62779D01*
X308311D01*
Y62697D01*
Y62615D01*
X308394D01*
Y62532D01*
X308476D01*
Y62450D01*
Y62368D01*
X308558D01*
Y62286D01*
Y62203D01*
X308640D01*
Y62121D01*
X308722D01*
Y62039D01*
Y61957D01*
X308805D01*
Y61874D01*
Y61792D01*
X308887D01*
Y61710D01*
Y61628D01*
X308969D01*
Y61545D01*
X309051D01*
Y61463D01*
Y61381D01*
X309134D01*
Y61299D01*
Y61216D01*
X309216D01*
Y61134D01*
X309298D01*
Y61052D01*
Y60970D01*
X309381D01*
Y60887D01*
X309463D01*
Y60805D01*
Y60723D01*
X309545D01*
Y60641D01*
Y60558D01*
X309627D01*
Y60476D01*
X303212D01*
Y60558D01*
X303130D01*
Y60641D01*
Y60723D01*
X303047D01*
Y60805D01*
Y60887D01*
X302965D01*
Y60970D01*
X302883D01*
Y61052D01*
Y61134D01*
X302800D01*
Y61216D01*
Y61299D01*
X302718D01*
Y61381D01*
Y61463D01*
X302636D01*
Y61545D01*
Y61628D01*
X302554D01*
Y61710D01*
Y61792D01*
X302471D01*
Y61874D01*
Y61957D01*
X302389D01*
Y62039D01*
Y62121D01*
X302307D01*
Y62203D01*
Y62286D01*
X302225D01*
Y62368D01*
Y62450D01*
X302143D01*
Y62532D01*
Y62615D01*
X302060D01*
Y62697D01*
X301978D01*
Y62779D01*
Y62861D01*
X301896D01*
Y62944D01*
Y63026D01*
X301814D01*
Y63108D01*
Y63190D01*
X301731D01*
Y63273D01*
Y63355D01*
X301649D01*
Y63437D01*
Y63519D01*
X301567D01*
Y63602D01*
Y63684D01*
X301484D01*
Y63766D01*
Y63848D01*
X301402D01*
Y63931D01*
Y64013D01*
X301320D01*
Y64095D01*
Y64177D01*
X301238D01*
Y64260D01*
Y64342D01*
X301155D01*
Y64424D01*
X301073D01*
Y64506D01*
Y64589D01*
X300827D01*
Y64506D01*
X300744D01*
Y64424D01*
X300662D01*
Y64342D01*
X300580D01*
Y64260D01*
X300415D01*
Y64177D01*
X300333D01*
Y64095D01*
X300251D01*
Y64013D01*
X300168D01*
Y63931D01*
X300086D01*
Y63848D01*
X299922D01*
Y63766D01*
X299839D01*
Y63684D01*
X299757D01*
Y63602D01*
X299675D01*
Y63519D01*
X299511D01*
Y63437D01*
X299428D01*
Y63355D01*
X299346D01*
Y63273D01*
X299264D01*
Y63190D01*
X299182D01*
Y63108D01*
X299017D01*
Y63026D01*
X298935D01*
Y62944D01*
X298852D01*
Y62861D01*
X298770D01*
Y62779D01*
X298606D01*
Y62697D01*
X298523D01*
Y62615D01*
X298441D01*
Y62532D01*
X298359D01*
Y62450D01*
X298277D01*
Y62368D01*
X298112D01*
Y62286D01*
X298030D01*
Y62203D01*
X297948D01*
Y62121D01*
X297866D01*
Y62039D01*
X297701D01*
Y61957D01*
X297619D01*
Y61874D01*
X297536D01*
Y61792D01*
X297454D01*
Y61710D01*
X297372D01*
Y61628D01*
X297207D01*
Y61545D01*
X297125D01*
Y61463D01*
X297043D01*
Y61381D01*
X296961D01*
Y61299D01*
X296796D01*
Y61216D01*
X296714D01*
Y61134D01*
X296632D01*
Y61052D01*
X296550D01*
Y60970D01*
X296385D01*
Y60887D01*
X296303D01*
Y60805D01*
X296220D01*
Y60723D01*
X296138D01*
Y60641D01*
X296056D01*
Y60558D01*
X295891D01*
Y60476D01*
X289476D01*
Y60558D01*
X289641D01*
Y60641D01*
X289723D01*
Y60723D01*
X289805D01*
Y60805D01*
X289887D01*
Y60887D01*
X289970D01*
Y60970D01*
X290134D01*
Y61052D01*
X290216D01*
Y61134D01*
X290299D01*
Y61216D01*
X290381D01*
Y61299D01*
X290463D01*
Y61381D01*
X290628D01*
Y61463D01*
X290710D01*
Y61545D01*
X290792D01*
Y61628D01*
X290874D01*
Y61710D01*
X290957D01*
Y61792D01*
X291121D01*
Y61874D01*
X291203D01*
Y61957D01*
X291286D01*
Y62039D01*
X291368D01*
Y62121D01*
X291450D01*
Y62203D01*
X291615D01*
Y62286D01*
X291697D01*
Y62368D01*
X291779D01*
Y62450D01*
X291861D01*
Y62532D01*
X291944D01*
Y62615D01*
X292108D01*
Y62697D01*
X292190D01*
Y62779D01*
X292273D01*
Y62861D01*
X292355D01*
Y62944D01*
X292437D01*
Y63026D01*
X292602D01*
Y63108D01*
X292684D01*
Y63190D01*
X292766D01*
Y63273D01*
X292848D01*
Y63355D01*
X292931D01*
Y63437D01*
X293095D01*
Y63519D01*
X293177D01*
Y63602D01*
X293260D01*
Y63684D01*
X293342D01*
Y63766D01*
X293424D01*
Y63848D01*
X293588D01*
Y63931D01*
X293671D01*
Y64013D01*
X293753D01*
Y64095D01*
X293835D01*
Y64177D01*
X293917D01*
Y64260D01*
X294082D01*
Y64342D01*
X294164D01*
Y64424D01*
X294247D01*
Y64506D01*
X294329D01*
Y64589D01*
X294411D01*
Y64671D01*
X294576D01*
Y64753D01*
X294658D01*
Y64835D01*
X294740D01*
Y64918D01*
X294822D01*
Y65000D01*
X294905D01*
Y65082D01*
X295069D01*
Y65164D01*
X295151D01*
Y65247D01*
X295234D01*
Y65329D01*
X295316D01*
Y65411D01*
X295398D01*
Y65493D01*
X295563D01*
Y65576D01*
X295645D01*
Y65658D01*
X295727D01*
Y65740D01*
X295809D01*
Y65822D01*
X295891D01*
Y65905D01*
X296056D01*
Y65987D01*
X296138D01*
Y66069D01*
X296220D01*
Y66151D01*
X296303D01*
Y66234D01*
X296385D01*
Y66316D01*
X296550D01*
Y66398D01*
X296632D01*
Y66480D01*
X296714D01*
Y66563D01*
X296796D01*
Y66645D01*
X296879D01*
Y66727D01*
X297043D01*
Y66809D01*
X297125D01*
Y66892D01*
X297207D01*
Y66974D01*
X297290D01*
Y67056D01*
X297372D01*
Y67138D01*
X297536D01*
Y67221D01*
X297619D01*
Y67303D01*
X297701D01*
Y67385D01*
X297783D01*
Y67467D01*
X297866D01*
Y67550D01*
X298030D01*
Y67632D01*
X298112D01*
Y67714D01*
Y67796D01*
X298030D01*
Y67879D01*
Y67961D01*
X297948D01*
Y68043D01*
Y68125D01*
X297866D01*
Y68208D01*
X297783D01*
Y68290D01*
Y68372D01*
X297701D01*
Y68454D01*
Y68537D01*
X297619D01*
Y68619D01*
X297536D01*
Y68701D01*
Y68783D01*
X297454D01*
Y68866D01*
Y68948D01*
X297372D01*
Y69030D01*
X297290D01*
Y69112D01*
Y69195D01*
X297207D01*
Y69277D01*
Y69359D01*
X297125D01*
Y69441D01*
X297043D01*
Y69524D01*
Y69606D01*
X296961D01*
Y69688D01*
X296879D01*
Y69770D01*
Y69853D01*
X296796D01*
Y69935D01*
Y70017D01*
X296714D01*
Y70099D01*
Y70182D01*
X296632D01*
Y70264D01*
X296550D01*
Y70346D01*
Y70428D01*
X296467D01*
Y70511D01*
Y70593D01*
X296385D01*
Y70675D01*
X296303D01*
Y70757D01*
Y70840D01*
X296220D01*
Y70922D01*
Y71004D01*
X296138D01*
Y71086D01*
X296056D01*
Y71169D01*
Y71251D01*
X295974D01*
Y71333D01*
Y71415D01*
X295891D01*
Y71498D01*
X295809D01*
Y71580D01*
Y71662D01*
X295727D01*
Y71744D01*
Y71827D01*
X295645D01*
Y71909D01*
X295563D01*
Y71991D01*
Y72073D01*
X295480D01*
Y72156D01*
X295398D01*
Y72238D01*
Y72320D01*
X295316D01*
Y72402D01*
Y72485D01*
X295234D01*
Y72567D01*
Y72649D01*
X295151D01*
Y72731D01*
X295069D01*
Y72813D01*
Y72896D01*
X294987D01*
Y72978D01*
Y73060D01*
X294905D01*
Y73143D01*
X294822D01*
Y73225D01*
Y73307D01*
X294740D01*
Y73389D01*
Y73471D01*
X294658D01*
Y73554D01*
X294576D01*
Y73636D01*
Y73718D01*
X294493D01*
Y73800D01*
Y73883D01*
X294411D01*
Y73965D01*
X294329D01*
Y74047D01*
Y74129D01*
X294247D01*
Y74212D01*
Y74294D01*
X294164D01*
Y74376D01*
X294082D01*
Y74459D01*
Y74541D01*
X294000D01*
Y74623D01*
Y74705D01*
X293917D01*
Y74787D01*
X293835D01*
Y74870D01*
Y74952D01*
X300251D01*
Y74870D01*
Y74787D01*
X300333D01*
Y74705D01*
X300415D01*
Y74623D01*
Y74541D01*
X300498D01*
Y74459D01*
Y74376D01*
X300580D01*
Y74294D01*
Y74212D01*
X300662D01*
Y74129D01*
Y74047D01*
X300744D01*
Y73965D01*
Y73883D01*
X300827D01*
Y73800D01*
Y73718D01*
X300909D01*
Y73636D01*
Y73554D01*
X300991D01*
Y73471D01*
Y73389D01*
X301073D01*
Y73307D01*
Y73225D01*
X301155D01*
Y73143D01*
X301238D01*
Y73060D01*
Y72978D01*
X301320D01*
Y72896D01*
Y72813D01*
X301402D01*
Y72731D01*
Y72649D01*
X301484D01*
Y72567D01*
Y72485D01*
X301567D01*
Y72402D01*
Y72320D01*
X301649D01*
Y72238D01*
Y72156D01*
X301731D01*
Y72073D01*
Y71991D01*
X301814D01*
Y71909D01*
Y71827D01*
X301896D01*
Y71744D01*
Y71662D01*
X301978D01*
Y71580D01*
X302060D01*
Y71498D01*
Y71415D01*
X302143D01*
Y71333D01*
Y71251D01*
X302225D01*
Y71169D01*
Y71086D01*
X302307D01*
Y71004D01*
Y70922D01*
X302389D01*
Y70840D01*
X302554D01*
Y70922D01*
X302636D01*
Y71004D01*
X302718D01*
Y71086D01*
X302800D01*
Y71169D01*
X302883D01*
Y71251D01*
X302965D01*
Y71333D01*
X303047D01*
Y71415D01*
X303130D01*
Y71498D01*
X303212D01*
Y71580D01*
X303376D01*
Y71662D01*
X303458D01*
Y71744D01*
X303541D01*
Y71827D01*
X303623D01*
Y71909D01*
X303705D01*
Y71991D01*
X303787D01*
Y72073D01*
X303870D01*
Y72156D01*
X303952D01*
Y72238D01*
X304034D01*
Y72320D01*
X304117D01*
Y72402D01*
X304199D01*
Y72485D01*
X304281D01*
Y72567D01*
X304363D01*
Y72649D01*
X304446D01*
Y72731D01*
X304528D01*
Y72813D01*
X304610D01*
Y72896D01*
X304692D01*
Y72978D01*
X304774D01*
Y73060D01*
X304857D01*
Y73143D01*
X304939D01*
Y73225D01*
X305103D01*
Y73307D01*
X305186D01*
Y73389D01*
X305268D01*
Y73471D01*
X305350D01*
Y73554D01*
X305433D01*
Y73636D01*
X305515D01*
Y73718D01*
X305597D01*
Y73800D01*
X305679D01*
Y73883D01*
X305762D01*
Y73965D01*
X305844D01*
Y74047D01*
X305926D01*
Y74129D01*
X306008D01*
Y74212D01*
X306090D01*
Y74294D01*
X306173D01*
Y74376D01*
X306255D01*
Y74459D01*
X306337D01*
Y74541D01*
X306419D01*
Y74623D01*
X306502D01*
Y74705D01*
X306584D01*
Y74787D01*
X306666D01*
Y74870D01*
X306749D01*
Y74952D01*
X313904D01*
Y74870D01*
D02*
G37*
G36*
X279771D02*
X279688D01*
Y74787D01*
Y74705D01*
Y74623D01*
X279606D01*
Y74541D01*
Y74459D01*
Y74376D01*
Y74294D01*
X279524D01*
Y74212D01*
Y74129D01*
Y74047D01*
X279442D01*
Y73965D01*
Y73883D01*
Y73800D01*
X279359D01*
Y73718D01*
Y73636D01*
Y73554D01*
X279277D01*
Y73471D01*
Y73389D01*
Y73307D01*
X279195D01*
Y73225D01*
Y73143D01*
Y73060D01*
X279113D01*
Y72978D01*
Y72896D01*
Y72813D01*
Y72731D01*
X279030D01*
Y72649D01*
Y72567D01*
Y72485D01*
X278948D01*
Y72402D01*
Y72320D01*
Y72238D01*
X278866D01*
Y72156D01*
Y72073D01*
Y71991D01*
X278784D01*
Y71909D01*
Y71827D01*
Y71744D01*
X278701D01*
Y71662D01*
Y71580D01*
Y71498D01*
Y71415D01*
X278619D01*
Y71333D01*
Y71251D01*
Y71169D01*
X278537D01*
Y71086D01*
Y71004D01*
Y70922D01*
X278455D01*
Y70840D01*
Y70757D01*
Y70675D01*
X278372D01*
Y70593D01*
Y70511D01*
Y70428D01*
X278290D01*
Y70346D01*
Y70264D01*
Y70182D01*
Y70099D01*
X278208D01*
Y70017D01*
Y69935D01*
Y69853D01*
X278126D01*
Y69770D01*
Y69688D01*
Y69606D01*
X278043D01*
Y69524D01*
Y69441D01*
Y69359D01*
X277961D01*
Y69277D01*
Y69195D01*
Y69112D01*
X277879D01*
Y69030D01*
Y68948D01*
Y68866D01*
X277797D01*
Y68783D01*
Y68701D01*
Y68619D01*
Y68537D01*
X277714D01*
Y68454D01*
Y68372D01*
Y68290D01*
X277632D01*
Y68208D01*
Y68125D01*
Y68043D01*
X277550D01*
Y67961D01*
Y67879D01*
Y67796D01*
Y67714D01*
X277468D01*
Y67632D01*
X277385D01*
Y67550D01*
X277303D01*
Y67467D01*
Y67385D01*
X277221D01*
Y67303D01*
X277139D01*
Y67221D01*
X277056D01*
Y67138D01*
X276974D01*
Y67056D01*
Y66974D01*
X276892D01*
Y66892D01*
X276810D01*
Y66809D01*
X276727D01*
Y66727D01*
X276645D01*
Y66645D01*
Y66563D01*
X276563D01*
Y66480D01*
X276481D01*
Y66398D01*
X276398D01*
Y66316D01*
Y66234D01*
X276316D01*
Y66151D01*
X276234D01*
Y66069D01*
X276152D01*
Y65987D01*
X276069D01*
Y65905D01*
Y65822D01*
X275987D01*
Y65740D01*
X275905D01*
Y65658D01*
X275823D01*
Y65576D01*
X275740D01*
Y65493D01*
Y65411D01*
X275658D01*
Y65329D01*
X275576D01*
Y65247D01*
X275494D01*
Y65164D01*
X275411D01*
Y65082D01*
Y65000D01*
X275329D01*
Y64918D01*
X275247D01*
Y64835D01*
X275165D01*
Y64753D01*
Y64671D01*
X275082D01*
Y64589D01*
X275000D01*
Y64506D01*
X274918D01*
Y64424D01*
X274836D01*
Y64342D01*
Y64260D01*
X274753D01*
Y64177D01*
X274671D01*
Y64095D01*
X274589D01*
Y64013D01*
X274507D01*
Y63931D01*
Y63848D01*
X274424D01*
Y63766D01*
X274342D01*
Y63684D01*
X274260D01*
Y63602D01*
Y63519D01*
X274178D01*
Y63437D01*
X274095D01*
Y63355D01*
X274013D01*
Y63273D01*
X273931D01*
Y63190D01*
Y63108D01*
X273849D01*
Y63026D01*
X273766D01*
Y62944D01*
X273684D01*
Y62861D01*
X273602D01*
Y62779D01*
Y62697D01*
X273520D01*
Y62615D01*
X273437D01*
Y62532D01*
X273355D01*
Y62450D01*
Y62368D01*
X273273D01*
Y62286D01*
X273191D01*
Y62203D01*
X273108D01*
Y62121D01*
X273026D01*
Y62039D01*
Y61957D01*
X272944D01*
Y61874D01*
X272862D01*
Y61792D01*
X272779D01*
Y61710D01*
X272697D01*
Y61628D01*
Y61545D01*
X272615D01*
Y61463D01*
X272533D01*
Y61381D01*
X272450D01*
Y61299D01*
Y61216D01*
X272368D01*
Y61134D01*
X272286D01*
Y61052D01*
X272204D01*
Y60970D01*
X272121D01*
Y60887D01*
Y60805D01*
X272039D01*
Y60723D01*
X271957D01*
Y60641D01*
X271875D01*
Y60558D01*
X271792D01*
Y60476D01*
X268173D01*
Y60558D01*
Y60641D01*
Y60723D01*
Y60805D01*
Y60887D01*
Y60970D01*
X268091D01*
Y61052D01*
Y61134D01*
Y61216D01*
Y61299D01*
Y61381D01*
Y61463D01*
Y61545D01*
X268009D01*
Y61628D01*
Y61710D01*
Y61792D01*
Y61874D01*
Y61957D01*
Y62039D01*
X267927D01*
Y62121D01*
Y62203D01*
Y62286D01*
Y62368D01*
Y62450D01*
Y62532D01*
X267844D01*
Y62615D01*
Y62697D01*
Y62779D01*
Y62861D01*
Y62944D01*
Y63026D01*
Y63108D01*
X267762D01*
Y63190D01*
Y63273D01*
Y63355D01*
Y63437D01*
Y63519D01*
Y63602D01*
X267680D01*
Y63684D01*
Y63766D01*
Y63848D01*
Y63931D01*
Y64013D01*
Y64095D01*
Y64177D01*
X267598D01*
Y64260D01*
Y64342D01*
Y64424D01*
Y64506D01*
Y64589D01*
Y64671D01*
X267515D01*
Y64753D01*
Y64835D01*
Y64918D01*
Y65000D01*
Y65082D01*
Y65164D01*
Y65247D01*
X267433D01*
Y65329D01*
Y65411D01*
Y65493D01*
Y65576D01*
Y65658D01*
Y65740D01*
X267351D01*
Y65822D01*
Y65905D01*
Y65987D01*
Y66069D01*
Y66151D01*
Y66234D01*
X267269D01*
Y66316D01*
Y66398D01*
Y66480D01*
Y66563D01*
Y66645D01*
Y66727D01*
Y66809D01*
X267186D01*
Y66892D01*
Y66974D01*
Y67056D01*
Y67138D01*
Y67221D01*
Y67303D01*
X267104D01*
Y67385D01*
Y67467D01*
Y67550D01*
Y67632D01*
Y67714D01*
Y67796D01*
Y67879D01*
X267022D01*
Y67961D01*
Y68043D01*
Y68125D01*
Y68208D01*
Y68290D01*
Y68372D01*
X266940D01*
Y68454D01*
Y68537D01*
Y68619D01*
Y68701D01*
Y68783D01*
Y68866D01*
Y68948D01*
X266857D01*
Y69030D01*
Y69112D01*
Y69195D01*
Y69277D01*
Y69359D01*
Y69441D01*
X266775D01*
Y69524D01*
Y69606D01*
Y69688D01*
Y69770D01*
Y69853D01*
X266611D01*
Y69770D01*
Y69688D01*
Y69606D01*
Y69524D01*
X266528D01*
Y69441D01*
Y69359D01*
Y69277D01*
X266446D01*
Y69195D01*
Y69112D01*
Y69030D01*
X266364D01*
Y68948D01*
Y68866D01*
Y68783D01*
X266282D01*
Y68701D01*
Y68619D01*
Y68537D01*
Y68454D01*
X266199D01*
Y68372D01*
Y68290D01*
Y68208D01*
X266117D01*
Y68125D01*
Y68043D01*
Y67961D01*
X266035D01*
Y67879D01*
Y67796D01*
Y67714D01*
X265953D01*
Y67632D01*
Y67550D01*
Y67467D01*
X265870D01*
Y67385D01*
Y67303D01*
Y67221D01*
Y67138D01*
X265788D01*
Y67056D01*
Y66974D01*
Y66892D01*
X265706D01*
Y66809D01*
Y66727D01*
Y66645D01*
X265624D01*
Y66563D01*
Y66480D01*
Y66398D01*
X265541D01*
Y66316D01*
Y66234D01*
Y66151D01*
Y66069D01*
X265459D01*
Y65987D01*
Y65905D01*
Y65822D01*
X265377D01*
Y65740D01*
Y65658D01*
Y65576D01*
X265295D01*
Y65493D01*
Y65411D01*
Y65329D01*
X265212D01*
Y65247D01*
Y65164D01*
Y65082D01*
X265130D01*
Y65000D01*
Y64918D01*
Y64835D01*
Y64753D01*
X265048D01*
Y64671D01*
Y64589D01*
Y64506D01*
X264966D01*
Y64424D01*
Y64342D01*
Y64260D01*
X264883D01*
Y64177D01*
Y64095D01*
Y64013D01*
X264801D01*
Y63931D01*
Y63848D01*
Y63766D01*
X264719D01*
Y63684D01*
Y63602D01*
Y63519D01*
Y63437D01*
X264637D01*
Y63355D01*
Y63273D01*
Y63190D01*
X264554D01*
Y63108D01*
Y63026D01*
Y62944D01*
X264472D01*
Y62861D01*
Y62779D01*
Y62697D01*
X264390D01*
Y62615D01*
Y62532D01*
Y62450D01*
Y62368D01*
X264308D01*
Y62286D01*
Y62203D01*
Y62121D01*
X264225D01*
Y62039D01*
Y61957D01*
Y61874D01*
X264143D01*
Y61792D01*
Y61710D01*
Y61628D01*
X264061D01*
Y61545D01*
Y61463D01*
Y61381D01*
X263979D01*
Y61299D01*
Y61216D01*
Y61134D01*
Y61052D01*
X263896D01*
Y60970D01*
Y60887D01*
Y60805D01*
X263814D01*
Y60723D01*
Y60641D01*
Y60558D01*
Y60476D01*
X258715D01*
Y60558D01*
X258797D01*
Y60641D01*
Y60723D01*
X258879D01*
Y60805D01*
Y60887D01*
Y60970D01*
X258961D01*
Y61052D01*
Y61134D01*
Y61216D01*
Y61299D01*
X259044D01*
Y61381D01*
Y61463D01*
Y61545D01*
X259126D01*
Y61628D01*
Y61710D01*
Y61792D01*
Y61874D01*
X259208D01*
Y61957D01*
Y62039D01*
Y62121D01*
X259290D01*
Y62203D01*
Y62286D01*
Y62368D01*
X259373D01*
Y62450D01*
Y62532D01*
Y62615D01*
Y62697D01*
X259455D01*
Y62779D01*
Y62861D01*
Y62944D01*
X259537D01*
Y63026D01*
Y63108D01*
Y63190D01*
X259619D01*
Y63273D01*
Y63355D01*
Y63437D01*
X259702D01*
Y63519D01*
Y63602D01*
Y63684D01*
Y63766D01*
X259784D01*
Y63848D01*
Y63931D01*
Y64013D01*
X259866D01*
Y64095D01*
Y64177D01*
Y64260D01*
Y64342D01*
X259948D01*
Y64424D01*
Y64506D01*
Y64589D01*
X260031D01*
Y64671D01*
Y64753D01*
Y64835D01*
X260113D01*
Y64918D01*
Y65000D01*
Y65082D01*
Y65164D01*
X260195D01*
Y65247D01*
Y65329D01*
Y65411D01*
X260277D01*
Y65493D01*
Y65576D01*
Y65658D01*
X260360D01*
Y65740D01*
Y65822D01*
Y65905D01*
Y65987D01*
X260442D01*
Y66069D01*
Y66151D01*
Y66234D01*
X260524D01*
Y66316D01*
Y66398D01*
Y66480D01*
X260606D01*
Y66563D01*
Y66645D01*
Y66727D01*
Y66809D01*
X260689D01*
Y66892D01*
Y66974D01*
Y67056D01*
X260771D01*
Y67138D01*
Y67221D01*
Y67303D01*
X260853D01*
Y67385D01*
Y67467D01*
Y67550D01*
Y67632D01*
X260935D01*
Y67714D01*
Y67796D01*
Y67879D01*
X261018D01*
Y67961D01*
Y68043D01*
Y68125D01*
X261100D01*
Y68208D01*
Y68290D01*
Y68372D01*
Y68454D01*
X261182D01*
Y68537D01*
Y68619D01*
Y68701D01*
X261264D01*
Y68783D01*
Y68866D01*
Y68948D01*
X261347D01*
Y69030D01*
Y69112D01*
Y69195D01*
Y69277D01*
X261429D01*
Y69359D01*
Y69441D01*
Y69524D01*
X261511D01*
Y69606D01*
Y69688D01*
Y69770D01*
X261593D01*
Y69853D01*
Y69935D01*
Y70017D01*
Y70099D01*
X261676D01*
Y70182D01*
Y70264D01*
Y70346D01*
X261758D01*
Y70428D01*
Y70511D01*
Y70593D01*
X261840D01*
Y70675D01*
Y70757D01*
Y70840D01*
Y70922D01*
X261922D01*
Y71004D01*
Y71086D01*
Y71169D01*
X262005D01*
Y71251D01*
Y71333D01*
Y71415D01*
X262087D01*
Y71498D01*
Y71580D01*
Y71662D01*
Y71744D01*
X262169D01*
Y71827D01*
Y71909D01*
Y71991D01*
X262251D01*
Y72073D01*
Y72156D01*
Y72238D01*
X262334D01*
Y72320D01*
Y72402D01*
Y72485D01*
Y72567D01*
X262416D01*
Y72649D01*
Y72731D01*
Y72813D01*
X262498D01*
Y72896D01*
Y72978D01*
Y73060D01*
X262580D01*
Y73143D01*
Y73225D01*
Y73307D01*
Y73389D01*
X262663D01*
Y73471D01*
Y73554D01*
Y73636D01*
X262745D01*
Y73718D01*
Y73800D01*
Y73883D01*
X262827D01*
Y73965D01*
Y74047D01*
Y74129D01*
Y74212D01*
X262909D01*
Y74294D01*
Y74376D01*
Y74459D01*
X262992D01*
Y74541D01*
Y74623D01*
Y74705D01*
X263074D01*
Y74787D01*
Y74870D01*
Y74952D01*
X269572D01*
Y74870D01*
Y74787D01*
X269654D01*
Y74705D01*
Y74623D01*
Y74541D01*
Y74459D01*
X269736D01*
Y74376D01*
Y74294D01*
Y74212D01*
Y74129D01*
X269818D01*
Y74047D01*
Y73965D01*
Y73883D01*
Y73800D01*
Y73718D01*
X269901D01*
Y73636D01*
Y73554D01*
Y73471D01*
Y73389D01*
X269983D01*
Y73307D01*
Y73225D01*
Y73143D01*
Y73060D01*
X270065D01*
Y72978D01*
Y72896D01*
Y72813D01*
Y72731D01*
X270147D01*
Y72649D01*
Y72567D01*
Y72485D01*
Y72402D01*
Y72320D01*
X270230D01*
Y72238D01*
Y72156D01*
Y72073D01*
Y71991D01*
X270312D01*
Y71909D01*
Y71827D01*
Y71744D01*
Y71662D01*
X270394D01*
Y71580D01*
Y71498D01*
Y71415D01*
Y71333D01*
Y71251D01*
X270476D01*
Y71169D01*
Y71086D01*
Y71004D01*
Y70922D01*
X270559D01*
Y70840D01*
Y70757D01*
Y70675D01*
Y70593D01*
X270641D01*
Y70511D01*
Y70428D01*
Y70346D01*
Y70264D01*
X270723D01*
Y70182D01*
Y70099D01*
Y70017D01*
Y69935D01*
Y69853D01*
X270805D01*
Y69770D01*
Y69688D01*
Y69606D01*
Y69524D01*
X270888D01*
Y69441D01*
Y69359D01*
Y69277D01*
Y69195D01*
X270970D01*
Y69112D01*
Y69030D01*
Y68948D01*
Y68866D01*
Y68783D01*
X271052D01*
Y68701D01*
Y68619D01*
Y68537D01*
Y68454D01*
X271134D01*
Y68372D01*
Y68290D01*
Y68208D01*
Y68125D01*
X271217D01*
Y68043D01*
Y67961D01*
Y67879D01*
Y67796D01*
X271299D01*
Y67714D01*
Y67632D01*
Y67550D01*
Y67467D01*
Y67385D01*
X271381D01*
Y67303D01*
Y67221D01*
Y67138D01*
Y67056D01*
X271463D01*
Y66974D01*
Y66892D01*
Y66809D01*
Y66727D01*
X271546D01*
Y66645D01*
Y66563D01*
Y66480D01*
Y66398D01*
Y66316D01*
X271628D01*
Y66234D01*
Y66151D01*
Y66069D01*
Y65987D01*
X271710D01*
Y65905D01*
Y65822D01*
Y65740D01*
Y65658D01*
Y65576D01*
X271875D01*
Y65658D01*
X271957D01*
Y65740D01*
Y65822D01*
X272039D01*
Y65905D01*
X272121D01*
Y65987D01*
Y66069D01*
X272204D01*
Y66151D01*
X272286D01*
Y66234D01*
Y66316D01*
X272368D01*
Y66398D01*
X272450D01*
Y66480D01*
X272533D01*
Y66563D01*
Y66645D01*
X272615D01*
Y66727D01*
X272697D01*
Y66809D01*
Y66892D01*
X272779D01*
Y66974D01*
X272862D01*
Y67056D01*
Y67138D01*
X272944D01*
Y67221D01*
X273026D01*
Y67303D01*
X273108D01*
Y67385D01*
Y67467D01*
X273191D01*
Y67550D01*
X273273D01*
Y67632D01*
Y67714D01*
X273355D01*
Y67796D01*
X273437D01*
Y67879D01*
Y67961D01*
X273520D01*
Y68043D01*
X273602D01*
Y68125D01*
X273684D01*
Y68208D01*
Y68290D01*
X273766D01*
Y68372D01*
X273849D01*
Y68454D01*
Y68537D01*
X273931D01*
Y68619D01*
X274013D01*
Y68701D01*
Y68783D01*
X274095D01*
Y68866D01*
X274178D01*
Y68948D01*
X274260D01*
Y69030D01*
Y69112D01*
X274342D01*
Y69195D01*
X274424D01*
Y69277D01*
Y69359D01*
X274507D01*
Y69441D01*
X274589D01*
Y69524D01*
Y69606D01*
X274671D01*
Y69688D01*
X274753D01*
Y69770D01*
X274836D01*
Y69853D01*
Y69935D01*
X274918D01*
Y70017D01*
X275000D01*
Y70099D01*
Y70182D01*
X275082D01*
Y70264D01*
X275165D01*
Y70346D01*
Y70428D01*
X275247D01*
Y70511D01*
X275329D01*
Y70593D01*
X275411D01*
Y70675D01*
Y70757D01*
X275494D01*
Y70840D01*
X275576D01*
Y70922D01*
Y71004D01*
X275658D01*
Y71086D01*
X275740D01*
Y71169D01*
Y71251D01*
X275823D01*
Y71333D01*
X275905D01*
Y71415D01*
X275987D01*
Y71498D01*
Y71580D01*
X276069D01*
Y71662D01*
X276152D01*
Y71744D01*
Y71827D01*
X276234D01*
Y71909D01*
X276316D01*
Y71991D01*
Y72073D01*
X276398D01*
Y72156D01*
X276481D01*
Y72238D01*
X276563D01*
Y72320D01*
Y72402D01*
X276645D01*
Y72485D01*
X276727D01*
Y72567D01*
Y72649D01*
X276810D01*
Y72731D01*
X276892D01*
Y72813D01*
Y72896D01*
X276974D01*
Y72978D01*
X277056D01*
Y73060D01*
X277139D01*
Y73143D01*
Y73225D01*
X277221D01*
Y73307D01*
X277303D01*
Y73389D01*
Y73471D01*
X277385D01*
Y73554D01*
X277468D01*
Y73636D01*
Y73718D01*
X277550D01*
Y73800D01*
X277632D01*
Y73883D01*
X277714D01*
Y73965D01*
Y74047D01*
X277797D01*
Y74129D01*
X277879D01*
Y74212D01*
Y74294D01*
X277961D01*
Y74376D01*
X278043D01*
Y74459D01*
Y74541D01*
X278126D01*
Y74623D01*
X278208D01*
Y74705D01*
X278290D01*
Y74787D01*
Y74870D01*
X278372D01*
Y74952D01*
X279771D01*
Y74870D01*
D02*
G37*
G36*
X326077D02*
X326817D01*
Y74787D01*
X327311D01*
Y74705D01*
X327640D01*
Y74623D01*
X327969D01*
Y74541D01*
X328216D01*
Y74459D01*
X328462D01*
Y74376D01*
X328709D01*
Y74294D01*
X328874D01*
Y74212D01*
X329120D01*
Y74129D01*
X329285D01*
Y74047D01*
X329449D01*
Y73965D01*
X329532D01*
Y73883D01*
X329696D01*
Y73800D01*
X329861D01*
Y73718D01*
X329943D01*
Y73636D01*
X330025D01*
Y73554D01*
X330190D01*
Y73471D01*
X330272D01*
Y73389D01*
X330354D01*
Y73307D01*
X330436D01*
Y73225D01*
X330519D01*
Y73143D01*
X330601D01*
Y73060D01*
X330683D01*
Y72978D01*
X330765D01*
Y72896D01*
X330848D01*
Y72813D01*
X330930D01*
Y72731D01*
Y72649D01*
X331012D01*
Y72567D01*
X331094D01*
Y72485D01*
Y72402D01*
X331177D01*
Y72320D01*
Y72238D01*
X331259D01*
Y72156D01*
Y72073D01*
X331341D01*
Y71991D01*
Y71909D01*
X331423D01*
Y71827D01*
Y71744D01*
Y71662D01*
Y71580D01*
X331506D01*
Y71498D01*
Y71415D01*
Y71333D01*
Y71251D01*
Y71169D01*
Y71086D01*
X331588D01*
Y71004D01*
Y70922D01*
Y70840D01*
Y70757D01*
Y70675D01*
Y70593D01*
Y70511D01*
X331506D01*
Y70428D01*
Y70346D01*
Y70264D01*
Y70182D01*
Y70099D01*
Y70017D01*
Y69935D01*
X331423D01*
Y69853D01*
Y69770D01*
Y69688D01*
Y69606D01*
X331341D01*
Y69524D01*
Y69441D01*
Y69359D01*
X331259D01*
Y69277D01*
Y69195D01*
X331177D01*
Y69112D01*
Y69030D01*
Y68948D01*
X331094D01*
Y68866D01*
Y68783D01*
X331012D01*
Y68701D01*
X330930D01*
Y68619D01*
Y68537D01*
X330848D01*
Y68454D01*
Y68372D01*
X330765D01*
Y68290D01*
X330683D01*
Y68208D01*
X330601D01*
Y68125D01*
Y68043D01*
X330519D01*
Y67961D01*
X330436D01*
Y67879D01*
X330354D01*
Y67796D01*
X330272D01*
Y67714D01*
X330190D01*
Y67632D01*
X330107D01*
Y67550D01*
X330025D01*
Y67467D01*
X329943D01*
Y67385D01*
X329861D01*
Y67303D01*
X329778D01*
Y67221D01*
X329614D01*
Y67138D01*
X329532D01*
Y67056D01*
X329449D01*
Y66974D01*
X329285D01*
Y66892D01*
X329203D01*
Y66809D01*
X329038D01*
Y66727D01*
X328874D01*
Y66645D01*
X328791D01*
Y66563D01*
X328627D01*
Y66480D01*
X328462D01*
Y66398D01*
X328298D01*
Y66316D01*
X328133D01*
Y66234D01*
X327969D01*
Y66151D01*
X327722D01*
Y66069D01*
X327558D01*
Y65987D01*
X327311D01*
Y65905D01*
X327064D01*
Y65822D01*
X326817D01*
Y65740D01*
X326488D01*
Y65658D01*
Y65576D01*
Y65493D01*
X326571D01*
Y65411D01*
Y65329D01*
X326653D01*
Y65247D01*
Y65164D01*
X326735D01*
Y65082D01*
X326817D01*
Y65000D01*
Y64918D01*
X326900D01*
Y64835D01*
Y64753D01*
X326982D01*
Y64671D01*
Y64589D01*
X327064D01*
Y64506D01*
Y64424D01*
X327146D01*
Y64342D01*
X327229D01*
Y64260D01*
Y64177D01*
X327311D01*
Y64095D01*
Y64013D01*
X327393D01*
Y63931D01*
Y63848D01*
X327475D01*
Y63766D01*
X327558D01*
Y63684D01*
Y63602D01*
X327640D01*
Y63519D01*
Y63437D01*
X327722D01*
Y63355D01*
Y63273D01*
X327804D01*
Y63190D01*
Y63108D01*
X327887D01*
Y63026D01*
X327969D01*
Y62944D01*
Y62861D01*
X328051D01*
Y62779D01*
Y62697D01*
X328133D01*
Y62615D01*
Y62532D01*
X328216D01*
Y62450D01*
X328298D01*
Y62368D01*
Y62286D01*
X328380D01*
Y62203D01*
Y62121D01*
X328462D01*
Y62039D01*
Y61957D01*
X328545D01*
Y61874D01*
Y61792D01*
X328627D01*
Y61710D01*
X328709D01*
Y61628D01*
Y61545D01*
X328791D01*
Y61463D01*
Y61381D01*
X328874D01*
Y61299D01*
Y61216D01*
X328956D01*
Y61134D01*
Y61052D01*
X329038D01*
Y60970D01*
X329120D01*
Y60887D01*
Y60805D01*
X329203D01*
Y60723D01*
Y60641D01*
X329285D01*
Y60558D01*
X329367D01*
Y60476D01*
X322869D01*
Y60558D01*
Y60641D01*
X322787D01*
Y60723D01*
Y60805D01*
X322705D01*
Y60887D01*
Y60970D01*
X322623D01*
Y61052D01*
Y61134D01*
X322540D01*
Y61216D01*
Y61299D01*
X322458D01*
Y61381D01*
Y61463D01*
Y61545D01*
X322376D01*
Y61628D01*
Y61710D01*
X322294D01*
Y61792D01*
Y61874D01*
X322211D01*
Y61957D01*
Y62039D01*
X322129D01*
Y62121D01*
Y62203D01*
X322047D01*
Y62286D01*
Y62368D01*
X321965D01*
Y62450D01*
Y62532D01*
X321882D01*
Y62615D01*
Y62697D01*
Y62779D01*
X321800D01*
Y62861D01*
Y62944D01*
X321718D01*
Y63026D01*
Y63108D01*
X321636D01*
Y63190D01*
Y63273D01*
X321553D01*
Y63355D01*
Y63437D01*
X321471D01*
Y63519D01*
Y63602D01*
X321389D01*
Y63684D01*
Y63766D01*
X321307D01*
Y63848D01*
Y63931D01*
Y64013D01*
X321224D01*
Y64095D01*
Y64177D01*
X321142D01*
Y64260D01*
Y64342D01*
X321060D01*
Y64424D01*
Y64506D01*
X320978D01*
Y64589D01*
Y64671D01*
X320896D01*
Y64753D01*
Y64835D01*
X320813D01*
Y64918D01*
Y65000D01*
X320731D01*
Y65082D01*
Y65164D01*
X318428D01*
Y65082D01*
Y65000D01*
X318346D01*
Y64918D01*
Y64835D01*
Y64753D01*
Y64671D01*
X318264D01*
Y64589D01*
Y64506D01*
Y64424D01*
X318181D01*
Y64342D01*
Y64260D01*
Y64177D01*
X318099D01*
Y64095D01*
Y64013D01*
Y63931D01*
X318017D01*
Y63848D01*
Y63766D01*
Y63684D01*
X317934D01*
Y63602D01*
Y63519D01*
Y63437D01*
Y63355D01*
X317852D01*
Y63273D01*
Y63190D01*
Y63108D01*
X317770D01*
Y63026D01*
Y62944D01*
Y62861D01*
X317688D01*
Y62779D01*
Y62697D01*
Y62615D01*
X317605D01*
Y62532D01*
Y62450D01*
Y62368D01*
Y62286D01*
X317523D01*
Y62203D01*
Y62121D01*
Y62039D01*
X317441D01*
Y61957D01*
Y61874D01*
Y61792D01*
X317359D01*
Y61710D01*
Y61628D01*
Y61545D01*
X317277D01*
Y61463D01*
Y61381D01*
Y61299D01*
X317194D01*
Y61216D01*
Y61134D01*
Y61052D01*
Y60970D01*
X317112D01*
Y60887D01*
Y60805D01*
Y60723D01*
X317030D01*
Y60641D01*
Y60558D01*
Y60476D01*
X311272D01*
Y60558D01*
Y60641D01*
X311354D01*
Y60723D01*
Y60805D01*
Y60887D01*
X311437D01*
Y60970D01*
Y61052D01*
Y61134D01*
X311519D01*
Y61216D01*
Y61299D01*
Y61381D01*
Y61463D01*
X311601D01*
Y61545D01*
Y61628D01*
Y61710D01*
X311684D01*
Y61792D01*
Y61874D01*
Y61957D01*
X311766D01*
Y62039D01*
Y62121D01*
Y62203D01*
Y62286D01*
X311848D01*
Y62368D01*
Y62450D01*
Y62532D01*
X311930D01*
Y62615D01*
Y62697D01*
Y62779D01*
X312013D01*
Y62861D01*
Y62944D01*
Y63026D01*
Y63108D01*
X312095D01*
Y63190D01*
Y63273D01*
Y63355D01*
X312177D01*
Y63437D01*
Y63519D01*
Y63602D01*
X312259D01*
Y63684D01*
Y63766D01*
Y63848D01*
Y63931D01*
X312341D01*
Y64013D01*
Y64095D01*
Y64177D01*
X312424D01*
Y64260D01*
Y64342D01*
Y64424D01*
X312506D01*
Y64506D01*
Y64589D01*
Y64671D01*
Y64753D01*
X312588D01*
Y64835D01*
Y64918D01*
Y65000D01*
X312670D01*
Y65082D01*
Y65164D01*
Y65247D01*
X312753D01*
Y65329D01*
Y65411D01*
Y65493D01*
Y65576D01*
X312835D01*
Y65658D01*
Y65740D01*
Y65822D01*
X312917D01*
Y65905D01*
Y65987D01*
Y66069D01*
Y66151D01*
X313000D01*
Y66234D01*
Y66316D01*
Y66398D01*
X313082D01*
Y66480D01*
Y66563D01*
Y66645D01*
X313164D01*
Y66727D01*
Y66809D01*
Y66892D01*
X313246D01*
Y66974D01*
Y67056D01*
Y67138D01*
Y67221D01*
X313329D01*
Y67303D01*
Y67385D01*
Y67467D01*
X313411D01*
Y67550D01*
Y67632D01*
Y67714D01*
X313493D01*
Y67796D01*
Y67879D01*
Y67961D01*
Y68043D01*
X313575D01*
Y68125D01*
Y68208D01*
Y68290D01*
X313657D01*
Y68372D01*
Y68454D01*
Y68537D01*
Y68619D01*
X313740D01*
Y68701D01*
Y68783D01*
Y68866D01*
X313822D01*
Y68948D01*
Y69030D01*
Y69112D01*
X313904D01*
Y69195D01*
Y69277D01*
Y69359D01*
X313986D01*
Y69441D01*
Y69524D01*
Y69606D01*
Y69688D01*
X314069D01*
Y69770D01*
Y69853D01*
Y69935D01*
X314151D01*
Y70017D01*
Y70099D01*
Y70182D01*
X314233D01*
Y70264D01*
Y70346D01*
Y70428D01*
Y70511D01*
X314316D01*
Y70593D01*
Y70675D01*
Y70757D01*
X314398D01*
Y70840D01*
Y70922D01*
Y71004D01*
X314480D01*
Y71086D01*
Y71169D01*
Y71251D01*
Y71333D01*
X314562D01*
Y71415D01*
Y71498D01*
Y71580D01*
X314645D01*
Y71662D01*
Y71744D01*
Y71827D01*
Y71909D01*
X314727D01*
Y71991D01*
Y72073D01*
Y72156D01*
X314809D01*
Y72238D01*
Y72320D01*
Y72402D01*
X314891D01*
Y72485D01*
Y72567D01*
Y72649D01*
X314973D01*
Y72731D01*
Y72813D01*
Y72896D01*
Y72978D01*
X315056D01*
Y73060D01*
Y73143D01*
Y73225D01*
X315138D01*
Y73307D01*
Y73389D01*
Y73471D01*
X315220D01*
Y73554D01*
Y73636D01*
Y73718D01*
Y73800D01*
X315302D01*
Y73883D01*
Y73965D01*
Y74047D01*
X315385D01*
Y74129D01*
Y74212D01*
Y74294D01*
Y74376D01*
X315467D01*
Y74459D01*
Y74541D01*
Y74623D01*
X315549D01*
Y74705D01*
Y74787D01*
Y74870D01*
Y74952D01*
X326077D01*
Y74870D01*
D02*
G37*
G36*
X293588D02*
Y74787D01*
Y74705D01*
X293506D01*
Y74623D01*
Y74541D01*
Y74459D01*
X293424D01*
Y74376D01*
Y74294D01*
Y74212D01*
Y74129D01*
X293342D01*
Y74047D01*
Y73965D01*
Y73883D01*
X293260D01*
Y73800D01*
Y73718D01*
Y73636D01*
X293177D01*
Y73554D01*
Y73471D01*
Y73389D01*
X293095D01*
Y73307D01*
Y73225D01*
Y73143D01*
Y73060D01*
X293013D01*
Y72978D01*
Y72896D01*
Y72813D01*
X292931D01*
Y72731D01*
Y72649D01*
Y72567D01*
X292848D01*
Y72485D01*
Y72402D01*
Y72320D01*
Y72238D01*
X292766D01*
Y72156D01*
Y72073D01*
Y71991D01*
X292684D01*
Y71909D01*
Y71827D01*
Y71744D01*
Y71662D01*
X292602D01*
Y71580D01*
Y71498D01*
Y71415D01*
X292519D01*
Y71333D01*
Y71251D01*
Y71169D01*
X292437D01*
Y71086D01*
Y71004D01*
Y70922D01*
X292355D01*
Y70840D01*
Y70757D01*
Y70675D01*
Y70593D01*
X292273D01*
Y70511D01*
Y70428D01*
Y70346D01*
X292190D01*
Y70264D01*
Y70182D01*
Y70099D01*
X292108D01*
Y70017D01*
Y69935D01*
Y69853D01*
Y69770D01*
X292026D01*
Y69688D01*
Y69606D01*
Y69524D01*
X291944D01*
Y69441D01*
Y69359D01*
Y69277D01*
X291861D01*
Y69195D01*
Y69112D01*
Y69030D01*
Y68948D01*
X291779D01*
Y68866D01*
Y68783D01*
Y68701D01*
X291697D01*
Y68619D01*
Y68537D01*
Y68454D01*
Y68372D01*
X291615D01*
Y68290D01*
Y68208D01*
Y68125D01*
X291532D01*
Y68043D01*
Y67961D01*
Y67879D01*
X291450D01*
Y67796D01*
Y67714D01*
Y67632D01*
X291368D01*
Y67550D01*
Y67467D01*
Y67385D01*
Y67303D01*
X291286D01*
Y67221D01*
Y67138D01*
Y67056D01*
X291203D01*
Y66974D01*
Y66892D01*
Y66809D01*
X291121D01*
Y66727D01*
Y66645D01*
Y66563D01*
Y66480D01*
X291039D01*
Y66398D01*
Y66316D01*
Y66234D01*
X290957D01*
Y66151D01*
Y66069D01*
Y65987D01*
Y65905D01*
X290874D01*
Y65822D01*
Y65740D01*
Y65658D01*
X290792D01*
Y65576D01*
Y65493D01*
Y65411D01*
X290710D01*
Y65329D01*
Y65247D01*
Y65164D01*
X290628D01*
Y65082D01*
Y65000D01*
Y64918D01*
Y64835D01*
X290545D01*
Y64753D01*
Y64671D01*
Y64589D01*
X290463D01*
Y64506D01*
Y64424D01*
Y64342D01*
X290381D01*
Y64260D01*
Y64177D01*
Y64095D01*
Y64013D01*
X290299D01*
Y63931D01*
Y63848D01*
Y63766D01*
X290216D01*
Y63684D01*
Y63602D01*
Y63519D01*
Y63437D01*
X290134D01*
Y63355D01*
Y63273D01*
Y63190D01*
X290052D01*
Y63108D01*
Y63026D01*
Y62944D01*
X289970D01*
Y62861D01*
Y62779D01*
Y62697D01*
Y62615D01*
X289887D01*
Y62532D01*
Y62450D01*
Y62368D01*
X289805D01*
Y62286D01*
Y62203D01*
Y62121D01*
X289723D01*
Y62039D01*
Y61957D01*
Y61874D01*
X289641D01*
Y61792D01*
Y61710D01*
Y61628D01*
Y61545D01*
X289558D01*
Y61463D01*
Y61381D01*
Y61299D01*
X289476D01*
Y61216D01*
Y61134D01*
Y61052D01*
Y60970D01*
X289394D01*
Y60887D01*
Y60805D01*
Y60723D01*
X289312D01*
Y60641D01*
Y60558D01*
Y60476D01*
X283554D01*
Y60558D01*
Y60641D01*
X283636D01*
Y60723D01*
Y60805D01*
Y60887D01*
X283719D01*
Y60970D01*
Y61052D01*
Y61134D01*
X283801D01*
Y61216D01*
Y61299D01*
Y61381D01*
Y61463D01*
X283883D01*
Y61545D01*
Y61628D01*
Y61710D01*
X283965D01*
Y61792D01*
Y61874D01*
Y61957D01*
X284048D01*
Y62039D01*
Y62121D01*
Y62203D01*
Y62286D01*
X284130D01*
Y62368D01*
Y62450D01*
Y62532D01*
X284212D01*
Y62615D01*
Y62697D01*
Y62779D01*
X284294D01*
Y62861D01*
Y62944D01*
Y63026D01*
Y63108D01*
X284377D01*
Y63190D01*
Y63273D01*
Y63355D01*
X284459D01*
Y63437D01*
Y63519D01*
Y63602D01*
X284541D01*
Y63684D01*
Y63766D01*
Y63848D01*
Y63931D01*
X284623D01*
Y64013D01*
Y64095D01*
Y64177D01*
X284706D01*
Y64260D01*
Y64342D01*
Y64424D01*
X284788D01*
Y64506D01*
Y64589D01*
Y64671D01*
Y64753D01*
X284870D01*
Y64835D01*
Y64918D01*
Y65000D01*
X284952D01*
Y65082D01*
Y65164D01*
Y65247D01*
X285035D01*
Y65329D01*
Y65411D01*
Y65493D01*
Y65576D01*
X285117D01*
Y65658D01*
Y65740D01*
Y65822D01*
X285199D01*
Y65905D01*
Y65987D01*
Y66069D01*
X285281D01*
Y66151D01*
Y66234D01*
Y66316D01*
Y66398D01*
X285364D01*
Y66480D01*
Y66563D01*
Y66645D01*
X285446D01*
Y66727D01*
Y66809D01*
Y66892D01*
X285528D01*
Y66974D01*
Y67056D01*
Y67138D01*
Y67221D01*
X285610D01*
Y67303D01*
Y67385D01*
Y67467D01*
X285693D01*
Y67550D01*
Y67632D01*
Y67714D01*
X285775D01*
Y67796D01*
Y67879D01*
Y67961D01*
Y68043D01*
X285857D01*
Y68125D01*
Y68208D01*
Y68290D01*
X285939D01*
Y68372D01*
Y68454D01*
Y68537D01*
X286022D01*
Y68619D01*
Y68701D01*
Y68783D01*
Y68866D01*
X286104D01*
Y68948D01*
Y69030D01*
Y69112D01*
X286186D01*
Y69195D01*
Y69277D01*
Y69359D01*
X286268D01*
Y69441D01*
Y69524D01*
Y69606D01*
Y69688D01*
X286351D01*
Y69770D01*
Y69853D01*
Y69935D01*
X286433D01*
Y70017D01*
Y70099D01*
Y70182D01*
X286515D01*
Y70264D01*
Y70346D01*
Y70428D01*
Y70511D01*
X286597D01*
Y70593D01*
Y70675D01*
Y70757D01*
X286680D01*
Y70840D01*
Y70922D01*
Y71004D01*
X286762D01*
Y71086D01*
Y71169D01*
Y71251D01*
Y71333D01*
X286844D01*
Y71415D01*
Y71498D01*
Y71580D01*
X286926D01*
Y71662D01*
Y71744D01*
Y71827D01*
X287009D01*
Y71909D01*
Y71991D01*
Y72073D01*
Y72156D01*
X287091D01*
Y72238D01*
Y72320D01*
Y72402D01*
X287173D01*
Y72485D01*
Y72567D01*
Y72649D01*
X287255D01*
Y72731D01*
Y72813D01*
Y72896D01*
Y72978D01*
X287338D01*
Y73060D01*
Y73143D01*
Y73225D01*
X287420D01*
Y73307D01*
Y73389D01*
Y73471D01*
X287502D01*
Y73554D01*
Y73636D01*
Y73718D01*
Y73800D01*
X287584D01*
Y73883D01*
Y73965D01*
Y74047D01*
X287667D01*
Y74129D01*
Y74212D01*
Y74294D01*
X287749D01*
Y74376D01*
Y74459D01*
Y74541D01*
Y74623D01*
X287831D01*
Y74705D01*
Y74787D01*
Y74870D01*
Y74952D01*
X293588D01*
Y74870D01*
D02*
G37*
G36*
X285610D02*
X285528D01*
Y74787D01*
Y74705D01*
Y74623D01*
X285446D01*
Y74541D01*
Y74459D01*
Y74376D01*
Y74294D01*
X285364D01*
Y74212D01*
Y74129D01*
Y74047D01*
X285281D01*
Y73965D01*
Y73883D01*
Y73800D01*
X285199D01*
Y73718D01*
Y73636D01*
Y73554D01*
Y73471D01*
X285117D01*
Y73389D01*
Y73307D01*
Y73225D01*
X285035D01*
Y73143D01*
Y73060D01*
Y72978D01*
X284952D01*
Y72896D01*
Y72813D01*
Y72731D01*
Y72649D01*
X284870D01*
Y72567D01*
Y72485D01*
Y72402D01*
X284788D01*
Y72320D01*
Y72238D01*
Y72156D01*
X284706D01*
Y72073D01*
Y71991D01*
Y71909D01*
Y71827D01*
X284623D01*
Y71744D01*
Y71662D01*
Y71580D01*
X284541D01*
Y71498D01*
Y71415D01*
Y71333D01*
X284459D01*
Y71251D01*
Y71169D01*
Y71086D01*
Y71004D01*
X284377D01*
Y70922D01*
Y70840D01*
Y70757D01*
X284294D01*
Y70675D01*
Y70593D01*
Y70511D01*
X284212D01*
Y70428D01*
Y70346D01*
Y70264D01*
Y70182D01*
X284130D01*
Y70099D01*
Y70017D01*
Y69935D01*
X284048D01*
Y69853D01*
Y69770D01*
Y69688D01*
X283965D01*
Y69606D01*
Y69524D01*
Y69441D01*
Y69359D01*
X283883D01*
Y69277D01*
Y69195D01*
Y69112D01*
X283801D01*
Y69030D01*
Y68948D01*
Y68866D01*
X283719D01*
Y68783D01*
Y68701D01*
Y68619D01*
Y68537D01*
X283636D01*
Y68454D01*
Y68372D01*
Y68290D01*
X283554D01*
Y68208D01*
Y68125D01*
Y68043D01*
X283472D01*
Y67961D01*
Y67879D01*
Y67796D01*
Y67714D01*
X283390D01*
Y67632D01*
Y67550D01*
Y67467D01*
X283307D01*
Y67385D01*
Y67303D01*
Y67221D01*
X283225D01*
Y67138D01*
Y67056D01*
Y66974D01*
Y66892D01*
X283143D01*
Y66809D01*
Y66727D01*
Y66645D01*
X283061D01*
Y66563D01*
Y66480D01*
Y66398D01*
X282978D01*
Y66316D01*
Y66234D01*
Y66151D01*
Y66069D01*
X282896D01*
Y65987D01*
Y65905D01*
Y65822D01*
X282814D01*
Y65740D01*
Y65658D01*
Y65576D01*
X282732D01*
Y65493D01*
Y65411D01*
Y65329D01*
Y65247D01*
X282649D01*
Y65164D01*
Y65082D01*
Y65000D01*
X282567D01*
Y64918D01*
Y64835D01*
Y64753D01*
X282485D01*
Y64671D01*
Y64589D01*
Y64506D01*
Y64424D01*
X282403D01*
Y64342D01*
Y64260D01*
Y64177D01*
X282320D01*
Y64095D01*
Y64013D01*
Y63931D01*
X282238D01*
Y63848D01*
Y63766D01*
Y63684D01*
Y63602D01*
X282156D01*
Y63519D01*
Y63437D01*
Y63355D01*
X282074D01*
Y63273D01*
Y63190D01*
Y63108D01*
X281991D01*
Y63026D01*
Y62944D01*
Y62861D01*
Y62779D01*
X281909D01*
Y62697D01*
Y62615D01*
Y62532D01*
X281827D01*
Y62450D01*
Y62368D01*
Y62286D01*
X281745D01*
Y62203D01*
Y62121D01*
Y62039D01*
Y61957D01*
X281662D01*
Y61874D01*
Y61792D01*
Y61710D01*
X281580D01*
Y61628D01*
Y61545D01*
Y61463D01*
X281498D01*
Y61381D01*
Y61299D01*
Y61216D01*
Y61134D01*
X281416D01*
Y61052D01*
Y60970D01*
Y60887D01*
X281333D01*
Y60805D01*
Y60723D01*
Y60641D01*
X281251D01*
Y60558D01*
Y60476D01*
X276234D01*
Y60558D01*
X276316D01*
Y60641D01*
Y60723D01*
Y60805D01*
X276398D01*
Y60887D01*
Y60970D01*
Y61052D01*
X276481D01*
Y61134D01*
Y61216D01*
Y61299D01*
Y61381D01*
X276563D01*
Y61463D01*
Y61545D01*
Y61628D01*
X276645D01*
Y61710D01*
Y61792D01*
Y61874D01*
X276727D01*
Y61957D01*
Y62039D01*
Y62121D01*
Y62203D01*
X276810D01*
Y62286D01*
Y62368D01*
Y62450D01*
X276892D01*
Y62532D01*
Y62615D01*
Y62697D01*
X276974D01*
Y62779D01*
Y62861D01*
Y62944D01*
X277056D01*
Y63026D01*
Y63108D01*
Y63190D01*
Y63273D01*
X277139D01*
Y63355D01*
Y63437D01*
Y63519D01*
X277221D01*
Y63602D01*
Y63684D01*
Y63766D01*
Y63848D01*
X277303D01*
Y63931D01*
Y64013D01*
Y64095D01*
X277385D01*
Y64177D01*
Y64260D01*
Y64342D01*
X277468D01*
Y64424D01*
Y64506D01*
Y64589D01*
Y64671D01*
X277550D01*
Y64753D01*
Y64835D01*
Y64918D01*
X277632D01*
Y65000D01*
Y65082D01*
Y65164D01*
X277714D01*
Y65247D01*
Y65329D01*
Y65411D01*
Y65493D01*
X277797D01*
Y65576D01*
Y65658D01*
Y65740D01*
X277879D01*
Y65822D01*
Y65905D01*
Y65987D01*
X277961D01*
Y66069D01*
Y66151D01*
Y66234D01*
Y66316D01*
X278043D01*
Y66398D01*
Y66480D01*
Y66563D01*
X278126D01*
Y66645D01*
Y66727D01*
Y66809D01*
X278208D01*
Y66892D01*
Y66974D01*
Y67056D01*
Y67138D01*
X278290D01*
Y67221D01*
Y67303D01*
Y67385D01*
X278372D01*
Y67467D01*
Y67550D01*
Y67632D01*
X278455D01*
Y67714D01*
Y67796D01*
Y67879D01*
Y67961D01*
X278537D01*
Y68043D01*
Y68125D01*
Y68208D01*
X278619D01*
Y68290D01*
Y68372D01*
Y68454D01*
X278701D01*
Y68537D01*
Y68619D01*
Y68701D01*
Y68783D01*
X278784D01*
Y68866D01*
Y68948D01*
Y69030D01*
X278866D01*
Y69112D01*
Y69195D01*
Y69277D01*
X278948D01*
Y69359D01*
Y69441D01*
Y69524D01*
Y69606D01*
X279030D01*
Y69688D01*
Y69770D01*
Y69853D01*
X279113D01*
Y69935D01*
Y70017D01*
Y70099D01*
X279195D01*
Y70182D01*
Y70264D01*
Y70346D01*
Y70428D01*
X279277D01*
Y70511D01*
Y70593D01*
Y70675D01*
X279359D01*
Y70757D01*
Y70840D01*
Y70922D01*
X279442D01*
Y71004D01*
Y71086D01*
Y71169D01*
Y71251D01*
X279524D01*
Y71333D01*
Y71415D01*
Y71498D01*
X279606D01*
Y71580D01*
Y71662D01*
Y71744D01*
X279688D01*
Y71827D01*
Y71909D01*
Y71991D01*
Y72073D01*
X279771D01*
Y72156D01*
Y72238D01*
Y72320D01*
X279853D01*
Y72402D01*
Y72485D01*
Y72567D01*
X279935D01*
Y72649D01*
Y72731D01*
Y72813D01*
Y72896D01*
X280017D01*
Y72978D01*
Y73060D01*
Y73143D01*
X280100D01*
Y73225D01*
Y73307D01*
Y73389D01*
X280182D01*
Y73471D01*
Y73554D01*
Y73636D01*
Y73718D01*
X280264D01*
Y73800D01*
Y73883D01*
Y73965D01*
X280346D01*
Y74047D01*
Y74129D01*
Y74212D01*
X280429D01*
Y74294D01*
Y74376D01*
Y74459D01*
Y74541D01*
X280511D01*
Y74623D01*
Y74705D01*
Y74787D01*
X280593D01*
Y74870D01*
Y74952D01*
X285610D01*
Y74870D01*
D02*
G37*
%LPC*%
G36*
X323527Y71415D02*
X319908D01*
Y71333D01*
Y71251D01*
X319826D01*
Y71169D01*
Y71086D01*
Y71004D01*
Y70922D01*
Y70840D01*
Y70757D01*
Y70675D01*
X319744D01*
Y70593D01*
Y70511D01*
Y70428D01*
Y70346D01*
Y70264D01*
X319662D01*
Y70182D01*
Y70099D01*
Y70017D01*
Y69935D01*
Y69853D01*
Y69770D01*
Y69688D01*
X319580D01*
Y69606D01*
Y69524D01*
Y69441D01*
Y69359D01*
Y69277D01*
X319497D01*
Y69195D01*
Y69112D01*
Y69030D01*
Y68948D01*
Y68866D01*
Y68783D01*
X319415D01*
Y68701D01*
Y68619D01*
Y68537D01*
Y68454D01*
Y68372D01*
Y68290D01*
Y68208D01*
X319333D01*
Y68125D01*
Y68043D01*
Y67961D01*
Y67879D01*
Y67796D01*
X319250D01*
Y67714D01*
Y67632D01*
Y67550D01*
Y67467D01*
Y67385D01*
Y67303D01*
Y67221D01*
X319168D01*
Y67138D01*
Y67056D01*
Y66974D01*
Y66892D01*
X322211D01*
Y66974D01*
X322869D01*
Y67056D01*
X323198D01*
Y67138D01*
X323445D01*
Y67221D01*
X323610D01*
Y67303D01*
X323774D01*
Y67385D01*
X323939D01*
Y67467D01*
X324021D01*
Y67550D01*
X324185D01*
Y67632D01*
X324268D01*
Y67714D01*
X324350D01*
Y67796D01*
X324432D01*
Y67879D01*
X324514D01*
Y67961D01*
X324597D01*
Y68043D01*
X324679D01*
Y68125D01*
Y68208D01*
X324761D01*
Y68290D01*
Y68372D01*
X324843D01*
Y68454D01*
X324926D01*
Y68537D01*
Y68619D01*
Y68701D01*
X325008D01*
Y68783D01*
Y68866D01*
Y68948D01*
X325090D01*
Y69030D01*
Y69112D01*
Y69195D01*
Y69277D01*
Y69359D01*
Y69441D01*
Y69524D01*
Y69606D01*
Y69688D01*
Y69770D01*
Y69853D01*
Y69935D01*
Y70017D01*
Y70099D01*
X325008D01*
Y70182D01*
Y70264D01*
Y70346D01*
X324926D01*
Y70428D01*
Y70511D01*
Y70593D01*
X324843D01*
Y70675D01*
X324761D01*
Y70757D01*
Y70840D01*
X324679D01*
Y70922D01*
X324597D01*
Y71004D01*
X324432D01*
Y71086D01*
X324350D01*
Y71169D01*
X324185D01*
Y71251D01*
X323939D01*
Y71333D01*
X323527D01*
Y71415D01*
D02*
G37*
%LPD*%
D10*
X159547Y312894D02*
Y314272D01*
X194783D01*
Y312893D02*
Y314272D01*
X159547Y288051D02*
X194783D01*
D11*
X334869Y137534D02*
X338454D01*
X334775Y142978D02*
X338359D01*
X282665Y179660D02*
X286249D01*
X284710Y236444D02*
Y240028D01*
X277531Y54166D02*
Y57314D01*
X279106D01*
X279630Y56790D01*
Y55740D01*
X279106Y55215D01*
X277531D01*
X282254Y57314D02*
X281205D01*
X280680Y56790D01*
Y54691D01*
X281205Y54166D01*
X282254D01*
X282779Y54691D01*
Y56790D01*
X282254Y57314D01*
X283828D02*
Y54166D01*
X284878Y55215D01*
X285928Y54166D01*
Y57314D01*
X289076D02*
X286977D01*
Y54166D01*
X289076D01*
X286977Y55740D02*
X288027D01*
X290126Y54166D02*
Y57314D01*
X291700D01*
X292225Y56790D01*
Y55740D01*
X291700Y55215D01*
X290126D01*
X291175D02*
X292225Y54166D01*
X296423Y57314D02*
Y54166D01*
X297997D01*
X298522Y54691D01*
Y55215D01*
X297997Y55740D01*
X296423D01*
X297997D01*
X298522Y56265D01*
Y56790D01*
X297997Y57314D01*
X296423D01*
X301146D02*
X300096D01*
X299571Y56790D01*
Y54691D01*
X300096Y54166D01*
X301146D01*
X301671Y54691D01*
Y56790D01*
X301146Y57314D01*
X302720Y54166D02*
Y56265D01*
X303770Y57314D01*
X304819Y56265D01*
Y54166D01*
Y55740D01*
X302720D01*
X305869Y54166D02*
Y57314D01*
X307443D01*
X307968Y56790D01*
Y55740D01*
X307443Y55215D01*
X305869D01*
X306918D02*
X307968Y54166D01*
X309017Y57314D02*
Y54166D01*
X310592D01*
X311116Y54691D01*
Y56790D01*
X310592Y57314D01*
X309017D01*
X284353Y48970D02*
Y52119D01*
X285928D01*
X286452Y51594D01*
Y50545D01*
X285928Y50020D01*
X284353D01*
X285403D02*
X286452Y48970D01*
X289601Y52119D02*
X287502D01*
Y48970D01*
X289601D01*
X287502Y50545D02*
X288551D01*
X290651Y52119D02*
Y50020D01*
X291700Y48970D01*
X292750Y50020D01*
Y52119D01*
X296948Y48970D02*
X297997D01*
X297472D01*
Y52119D01*
X296948Y51594D01*
X299571Y48970D02*
Y49495D01*
X300096D01*
Y48970D01*
X299571D01*
X302195Y51594D02*
X302720Y52119D01*
X303770D01*
X304294Y51594D01*
Y49495D01*
X303770Y48970D01*
X302720D01*
X302195Y49495D01*
Y51594D01*
X181236Y260433D02*
Y258333D01*
X182285Y257284D01*
X183335Y258333D01*
Y260433D01*
X184384D02*
Y257284D01*
X185958D01*
X186483Y257809D01*
Y258333D01*
X185958Y258858D01*
X184384D01*
X185958D01*
X186483Y259383D01*
Y259908D01*
X185958Y260433D01*
X184384D01*
X187533D02*
Y257809D01*
X188057Y257284D01*
X189107D01*
X189632Y257809D01*
Y260433D01*
X192780Y259908D02*
X192255Y260433D01*
X191206D01*
X190681Y259908D01*
Y259383D01*
X191206Y258858D01*
X192255D01*
X192780Y258333D01*
Y257809D01*
X192255Y257284D01*
X191206D01*
X190681Y257809D01*
X148165Y260695D02*
Y258596D01*
X149215Y257546D01*
X150264Y258596D01*
Y260695D01*
X151314Y257022D02*
X153413D01*
X156561Y260170D02*
X156037Y260695D01*
X154987D01*
X154462Y260170D01*
Y259645D01*
X154987Y259121D01*
X156037D01*
X156561Y258596D01*
Y258071D01*
X156037Y257546D01*
X154987D01*
X154462Y258071D01*
X157611Y260695D02*
Y260170D01*
X158660Y259121D01*
X159710Y260170D01*
Y260695D01*
X158660Y259121D02*
Y257546D01*
X162858Y260170D02*
X162334Y260695D01*
X161284D01*
X160759Y260170D01*
Y259645D01*
X161284Y259121D01*
X162334D01*
X162858Y258596D01*
Y258071D01*
X162334Y257546D01*
X161284D01*
X160759Y258071D01*
X220537Y196942D02*
Y200091D01*
X222111D01*
X222636Y199566D01*
Y198517D01*
X222111Y197992D01*
X220537D01*
X221586D02*
X222636Y196942D01*
X223686Y200091D02*
X225785D01*
X224735D01*
Y196942D01*
X226834D02*
X227884D01*
X227359D01*
Y200091D01*
X226834Y199566D01*
X244228Y242520D02*
Y245669D01*
X245802D01*
X246327Y245144D01*
Y244094D01*
X245802Y243570D01*
X244228D01*
X245277D02*
X246327Y242520D01*
X249475Y245669D02*
X247376D01*
Y242520D01*
X249475D01*
X247376Y244094D02*
X248426D01*
X252624Y245144D02*
X252099Y245669D01*
X251049D01*
X250525Y245144D01*
Y243045D01*
X251049Y242520D01*
X252099D01*
X252624Y243045D01*
Y244094D01*
X251574D01*
X253673Y242520D02*
Y245669D01*
X255772Y242520D01*
Y245669D01*
X289764Y168568D02*
X292913D01*
Y166994D01*
X292388Y166469D01*
X291339D01*
X290814Y166994D01*
Y168568D01*
Y167519D02*
X289764Y166469D01*
X292388Y165420D02*
X292913Y164895D01*
Y163845D01*
X292388Y163321D01*
X291863D01*
X291339Y163845D01*
Y164370D01*
Y163845D01*
X290814Y163321D01*
X290289D01*
X289764Y163845D01*
Y164895D01*
X290289Y165420D01*
X292913Y160172D02*
Y162271D01*
X291339D01*
X291863Y161222D01*
Y160697D01*
X291339Y160172D01*
X290289D01*
X289764Y160697D01*
Y161746D01*
X290289Y162271D01*
X329134Y162663D02*
X332283D01*
Y161088D01*
X331758Y160564D01*
X330709D01*
X330184Y161088D01*
Y162663D01*
Y161613D02*
X329134Y160564D01*
X331758Y159514D02*
X332283Y158989D01*
Y157940D01*
X331758Y157415D01*
X331233D01*
X330709Y157940D01*
Y158465D01*
Y157940D01*
X330184Y157415D01*
X329659D01*
X329134Y157940D01*
Y158989D01*
X329659Y159514D01*
X329134Y154791D02*
X332283D01*
X330709Y156366D01*
Y154266D01*
X329134Y126245D02*
X332283D01*
Y124671D01*
X331758Y124146D01*
X330709D01*
X330184Y124671D01*
Y126245D01*
Y125196D02*
X329134Y124146D01*
X331758Y123097D02*
X332283Y122572D01*
Y121522D01*
X331758Y120998D01*
X331233D01*
X330709Y121522D01*
Y122047D01*
Y121522D01*
X330184Y120998D01*
X329659D01*
X329134Y121522D01*
Y122572D01*
X329659Y123097D01*
X331758Y119948D02*
X332283Y119423D01*
Y118374D01*
X331758Y117849D01*
X331233D01*
X330709Y118374D01*
Y118899D01*
Y118374D01*
X330184Y117849D01*
X329659D01*
X329134Y118374D01*
Y119423D01*
X329659Y119948D01*
X249345Y250394D02*
Y253543D01*
X250919D01*
X251444Y253018D01*
Y251969D01*
X250919Y251444D01*
X249345D01*
X250394D02*
X251444Y250394D01*
X254068D02*
Y253543D01*
X252493Y251969D01*
X254592D01*
X324148Y182481D02*
Y185629D01*
X325722D01*
X326247Y185105D01*
Y184055D01*
X325722Y183530D01*
X324148D01*
X329396Y182481D02*
X327296D01*
X329396Y184580D01*
Y185105D01*
X328871Y185629D01*
X327821D01*
X327296Y185105D01*
X151444Y287796D02*
Y290944D01*
X153019D01*
X153543Y290420D01*
Y289370D01*
X153019Y288845D01*
X151444D01*
X154593Y287796D02*
X155642D01*
X155118D01*
Y290944D01*
X154593Y290420D01*
X136484Y232186D02*
Y235334D01*
X137533Y234285D01*
X138583Y235334D01*
Y232186D01*
X139632D02*
X140682D01*
X140157D01*
Y235334D01*
X139632Y234809D01*
X286023Y168174D02*
X282874D01*
Y166075D01*
X286023Y162926D02*
Y165025D01*
X282874D01*
Y162926D01*
X284449Y165025D02*
Y163976D01*
X286023Y161877D02*
X282874D01*
Y160302D01*
X283399Y159778D01*
X285498D01*
X286023Y160302D01*
Y161877D01*
X282874Y157154D02*
X286023D01*
X284449Y158728D01*
Y156629D01*
X338189Y166206D02*
X335040D01*
Y164106D01*
X338189Y160958D02*
Y163057D01*
X335040D01*
Y160958D01*
X336614Y163057D02*
Y162007D01*
X338189Y159908D02*
X335040D01*
Y158334D01*
X335565Y157809D01*
X337664D01*
X338189Y158334D01*
Y159908D01*
X337664Y156760D02*
X338189Y156235D01*
Y155185D01*
X337664Y154661D01*
X337139D01*
X336614Y155185D01*
Y155710D01*
Y155185D01*
X336089Y154661D01*
X335565D01*
X335040Y155185D01*
Y156235D01*
X335565Y156760D01*
X338189Y125851D02*
X335040D01*
Y123752D01*
X338189Y120604D02*
Y122703D01*
X335040D01*
Y120604D01*
X336614Y122703D02*
Y121653D01*
X338189Y119554D02*
X335040D01*
Y117980D01*
X335565Y117455D01*
X337664D01*
X338189Y117980D01*
Y119554D01*
X335040Y114306D02*
Y116405D01*
X337139Y114306D01*
X337664D01*
X338189Y114831D01*
Y115881D01*
X337664Y116405D01*
X285107Y244685D02*
Y241536D01*
X287206D01*
X290354Y244685D02*
X288255D01*
Y241536D01*
X290354D01*
X288255Y243110D02*
X289305D01*
X291404Y244685D02*
Y241536D01*
X292978D01*
X293503Y242061D01*
Y244160D01*
X292978Y244685D01*
X291404D01*
X294552Y241536D02*
X295602D01*
X295077D01*
Y244685D01*
X294552Y244160D01*
X185368Y273228D02*
Y270079D01*
X186943D01*
X187467Y270604D01*
Y272703D01*
X186943Y273228D01*
X185368D01*
X188517Y271654D02*
X190616D01*
X163715Y273228D02*
Y270079D01*
X165289D01*
X165814Y270604D01*
Y272703D01*
X165289Y273228D01*
X163715D01*
X166863Y271654D02*
X168962D01*
X167913Y272703D02*
Y270604D01*
X206168Y270735D02*
X205643Y271259D01*
X204594D01*
X204069Y270735D01*
Y268636D01*
X204594Y268111D01*
X205643D01*
X206168Y268636D01*
X207218Y271259D02*
X209317D01*
Y270735D01*
X207218Y268636D01*
Y268111D01*
D12*
X217815Y272835D02*
X220177D01*
X217815Y266535D02*
X220177D01*
D13*
X136515Y-72941D02*
X217814D01*
Y230421D01*
X136515D02*
X217814D01*
X136515Y-72941D02*
Y230421D01*
X220472Y178150D02*
X226378D01*
Y193898D01*
X220472D02*
X226378D01*
X220472Y178150D02*
Y193898D01*
X188930Y-84599D02*
X186931D01*
X187930D01*
Y-89598D01*
X186931Y-90597D01*
X185931D01*
X184931Y-89598D01*
X190929Y-90597D02*
Y-84599D01*
X193929D01*
X194928Y-85599D01*
Y-87598D01*
X193929Y-88598D01*
X190929D01*
X196927Y-90597D02*
X198927D01*
X197927D01*
Y-84599D01*
X196927Y-85599D01*
D14*
X177102Y236319D02*
Y249438D01*
X170542Y242879D02*
X183661D01*
D15*
X170571Y-77165D02*
X183690D01*
M02*
