G04*
G04 #@! TF.GenerationSoftware,Altium Limited,Altium Designer,19.0.15 (446)*
G04*
G04 Layer_Color=65535*
%FSLAX25Y25*%
%MOIN*%
G70*
G01*
G75*
%ADD10C,0.00984*%
%ADD11C,0.00787*%
%ADD12C,0.01000*%
%ADD13C,0.00591*%
%ADD14C,0.00500*%
%ADD15C,0.00787*%
G36*
X281646Y154338D02*
X281577D01*
Y154269D01*
X281508D01*
Y154200D01*
X281439D01*
Y154131D01*
X281301D01*
Y154062D01*
X281232D01*
Y153993D01*
X281164D01*
Y153924D01*
X281095D01*
Y153855D01*
X281026D01*
Y153787D01*
X280888D01*
Y153718D01*
X280819D01*
Y153649D01*
X280750D01*
Y153580D01*
X280681D01*
Y153511D01*
X280612D01*
Y153442D01*
X280475D01*
Y153373D01*
X280406D01*
Y153304D01*
X280337D01*
Y153235D01*
X280268D01*
Y153167D01*
X280199D01*
Y153098D01*
X280062D01*
Y153029D01*
X279993D01*
Y152960D01*
X279924D01*
Y152891D01*
X279855D01*
Y152822D01*
X279786D01*
Y152753D01*
X279648D01*
Y152684D01*
X279579D01*
Y152616D01*
X279510D01*
Y152547D01*
X279442D01*
Y152478D01*
X279373D01*
Y152409D01*
X279235D01*
Y152340D01*
X279166D01*
Y152271D01*
X279097D01*
Y152202D01*
X279028D01*
Y152134D01*
X278959D01*
Y152065D01*
X278822D01*
Y151996D01*
X278753D01*
Y151927D01*
X278684D01*
Y151858D01*
X278615D01*
Y151789D01*
X278546D01*
Y151720D01*
X278409D01*
Y151651D01*
X278340D01*
Y151583D01*
X278271D01*
Y151514D01*
X278202D01*
Y151445D01*
X278133D01*
Y151376D01*
X277995D01*
Y151307D01*
X277926D01*
Y151238D01*
X277857D01*
Y151169D01*
X277789D01*
Y151100D01*
X277720D01*
Y151031D01*
X277582D01*
Y150963D01*
X277513D01*
Y150894D01*
X277444D01*
Y150825D01*
X277375D01*
Y150756D01*
X277306D01*
Y150687D01*
X277169D01*
Y150618D01*
X277100D01*
Y150549D01*
X277031D01*
Y150480D01*
X276962D01*
Y150412D01*
X276893D01*
Y150343D01*
X276755D01*
Y150274D01*
X276687D01*
Y150205D01*
X276618D01*
Y150136D01*
X276549D01*
Y150067D01*
X276480D01*
Y149998D01*
X276342D01*
Y149929D01*
X276273D01*
Y149861D01*
X276204D01*
Y149792D01*
X276135D01*
Y149723D01*
X276067D01*
Y149654D01*
X275929D01*
Y149585D01*
X275860D01*
Y149516D01*
X275791D01*
Y149447D01*
X275722D01*
Y149378D01*
X275653D01*
Y149310D01*
X275516D01*
Y149241D01*
X275447D01*
Y149172D01*
X275378D01*
Y149103D01*
X275309D01*
Y149034D01*
X275240D01*
Y148965D01*
X275102D01*
Y148896D01*
X275033D01*
Y148827D01*
X274965D01*
Y148758D01*
X274896D01*
Y148690D01*
X274827D01*
Y148621D01*
X274689D01*
Y148552D01*
X274620D01*
Y148483D01*
X274551D01*
Y148414D01*
X274482D01*
Y148345D01*
Y148276D01*
Y148207D01*
X274551D01*
Y148139D01*
X274620D01*
Y148070D01*
Y148001D01*
X274689D01*
Y147932D01*
Y147863D01*
X274758D01*
Y147794D01*
X274827D01*
Y147725D01*
Y147657D01*
X274896D01*
Y147588D01*
Y147519D01*
X274965D01*
Y147450D01*
X275033D01*
Y147381D01*
Y147312D01*
X275102D01*
Y147243D01*
Y147174D01*
X275171D01*
Y147106D01*
X275240D01*
Y147037D01*
Y146968D01*
X275309D01*
Y146899D01*
Y146830D01*
X275378D01*
Y146761D01*
Y146692D01*
X275447D01*
Y146623D01*
X275516D01*
Y146555D01*
Y146486D01*
X275585D01*
Y146417D01*
X275653D01*
Y146348D01*
Y146279D01*
X275722D01*
Y146210D01*
Y146141D01*
X275791D01*
Y146072D01*
X275860D01*
Y146003D01*
Y145935D01*
X275929D01*
Y145866D01*
Y145797D01*
X275998D01*
Y145728D01*
X276067D01*
Y145659D01*
Y145590D01*
X276135D01*
Y145521D01*
Y145452D01*
X276204D01*
Y145384D01*
X276273D01*
Y145315D01*
Y145246D01*
X276342D01*
Y145177D01*
Y145108D01*
X276411D01*
Y145039D01*
X276480D01*
Y144970D01*
Y144901D01*
X276549D01*
Y144833D01*
Y144764D01*
X276618D01*
Y144695D01*
Y144626D01*
X276687D01*
Y144557D01*
X276755D01*
Y144488D01*
Y144419D01*
X276824D01*
Y144350D01*
X276893D01*
Y144282D01*
Y144213D01*
X276962D01*
Y144144D01*
Y144075D01*
X277031D01*
Y144006D01*
X277100D01*
Y143937D01*
Y143868D01*
X277169D01*
Y143799D01*
Y143730D01*
X277238D01*
Y143662D01*
X277306D01*
Y143593D01*
Y143524D01*
X277375D01*
Y143455D01*
Y143386D01*
X277444D01*
Y143317D01*
Y143248D01*
X277513D01*
Y143180D01*
X277582D01*
Y143111D01*
Y143042D01*
X277651D01*
Y142973D01*
Y142904D01*
X277720D01*
Y142835D01*
X277789D01*
Y142766D01*
Y142697D01*
X277857D01*
Y142629D01*
X277926D01*
Y142560D01*
Y142491D01*
X277995D01*
Y142422D01*
Y142353D01*
X278064D01*
Y142284D01*
X272692D01*
Y142353D01*
X272623D01*
Y142422D01*
Y142491D01*
X272554D01*
Y142560D01*
Y142629D01*
X272485D01*
Y142697D01*
X272416D01*
Y142766D01*
Y142835D01*
X272347D01*
Y142904D01*
Y142973D01*
X272278D01*
Y143042D01*
Y143111D01*
X272210D01*
Y143180D01*
Y143248D01*
X272141D01*
Y143317D01*
Y143386D01*
X272072D01*
Y143455D01*
Y143524D01*
X272003D01*
Y143593D01*
Y143662D01*
X271934D01*
Y143730D01*
Y143799D01*
X271865D01*
Y143868D01*
Y143937D01*
X271796D01*
Y144006D01*
Y144075D01*
X271727D01*
Y144144D01*
X271659D01*
Y144213D01*
Y144282D01*
X271590D01*
Y144350D01*
Y144419D01*
X271521D01*
Y144488D01*
Y144557D01*
X271452D01*
Y144626D01*
Y144695D01*
X271383D01*
Y144764D01*
Y144833D01*
X271314D01*
Y144901D01*
Y144970D01*
X271245D01*
Y145039D01*
Y145108D01*
X271176D01*
Y145177D01*
Y145246D01*
X271108D01*
Y145315D01*
Y145384D01*
X271039D01*
Y145452D01*
Y145521D01*
X270970D01*
Y145590D01*
X270901D01*
Y145659D01*
Y145728D01*
X270694D01*
Y145659D01*
X270625D01*
Y145590D01*
X270556D01*
Y145521D01*
X270488D01*
Y145452D01*
X270350D01*
Y145384D01*
X270281D01*
Y145315D01*
X270212D01*
Y145246D01*
X270143D01*
Y145177D01*
X270074D01*
Y145108D01*
X269937D01*
Y145039D01*
X269868D01*
Y144970D01*
X269799D01*
Y144901D01*
X269730D01*
Y144833D01*
X269592D01*
Y144764D01*
X269523D01*
Y144695D01*
X269455D01*
Y144626D01*
X269386D01*
Y144557D01*
X269317D01*
Y144488D01*
X269179D01*
Y144419D01*
X269110D01*
Y144350D01*
X269041D01*
Y144282D01*
X268972D01*
Y144213D01*
X268835D01*
Y144144D01*
X268766D01*
Y144075D01*
X268697D01*
Y144006D01*
X268628D01*
Y143937D01*
X268559D01*
Y143868D01*
X268421D01*
Y143799D01*
X268353D01*
Y143730D01*
X268284D01*
Y143662D01*
X268215D01*
Y143593D01*
X268077D01*
Y143524D01*
X268008D01*
Y143455D01*
X267939D01*
Y143386D01*
X267870D01*
Y143317D01*
X267801D01*
Y143248D01*
X267664D01*
Y143180D01*
X267595D01*
Y143111D01*
X267526D01*
Y143042D01*
X267457D01*
Y142973D01*
X267319D01*
Y142904D01*
X267250D01*
Y142835D01*
X267182D01*
Y142766D01*
X267113D01*
Y142697D01*
X266975D01*
Y142629D01*
X266906D01*
Y142560D01*
X266837D01*
Y142491D01*
X266768D01*
Y142422D01*
X266699D01*
Y142353D01*
X266562D01*
Y142284D01*
X261189D01*
Y142353D01*
X261327D01*
Y142422D01*
X261396D01*
Y142491D01*
X261465D01*
Y142560D01*
X261534D01*
Y142629D01*
X261602D01*
Y142697D01*
X261740D01*
Y142766D01*
X261809D01*
Y142835D01*
X261878D01*
Y142904D01*
X261947D01*
Y142973D01*
X262016D01*
Y143042D01*
X262154D01*
Y143111D01*
X262222D01*
Y143180D01*
X262291D01*
Y143248D01*
X262360D01*
Y143317D01*
X262429D01*
Y143386D01*
X262567D01*
Y143455D01*
X262636D01*
Y143524D01*
X262705D01*
Y143593D01*
X262773D01*
Y143662D01*
X262842D01*
Y143730D01*
X262980D01*
Y143799D01*
X263049D01*
Y143868D01*
X263118D01*
Y143937D01*
X263187D01*
Y144006D01*
X263256D01*
Y144075D01*
X263393D01*
Y144144D01*
X263462D01*
Y144213D01*
X263531D01*
Y144282D01*
X263600D01*
Y144350D01*
X263669D01*
Y144419D01*
X263807D01*
Y144488D01*
X263876D01*
Y144557D01*
X263944D01*
Y144626D01*
X264013D01*
Y144695D01*
X264082D01*
Y144764D01*
X264220D01*
Y144833D01*
X264289D01*
Y144901D01*
X264358D01*
Y144970D01*
X264426D01*
Y145039D01*
X264495D01*
Y145108D01*
X264633D01*
Y145177D01*
X264702D01*
Y145246D01*
X264771D01*
Y145315D01*
X264840D01*
Y145384D01*
X264909D01*
Y145452D01*
X265046D01*
Y145521D01*
X265115D01*
Y145590D01*
X265184D01*
Y145659D01*
X265253D01*
Y145728D01*
X265322D01*
Y145797D01*
X265460D01*
Y145866D01*
X265528D01*
Y145935D01*
X265597D01*
Y146003D01*
X265666D01*
Y146072D01*
X265735D01*
Y146141D01*
X265873D01*
Y146210D01*
X265942D01*
Y146279D01*
X266011D01*
Y146348D01*
X266079D01*
Y146417D01*
X266148D01*
Y146486D01*
X266286D01*
Y146555D01*
X266355D01*
Y146623D01*
X266424D01*
Y146692D01*
X266493D01*
Y146761D01*
X266562D01*
Y146830D01*
X266699D01*
Y146899D01*
X266768D01*
Y146968D01*
X266837D01*
Y147037D01*
X266906D01*
Y147106D01*
X266975D01*
Y147174D01*
X267113D01*
Y147243D01*
X267182D01*
Y147312D01*
X267250D01*
Y147381D01*
X267319D01*
Y147450D01*
X267388D01*
Y147519D01*
X267526D01*
Y147588D01*
X267595D01*
Y147657D01*
X267664D01*
Y147725D01*
X267733D01*
Y147794D01*
X267801D01*
Y147863D01*
X267939D01*
Y147932D01*
X268008D01*
Y148001D01*
X268077D01*
Y148070D01*
X268146D01*
Y148139D01*
X268215D01*
Y148207D01*
X268353D01*
Y148276D01*
X268421D01*
Y148345D01*
Y148414D01*
X268353D01*
Y148483D01*
Y148552D01*
X268284D01*
Y148621D01*
Y148690D01*
X268215D01*
Y148758D01*
X268146D01*
Y148827D01*
Y148896D01*
X268077D01*
Y148965D01*
Y149034D01*
X268008D01*
Y149103D01*
X267939D01*
Y149172D01*
Y149241D01*
X267870D01*
Y149310D01*
Y149378D01*
X267801D01*
Y149447D01*
X267733D01*
Y149516D01*
Y149585D01*
X267664D01*
Y149654D01*
Y149723D01*
X267595D01*
Y149792D01*
X267526D01*
Y149861D01*
Y149929D01*
X267457D01*
Y149998D01*
X267388D01*
Y150067D01*
Y150136D01*
X267319D01*
Y150205D01*
Y150274D01*
X267250D01*
Y150343D01*
Y150412D01*
X267182D01*
Y150480D01*
X267113D01*
Y150549D01*
Y150618D01*
X267044D01*
Y150687D01*
Y150756D01*
X266975D01*
Y150825D01*
X266906D01*
Y150894D01*
Y150963D01*
X266837D01*
Y151031D01*
Y151100D01*
X266768D01*
Y151169D01*
X266699D01*
Y151238D01*
Y151307D01*
X266631D01*
Y151376D01*
Y151445D01*
X266562D01*
Y151514D01*
X266493D01*
Y151583D01*
Y151651D01*
X266424D01*
Y151720D01*
Y151789D01*
X266355D01*
Y151858D01*
X266286D01*
Y151927D01*
Y151996D01*
X266217D01*
Y152065D01*
X266148D01*
Y152134D01*
Y152202D01*
X266079D01*
Y152271D01*
Y152340D01*
X266011D01*
Y152409D01*
Y152478D01*
X265942D01*
Y152547D01*
X265873D01*
Y152616D01*
Y152684D01*
X265804D01*
Y152753D01*
Y152822D01*
X265735D01*
Y152891D01*
X265666D01*
Y152960D01*
Y153029D01*
X265597D01*
Y153098D01*
Y153167D01*
X265528D01*
Y153235D01*
X265460D01*
Y153304D01*
Y153373D01*
X265391D01*
Y153442D01*
Y153511D01*
X265322D01*
Y153580D01*
X265253D01*
Y153649D01*
Y153718D01*
X265184D01*
Y153787D01*
Y153855D01*
X265115D01*
Y153924D01*
X265046D01*
Y153993D01*
Y154062D01*
X264978D01*
Y154131D01*
Y154200D01*
X264909D01*
Y154269D01*
X264840D01*
Y154338D01*
Y154406D01*
X270212D01*
Y154338D01*
Y154269D01*
X270281D01*
Y154200D01*
X270350D01*
Y154131D01*
Y154062D01*
X270419D01*
Y153993D01*
Y153924D01*
X270488D01*
Y153855D01*
Y153787D01*
X270556D01*
Y153718D01*
Y153649D01*
X270625D01*
Y153580D01*
Y153511D01*
X270694D01*
Y153442D01*
Y153373D01*
X270763D01*
Y153304D01*
Y153235D01*
X270832D01*
Y153167D01*
Y153098D01*
X270901D01*
Y153029D01*
Y152960D01*
X270970D01*
Y152891D01*
X271039D01*
Y152822D01*
Y152753D01*
X271108D01*
Y152684D01*
Y152616D01*
X271176D01*
Y152547D01*
Y152478D01*
X271245D01*
Y152409D01*
Y152340D01*
X271314D01*
Y152271D01*
Y152202D01*
X271383D01*
Y152134D01*
Y152065D01*
X271452D01*
Y151996D01*
Y151927D01*
X271521D01*
Y151858D01*
Y151789D01*
X271590D01*
Y151720D01*
Y151651D01*
X271659D01*
Y151583D01*
X271727D01*
Y151514D01*
Y151445D01*
X271796D01*
Y151376D01*
Y151307D01*
X271865D01*
Y151238D01*
Y151169D01*
X271934D01*
Y151100D01*
Y151031D01*
X272003D01*
Y150963D01*
X272141D01*
Y151031D01*
X272210D01*
Y151100D01*
X272278D01*
Y151169D01*
X272347D01*
Y151238D01*
X272416D01*
Y151307D01*
X272485D01*
Y151376D01*
X272554D01*
Y151445D01*
X272623D01*
Y151514D01*
X272692D01*
Y151583D01*
X272829D01*
Y151651D01*
X272898D01*
Y151720D01*
X272967D01*
Y151789D01*
X273036D01*
Y151858D01*
X273105D01*
Y151927D01*
X273174D01*
Y151996D01*
X273243D01*
Y152065D01*
X273312D01*
Y152134D01*
X273380D01*
Y152202D01*
X273449D01*
Y152271D01*
X273518D01*
Y152340D01*
X273587D01*
Y152409D01*
X273656D01*
Y152478D01*
X273725D01*
Y152547D01*
X273794D01*
Y152616D01*
X273863D01*
Y152684D01*
X273932D01*
Y152753D01*
X274000D01*
Y152822D01*
X274069D01*
Y152891D01*
X274138D01*
Y152960D01*
X274276D01*
Y153029D01*
X274345D01*
Y153098D01*
X274414D01*
Y153167D01*
X274482D01*
Y153235D01*
X274551D01*
Y153304D01*
X274620D01*
Y153373D01*
X274689D01*
Y153442D01*
X274758D01*
Y153511D01*
X274827D01*
Y153580D01*
X274896D01*
Y153649D01*
X274965D01*
Y153718D01*
X275033D01*
Y153787D01*
X275102D01*
Y153855D01*
X275171D01*
Y153924D01*
X275240D01*
Y153993D01*
X275309D01*
Y154062D01*
X275378D01*
Y154131D01*
X275447D01*
Y154200D01*
X275516D01*
Y154269D01*
X275585D01*
Y154338D01*
X275653D01*
Y154406D01*
X281646D01*
Y154338D01*
D02*
G37*
G36*
X253062D02*
X252993D01*
Y154269D01*
Y154200D01*
Y154131D01*
X252924D01*
Y154062D01*
Y153993D01*
Y153924D01*
Y153855D01*
X252855D01*
Y153787D01*
Y153718D01*
Y153649D01*
X252786D01*
Y153580D01*
Y153511D01*
Y153442D01*
X252717D01*
Y153373D01*
Y153304D01*
Y153235D01*
X252648D01*
Y153167D01*
Y153098D01*
Y153029D01*
X252580D01*
Y152960D01*
Y152891D01*
Y152822D01*
X252511D01*
Y152753D01*
Y152684D01*
Y152616D01*
Y152547D01*
X252442D01*
Y152478D01*
Y152409D01*
Y152340D01*
X252373D01*
Y152271D01*
Y152202D01*
Y152134D01*
X252304D01*
Y152065D01*
Y151996D01*
Y151927D01*
X252235D01*
Y151858D01*
Y151789D01*
Y151720D01*
X252166D01*
Y151651D01*
Y151583D01*
Y151514D01*
Y151445D01*
X252098D01*
Y151376D01*
Y151307D01*
Y151238D01*
X252029D01*
Y151169D01*
Y151100D01*
Y151031D01*
X251960D01*
Y150963D01*
Y150894D01*
Y150825D01*
X251891D01*
Y150756D01*
Y150687D01*
Y150618D01*
X251822D01*
Y150549D01*
Y150480D01*
Y150412D01*
Y150343D01*
X251753D01*
Y150274D01*
Y150205D01*
Y150136D01*
X251684D01*
Y150067D01*
Y149998D01*
Y149929D01*
X251615D01*
Y149861D01*
Y149792D01*
Y149723D01*
X251547D01*
Y149654D01*
Y149585D01*
Y149516D01*
X251478D01*
Y149447D01*
Y149378D01*
Y149310D01*
X251409D01*
Y149241D01*
Y149172D01*
Y149103D01*
Y149034D01*
X251340D01*
Y148965D01*
Y148896D01*
Y148827D01*
X251271D01*
Y148758D01*
Y148690D01*
Y148621D01*
X251202D01*
Y148552D01*
Y148483D01*
Y148414D01*
Y148345D01*
X251133D01*
Y148276D01*
X251064D01*
Y148207D01*
X250995D01*
Y148139D01*
Y148070D01*
X250927D01*
Y148001D01*
X250858D01*
Y147932D01*
X250789D01*
Y147863D01*
X250720D01*
Y147794D01*
Y147725D01*
X250651D01*
Y147657D01*
X250582D01*
Y147588D01*
X250513D01*
Y147519D01*
X250445D01*
Y147450D01*
Y147381D01*
X250376D01*
Y147312D01*
X250307D01*
Y147243D01*
X250238D01*
Y147174D01*
Y147106D01*
X250169D01*
Y147037D01*
X250100D01*
Y146968D01*
X250031D01*
Y146899D01*
X249962D01*
Y146830D01*
Y146761D01*
X249893D01*
Y146692D01*
X249825D01*
Y146623D01*
X249756D01*
Y146555D01*
X249687D01*
Y146486D01*
Y146417D01*
X249618D01*
Y146348D01*
X249549D01*
Y146279D01*
X249480D01*
Y146210D01*
X249411D01*
Y146141D01*
Y146072D01*
X249342D01*
Y146003D01*
X249274D01*
Y145935D01*
X249205D01*
Y145866D01*
Y145797D01*
X249136D01*
Y145728D01*
X249067D01*
Y145659D01*
X248998D01*
Y145590D01*
X248929D01*
Y145521D01*
Y145452D01*
X248860D01*
Y145384D01*
X248791D01*
Y145315D01*
X248723D01*
Y145246D01*
X248654D01*
Y145177D01*
Y145108D01*
X248585D01*
Y145039D01*
X248516D01*
Y144970D01*
X248447D01*
Y144901D01*
Y144833D01*
X248378D01*
Y144764D01*
X248309D01*
Y144695D01*
X248240D01*
Y144626D01*
X248171D01*
Y144557D01*
Y144488D01*
X248103D01*
Y144419D01*
X248034D01*
Y144350D01*
X247965D01*
Y144282D01*
X247896D01*
Y144213D01*
Y144144D01*
X247827D01*
Y144075D01*
X247758D01*
Y144006D01*
X247689D01*
Y143937D01*
Y143868D01*
X247621D01*
Y143799D01*
X247552D01*
Y143730D01*
X247483D01*
Y143662D01*
X247414D01*
Y143593D01*
Y143524D01*
X247345D01*
Y143455D01*
X247276D01*
Y143386D01*
X247207D01*
Y143317D01*
X247138D01*
Y143248D01*
Y143180D01*
X247070D01*
Y143111D01*
X247001D01*
Y143042D01*
X246932D01*
Y142973D01*
Y142904D01*
X246863D01*
Y142835D01*
X246794D01*
Y142766D01*
X246725D01*
Y142697D01*
X246656D01*
Y142629D01*
Y142560D01*
X246587D01*
Y142491D01*
X246518D01*
Y142422D01*
X246450D01*
Y142353D01*
X246381D01*
Y142284D01*
X243350D01*
Y142353D01*
Y142422D01*
Y142491D01*
Y142560D01*
Y142629D01*
Y142697D01*
X243281D01*
Y142766D01*
Y142835D01*
Y142904D01*
Y142973D01*
Y143042D01*
Y143111D01*
Y143180D01*
X243212D01*
Y143248D01*
Y143317D01*
Y143386D01*
Y143455D01*
Y143524D01*
Y143593D01*
X243144D01*
Y143662D01*
Y143730D01*
Y143799D01*
Y143868D01*
Y143937D01*
Y144006D01*
X243075D01*
Y144075D01*
Y144144D01*
Y144213D01*
Y144282D01*
Y144350D01*
Y144419D01*
Y144488D01*
X243006D01*
Y144557D01*
Y144626D01*
Y144695D01*
Y144764D01*
Y144833D01*
Y144901D01*
X242937D01*
Y144970D01*
Y145039D01*
Y145108D01*
Y145177D01*
Y145246D01*
Y145315D01*
Y145384D01*
X242868D01*
Y145452D01*
Y145521D01*
Y145590D01*
Y145659D01*
Y145728D01*
Y145797D01*
X242799D01*
Y145866D01*
Y145935D01*
Y146003D01*
Y146072D01*
Y146141D01*
Y146210D01*
Y146279D01*
X242730D01*
Y146348D01*
Y146417D01*
Y146486D01*
Y146555D01*
Y146623D01*
Y146692D01*
X242661D01*
Y146761D01*
Y146830D01*
Y146899D01*
Y146968D01*
Y147037D01*
Y147106D01*
X242593D01*
Y147174D01*
Y147243D01*
Y147312D01*
Y147381D01*
Y147450D01*
Y147519D01*
Y147588D01*
X242524D01*
Y147657D01*
Y147725D01*
Y147794D01*
Y147863D01*
Y147932D01*
Y148001D01*
X242455D01*
Y148070D01*
Y148139D01*
Y148207D01*
Y148276D01*
Y148345D01*
Y148414D01*
Y148483D01*
X242386D01*
Y148552D01*
Y148621D01*
Y148690D01*
Y148758D01*
Y148827D01*
Y148896D01*
X242317D01*
Y148965D01*
Y149034D01*
Y149103D01*
Y149172D01*
Y149241D01*
Y149310D01*
Y149378D01*
X242248D01*
Y149447D01*
Y149516D01*
Y149585D01*
Y149654D01*
Y149723D01*
Y149792D01*
X242179D01*
Y149861D01*
Y149929D01*
Y149998D01*
Y150067D01*
Y150136D01*
X242041D01*
Y150067D01*
Y149998D01*
Y149929D01*
Y149861D01*
X241973D01*
Y149792D01*
Y149723D01*
Y149654D01*
X241904D01*
Y149585D01*
Y149516D01*
Y149447D01*
X241835D01*
Y149378D01*
Y149310D01*
Y149241D01*
X241766D01*
Y149172D01*
Y149103D01*
Y149034D01*
Y148965D01*
X241697D01*
Y148896D01*
Y148827D01*
Y148758D01*
X241628D01*
Y148690D01*
Y148621D01*
Y148552D01*
X241559D01*
Y148483D01*
Y148414D01*
Y148345D01*
X241491D01*
Y148276D01*
Y148207D01*
Y148139D01*
X241422D01*
Y148070D01*
Y148001D01*
Y147932D01*
Y147863D01*
X241353D01*
Y147794D01*
Y147725D01*
Y147657D01*
X241284D01*
Y147588D01*
Y147519D01*
Y147450D01*
X241215D01*
Y147381D01*
Y147312D01*
Y147243D01*
X241146D01*
Y147174D01*
Y147106D01*
Y147037D01*
Y146968D01*
X241077D01*
Y146899D01*
Y146830D01*
Y146761D01*
X241008D01*
Y146692D01*
Y146623D01*
Y146555D01*
X240939D01*
Y146486D01*
Y146417D01*
Y146348D01*
X240871D01*
Y146279D01*
Y146210D01*
Y146141D01*
X240802D01*
Y146072D01*
Y146003D01*
Y145935D01*
Y145866D01*
X240733D01*
Y145797D01*
Y145728D01*
Y145659D01*
X240664D01*
Y145590D01*
Y145521D01*
Y145452D01*
X240595D01*
Y145384D01*
Y145315D01*
Y145246D01*
X240526D01*
Y145177D01*
Y145108D01*
Y145039D01*
X240457D01*
Y144970D01*
Y144901D01*
Y144833D01*
Y144764D01*
X240388D01*
Y144695D01*
Y144626D01*
Y144557D01*
X240320D01*
Y144488D01*
Y144419D01*
Y144350D01*
X240251D01*
Y144282D01*
Y144213D01*
Y144144D01*
X240182D01*
Y144075D01*
Y144006D01*
Y143937D01*
Y143868D01*
X240113D01*
Y143799D01*
Y143730D01*
Y143662D01*
X240044D01*
Y143593D01*
Y143524D01*
Y143455D01*
X239975D01*
Y143386D01*
Y143317D01*
Y143248D01*
X239906D01*
Y143180D01*
Y143111D01*
Y143042D01*
X239838D01*
Y142973D01*
Y142904D01*
Y142835D01*
Y142766D01*
X239769D01*
Y142697D01*
Y142629D01*
Y142560D01*
X239700D01*
Y142491D01*
Y142422D01*
Y142353D01*
Y142284D01*
X235429D01*
Y142353D01*
X235498D01*
Y142422D01*
Y142491D01*
X235567D01*
Y142560D01*
Y142629D01*
Y142697D01*
X235636D01*
Y142766D01*
Y142835D01*
Y142904D01*
Y142973D01*
X235705D01*
Y143042D01*
Y143111D01*
Y143180D01*
X235774D01*
Y143248D01*
Y143317D01*
Y143386D01*
Y143455D01*
X235843D01*
Y143524D01*
Y143593D01*
Y143662D01*
X235911D01*
Y143730D01*
Y143799D01*
Y143868D01*
X235980D01*
Y143937D01*
Y144006D01*
Y144075D01*
Y144144D01*
X236049D01*
Y144213D01*
Y144282D01*
Y144350D01*
X236118D01*
Y144419D01*
Y144488D01*
Y144557D01*
X236187D01*
Y144626D01*
Y144695D01*
Y144764D01*
X236256D01*
Y144833D01*
Y144901D01*
Y144970D01*
Y145039D01*
X236325D01*
Y145108D01*
Y145177D01*
Y145246D01*
X236394D01*
Y145315D01*
Y145384D01*
Y145452D01*
Y145521D01*
X236462D01*
Y145590D01*
Y145659D01*
Y145728D01*
X236531D01*
Y145797D01*
Y145866D01*
Y145935D01*
X236600D01*
Y146003D01*
Y146072D01*
Y146141D01*
Y146210D01*
X236669D01*
Y146279D01*
Y146348D01*
Y146417D01*
X236738D01*
Y146486D01*
Y146555D01*
Y146623D01*
X236807D01*
Y146692D01*
Y146761D01*
Y146830D01*
Y146899D01*
X236876D01*
Y146968D01*
Y147037D01*
Y147106D01*
X236945D01*
Y147174D01*
Y147243D01*
Y147312D01*
X237014D01*
Y147381D01*
Y147450D01*
Y147519D01*
Y147588D01*
X237082D01*
Y147657D01*
Y147725D01*
Y147794D01*
X237151D01*
Y147863D01*
Y147932D01*
Y148001D01*
X237220D01*
Y148070D01*
Y148139D01*
Y148207D01*
Y148276D01*
X237289D01*
Y148345D01*
Y148414D01*
Y148483D01*
X237358D01*
Y148552D01*
Y148621D01*
Y148690D01*
X237427D01*
Y148758D01*
Y148827D01*
Y148896D01*
Y148965D01*
X237496D01*
Y149034D01*
Y149103D01*
Y149172D01*
X237564D01*
Y149241D01*
Y149310D01*
Y149378D01*
X237633D01*
Y149447D01*
Y149516D01*
Y149585D01*
Y149654D01*
X237702D01*
Y149723D01*
Y149792D01*
Y149861D01*
X237771D01*
Y149929D01*
Y149998D01*
Y150067D01*
X237840D01*
Y150136D01*
Y150205D01*
Y150274D01*
Y150343D01*
X237909D01*
Y150412D01*
Y150480D01*
Y150549D01*
X237978D01*
Y150618D01*
Y150687D01*
Y150756D01*
X238047D01*
Y150825D01*
Y150894D01*
Y150963D01*
Y151031D01*
X238116D01*
Y151100D01*
Y151169D01*
Y151238D01*
X238184D01*
Y151307D01*
Y151376D01*
Y151445D01*
X238253D01*
Y151514D01*
Y151583D01*
Y151651D01*
Y151720D01*
X238322D01*
Y151789D01*
Y151858D01*
Y151927D01*
X238391D01*
Y151996D01*
Y152065D01*
Y152134D01*
X238460D01*
Y152202D01*
Y152271D01*
Y152340D01*
Y152409D01*
X238529D01*
Y152478D01*
Y152547D01*
Y152616D01*
X238598D01*
Y152684D01*
Y152753D01*
Y152822D01*
X238667D01*
Y152891D01*
Y152960D01*
Y153029D01*
Y153098D01*
X238735D01*
Y153167D01*
Y153235D01*
Y153304D01*
X238804D01*
Y153373D01*
Y153442D01*
Y153511D01*
X238873D01*
Y153580D01*
Y153649D01*
Y153718D01*
Y153787D01*
X238942D01*
Y153855D01*
Y153924D01*
Y153993D01*
X239011D01*
Y154062D01*
Y154131D01*
Y154200D01*
X239080D01*
Y154269D01*
Y154338D01*
Y154406D01*
X244521D01*
Y154338D01*
Y154269D01*
X244590D01*
Y154200D01*
Y154131D01*
Y154062D01*
Y153993D01*
X244659D01*
Y153924D01*
Y153855D01*
Y153787D01*
Y153718D01*
X244728D01*
Y153649D01*
Y153580D01*
Y153511D01*
Y153442D01*
Y153373D01*
X244797D01*
Y153304D01*
Y153235D01*
Y153167D01*
Y153098D01*
X244865D01*
Y153029D01*
Y152960D01*
Y152891D01*
Y152822D01*
X244934D01*
Y152753D01*
Y152684D01*
Y152616D01*
Y152547D01*
X245003D01*
Y152478D01*
Y152409D01*
Y152340D01*
Y152271D01*
Y152202D01*
X245072D01*
Y152134D01*
Y152065D01*
Y151996D01*
Y151927D01*
X245141D01*
Y151858D01*
Y151789D01*
Y151720D01*
Y151651D01*
X245210D01*
Y151583D01*
Y151514D01*
Y151445D01*
Y151376D01*
Y151307D01*
X245279D01*
Y151238D01*
Y151169D01*
Y151100D01*
Y151031D01*
X245348D01*
Y150963D01*
Y150894D01*
Y150825D01*
Y150756D01*
X245416D01*
Y150687D01*
Y150618D01*
Y150549D01*
Y150480D01*
X245485D01*
Y150412D01*
Y150343D01*
Y150274D01*
Y150205D01*
Y150136D01*
X245554D01*
Y150067D01*
Y149998D01*
Y149929D01*
Y149861D01*
X245623D01*
Y149792D01*
Y149723D01*
Y149654D01*
Y149585D01*
X245692D01*
Y149516D01*
Y149447D01*
Y149378D01*
Y149310D01*
Y149241D01*
X245761D01*
Y149172D01*
Y149103D01*
Y149034D01*
Y148965D01*
X245830D01*
Y148896D01*
Y148827D01*
Y148758D01*
Y148690D01*
X245899D01*
Y148621D01*
Y148552D01*
Y148483D01*
Y148414D01*
X245968D01*
Y148345D01*
Y148276D01*
Y148207D01*
Y148139D01*
Y148070D01*
X246036D01*
Y148001D01*
Y147932D01*
Y147863D01*
Y147794D01*
X246105D01*
Y147725D01*
Y147657D01*
Y147588D01*
Y147519D01*
X246174D01*
Y147450D01*
Y147381D01*
Y147312D01*
Y147243D01*
Y147174D01*
X246243D01*
Y147106D01*
Y147037D01*
Y146968D01*
Y146899D01*
X246312D01*
Y146830D01*
Y146761D01*
Y146692D01*
Y146623D01*
Y146555D01*
X246450D01*
Y146623D01*
X246518D01*
Y146692D01*
Y146761D01*
X246587D01*
Y146830D01*
X246656D01*
Y146899D01*
Y146968D01*
X246725D01*
Y147037D01*
X246794D01*
Y147106D01*
Y147174D01*
X246863D01*
Y147243D01*
X246932D01*
Y147312D01*
X247001D01*
Y147381D01*
Y147450D01*
X247070D01*
Y147519D01*
X247138D01*
Y147588D01*
Y147657D01*
X247207D01*
Y147725D01*
X247276D01*
Y147794D01*
Y147863D01*
X247345D01*
Y147932D01*
X247414D01*
Y148001D01*
X247483D01*
Y148070D01*
Y148139D01*
X247552D01*
Y148207D01*
X247621D01*
Y148276D01*
Y148345D01*
X247689D01*
Y148414D01*
X247758D01*
Y148483D01*
Y148552D01*
X247827D01*
Y148621D01*
X247896D01*
Y148690D01*
X247965D01*
Y148758D01*
Y148827D01*
X248034D01*
Y148896D01*
X248103D01*
Y148965D01*
Y149034D01*
X248171D01*
Y149103D01*
X248240D01*
Y149172D01*
Y149241D01*
X248309D01*
Y149310D01*
X248378D01*
Y149378D01*
X248447D01*
Y149447D01*
Y149516D01*
X248516D01*
Y149585D01*
X248585D01*
Y149654D01*
Y149723D01*
X248654D01*
Y149792D01*
X248723D01*
Y149861D01*
Y149929D01*
X248791D01*
Y149998D01*
X248860D01*
Y150067D01*
X248929D01*
Y150136D01*
Y150205D01*
X248998D01*
Y150274D01*
X249067D01*
Y150343D01*
Y150412D01*
X249136D01*
Y150480D01*
X249205D01*
Y150549D01*
Y150618D01*
X249274D01*
Y150687D01*
X249342D01*
Y150756D01*
X249411D01*
Y150825D01*
Y150894D01*
X249480D01*
Y150963D01*
X249549D01*
Y151031D01*
Y151100D01*
X249618D01*
Y151169D01*
X249687D01*
Y151238D01*
Y151307D01*
X249756D01*
Y151376D01*
X249825D01*
Y151445D01*
X249893D01*
Y151514D01*
Y151583D01*
X249962D01*
Y151651D01*
X250031D01*
Y151720D01*
Y151789D01*
X250100D01*
Y151858D01*
X250169D01*
Y151927D01*
Y151996D01*
X250238D01*
Y152065D01*
X250307D01*
Y152134D01*
X250376D01*
Y152202D01*
Y152271D01*
X250445D01*
Y152340D01*
X250513D01*
Y152409D01*
Y152478D01*
X250582D01*
Y152547D01*
X250651D01*
Y152616D01*
Y152684D01*
X250720D01*
Y152753D01*
X250789D01*
Y152822D01*
X250858D01*
Y152891D01*
Y152960D01*
X250927D01*
Y153029D01*
X250995D01*
Y153098D01*
Y153167D01*
X251064D01*
Y153235D01*
X251133D01*
Y153304D01*
Y153373D01*
X251202D01*
Y153442D01*
X251271D01*
Y153511D01*
X251340D01*
Y153580D01*
Y153649D01*
X251409D01*
Y153718D01*
X251478D01*
Y153787D01*
Y153855D01*
X251547D01*
Y153924D01*
X251615D01*
Y153993D01*
Y154062D01*
X251684D01*
Y154131D01*
X251753D01*
Y154200D01*
X251822D01*
Y154269D01*
Y154338D01*
X251891D01*
Y154406D01*
X253062D01*
Y154338D01*
D02*
G37*
G36*
X291840D02*
X292459D01*
Y154269D01*
X292873D01*
Y154200D01*
X293148D01*
Y154131D01*
X293424D01*
Y154062D01*
X293630D01*
Y153993D01*
X293837D01*
Y153924D01*
X294043D01*
Y153855D01*
X294181D01*
Y153787D01*
X294388D01*
Y153718D01*
X294526D01*
Y153649D01*
X294663D01*
Y153580D01*
X294732D01*
Y153511D01*
X294870D01*
Y153442D01*
X295008D01*
Y153373D01*
X295077D01*
Y153304D01*
X295146D01*
Y153235D01*
X295283D01*
Y153167D01*
X295352D01*
Y153098D01*
X295421D01*
Y153029D01*
X295490D01*
Y152960D01*
X295559D01*
Y152891D01*
X295628D01*
Y152822D01*
X295696D01*
Y152753D01*
X295765D01*
Y152684D01*
X295834D01*
Y152616D01*
X295903D01*
Y152547D01*
Y152478D01*
X295972D01*
Y152409D01*
X296041D01*
Y152340D01*
Y152271D01*
X296110D01*
Y152202D01*
Y152134D01*
X296179D01*
Y152065D01*
Y151996D01*
X296248D01*
Y151927D01*
Y151858D01*
X296316D01*
Y151789D01*
Y151720D01*
Y151651D01*
Y151583D01*
X296385D01*
Y151514D01*
Y151445D01*
Y151376D01*
Y151307D01*
Y151238D01*
Y151169D01*
X296454D01*
Y151100D01*
Y151031D01*
Y150963D01*
Y150894D01*
Y150825D01*
Y150756D01*
Y150687D01*
X296385D01*
Y150618D01*
Y150549D01*
Y150480D01*
Y150412D01*
Y150343D01*
Y150274D01*
Y150205D01*
X296316D01*
Y150136D01*
Y150067D01*
Y149998D01*
Y149929D01*
X296248D01*
Y149861D01*
Y149792D01*
Y149723D01*
X296179D01*
Y149654D01*
Y149585D01*
X296110D01*
Y149516D01*
Y149447D01*
Y149378D01*
X296041D01*
Y149310D01*
Y149241D01*
X295972D01*
Y149172D01*
X295903D01*
Y149103D01*
Y149034D01*
X295834D01*
Y148965D01*
Y148896D01*
X295765D01*
Y148827D01*
X295696D01*
Y148758D01*
X295628D01*
Y148690D01*
Y148621D01*
X295559D01*
Y148552D01*
X295490D01*
Y148483D01*
X295421D01*
Y148414D01*
X295352D01*
Y148345D01*
X295283D01*
Y148276D01*
X295214D01*
Y148207D01*
X295146D01*
Y148139D01*
X295077D01*
Y148070D01*
X295008D01*
Y148001D01*
X294939D01*
Y147932D01*
X294801D01*
Y147863D01*
X294732D01*
Y147794D01*
X294663D01*
Y147725D01*
X294526D01*
Y147657D01*
X294457D01*
Y147588D01*
X294319D01*
Y147519D01*
X294181D01*
Y147450D01*
X294112D01*
Y147381D01*
X293975D01*
Y147312D01*
X293837D01*
Y147243D01*
X293699D01*
Y147174D01*
X293561D01*
Y147106D01*
X293424D01*
Y147037D01*
X293217D01*
Y146968D01*
X293079D01*
Y146899D01*
X292873D01*
Y146830D01*
X292666D01*
Y146761D01*
X292459D01*
Y146692D01*
X292184D01*
Y146623D01*
Y146555D01*
Y146486D01*
X292253D01*
Y146417D01*
Y146348D01*
X292322D01*
Y146279D01*
Y146210D01*
X292390D01*
Y146141D01*
X292459D01*
Y146072D01*
Y146003D01*
X292528D01*
Y145935D01*
Y145866D01*
X292597D01*
Y145797D01*
Y145728D01*
X292666D01*
Y145659D01*
Y145590D01*
X292735D01*
Y145521D01*
X292804D01*
Y145452D01*
Y145384D01*
X292873D01*
Y145315D01*
Y145246D01*
X292941D01*
Y145177D01*
Y145108D01*
X293010D01*
Y145039D01*
X293079D01*
Y144970D01*
Y144901D01*
X293148D01*
Y144833D01*
Y144764D01*
X293217D01*
Y144695D01*
Y144626D01*
X293286D01*
Y144557D01*
Y144488D01*
X293355D01*
Y144419D01*
X293424D01*
Y144350D01*
Y144282D01*
X293493D01*
Y144213D01*
Y144144D01*
X293561D01*
Y144075D01*
Y144006D01*
X293630D01*
Y143937D01*
X293699D01*
Y143868D01*
Y143799D01*
X293768D01*
Y143730D01*
Y143662D01*
X293837D01*
Y143593D01*
Y143524D01*
X293906D01*
Y143455D01*
Y143386D01*
X293975D01*
Y143317D01*
X294043D01*
Y143248D01*
Y143180D01*
X294112D01*
Y143111D01*
Y143042D01*
X294181D01*
Y142973D01*
Y142904D01*
X294250D01*
Y142835D01*
Y142766D01*
X294319D01*
Y142697D01*
X294388D01*
Y142629D01*
Y142560D01*
X294457D01*
Y142491D01*
Y142422D01*
X294526D01*
Y142353D01*
X294595D01*
Y142284D01*
X289153D01*
Y142353D01*
Y142422D01*
X289084D01*
Y142491D01*
Y142560D01*
X289016D01*
Y142629D01*
Y142697D01*
X288947D01*
Y142766D01*
Y142835D01*
X288878D01*
Y142904D01*
Y142973D01*
X288809D01*
Y143042D01*
Y143111D01*
Y143180D01*
X288740D01*
Y143248D01*
Y143317D01*
X288671D01*
Y143386D01*
Y143455D01*
X288602D01*
Y143524D01*
Y143593D01*
X288533D01*
Y143662D01*
Y143730D01*
X288464D01*
Y143799D01*
Y143868D01*
X288396D01*
Y143937D01*
Y144006D01*
X288327D01*
Y144075D01*
Y144144D01*
Y144213D01*
X288258D01*
Y144282D01*
Y144350D01*
X288189D01*
Y144419D01*
Y144488D01*
X288120D01*
Y144557D01*
Y144626D01*
X288051D01*
Y144695D01*
Y144764D01*
X287982D01*
Y144833D01*
Y144901D01*
X287913D01*
Y144970D01*
Y145039D01*
X287845D01*
Y145108D01*
Y145177D01*
Y145246D01*
X287776D01*
Y145315D01*
Y145384D01*
X287707D01*
Y145452D01*
Y145521D01*
X287638D01*
Y145590D01*
Y145659D01*
X287569D01*
Y145728D01*
Y145797D01*
X287500D01*
Y145866D01*
Y145935D01*
X287431D01*
Y146003D01*
Y146072D01*
X287363D01*
Y146141D01*
Y146210D01*
X285434D01*
Y146141D01*
Y146072D01*
X285365D01*
Y146003D01*
Y145935D01*
Y145866D01*
Y145797D01*
X285296D01*
Y145728D01*
Y145659D01*
Y145590D01*
X285227D01*
Y145521D01*
Y145452D01*
Y145384D01*
X285158D01*
Y145315D01*
Y145246D01*
Y145177D01*
X285089D01*
Y145108D01*
Y145039D01*
Y144970D01*
X285021D01*
Y144901D01*
Y144833D01*
Y144764D01*
Y144695D01*
X284952D01*
Y144626D01*
Y144557D01*
Y144488D01*
X284883D01*
Y144419D01*
Y144350D01*
Y144282D01*
X284814D01*
Y144213D01*
Y144144D01*
Y144075D01*
X284745D01*
Y144006D01*
Y143937D01*
Y143868D01*
Y143799D01*
X284676D01*
Y143730D01*
Y143662D01*
Y143593D01*
X284607D01*
Y143524D01*
Y143455D01*
Y143386D01*
X284539D01*
Y143317D01*
Y143248D01*
Y143180D01*
X284470D01*
Y143111D01*
Y143042D01*
Y142973D01*
X284401D01*
Y142904D01*
Y142835D01*
Y142766D01*
Y142697D01*
X284332D01*
Y142629D01*
Y142560D01*
Y142491D01*
X284263D01*
Y142422D01*
Y142353D01*
Y142284D01*
X279442D01*
Y142353D01*
Y142422D01*
X279510D01*
Y142491D01*
Y142560D01*
Y142629D01*
X279579D01*
Y142697D01*
Y142766D01*
Y142835D01*
X279648D01*
Y142904D01*
Y142973D01*
Y143042D01*
Y143111D01*
X279717D01*
Y143180D01*
Y143248D01*
Y143317D01*
X279786D01*
Y143386D01*
Y143455D01*
Y143524D01*
X279855D01*
Y143593D01*
Y143662D01*
Y143730D01*
Y143799D01*
X279924D01*
Y143868D01*
Y143937D01*
Y144006D01*
X279993D01*
Y144075D01*
Y144144D01*
Y144213D01*
X280062D01*
Y144282D01*
Y144350D01*
Y144419D01*
Y144488D01*
X280130D01*
Y144557D01*
Y144626D01*
Y144695D01*
X280199D01*
Y144764D01*
Y144833D01*
Y144901D01*
X280268D01*
Y144970D01*
Y145039D01*
Y145108D01*
Y145177D01*
X280337D01*
Y145246D01*
Y145315D01*
Y145384D01*
X280406D01*
Y145452D01*
Y145521D01*
Y145590D01*
X280475D01*
Y145659D01*
Y145728D01*
Y145797D01*
Y145866D01*
X280544D01*
Y145935D01*
Y146003D01*
Y146072D01*
X280612D01*
Y146141D01*
Y146210D01*
Y146279D01*
X280681D01*
Y146348D01*
Y146417D01*
Y146486D01*
Y146555D01*
X280750D01*
Y146623D01*
Y146692D01*
Y146761D01*
X280819D01*
Y146830D01*
Y146899D01*
Y146968D01*
Y147037D01*
X280888D01*
Y147106D01*
Y147174D01*
Y147243D01*
X280957D01*
Y147312D01*
Y147381D01*
Y147450D01*
X281026D01*
Y147519D01*
Y147588D01*
Y147657D01*
X281095D01*
Y147725D01*
Y147794D01*
Y147863D01*
Y147932D01*
X281164D01*
Y148001D01*
Y148070D01*
Y148139D01*
X281232D01*
Y148207D01*
Y148276D01*
Y148345D01*
X281301D01*
Y148414D01*
Y148483D01*
Y148552D01*
Y148621D01*
X281370D01*
Y148690D01*
Y148758D01*
Y148827D01*
X281439D01*
Y148896D01*
Y148965D01*
Y149034D01*
Y149103D01*
X281508D01*
Y149172D01*
Y149241D01*
Y149310D01*
X281577D01*
Y149378D01*
Y149447D01*
Y149516D01*
X281646D01*
Y149585D01*
Y149654D01*
Y149723D01*
X281715D01*
Y149792D01*
Y149861D01*
Y149929D01*
Y149998D01*
X281783D01*
Y150067D01*
Y150136D01*
Y150205D01*
X281852D01*
Y150274D01*
Y150343D01*
Y150412D01*
X281921D01*
Y150480D01*
Y150549D01*
Y150618D01*
Y150687D01*
X281990D01*
Y150756D01*
Y150825D01*
Y150894D01*
X282059D01*
Y150963D01*
Y151031D01*
Y151100D01*
X282128D01*
Y151169D01*
Y151238D01*
Y151307D01*
Y151376D01*
X282197D01*
Y151445D01*
Y151514D01*
Y151583D01*
X282266D01*
Y151651D01*
Y151720D01*
Y151789D01*
Y151858D01*
X282334D01*
Y151927D01*
Y151996D01*
Y152065D01*
X282403D01*
Y152134D01*
Y152202D01*
Y152271D01*
X282472D01*
Y152340D01*
Y152409D01*
Y152478D01*
X282541D01*
Y152547D01*
Y152616D01*
Y152684D01*
Y152753D01*
X282610D01*
Y152822D01*
Y152891D01*
Y152960D01*
X282679D01*
Y153029D01*
Y153098D01*
Y153167D01*
X282748D01*
Y153235D01*
Y153304D01*
Y153373D01*
Y153442D01*
X282817D01*
Y153511D01*
Y153580D01*
Y153649D01*
X282886D01*
Y153718D01*
Y153787D01*
Y153855D01*
Y153924D01*
X282954D01*
Y153993D01*
Y154062D01*
Y154131D01*
X283023D01*
Y154200D01*
Y154269D01*
Y154338D01*
Y154406D01*
X291840D01*
Y154338D01*
D02*
G37*
G36*
X264633D02*
Y154269D01*
Y154200D01*
X264564D01*
Y154131D01*
Y154062D01*
Y153993D01*
X264495D01*
Y153924D01*
Y153855D01*
Y153787D01*
Y153718D01*
X264426D01*
Y153649D01*
Y153580D01*
Y153511D01*
X264358D01*
Y153442D01*
Y153373D01*
Y153304D01*
X264289D01*
Y153235D01*
Y153167D01*
Y153098D01*
X264220D01*
Y153029D01*
Y152960D01*
Y152891D01*
Y152822D01*
X264151D01*
Y152753D01*
Y152684D01*
Y152616D01*
X264082D01*
Y152547D01*
Y152478D01*
Y152409D01*
X264013D01*
Y152340D01*
Y152271D01*
Y152202D01*
Y152134D01*
X263944D01*
Y152065D01*
Y151996D01*
Y151927D01*
X263876D01*
Y151858D01*
Y151789D01*
Y151720D01*
Y151651D01*
X263807D01*
Y151583D01*
Y151514D01*
Y151445D01*
X263738D01*
Y151376D01*
Y151307D01*
Y151238D01*
X263669D01*
Y151169D01*
Y151100D01*
Y151031D01*
X263600D01*
Y150963D01*
Y150894D01*
Y150825D01*
Y150756D01*
X263531D01*
Y150687D01*
Y150618D01*
Y150549D01*
X263462D01*
Y150480D01*
Y150412D01*
Y150343D01*
X263393D01*
Y150274D01*
Y150205D01*
Y150136D01*
Y150067D01*
X263324D01*
Y149998D01*
Y149929D01*
Y149861D01*
X263256D01*
Y149792D01*
Y149723D01*
Y149654D01*
X263187D01*
Y149585D01*
Y149516D01*
Y149447D01*
Y149378D01*
X263118D01*
Y149310D01*
Y149241D01*
Y149172D01*
X263049D01*
Y149103D01*
Y149034D01*
Y148965D01*
Y148896D01*
X262980D01*
Y148827D01*
Y148758D01*
Y148690D01*
X262911D01*
Y148621D01*
Y148552D01*
Y148483D01*
X262842D01*
Y148414D01*
Y148345D01*
Y148276D01*
X262773D01*
Y148207D01*
Y148139D01*
Y148070D01*
Y148001D01*
X262705D01*
Y147932D01*
Y147863D01*
Y147794D01*
X262636D01*
Y147725D01*
Y147657D01*
Y147588D01*
X262567D01*
Y147519D01*
Y147450D01*
Y147381D01*
Y147312D01*
X262498D01*
Y147243D01*
Y147174D01*
Y147106D01*
X262429D01*
Y147037D01*
Y146968D01*
Y146899D01*
Y146830D01*
X262360D01*
Y146761D01*
Y146692D01*
Y146623D01*
X262291D01*
Y146555D01*
Y146486D01*
Y146417D01*
X262222D01*
Y146348D01*
Y146279D01*
Y146210D01*
X262154D01*
Y146141D01*
Y146072D01*
Y146003D01*
Y145935D01*
X262085D01*
Y145866D01*
Y145797D01*
Y145728D01*
X262016D01*
Y145659D01*
Y145590D01*
Y145521D01*
X261947D01*
Y145452D01*
Y145384D01*
Y145315D01*
Y145246D01*
X261878D01*
Y145177D01*
Y145108D01*
Y145039D01*
X261809D01*
Y144970D01*
Y144901D01*
Y144833D01*
Y144764D01*
X261740D01*
Y144695D01*
Y144626D01*
Y144557D01*
X261671D01*
Y144488D01*
Y144419D01*
Y144350D01*
X261602D01*
Y144282D01*
Y144213D01*
Y144144D01*
Y144075D01*
X261534D01*
Y144006D01*
Y143937D01*
Y143868D01*
X261465D01*
Y143799D01*
Y143730D01*
Y143662D01*
X261396D01*
Y143593D01*
Y143524D01*
Y143455D01*
X261327D01*
Y143386D01*
Y143317D01*
Y143248D01*
Y143180D01*
X261258D01*
Y143111D01*
Y143042D01*
Y142973D01*
X261189D01*
Y142904D01*
Y142835D01*
Y142766D01*
Y142697D01*
X261120D01*
Y142629D01*
Y142560D01*
Y142491D01*
X261052D01*
Y142422D01*
Y142353D01*
Y142284D01*
X256230D01*
Y142353D01*
Y142422D01*
X256299D01*
Y142491D01*
Y142560D01*
Y142629D01*
X256368D01*
Y142697D01*
Y142766D01*
Y142835D01*
X256437D01*
Y142904D01*
Y142973D01*
Y143042D01*
Y143111D01*
X256506D01*
Y143180D01*
Y143248D01*
Y143317D01*
X256575D01*
Y143386D01*
Y143455D01*
Y143524D01*
X256643D01*
Y143593D01*
Y143662D01*
Y143730D01*
Y143799D01*
X256712D01*
Y143868D01*
Y143937D01*
Y144006D01*
X256781D01*
Y144075D01*
Y144144D01*
Y144213D01*
X256850D01*
Y144282D01*
Y144350D01*
Y144419D01*
Y144488D01*
X256919D01*
Y144557D01*
Y144626D01*
Y144695D01*
X256988D01*
Y144764D01*
Y144833D01*
Y144901D01*
X257057D01*
Y144970D01*
Y145039D01*
Y145108D01*
Y145177D01*
X257125D01*
Y145246D01*
Y145315D01*
Y145384D01*
X257194D01*
Y145452D01*
Y145521D01*
Y145590D01*
X257263D01*
Y145659D01*
Y145728D01*
Y145797D01*
Y145866D01*
X257332D01*
Y145935D01*
Y146003D01*
Y146072D01*
X257401D01*
Y146141D01*
Y146210D01*
Y146279D01*
X257470D01*
Y146348D01*
Y146417D01*
Y146486D01*
Y146555D01*
X257539D01*
Y146623D01*
Y146692D01*
Y146761D01*
X257608D01*
Y146830D01*
Y146899D01*
Y146968D01*
X257677D01*
Y147037D01*
Y147106D01*
Y147174D01*
Y147243D01*
X257745D01*
Y147312D01*
Y147381D01*
Y147450D01*
X257814D01*
Y147519D01*
Y147588D01*
Y147657D01*
X257883D01*
Y147725D01*
Y147794D01*
Y147863D01*
Y147932D01*
X257952D01*
Y148001D01*
Y148070D01*
Y148139D01*
X258021D01*
Y148207D01*
Y148276D01*
Y148345D01*
X258090D01*
Y148414D01*
Y148483D01*
Y148552D01*
Y148621D01*
X258159D01*
Y148690D01*
Y148758D01*
Y148827D01*
X258228D01*
Y148896D01*
Y148965D01*
Y149034D01*
X258296D01*
Y149103D01*
Y149172D01*
Y149241D01*
Y149310D01*
X258365D01*
Y149378D01*
Y149447D01*
Y149516D01*
X258434D01*
Y149585D01*
Y149654D01*
Y149723D01*
X258503D01*
Y149792D01*
Y149861D01*
Y149929D01*
Y149998D01*
X258572D01*
Y150067D01*
Y150136D01*
Y150205D01*
X258641D01*
Y150274D01*
Y150343D01*
Y150412D01*
X258710D01*
Y150480D01*
Y150549D01*
Y150618D01*
Y150687D01*
X258779D01*
Y150756D01*
Y150825D01*
Y150894D01*
X258847D01*
Y150963D01*
Y151031D01*
Y151100D01*
X258916D01*
Y151169D01*
Y151238D01*
Y151307D01*
Y151376D01*
X258985D01*
Y151445D01*
Y151514D01*
Y151583D01*
X259054D01*
Y151651D01*
Y151720D01*
Y151789D01*
X259123D01*
Y151858D01*
Y151927D01*
Y151996D01*
Y152065D01*
X259192D01*
Y152134D01*
Y152202D01*
Y152271D01*
X259261D01*
Y152340D01*
Y152409D01*
Y152478D01*
X259330D01*
Y152547D01*
Y152616D01*
Y152684D01*
Y152753D01*
X259399D01*
Y152822D01*
Y152891D01*
Y152960D01*
X259467D01*
Y153029D01*
Y153098D01*
Y153167D01*
X259536D01*
Y153235D01*
Y153304D01*
Y153373D01*
Y153442D01*
X259605D01*
Y153511D01*
Y153580D01*
Y153649D01*
X259674D01*
Y153718D01*
Y153787D01*
Y153855D01*
X259743D01*
Y153924D01*
Y153993D01*
Y154062D01*
Y154131D01*
X259812D01*
Y154200D01*
Y154269D01*
Y154338D01*
Y154406D01*
X264633D01*
Y154338D01*
D02*
G37*
G36*
X257952D02*
X257883D01*
Y154269D01*
Y154200D01*
Y154131D01*
X257814D01*
Y154062D01*
Y153993D01*
Y153924D01*
Y153855D01*
X257745D01*
Y153787D01*
Y153718D01*
Y153649D01*
X257677D01*
Y153580D01*
Y153511D01*
Y153442D01*
X257608D01*
Y153373D01*
Y153304D01*
Y153235D01*
Y153167D01*
X257539D01*
Y153098D01*
Y153029D01*
Y152960D01*
X257470D01*
Y152891D01*
Y152822D01*
Y152753D01*
X257401D01*
Y152684D01*
Y152616D01*
Y152547D01*
Y152478D01*
X257332D01*
Y152409D01*
Y152340D01*
Y152271D01*
X257263D01*
Y152202D01*
Y152134D01*
Y152065D01*
X257194D01*
Y151996D01*
Y151927D01*
Y151858D01*
Y151789D01*
X257125D01*
Y151720D01*
Y151651D01*
Y151583D01*
X257057D01*
Y151514D01*
Y151445D01*
Y151376D01*
X256988D01*
Y151307D01*
Y151238D01*
Y151169D01*
Y151100D01*
X256919D01*
Y151031D01*
Y150963D01*
Y150894D01*
X256850D01*
Y150825D01*
Y150756D01*
Y150687D01*
X256781D01*
Y150618D01*
Y150549D01*
Y150480D01*
Y150412D01*
X256712D01*
Y150343D01*
Y150274D01*
Y150205D01*
X256643D01*
Y150136D01*
Y150067D01*
Y149998D01*
X256575D01*
Y149929D01*
Y149861D01*
Y149792D01*
Y149723D01*
X256506D01*
Y149654D01*
Y149585D01*
Y149516D01*
X256437D01*
Y149447D01*
Y149378D01*
Y149310D01*
X256368D01*
Y149241D01*
Y149172D01*
Y149103D01*
Y149034D01*
X256299D01*
Y148965D01*
Y148896D01*
Y148827D01*
X256230D01*
Y148758D01*
Y148690D01*
Y148621D01*
X256161D01*
Y148552D01*
Y148483D01*
Y148414D01*
Y148345D01*
X256092D01*
Y148276D01*
Y148207D01*
Y148139D01*
X256024D01*
Y148070D01*
Y148001D01*
Y147932D01*
X255955D01*
Y147863D01*
Y147794D01*
Y147725D01*
Y147657D01*
X255886D01*
Y147588D01*
Y147519D01*
Y147450D01*
X255817D01*
Y147381D01*
Y147312D01*
Y147243D01*
X255748D01*
Y147174D01*
Y147106D01*
Y147037D01*
Y146968D01*
X255679D01*
Y146899D01*
Y146830D01*
Y146761D01*
X255610D01*
Y146692D01*
Y146623D01*
Y146555D01*
X255541D01*
Y146486D01*
Y146417D01*
Y146348D01*
Y146279D01*
X255472D01*
Y146210D01*
Y146141D01*
Y146072D01*
X255404D01*
Y146003D01*
Y145935D01*
Y145866D01*
X255335D01*
Y145797D01*
Y145728D01*
Y145659D01*
Y145590D01*
X255266D01*
Y145521D01*
Y145452D01*
Y145384D01*
X255197D01*
Y145315D01*
Y145246D01*
Y145177D01*
X255128D01*
Y145108D01*
Y145039D01*
Y144970D01*
Y144901D01*
X255059D01*
Y144833D01*
Y144764D01*
Y144695D01*
X254990D01*
Y144626D01*
Y144557D01*
Y144488D01*
X254922D01*
Y144419D01*
Y144350D01*
Y144282D01*
Y144213D01*
X254853D01*
Y144144D01*
Y144075D01*
Y144006D01*
X254784D01*
Y143937D01*
Y143868D01*
Y143799D01*
X254715D01*
Y143730D01*
Y143662D01*
Y143593D01*
Y143524D01*
X254646D01*
Y143455D01*
Y143386D01*
Y143317D01*
X254577D01*
Y143248D01*
Y143180D01*
Y143111D01*
X254508D01*
Y143042D01*
Y142973D01*
Y142904D01*
Y142835D01*
X254439D01*
Y142766D01*
Y142697D01*
Y142629D01*
X254370D01*
Y142560D01*
Y142491D01*
Y142422D01*
X254302D01*
Y142353D01*
Y142284D01*
X250100D01*
Y142353D01*
X250169D01*
Y142422D01*
Y142491D01*
Y142560D01*
X250238D01*
Y142629D01*
Y142697D01*
Y142766D01*
X250307D01*
Y142835D01*
Y142904D01*
Y142973D01*
Y143042D01*
X250376D01*
Y143111D01*
Y143180D01*
Y143248D01*
X250445D01*
Y143317D01*
Y143386D01*
Y143455D01*
X250513D01*
Y143524D01*
Y143593D01*
Y143662D01*
Y143730D01*
X250582D01*
Y143799D01*
Y143868D01*
Y143937D01*
X250651D01*
Y144006D01*
Y144075D01*
Y144144D01*
X250720D01*
Y144213D01*
Y144282D01*
Y144350D01*
X250789D01*
Y144419D01*
Y144488D01*
Y144557D01*
Y144626D01*
X250858D01*
Y144695D01*
Y144764D01*
Y144833D01*
X250927D01*
Y144901D01*
Y144970D01*
Y145039D01*
Y145108D01*
X250995D01*
Y145177D01*
Y145246D01*
Y145315D01*
X251064D01*
Y145384D01*
Y145452D01*
Y145521D01*
X251133D01*
Y145590D01*
Y145659D01*
Y145728D01*
Y145797D01*
X251202D01*
Y145866D01*
Y145935D01*
Y146003D01*
X251271D01*
Y146072D01*
Y146141D01*
Y146210D01*
X251340D01*
Y146279D01*
Y146348D01*
Y146417D01*
Y146486D01*
X251409D01*
Y146555D01*
Y146623D01*
Y146692D01*
X251478D01*
Y146761D01*
Y146830D01*
Y146899D01*
X251547D01*
Y146968D01*
Y147037D01*
Y147106D01*
Y147174D01*
X251615D01*
Y147243D01*
Y147312D01*
Y147381D01*
X251684D01*
Y147450D01*
Y147519D01*
Y147588D01*
X251753D01*
Y147657D01*
Y147725D01*
Y147794D01*
Y147863D01*
X251822D01*
Y147932D01*
Y148001D01*
Y148070D01*
X251891D01*
Y148139D01*
Y148207D01*
Y148276D01*
X251960D01*
Y148345D01*
Y148414D01*
Y148483D01*
Y148552D01*
X252029D01*
Y148621D01*
Y148690D01*
Y148758D01*
X252098D01*
Y148827D01*
Y148896D01*
Y148965D01*
X252166D01*
Y149034D01*
Y149103D01*
Y149172D01*
Y149241D01*
X252235D01*
Y149310D01*
Y149378D01*
Y149447D01*
X252304D01*
Y149516D01*
Y149585D01*
Y149654D01*
X252373D01*
Y149723D01*
Y149792D01*
Y149861D01*
Y149929D01*
X252442D01*
Y149998D01*
Y150067D01*
Y150136D01*
X252511D01*
Y150205D01*
Y150274D01*
Y150343D01*
X252580D01*
Y150412D01*
Y150480D01*
Y150549D01*
Y150618D01*
X252648D01*
Y150687D01*
Y150756D01*
Y150825D01*
X252717D01*
Y150894D01*
Y150963D01*
Y151031D01*
X252786D01*
Y151100D01*
Y151169D01*
Y151238D01*
Y151307D01*
X252855D01*
Y151376D01*
Y151445D01*
Y151514D01*
X252924D01*
Y151583D01*
Y151651D01*
Y151720D01*
X252993D01*
Y151789D01*
Y151858D01*
Y151927D01*
Y151996D01*
X253062D01*
Y152065D01*
Y152134D01*
Y152202D01*
X253131D01*
Y152271D01*
Y152340D01*
Y152409D01*
X253200D01*
Y152478D01*
Y152547D01*
Y152616D01*
Y152684D01*
X253268D01*
Y152753D01*
Y152822D01*
Y152891D01*
X253337D01*
Y152960D01*
Y153029D01*
Y153098D01*
X253406D01*
Y153167D01*
Y153235D01*
Y153304D01*
Y153373D01*
X253475D01*
Y153442D01*
Y153511D01*
Y153580D01*
X253544D01*
Y153649D01*
Y153718D01*
Y153787D01*
X253613D01*
Y153855D01*
Y153924D01*
Y153993D01*
Y154062D01*
X253682D01*
Y154131D01*
Y154200D01*
Y154269D01*
X253751D01*
Y154338D01*
Y154406D01*
X257952D01*
Y154338D01*
D02*
G37*
%LPC*%
G36*
X289704Y151445D02*
X286674D01*
Y151376D01*
Y151307D01*
X286605D01*
Y151238D01*
Y151169D01*
Y151100D01*
Y151031D01*
Y150963D01*
Y150894D01*
Y150825D01*
X286536D01*
Y150756D01*
Y150687D01*
Y150618D01*
Y150549D01*
Y150480D01*
X286467D01*
Y150412D01*
Y150343D01*
Y150274D01*
Y150205D01*
Y150136D01*
Y150067D01*
Y149998D01*
X286398D01*
Y149929D01*
Y149861D01*
Y149792D01*
Y149723D01*
Y149654D01*
X286329D01*
Y149585D01*
Y149516D01*
Y149447D01*
Y149378D01*
Y149310D01*
Y149241D01*
X286260D01*
Y149172D01*
Y149103D01*
Y149034D01*
Y148965D01*
Y148896D01*
Y148827D01*
Y148758D01*
X286192D01*
Y148690D01*
Y148621D01*
Y148552D01*
Y148483D01*
Y148414D01*
X286123D01*
Y148345D01*
Y148276D01*
Y148207D01*
Y148139D01*
Y148070D01*
Y148001D01*
Y147932D01*
X286054D01*
Y147863D01*
Y147794D01*
Y147725D01*
Y147657D01*
X288602D01*
Y147725D01*
X289153D01*
Y147794D01*
X289429D01*
Y147863D01*
X289635D01*
Y147932D01*
X289773D01*
Y148001D01*
X289911D01*
Y148070D01*
X290049D01*
Y148139D01*
X290118D01*
Y148207D01*
X290255D01*
Y148276D01*
X290324D01*
Y148345D01*
X290393D01*
Y148414D01*
X290462D01*
Y148483D01*
X290531D01*
Y148552D01*
X290600D01*
Y148621D01*
X290669D01*
Y148690D01*
Y148758D01*
X290737D01*
Y148827D01*
Y148896D01*
X290806D01*
Y148965D01*
X290875D01*
Y149034D01*
Y149103D01*
Y149172D01*
X290944D01*
Y149241D01*
Y149310D01*
Y149378D01*
X291013D01*
Y149447D01*
Y149516D01*
Y149585D01*
Y149654D01*
Y149723D01*
Y149792D01*
Y149861D01*
Y149929D01*
Y149998D01*
Y150067D01*
Y150136D01*
Y150205D01*
Y150274D01*
Y150343D01*
X290944D01*
Y150412D01*
Y150480D01*
Y150549D01*
X290875D01*
Y150618D01*
Y150687D01*
Y150756D01*
X290806D01*
Y150825D01*
X290737D01*
Y150894D01*
Y150963D01*
X290669D01*
Y151031D01*
X290600D01*
Y151100D01*
X290462D01*
Y151169D01*
X290393D01*
Y151238D01*
X290255D01*
Y151307D01*
X290049D01*
Y151376D01*
X289704D01*
Y151445D01*
D02*
G37*
%LPD*%
D10*
X90650Y207480D02*
G03*
X90650Y207480I-492J0D01*
G01*
X225098Y208071D02*
G03*
X225098Y208071I-492J0D01*
G01*
X20866Y116142D02*
G03*
X20866Y116142I-492J0D01*
G01*
X17028Y107283D02*
G03*
X17028Y107283I-492J0D01*
G01*
X40650Y92520D02*
G03*
X40650Y92520I-492J0D01*
G01*
X135138Y11220D02*
G03*
X135138Y11220I-492J0D01*
G01*
X161614Y143405D02*
G03*
X161614Y143405I-492J0D01*
G01*
X39862Y197933D02*
G03*
X39862Y197933I-492J0D01*
G01*
D11*
X66831Y53888D02*
G03*
X66831Y55167I0J640D01*
G01*
X42047Y201614D02*
X45591D01*
X42047Y208819D02*
X45591D01*
X92716Y190748D02*
X94390D01*
X92716D02*
Y192421D01*
X108366Y190748D02*
X110039D01*
Y192421D01*
Y206398D02*
Y208071D01*
X108366D02*
X110039D01*
X92716D02*
X94390D01*
X92716Y206398D02*
Y208071D01*
X228740Y186024D02*
X243307D01*
X228740Y206102D02*
X243307D01*
Y186024D02*
Y206102D01*
X228740Y186024D02*
Y206102D01*
X207382Y170965D02*
X208957D01*
X207382Y177461D02*
X208957D01*
X280610Y203346D02*
X284400D01*
X289370Y198376D01*
X263386D02*
X268356Y203346D01*
X272146D01*
X289370Y177362D02*
Y198376D01*
X280610Y177362D02*
X289370D01*
X263386D02*
X272146D01*
X263386D02*
Y198376D01*
X21457Y121850D02*
X33661D01*
X21457Y119882D02*
X33661D01*
Y121850D01*
X21457Y119882D02*
Y121850D01*
X23228Y94685D02*
Y96850D01*
X18898Y94685D02*
X23228D01*
Y103150D02*
Y105315D01*
X18898D02*
X23228D01*
X33465Y102953D02*
Y105118D01*
X37795D01*
X33465Y94488D02*
Y96653D01*
Y94488D02*
X37795D01*
X81299Y75394D02*
Y76181D01*
X83661Y75394D02*
Y76181D01*
X66831Y49350D02*
X77067D01*
Y59705D01*
X66831D02*
X77067D01*
X66831Y55167D02*
Y59705D01*
Y49350D02*
Y53888D01*
X20000Y20020D02*
X23543D01*
X20000Y27224D02*
X23543D01*
X70276Y28740D02*
X74213D01*
X70276Y18504D02*
X74213D01*
X127953Y21654D02*
Y23819D01*
X132283D01*
X127953Y13189D02*
Y15354D01*
Y13189D02*
X132283D01*
X175197Y134252D02*
Y139764D01*
X185827Y134252D02*
Y139764D01*
X161221Y140847D02*
X161713D01*
Y135630D02*
Y140847D01*
Y128248D02*
Y133465D01*
X161221Y128248D02*
X161713D01*
X148327D02*
X148819D01*
X148327D02*
Y133465D01*
Y140847D02*
X148819D01*
X148327Y135630D02*
Y140847D01*
X45079Y184646D02*
Y196850D01*
X43110Y184646D02*
Y196850D01*
Y184646D02*
X45079D01*
X43110Y196850D02*
X45079D01*
X142618Y147638D02*
X144193D01*
X142618Y154134D02*
X144193D01*
X116634Y210925D02*
Y215551D01*
X133366Y210925D02*
Y215551D01*
X116634Y196752D02*
Y199606D01*
X133366Y196752D02*
Y199606D01*
X116634Y215551D02*
X133366D01*
X116535Y196752D02*
X133268D01*
X25061Y156743D02*
X24405Y157399D01*
X23093D01*
X22437Y156743D01*
Y154119D01*
X23093Y153463D01*
X24405D01*
X25061Y154119D01*
X26373Y157399D02*
Y153463D01*
Y155431D01*
X28997D01*
Y157399D01*
Y153463D01*
X32932Y156743D02*
X32276Y157399D01*
X30965D01*
X30309Y156743D01*
Y154119D01*
X30965Y153463D01*
X32276D01*
X32932Y154119D01*
Y155431D01*
X31620D01*
X13254Y150130D02*
X12598Y150786D01*
X11286D01*
X10630Y150130D01*
Y149474D01*
X11286Y148818D01*
X12598D01*
X13254Y148162D01*
Y147506D01*
X12598Y146850D01*
X11286D01*
X10630Y147506D01*
X14566Y150786D02*
X17189D01*
X15878D01*
Y146850D01*
X18501D02*
Y149474D01*
X19813Y150786D01*
X21125Y149474D01*
Y146850D01*
Y148818D01*
X18501D01*
X22437Y150786D02*
X25061D01*
X23749D01*
Y146850D01*
X26373Y150786D02*
Y147506D01*
X27029Y146850D01*
X28341D01*
X28997Y147506D01*
Y150786D01*
X32932Y150130D02*
X32276Y150786D01*
X30965D01*
X30309Y150130D01*
Y149474D01*
X30965Y148818D01*
X32276D01*
X32932Y148162D01*
Y147506D01*
X32276Y146850D01*
X30965D01*
X30309Y147506D01*
X80577Y127609D02*
X79921Y128265D01*
X78609D01*
X77953Y127609D01*
Y124985D01*
X78609Y124329D01*
X79921D01*
X80577Y124985D01*
X81889Y128265D02*
Y124329D01*
Y126297D01*
X84512D01*
Y128265D01*
Y124329D01*
X88448Y127609D02*
X87792Y128265D01*
X86480D01*
X85824Y127609D01*
Y124985D01*
X86480Y124329D01*
X87792D01*
X88448Y124985D01*
Y126297D01*
X87136D01*
X80577Y120996D02*
X79921Y121652D01*
X78609D01*
X77953Y120996D01*
Y118372D01*
X78609Y117717D01*
X79921D01*
X80577Y118372D01*
X83856Y121652D02*
X82544D01*
X81889Y120996D01*
Y118372D01*
X82544Y117717D01*
X83856D01*
X84512Y118372D01*
Y120996D01*
X83856Y121652D01*
X85824Y117717D02*
Y121652D01*
X88448Y117717D01*
Y121652D01*
X89760D02*
X92384D01*
X91072D01*
Y117717D01*
X93696D02*
Y121652D01*
X95664D01*
X96320Y120996D01*
Y119684D01*
X95664Y119028D01*
X93696D01*
X95008D02*
X96320Y117717D01*
X99599Y121652D02*
X98287D01*
X97631Y120996D01*
Y118372D01*
X98287Y117717D01*
X99599D01*
X100255Y118372D01*
Y120996D01*
X99599Y121652D01*
X101567D02*
Y117717D01*
X104191D01*
X129921Y56298D02*
Y53018D01*
X130577Y52362D01*
X131889D01*
X132545Y53018D01*
Y56298D01*
X133857Y52362D02*
Y54986D01*
X135169Y56298D01*
X136481Y54986D01*
Y52362D01*
Y54330D01*
X133857D01*
X137793Y52362D02*
Y56298D01*
X139761D01*
X140417Y55642D01*
Y54330D01*
X139761Y53674D01*
X137793D01*
X139105D02*
X140417Y52362D01*
X141728Y56298D02*
X144352D01*
X143040D01*
Y52362D01*
X52821Y161744D02*
X52165Y162400D01*
X50853D01*
X50197Y161744D01*
Y159121D01*
X50853Y158465D01*
X52165D01*
X52821Y159121D01*
X54133Y162400D02*
Y158465D01*
Y160432D01*
X56756D01*
Y162400D01*
Y158465D01*
X60692Y161744D02*
X60036Y162400D01*
X58724D01*
X58068Y161744D01*
Y159121D01*
X58724Y158465D01*
X60036D01*
X60692Y159121D01*
Y160432D01*
X59380D01*
X62004Y157809D02*
X64628D01*
X68564Y161744D02*
X67908Y162400D01*
X66596D01*
X65940Y161744D01*
Y161088D01*
X66596Y160432D01*
X67908D01*
X68564Y159776D01*
Y159121D01*
X67908Y158465D01*
X66596D01*
X65940Y159121D01*
X69876Y162400D02*
X72499D01*
X71188D01*
Y158465D01*
X73811D02*
Y161088D01*
X75123Y162400D01*
X76435Y161088D01*
Y158465D01*
Y160432D01*
X73811D01*
X77747Y162400D02*
X80371D01*
X79059D01*
Y158465D01*
X81683Y162400D02*
Y159121D01*
X82339Y158465D01*
X83651D01*
X84307Y159121D01*
Y162400D01*
X88242Y161744D02*
X87586Y162400D01*
X86274D01*
X85619Y161744D01*
Y161088D01*
X86274Y160432D01*
X87586D01*
X88242Y159776D01*
Y159121D01*
X87586Y158465D01*
X86274D01*
X85619Y159121D01*
X50197Y148622D02*
Y152558D01*
X52165D01*
X52821Y151902D01*
Y150590D01*
X52165Y149934D01*
X50197D01*
X56756Y151902D02*
X56100Y152558D01*
X54789D01*
X54133Y151902D01*
Y149278D01*
X54789Y148622D01*
X56100D01*
X56756Y149278D01*
Y150590D01*
X55445D01*
X60036Y152558D02*
X58724D01*
X58068Y151902D01*
Y149278D01*
X58724Y148622D01*
X60036D01*
X60692Y149278D01*
Y151902D01*
X60036Y152558D01*
X63972D02*
X62660D01*
X62004Y151902D01*
Y149278D01*
X62660Y148622D01*
X63972D01*
X64628Y149278D01*
Y151902D01*
X63972Y152558D01*
X65940D02*
Y148622D01*
X67908D01*
X68564Y149278D01*
Y151902D01*
X67908Y152558D01*
X65940D01*
X52821Y141075D02*
X52165Y141731D01*
X50853D01*
X50197Y141075D01*
Y138451D01*
X50853Y137795D01*
X52165D01*
X52821Y138451D01*
Y139763D01*
X51509D01*
X54133Y137795D02*
Y141731D01*
X56756Y137795D01*
Y141731D01*
X58068D02*
Y137795D01*
X60036D01*
X60692Y138451D01*
Y141075D01*
X60036Y141731D01*
X58068D01*
X104330Y150589D02*
X103018D01*
X102362Y149933D01*
Y147310D01*
X103018Y146653D01*
X104330D01*
X104986Y147310D01*
Y149933D01*
X104330Y150589D01*
X106298D02*
X108922D01*
X107610D01*
Y146653D01*
X112857Y149933D02*
X112201Y150589D01*
X110890D01*
X110234Y149933D01*
Y147310D01*
X110890Y146653D01*
X112201D01*
X112857Y147310D01*
Y148621D01*
X111546D01*
X120729Y150589D02*
X118105D01*
Y146653D01*
X120729D01*
X118105Y148621D02*
X119417D01*
X122041Y146653D02*
Y150589D01*
X124665Y146653D01*
Y150589D01*
X102362Y136811D02*
Y139435D01*
X104330D01*
X104986Y138779D01*
Y136811D01*
X108922Y140091D02*
X108266Y140747D01*
X106954D01*
X106298Y140091D01*
Y137467D01*
X106954Y136811D01*
X108266D01*
X108922Y137467D01*
X110234Y140747D02*
Y136811D01*
Y138779D01*
X112857D01*
Y140747D01*
Y136811D01*
X116793Y140091D02*
X116137Y140747D01*
X114825D01*
X114169Y140091D01*
Y137467D01*
X114825Y136811D01*
X116137D01*
X116793Y137467D01*
Y138779D01*
X115481D01*
X118105Y136155D02*
X120729D01*
X124665Y140747D02*
X122041D01*
Y136811D01*
X124665D01*
X122041Y138779D02*
X123353D01*
X125977Y136811D02*
Y140747D01*
X128601Y136811D01*
Y140747D01*
X104986Y129264D02*
X104330Y129920D01*
X103018D01*
X102362Y129264D01*
Y126640D01*
X103018Y125984D01*
X104330D01*
X104986Y126640D01*
Y127952D01*
X103674D01*
X106298Y125984D02*
Y129920D01*
X108922Y125984D01*
Y129920D01*
X110234D02*
Y125984D01*
X112201D01*
X112857Y126640D01*
Y129264D01*
X112201Y129920D01*
X110234D01*
X121714Y63988D02*
X121058Y64644D01*
X119747D01*
X119091Y63988D01*
Y61365D01*
X119747Y60709D01*
X121058D01*
X121714Y61365D01*
Y62677D01*
X120403D01*
X123026Y60709D02*
Y64644D01*
X125650Y60709D01*
Y64644D01*
X126962D02*
Y60709D01*
X128930D01*
X129586Y61365D01*
Y63988D01*
X128930Y64644D01*
X126962D01*
X107283Y70709D02*
Y74644D01*
X109251D01*
X109907Y73988D01*
Y72676D01*
X109251Y72021D01*
X107283D01*
X111219Y74644D02*
Y70709D01*
X113187D01*
X113843Y71365D01*
Y72021D01*
X113187Y72676D01*
X111219D01*
X113187D01*
X113843Y73333D01*
Y73988D01*
X113187Y74644D01*
X111219D01*
X115155D02*
X117779D01*
Y73988D01*
X115155Y71365D01*
Y70709D01*
X123026D02*
Y74644D01*
X124994D01*
X125650Y73988D01*
Y72676D01*
X124994Y72021D01*
X123026D01*
X124338D02*
X125650Y70709D01*
X126962Y74644D02*
X129586Y70709D01*
Y74644D02*
X126962Y70709D01*
X107283Y80709D02*
Y84644D01*
X109251D01*
X109907Y83988D01*
Y82677D01*
X109251Y82021D01*
X107283D01*
X111219Y84644D02*
Y80709D01*
X113187D01*
X113843Y81365D01*
Y82021D01*
X113187Y82677D01*
X111219D01*
X113187D01*
X113843Y83333D01*
Y83988D01*
X113187Y84644D01*
X111219D01*
X117779D02*
X116467Y83988D01*
X115155Y82677D01*
Y81365D01*
X115811Y80709D01*
X117123D01*
X117779Y81365D01*
Y82021D01*
X117123Y82677D01*
X115155D01*
X123026Y84644D02*
X125650D01*
X124338D01*
Y80709D01*
X126962Y84644D02*
X129586Y80709D01*
Y84644D02*
X126962Y80709D01*
D12*
X65036Y43501D02*
G03*
X65110Y43510I74J-307D01*
G01*
X196850Y0D02*
Y118110D01*
Y0D02*
X334646D01*
X5118Y38583D02*
Y40945D01*
X2756D02*
X5118D01*
X1969Y37795D02*
X5118Y40945D01*
X1969Y37402D02*
Y37795D01*
Y13780D02*
Y37402D01*
Y13780D02*
X3937D01*
X1969Y1969D02*
Y13780D01*
Y1969D02*
X41339D01*
Y13780D01*
X3937D02*
X41339D01*
X141027Y58520D02*
Y58921D01*
Y86201D01*
X132445Y58520D02*
X141027D01*
X132445Y86201D02*
X141027D01*
X132445Y58520D02*
Y86201D01*
X46181Y42717D02*
Y87598D01*
X7008Y42717D02*
X46181D01*
X7008Y87598D02*
X46181D01*
X7008Y42717D02*
Y87598D01*
X320354Y124686D02*
Y139764D01*
X299488Y124686D02*
X320354D01*
X299488Y168286D02*
X320354D01*
X299488Y124686D02*
Y168286D01*
X320354Y135827D02*
Y168286D01*
Y175867D02*
Y190945D01*
X299488Y175867D02*
X320354D01*
X299488Y219467D02*
X320354D01*
X299488Y175867D02*
Y219467D01*
X320354Y187008D02*
Y219467D01*
X47721Y136079D02*
Y136480D01*
Y163760D01*
X39138Y136079D02*
X47721D01*
X39138Y163760D02*
X47721D01*
X39138Y136079D02*
Y163760D01*
X91106Y124268D02*
Y151949D01*
X99689D01*
X91106Y124268D02*
X99689D01*
Y124669D02*
Y151949D01*
Y124268D02*
Y124669D01*
X212992Y93307D02*
X224016D01*
Y89764D02*
X227953D01*
X212992D02*
Y93307D01*
X209055Y89764D02*
X212992D01*
X224016D02*
Y93307D01*
X212992Y24803D02*
Y28346D01*
X224016D02*
X227953D01*
X224016Y24803D02*
Y28346D01*
X209055D02*
X212992D01*
Y24803D02*
X224016D01*
X209055Y84646D02*
Y89764D01*
X227953Y84646D02*
Y89764D01*
X209055Y28346D02*
Y33465D01*
X227953Y28346D02*
Y33465D01*
X334646Y0D02*
Y118110D01*
X196850D02*
X334646D01*
D13*
X260956Y216895D02*
X264540D01*
X147468Y184384D02*
X151052D01*
X217153Y147332D02*
X220737D01*
X324279Y191797D02*
X323754Y192322D01*
X322705D01*
X322180Y191797D01*
Y189698D01*
X322705Y189173D01*
X323754D01*
X324279Y189698D01*
Y190747D01*
X323229D01*
X325328Y189173D02*
Y192322D01*
X327428Y189173D01*
Y192322D01*
X328477D02*
Y189173D01*
X330051D01*
X330576Y189698D01*
Y191797D01*
X330051Y192322D01*
X328477D01*
X322180Y154395D02*
X322705Y154920D01*
X323754D01*
X324279Y154395D01*
Y153871D01*
X323754Y153346D01*
X323229D01*
X323754D01*
X324279Y152821D01*
Y152296D01*
X323754Y151772D01*
X322705D01*
X322180Y152296D01*
X325328Y154920D02*
Y152821D01*
X326378Y151772D01*
X327428Y152821D01*
Y154920D01*
X328477Y154395D02*
X329002Y154920D01*
X330051D01*
X330576Y154395D01*
Y153871D01*
X330051Y153346D01*
X329526D01*
X330051D01*
X330576Y152821D01*
Y152296D01*
X330051Y151772D01*
X329002D01*
X328477Y152296D01*
X324279Y140616D02*
X323754Y141141D01*
X322705D01*
X322180Y140616D01*
Y138517D01*
X322705Y137992D01*
X323754D01*
X324279Y138517D01*
Y139566D01*
X323229D01*
X325328Y137992D02*
Y141141D01*
X327428Y137992D01*
Y141141D01*
X328477D02*
Y137992D01*
X330051D01*
X330576Y138517D01*
Y140616D01*
X330051Y141141D01*
X328477D01*
X325853Y206101D02*
X323754D01*
Y204527D01*
X324804Y205052D01*
X325328D01*
X325853Y204527D01*
Y203478D01*
X325328Y202953D01*
X324279D01*
X323754Y203478D01*
X326903Y206101D02*
Y204002D01*
X327952Y202953D01*
X329002Y204002D01*
Y206101D01*
X4464Y12084D02*
Y8936D01*
X6039D01*
X6563Y9460D01*
Y9985D01*
X6039Y10510D01*
X4464D01*
X6039D01*
X6563Y11035D01*
Y11560D01*
X6039Y12084D01*
X4464D01*
X7613Y8936D02*
Y11035D01*
X8662Y12084D01*
X9712Y11035D01*
Y8936D01*
Y10510D01*
X7613D01*
X10762Y12084D02*
X12861D01*
X11811D01*
Y8936D01*
X17059Y10510D02*
X19158D01*
X4464Y6889D02*
Y3740D01*
X6039D01*
X6563Y4265D01*
Y4790D01*
X6039Y5314D01*
X4464D01*
X6039D01*
X6563Y5839D01*
Y6364D01*
X6039Y6889D01*
X4464D01*
X7613Y3740D02*
Y5839D01*
X8662Y6889D01*
X9712Y5839D01*
Y3740D01*
Y5314D01*
X7613D01*
X10762Y6889D02*
X12861D01*
X11811D01*
Y3740D01*
X17059Y5314D02*
X19158D01*
X18108Y6364D02*
Y4265D01*
X29791Y11560D02*
X29266Y12084D01*
X28216D01*
X27692Y11560D01*
Y9460D01*
X28216Y8936D01*
X29266D01*
X29791Y9460D01*
Y10510D01*
X28741D01*
X30840Y8936D02*
Y12084D01*
X32939Y8936D01*
Y12084D01*
X33989D02*
Y8936D01*
X35563D01*
X36088Y9460D01*
Y11560D01*
X35563Y12084D01*
X33989D01*
X26117Y6889D02*
X28216D01*
X27167D01*
Y3740D01*
X31365Y6889D02*
X29266D01*
Y3740D01*
X31365D01*
X29266Y5314D02*
X30316D01*
X32414Y3740D02*
Y6889D01*
X33464Y5839D01*
X34514Y6889D01*
Y3740D01*
X35563D02*
Y6889D01*
X37137D01*
X37662Y6364D01*
Y5314D01*
X37137Y4790D01*
X35563D01*
X240354Y135707D02*
Y138856D01*
X241929D01*
X242453Y138331D01*
Y137282D01*
X241929Y136757D01*
X240354D01*
X245077Y138856D02*
X244028D01*
X243503Y138331D01*
Y136232D01*
X244028Y135707D01*
X245077D01*
X245602Y136232D01*
Y138331D01*
X245077Y138856D01*
X246652D02*
Y135707D01*
X247701Y136757D01*
X248751Y135707D01*
Y138856D01*
X251899D02*
X249800D01*
Y135707D01*
X251899D01*
X249800Y137282D02*
X250850D01*
X252949Y135707D02*
Y138856D01*
X254523D01*
X255048Y138331D01*
Y137282D01*
X254523Y136757D01*
X252949D01*
X253998D02*
X255048Y135707D01*
X259246Y138856D02*
X261345D01*
X260295D01*
Y135707D01*
X264493Y138856D02*
X262394D01*
Y135707D01*
X264493D01*
X262394Y137282D02*
X263444D01*
X267642Y138331D02*
X267117Y138856D01*
X266068D01*
X265543Y138331D01*
Y137806D01*
X266068Y137282D01*
X267117D01*
X267642Y136757D01*
Y136232D01*
X267117Y135707D01*
X266068D01*
X265543Y136232D01*
X268692Y138856D02*
X270791D01*
X269741D01*
Y135707D01*
X274989Y138856D02*
Y135707D01*
X276563D01*
X277088Y136232D01*
Y136757D01*
X276563Y137282D01*
X274989D01*
X276563D01*
X277088Y137806D01*
Y138331D01*
X276563Y138856D01*
X274989D01*
X279712D02*
X278662D01*
X278137Y138331D01*
Y136232D01*
X278662Y135707D01*
X279712D01*
X280237Y136232D01*
Y138331D01*
X279712Y138856D01*
X281286Y135707D02*
Y137806D01*
X282335Y138856D01*
X283385Y137806D01*
Y135707D01*
Y137282D01*
X281286D01*
X284435Y135707D02*
Y138856D01*
X286009D01*
X286534Y138331D01*
Y137282D01*
X286009Y136757D01*
X284435D01*
X285484D02*
X286534Y135707D01*
X287583Y138856D02*
Y135707D01*
X289158D01*
X289682Y136232D01*
Y138331D01*
X289158Y138856D01*
X287583D01*
X255048Y130512D02*
Y133660D01*
X256622D01*
X257147Y133136D01*
Y132086D01*
X256622Y131561D01*
X255048D01*
X256097D02*
X257147Y130512D01*
X260295Y133660D02*
X258196D01*
Y130512D01*
X260295D01*
X258196Y132086D02*
X259246D01*
X261345Y133660D02*
Y131561D01*
X262394Y130512D01*
X263444Y131561D01*
Y133660D01*
X267642Y130512D02*
X268692D01*
X268167D01*
Y133660D01*
X267642Y133136D01*
X270266Y130512D02*
Y131037D01*
X270791D01*
Y130512D01*
X270266D01*
X272890Y133136D02*
X273414Y133660D01*
X274464D01*
X274989Y133136D01*
Y131037D01*
X274464Y130512D01*
X273414D01*
X272890Y131037D01*
Y133136D01*
X147019Y233223D02*
X145969D01*
X146494D01*
Y230600D01*
X145969Y230075D01*
X145445D01*
X144920Y230600D01*
X148068Y230075D02*
Y233223D01*
X149643D01*
X150167Y232699D01*
Y231649D01*
X149643Y231124D01*
X148068D01*
X151217Y230075D02*
X152266D01*
X151742D01*
Y233223D01*
X151217Y232699D01*
X322047Y216142D02*
Y219290D01*
X323622D01*
X324146Y218766D01*
Y217716D01*
X323622Y217191D01*
X322047D01*
X325196Y216667D02*
X325721Y216142D01*
X326770D01*
X327295Y216667D01*
Y218766D01*
X326770Y219290D01*
X325721D01*
X325196Y218766D01*
Y218241D01*
X325721Y217716D01*
X327295D01*
X91220Y155075D02*
Y158223D01*
X92794D01*
X93319Y157699D01*
Y156649D01*
X92794Y156124D01*
X91220D01*
X94368Y157699D02*
X94893Y158223D01*
X95943D01*
X96467Y157699D01*
Y157174D01*
X95943Y156649D01*
X96467Y156124D01*
Y155600D01*
X95943Y155075D01*
X94893D01*
X94368Y155600D01*
Y156124D01*
X94893Y156649D01*
X94368Y157174D01*
Y157699D01*
X94893Y156649D02*
X95943D01*
X41732Y165354D02*
Y168503D01*
X43307D01*
X43831Y167978D01*
Y166929D01*
X43307Y166404D01*
X41732D01*
X44881Y168503D02*
X46980D01*
Y167978D01*
X44881Y165879D01*
Y165354D01*
X204461Y138844D02*
X203937Y139369D01*
X202887D01*
X202362Y138844D01*
Y136745D01*
X202887Y136221D01*
X203937D01*
X204461Y136745D01*
Y137795D01*
X203412D01*
X205511Y136221D02*
Y139369D01*
X207610Y136221D01*
Y139369D01*
X208659D02*
Y136221D01*
X210234D01*
X210758Y136745D01*
Y138844D01*
X210234Y139369D01*
X208659D01*
X147375Y196325D02*
X146850Y196849D01*
X145800D01*
X145276Y196325D01*
Y194226D01*
X145800Y193701D01*
X146850D01*
X147375Y194226D01*
Y195275D01*
X146325D01*
X148424Y193701D02*
Y196849D01*
X150523Y193701D01*
Y196849D01*
X151573D02*
Y193701D01*
X153147D01*
X153672Y194226D01*
Y196325D01*
X153147Y196849D01*
X151573D01*
X286719Y226099D02*
X286194Y226623D01*
X285144D01*
X284620Y226099D01*
Y224000D01*
X285144Y223475D01*
X286194D01*
X286719Y224000D01*
Y225049D01*
X285669D01*
X287768Y223475D02*
Y226623D01*
X289867Y223475D01*
Y226623D01*
X290917D02*
Y223475D01*
X292491D01*
X293016Y224000D01*
Y226099D01*
X292491Y226623D01*
X290917D01*
X52756Y220078D02*
Y217979D01*
X53805Y216929D01*
X54855Y217979D01*
Y220078D01*
X55905D02*
Y217454D01*
X56429Y216929D01*
X57479D01*
X58004Y217454D01*
Y220078D01*
X61152Y219553D02*
X60627Y220078D01*
X59578D01*
X59053Y219553D01*
Y219028D01*
X59578Y218503D01*
X60627D01*
X61152Y217979D01*
Y217454D01*
X60627Y216929D01*
X59578D01*
X59053Y217454D01*
X62202Y220078D02*
Y216929D01*
X63776D01*
X64301Y217454D01*
Y217979D01*
X63776Y218503D01*
X62202D01*
X63776D01*
X64301Y219028D01*
Y219553D01*
X63776Y220078D01*
X62202D01*
X53937Y117716D02*
Y115617D01*
X54987Y114567D01*
X56036Y115617D01*
Y117716D01*
X57086Y114567D02*
Y117716D01*
X58135Y116666D01*
X59185Y117716D01*
Y114567D01*
X164172Y202362D02*
X162073D01*
X161024Y201313D01*
X162073Y200263D01*
X164172D01*
Y199214D02*
X161024D01*
Y197639D01*
X161548Y197115D01*
X162073D01*
X162598Y197639D01*
Y199214D01*
Y197639D01*
X163123Y197115D01*
X163647D01*
X164172Y197639D01*
Y199214D01*
X161024Y196065D02*
X163123D01*
X164172Y195016D01*
X163123Y193966D01*
X161024D01*
X162598D01*
Y196065D01*
X164172Y192916D02*
Y190817D01*
Y191867D01*
X161024D01*
X160499Y189768D02*
Y187669D01*
X161024Y186619D02*
X164172D01*
Y185045D01*
X163647Y184520D01*
X162598D01*
X162073Y185045D01*
Y186619D01*
X161024Y183471D02*
X164172D01*
Y181896D01*
X163647Y181372D01*
X162598D01*
X162073Y181896D01*
Y183471D01*
Y182421D02*
X161024Y181372D01*
X164172Y178748D02*
Y179797D01*
X163647Y180322D01*
X161548D01*
X161024Y179797D01*
Y178748D01*
X161548Y178223D01*
X163647D01*
X164172Y178748D01*
Y177173D02*
Y175074D01*
Y176124D01*
X161024D01*
X111811Y193700D02*
Y191076D01*
X112336Y190551D01*
X113385D01*
X113910Y191076D01*
Y193700D01*
X117059D02*
X114960D01*
Y192125D01*
X116009Y192650D01*
X116534D01*
X117059Y192125D01*
Y191076D01*
X116534Y190551D01*
X115484D01*
X114960Y191076D01*
X59842Y52361D02*
Y49737D01*
X60367Y49213D01*
X61417D01*
X61942Y49737D01*
Y52361D01*
X64565Y49213D02*
Y52361D01*
X62991Y50787D01*
X65090D01*
X25197Y112597D02*
Y109974D01*
X25722Y109449D01*
X26771D01*
X27296Y109974D01*
Y112597D01*
X28345Y112073D02*
X28870Y112597D01*
X29920D01*
X30444Y112073D01*
Y111548D01*
X29920Y111023D01*
X29395D01*
X29920D01*
X30444Y110498D01*
Y109974D01*
X29920Y109449D01*
X28870D01*
X28345Y109974D01*
X152362Y145275D02*
Y142651D01*
X152887Y142126D01*
X153937D01*
X154461Y142651D01*
Y145275D01*
X157610Y142126D02*
X155511D01*
X157610Y144225D01*
Y144750D01*
X157085Y145275D01*
X156036D01*
X155511Y144750D01*
X245276Y184645D02*
Y182021D01*
X245800Y181496D01*
X246850D01*
X247375Y182021D01*
Y184645D01*
X248424Y181496D02*
X249474D01*
X248949D01*
Y184645D01*
X248424Y184120D01*
X119291Y159843D02*
Y162991D01*
X120866D01*
X121390Y162466D01*
Y161417D01*
X120866Y160892D01*
X119291D01*
X120341D02*
X121390Y159843D01*
X124539Y162991D02*
X122440D01*
Y159843D01*
X124539D01*
X122440Y161417D02*
X123489D01*
X127688Y162466D02*
X127163Y162991D01*
X126113D01*
X125589Y162466D01*
Y160367D01*
X126113Y159843D01*
X127163D01*
X127688Y160367D01*
Y161417D01*
X126638D01*
X128737Y159843D02*
Y162991D01*
X130836Y159843D01*
Y162991D01*
X100394Y164567D02*
Y167716D01*
X101968D01*
X102493Y167191D01*
Y166141D01*
X101968Y165617D01*
X100394D01*
X101443D02*
X102493Y164567D01*
X103542Y167191D02*
X104067Y167716D01*
X105117D01*
X105641Y167191D01*
Y166666D01*
X105117Y166141D01*
X104592D01*
X105117D01*
X105641Y165617D01*
Y165092D01*
X105117Y164567D01*
X104067D01*
X103542Y165092D01*
X106691Y164567D02*
X107740D01*
X107216D01*
Y167716D01*
X106691Y167191D01*
X125197Y179134D02*
X128345D01*
Y177560D01*
X127821Y177035D01*
X126771D01*
X126246Y177560D01*
Y179134D01*
Y178084D02*
X125197Y177035D01*
X127821Y175985D02*
X128345Y175461D01*
Y174411D01*
X127821Y173886D01*
X127296D01*
X126771Y174411D01*
Y174936D01*
Y174411D01*
X126246Y173886D01*
X125722D01*
X125197Y174411D01*
Y175461D01*
X125722Y175985D01*
X127821Y172837D02*
X128345Y172312D01*
Y171262D01*
X127821Y170738D01*
X125722D01*
X125197Y171262D01*
Y172312D01*
X125722Y172837D01*
X127821D01*
X108268Y188976D02*
X111416D01*
Y187402D01*
X110892Y186877D01*
X109842D01*
X109317Y187402D01*
Y188976D01*
Y187927D02*
X108268Y186877D01*
Y183729D02*
Y185828D01*
X110367Y183729D01*
X110892D01*
X111416Y184254D01*
Y185303D01*
X110892Y185828D01*
X108792Y182679D02*
X108268Y182154D01*
Y181105D01*
X108792Y180580D01*
X110892D01*
X111416Y181105D01*
Y182154D01*
X110892Y182679D01*
X110367D01*
X109842Y182154D01*
Y180580D01*
X91732Y186221D02*
Y189369D01*
X93307D01*
X93831Y188844D01*
Y187795D01*
X93307Y187270D01*
X91732D01*
X92782D02*
X93831Y186221D01*
X96980D02*
X94881D01*
X96980Y188320D01*
Y188844D01*
X96455Y189369D01*
X95406D01*
X94881Y188844D01*
X98030D02*
X98554Y189369D01*
X99604D01*
X100128Y188844D01*
Y188320D01*
X99604Y187795D01*
X100128Y187270D01*
Y186745D01*
X99604Y186221D01*
X98554D01*
X98030Y186745D01*
Y187270D01*
X98554Y187795D01*
X98030Y188320D01*
Y188844D01*
X98554Y187795D02*
X99604D01*
X114173Y188976D02*
X117322D01*
Y187402D01*
X116797Y186877D01*
X115747D01*
X115223Y187402D01*
Y188976D01*
Y187927D02*
X114173Y186877D01*
Y183729D02*
Y185828D01*
X116272Y183729D01*
X116797D01*
X117322Y184254D01*
Y185303D01*
X116797Y185828D01*
X117322Y182679D02*
Y180580D01*
X116797D01*
X114698Y182679D01*
X114173D01*
X77953Y174317D02*
X81101D01*
Y172743D01*
X80577Y172218D01*
X79527D01*
X79002Y172743D01*
Y174317D01*
Y173267D02*
X77953Y172218D01*
Y169069D02*
Y171168D01*
X80052Y169069D01*
X80577D01*
X81101Y169594D01*
Y170644D01*
X80577Y171168D01*
X81101Y165921D02*
X80577Y166970D01*
X79527Y168020D01*
X78478D01*
X77953Y167495D01*
Y166446D01*
X78478Y165921D01*
X79002D01*
X79527Y166446D01*
Y168020D01*
X84749Y174317D02*
X87897D01*
Y172743D01*
X87372Y172218D01*
X86323D01*
X85798Y172743D01*
Y174317D01*
Y173267D02*
X84749Y172218D01*
Y169069D02*
Y171168D01*
X86848Y169069D01*
X87372D01*
X87897Y169594D01*
Y170644D01*
X87372Y171168D01*
X87897Y165921D02*
Y168020D01*
X86323D01*
X86848Y166970D01*
Y166446D01*
X86323Y165921D01*
X85273D01*
X84749Y166446D01*
Y167495D01*
X85273Y168020D01*
X74410Y197244D02*
Y200393D01*
X75984D01*
X76508Y199868D01*
Y198818D01*
X75984Y198294D01*
X74410D01*
X75459D02*
X76508Y197244D01*
X79657D02*
X77558D01*
X79657Y199343D01*
Y199868D01*
X79132Y200393D01*
X78083D01*
X77558Y199868D01*
X82281Y197244D02*
Y200393D01*
X80707Y198818D01*
X82806D01*
X100394Y159449D02*
Y162597D01*
X101968D01*
X102493Y162073D01*
Y161023D01*
X101968Y160498D01*
X100394D01*
X101443D02*
X102493Y159449D01*
X105641D02*
X103542D01*
X105641Y161548D01*
Y162073D01*
X105117Y162597D01*
X104067D01*
X103542Y162073D01*
X106691D02*
X107216Y162597D01*
X108265D01*
X108790Y162073D01*
Y161548D01*
X108265Y161023D01*
X107740D01*
X108265D01*
X108790Y160498D01*
Y159974D01*
X108265Y159449D01*
X107216D01*
X106691Y159974D01*
X140945Y33071D02*
X144094D01*
Y31497D01*
X143569Y30972D01*
X142519D01*
X141994Y31497D01*
Y33071D01*
Y32021D02*
X140945Y30972D01*
Y27823D02*
Y29922D01*
X143044Y27823D01*
X143569D01*
X144094Y28348D01*
Y29397D01*
X143569Y29922D01*
X140945Y24675D02*
Y26774D01*
X143044Y24675D01*
X143569D01*
X144094Y25199D01*
Y26249D01*
X143569Y26774D01*
X147638Y33071D02*
X150786D01*
Y31497D01*
X150262Y30972D01*
X149212D01*
X148687Y31497D01*
Y33071D01*
Y32021D02*
X147638Y30972D01*
Y27823D02*
Y29922D01*
X149737Y27823D01*
X150262D01*
X150786Y28348D01*
Y29397D01*
X150262Y29922D01*
X147638Y26774D02*
Y25724D01*
Y26249D01*
X150786D01*
X150262Y26774D01*
X118504Y33465D02*
X121652D01*
Y31890D01*
X121128Y31365D01*
X120078D01*
X119553Y31890D01*
Y33465D01*
Y32415D02*
X118504Y31365D01*
Y28217D02*
Y30316D01*
X120603Y28217D01*
X121128D01*
X121652Y28742D01*
Y29791D01*
X121128Y30316D01*
Y27167D02*
X121652Y26643D01*
Y25593D01*
X121128Y25068D01*
X119029D01*
X118504Y25593D01*
Y26643D01*
X119029Y27167D01*
X121128D01*
X58661Y64567D02*
X61810D01*
Y62993D01*
X61285Y62468D01*
X60236D01*
X59711Y62993D01*
Y64567D01*
Y63517D02*
X58661Y62468D01*
Y61418D02*
Y60369D01*
Y60894D01*
X61810D01*
X61285Y61418D01*
X59186Y58794D02*
X58661Y58270D01*
Y57220D01*
X59186Y56695D01*
X61285D01*
X61810Y57220D01*
Y58270D01*
X61285Y58794D01*
X60760D01*
X60236Y58270D01*
Y56695D01*
X112205Y33465D02*
X115353D01*
Y31890D01*
X114829Y31365D01*
X113779D01*
X113254Y31890D01*
Y33465D01*
Y32415D02*
X112205Y31365D01*
Y30316D02*
Y29266D01*
Y29791D01*
X115353D01*
X114829Y30316D01*
Y27692D02*
X115353Y27167D01*
Y26118D01*
X114829Y25593D01*
X114304D01*
X113779Y26118D01*
X113254Y25593D01*
X112730D01*
X112205Y26118D01*
Y27167D01*
X112730Y27692D01*
X113254D01*
X113779Y27167D01*
X114304Y27692D01*
X114829D01*
X113779Y27167D02*
Y26118D01*
X181890Y46457D02*
X185038D01*
Y44882D01*
X184514Y44358D01*
X183464D01*
X182939Y44882D01*
Y46457D01*
Y45407D02*
X181890Y44358D01*
Y43308D02*
Y42259D01*
Y42783D01*
X185038D01*
X184514Y43308D01*
X185038Y40684D02*
Y38585D01*
X184514D01*
X182414Y40684D01*
X181890D01*
X37795Y133071D02*
X40944D01*
Y131497D01*
X40419Y130972D01*
X39370D01*
X38845Y131497D01*
Y133071D01*
Y132021D02*
X37795Y130972D01*
Y129922D02*
Y128873D01*
Y129397D01*
X40944D01*
X40419Y129922D01*
X40944Y125199D02*
X40419Y126249D01*
X39370Y127298D01*
X38320D01*
X37795Y126774D01*
Y125724D01*
X38320Y125199D01*
X38845D01*
X39370Y125724D01*
Y127298D01*
X140157Y172441D02*
X143306D01*
Y170867D01*
X142781Y170342D01*
X141732D01*
X141207Y170867D01*
Y172441D01*
Y171391D02*
X140157Y170342D01*
Y169292D02*
Y168243D01*
Y168768D01*
X143306D01*
X142781Y169292D01*
X143306Y164569D02*
Y166668D01*
X141732D01*
X142256Y165619D01*
Y165094D01*
X141732Y164569D01*
X140682D01*
X140157Y165094D01*
Y166144D01*
X140682Y166668D01*
X10630Y137008D02*
Y140156D01*
X12204D01*
X12729Y139632D01*
Y138582D01*
X12204Y138057D01*
X10630D01*
X11679D02*
X12729Y137008D01*
X13779D02*
X14828D01*
X14303D01*
Y140156D01*
X13779Y139632D01*
X17977Y137008D02*
Y140156D01*
X16402Y138582D01*
X18501D01*
X68898Y12598D02*
Y15747D01*
X70472D01*
X70997Y15222D01*
Y14173D01*
X70472Y13648D01*
X68898D01*
X69947D02*
X70997Y12598D01*
X72046D02*
X73096D01*
X72571D01*
Y15747D01*
X72046Y15222D01*
X74670D02*
X75195Y15747D01*
X76244D01*
X76769Y15222D01*
Y14697D01*
X76244Y14173D01*
X75720D01*
X76244D01*
X76769Y13648D01*
Y13123D01*
X76244Y12598D01*
X75195D01*
X74670Y13123D01*
X186614Y109055D02*
Y112204D01*
X188189D01*
X188713Y111679D01*
Y110629D01*
X188189Y110105D01*
X186614D01*
X187664D02*
X188713Y109055D01*
X189763D02*
X190812D01*
X190287D01*
Y112204D01*
X189763Y111679D01*
X194486Y109055D02*
X192387D01*
X194486Y111154D01*
Y111679D01*
X193961Y112204D01*
X192911D01*
X192387Y111679D01*
X158268Y114173D02*
X161416D01*
Y112599D01*
X160892Y112074D01*
X159842D01*
X159317Y112599D01*
Y114173D01*
Y113124D02*
X158268Y112074D01*
Y111025D02*
Y109975D01*
Y110500D01*
X161416D01*
X160892Y111025D01*
X158268Y108401D02*
Y107351D01*
Y107876D01*
X161416D01*
X160892Y108401D01*
X186614Y114961D02*
Y118109D01*
X188189D01*
X188713Y117585D01*
Y116535D01*
X188189Y116010D01*
X186614D01*
X187664D02*
X188713Y114961D01*
X189763D02*
X190812D01*
X190287D01*
Y118109D01*
X189763Y117585D01*
X192387D02*
X192911Y118109D01*
X193961D01*
X194486Y117585D01*
Y115485D01*
X193961Y114961D01*
X192911D01*
X192387Y115485D01*
Y117585D01*
X164173Y114173D02*
X167322D01*
Y112599D01*
X166797Y112074D01*
X165747D01*
X165223Y112599D01*
Y114173D01*
Y113124D02*
X164173Y112074D01*
X164698Y111025D02*
X164173Y110500D01*
Y109450D01*
X164698Y108926D01*
X166797D01*
X167322Y109450D01*
Y110500D01*
X166797Y111025D01*
X166272D01*
X165747Y110500D01*
Y108926D01*
X224410Y135433D02*
X227558D01*
Y133859D01*
X227033Y133334D01*
X225984D01*
X225459Y133859D01*
Y135433D01*
Y134383D02*
X224410Y133334D01*
X227033Y132284D02*
X227558Y131760D01*
Y130710D01*
X227033Y130185D01*
X226508D01*
X225984Y130710D01*
X225459Y130185D01*
X224934D01*
X224410Y130710D01*
Y131760D01*
X224934Y132284D01*
X225459D01*
X225984Y131760D01*
X226508Y132284D01*
X227033D01*
X225984Y131760D02*
Y130710D01*
X134625Y158253D02*
Y161401D01*
X136199D01*
X136724Y160877D01*
Y159827D01*
X136199Y159302D01*
X134625D01*
X135675D02*
X136724Y158253D01*
X137774Y161401D02*
X139873D01*
Y160877D01*
X137774Y158777D01*
Y158253D01*
X230709Y171260D02*
X233857D01*
Y169685D01*
X233332Y169161D01*
X232283D01*
X231758Y169685D01*
Y171260D01*
Y170210D02*
X230709Y169161D01*
X233857Y166012D02*
X233332Y167062D01*
X232283Y168111D01*
X231233D01*
X230709Y167587D01*
Y166537D01*
X231233Y166012D01*
X231758D01*
X232283Y166537D01*
Y168111D01*
X253150Y234252D02*
X256298D01*
Y232678D01*
X255773Y232153D01*
X254724D01*
X254199Y232678D01*
Y234252D01*
Y233202D02*
X253150Y232153D01*
X256298Y229004D02*
Y231103D01*
X254724D01*
X255249Y230054D01*
Y229529D01*
X254724Y229004D01*
X253674D01*
X253150Y229529D01*
Y230579D01*
X253674Y231103D01*
X219685Y174016D02*
Y177164D01*
X221259D01*
X221784Y176640D01*
Y175590D01*
X221259Y175065D01*
X219685D01*
X220735D02*
X221784Y174016D01*
X224408D02*
Y177164D01*
X222834Y175590D01*
X224933D01*
X246457Y234252D02*
X249605D01*
Y232678D01*
X249080Y232153D01*
X248031D01*
X247506Y232678D01*
Y234252D01*
Y233202D02*
X246457Y232153D01*
X249080Y231103D02*
X249605Y230579D01*
Y229529D01*
X249080Y229004D01*
X248556D01*
X248031Y229529D01*
Y230054D01*
Y229529D01*
X247506Y229004D01*
X246982D01*
X246457Y229529D01*
Y230579D01*
X246982Y231103D01*
X192913Y172835D02*
Y175983D01*
X194488D01*
X195012Y175459D01*
Y174409D01*
X194488Y173884D01*
X192913D01*
X193963D02*
X195012Y172835D01*
X198161D02*
X196062D01*
X198161Y174934D01*
Y175459D01*
X197636Y175983D01*
X196587D01*
X196062Y175459D01*
X127690Y8399D02*
Y10498D01*
X127165Y11023D01*
X126115D01*
X125591Y10498D01*
Y8399D01*
X126115Y7874D01*
X127165D01*
X126640Y8924D02*
X127690Y7874D01*
X127165D02*
X127690Y8399D01*
X128739Y10498D02*
X129264Y11023D01*
X130313D01*
X130838Y10498D01*
Y9973D01*
X130313Y9448D01*
X129789D01*
X130313D01*
X130838Y8924D01*
Y8399D01*
X130313Y7874D01*
X129264D01*
X128739Y8399D01*
X32808Y89895D02*
Y91994D01*
X32283Y92519D01*
X31233D01*
X30709Y91994D01*
Y89895D01*
X31233Y89370D01*
X32283D01*
X31758Y90420D02*
X32808Y89370D01*
X32283D02*
X32808Y89895D01*
X35956Y89370D02*
X33857D01*
X35956Y91469D01*
Y91994D01*
X35432Y92519D01*
X34382D01*
X33857Y91994D01*
X22965Y89895D02*
Y91994D01*
X22440Y92519D01*
X21391D01*
X20866Y91994D01*
Y89895D01*
X21391Y89370D01*
X22440D01*
X21916Y90420D02*
X22965Y89370D01*
X22440D02*
X22965Y89895D01*
X24015Y89370D02*
X25064D01*
X24540D01*
Y92519D01*
X24015Y91994D01*
X133858Y88583D02*
Y91731D01*
X135433D01*
X135957Y91207D01*
Y90157D01*
X135433Y89632D01*
X133858D01*
X139106Y91731D02*
X138056Y91207D01*
X137007Y90157D01*
Y89107D01*
X137532Y88583D01*
X138581D01*
X139106Y89107D01*
Y89632D01*
X138581Y90157D01*
X137007D01*
X21260Y217717D02*
Y220865D01*
X22834D01*
X23359Y220340D01*
Y219291D01*
X22834Y218766D01*
X21260D01*
X26507Y220865D02*
X24408D01*
Y219291D01*
X25458Y219816D01*
X25983D01*
X26507Y219291D01*
Y218241D01*
X25983Y217717D01*
X24933D01*
X24408Y218241D01*
X322047Y164961D02*
Y168109D01*
X323622D01*
X324146Y167585D01*
Y166535D01*
X323622Y166010D01*
X322047D01*
X326770Y164961D02*
Y168109D01*
X325196Y166535D01*
X327295D01*
X151180Y172441D02*
X148031D01*
Y170342D01*
X151180Y167193D02*
Y169292D01*
X148031D01*
Y167193D01*
X149606Y169292D02*
Y168243D01*
X151180Y166144D02*
X148031D01*
Y164569D01*
X148556Y164045D01*
X150655D01*
X151180Y164569D01*
Y166144D01*
X150655Y162995D02*
X151180Y162470D01*
Y161421D01*
X150655Y160896D01*
X150131D01*
X149606Y161421D01*
Y161946D01*
Y161421D01*
X149081Y160896D01*
X148556D01*
X148031Y161421D01*
Y162470D01*
X148556Y162995D01*
X220471Y135433D02*
X217323D01*
Y133334D01*
X220471Y130185D02*
Y132284D01*
X217323D01*
Y130185D01*
X218897Y132284D02*
Y131235D01*
X220471Y129136D02*
X217323D01*
Y127562D01*
X217848Y127037D01*
X219947D01*
X220471Y127562D01*
Y129136D01*
X217323Y123888D02*
Y125987D01*
X219422Y123888D01*
X219947D01*
X220471Y124413D01*
Y125462D01*
X219947Y125987D01*
X116705Y221678D02*
Y218529D01*
X118804D01*
X121952D02*
X119853D01*
X121952Y220628D01*
Y221153D01*
X121428Y221678D01*
X120378D01*
X119853Y221153D01*
X166142Y179526D02*
Y176378D01*
X168241D01*
X169290D02*
X170340D01*
X169815D01*
Y179526D01*
X169290Y179002D01*
X88975Y77429D02*
Y79528D01*
X87401D01*
Y78478D01*
Y79528D01*
X85827D01*
X88975Y76379D02*
X85827D01*
Y74805D01*
X86352Y74280D01*
X86876D01*
X87401Y74805D01*
Y76379D01*
Y74805D01*
X87926Y74280D01*
X88451D01*
X88975Y74805D01*
Y76379D01*
X85827Y73230D02*
Y72181D01*
Y72706D01*
X88975D01*
X88451Y73230D01*
X8792Y25589D02*
X6693D01*
Y24015D01*
X7742D01*
X6693D01*
Y22441D01*
X11941D02*
X9842D01*
X11941Y24540D01*
Y25065D01*
X11416Y25589D01*
X10366D01*
X9842Y25065D01*
X38713Y214172D02*
X36614D01*
Y212598D01*
X37664D01*
X36614D01*
Y211024D01*
X39763D02*
X40812D01*
X40288D01*
Y214172D01*
X39763Y213647D01*
X3543Y117716D02*
Y114567D01*
X5118D01*
X5642Y115092D01*
Y117191D01*
X5118Y117716D01*
X3543D01*
X8266D02*
X7217D01*
X6692Y117191D01*
Y115092D01*
X7217Y114567D01*
X8266D01*
X8791Y115092D01*
Y117191D01*
X8266Y117716D01*
X63386Y181101D02*
Y177953D01*
X64960D01*
X65485Y178478D01*
Y180577D01*
X64960Y181101D01*
X63386D01*
X66534Y179527D02*
X68634D01*
X63386Y200393D02*
Y197244D01*
X64960D01*
X65485Y197769D01*
Y199868D01*
X64960Y200393D01*
X63386D01*
X66534Y198818D02*
X68634D01*
X67584Y199868D02*
Y197769D01*
X37402Y183857D02*
Y180709D01*
X38976D01*
X39501Y181233D01*
Y183333D01*
X38976Y183857D01*
X37402D01*
X40550Y180709D02*
X41600D01*
X41075D01*
Y183857D01*
X40550Y183333D01*
X58005Y97506D02*
X57480Y98031D01*
X56430D01*
X55905Y97506D01*
Y95407D01*
X56430Y94882D01*
X57480D01*
X58005Y95407D01*
X60628Y98031D02*
X59579D01*
X59054Y97506D01*
Y95407D01*
X59579Y94882D01*
X60628D01*
X61153Y95407D01*
Y97506D01*
X60628Y98031D01*
X91994Y231365D02*
X92519Y231890D01*
Y232940D01*
X91994Y233465D01*
X89895D01*
X89370Y232940D01*
Y231890D01*
X89895Y231365D01*
X89370Y228217D02*
Y230316D01*
X91469Y228217D01*
X91994D01*
X92519Y228742D01*
Y229791D01*
X91994Y230316D01*
X89370Y227167D02*
Y226118D01*
Y226643D01*
X92519D01*
X91994Y227167D01*
X133595Y193569D02*
X133070Y194094D01*
X132021D01*
X131496Y193569D01*
Y191470D01*
X132021Y190945D01*
X133070D01*
X133595Y191470D01*
X136744Y190945D02*
X134645D01*
X136744Y193044D01*
Y193569D01*
X136219Y194094D01*
X135169D01*
X134645Y193569D01*
X137793D02*
X138318Y194094D01*
X139367D01*
X139892Y193569D01*
Y191470D01*
X139367Y190945D01*
X138318D01*
X137793Y191470D01*
Y193569D01*
X100655Y231365D02*
X101180Y231890D01*
Y232940D01*
X100655Y233465D01*
X98556D01*
X98032Y232940D01*
Y231890D01*
X98556Y231365D01*
X98032Y230316D02*
Y229266D01*
Y229791D01*
X101180D01*
X100655Y230316D01*
X98556Y227692D02*
X98032Y227167D01*
Y226118D01*
X98556Y225593D01*
X100655D01*
X101180Y226118D01*
Y227167D01*
X100655Y227692D01*
X100131D01*
X99606Y227167D01*
Y225593D01*
X140813Y216799D02*
X141338Y217323D01*
Y218373D01*
X140813Y218898D01*
X138714D01*
X138189Y218373D01*
Y217323D01*
X138714Y216799D01*
X138189Y215749D02*
Y214700D01*
Y215224D01*
X141338D01*
X140813Y215749D01*
Y213125D02*
X141338Y212600D01*
Y211551D01*
X140813Y211026D01*
X140288D01*
X139763Y211551D01*
X139239Y211026D01*
X138714D01*
X138189Y211551D01*
Y212600D01*
X138714Y213125D01*
X139239D01*
X139763Y212600D01*
X140288Y213125D01*
X140813D01*
X139763Y212600D02*
Y211551D01*
X107611Y220340D02*
X107086Y220865D01*
X106037D01*
X105512Y220340D01*
Y218241D01*
X106037Y217717D01*
X107086D01*
X107611Y218241D01*
X108660Y217717D02*
X109710D01*
X109185D01*
Y220865D01*
X108660Y220340D01*
X111284Y220865D02*
X113383D01*
Y220340D01*
X111284Y218241D01*
Y217717D01*
X80970Y208925D02*
X81495Y209449D01*
Y210499D01*
X80970Y211024D01*
X78871D01*
X78347Y210499D01*
Y209449D01*
X78871Y208925D01*
X78347Y207875D02*
Y206825D01*
Y207350D01*
X81495D01*
X80970Y207875D01*
X81495Y203152D02*
X80970Y204202D01*
X79921Y205251D01*
X78871D01*
X78347Y204726D01*
Y203677D01*
X78871Y203152D01*
X79396D01*
X79921Y203677D01*
Y205251D01*
X247899Y48295D02*
X248424Y48819D01*
Y49869D01*
X247899Y50394D01*
X245800D01*
X245276Y49869D01*
Y48819D01*
X245800Y48295D01*
X245276Y47245D02*
Y46196D01*
Y46720D01*
X248424D01*
X247899Y47245D01*
X248424Y42522D02*
Y44621D01*
X246850D01*
X247375Y43572D01*
Y43047D01*
X246850Y42522D01*
X245800D01*
X245276Y43047D01*
Y44096D01*
X245800Y44621D01*
X202624Y46720D02*
X203149Y47245D01*
Y48294D01*
X202624Y48819D01*
X200525D01*
X200000Y48294D01*
Y47245D01*
X200525Y46720D01*
X200000Y45670D02*
Y44621D01*
Y45145D01*
X203149D01*
X202624Y45670D01*
X200000Y41472D02*
X203149D01*
X201574Y43047D01*
Y40947D01*
X191471Y33531D02*
X191996Y34056D01*
Y35105D01*
X191471Y35630D01*
X189372D01*
X188847Y35105D01*
Y34056D01*
X189372Y33531D01*
X188847Y32481D02*
Y31432D01*
Y31957D01*
X191996D01*
X191471Y32481D01*
Y29858D02*
X191996Y29333D01*
Y28283D01*
X191471Y27758D01*
X190946D01*
X190421Y28283D01*
Y28808D01*
Y28283D01*
X189897Y27758D01*
X189372D01*
X188847Y28283D01*
Y29333D01*
X189372Y29858D01*
X59186Y75852D02*
X58661Y76377D01*
X57611D01*
X57087Y75852D01*
Y73753D01*
X57611Y73228D01*
X58661D01*
X59186Y73753D01*
X60235Y73228D02*
X61285D01*
X60760D01*
Y76377D01*
X60235Y75852D01*
X64958Y73228D02*
X62859D01*
X64958Y75327D01*
Y75852D01*
X64433Y76377D01*
X63384D01*
X62859Y75852D01*
X83333Y55775D02*
X83857Y56300D01*
Y57349D01*
X83333Y57874D01*
X81233D01*
X80709Y57349D01*
Y56300D01*
X81233Y55775D01*
X80709Y54725D02*
Y53676D01*
Y54201D01*
X83857D01*
X83333Y54725D01*
X80709Y52102D02*
Y51052D01*
Y51577D01*
X83857D01*
X83333Y52102D01*
X12729Y134120D02*
X12204Y134645D01*
X11155D01*
X10630Y134120D01*
Y132021D01*
X11155Y131496D01*
X12204D01*
X12729Y132021D01*
X13779Y131496D02*
X14828D01*
X14303D01*
Y134645D01*
X13779Y134120D01*
X16402D02*
X16927Y134645D01*
X17977D01*
X18501Y134120D01*
Y132021D01*
X17977Y131496D01*
X16927D01*
X16402Y132021D01*
Y134120D01*
X241207Y40421D02*
X241731Y40945D01*
Y41995D01*
X241207Y42520D01*
X239107D01*
X238583Y41995D01*
Y40945D01*
X239107Y40421D01*
Y39371D02*
X238583Y38846D01*
Y37797D01*
X239107Y37272D01*
X241207D01*
X241731Y37797D01*
Y38846D01*
X241207Y39371D01*
X240682D01*
X240157Y38846D01*
Y37272D01*
X145931Y129003D02*
X146456Y129528D01*
Y130578D01*
X145931Y131102D01*
X143832D01*
X143307Y130578D01*
Y129528D01*
X143832Y129003D01*
X145931Y127954D02*
X146456Y127429D01*
Y126380D01*
X145931Y125855D01*
X145406D01*
X144881Y126380D01*
X144357Y125855D01*
X143832D01*
X143307Y126380D01*
Y127429D01*
X143832Y127954D01*
X144357D01*
X144881Y127429D01*
X145406Y127954D01*
X145931D01*
X144881Y127429D02*
Y126380D01*
X139238Y127035D02*
X139763Y127560D01*
Y128609D01*
X139238Y129134D01*
X137139D01*
X136614Y128609D01*
Y127560D01*
X137139Y127035D01*
X139763Y125985D02*
Y123886D01*
X139238D01*
X137139Y125985D01*
X136614D01*
X189894Y130970D02*
X189370Y131495D01*
X188320D01*
X187795Y130970D01*
Y128871D01*
X188320Y128347D01*
X189370D01*
X189894Y128871D01*
X193043Y131495D02*
X191993Y130970D01*
X190944Y129921D01*
Y128871D01*
X191469Y128347D01*
X192518D01*
X193043Y128871D01*
Y129396D01*
X192518Y129921D01*
X190944D01*
X169947Y141602D02*
X170471Y142127D01*
Y143176D01*
X169947Y143701D01*
X167848D01*
X167323Y143176D01*
Y142127D01*
X167848Y141602D01*
X170471Y138453D02*
Y140552D01*
X168897D01*
X169422Y139503D01*
Y138978D01*
X168897Y138453D01*
X167848D01*
X167323Y138978D01*
Y140027D01*
X167848Y140552D01*
X234120Y36484D02*
X234645Y37008D01*
Y38058D01*
X234120Y38583D01*
X232021D01*
X231496Y38058D01*
Y37008D01*
X232021Y36484D01*
X231496Y33860D02*
X234645D01*
X233070Y35434D01*
Y33335D01*
X257742Y206562D02*
X258267Y207087D01*
Y208137D01*
X257742Y208661D01*
X255643D01*
X255118Y208137D01*
Y207087D01*
X255643Y206562D01*
X257742Y205513D02*
X258267Y204988D01*
Y203939D01*
X257742Y203414D01*
X257217D01*
X256692Y203939D01*
Y204463D01*
Y203939D01*
X256168Y203414D01*
X255643D01*
X255118Y203939D01*
Y204988D01*
X255643Y205513D01*
X285564Y174671D02*
X285039Y175196D01*
X283989D01*
X283465Y174671D01*
Y172572D01*
X283989Y172047D01*
X285039D01*
X285564Y172572D01*
X288712Y172047D02*
X286613D01*
X288712Y174146D01*
Y174671D01*
X288188Y175196D01*
X287138D01*
X286613Y174671D01*
X67847Y191994D02*
X67322Y192519D01*
X66273D01*
X65748Y191994D01*
Y189895D01*
X66273Y189370D01*
X67322D01*
X67847Y189895D01*
X68897Y189370D02*
X69946D01*
X69421D01*
Y192519D01*
X68897Y191994D01*
X266929Y214567D02*
X270078D01*
Y212993D01*
X269553Y212468D01*
X268503D01*
X267979Y212993D01*
Y214567D01*
Y213517D02*
X266929Y212468D01*
Y211418D02*
Y210369D01*
Y210894D01*
X270078D01*
X269553Y211418D01*
X6693Y89370D02*
Y92519D01*
X8267D01*
X8792Y91994D01*
Y90944D01*
X8267Y90420D01*
X6693D01*
X11941Y89370D02*
X9842D01*
X11941Y91469D01*
Y91994D01*
X11416Y92519D01*
X10366D01*
X9842Y91994D01*
X264566Y214567D02*
X261417D01*
Y212468D01*
X264566Y209319D02*
Y211418D01*
X261417D01*
Y209319D01*
X262992Y211418D02*
Y210369D01*
X264566Y208270D02*
X261417D01*
Y206695D01*
X261942Y206171D01*
X264041D01*
X264566Y206695D01*
Y208270D01*
X261417Y205121D02*
Y204072D01*
Y204596D01*
X264566D01*
X264041Y205121D01*
X216420Y96375D02*
Y99523D01*
X217994D01*
X218519Y98999D01*
Y97949D01*
X217994Y97424D01*
X216420D01*
X219568Y96375D02*
X220618D01*
X220093D01*
Y99523D01*
X219568Y98999D01*
D14*
X166286Y181225D02*
Y231624D01*
X175936D01*
X208936D02*
X218586D01*
X166286Y181225D02*
X175936Y181224D01*
X218586D02*
Y231624D01*
X208936Y181224D02*
X218586D01*
D15*
X26712Y179232D02*
Y214468D01*
X492D02*
X1870D01*
X492Y179232D02*
Y214468D01*
Y179232D02*
X1870D01*
M02*
