G04*
G04 #@! TF.GenerationSoftware,Altium Limited,Altium Designer,19.0.15 (446)*
G04*
G04 Layer_Color=16711935*
%FSLAX25Y25*%
%MOIN*%
G70*
G01*
G75*
%ADD84R,0.07493X0.07493*%
%ADD85C,0.07493*%
%ADD86C,0.00800*%
%ADD87C,0.07099*%
%ADD88R,0.07099X0.07099*%
%ADD89C,0.06800*%
%ADD90C,0.03359*%
%ADD91O,0.10249X0.04343*%
%ADD92O,0.07493X0.04343*%
%ADD93R,0.06706X0.06706*%
%ADD94C,0.06706*%
%ADD95C,0.03556*%
%ADD96C,0.11430*%
%ADD97C,0.03162*%
D84*
X136614Y82441D02*
D03*
X43307Y160000D02*
D03*
X95276Y148189D02*
D03*
D85*
X136614Y72441D02*
D03*
Y62441D02*
D03*
X43307Y150000D02*
D03*
Y140000D02*
D03*
X95276Y128189D02*
D03*
Y138189D02*
D03*
D86*
X29055Y48228D02*
D03*
Y81693D02*
D03*
D87*
X34646Y58071D02*
D03*
Y71850D02*
D03*
X16535D02*
D03*
X311024Y139764D02*
D03*
X308543Y163386D02*
D03*
Y129921D02*
D03*
X311024Y190945D02*
D03*
X308543Y214567D02*
D03*
Y181102D02*
D03*
D88*
X16535Y58071D02*
D03*
X311024Y153543D02*
D03*
Y204724D02*
D03*
D89*
X143701Y189961D02*
D03*
X156496D02*
D03*
X197835Y137795D02*
D03*
X287402Y217520D02*
D03*
D90*
X24507Y208563D02*
D03*
Y205216D02*
D03*
Y201870D02*
D03*
Y198523D02*
D03*
Y195177D02*
D03*
Y191830D02*
D03*
Y188484D02*
D03*
Y185137D02*
D03*
X19193D02*
D03*
Y188484D02*
D03*
Y191830D02*
D03*
Y195177D02*
D03*
Y198523D02*
D03*
Y201870D02*
D03*
Y205216D02*
D03*
Y208563D02*
D03*
D91*
X20650Y213878D02*
D03*
Y179822D02*
D03*
D92*
X7342D02*
D03*
Y213878D02*
D03*
D93*
X159449Y222441D02*
D03*
D94*
X149449D02*
D03*
D95*
X212598Y31299D02*
D03*
Y86811D02*
D03*
D96*
X206693Y108268D02*
D03*
X324803D02*
D03*
Y9843D02*
D03*
X206693D02*
D03*
D97*
X156693Y117323D02*
D03*
X134252Y192126D02*
D03*
X75197Y191339D02*
D03*
X81102Y209842D02*
D03*
X83071Y215354D02*
D03*
X78740Y43307D02*
D03*
X82677Y56693D02*
D03*
X139764Y212598D02*
D03*
X142520Y25197D02*
D03*
X134646Y25984D02*
D03*
X44488Y103150D02*
D03*
M02*
