G04*
G04 #@! TF.GenerationSoftware,Altium Limited,Altium Designer,19.0.15 (446)*
G04*
G04 Layer_Color=255*
%FSLAX25Y25*%
%MOIN*%
G70*
G01*
G75*
%ADD106R,0.06693X0.06693*%
%ADD107C,0.06693*%
%ADD108C,0.06299*%
%ADD109R,0.06299X0.06299*%
%ADD110C,0.06000*%
%ADD111C,0.02559*%
%ADD112O,0.09449X0.03543*%
%ADD113O,0.06693X0.03543*%
%ADD114R,0.05906X0.05906*%
%ADD115C,0.05906*%
%ADD116C,0.02756*%
%ADD117C,0.10630*%
D106*
X136614Y82441D02*
D03*
X43307Y160000D02*
D03*
X95276Y148189D02*
D03*
D107*
X136614Y72441D02*
D03*
Y62441D02*
D03*
X43307Y150000D02*
D03*
Y140000D02*
D03*
X95276Y128189D02*
D03*
Y138189D02*
D03*
D108*
X34646Y58071D02*
D03*
Y71850D02*
D03*
X16535D02*
D03*
X311024Y139764D02*
D03*
X308543Y163386D02*
D03*
Y129921D02*
D03*
X311024Y190945D02*
D03*
X308543Y214567D02*
D03*
Y181102D02*
D03*
D109*
X16535Y58071D02*
D03*
X311024Y153543D02*
D03*
Y204724D02*
D03*
D110*
X143701Y189961D02*
D03*
X156496D02*
D03*
X197835Y137795D02*
D03*
X287402Y217520D02*
D03*
D111*
X24507Y208563D02*
D03*
Y205216D02*
D03*
Y201870D02*
D03*
Y198523D02*
D03*
Y195177D02*
D03*
Y191830D02*
D03*
Y188484D02*
D03*
Y185137D02*
D03*
X19193D02*
D03*
Y188484D02*
D03*
Y191830D02*
D03*
Y195177D02*
D03*
Y198523D02*
D03*
Y201870D02*
D03*
Y205216D02*
D03*
Y208563D02*
D03*
D112*
X20650Y213878D02*
D03*
Y179822D02*
D03*
D113*
X7342D02*
D03*
Y213878D02*
D03*
D114*
X159449Y222441D02*
D03*
D115*
X149449D02*
D03*
D116*
X212598Y31299D02*
D03*
Y86811D02*
D03*
D117*
X206693Y108268D02*
D03*
X324803D02*
D03*
Y9843D02*
D03*
X206693D02*
D03*
M02*
