M48
;Layer_Color=9474304
;FILE_FORMAT=2:5
INCH,TZ
;TYPE=PLATED
T1F00S00C0.01181
T2F00S00C0.01575
T4F00S00C0.02756
T5F00S00C0.03000
T6F00S00C0.03150
T7F00S00C0.03937
T8F00S00C0.04016
T9F00S00C0.09055
T10F00S00C0.09055
T11F00S00C0.10630
%
T01
X29528Y39370
X49213
X78740Y43307
X88583Y39370
X108268
X127953
X147638
X142520Y25197
X134646Y25984
X94095Y7087
Y3937
X90551
Y7087
X87402
X84252
Y3937
X87402
X81102
Y7087
X82677Y56693
X167323Y39370
X192126Y47638
X200591Y42323
X200787Y35433
X209646Y33465
X216535
X218110Y42520
X218898Y45669
X218504Y49176
X220078Y53543
X217717Y55905
X205906Y55512
X206299Y26378
X192126Y30315
X227434Y26646
Y23694
X237294Y23336
X237007Y16535
X244166Y23694
X249087Y24678
X246850Y30315
X251575Y36220
X253543Y40551
X265748Y39370
X285433
X288674Y19383
Y13871
X275591Y19685
X255906
X220472Y16929
X314961Y19685
X324803Y157480
X314961Y177165
X305118Y157480
X295276Y137795
X275591
X255906
X236221
X215551Y144685
X187992
Y140748
X187008Y148622
X184055
X181102
X178150
X175197
X174213Y144685
Y140748
X177165Y137795
X163386Y135827
X157874Y134646
X155020Y134547
X156693Y117323
X157480Y98425
X177165
X177165Y107087
X187008Y118110
X206693
X226378
X246063
X265748
X285433
X275591Y98425
X255906
X265748Y78740
X285433
X275591Y59055
X255906
X236221
X236220Y74803
Y78740
Y82677
Y86614
X232283Y83662
Y77756
X220472Y80709
X218504Y59055
X203150Y58268
X200394Y61024
X205906Y63386
X246063Y78740
X252362Y166929
X250000Y175197
X254921Y179134
X259842Y183071
Y175197
X264764Y179134
X269685Y175197
X252756Y187008
X244094Y179134
X238189Y175197
X237205Y183071
X236221Y188976
X238583Y193701
X236024Y196063
X238583Y198819
X233071
Y193701
X235236Y206693
X238189Y209646
X232283
X187008Y196850
X157480Y177165
X152362Y181496
X137795Y177165
X130709Y185039
X127953
X125197
X122441
X119685
Y188189
X122441Y188386
X134252Y192126
X139764Y212598
X99606Y211024
X98032Y202756
X102362
X100394Y199606
X104724
X103937Y196063
X98032
X87402Y196457
X83071Y189764
X83298Y186802
X75197Y191339
X62598Y187008
X57087Y186614
X55512Y196850
X43110Y190748
X35433Y190945
X39370Y177165
X49213Y157480
X68898
X72835Y150000
X78740
X88583Y157480
X108268
X108339Y166410
X116142Y168110
X125197Y171850
X98819Y174016
X83071Y173622
X79528Y172441
X72835
X81102Y209842
X59055Y137795
X68898Y118110
X88583
X108268
X118110Y137795
X135827Y126969
X139764
X143701
X147638
X151575
X149606Y124016
X145669
X141732
X137795
X147638Y118110
X152362Y134646
X147638Y78740
X127953
X108268
X88583
X68898
X70472Y70866
Y61024
X78740Y59055
X59055
X49213Y78740
X44488Y103150
X59055Y98425
X78740
X42913Y122047
X16142Y138583
X29528Y157480
X39370Y216535
X59055
X78740
X83071Y215354
X137795Y216535
X177165
X196850
X262795Y215551
X275591Y216535
X295276
X254724Y229134
X314961Y216535
T02
X19193Y185137
Y188484
Y191830
Y195177
Y198523
Y201870
Y205216
Y208563
X24507
Y205216
Y201870
Y198523
Y195177
Y191830
Y188484
Y185137
T04
X212598Y31299
Y86811
T05
X197835Y137795
X156496Y189961
X143701
X287402Y217520
T06
X149449Y222441
X159449
T07
X43307Y140000
Y150000
Y160000
X95276Y148189
Y138189
Y128189
X136614Y82441
Y72441
Y62441
T08
X311024Y139764
Y153543
Y190945
Y204724
X34646Y71850
Y58071
X16535
Y71850
T09
X29055Y48228
Y81693
T10
X308543Y129921
Y163386
Y181102
Y214567
T11
X206693Y9843
X324803
Y108268
X206693
M30
