G04*
G04 #@! TF.GenerationSoftware,Altium Limited,Altium Designer,19.0.15 (446)*
G04*
G04 Layer_Physical_Order=2*
G04 Layer_Color=16711680*
%FSLAX25Y25*%
%MOIN*%
G70*
G01*
G75*
%ADD11C,0.00787*%
%ADD13C,0.00591*%
%ADD102C,0.01968*%
%ADD104C,0.00606*%
%ADD106R,0.06693X0.06693*%
%ADD107C,0.06693*%
%ADD108C,0.06299*%
%ADD109R,0.06299X0.06299*%
%ADD110C,0.06000*%
%ADD111C,0.02559*%
%ADD112O,0.09449X0.03543*%
%ADD113O,0.06693X0.03543*%
%ADD114R,0.05906X0.05906*%
%ADD115C,0.05906*%
%ADD116C,0.02756*%
%ADD117C,0.10630*%
%ADD118C,0.02362*%
G36*
X100789Y210867D02*
X100815Y210601D01*
X100838Y210480D01*
X100868Y210367D01*
X100905Y210262D01*
X100950Y210166D01*
X101001Y210077D01*
X101059Y209996D01*
X101125Y209923D01*
X100707Y209505D01*
X100634Y209571D01*
X100553Y209629D01*
X100464Y209680D01*
X100367Y209725D01*
X100262Y209762D01*
X100150Y209792D01*
X100029Y209815D01*
X99900Y209832D01*
X99763Y209840D01*
X99618Y209843D01*
X100787Y211012D01*
X100789Y210867D01*
D02*
G37*
G36*
X23762Y197483D02*
X23621Y197581D01*
X23353Y197747D01*
X23226Y197814D01*
X22988Y197917D01*
X22877Y197953D01*
X22770Y197979D01*
X22669Y197994D01*
X22572Y197999D01*
X22463Y198606D01*
X22571Y198612D01*
X22678Y198631D01*
X22782Y198663D01*
X22885Y198708D01*
X22985Y198766D01*
X23083Y198837D01*
X23178Y198920D01*
X23272Y199017D01*
X23363Y199126D01*
X23453Y199248D01*
X23762Y197483D01*
D02*
G37*
G36*
X20830Y196385D02*
X20760Y196307D01*
X20698Y196220D01*
X20644Y196124D01*
X20597Y196019D01*
X20558Y195904D01*
X20526Y195780D01*
X20502Y195646D01*
X20484Y195503D01*
X20475Y195352D01*
X20473Y195190D01*
X19206Y196457D01*
X19367Y196459D01*
X19662Y196485D01*
X19796Y196510D01*
X19920Y196542D01*
X20034Y196581D01*
X20140Y196628D01*
X20236Y196683D01*
X20323Y196744D01*
X20401Y196814D01*
X20830Y196385D01*
D02*
G37*
G36*
X333014Y1631D02*
X302372D01*
Y6701D01*
X264831D01*
Y1631D01*
X99575Y1631D01*
X99075Y1631D01*
Y33465D01*
X98884Y33924D01*
X98425Y34114D01*
X18366D01*
Y54321D01*
X20285D01*
Y61821D01*
X18366D01*
Y67781D01*
X18348Y67825D01*
X18360Y67870D01*
X18295Y67980D01*
X18295Y68173D01*
X18416Y68543D01*
X18464Y68604D01*
X19210Y69176D01*
X19811Y69959D01*
X20188Y70872D01*
X20317Y71850D01*
X20188Y72829D01*
X19811Y73741D01*
X19210Y74525D01*
X18464Y75096D01*
X18416Y75158D01*
X18295Y75527D01*
X18295Y75721D01*
X18360Y75830D01*
X18348Y75876D01*
X18366Y75920D01*
Y177404D01*
X23603D01*
X24528Y177588D01*
X25312Y178113D01*
X25836Y178897D01*
X26021Y179822D01*
X25836Y180748D01*
X25312Y181532D01*
X24528Y182056D01*
X23603Y182240D01*
X18366D01*
Y183965D01*
X18293Y184140D01*
X18257Y184326D01*
X18035Y184657D01*
X17939Y185137D01*
X18035Y185617D01*
X18257Y185949D01*
X18293Y186135D01*
X18366Y186310D01*
X18866Y186633D01*
X19193Y186568D01*
X19927Y186714D01*
X20159Y186869D01*
X23542D01*
X23774Y186714D01*
X24507Y186568D01*
X25241Y186714D01*
X25863Y187129D01*
X26278Y187751D01*
X26424Y188484D01*
X26278Y189218D01*
X25863Y189839D01*
X25761Y189907D01*
Y190407D01*
X25863Y190475D01*
X26278Y191097D01*
X26424Y191830D01*
X26278Y192564D01*
X25863Y193185D01*
X25760Y193254D01*
Y193754D01*
X25863Y193822D01*
X26278Y194444D01*
X26424Y195177D01*
X26278Y195911D01*
X25863Y196532D01*
X25761Y196600D01*
Y197100D01*
X25863Y197168D01*
X26278Y197790D01*
X26424Y198523D01*
X26278Y199257D01*
X25863Y199878D01*
X25760Y199947D01*
Y200447D01*
X25863Y200515D01*
X26278Y201137D01*
X26424Y201870D01*
X26278Y202604D01*
X25863Y203225D01*
X25761Y203293D01*
Y203793D01*
X25863Y203861D01*
X26278Y204483D01*
X26424Y205216D01*
X26278Y205950D01*
X25863Y206571D01*
X25241Y206987D01*
X24507Y207133D01*
X23774Y206987D01*
X23542Y206832D01*
X20159D01*
X19927Y206987D01*
X19193Y207133D01*
X18866Y207068D01*
X18366Y207391D01*
X18293Y207566D01*
X18257Y207751D01*
X18035Y208083D01*
X17939Y208563D01*
X18035Y209043D01*
X18257Y209375D01*
X18293Y209561D01*
X18366Y209736D01*
Y211460D01*
X18255Y211728D01*
X18237Y211821D01*
X18209Y211840D01*
X18176Y211920D01*
X17949Y212014D01*
X17823Y212097D01*
X17025Y212256D01*
X16455Y212637D01*
X16075Y213207D01*
X15941Y213878D01*
X16075Y214550D01*
X16455Y215120D01*
X17025Y215500D01*
X17823Y215659D01*
X17949Y215743D01*
X18176Y215837D01*
X18209Y215917D01*
X18237Y215936D01*
X18255Y216029D01*
X18366Y216296D01*
Y217854D01*
X117461D01*
Y195173D01*
X116997Y194869D01*
X116961Y194874D01*
X116787Y195134D01*
X101632Y210289D01*
X101608Y210356D01*
X101566Y210404D01*
X101547Y210430D01*
X101527Y210464D01*
X101508Y210507D01*
X101489Y210560D01*
X101471Y210626D01*
X101458Y210693D01*
X101438Y210902D01*
X101437Y211021D01*
X101411Y211081D01*
X101284Y211719D01*
X100890Y212308D01*
X100301Y212701D01*
X99606Y212840D01*
X98911Y212701D01*
X98322Y212308D01*
X97929Y211719D01*
X97790Y211024D01*
X97929Y210329D01*
X98322Y209739D01*
X98911Y209346D01*
X99549Y209219D01*
X99609Y209193D01*
X99737Y209191D01*
X99838Y209185D01*
X99927Y209173D01*
X100004Y209159D01*
X100069Y209141D01*
X100123Y209122D01*
X100166Y209103D01*
X100200Y209083D01*
X100226Y209064D01*
X100274Y209022D01*
X100341Y208998D01*
X115229Y194110D01*
Y170062D01*
X115198Y169998D01*
X115194Y169934D01*
X115189Y169902D01*
X115179Y169865D01*
X115163Y169820D01*
X115138Y169769D01*
X115104Y169710D01*
X115066Y169653D01*
X114932Y169492D01*
X114849Y169406D01*
X114825Y169346D01*
X114464Y168805D01*
X114326Y168110D01*
X114464Y167415D01*
X114858Y166826D01*
X115447Y166432D01*
X116142Y166294D01*
X116837Y166432D01*
X117426Y166826D01*
X117819Y167415D01*
X117958Y168110D01*
X117819Y168805D01*
X117458Y169346D01*
X117434Y169406D01*
X117345Y169498D01*
X117278Y169574D01*
X117223Y169645D01*
X117179Y169710D01*
X117145Y169769D01*
X117121Y169820D01*
X117104Y169865D01*
X117094Y169902D01*
X117089Y169934D01*
X117086Y169998D01*
X117054Y170062D01*
Y182745D01*
X117554Y182845D01*
X117651Y182612D01*
X118110Y182421D01*
X131890D01*
X132349Y182612D01*
X132539Y183071D01*
Y234589D01*
X333014Y234589D01*
Y1631D01*
D02*
G37*
G36*
X131890Y183071D02*
X118110D01*
Y218504D01*
X17717D01*
Y216296D01*
X17697D01*
X16771Y216112D01*
X15987Y215588D01*
X15463Y214804D01*
X15279Y213878D01*
X15463Y212953D01*
X15987Y212169D01*
X16771Y211645D01*
X17697Y211460D01*
X17717D01*
Y209736D01*
X17423Y209297D01*
X17277Y208563D01*
X17423Y207830D01*
X17717Y207391D01*
Y206832D01*
X17295D01*
X16677Y206709D01*
X16153Y206359D01*
X14999Y205205D01*
X14649Y204681D01*
X14526Y204063D01*
Y189751D01*
X14649Y189132D01*
X14999Y188608D01*
X16153Y187455D01*
X16677Y187105D01*
X17295Y186982D01*
X17717D01*
Y186310D01*
X17423Y185871D01*
X17277Y185137D01*
X17423Y184404D01*
X17717Y183965D01*
Y182240D01*
X17697D01*
X16771Y182056D01*
X15987Y181532D01*
X15463Y180748D01*
X15279Y179822D01*
X15463Y178897D01*
X15987Y178113D01*
X16771Y177588D01*
X17697Y177404D01*
X17717D01*
Y75920D01*
X17217Y75543D01*
X16535Y75632D01*
X15557Y75503D01*
X14645Y75126D01*
X13861Y74525D01*
X13260Y73741D01*
X12882Y72829D01*
X12754Y71850D01*
X12882Y70872D01*
X13260Y69959D01*
X13861Y69176D01*
X14645Y68575D01*
X15557Y68197D01*
X16535Y68068D01*
X17217Y68158D01*
X17717Y67781D01*
Y61821D01*
X12786D01*
Y54321D01*
X17717D01*
Y33465D01*
X98425D01*
Y1631D01*
X1969D01*
Y15748D01*
X1631D01*
X1631Y234589D01*
X118110Y234589D01*
X127156D01*
X131890D01*
X131890D01*
Y183071D01*
D02*
G37*
G36*
X116442Y169865D02*
X116458Y169766D01*
X116485Y169667D01*
X116522Y169567D01*
X116570Y169466D01*
X116628Y169365D01*
X116697Y169263D01*
X116777Y169161D01*
X116867Y169058D01*
X116969Y168954D01*
X115315D01*
X115416Y169058D01*
X115586Y169263D01*
X115655Y169365D01*
X115714Y169466D01*
X115761Y169567D01*
X115799Y169667D01*
X115825Y169766D01*
X115841Y169865D01*
X115847Y169963D01*
X116437D01*
X116442Y169865D01*
D02*
G37*
%LPC*%
G36*
X163002Y225994D02*
X155896D01*
Y218888D01*
X163002D01*
Y225994D01*
D02*
G37*
G36*
X149449Y226024D02*
X148521Y225902D01*
X147657Y225544D01*
X146915Y224975D01*
X146345Y224233D01*
X145987Y223368D01*
X145865Y222441D01*
X145987Y221514D01*
X146345Y220649D01*
X146915Y219907D01*
X147657Y219338D01*
X148521Y218980D01*
X149449Y218858D01*
X150376Y218980D01*
X151241Y219338D01*
X151983Y219907D01*
X152552Y220649D01*
X152910Y221514D01*
X153032Y222441D01*
X152910Y223368D01*
X152552Y224233D01*
X151983Y224975D01*
X151241Y225544D01*
X150376Y225902D01*
X149449Y226024D01*
D02*
G37*
G36*
X308543Y219739D02*
X307205Y219563D01*
X305957Y219046D01*
X304886Y218224D01*
X304064Y217153D01*
X303548Y215905D01*
X303372Y214567D01*
X303548Y213228D01*
X304064Y211981D01*
X304886Y210910D01*
X305957Y210088D01*
X307205Y209571D01*
X308543Y209395D01*
X309882Y209571D01*
X311129Y210088D01*
X312200Y210910D01*
X313022Y211981D01*
X313539Y213228D01*
X313715Y214567D01*
X313539Y215905D01*
X313022Y217153D01*
X312200Y218224D01*
X311129Y219046D01*
X309882Y219563D01*
X308543Y219739D01*
D02*
G37*
G36*
X314773Y208474D02*
X307274D01*
Y200975D01*
X314773D01*
Y208474D01*
D02*
G37*
G36*
X156496Y193592D02*
X155556Y193468D01*
X154681Y193105D01*
X153928Y192528D01*
X153351Y191776D01*
X152989Y190900D01*
X152865Y189961D01*
X152989Y189021D01*
X153351Y188145D01*
X153928Y187393D01*
X154681Y186816D01*
X155556Y186453D01*
X156496Y186330D01*
X157436Y186453D01*
X158312Y186816D01*
X159064Y187393D01*
X159641Y188145D01*
X160003Y189021D01*
X160127Y189961D01*
X160003Y190900D01*
X159641Y191776D01*
X159064Y192528D01*
X158312Y193105D01*
X157436Y193468D01*
X156496Y193592D01*
D02*
G37*
G36*
X55512Y198666D02*
X54817Y198528D01*
X54228Y198135D01*
X53834Y197545D01*
X53696Y196850D01*
X53834Y196155D01*
X54228Y195566D01*
X54762Y195209D01*
X55471Y194500D01*
Y187403D01*
X55409Y187309D01*
X55271Y186614D01*
X55409Y185919D01*
X55803Y185330D01*
X56392Y184936D01*
X57087Y184798D01*
X57782Y184936D01*
X58371Y185330D01*
X58764Y185919D01*
X58903Y186614D01*
X58764Y187309D01*
X58702Y187403D01*
Y195169D01*
X58579Y195787D01*
X58229Y196311D01*
X57238Y197302D01*
X57190Y197545D01*
X56796Y198135D01*
X56207Y198528D01*
X55512Y198666D01*
D02*
G37*
G36*
X308543Y186274D02*
X307205Y186098D01*
X305957Y185581D01*
X304886Y184759D01*
X304064Y183688D01*
X303548Y182441D01*
X303372Y181102D01*
X303548Y179764D01*
X304064Y178516D01*
X304886Y177445D01*
X305957Y176623D01*
X307205Y176107D01*
X308543Y175931D01*
X309882Y176107D01*
X311129Y176623D01*
X312200Y177445D01*
X313022Y178516D01*
X313539Y179764D01*
X313715Y181102D01*
X313539Y182441D01*
X313022Y183688D01*
X312200Y184759D01*
X311129Y185581D01*
X309882Y186098D01*
X308543Y186274D01*
D02*
G37*
G36*
X87402Y198273D02*
X86707Y198134D01*
X86118Y197741D01*
X85724Y197152D01*
X85586Y196457D01*
X85724Y195762D01*
X86085Y195221D01*
X86109Y195160D01*
X86198Y195069D01*
X86265Y194993D01*
X86320Y194922D01*
X86364Y194857D01*
X86398Y194798D01*
X86423Y194747D01*
X86439Y194702D01*
X86449Y194665D01*
X86454Y194633D01*
X86458Y194569D01*
X86489Y194505D01*
Y194473D01*
X83806Y191790D01*
X83738Y191766D01*
X83691Y191723D01*
X83665Y191704D01*
X83631Y191685D01*
X83588Y191665D01*
X83534Y191646D01*
X83469Y191629D01*
X83401Y191616D01*
X83192Y191596D01*
X83074Y191594D01*
X83014Y191568D01*
X82376Y191442D01*
X81787Y191048D01*
X81393Y190459D01*
X81255Y189764D01*
X81393Y189069D01*
X81761Y188518D01*
X82014Y188086D01*
X81621Y187496D01*
X81482Y186802D01*
X81621Y186107D01*
X81847Y185768D01*
X81880Y185645D01*
X82044Y185432D01*
X82096Y185354D01*
X82142Y185277D01*
X82177Y185208D01*
X82203Y185146D01*
X82221Y185093D01*
X82232Y185049D01*
X82238Y185013D01*
X82241Y184951D01*
X82272Y184886D01*
Y175616D01*
X82243Y175562D01*
X82248Y175548D01*
X82241Y175534D01*
X82237Y175470D01*
X82233Y175442D01*
X82224Y175411D01*
X82210Y175375D01*
X82188Y175334D01*
X82157Y175287D01*
X82116Y175234D01*
X82064Y175176D01*
X81999Y175113D01*
X81907Y175035D01*
X81870Y174962D01*
X81787Y174906D01*
X81393Y174317D01*
X81307Y173884D01*
X81007Y173788D01*
X80771Y173752D01*
X80222Y174119D01*
X79528Y174257D01*
X78833Y174119D01*
X78298Y173762D01*
X78236Y173738D01*
X78166Y173671D01*
X78113Y173627D01*
X78062Y173591D01*
X78013Y173561D01*
X77964Y173537D01*
X77916Y173519D01*
X77867Y173504D01*
X77816Y173493D01*
X77763Y173487D01*
X77680Y173484D01*
X77616Y173454D01*
X74746D01*
X74682Y173484D01*
X74599Y173487D01*
X74546Y173493D01*
X74495Y173504D01*
X74446Y173519D01*
X74398Y173537D01*
X74349Y173561D01*
X74300Y173591D01*
X74249Y173627D01*
X74196Y173671D01*
X74126Y173738D01*
X74064Y173762D01*
X73530Y174119D01*
X72835Y174257D01*
X72140Y174119D01*
X71551Y173725D01*
X71157Y173136D01*
X71019Y172441D01*
X71157Y171746D01*
X71551Y171157D01*
X72140Y170763D01*
X72835Y170625D01*
X73530Y170763D01*
X74064Y171120D01*
X74126Y171144D01*
X74196Y171211D01*
X74249Y171255D01*
X74300Y171291D01*
X74349Y171321D01*
X74398Y171344D01*
X74446Y171363D01*
X74495Y171378D01*
X74546Y171388D01*
X74599Y171395D01*
X74682Y171398D01*
X74746Y171428D01*
X77616D01*
X77680Y171398D01*
X77763Y171395D01*
X77816Y171388D01*
X77867Y171378D01*
X77916Y171363D01*
X77964Y171344D01*
X78013Y171321D01*
X78062Y171291D01*
X78113Y171255D01*
X78166Y171211D01*
X78236Y171144D01*
X78298Y171120D01*
X78833Y170763D01*
X79528Y170625D01*
X80222Y170763D01*
X80812Y171157D01*
X81205Y171746D01*
X81292Y172179D01*
X81592Y172275D01*
X81827Y172311D01*
X82376Y171944D01*
X83071Y171806D01*
X83766Y171944D01*
X84355Y172338D01*
X84749Y172927D01*
X84887Y173622D01*
X84749Y174317D01*
X84523Y174655D01*
X84489Y174779D01*
X84325Y174992D01*
X84273Y175069D01*
X84228Y175146D01*
X84192Y175216D01*
X84166Y175277D01*
X84148Y175330D01*
X84137Y175374D01*
X84132Y175410D01*
X84128Y175473D01*
X84097Y175538D01*
Y184808D01*
X84126Y184861D01*
X84122Y184876D01*
X84128Y184890D01*
X84132Y184954D01*
X84137Y184982D01*
X84145Y185013D01*
X84160Y185048D01*
X84181Y185089D01*
X84212Y185136D01*
X84253Y185189D01*
X84306Y185248D01*
X84371Y185310D01*
X84462Y185389D01*
X84499Y185462D01*
X84583Y185518D01*
X84976Y186107D01*
X85115Y186802D01*
X84976Y187496D01*
X84608Y188048D01*
X84355Y188480D01*
X84749Y189069D01*
X84876Y189707D01*
X84901Y189767D01*
X84903Y189894D01*
X84910Y189996D01*
X84921Y190085D01*
X84936Y190162D01*
X84953Y190227D01*
X84972Y190281D01*
X84992Y190324D01*
X85012Y190357D01*
X85030Y190384D01*
X85073Y190431D01*
X85097Y190499D01*
X88047Y193449D01*
X88245Y193745D01*
X88314Y194095D01*
Y194505D01*
X88345Y194569D01*
X88349Y194633D01*
X88354Y194665D01*
X88364Y194702D01*
X88380Y194747D01*
X88405Y194798D01*
X88439Y194857D01*
X88477Y194914D01*
X88611Y195075D01*
X88694Y195160D01*
X88718Y195221D01*
X89079Y195762D01*
X89218Y196457D01*
X89079Y197152D01*
X88686Y197741D01*
X88096Y198134D01*
X87402Y198273D01*
D02*
G37*
G36*
X252756Y188824D02*
X252061Y188686D01*
X251472Y188292D01*
X251078Y187703D01*
X250940Y187008D01*
X251078Y186313D01*
X251239Y186072D01*
X251268Y185942D01*
X251345Y185831D01*
X251472Y185626D01*
X251514Y185546D01*
X251550Y185468D01*
X251577Y185400D01*
X251595Y185341D01*
X251606Y185292D01*
X251612Y185254D01*
X251615Y185193D01*
X251646Y185127D01*
Y168962D01*
X251624Y168927D01*
X251633Y168888D01*
X251615Y168851D01*
X251612Y168787D01*
X251607Y168761D01*
X251600Y168736D01*
X251588Y168707D01*
X251569Y168674D01*
X251542Y168635D01*
X251504Y168591D01*
X251455Y168542D01*
X251392Y168488D01*
X251300Y168420D01*
X251242Y168323D01*
X251078Y168213D01*
X250684Y167624D01*
X250546Y166929D01*
X250684Y166234D01*
X251078Y165645D01*
X251667Y165251D01*
X252362Y165113D01*
X253057Y165251D01*
X253646Y165645D01*
X254040Y166234D01*
X254178Y166929D01*
X254040Y167624D01*
X253879Y167865D01*
X253850Y167996D01*
X253773Y168106D01*
X253646Y168311D01*
X253604Y168391D01*
X253568Y168469D01*
X253541Y168537D01*
X253523Y168596D01*
X253512Y168645D01*
X253506Y168683D01*
X253503Y168744D01*
X253472Y168810D01*
Y184975D01*
X253494Y185010D01*
X253485Y185049D01*
X253503Y185086D01*
X253506Y185150D01*
X253511Y185176D01*
X253518Y185201D01*
X253531Y185230D01*
X253549Y185263D01*
X253576Y185302D01*
X253614Y185346D01*
X253663Y185396D01*
X253726Y185449D01*
X253818Y185517D01*
X253876Y185614D01*
X254040Y185724D01*
X254434Y186313D01*
X254572Y187008D01*
X254434Y187703D01*
X254040Y188292D01*
X253451Y188686D01*
X252756Y188824D01*
D02*
G37*
G36*
X308543Y168558D02*
X307205Y168381D01*
X305957Y167865D01*
X304886Y167043D01*
X304064Y165972D01*
X303548Y164724D01*
X303372Y163386D01*
X303548Y162047D01*
X304064Y160800D01*
X304886Y159729D01*
X305957Y158907D01*
X307205Y158390D01*
X308543Y158214D01*
X309882Y158390D01*
X311129Y158907D01*
X312200Y159729D01*
X313022Y160800D01*
X313539Y162047D01*
X313715Y163386D01*
X313539Y164724D01*
X313022Y165972D01*
X312200Y167043D01*
X311129Y167865D01*
X309882Y168381D01*
X308543Y168558D01*
D02*
G37*
G36*
X47254Y163946D02*
X39361D01*
Y156053D01*
X47254D01*
Y163946D01*
D02*
G37*
G36*
X78740Y151816D02*
X78045Y151678D01*
X77505Y151317D01*
X77444Y151292D01*
X77352Y151203D01*
X77276Y151137D01*
X77205Y151081D01*
X77140Y151037D01*
X77082Y151004D01*
X77030Y150979D01*
X76986Y150962D01*
X76948Y150952D01*
X76916Y150947D01*
X76853Y150944D01*
X76788Y150913D01*
X74787D01*
X74722Y150944D01*
X74659Y150947D01*
X74627Y150952D01*
X74589Y150962D01*
X74545Y150979D01*
X74493Y151004D01*
X74435Y151037D01*
X74378Y151076D01*
X74216Y151210D01*
X74131Y151292D01*
X74070Y151317D01*
X73530Y151678D01*
X72835Y151816D01*
X72140Y151678D01*
X71551Y151284D01*
X71157Y150695D01*
X71019Y150000D01*
X71157Y149305D01*
X71551Y148716D01*
X72140Y148322D01*
X72835Y148184D01*
X73530Y148322D01*
X74070Y148683D01*
X74131Y148708D01*
X74223Y148797D01*
X74299Y148863D01*
X74370Y148919D01*
X74435Y148963D01*
X74493Y148996D01*
X74545Y149021D01*
X74589Y149038D01*
X74627Y149048D01*
X74659Y149053D01*
X74722Y149056D01*
X74787Y149087D01*
X76788D01*
X76853Y149056D01*
X76916Y149053D01*
X76948Y149048D01*
X76986Y149038D01*
X77030Y149021D01*
X77082Y148996D01*
X77140Y148963D01*
X77197Y148924D01*
X77359Y148790D01*
X77444Y148708D01*
X77505Y148683D01*
X78045Y148322D01*
X78740Y148184D01*
X79435Y148322D01*
X80024Y148716D01*
X80418Y149305D01*
X80556Y150000D01*
X80418Y150695D01*
X80024Y151284D01*
X79435Y151678D01*
X78740Y151816D01*
D02*
G37*
G36*
X314773Y157293D02*
X307274D01*
Y149794D01*
X314773D01*
Y157293D01*
D02*
G37*
G36*
X43307Y153981D02*
X42277Y153845D01*
X41317Y153447D01*
X40492Y152815D01*
X39860Y151990D01*
X39462Y151030D01*
X39327Y150000D01*
X39462Y148970D01*
X39860Y148010D01*
X40492Y147185D01*
X41317Y146553D01*
X42277Y146155D01*
X43307Y146019D01*
X44337Y146155D01*
X45297Y146553D01*
X46122Y147185D01*
X46754Y148010D01*
X47152Y148970D01*
X47288Y150000D01*
X47152Y151030D01*
X46754Y151990D01*
X46122Y152815D01*
X45297Y153447D01*
X44337Y153845D01*
X43307Y153981D01*
D02*
G37*
G36*
X99222Y152135D02*
X91329D01*
Y144243D01*
X99222D01*
Y152135D01*
D02*
G37*
G36*
X95276Y142169D02*
X94245Y142034D01*
X93285Y141636D01*
X92461Y141004D01*
X91828Y140179D01*
X91431Y139219D01*
X91295Y138189D01*
X91431Y137159D01*
X91828Y136199D01*
X92461Y135374D01*
X93285Y134742D01*
X94245Y134344D01*
X95276Y134209D01*
X96306Y134344D01*
X97266Y134742D01*
X98090Y135374D01*
X98723Y136199D01*
X99120Y137159D01*
X99256Y138189D01*
X99120Y139219D01*
X98723Y140179D01*
X98090Y141004D01*
X97266Y141636D01*
X96306Y142034D01*
X95276Y142169D01*
D02*
G37*
G36*
X308543Y135093D02*
X307205Y134917D01*
X305957Y134400D01*
X304886Y133578D01*
X304064Y132507D01*
X303548Y131260D01*
X303372Y129921D01*
X303548Y128583D01*
X304064Y127335D01*
X304886Y126264D01*
X305957Y125442D01*
X307205Y124926D01*
X308543Y124750D01*
X309882Y124926D01*
X311129Y125442D01*
X312200Y126264D01*
X313022Y127335D01*
X313539Y128583D01*
X313715Y129921D01*
X313539Y131260D01*
X313022Y132507D01*
X312200Y133578D01*
X311129Y134400D01*
X309882Y134917D01*
X308543Y135093D01*
D02*
G37*
G36*
X324803Y114211D02*
X323644Y114097D01*
X322529Y113759D01*
X321501Y113210D01*
X320600Y112470D01*
X319861Y111570D01*
X319312Y110542D01*
X318974Y109427D01*
X318860Y108268D01*
X318974Y107108D01*
X319312Y105993D01*
X319861Y104966D01*
X320600Y104065D01*
X321501Y103326D01*
X322529Y102777D01*
X323644Y102438D01*
X324803Y102324D01*
X325963Y102438D01*
X327078Y102777D01*
X328105Y103326D01*
X329006Y104065D01*
X329745Y104966D01*
X330294Y105993D01*
X330632Y107108D01*
X330747Y108268D01*
X330632Y109427D01*
X330294Y110542D01*
X329745Y111570D01*
X329006Y112470D01*
X328105Y113210D01*
X327078Y113759D01*
X325963Y114097D01*
X324803Y114211D01*
D02*
G37*
G36*
X206693D02*
X205533Y114097D01*
X204418Y113759D01*
X203391Y113210D01*
X202490Y112470D01*
X201751Y111570D01*
X201202Y110542D01*
X200864Y109427D01*
X200749Y108268D01*
X200864Y107108D01*
X201202Y105993D01*
X201751Y104966D01*
X202490Y104065D01*
X203391Y103326D01*
X204418Y102777D01*
X205533Y102438D01*
X206693Y102324D01*
X207852Y102438D01*
X208967Y102777D01*
X209995Y103326D01*
X210896Y104065D01*
X211635Y104966D01*
X212184Y105993D01*
X212522Y107108D01*
X212636Y108268D01*
X212522Y109427D01*
X212184Y110542D01*
X211635Y111570D01*
X210896Y112470D01*
X209995Y113210D01*
X208967Y113759D01*
X207852Y114097D01*
X206693Y114211D01*
D02*
G37*
G36*
X212598Y88828D02*
X211827Y88674D01*
X211172Y88237D01*
X210735Y87583D01*
X210582Y86811D01*
X210735Y86039D01*
X211172Y85385D01*
X211827Y84948D01*
X212598Y84794D01*
X213370Y84948D01*
X214024Y85385D01*
X214462Y86039D01*
X214615Y86811D01*
X214462Y87583D01*
X214024Y88237D01*
X213370Y88674D01*
X212598Y88828D01*
D02*
G37*
G36*
X140561Y86387D02*
X132668D01*
Y78495D01*
X140561D01*
Y86387D01*
D02*
G37*
G36*
X29055Y86865D02*
X27717Y86689D01*
X26469Y86172D01*
X25398Y85350D01*
X24576Y84279D01*
X24059Y83031D01*
X23883Y81693D01*
X24059Y80354D01*
X24576Y79107D01*
X25398Y78036D01*
X26469Y77214D01*
X27717Y76697D01*
X29055Y76521D01*
X30394Y76697D01*
X31641Y77214D01*
X32712Y78036D01*
X33534Y79107D01*
X34051Y80354D01*
X34227Y81693D01*
X34051Y83031D01*
X33534Y84279D01*
X32712Y85350D01*
X31641Y86172D01*
X30394Y86689D01*
X29055Y86865D01*
D02*
G37*
G36*
X136614Y76421D02*
X135584Y76286D01*
X134624Y75888D01*
X133800Y75256D01*
X133167Y74431D01*
X132769Y73471D01*
X132634Y72441D01*
X132769Y71411D01*
X133167Y70451D01*
X133800Y69626D01*
X134624Y68994D01*
X135584Y68596D01*
X136614Y68460D01*
X137644Y68596D01*
X138604Y68994D01*
X139429Y69626D01*
X140061Y70451D01*
X140459Y71411D01*
X140595Y72441D01*
X140459Y73471D01*
X140061Y74431D01*
X139429Y75256D01*
X138604Y75888D01*
X137644Y76286D01*
X136614Y76421D01*
D02*
G37*
G36*
X205906Y65202D02*
X205211Y65064D01*
X204621Y64670D01*
X204228Y64081D01*
X204089Y63386D01*
X204228Y62691D01*
X204398Y62436D01*
X204131Y61936D01*
X202346D01*
X202281Y61967D01*
X202218Y61971D01*
X202186Y61976D01*
X202148Y61986D01*
X202104Y62003D01*
X202052Y62027D01*
X201994Y62061D01*
X201937Y62099D01*
X201775Y62233D01*
X201690Y62316D01*
X201629Y62340D01*
X201089Y62701D01*
X200394Y62840D01*
X199699Y62701D01*
X199110Y62308D01*
X198716Y61719D01*
X198578Y61024D01*
X198716Y60329D01*
X199110Y59740D01*
X199699Y59346D01*
X200394Y59208D01*
X201089Y59346D01*
X201157Y59392D01*
X201518Y59031D01*
X201472Y58963D01*
X201334Y58268D01*
X201472Y57573D01*
X201866Y56984D01*
X202455Y56590D01*
X203150Y56452D01*
X203845Y56590D01*
X203913Y56636D01*
X204274Y56275D01*
X204228Y56207D01*
X204089Y55512D01*
X204228Y54817D01*
X204621Y54228D01*
X205211Y53834D01*
X205906Y53696D01*
X206600Y53834D01*
X207141Y54195D01*
X207202Y54219D01*
X207294Y54309D01*
X207370Y54375D01*
X207441Y54431D01*
X207506Y54475D01*
X207564Y54508D01*
X207616Y54533D01*
X207660Y54549D01*
X207698Y54559D01*
X207730Y54565D01*
X207793Y54568D01*
X207858Y54599D01*
X211790D01*
X216478Y49910D01*
X216502Y49843D01*
X216544Y49795D01*
X216563Y49769D01*
X216583Y49736D01*
X216602Y49692D01*
X216622Y49639D01*
X216639Y49573D01*
X216652Y49506D01*
X216672Y49297D01*
X216673Y49178D01*
X216699Y49118D01*
X216826Y48481D01*
X217220Y47891D01*
X217669Y47592D01*
X217730Y47137D01*
X217703Y47013D01*
X217669Y46990D01*
X217606Y46966D01*
X217536Y46899D01*
X217483Y46856D01*
X217432Y46819D01*
X217383Y46790D01*
X217334Y46766D01*
X217286Y46747D01*
X217237Y46732D01*
X217186Y46722D01*
X217133Y46715D01*
X217050Y46712D01*
X216986Y46683D01*
X203937D01*
X203549Y46605D01*
X203221Y46386D01*
X201226Y44391D01*
X201160Y44367D01*
X201099Y44310D01*
X201056Y44277D01*
X201013Y44249D01*
X200968Y44224D01*
X200921Y44204D01*
X200869Y44186D01*
X200814Y44172D01*
X200752Y44162D01*
X200684Y44155D01*
X200587Y44153D01*
X200526Y44126D01*
X199896Y44001D01*
X199306Y43607D01*
X198913Y43018D01*
X198775Y42323D01*
X198913Y41628D01*
X199306Y41039D01*
X199896Y40645D01*
X200591Y40507D01*
X200813Y40551D01*
X201059Y40090D01*
X200071Y39102D01*
X199851Y38774D01*
X199774Y38386D01*
Y37345D01*
X199745Y37281D01*
X199741Y37198D01*
X199735Y37144D01*
X199724Y37093D01*
X199710Y37045D01*
X199691Y36996D01*
X199667Y36948D01*
X199637Y36898D01*
X199601Y36847D01*
X199557Y36795D01*
X199491Y36725D01*
X199467Y36662D01*
X199110Y36128D01*
X198971Y35433D01*
X199110Y34738D01*
X199503Y34149D01*
X200093Y33755D01*
X200787Y33617D01*
X201482Y33755D01*
X202071Y34149D01*
X202465Y34738D01*
X202603Y35433D01*
X202465Y36128D01*
X202108Y36662D01*
X202084Y36725D01*
X202017Y36795D01*
X201974Y36847D01*
X201937Y36898D01*
X201908Y36948D01*
X201884Y36996D01*
X201865Y37045D01*
X201850Y37093D01*
X201840Y37144D01*
X201833Y37198D01*
X201830Y37281D01*
X201801Y37345D01*
Y37966D01*
X205341Y41506D01*
X216198D01*
X216262Y41477D01*
X216345Y41474D01*
X216399Y41467D01*
X216449Y41457D01*
X216498Y41442D01*
X216547Y41423D01*
X216595Y41399D01*
X216645Y41370D01*
X216695Y41333D01*
X216748Y41290D01*
X216818Y41223D01*
X216881Y41199D01*
X217415Y40842D01*
X218110Y40704D01*
X218805Y40842D01*
X219394Y41236D01*
X219788Y41825D01*
X219926Y42520D01*
X219788Y43215D01*
X219607Y43485D01*
X219593Y43968D01*
X219753Y44098D01*
X220182Y44385D01*
X220575Y44974D01*
X220714Y45669D01*
X220575Y46364D01*
X220182Y46953D01*
X219733Y47253D01*
X219672Y47708D01*
X219699Y47832D01*
X219788Y47891D01*
X220182Y48481D01*
X220320Y49176D01*
X220182Y49870D01*
X219788Y50460D01*
X219199Y50853D01*
X218561Y50980D01*
X218501Y51006D01*
X218373Y51008D01*
X218272Y51015D01*
X218183Y51026D01*
X218106Y51040D01*
X218041Y51058D01*
X217987Y51077D01*
X217944Y51097D01*
X217910Y51116D01*
X217884Y51135D01*
X217837Y51178D01*
X217769Y51201D01*
X212813Y56157D01*
X212517Y56355D01*
X212168Y56425D01*
X207857D01*
X207793Y56456D01*
X207730Y56459D01*
X207698Y56464D01*
X207660Y56474D01*
X207616Y56491D01*
X207564Y56515D01*
X207505Y56549D01*
X207449Y56588D01*
X207287Y56722D01*
X207202Y56804D01*
X207141Y56828D01*
X207101Y56855D01*
X207253Y57355D01*
X214976D01*
X215691Y56640D01*
X215715Y56573D01*
X215757Y56525D01*
X215776Y56499D01*
X215795Y56466D01*
X215815Y56423D01*
X215834Y56369D01*
X215852Y56304D01*
X215865Y56236D01*
X215884Y56027D01*
X215886Y55908D01*
X215912Y55848D01*
X216039Y55211D01*
X216432Y54621D01*
X217022Y54228D01*
X217717Y54089D01*
X217957Y54137D01*
X218310Y53784D01*
X218262Y53543D01*
X218401Y52848D01*
X218794Y52259D01*
X219383Y51865D01*
X220078Y51727D01*
X220773Y51865D01*
X221362Y52259D01*
X221756Y52848D01*
X221894Y53543D01*
X221873Y53653D01*
X221905Y53685D01*
X222103Y53981D01*
X222173Y54331D01*
Y59236D01*
X222103Y59586D01*
X221905Y59882D01*
X217756Y64031D01*
X217460Y64229D01*
X217110Y64299D01*
X207857D01*
X207793Y64330D01*
X207730Y64333D01*
X207698Y64338D01*
X207660Y64348D01*
X207616Y64365D01*
X207564Y64389D01*
X207505Y64423D01*
X207449Y64462D01*
X207287Y64596D01*
X207202Y64678D01*
X207141Y64702D01*
X206600Y65064D01*
X205906Y65202D01*
D02*
G37*
G36*
X34646Y61853D02*
X33667Y61724D01*
X32755Y61346D01*
X31971Y60745D01*
X31370Y59962D01*
X30993Y59050D01*
X30864Y58071D01*
X30993Y57092D01*
X31370Y56180D01*
X31971Y55397D01*
X32755Y54796D01*
X33667Y54418D01*
X34646Y54289D01*
X35625Y54418D01*
X36537Y54796D01*
X37320Y55397D01*
X37921Y56180D01*
X38299Y57092D01*
X38428Y58071D01*
X38299Y59050D01*
X37921Y59962D01*
X37320Y60745D01*
X36537Y61346D01*
X35625Y61724D01*
X34646Y61853D01*
D02*
G37*
G36*
X29055Y53400D02*
X27717Y53224D01*
X26469Y52707D01*
X25398Y51885D01*
X24576Y50814D01*
X24059Y49567D01*
X23883Y48228D01*
X24059Y46890D01*
X24576Y45642D01*
X25398Y44571D01*
X26469Y43749D01*
X27717Y43233D01*
X29055Y43056D01*
X30394Y43233D01*
X31641Y43749D01*
X32712Y44571D01*
X33534Y45642D01*
X34051Y46890D01*
X34227Y48228D01*
X34051Y49567D01*
X33534Y50814D01*
X32712Y51885D01*
X31641Y52707D01*
X30394Y53224D01*
X29055Y53400D01*
D02*
G37*
G36*
X253543Y42367D02*
X252848Y42229D01*
X252259Y41835D01*
X251866Y41246D01*
X251727Y40551D01*
X251866Y39856D01*
X252227Y39316D01*
X252251Y39255D01*
X252340Y39163D01*
X252407Y39087D01*
X252462Y39016D01*
X252506Y38951D01*
X252540Y38893D01*
X252564Y38841D01*
X252581Y38797D01*
X252591Y38759D01*
X252596Y38727D01*
X252600Y38664D01*
X252630Y38599D01*
Y38567D01*
X252310Y38246D01*
X252242Y38223D01*
X252195Y38180D01*
X252168Y38161D01*
X252135Y38142D01*
X252092Y38122D01*
X252038Y38103D01*
X251973Y38085D01*
X251905Y38072D01*
X251696Y38053D01*
X251577Y38051D01*
X251518Y38025D01*
X250880Y37898D01*
X250291Y37505D01*
X249897Y36915D01*
X249759Y36220D01*
X249897Y35526D01*
X250291Y34936D01*
X250880Y34543D01*
X251575Y34405D01*
X252270Y34543D01*
X252859Y34936D01*
X253253Y35526D01*
X253379Y36163D01*
X253405Y36223D01*
X253407Y36351D01*
X253414Y36452D01*
X253425Y36541D01*
X253440Y36618D01*
X253457Y36684D01*
X253476Y36737D01*
X253496Y36781D01*
X253515Y36814D01*
X253534Y36841D01*
X253577Y36888D01*
X253601Y36955D01*
X254189Y37543D01*
X254387Y37840D01*
X254456Y38189D01*
Y38599D01*
X254487Y38664D01*
X254490Y38727D01*
X254496Y38759D01*
X254506Y38797D01*
X254522Y38841D01*
X254547Y38893D01*
X254581Y38951D01*
X254619Y39008D01*
X254753Y39170D01*
X254836Y39255D01*
X254860Y39316D01*
X255221Y39856D01*
X255359Y40551D01*
X255221Y41246D01*
X254827Y41835D01*
X254238Y42229D01*
X253543Y42367D01*
D02*
G37*
G36*
X212598Y33316D02*
X211827Y33162D01*
X211172Y32725D01*
X210735Y32071D01*
X210582Y31299D01*
X210735Y30527D01*
X211172Y29873D01*
X211827Y29436D01*
X212598Y29283D01*
X213370Y29436D01*
X214024Y29873D01*
X214462Y30527D01*
X214615Y31299D01*
X214462Y32071D01*
X214024Y32725D01*
X213370Y33162D01*
X212598Y33316D01*
D02*
G37*
G36*
X206299Y28194D02*
X205604Y28056D01*
X205015Y27662D01*
X204622Y27073D01*
X204483Y26378D01*
X204622Y25683D01*
X205015Y25094D01*
X205604Y24700D01*
X206299Y24562D01*
X206994Y24700D01*
X207088Y24763D01*
X210355D01*
X218773Y16344D01*
X218795Y16234D01*
X219188Y15645D01*
X219777Y15251D01*
X220472Y15113D01*
X221167Y15251D01*
X221757Y15645D01*
X222150Y16234D01*
X222288Y16929D01*
X222150Y17624D01*
X221757Y18213D01*
X221167Y18607D01*
X221057Y18629D01*
X212166Y27520D01*
X211642Y27870D01*
X211024Y27993D01*
X207088D01*
X206994Y28056D01*
X206299Y28194D01*
D02*
G37*
G36*
X237294Y25152D02*
X236599Y25014D01*
X236010Y24620D01*
X235616Y24031D01*
X235478Y23336D01*
X235616Y22641D01*
X235820Y22335D01*
X235856Y22203D01*
X235935Y22100D01*
X236065Y21906D01*
X236107Y21833D01*
X236142Y21760D01*
X236169Y21696D01*
X236187Y21641D01*
X236198Y21596D01*
X236204Y21559D01*
X236207Y21497D01*
X236238Y21432D01*
Y18544D01*
X236211Y18497D01*
X236217Y18473D01*
X236207Y18452D01*
X236203Y18387D01*
X236199Y18360D01*
X236190Y18331D01*
X236177Y18298D01*
X236156Y18260D01*
X236127Y18216D01*
X236087Y18166D01*
X236035Y18111D01*
X235971Y18051D01*
X235879Y17977D01*
X235834Y17894D01*
X235723Y17819D01*
X235330Y17230D01*
X235191Y16535D01*
X235330Y15841D01*
X235723Y15251D01*
X236312Y14858D01*
X237007Y14719D01*
X237702Y14858D01*
X238292Y15251D01*
X238685Y15841D01*
X238823Y16535D01*
X238685Y17230D01*
X238481Y17536D01*
X238445Y17668D01*
X238366Y17771D01*
X238236Y17965D01*
X238194Y18038D01*
X238159Y18111D01*
X238133Y18175D01*
X238114Y18230D01*
X238103Y18276D01*
X238098Y18312D01*
X238094Y18374D01*
X238063Y18440D01*
Y21327D01*
X238090Y21374D01*
X238084Y21398D01*
X238094Y21419D01*
X238098Y21484D01*
X238103Y21511D01*
X238111Y21540D01*
X238124Y21573D01*
X238145Y21611D01*
X238175Y21655D01*
X238214Y21705D01*
X238266Y21761D01*
X238330Y21820D01*
X238422Y21894D01*
X238467Y21977D01*
X238578Y22052D01*
X238971Y22641D01*
X239110Y23336D01*
X238971Y24031D01*
X238578Y24620D01*
X237989Y25014D01*
X237294Y25152D01*
D02*
G37*
G36*
X288674Y21199D02*
X287979Y21060D01*
X287390Y20667D01*
X286996Y20078D01*
X286858Y19383D01*
X286996Y18688D01*
X287059Y18594D01*
Y14659D01*
X286996Y14566D01*
X286858Y13871D01*
X286996Y13176D01*
X287390Y12587D01*
X287979Y12193D01*
X288674Y12055D01*
X289369Y12193D01*
X289958Y12587D01*
X290352Y13176D01*
X290490Y13871D01*
X290352Y14566D01*
X290289Y14659D01*
Y18594D01*
X290352Y18688D01*
X290490Y19383D01*
X290352Y20078D01*
X289958Y20667D01*
X289369Y21060D01*
X288674Y21199D01*
D02*
G37*
G36*
X324803Y15786D02*
X323644Y15672D01*
X322529Y15334D01*
X321501Y14784D01*
X320600Y14045D01*
X319861Y13145D01*
X319312Y12117D01*
X318974Y11002D01*
X318860Y9843D01*
X318974Y8683D01*
X319312Y7568D01*
X319861Y6540D01*
X320600Y5640D01*
X321501Y4901D01*
X322529Y4351D01*
X323644Y4013D01*
X324803Y3899D01*
X325963Y4013D01*
X327078Y4351D01*
X328105Y4901D01*
X329006Y5640D01*
X329745Y6540D01*
X330294Y7568D01*
X330632Y8683D01*
X330747Y9843D01*
X330632Y11002D01*
X330294Y12117D01*
X329745Y13145D01*
X329006Y14045D01*
X328105Y14784D01*
X327078Y15334D01*
X325963Y15672D01*
X324803Y15786D01*
D02*
G37*
G36*
X206693D02*
X205533Y15672D01*
X204418Y15334D01*
X203391Y14784D01*
X202490Y14045D01*
X201751Y13145D01*
X201202Y12117D01*
X200864Y11002D01*
X200749Y9843D01*
X200864Y8683D01*
X201202Y7568D01*
X201751Y6540D01*
X202490Y5640D01*
X203391Y4901D01*
X204418Y4351D01*
X205533Y4013D01*
X206693Y3899D01*
X207852Y4013D01*
X208967Y4351D01*
X209995Y4901D01*
X210896Y5640D01*
X211635Y6540D01*
X212184Y7568D01*
X212522Y8683D01*
X212636Y9843D01*
X212522Y11002D01*
X212184Y12117D01*
X211635Y13145D01*
X210896Y14045D01*
X209995Y14784D01*
X208967Y15334D01*
X207852Y15672D01*
X206693Y15786D01*
D02*
G37*
%LPD*%
G36*
X88127Y195509D02*
X87957Y195304D01*
X87888Y195202D01*
X87830Y195100D01*
X87782Y195000D01*
X87745Y194900D01*
X87718Y194801D01*
X87702Y194702D01*
X87697Y194604D01*
X87106D01*
X87101Y194702D01*
X87085Y194801D01*
X87059Y194900D01*
X87021Y195000D01*
X86973Y195100D01*
X86915Y195202D01*
X86846Y195304D01*
X86766Y195406D01*
X86676Y195509D01*
X86575Y195613D01*
X88228D01*
X88127Y195509D01*
D02*
G37*
G36*
X84589Y190865D02*
X84524Y190792D01*
X84465Y190711D01*
X84414Y190622D01*
X84370Y190525D01*
X84333Y190420D01*
X84302Y190307D01*
X84279Y190186D01*
X84263Y190057D01*
X84254Y189920D01*
X84252Y189776D01*
X83083Y190945D01*
X83227Y190947D01*
X83493Y190972D01*
X83614Y190995D01*
X83727Y191025D01*
X83832Y191063D01*
X83929Y191107D01*
X84018Y191158D01*
X84099Y191217D01*
X84172Y191282D01*
X84589Y190865D01*
D02*
G37*
G36*
X84040Y185882D02*
X83934Y185792D01*
X83838Y185699D01*
X83754Y185607D01*
X83682Y185512D01*
X83620Y185417D01*
X83570Y185321D01*
X83530Y185224D01*
X83502Y185126D01*
X83486Y185026D01*
X83480Y184926D01*
X82889Y184985D01*
X82885Y185080D01*
X82870Y185177D01*
X82845Y185276D01*
X82810Y185379D01*
X82766Y185483D01*
X82711Y185590D01*
X82647Y185699D01*
X82573Y185811D01*
X82394Y186042D01*
X84040Y185882D01*
D02*
G37*
G36*
X83480Y175439D02*
X83485Y175344D01*
X83500Y175247D01*
X83525Y175147D01*
X83559Y175045D01*
X83604Y174941D01*
X83658Y174834D01*
X83723Y174724D01*
X83797Y174613D01*
X83975Y174382D01*
X82329Y174541D01*
X82436Y174632D01*
X82531Y174724D01*
X82615Y174817D01*
X82688Y174911D01*
X82749Y175006D01*
X82800Y175103D01*
X82839Y175200D01*
X82867Y175298D01*
X82884Y175397D01*
X82889Y175498D01*
X83480Y175439D01*
D02*
G37*
G36*
X78684Y171614D02*
X78598Y171696D01*
X78509Y171770D01*
X78418Y171835D01*
X78324Y171891D01*
X78227Y171939D01*
X78128Y171978D01*
X78026Y172008D01*
X77922Y172030D01*
X77815Y172043D01*
X77705Y172047D01*
Y172835D01*
X77815Y172839D01*
X77922Y172852D01*
X78026Y172874D01*
X78128Y172904D01*
X78227Y172943D01*
X78324Y172991D01*
X78418Y173047D01*
X78509Y173112D01*
X78598Y173185D01*
X78684Y173268D01*
Y171614D01*
D02*
G37*
G36*
X73764Y173185D02*
X73853Y173112D01*
X73944Y173047D01*
X74038Y172991D01*
X74135Y172943D01*
X74234Y172904D01*
X74336Y172874D01*
X74440Y172852D01*
X74547Y172839D01*
X74657Y172835D01*
Y172047D01*
X74547Y172043D01*
X74440Y172030D01*
X74336Y172008D01*
X74234Y171978D01*
X74135Y171939D01*
X74038Y171891D01*
X73944Y171835D01*
X73853Y171770D01*
X73764Y171696D01*
X73678Y171614D01*
Y173268D01*
X73764Y173185D01*
D02*
G37*
G36*
X253431Y186038D02*
X253321Y185957D01*
X253223Y185873D01*
X253137Y185787D01*
X253062Y185699D01*
X252998Y185609D01*
X252946Y185516D01*
X252906Y185421D01*
X252877Y185324D01*
X252860Y185224D01*
X252854Y185122D01*
X252264Y185225D01*
X252259Y185317D01*
X252245Y185413D01*
X252222Y185512D01*
X252190Y185616D01*
X252148Y185722D01*
X252097Y185833D01*
X252037Y185948D01*
X251888Y186188D01*
X251800Y186314D01*
X253431Y186038D01*
D02*
G37*
G36*
X252854Y168711D02*
X252859Y168620D01*
X252873Y168524D01*
X252896Y168425D01*
X252928Y168321D01*
X252970Y168214D01*
X253021Y168104D01*
X253081Y167989D01*
X253230Y167749D01*
X253318Y167623D01*
X251688Y167899D01*
X251797Y167980D01*
X251895Y168064D01*
X251981Y168149D01*
X252056Y168238D01*
X252120Y168328D01*
X252172Y168421D01*
X252212Y168516D01*
X252241Y168613D01*
X252258Y168713D01*
X252264Y168815D01*
X252854Y168711D01*
D02*
G37*
G36*
X77897Y149173D02*
X77793Y149274D01*
X77587Y149444D01*
X77485Y149513D01*
X77384Y149572D01*
X77284Y149620D01*
X77184Y149657D01*
X77084Y149683D01*
X76986Y149699D01*
X76888Y149705D01*
Y150295D01*
X76986Y150301D01*
X77084Y150317D01*
X77184Y150343D01*
X77284Y150380D01*
X77384Y150428D01*
X77485Y150487D01*
X77587Y150556D01*
X77690Y150635D01*
X77793Y150726D01*
X77897Y150827D01*
Y149173D01*
D02*
G37*
G36*
X73782Y150726D02*
X73988Y150556D01*
X74090Y150487D01*
X74191Y150428D01*
X74291Y150380D01*
X74391Y150343D01*
X74490Y150317D01*
X74589Y150301D01*
X74687Y150295D01*
Y149705D01*
X74589Y149699D01*
X74490Y149683D01*
X74391Y149657D01*
X74291Y149620D01*
X74191Y149572D01*
X74090Y149513D01*
X73988Y149444D01*
X73885Y149365D01*
X73782Y149274D01*
X73678Y149173D01*
Y150827D01*
X73782Y150726D01*
D02*
G37*
G36*
X206853Y64112D02*
X207059Y63942D01*
X207160Y63872D01*
X207262Y63814D01*
X207362Y63766D01*
X207462Y63729D01*
X207561Y63702D01*
X207660Y63686D01*
X207758Y63681D01*
Y63091D01*
X207660Y63085D01*
X207561Y63069D01*
X207462Y63043D01*
X207362Y63006D01*
X207262Y62958D01*
X207160Y62899D01*
X207059Y62830D01*
X206956Y62750D01*
X206853Y62660D01*
X206749Y62559D01*
Y64213D01*
X206853Y64112D01*
D02*
G37*
G36*
X201341Y61749D02*
X201547Y61579D01*
X201649Y61510D01*
X201750Y61452D01*
X201850Y61404D01*
X201950Y61367D01*
X202049Y61340D01*
X202148Y61324D01*
X202246Y61319D01*
Y60728D01*
X202148Y60723D01*
X202049Y60707D01*
X201950Y60681D01*
X201850Y60643D01*
X201750Y60596D01*
X201649Y60537D01*
X201547Y60468D01*
X201444Y60388D01*
X201341Y60298D01*
X201237Y60197D01*
Y61850D01*
X201341Y61749D01*
D02*
G37*
G36*
X217476Y60509D02*
X217557Y60450D01*
X217646Y60399D01*
X217743Y60354D01*
X217848Y60317D01*
X217961Y60287D01*
X218082Y60264D01*
X218211Y60248D01*
X218348Y60238D01*
X218492Y60237D01*
X217323Y59067D01*
X217321Y59212D01*
X217296Y59478D01*
X217273Y59599D01*
X217243Y59712D01*
X217205Y59816D01*
X217161Y59913D01*
X217110Y60002D01*
X217051Y60083D01*
X216986Y60156D01*
X217403Y60574D01*
X217476Y60509D01*
D02*
G37*
G36*
X204097Y58994D02*
X204303Y58823D01*
X204404Y58754D01*
X204506Y58696D01*
X204606Y58648D01*
X204706Y58611D01*
X204805Y58584D01*
X204904Y58568D01*
X205002Y58563D01*
Y57972D01*
X204904Y57967D01*
X204805Y57951D01*
X204706Y57925D01*
X204606Y57887D01*
X204506Y57840D01*
X204404Y57781D01*
X204303Y57712D01*
X204200Y57632D01*
X204097Y57542D01*
X203993Y57441D01*
Y59095D01*
X204097Y58994D01*
D02*
G37*
G36*
X216689Y57359D02*
X216770Y57300D01*
X216859Y57249D01*
X216955Y57205D01*
X217060Y57167D01*
X217173Y57137D01*
X217294Y57114D01*
X217423Y57098D01*
X217560Y57089D01*
X217705Y57086D01*
X216535Y55917D01*
X216533Y56062D01*
X216508Y56328D01*
X216485Y56449D01*
X216455Y56562D01*
X216418Y56667D01*
X216373Y56764D01*
X216322Y56853D01*
X216264Y56933D01*
X216198Y57007D01*
X216616Y57424D01*
X216689Y57359D01*
D02*
G37*
G36*
X206853Y56238D02*
X207059Y56068D01*
X207160Y55998D01*
X207262Y55940D01*
X207362Y55892D01*
X207462Y55855D01*
X207561Y55828D01*
X207660Y55812D01*
X207758Y55807D01*
Y55216D01*
X207660Y55211D01*
X207561Y55195D01*
X207462Y55169D01*
X207362Y55132D01*
X207262Y55084D01*
X207160Y55025D01*
X207059Y54956D01*
X206956Y54876D01*
X206853Y54786D01*
X206749Y54685D01*
Y56339D01*
X206853Y56238D01*
D02*
G37*
G36*
X217476Y50629D02*
X217557Y50570D01*
X217646Y50519D01*
X217743Y50475D01*
X217848Y50437D01*
X217961Y50407D01*
X218081Y50384D01*
X218210Y50368D01*
X218347Y50359D01*
X218492Y50357D01*
X217323Y49187D01*
X217321Y49332D01*
X217296Y49598D01*
X217272Y49719D01*
X217242Y49832D01*
X217205Y49937D01*
X217161Y50034D01*
X217109Y50123D01*
X217051Y50204D01*
X216985Y50276D01*
X217403Y50694D01*
X217476Y50629D01*
D02*
G37*
G36*
X218054Y44842D02*
X217968Y44925D01*
X217879Y44998D01*
X217788Y45063D01*
X217694Y45120D01*
X217597Y45167D01*
X217498Y45206D01*
X217396Y45237D01*
X217292Y45258D01*
X217185Y45271D01*
X217075Y45276D01*
Y46063D01*
X217185Y46067D01*
X217292Y46080D01*
X217396Y46102D01*
X217498Y46132D01*
X217597Y46171D01*
X217694Y46219D01*
X217788Y46275D01*
X217879Y46340D01*
X217968Y46414D01*
X218054Y46496D01*
Y44842D01*
D02*
G37*
G36*
X202157Y43333D02*
X202083Y43252D01*
X202017Y43168D01*
X201958Y43079D01*
X201908Y42985D01*
X201865Y42887D01*
X201830Y42785D01*
X201804Y42679D01*
X201785Y42569D01*
X201774Y42454D01*
X201772Y42335D01*
X200602Y43504D01*
X200722Y43507D01*
X200836Y43517D01*
X200947Y43536D01*
X201053Y43563D01*
X201155Y43597D01*
X201253Y43640D01*
X201346Y43690D01*
X201435Y43749D01*
X201520Y43815D01*
X201601Y43890D01*
X202157Y43333D01*
D02*
G37*
G36*
X217266Y41693D02*
X217180Y41775D01*
X217091Y41849D01*
X217000Y41914D01*
X216906Y41970D01*
X216809Y42018D01*
X216710Y42057D01*
X216609Y42087D01*
X216504Y42109D01*
X216397Y42122D01*
X216288Y42126D01*
Y42913D01*
X216397Y42918D01*
X216504Y42931D01*
X216609Y42952D01*
X216710Y42983D01*
X216809Y43022D01*
X216906Y43069D01*
X217000Y43126D01*
X217091Y43191D01*
X217180Y43264D01*
X217266Y43346D01*
Y41693D01*
D02*
G37*
G36*
X201185Y37146D02*
X201198Y37039D01*
X201220Y36934D01*
X201250Y36833D01*
X201289Y36733D01*
X201337Y36637D01*
X201393Y36543D01*
X201458Y36452D01*
X201532Y36363D01*
X201614Y36277D01*
X199961D01*
X200043Y36363D01*
X200116Y36452D01*
X200182Y36543D01*
X200238Y36637D01*
X200285Y36733D01*
X200324Y36833D01*
X200355Y36934D01*
X200376Y37039D01*
X200389Y37146D01*
X200394Y37255D01*
X201181D01*
X201185Y37146D01*
D02*
G37*
G36*
X254269Y39604D02*
X254099Y39398D01*
X254030Y39296D01*
X253972Y39195D01*
X253924Y39094D01*
X253886Y38995D01*
X253860Y38895D01*
X253844Y38797D01*
X253839Y38699D01*
X253248D01*
X253243Y38797D01*
X253227Y38895D01*
X253200Y38995D01*
X253163Y39094D01*
X253115Y39195D01*
X253057Y39296D01*
X252988Y39398D01*
X252908Y39501D01*
X252818Y39604D01*
X252716Y39708D01*
X254370D01*
X254269Y39604D01*
D02*
G37*
G36*
X253093Y37321D02*
X253028Y37248D01*
X252970Y37168D01*
X252918Y37078D01*
X252874Y36982D01*
X252836Y36877D01*
X252806Y36764D01*
X252783Y36643D01*
X252767Y36514D01*
X252758Y36377D01*
X252756Y36232D01*
X251587Y37402D01*
X251731Y37404D01*
X251997Y37429D01*
X252118Y37452D01*
X252231Y37482D01*
X252336Y37519D01*
X252433Y37564D01*
X252522Y37615D01*
X252603Y37674D01*
X252676Y37739D01*
X253093Y37321D01*
D02*
G37*
G36*
X238012Y22398D02*
X237905Y22311D01*
X237808Y22222D01*
X237723Y22131D01*
X237650Y22039D01*
X237587Y21946D01*
X237536Y21851D01*
X237497Y21754D01*
X237469Y21656D01*
X237452Y21557D01*
X237446Y21456D01*
X236855Y21530D01*
X236850Y21624D01*
X236836Y21721D01*
X236812Y21820D01*
X236778Y21923D01*
X236734Y22028D01*
X236681Y22137D01*
X236618Y22248D01*
X236463Y22479D01*
X236371Y22599D01*
X238012Y22398D01*
D02*
G37*
G36*
X237446Y18341D02*
X237451Y18247D01*
X237465Y18150D01*
X237489Y18051D01*
X237523Y17948D01*
X237567Y17843D01*
X237620Y17735D01*
X237683Y17623D01*
X237838Y17392D01*
X237930Y17273D01*
X236289Y17473D01*
X236397Y17560D01*
X236493Y17649D01*
X236578Y17740D01*
X236651Y17832D01*
X236714Y17925D01*
X236765Y18021D01*
X236804Y18117D01*
X236833Y18215D01*
X236850Y18314D01*
X236855Y18415D01*
X237446Y18341D01*
D02*
G37*
%LPC*%
G36*
X8917Y216296D02*
X5768D01*
X4842Y216112D01*
X4058Y215588D01*
X3534Y214804D01*
X3350Y213878D01*
X3534Y212953D01*
X4058Y212169D01*
X4842Y211645D01*
X5768Y211460D01*
X8917D01*
X9843Y211645D01*
X10627Y212169D01*
X11151Y212953D01*
X11335Y213878D01*
X11151Y214804D01*
X10627Y215588D01*
X9843Y216112D01*
X8917Y216296D01*
D02*
G37*
G36*
Y182240D02*
X5768D01*
X4842Y182056D01*
X4058Y181532D01*
X3534Y180748D01*
X3350Y179822D01*
X3534Y178897D01*
X4058Y178113D01*
X4842Y177588D01*
X5768Y177404D01*
X8917D01*
X9843Y177588D01*
X10627Y178113D01*
X11151Y178897D01*
X11335Y179822D01*
X11151Y180748D01*
X10627Y181532D01*
X9843Y182056D01*
X8917Y182240D01*
D02*
G37*
%LPD*%
D11*
X72835Y172441D02*
X79528D01*
X203937Y45669D02*
X218898D01*
X200591Y42323D02*
X203937Y45669D01*
X200787Y38386D02*
X204921Y42520D01*
X218110D01*
X200787Y35433D02*
Y38386D01*
D13*
X237151Y23192D02*
X237294Y23336D01*
X237151Y16679D02*
Y23192D01*
X237007Y16535D02*
X237151Y16679D01*
X252362Y166929D02*
X252559Y167126D01*
Y186811D01*
X252756Y187008D01*
X220078Y53543D02*
X220472D01*
X221260Y54331D01*
Y59236D01*
X217110Y63386D02*
X221260Y59236D01*
X212168Y55512D02*
X218504Y49176D01*
X215354Y58268D02*
X217717Y55905D01*
X203150Y58268D02*
X215354D01*
X205906Y55512D02*
X212168D01*
X205906Y63386D02*
X217110D01*
X216536Y61024D02*
X218504Y59055D01*
X200394Y61024D02*
X216536D01*
X83071Y173622D02*
X83185Y173736D01*
Y186688D01*
X83298Y186802D01*
X83071Y189764D02*
X87402Y194095D01*
Y196457D01*
X72835Y150000D02*
X78740D01*
X251575Y36220D02*
X253543Y38189D01*
Y40551D01*
X116142Y168110D02*
Y194488D01*
X99606Y211024D02*
X116142Y194488D01*
X301181Y5511D02*
X299082D01*
X300132D01*
Y2362D01*
X298032D02*
Y2887D01*
X297508D01*
Y2362D01*
X298032D01*
X295409Y5511D02*
Y2362D01*
X293310D01*
X292260Y5511D02*
X291211D01*
X291735D01*
Y2362D01*
X292260D01*
X291211D01*
X280190D02*
X279141D01*
X279666D01*
Y5511D01*
X280190Y4986D01*
X277567Y2887D02*
X277042Y2362D01*
X275992D01*
X275468Y2887D01*
Y4986D01*
X275992Y5511D01*
X277042D01*
X277567Y4986D01*
Y4461D01*
X277042Y3937D01*
X275468D01*
X274418Y2362D02*
X272319Y4461D01*
X271269Y4986D02*
X270745Y5511D01*
X269695D01*
X269170Y4986D01*
Y2887D01*
X269695Y2362D01*
X270745D01*
X271269Y2887D01*
Y4986D01*
X268121Y5511D02*
X266022D01*
Y4986D01*
X268121Y2887D01*
Y2362D01*
D102*
X17295Y205216D02*
X19193D01*
X16142Y204063D02*
X17295Y205216D01*
X19193D02*
X24507D01*
X16142Y189751D02*
Y204063D01*
Y189751D02*
X17295Y188597D01*
X19080D01*
X19193Y188484D01*
X24507D01*
X57087Y186614D02*
Y195169D01*
X55512Y196744D02*
X57087Y195169D01*
X288674Y13871D02*
Y19383D01*
X211024Y26378D02*
X220472Y16929D01*
X206299Y26378D02*
X211024D01*
X55512Y196744D02*
Y196850D01*
D104*
X22319Y198302D02*
X24286D01*
X19193Y195177D02*
X22319Y198302D01*
X24286D02*
X24507Y198523D01*
D106*
X136614Y82441D02*
D03*
X43307Y160000D02*
D03*
X95276Y148189D02*
D03*
D107*
X136614Y72441D02*
D03*
Y62441D02*
D03*
X43307Y150000D02*
D03*
Y140000D02*
D03*
X95276Y128189D02*
D03*
Y138189D02*
D03*
D108*
X34646Y58071D02*
D03*
Y71850D02*
D03*
X16535D02*
D03*
X311024Y139764D02*
D03*
X308543Y163386D02*
D03*
Y129921D02*
D03*
X311024Y190945D02*
D03*
X308543Y214567D02*
D03*
Y181102D02*
D03*
D109*
X16535Y58071D02*
D03*
X311024Y153543D02*
D03*
Y204724D02*
D03*
D110*
X143701Y189961D02*
D03*
X156496D02*
D03*
X197835Y137795D02*
D03*
X287402Y217520D02*
D03*
D111*
X24507Y208563D02*
D03*
Y205216D02*
D03*
Y201870D02*
D03*
Y198523D02*
D03*
Y195177D02*
D03*
Y191830D02*
D03*
Y188484D02*
D03*
Y185137D02*
D03*
X19193D02*
D03*
Y188484D02*
D03*
Y191830D02*
D03*
Y195177D02*
D03*
Y198523D02*
D03*
Y201870D02*
D03*
Y205216D02*
D03*
Y208563D02*
D03*
D112*
X20650Y213878D02*
D03*
Y179822D02*
D03*
D113*
X7342D02*
D03*
Y213878D02*
D03*
D114*
X159449Y222441D02*
D03*
D115*
X149449D02*
D03*
D116*
X212598Y31299D02*
D03*
Y86811D02*
D03*
D117*
X206693Y108268D02*
D03*
X324803D02*
D03*
Y9843D02*
D03*
X206693D02*
D03*
D118*
X314961Y216535D02*
D03*
Y177165D02*
D03*
X324803Y157480D02*
D03*
X314961Y19685D02*
D03*
X295276Y216535D02*
D03*
X305118Y157480D02*
D03*
X295276Y137795D02*
D03*
X275591Y216535D02*
D03*
Y137795D02*
D03*
X285433Y118110D02*
D03*
X275591Y98425D02*
D03*
X285433Y78740D02*
D03*
X275591Y59055D02*
D03*
X285433Y39370D02*
D03*
X275591Y19685D02*
D03*
X255906Y137795D02*
D03*
X265748Y118110D02*
D03*
X255906Y98425D02*
D03*
X265748Y78740D02*
D03*
X255906Y59055D02*
D03*
X265748Y39370D02*
D03*
X255906Y19685D02*
D03*
X236221Y137795D02*
D03*
X246063Y118110D02*
D03*
Y78740D02*
D03*
X236221Y59055D02*
D03*
X226378Y118110D02*
D03*
X196850Y216535D02*
D03*
X206693Y118110D02*
D03*
X177165Y216535D02*
D03*
X187008Y196850D02*
D03*
X177165Y137795D02*
D03*
X187008Y118110D02*
D03*
X177165Y98425D02*
D03*
X157480Y177165D02*
D03*
Y98425D02*
D03*
X167323Y39370D02*
D03*
X137795Y216535D02*
D03*
Y177165D02*
D03*
X147638Y118110D02*
D03*
Y78740D02*
D03*
Y39370D02*
D03*
X118110Y137795D02*
D03*
X127953Y78740D02*
D03*
Y39370D02*
D03*
X108268Y157480D02*
D03*
Y118110D02*
D03*
Y78740D02*
D03*
Y39370D02*
D03*
X78740Y216535D02*
D03*
X88583Y157480D02*
D03*
Y118110D02*
D03*
X78740Y98425D02*
D03*
X88583Y78740D02*
D03*
X78740Y59055D02*
D03*
X88583Y39370D02*
D03*
X59055Y216535D02*
D03*
X68898Y157480D02*
D03*
X59055Y137795D02*
D03*
X68898Y118110D02*
D03*
X59055Y98425D02*
D03*
X68898Y78740D02*
D03*
X59055Y59055D02*
D03*
X39370Y216535D02*
D03*
Y177165D02*
D03*
X49213Y157480D02*
D03*
Y78740D02*
D03*
Y39370D02*
D03*
X29528Y157480D02*
D03*
Y39370D02*
D03*
X98032Y196063D02*
D03*
X103937D02*
D03*
X104724Y199606D02*
D03*
X100394D02*
D03*
X102362Y202756D02*
D03*
X98032D02*
D03*
X108339Y166410D02*
D03*
X249087Y24678D02*
D03*
X244166Y23694D02*
D03*
X227434D02*
D03*
Y26646D02*
D03*
X209646Y33465D02*
D03*
X216535D02*
D03*
X220472Y80709D02*
D03*
X232283Y77756D02*
D03*
Y83662D02*
D03*
X236220Y74803D02*
D03*
Y78740D02*
D03*
Y82677D02*
D03*
Y86614D02*
D03*
X156693Y117323D02*
D03*
X134252Y192126D02*
D03*
X75197Y191339D02*
D03*
X81102Y209842D02*
D03*
X83071Y215354D02*
D03*
X78740Y43307D02*
D03*
X82677Y56693D02*
D03*
X139764Y212598D02*
D03*
X259842Y183071D02*
D03*
X244094Y179134D02*
D03*
X264764D02*
D03*
X254921D02*
D03*
X269685Y175197D02*
D03*
X259842D02*
D03*
X250000D02*
D03*
X238189D02*
D03*
X237205Y183071D02*
D03*
X236221Y188976D02*
D03*
X235236Y206693D02*
D03*
X238189Y209646D02*
D03*
X232283D02*
D03*
X163386Y135827D02*
D03*
X187992Y140748D02*
D03*
Y144685D02*
D03*
X174213Y140748D02*
D03*
Y144685D02*
D03*
X187008Y148622D02*
D03*
X184055D02*
D03*
X181102D02*
D03*
X178150D02*
D03*
X175197D02*
D03*
X149606Y124016D02*
D03*
X145669D02*
D03*
X141732D02*
D03*
X137795D02*
D03*
X151575Y126969D02*
D03*
X147638D02*
D03*
X143701D02*
D03*
X139764D02*
D03*
X135827D02*
D03*
X157874Y134646D02*
D03*
X155020Y134547D02*
D03*
X152362Y134646D02*
D03*
X236024Y196063D02*
D03*
X238583Y193701D02*
D03*
X233071D02*
D03*
X238583Y198819D02*
D03*
X233071D02*
D03*
X142520Y25197D02*
D03*
X134646Y25984D02*
D03*
X57087Y186614D02*
D03*
X44488Y103150D02*
D03*
X288674Y19383D02*
D03*
Y13871D02*
D03*
X206299Y26378D02*
D03*
X220472Y16929D02*
D03*
X192126Y47638D02*
D03*
X192126Y30315D02*
D03*
X237294Y23336D02*
D03*
X70472Y70866D02*
D03*
X72835Y172441D02*
D03*
X79528D02*
D03*
X177165Y107087D02*
D03*
X220078Y53543D02*
D03*
X217717Y55905D02*
D03*
X218504Y49176D02*
D03*
X218898Y45669D02*
D03*
X205906Y63386D02*
D03*
Y55512D02*
D03*
X203150Y58268D02*
D03*
X200394Y61024D02*
D03*
X83071Y173622D02*
D03*
X83298Y186802D02*
D03*
X83071Y189764D02*
D03*
X78740Y150000D02*
D03*
X72835D02*
D03*
X237007Y16535D02*
D03*
X254724Y229134D02*
D03*
X246850Y30315D02*
D03*
X251575Y36220D02*
D03*
X253543Y40551D02*
D03*
X218504Y59055D02*
D03*
X215551Y144685D02*
D03*
X262795Y215551D02*
D03*
X200787Y35433D02*
D03*
X200591Y42323D02*
D03*
X70472Y61024D02*
D03*
X218110Y42520D02*
D03*
X16142Y138583D02*
D03*
X99606Y211024D02*
D03*
X116142Y168110D02*
D03*
X87402Y196457D02*
D03*
X98819Y174016D02*
D03*
X125197Y171850D02*
D03*
X55512Y196850D02*
D03*
X252362Y166929D02*
D03*
X252756Y187008D02*
D03*
X152362Y181496D02*
D03*
X81102Y7087D02*
D03*
X84252D02*
D03*
X87402D02*
D03*
X90551D02*
D03*
X94095D02*
D03*
Y3937D02*
D03*
X90551D02*
D03*
X87402D02*
D03*
X84252D02*
D03*
X81102D02*
D03*
X122441Y188386D02*
D03*
X119685Y188189D02*
D03*
Y185039D02*
D03*
X122441D02*
D03*
X125197D02*
D03*
X127953D02*
D03*
X130709D02*
D03*
X42913Y122047D02*
D03*
X62598Y187008D02*
D03*
X43110Y190748D02*
D03*
X35433Y190945D02*
D03*
M02*
