G04*
G04 #@! TF.GenerationSoftware,Altium Limited,Altium Designer,19.0.15 (446)*
G04*
G04 Layer_Physical_Order=1*
G04 Layer_Color=255*
%FSLAX25Y25*%
%MOIN*%
G70*
G01*
G75*
%ADD10C,0.00984*%
%ADD11C,0.00787*%
%ADD13C,0.00591*%
%ADD16R,0.03347X0.03347*%
%ADD17R,0.03150X0.03150*%
%ADD18R,0.04488X0.07992*%
%ADD19R,0.10630X0.10630*%
G04:AMPARAMS|DCode=20|XSize=9.84mil|YSize=29.53mil|CornerRadius=2.46mil|HoleSize=0mil|Usage=FLASHONLY|Rotation=0.000|XOffset=0mil|YOffset=0mil|HoleType=Round|Shape=RoundedRectangle|*
%AMROUNDEDRECTD20*
21,1,0.00984,0.02461,0,0,0.0*
21,1,0.00492,0.02953,0,0,0.0*
1,1,0.00492,0.00246,-0.01230*
1,1,0.00492,-0.00246,-0.01230*
1,1,0.00492,-0.00246,0.01230*
1,1,0.00492,0.00246,0.01230*
%
%ADD20ROUNDEDRECTD20*%
G04:AMPARAMS|DCode=21|XSize=9.84mil|YSize=29.53mil|CornerRadius=2.46mil|HoleSize=0mil|Usage=FLASHONLY|Rotation=90.000|XOffset=0mil|YOffset=0mil|HoleType=Round|Shape=RoundedRectangle|*
%AMROUNDEDRECTD21*
21,1,0.00984,0.02461,0,0,90.0*
21,1,0.00492,0.02953,0,0,90.0*
1,1,0.00492,0.01230,0.00246*
1,1,0.00492,0.01230,-0.00246*
1,1,0.00492,-0.01230,-0.00246*
1,1,0.00492,-0.01230,0.00246*
%
%ADD21ROUNDEDRECTD21*%
%ADD22R,0.02953X0.00984*%
%ADD23R,0.03937X0.03543*%
%ADD24R,0.05512X0.04528*%
%ADD25R,0.03543X0.03937*%
%ADD26R,0.04528X0.05512*%
%ADD27R,0.08900X0.10900*%
%ADD28R,0.08900X0.12100*%
%ADD29R,0.09685X0.09095*%
%ADD30O,0.05906X0.01772*%
%ADD31R,0.05906X0.01772*%
%ADD32R,0.05906X0.07284*%
%ADD33R,0.03347X0.03347*%
%ADD34R,0.06102X0.13583*%
%ADD35R,0.02559X0.04331*%
%ADD36R,0.03543X0.03150*%
%ADD37R,0.03150X0.02362*%
G04:AMPARAMS|DCode=38|XSize=59.06mil|YSize=17.72mil|CornerRadius=4.43mil|HoleSize=0mil|Usage=FLASHONLY|Rotation=90.000|XOffset=0mil|YOffset=0mil|HoleType=Round|Shape=RoundedRectangle|*
%AMROUNDEDRECTD38*
21,1,0.05906,0.00886,0,0,90.0*
21,1,0.05020,0.01772,0,0,90.0*
1,1,0.00886,0.00443,0.02510*
1,1,0.00886,0.00443,-0.02510*
1,1,0.00886,-0.00443,-0.02510*
1,1,0.00886,-0.00443,0.02510*
%
%ADD38ROUNDEDRECTD38*%
%ADD39R,0.01772X0.05906*%
%ADD40R,0.08465X0.11024*%
%ADD41R,0.11417X0.04921*%
%ADD42R,0.01575X0.01968*%
%ADD43R,0.07480X0.04331*%
%ADD44R,0.04331X0.02559*%
%ADD45R,0.14173X0.04528*%
%ADD46R,0.07087X0.03150*%
%ADD47R,0.06299X0.01181*%
%ADD48O,0.06299X0.01181*%
%ADD98R,0.03937X0.03937*%
%ADD99R,0.03937X0.03937*%
%ADD100C,0.01575*%
%ADD101C,0.03937*%
%ADD102C,0.01968*%
%ADD103C,0.07874*%
%ADD104C,0.00606*%
%ADD105C,0.05906*%
%ADD106R,0.06693X0.06693*%
%ADD107C,0.06693*%
%ADD108C,0.06299*%
%ADD109R,0.06299X0.06299*%
%ADD110C,0.06000*%
%ADD111C,0.02559*%
%ADD112O,0.09449X0.03543*%
%ADD113O,0.06693X0.03543*%
%ADD114R,0.05906X0.05906*%
%ADD115C,0.05906*%
%ADD116C,0.02756*%
%ADD117C,0.10630*%
%ADD118C,0.02362*%
G36*
X333014Y231135D02*
X332552Y230943D01*
X331354Y232141D01*
X331058Y232339D01*
X330709Y232409D01*
X259842D01*
X259493Y232339D01*
X259197Y232141D01*
X258213Y231157D01*
X258015Y230861D01*
X257945Y230512D01*
Y220401D01*
X257261D01*
X257194Y220431D01*
Y221761D01*
X252648D01*
Y220332D01*
X252582Y220303D01*
X250371D01*
X250305Y220332D01*
Y221663D01*
X245758D01*
Y217116D01*
X250305D01*
Y218447D01*
X250371Y218477D01*
X252582D01*
X252648Y218447D01*
Y217215D01*
X257194D01*
Y218546D01*
X257261Y218575D01*
X258858D01*
X259208Y218645D01*
X259504Y218843D01*
X259702Y219139D01*
X259771Y219488D01*
Y230134D01*
X260221Y230583D01*
X330331D01*
X331838Y229076D01*
Y147974D01*
X331338Y147804D01*
X330795Y148511D01*
X322527Y156779D01*
X321579Y157506D01*
X320476Y157964D01*
X319291Y158119D01*
X311024D01*
X310307Y158025D01*
X310176Y158512D01*
X311129Y158907D01*
X312200Y159729D01*
X313022Y160800D01*
X313539Y162047D01*
X313715Y163386D01*
X313539Y164724D01*
X313022Y165972D01*
X312200Y167043D01*
X311129Y167865D01*
X309882Y168381D01*
X308543Y168558D01*
X307205Y168381D01*
X305957Y167865D01*
X304886Y167043D01*
X304064Y165972D01*
X303548Y164724D01*
X303372Y163386D01*
X303548Y162047D01*
X304064Y160800D01*
X304886Y159729D01*
X305957Y158907D01*
X307205Y158390D01*
X308543Y158214D01*
X309414Y158329D01*
X309545Y157842D01*
X308735Y157506D01*
X308457Y157293D01*
X307274D01*
Y156110D01*
X307061Y155831D01*
X306603Y154728D01*
X306448Y153543D01*
X306603Y152359D01*
X307061Y151255D01*
X307274Y150977D01*
Y149794D01*
X308457D01*
X308735Y149580D01*
X309839Y149123D01*
X311024Y148967D01*
X317396D01*
X322983Y143380D01*
Y134643D01*
X312449Y134617D01*
X312309Y134558D01*
X312158Y134547D01*
X312088Y134466D01*
X311990Y134425D01*
X311973Y134383D01*
X311471Y134138D01*
X311129Y134400D01*
X309882Y134917D01*
X308543Y135093D01*
X307205Y134917D01*
X305957Y134400D01*
X305578Y134109D01*
X305082Y134359D01*
X305061Y134408D01*
X304954Y134453D01*
X304876Y134538D01*
X304733Y134543D01*
X304602Y134598D01*
X232666Y134422D01*
X232312Y134775D01*
Y142717D01*
X232235Y143104D01*
X232016Y143433D01*
X229895Y145554D01*
X229566Y145773D01*
X229178Y145851D01*
X228320D01*
X228253Y145880D01*
X228121Y145884D01*
X228061Y145889D01*
Y147111D01*
X223515D01*
Y142564D01*
X228061D01*
Y143786D01*
X228121Y143791D01*
X228253Y143795D01*
X228320Y143824D01*
X228759D01*
X230286Y142297D01*
Y134416D01*
X205743Y134357D01*
X205709Y134856D01*
Y156307D01*
X289623D01*
X290807Y156463D01*
X291911Y156920D01*
X292859Y157647D01*
X298511Y163300D01*
X299239Y164247D01*
X299696Y165351D01*
X299852Y166535D01*
Y193445D01*
X308969D01*
X309162Y193525D01*
X309364Y193579D01*
X309460Y193653D01*
X310214Y193965D01*
X311024Y194072D01*
X311833Y193965D01*
X312587Y193653D01*
X312683Y193579D01*
X312885Y193525D01*
X313078Y193445D01*
X328543D01*
X329003Y193635D01*
X329193Y194095D01*
Y212795D01*
X329003Y213254D01*
X328543Y213445D01*
X313947D01*
X313617Y213821D01*
X313715Y214567D01*
X313539Y215905D01*
X313022Y217153D01*
X312200Y218224D01*
X311129Y219046D01*
X309882Y219563D01*
X308543Y219739D01*
X307205Y219563D01*
X305957Y219046D01*
X304886Y218224D01*
X304064Y217153D01*
X303548Y215905D01*
X303372Y214567D01*
X303470Y213821D01*
X303140Y213445D01*
X269614D01*
Y217050D01*
X269643Y217116D01*
X270974D01*
Y221663D01*
X266428D01*
Y217116D01*
X267758D01*
X267788Y217050D01*
Y213445D01*
X245007D01*
Y223880D01*
X245258Y224074D01*
X245758Y223847D01*
Y223219D01*
X250305D01*
Y227765D01*
X245758D01*
Y226434D01*
X245692Y226405D01*
X245177D01*
X244828Y226336D01*
X244532Y226138D01*
X243449Y225055D01*
X243251Y224759D01*
X243182Y224410D01*
Y218974D01*
X243110Y218504D01*
X228799D01*
Y228006D01*
X228609Y228466D01*
X228150Y228656D01*
X206496D01*
X206037Y228466D01*
X205847Y228006D01*
Y200445D01*
X205937Y200227D01*
X206019Y200005D01*
X206046Y199975D01*
X206037Y199512D01*
X205943Y199285D01*
X205847Y199058D01*
X205848Y199056D01*
X205847Y199053D01*
Y178454D01*
X204568D01*
X204137Y178633D01*
X202953Y178789D01*
X187919D01*
X166833Y199874D01*
X167041Y200374D01*
X176536D01*
Y212474D01*
X166436D01*
Y200979D01*
X165936Y200772D01*
X164025Y202683D01*
Y221457D01*
X163869Y222641D01*
X163412Y223745D01*
X163002Y224279D01*
Y225994D01*
X159746D01*
X159449Y226033D01*
X159151Y225994D01*
X155896D01*
Y224279D01*
X155486Y223745D01*
X155029Y222641D01*
X154873Y221457D01*
Y200787D01*
X155029Y199603D01*
X155486Y198499D01*
X156213Y197552D01*
X158474Y195291D01*
X158410Y195047D01*
X158179Y194366D01*
X157899Y193706D01*
X157888Y193684D01*
X156960Y193612D01*
X156523Y193610D01*
X156472Y193588D01*
X155556Y193468D01*
X154681Y193105D01*
X153928Y192528D01*
X153351Y191776D01*
X152989Y190900D01*
X152865Y189961D01*
X152989Y189021D01*
X153351Y188145D01*
X153928Y187393D01*
X154681Y186816D01*
X155556Y186453D01*
X156496Y186330D01*
X157436Y186453D01*
X158312Y186816D01*
X159064Y187393D01*
X159641Y188145D01*
X160003Y189021D01*
X160124Y189936D01*
X160145Y189988D01*
X160148Y190431D01*
X160192Y191212D01*
X160209Y191347D01*
X160242Y191364D01*
X160901Y191644D01*
X161583Y191875D01*
X161826Y191938D01*
X182788Y170977D01*
X183736Y170249D01*
X184839Y169792D01*
X186024Y169636D01*
X202953D01*
X204137Y169792D01*
X204231Y169831D01*
X204724Y169494D01*
Y165459D01*
X131243D01*
X130059Y165303D01*
X128955Y164846D01*
X128007Y164119D01*
X122355Y158466D01*
X121627Y157518D01*
X121170Y156414D01*
X121014Y155230D01*
Y114961D01*
X121170Y113776D01*
X121627Y112673D01*
X122355Y111725D01*
X129441Y104638D01*
X130389Y103911D01*
X131493Y103454D01*
X132677Y103298D01*
X155979D01*
X180229Y79048D01*
X181176Y78320D01*
X182280Y77863D01*
X183465Y77707D01*
X200532D01*
Y72835D01*
X200722Y72375D01*
X201181Y72185D01*
X207637D01*
X207677Y72137D01*
X207930Y71762D01*
X207839Y71483D01*
X207737Y71331D01*
X207644Y70866D01*
X207737Y70402D01*
X208000Y70008D01*
Y69756D01*
X207737Y69362D01*
X207644Y68898D01*
X207737Y68433D01*
X208000Y68039D01*
Y67787D01*
X207737Y67394D01*
X207644Y66929D01*
X207737Y66465D01*
X208000Y66071D01*
Y65819D01*
X207737Y65425D01*
X207644Y64961D01*
X207665Y64859D01*
X207194Y64664D01*
X207190Y64670D01*
X206600Y65064D01*
X205963Y65190D01*
X205903Y65216D01*
X205775Y65218D01*
X205674Y65225D01*
X205585Y65236D01*
X205507Y65251D01*
X205442Y65268D01*
X205389Y65287D01*
X205346Y65307D01*
X205312Y65326D01*
X205286Y65345D01*
X205238Y65388D01*
X205171Y65412D01*
X193934Y76649D01*
X193638Y76846D01*
X193288Y76916D01*
X175774D01*
X154781Y97908D01*
X154485Y98106D01*
X154136Y98176D01*
X89445D01*
X80440Y107180D01*
Y136630D01*
X81087Y137276D01*
X89815D01*
X89868Y137248D01*
X90013Y137233D01*
X90140Y137197D01*
X90314Y137124D01*
X90528Y137008D01*
X90775Y136847D01*
X91042Y136651D01*
X92051Y135761D01*
X92427Y135386D01*
X92466Y135370D01*
X93285Y134742D01*
X94245Y134344D01*
X95276Y134209D01*
X96306Y134344D01*
X97266Y134742D01*
X97960Y135275D01*
X98023Y135292D01*
X98039Y135320D01*
X98069Y135332D01*
X98395Y135643D01*
X99001Y136160D01*
X99266Y136356D01*
X99517Y136521D01*
X99745Y136650D01*
X99949Y136744D01*
X100126Y136806D01*
X100274Y136839D01*
X100445Y136853D01*
X100574Y136918D01*
X100743Y136952D01*
X101039Y137150D01*
X102220Y138331D01*
X102418Y138627D01*
X102488Y138976D01*
Y153937D01*
X102418Y154286D01*
X102220Y154583D01*
X99633Y157169D01*
Y166952D01*
X99663Y167018D01*
X100994D01*
Y167955D01*
X101060Y167985D01*
X101969D01*
X102318Y168054D01*
X102614Y168252D01*
X103401Y169040D01*
X103599Y169336D01*
X103669Y169685D01*
Y178245D01*
X104131Y178437D01*
X105654Y176914D01*
X105950Y176716D01*
X106299Y176646D01*
X107503D01*
X107569Y176617D01*
Y175581D01*
X112116D01*
Y180128D01*
X112116D01*
X112223Y180583D01*
X113524D01*
X113868Y180226D01*
Y175680D01*
X118415D01*
Y177010D01*
X118482Y177040D01*
X119707D01*
X119774Y177010D01*
Y175778D01*
X124320D01*
Y180324D01*
X119774D01*
Y178895D01*
X119707Y178866D01*
X118482D01*
X118415Y178895D01*
Y180226D01*
X117084D01*
X117054Y180293D01*
Y180709D01*
X116985Y181058D01*
X116787Y181354D01*
X116220Y181921D01*
X116427Y182421D01*
X133465D01*
X133924Y182612D01*
X134114Y183071D01*
Y184127D01*
X138598D01*
X139545Y183179D01*
X139572Y183108D01*
X139776Y182889D01*
X139833Y182819D01*
X139853Y182791D01*
Y182777D01*
X139827Y182716D01*
X139848Y182665D01*
X139836Y182611D01*
X139853Y182583D01*
Y179616D01*
X144399D01*
Y184163D01*
X141432D01*
X141405Y184180D01*
X141351Y184167D01*
X141300Y184188D01*
X141238Y184163D01*
X141225D01*
X141204Y184178D01*
X141024Y184332D01*
X140916Y184435D01*
X140842Y184465D01*
X139622Y185685D01*
X139326Y185883D01*
X138976Y185952D01*
X134114D01*
Y189151D01*
X134113Y189152D01*
X134114Y189154D01*
X134018Y189382D01*
X133924Y189610D01*
X133922Y189611D01*
X133921Y189612D01*
X133566Y189964D01*
X133564Y189965D01*
X133564Y189966D01*
X133335Y190058D01*
X133106Y190152D01*
X133104Y190151D01*
X133102Y190152D01*
X132919Y190150D01*
X132902Y190142D01*
X132883Y190148D01*
X131160Y190035D01*
X131131Y190021D01*
X131099Y190029D01*
X130721Y189968D01*
X130699Y189954D01*
X130673Y189958D01*
X130569Y189933D01*
X130378Y189887D01*
X130347Y189864D01*
X130307Y189866D01*
X130123Y189798D01*
X130077Y189756D01*
X130015Y189747D01*
X129994Y189734D01*
X129943Y189667D01*
X129865Y189635D01*
X129816Y189516D01*
X129757Y189462D01*
X129733Y189457D01*
X129712Y189382D01*
Y189454D01*
X129525Y189419D01*
X125246D01*
Y194832D01*
X129525D01*
X129712Y194798D01*
Y194870D01*
X129733Y194795D01*
X129757Y194790D01*
X129816Y194736D01*
X129865Y194617D01*
X129943Y194585D01*
X129994Y194517D01*
X130016Y194505D01*
X130077Y194496D01*
X130123Y194454D01*
X130307Y194386D01*
X130347Y194388D01*
X130378Y194365D01*
X130673Y194294D01*
X130699Y194298D01*
X130721Y194284D01*
X130764Y194278D01*
X131112Y194221D01*
X131131Y194226D01*
X131147Y194217D01*
X131271Y194204D01*
X131623Y194166D01*
X131642Y194172D01*
X131660Y194163D01*
X132889Y194103D01*
X132901Y194107D01*
X132914Y194102D01*
X133102Y194100D01*
X133104Y194101D01*
X133106Y194100D01*
X133335Y194194D01*
X133564Y194286D01*
X133564Y194287D01*
X133566Y194288D01*
X133921Y194640D01*
X133922Y194641D01*
X133924Y194642D01*
X134018Y194870D01*
X134114Y195098D01*
X134113Y195100D01*
X134114Y195101D01*
Y196201D01*
X149606D01*
X150066Y196391D01*
X150256Y196850D01*
Y197918D01*
X152685Y200347D01*
X153412Y201295D01*
X153869Y202398D01*
X154025Y203583D01*
Y222441D01*
X153869Y223625D01*
X153412Y224729D01*
X152685Y225677D01*
X151737Y226404D01*
X150633Y226861D01*
X149449Y227017D01*
X148264Y226861D01*
X147161Y226404D01*
X146213Y225677D01*
X145486Y224729D01*
X145029Y223625D01*
X144873Y222441D01*
Y205478D01*
X144768Y205374D01*
X143120D01*
X142660Y205184D01*
X142613Y205069D01*
X136915D01*
X136867Y205184D01*
X136408Y205374D01*
X134114D01*
Y216929D01*
X134019Y217157D01*
X133927Y217385D01*
X133925Y217386D01*
X133924Y217388D01*
X133696Y217483D01*
X133469Y217579D01*
X109031Y217740D01*
X108977Y217718D01*
X108920Y217731D01*
X108753Y217627D01*
X108570Y217553D01*
X108547Y217499D01*
X108498Y217468D01*
X108142Y216970D01*
X108098Y216776D01*
X108083Y216742D01*
X103928D01*
Y213480D01*
X103898Y213432D01*
X103911Y213380D01*
X103890Y213330D01*
X103928Y213240D01*
Y213151D01*
X103923Y213143D01*
X103868Y213064D01*
X103657Y212814D01*
X103516Y212668D01*
X103023Y212752D01*
X102962Y212779D01*
Y218317D01*
X96250D01*
Y212589D01*
X97920D01*
X97966Y212557D01*
X97975Y212548D01*
X98176Y212089D01*
X97929Y211719D01*
X97839Y211270D01*
X97735Y211185D01*
X97316Y211042D01*
X97121Y211172D01*
X96734Y211249D01*
X95892D01*
X94942Y212199D01*
X94695Y212589D01*
X94695D01*
X94695Y212589D01*
Y218317D01*
X87983D01*
Y212589D01*
X91309D01*
X91360Y212564D01*
X91436Y212561D01*
X91482Y212553D01*
X91532Y212541D01*
X91588Y212520D01*
X91650Y212492D01*
X91718Y212453D01*
X91793Y212404D01*
X91874Y212343D01*
X91959Y212270D01*
X92060Y212174D01*
X92128Y212147D01*
X94756Y209520D01*
X94909Y209418D01*
X94890Y209152D01*
X94803Y208887D01*
X94770Y208873D01*
X94340Y208787D01*
X93882Y208481D01*
X92565Y207164D01*
X92259Y206705D01*
X92175Y206282D01*
X92129Y206178D01*
X92126Y206054D01*
X90443D01*
X90399Y206072D01*
X89674Y206076D01*
X87913Y206137D01*
X87361Y206190D01*
X87306Y206205D01*
X87217Y206242D01*
X87214Y206244D01*
Y206702D01*
X86693D01*
X86602Y206740D01*
X86554Y206720D01*
X86502Y206732D01*
X86454Y206702D01*
X86000D01*
X85424Y206941D01*
X84754Y207029D01*
X55302D01*
X55241Y207056D01*
X54513Y207076D01*
X53889Y207131D01*
X53355Y207220D01*
X52913Y207339D01*
X52566Y207481D01*
X52311Y207636D01*
X52140Y207796D01*
X52030Y207960D01*
X51964Y208146D01*
X51933Y208444D01*
X51899Y208506D01*
Y209812D01*
X50264D01*
X50259Y209873D01*
X50256Y210005D01*
X50226Y210071D01*
Y215283D01*
X50256Y215350D01*
X50259Y215482D01*
X50264Y215542D01*
X51781D01*
Y220679D01*
X46644D01*
Y215542D01*
X48161D01*
X48166Y215482D01*
X48170Y215350D01*
X48199Y215283D01*
Y210071D01*
X48170Y210005D01*
X48166Y209873D01*
X48161Y209812D01*
X46211D01*
Y200620D01*
X51134D01*
X51180Y200592D01*
X51235Y200605D01*
X51287Y200583D01*
X51378Y200620D01*
X51899D01*
Y201079D01*
X51928Y201125D01*
X51948Y201249D01*
X51963Y201274D01*
X52033Y201340D01*
X52199Y201437D01*
X52469Y201541D01*
X52840Y201636D01*
X53228Y201702D01*
X53460Y201642D01*
X53749Y201392D01*
X53874Y199508D01*
X53878Y198793D01*
X53896Y198749D01*
Y197639D01*
X53834Y197545D01*
X53696Y196850D01*
X53834Y196155D01*
X54004Y195901D01*
X53737Y195401D01*
X51651D01*
X51584Y195431D01*
Y196368D01*
X46054D01*
Y192609D01*
Y188868D01*
Y185128D01*
X49988D01*
X50036Y185099D01*
X50088Y185111D01*
X50137Y185091D01*
X50216Y185123D01*
X50238Y185108D01*
X50415Y184958D01*
X50521Y184855D01*
X50595Y184826D01*
X52504Y182917D01*
X52800Y182720D01*
X53150Y182650D01*
X58238D01*
X58476Y182150D01*
X58433Y182096D01*
X57274D01*
Y176959D01*
X62411D01*
Y182096D01*
X61252D01*
X61209Y182150D01*
X61448Y182650D01*
X63484D01*
X63834Y182720D01*
X64130Y182917D01*
X67575Y186362D01*
X67773Y186659D01*
X67842Y187008D01*
Y193323D01*
X72140Y197620D01*
X85507D01*
X85716Y197228D01*
X85718Y197120D01*
X85586Y196457D01*
X85719Y195787D01*
X85717Y195751D01*
X85436Y195293D01*
X83836D01*
X83769Y195323D01*
Y196761D01*
X79223D01*
Y192215D01*
X83769D01*
Y193438D01*
X83836Y193467D01*
X84785D01*
X84814Y193448D01*
X84914Y192958D01*
Y191111D01*
X84414Y190960D01*
X84355Y191048D01*
X83766Y191442D01*
X83071Y191580D01*
X82376Y191442D01*
X81787Y191048D01*
X81393Y190459D01*
X81266Y189821D01*
X81240Y189761D01*
X81239Y189633D01*
X81232Y189532D01*
X81221Y189443D01*
X81206Y189366D01*
X81188Y189301D01*
X81169Y189247D01*
X81150Y189204D01*
X81130Y189170D01*
X81111Y189144D01*
X81069Y189096D01*
X81045Y189029D01*
X78882Y186866D01*
X78684Y186570D01*
X78615Y186221D01*
Y185805D01*
X78585Y185738D01*
X77254D01*
Y184407D01*
X77188Y184377D01*
X76378D01*
X76029Y184308D01*
X75732Y184110D01*
X74551Y182929D01*
X74353Y182633D01*
X74284Y182283D01*
Y174216D01*
X73784Y173949D01*
X73530Y174119D01*
X72835Y174257D01*
X72140Y174119D01*
X71606Y173762D01*
X71543Y173738D01*
X71473Y173671D01*
X71420Y173627D01*
X71369Y173591D01*
X71320Y173561D01*
X71271Y173537D01*
X71223Y173519D01*
X71174Y173504D01*
X71124Y173493D01*
X71070Y173487D01*
X70987Y173484D01*
X70923Y173454D01*
X37402D01*
X37014Y173377D01*
X36685Y173157D01*
X33929Y170402D01*
X33710Y170073D01*
X33632Y169685D01*
Y132283D01*
X33710Y131896D01*
X33929Y131567D01*
X37473Y128024D01*
X37801Y127804D01*
X38189Y127727D01*
X60210D01*
X63554Y124383D01*
Y98845D01*
X54402Y89693D01*
X54182Y89364D01*
X54105Y88976D01*
Y87592D01*
X54075Y87522D01*
X54072Y87173D01*
X54049Y86578D01*
X54004Y86121D01*
X53978Y85961D01*
X53950Y85839D01*
X53926Y85767D01*
X53921Y85756D01*
X53903Y85732D01*
X53895Y85702D01*
X53893Y85698D01*
X53893Y85693D01*
X53881Y85645D01*
X53626Y85264D01*
X53503Y84646D01*
X53626Y84027D01*
X53881Y83646D01*
X53893Y83598D01*
X53893Y83594D01*
X53895Y83590D01*
X53903Y83559D01*
X53921Y83535D01*
X53926Y83524D01*
X53950Y83453D01*
X53978Y83331D01*
X54003Y83181D01*
X54072Y82110D01*
X54075Y81770D01*
X54105Y81699D01*
Y66706D01*
X54075Y66639D01*
X54072Y66506D01*
X54066Y66447D01*
X52845D01*
Y61900D01*
X57391D01*
Y66447D01*
X56170D01*
X56164Y66506D01*
X56161Y66639D01*
X56131Y66706D01*
Y81699D01*
X56161Y81770D01*
X56164Y82119D01*
X56187Y82713D01*
X56199Y82837D01*
X56249Y82861D01*
X56390Y82908D01*
X56588Y82950D01*
X56837Y82983D01*
X57136Y83005D01*
X57494Y83012D01*
X57536Y83030D01*
X86733D01*
X90117Y79646D01*
Y68837D01*
X90111Y68828D01*
X90117Y68799D01*
Y68772D01*
X90100Y68735D01*
X90082Y68401D01*
X90038Y68152D01*
X89973Y67955D01*
X89891Y67804D01*
X89794Y67686D01*
X89676Y67589D01*
X89525Y67508D01*
X89328Y67442D01*
X89080Y67398D01*
X88745Y67381D01*
X88709Y67363D01*
X86460D01*
X86419Y67382D01*
X86061Y67389D01*
X85761Y67410D01*
X85511Y67443D01*
X85313Y67485D01*
X85171Y67531D01*
X85087Y67571D01*
X85083Y67574D01*
X85080Y67594D01*
X85049Y67648D01*
Y68120D01*
X84568D01*
X84506Y68154D01*
X84398Y68165D01*
X84382Y68170D01*
X84368Y68180D01*
X84337Y68214D01*
X84290Y68291D01*
X84237Y68422D01*
X84188Y68609D01*
X84148Y68849D01*
X84123Y69139D01*
X84114Y69493D01*
X84096Y69534D01*
Y69833D01*
X84114Y69873D01*
X84136Y70560D01*
X84161Y70815D01*
X84195Y71027D01*
X84232Y71184D01*
X84256Y71250D01*
X84655D01*
Y71772D01*
X84693Y71862D01*
X84670Y71918D01*
X84682Y71977D01*
X84655Y72019D01*
Y74813D01*
X80305D01*
Y72019D01*
X80278Y71977D01*
X80291Y71918D01*
X80268Y71862D01*
X80305Y71772D01*
Y71250D01*
X80704D01*
X80728Y71184D01*
X80766Y71027D01*
X80798Y70823D01*
X80841Y70239D01*
X80847Y69884D01*
X80865Y69841D01*
Y69534D01*
X80847Y69493D01*
X80838Y69139D01*
X80812Y68849D01*
X80773Y68609D01*
X80723Y68422D01*
X80670Y68291D01*
X80624Y68214D01*
X80593Y68180D01*
X80578Y68170D01*
X80563Y68165D01*
X80455Y68154D01*
X80393Y68120D01*
X79912D01*
Y67598D01*
X79874Y67508D01*
X79888Y67474D01*
X79878Y67439D01*
X79680Y66970D01*
X79653Y66958D01*
X77541D01*
X77474Y66988D01*
X77342Y66991D01*
X77294Y66995D01*
Y68455D01*
X77213Y68862D01*
X76982Y69207D01*
X76637Y69437D01*
X76230Y69518D01*
X75345D01*
X74938Y69437D01*
X74904Y69415D01*
X74778Y69363D01*
X74691Y69345D01*
X74274Y69588D01*
X74271Y69699D01*
X74242Y69766D01*
Y71779D01*
X74271Y71846D01*
X74275Y71978D01*
X74280Y72038D01*
X75797D01*
Y73648D01*
X75814Y73677D01*
X75802Y73729D01*
X75822Y73779D01*
X75797Y73840D01*
Y74592D01*
X75896Y74764D01*
X76086Y75036D01*
X76668Y75722D01*
X77044Y76112D01*
X77061Y76154D01*
X77834Y76928D01*
X78899D01*
X78942Y76910D01*
X79638Y76902D01*
X80305Y76869D01*
Y76762D01*
X80741Y76749D01*
X80833Y76760D01*
X80918Y76725D01*
X81008Y76762D01*
X84655D01*
Y80324D01*
X81008D01*
X80918Y80362D01*
X80833Y80327D01*
X80741Y80338D01*
X80305Y80324D01*
Y80242D01*
X79301Y80179D01*
X78946Y80177D01*
X78902Y80159D01*
X77165D01*
X76547Y80036D01*
X76023Y79685D01*
X74783Y78446D01*
X74743Y78430D01*
X73979Y77720D01*
X73665Y77469D01*
X73386Y77274D01*
X73214Y77175D01*
X72462D01*
X72401Y77200D01*
X72351Y77180D01*
X72299Y77192D01*
X72270Y77175D01*
X71053D01*
Y72038D01*
X72177D01*
X72182Y71978D01*
X72185Y71846D01*
X72215Y71779D01*
Y69766D01*
X72185Y69699D01*
X72182Y69588D01*
X72175Y69508D01*
X72165Y69442D01*
X72152Y69391D01*
X72140Y69353D01*
X72129Y69329D01*
X72120Y69315D01*
X72116Y69309D01*
X72114Y69307D01*
X72080Y69281D01*
X72057Y69242D01*
X72016Y69225D01*
X71967Y69106D01*
X71803Y68862D01*
X71722Y68455D01*
Y63435D01*
X71803Y63028D01*
X72034Y62683D01*
X72378Y62453D01*
X72785Y62372D01*
X73671D01*
X74078Y62453D01*
X74125Y62484D01*
X74508Y62647D01*
X74891Y62484D01*
X74938Y62453D01*
X75345Y62372D01*
X76230D01*
X76637Y62453D01*
X76982Y62683D01*
X77213Y63028D01*
X77294Y63435D01*
Y64894D01*
X77342Y64899D01*
X77474Y64902D01*
X77541Y64932D01*
X79653D01*
X79720Y64902D01*
X79852Y64899D01*
X79912Y64893D01*
Y63376D01*
X84296D01*
X84351Y63345D01*
X84395Y63356D01*
X84437Y63339D01*
X84527Y63376D01*
X85049D01*
Y63848D01*
X85080Y63902D01*
X85083Y63922D01*
X85087Y63925D01*
X85171Y63965D01*
X85313Y64011D01*
X85501Y64051D01*
X86070Y64107D01*
X86419Y64114D01*
X86460Y64133D01*
X88709D01*
X88745Y64115D01*
X89080Y64098D01*
X89328Y64054D01*
X89525Y63988D01*
X89676Y63907D01*
X89794Y63810D01*
X89891Y63692D01*
X89973Y63541D01*
X90038Y63344D01*
X90082Y63095D01*
X90100Y62761D01*
X90117Y62725D01*
Y62697D01*
X90111Y62668D01*
X90117Y62659D01*
Y59055D01*
X90240Y58437D01*
X90590Y57913D01*
X92952Y55551D01*
X93476Y55201D01*
X94095Y55078D01*
X192638D01*
X204684Y43032D01*
Y27166D01*
X204622Y27073D01*
X204483Y26378D01*
X204615Y25714D01*
X204614Y25607D01*
X204404Y25214D01*
X163278D01*
X162929Y25145D01*
X162633Y24947D01*
X159661Y21976D01*
X151749D01*
X151683Y22005D01*
Y23336D01*
X147136D01*
Y18790D01*
X151683D01*
Y20121D01*
X151749Y20150D01*
X160039D01*
X160389Y20220D01*
X160685Y20417D01*
X163656Y23389D01*
X222333D01*
X222682Y23458D01*
X222978Y23656D01*
X224268Y24945D01*
X224465Y25241D01*
X224535Y25591D01*
Y30315D01*
X224465Y30664D01*
X224268Y30960D01*
X216661Y38567D01*
Y40744D01*
X217161Y41012D01*
X217415Y40842D01*
X218110Y40704D01*
X218439Y40769D01*
X218566Y40747D01*
X218643Y40765D01*
X218682Y40769D01*
X218714Y40770D01*
X218740Y40768D01*
X218763Y40763D01*
X218787Y40755D01*
X218813Y40743D01*
X218843Y40725D01*
X218878Y40698D01*
X218939Y40642D01*
X219009Y40616D01*
X219015Y40613D01*
X219061Y40554D01*
X219112Y40548D01*
X219329Y40402D01*
X219717Y40325D01*
X221637D01*
X221810Y40116D01*
X221894Y39878D01*
X221902Y39794D01*
X221818Y39370D01*
X221910Y38906D01*
X222012Y38753D01*
X222132Y38386D01*
X222012Y38018D01*
X221910Y37866D01*
X221818Y37402D01*
X221910Y36937D01*
X222173Y36543D01*
Y36291D01*
X221910Y35898D01*
X221818Y35433D01*
X221910Y34969D01*
X222173Y34575D01*
X222567Y34312D01*
X223031Y34219D01*
X224654D01*
X224678Y34165D01*
Y31496D01*
X224747Y31147D01*
X224945Y30851D01*
X225732Y30063D01*
X226029Y29865D01*
X226378Y29796D01*
X230633D01*
X230699Y29766D01*
Y28140D01*
X234240D01*
X234288Y28111D01*
X234340Y28123D01*
X234389Y28103D01*
X234468Y28135D01*
X234490Y28120D01*
X234667Y27970D01*
X234773Y27867D01*
X234847Y27838D01*
X236381Y26305D01*
Y25288D01*
X236350Y25223D01*
X236347Y25160D01*
X236341Y25128D01*
X236331Y25090D01*
X236315Y25046D01*
X236290Y24994D01*
X236256Y24936D01*
X236218Y24879D01*
X236084Y24717D01*
X236001Y24632D01*
X235977Y24571D01*
X235616Y24031D01*
X235478Y23336D01*
X235616Y22641D01*
X235813Y22346D01*
X235545Y21847D01*
X164241D01*
X163891Y21777D01*
X163595Y21579D01*
X153165Y11149D01*
X132662D01*
X131622Y12189D01*
Y20079D01*
X131552Y20428D01*
X131354Y20724D01*
X130173Y21905D01*
X129877Y22103D01*
X129528Y22173D01*
X122222D01*
X122155Y22202D01*
Y23533D01*
X117609D01*
Y22202D01*
X117542Y22173D01*
X116316D01*
X116250Y22202D01*
Y23533D01*
X111703D01*
Y18987D01*
X116250D01*
Y20317D01*
X116316Y20347D01*
X117542D01*
X117609Y20317D01*
Y18987D01*
X122155D01*
Y20317D01*
X122222Y20347D01*
X124400D01*
Y17916D01*
X124375Y17853D01*
X124397Y17800D01*
X124385Y17744D01*
X124400Y17720D01*
Y17664D01*
X124368Y17618D01*
X124141Y17353D01*
X123989Y17196D01*
X123961Y17126D01*
X123005Y16171D01*
X122414D01*
X122347Y16200D01*
X122215Y16204D01*
X122155Y16209D01*
Y17431D01*
X117609D01*
Y12884D01*
X122155D01*
Y14106D01*
X122215Y14111D01*
X122347Y14115D01*
X122414Y14144D01*
X123425D01*
X123813Y14221D01*
X124142Y14441D01*
X125584Y15883D01*
X125650Y15908D01*
X125931Y16168D01*
X126030Y16248D01*
X126116Y16307D01*
X126154Y16329D01*
X126367D01*
X126437Y16314D01*
X126461Y16329D01*
X129143D01*
Y19213D01*
X129643Y19478D01*
X129796Y19375D01*
Y11811D01*
X129865Y11462D01*
X130063Y11166D01*
X131638Y9591D01*
X131934Y9393D01*
X132283Y9323D01*
X153543D01*
X153893Y9393D01*
X154189Y9591D01*
X164619Y20021D01*
X251642D01*
X251992Y20090D01*
X252288Y20288D01*
X254297Y22297D01*
X254495Y22593D01*
X254564Y22942D01*
Y37294D01*
X254495Y37643D01*
X254297Y37939D01*
X253933Y38303D01*
X254098Y38845D01*
X254238Y38873D01*
X254827Y39267D01*
X255221Y39856D01*
X255359Y40551D01*
X255221Y41246D01*
X254827Y41835D01*
X254238Y42229D01*
X253601Y42356D01*
X253541Y42382D01*
X253413Y42383D01*
X253312Y42390D01*
X253222Y42401D01*
X253145Y42416D01*
X253080Y42434D01*
X253026Y42453D01*
X252983Y42472D01*
X252950Y42492D01*
X252923Y42511D01*
X252876Y42553D01*
X252808Y42577D01*
X250125Y45260D01*
Y96063D01*
X250056Y96412D01*
X249858Y96708D01*
X247004Y99563D01*
X246708Y99761D01*
X246358Y99830D01*
X195260D01*
X185652Y109439D01*
X185625Y109510D01*
X185421Y109729D01*
X185364Y109799D01*
X185344Y109828D01*
Y109841D01*
X185370Y109902D01*
X185348Y109953D01*
X185361Y110007D01*
X185344Y110035D01*
Y113002D01*
X184210D01*
X184180Y113068D01*
Y114294D01*
X184210Y114361D01*
X185541D01*
Y118907D01*
X180994D01*
Y114361D01*
X182325D01*
X182355Y114294D01*
Y113068D01*
X182325Y113002D01*
X180798D01*
Y108455D01*
X183765D01*
X183792Y108438D01*
X183846Y108451D01*
X183897Y108430D01*
X183958Y108455D01*
X183972D01*
X183993Y108440D01*
X184173Y108286D01*
X184281Y108183D01*
X184355Y108153D01*
X194236Y98272D01*
X194533Y98074D01*
X194882Y98005D01*
X245980D01*
X248300Y95685D01*
Y44882D01*
X248369Y44533D01*
X248567Y44236D01*
X251518Y41286D01*
X251541Y41219D01*
X251584Y41171D01*
X251603Y41145D01*
X251622Y41111D01*
X251642Y41068D01*
X251661Y41014D01*
X251678Y40949D01*
X251691Y40882D01*
X251702Y40767D01*
X251683Y40695D01*
X251577Y40536D01*
X251385Y40343D01*
X251344Y40316D01*
X251271Y40283D01*
X249682D01*
X249616Y40312D01*
Y41742D01*
X244479D01*
Y40312D01*
X244412Y40283D01*
X229477D01*
X229250Y40598D01*
X229240Y40641D01*
X229232Y40815D01*
X229271Y40874D01*
X229363Y41339D01*
X229271Y41803D01*
X229008Y42197D01*
Y42449D01*
X229271Y42843D01*
X229363Y43307D01*
X229271Y43772D01*
X229008Y44165D01*
Y44417D01*
X229271Y44811D01*
X229363Y45276D01*
X229271Y45740D01*
X229008Y46134D01*
Y46386D01*
X229271Y46780D01*
X229363Y47244D01*
X229271Y47709D01*
X229008Y48102D01*
Y48354D01*
X229271Y48748D01*
X229363Y49213D01*
X229271Y49677D01*
X229008Y50071D01*
Y50323D01*
X229271Y50717D01*
X229363Y51181D01*
X229271Y51646D01*
X229008Y52039D01*
Y52291D01*
X229271Y52685D01*
X229363Y53150D01*
X229271Y53614D01*
X229008Y54008D01*
Y54260D01*
X229271Y54654D01*
X229363Y55118D01*
X229271Y55583D01*
X229169Y55735D01*
X229049Y56102D01*
X229169Y56470D01*
X229271Y56622D01*
X229363Y57087D01*
X229271Y57551D01*
X229169Y57703D01*
X229049Y58071D01*
X229169Y58438D01*
X229271Y58591D01*
X229363Y59055D01*
X229271Y59520D01*
X229008Y59913D01*
Y60165D01*
X229271Y60559D01*
X229363Y61024D01*
X229271Y61488D01*
X229008Y61882D01*
Y62134D01*
X229271Y62528D01*
X229363Y62992D01*
X229271Y63457D01*
X229008Y63850D01*
Y64102D01*
X229271Y64496D01*
X229363Y64961D01*
X229271Y65425D01*
X229008Y65819D01*
Y66071D01*
X229271Y66465D01*
X229363Y66929D01*
X229271Y67394D01*
X229008Y67787D01*
Y68039D01*
X229271Y68433D01*
X229363Y68898D01*
X229271Y69362D01*
X229169Y69514D01*
X229049Y69882D01*
X229169Y70249D01*
X229271Y70402D01*
X229363Y70866D01*
X229271Y71331D01*
X229169Y71483D01*
X229049Y71850D01*
X229169Y72218D01*
X229271Y72370D01*
X229363Y72835D01*
X229271Y73299D01*
X229008Y73693D01*
Y73945D01*
X229271Y74339D01*
X229363Y74803D01*
X229271Y75268D01*
X229008Y75661D01*
X228614Y75924D01*
X228150Y76017D01*
X223031D01*
X222567Y75924D01*
X222173Y75661D01*
X221910Y75268D01*
X221818Y74803D01*
X221910Y74339D01*
X222173Y73945D01*
Y73693D01*
X221910Y73299D01*
X221818Y72835D01*
X221910Y72370D01*
X222012Y72218D01*
X222132Y71850D01*
X222012Y71483D01*
X221910Y71331D01*
X221818Y70866D01*
X221910Y70402D01*
X222012Y70249D01*
X222132Y69882D01*
X222012Y69514D01*
X221910Y69362D01*
X221818Y68898D01*
X221910Y68433D01*
X222173Y68039D01*
Y67787D01*
X221910Y67394D01*
X221818Y66929D01*
X221910Y66465D01*
X222173Y66071D01*
Y65819D01*
X221910Y65425D01*
X221818Y64961D01*
X221910Y64496D01*
X222173Y64102D01*
Y63850D01*
X221910Y63457D01*
X221818Y62992D01*
X221910Y62528D01*
X222173Y62134D01*
Y61882D01*
X221910Y61488D01*
X221818Y61024D01*
X221910Y60559D01*
X221949Y60500D01*
X221941Y60325D01*
X221931Y60285D01*
X221704Y59968D01*
X220456D01*
X220392Y59999D01*
X220328Y60002D01*
X220296Y60008D01*
X220259Y60018D01*
X220214Y60034D01*
X220163Y60059D01*
X220104Y60093D01*
X220047Y60131D01*
X219886Y60265D01*
X219801Y60348D01*
X219740Y60372D01*
X219199Y60733D01*
X218504Y60871D01*
X217809Y60733D01*
X217220Y60339D01*
X216827Y59750D01*
X216688Y59055D01*
X216827Y58360D01*
X217007Y58090D01*
X217021Y57607D01*
X216862Y57476D01*
X216432Y57190D01*
X216039Y56600D01*
X215901Y55905D01*
X216039Y55211D01*
X216432Y54621D01*
X217022Y54228D01*
X217717Y54089D01*
X217957Y54137D01*
X218310Y53784D01*
X218262Y53543D01*
X218401Y52848D01*
X218523Y52665D01*
X218256Y52165D01*
X216606D01*
X216257Y52095D01*
X215961Y51897D01*
X215624Y51561D01*
X215227Y51625D01*
X215059Y51703D01*
X214835Y52039D01*
Y52291D01*
X215098Y52685D01*
X215190Y53150D01*
X215098Y53614D01*
X214835Y54008D01*
Y54260D01*
X215098Y54654D01*
X215190Y55118D01*
X215098Y55583D01*
X214835Y55976D01*
Y56228D01*
X215098Y56622D01*
X215190Y57087D01*
X215098Y57551D01*
X214835Y57945D01*
Y58197D01*
X215098Y58591D01*
X215190Y59055D01*
X215098Y59520D01*
X214996Y59672D01*
X214876Y60039D01*
X214996Y60407D01*
X215098Y60559D01*
X215190Y61024D01*
X215098Y61488D01*
X214835Y61882D01*
Y62134D01*
X215098Y62528D01*
X215190Y62992D01*
X215098Y63457D01*
X214835Y63850D01*
Y64102D01*
X215098Y64496D01*
X215190Y64961D01*
X215098Y65425D01*
X214835Y65819D01*
Y66071D01*
X215098Y66465D01*
X215190Y66929D01*
X215098Y67394D01*
X214835Y67787D01*
Y68039D01*
X215098Y68433D01*
X215190Y68898D01*
X215098Y69362D01*
X214835Y69756D01*
Y70008D01*
X215098Y70402D01*
X215190Y70866D01*
X215098Y71331D01*
X214996Y71483D01*
X214905Y71762D01*
X215158Y72137D01*
X215197Y72185D01*
X216929D01*
X217388Y72375D01*
X217579Y72835D01*
Y87008D01*
X217545Y87089D01*
X217879Y87589D01*
X222647D01*
Y91939D01*
X214361D01*
Y88565D01*
X213861Y88346D01*
X213370Y88674D01*
X212598Y88828D01*
X211827Y88674D01*
X211172Y88237D01*
X210735Y87583D01*
X210484Y87654D01*
X210462Y87647D01*
X210420Y87657D01*
X201181D01*
X200722Y87467D01*
X200532Y87008D01*
Y86860D01*
X185360D01*
X161110Y111110D01*
X160162Y111837D01*
X159058Y112294D01*
X157874Y112450D01*
X134573D01*
X130167Y116856D01*
Y136811D01*
X131890D01*
D01*
X132815D01*
X133270Y136721D01*
X133301Y136647D01*
X133760Y136457D01*
X150680D01*
X151139Y136647D01*
X151145Y136663D01*
X154912D01*
X155371Y136853D01*
X155553Y137294D01*
X157045D01*
X157227Y136853D01*
X157687Y136663D01*
X159360D01*
X159387Y136675D01*
X159416Y136666D01*
X159899Y136707D01*
X160096Y136810D01*
X160302Y136895D01*
X160313Y136923D01*
X160340Y136936D01*
X160407Y137149D01*
X160492Y137354D01*
Y155807D01*
X160826Y156307D01*
X204724D01*
Y134854D01*
X204724Y134843D01*
X204697Y134354D01*
X171268Y134273D01*
X171039Y134177D01*
X170810Y134082D01*
X170810Y134081D01*
X170809Y134081D01*
X170714Y133851D01*
X170697Y133809D01*
X166498D01*
X166237Y134070D01*
X166237Y134070D01*
X166236Y134070D01*
X166004Y134166D01*
X165778Y134259D01*
X165777Y134259D01*
X165777Y134259D01*
X159358Y134244D01*
X159129Y134148D01*
X158968Y134081D01*
X158901Y134053D01*
X158900Y134053D01*
X158899Y134052D01*
X158805Y133822D01*
X158710Y133594D01*
Y132431D01*
X157687D01*
X157227Y132241D01*
X157045Y131801D01*
X154912D01*
Y128632D01*
X155357D01*
X155386Y128566D01*
Y125098D01*
X155456Y124749D01*
X155654Y124453D01*
X157327Y122780D01*
X157569Y122618D01*
Y122047D01*
Y121152D01*
X160519D01*
X160567Y121123D01*
X160619Y121135D01*
X160669Y121115D01*
X160747Y121147D01*
X160769Y121131D01*
X160947Y120981D01*
X161053Y120879D01*
X161127Y120850D01*
X163475Y118502D01*
Y114951D01*
X168021D01*
Y119498D01*
X165046D01*
X165016Y119543D01*
X164312Y120247D01*
X164503Y120709D01*
X176252D01*
Y118974D01*
X176223Y118907D01*
X174892D01*
Y114361D01*
X179439D01*
Y118907D01*
X178108D01*
X178078Y118974D01*
Y120709D01*
X287059Y120709D01*
Y20171D01*
X286996Y20078D01*
X286858Y19383D01*
X286996Y18688D01*
X287390Y18099D01*
X287615Y17948D01*
X287463Y17448D01*
X238959D01*
X238895Y17479D01*
X238831Y17483D01*
X238799Y17488D01*
X238762Y17498D01*
X238718Y17514D01*
X238666Y17539D01*
X238607Y17573D01*
X238550Y17611D01*
X238389Y17745D01*
X238304Y17828D01*
X238243Y17852D01*
X237702Y18213D01*
X237007Y18351D01*
X236312Y18213D01*
X235723Y17819D01*
X235330Y17230D01*
X235191Y16535D01*
X235321Y15885D01*
X235303Y15758D01*
X235103Y15385D01*
X224301D01*
X222172Y17514D01*
X222150Y17624D01*
X221757Y18213D01*
X221167Y18607D01*
X220472Y18745D01*
X219777Y18607D01*
X219188Y18213D01*
X218795Y17624D01*
X218656Y16929D01*
X218795Y16234D01*
X219188Y15645D01*
X219777Y15251D01*
X219888Y15229D01*
X222489Y12628D01*
X223013Y12278D01*
X223632Y12155D01*
X288172D01*
X288674Y12055D01*
X289369Y12193D01*
X289958Y12587D01*
X290352Y13176D01*
X290490Y13871D01*
X290352Y14566D01*
X289980Y15123D01*
X290017Y15293D01*
X290158Y15623D01*
X307874D01*
X308223Y15692D01*
X308520Y15890D01*
X332552Y39923D01*
X333014Y39732D01*
Y1631D01*
X99575Y1631D01*
X99075Y1631D01*
Y14144D01*
X111444D01*
X111511Y14115D01*
X111643Y14111D01*
X111703Y14106D01*
Y12884D01*
X116250D01*
Y17431D01*
X111703D01*
Y16209D01*
X111643Y16204D01*
X111511Y16200D01*
X111444Y16171D01*
X99075D01*
Y31496D01*
X98884Y31955D01*
X98425Y32146D01*
X78740D01*
X78281Y31955D01*
X78091Y31496D01*
Y29734D01*
X75089D01*
Y24740D01*
X74589Y24678D01*
X74242Y25026D01*
Y39289D01*
X74271Y39356D01*
X74274Y39467D01*
X74281Y39547D01*
X74292Y39613D01*
X74304Y39664D01*
X74317Y39702D01*
X74328Y39726D01*
X74336Y39740D01*
X74341Y39746D01*
X74343Y39748D01*
X74377Y39774D01*
X74400Y39813D01*
X74441Y39830D01*
X74490Y39949D01*
X74654Y40194D01*
X74735Y40600D01*
Y45620D01*
X74654Y46027D01*
X74423Y46372D01*
X74078Y46602D01*
X73671Y46683D01*
X72785D01*
X72378Y46602D01*
X72332Y46571D01*
X71949Y46408D01*
X71566Y46571D01*
X71519Y46602D01*
X71112Y46683D01*
X70226D01*
X70096Y46657D01*
X69596Y46663D01*
X69596Y46663D01*
X69596Y46663D01*
X66624D01*
Y39557D01*
X69596D01*
X69656Y39082D01*
Y30127D01*
X69399Y29734D01*
X60534D01*
X60513Y29750D01*
X60427Y29738D01*
X60347Y29771D01*
X60256Y29734D01*
X59735D01*
Y29309D01*
X59719Y29288D01*
X59680Y29141D01*
X59613Y29066D01*
X59357Y28914D01*
X58897Y28744D01*
X58249Y28587D01*
X57438Y28455D01*
X53944Y28224D01*
X52466Y28209D01*
X52442Y28198D01*
X37141D01*
X37117Y28209D01*
X29567Y28239D01*
X29366Y28245D01*
X29313Y28251D01*
X29276Y28241D01*
X29240Y28256D01*
X29150Y28218D01*
X24164D01*
Y27158D01*
X23772Y26858D01*
X23045Y25910D01*
X22588Y24806D01*
X22432Y23622D01*
X22588Y22438D01*
X23045Y21334D01*
X23772Y20386D01*
X24164Y20086D01*
Y19026D01*
X29150D01*
X29240Y18989D01*
X29242Y18989D01*
X29244Y18989D01*
X37118Y19036D01*
X37142Y19046D01*
X52442D01*
X52466Y19036D01*
X53949Y19020D01*
X56438Y18897D01*
X57425Y18791D01*
X58249Y18657D01*
X58897Y18500D01*
X59357Y18331D01*
X59613Y18178D01*
X59680Y18103D01*
X59719Y17956D01*
X59735Y17935D01*
Y17510D01*
X60256D01*
X60347Y17473D01*
X60427Y17506D01*
X60513Y17494D01*
X60534Y17510D01*
X69399D01*
Y21399D01*
X69442Y21436D01*
X69452Y21456D01*
X69473Y21464D01*
X69824Y21809D01*
X69832Y21827D01*
X69849Y21835D01*
X70115Y22127D01*
X70126Y22157D01*
X70153Y22173D01*
X70334Y22412D01*
X70349Y22469D01*
X70393Y22507D01*
X70489Y22693D01*
X70499Y22824D01*
X70559Y22941D01*
X70569Y23073D01*
X71386Y23890D01*
X71605Y24219D01*
X71683Y24606D01*
Y38699D01*
X72183Y38902D01*
X72215Y38868D01*
Y24606D01*
X72292Y24219D01*
X72512Y23890D01*
X73496Y22906D01*
X73825Y22686D01*
X74213Y22609D01*
X74830D01*
X74897Y22579D01*
X75029Y22576D01*
X75089Y22570D01*
Y17510D01*
X78091D01*
Y1631D01*
X77591Y1631D01*
X1631D01*
X1631Y234589D01*
X333014Y234589D01*
Y231135D01*
D02*
G37*
G36*
X246382Y224902D02*
X246376Y224958D01*
X246358Y225008D01*
X246328Y225052D01*
X246286Y225091D01*
X246232Y225123D01*
X246165Y225150D01*
X246087Y225170D01*
X245997Y225185D01*
X245894Y225194D01*
X245780Y225197D01*
Y225787D01*
X245894Y225790D01*
X245997Y225799D01*
X246087Y225814D01*
X246165Y225835D01*
X246232Y225861D01*
X246286Y225894D01*
X246328Y225932D01*
X246358Y225976D01*
X246376Y226027D01*
X246382Y226083D01*
Y224902D01*
D02*
G37*
G36*
X256576Y220023D02*
X256595Y219972D01*
X256625Y219928D01*
X256667Y219890D01*
X256721Y219857D01*
X256787Y219831D01*
X256866Y219810D01*
X256956Y219795D01*
X257059Y219786D01*
X257173Y219783D01*
Y219193D01*
X257059Y219190D01*
X256956Y219181D01*
X256866Y219166D01*
X256787Y219146D01*
X256721Y219119D01*
X256667Y219087D01*
X256625Y219048D01*
X256595Y219004D01*
X256576Y218954D01*
X256571Y218898D01*
Y220079D01*
X256576Y220023D01*
D02*
G37*
G36*
X253272Y218799D02*
X253266Y218855D01*
X253248Y218905D01*
X253218Y218950D01*
X253176Y218988D01*
X253121Y219021D01*
X253055Y219047D01*
X252977Y219068D01*
X252886Y219083D01*
X252784Y219092D01*
X252670Y219094D01*
Y219685D01*
X252784Y219688D01*
X252886Y219697D01*
X252977Y219712D01*
X253055Y219732D01*
X253121Y219759D01*
X253176Y219791D01*
X253218Y219830D01*
X253248Y219874D01*
X253266Y219924D01*
X253272Y219980D01*
Y218799D01*
D02*
G37*
G36*
X249687Y219924D02*
X249705Y219874D01*
X249735Y219830D01*
X249777Y219791D01*
X249831Y219759D01*
X249898Y219732D01*
X249976Y219712D01*
X250066Y219697D01*
X250169Y219688D01*
X250283Y219685D01*
Y219094D01*
X250169Y219092D01*
X250066Y219083D01*
X249976Y219068D01*
X249898Y219047D01*
X249831Y219021D01*
X249777Y218988D01*
X249735Y218950D01*
X249705Y218905D01*
X249687Y218855D01*
X249681Y218799D01*
Y219980D01*
X249687Y219924D01*
D02*
G37*
G36*
X269235Y217735D02*
X269185Y217716D01*
X269141Y217686D01*
X269102Y217644D01*
X269070Y217590D01*
X269043Y217524D01*
X269023Y217445D01*
X269008Y217355D01*
X268999Y217252D01*
X268996Y217138D01*
X268406D01*
X268403Y217252D01*
X268394Y217355D01*
X268379Y217445D01*
X268358Y217524D01*
X268332Y217590D01*
X268299Y217644D01*
X268261Y217686D01*
X268216Y217716D01*
X268166Y217735D01*
X268110Y217741D01*
X269291D01*
X269235Y217735D01*
D02*
G37*
G36*
X49925Y216158D02*
X49858Y216134D01*
X49799Y216094D01*
X49748Y216038D01*
X49705Y215966D01*
X49669Y215878D01*
X49642Y215774D01*
X49622Y215654D01*
X49610Y215518D01*
X49606Y215366D01*
X48819D01*
X48815Y215518D01*
X48803Y215654D01*
X48783Y215774D01*
X48756Y215878D01*
X48720Y215966D01*
X48677Y216038D01*
X48626Y216094D01*
X48567Y216134D01*
X48500Y216158D01*
X48425Y216166D01*
X50000D01*
X49925Y216158D01*
D02*
G37*
G36*
X93519Y213207D02*
X93439Y213190D01*
X93382Y213162D01*
X93348Y213122D01*
X93337Y213071D01*
X93348Y213008D01*
X93382Y212934D01*
X93439Y212849D01*
X93519Y212752D01*
X93621Y212644D01*
X92508D01*
X92394Y212752D01*
X92281Y212849D01*
X92169Y212934D01*
X92057Y213008D01*
X91945Y213071D01*
X91834Y213122D01*
X91723Y213162D01*
X91613Y213190D01*
X91503Y213207D01*
X91394Y213213D01*
X93621D01*
X93519Y213207D01*
D02*
G37*
G36*
X105653Y212217D02*
X105592Y212261D01*
X105519Y212283D01*
X105436D01*
X105341Y212261D01*
X105236Y212217D01*
X105119Y212150D01*
X104990Y212061D01*
X104851Y211949D01*
X104540Y211660D01*
X103983Y212217D01*
X104139Y212378D01*
X104384Y212668D01*
X104473Y212796D01*
X104540Y212913D01*
X104584Y213018D01*
X104606Y213113D01*
Y213197D01*
X104584Y213269D01*
X104540Y213330D01*
X105653Y212217D01*
D02*
G37*
G36*
X100319Y213205D02*
X100252Y213181D01*
X100193Y213141D01*
X100142Y213085D01*
X100098Y213013D01*
X100063Y212925D01*
X100035Y212821D01*
X100016Y212701D01*
X100013Y212667D01*
X100017Y212629D01*
X100039Y212525D01*
X100069Y212423D01*
X100108Y212324D01*
X100156Y212227D01*
X100212Y212134D01*
X100277Y212042D01*
X100351Y211953D01*
X100433Y211867D01*
X98779D01*
X98862Y211953D01*
X98935Y212042D01*
X99000Y212134D01*
X99057Y212227D01*
X99104Y212324D01*
X99143Y212423D01*
X99174Y212525D01*
X99195Y212629D01*
X99200Y212667D01*
X99197Y212701D01*
X99177Y212821D01*
X99150Y212925D01*
X99114Y213013D01*
X99071Y213085D01*
X99020Y213141D01*
X98961Y213181D01*
X98894Y213205D01*
X98819Y213213D01*
X100394D01*
X100319Y213205D01*
D02*
G37*
G36*
X133465Y216929D02*
Y204724D01*
X111316D01*
X111279Y204907D01*
X111092Y205187D01*
X110812Y205374D01*
X110482Y205439D01*
X110090D01*
X109793Y205638D01*
X109252Y205745D01*
X108711Y205638D01*
X108414Y205439D01*
X108022D01*
X107766Y205389D01*
X107293Y205324D01*
X107293Y205324D01*
X107293Y205324D01*
X103543D01*
Y209788D01*
X104915Y211159D01*
X104982Y211184D01*
X105276Y211457D01*
X105379Y211540D01*
X105466Y211600D01*
X105473Y211605D01*
X105563D01*
X105653Y211567D01*
X105702Y211588D01*
X105754Y211575D01*
X105803Y211605D01*
X108671D01*
Y216593D01*
X109026Y217091D01*
X133465Y216929D01*
D02*
G37*
G36*
X328543Y194095D02*
X313078D01*
X312915Y194220D01*
X312002Y194598D01*
X311024Y194727D01*
X310045Y194598D01*
X309133Y194220D01*
X308969Y194095D01*
X259261D01*
Y197057D01*
X254124D01*
Y194095D01*
X251390D01*
X250985Y194595D01*
X251023Y194783D01*
X250907Y195363D01*
X250579Y195855D01*
X250088Y196183D01*
X249508Y196298D01*
X245374D01*
X244794Y196183D01*
X244303Y195855D01*
X243974Y195363D01*
X243859Y194783D01*
X243897Y194595D01*
X243492Y194095D01*
X242913D01*
Y212795D01*
X303727D01*
X304064Y211981D01*
X304886Y210910D01*
X305957Y210088D01*
X307205Y209571D01*
X308543Y209395D01*
X309882Y209571D01*
X311129Y210088D01*
X312200Y210910D01*
X313022Y211981D01*
X313359Y212795D01*
X328543D01*
Y194095D01*
D02*
G37*
G36*
X49610Y209836D02*
X49622Y209700D01*
X49642Y209580D01*
X49669Y209476D01*
X49705Y209388D01*
X49748Y209316D01*
X49799Y209260D01*
X49858Y209220D01*
X49925Y209196D01*
X50000Y209189D01*
X48425D01*
X48500Y209196D01*
X48567Y209220D01*
X48626Y209260D01*
X48677Y209316D01*
X48720Y209388D01*
X48756Y209476D01*
X48783Y209580D01*
X48803Y209700D01*
X48815Y209836D01*
X48819Y209988D01*
X49606D01*
X49610Y209836D01*
D02*
G37*
G36*
X102787Y208693D02*
X101937D01*
X101943Y208703D01*
X101948Y208729D01*
X101953Y208770D01*
X101961Y208900D01*
X101969Y209493D01*
X102756D01*
X102787Y208693D01*
D02*
G37*
G36*
X100786Y209493D02*
X100787D01*
X100819Y208693D01*
X99968D01*
X99975Y208703D01*
X99980Y208729D01*
X99985Y208770D01*
X99992Y208900D01*
X99997Y209277D01*
X99995Y209320D01*
X99982Y209426D01*
X99960Y209520D01*
X99928Y209603D01*
X99888Y209673D01*
X99839Y209731D01*
X99781Y209777D01*
X99713Y209811D01*
X99637Y209834D01*
X99552Y209844D01*
X100767Y210803D01*
X100786Y209493D01*
D02*
G37*
G36*
X98850Y208693D02*
X97938Y207930D01*
X97986Y207986D01*
X98010Y208054D01*
X98011Y208135D01*
X97989Y208228D01*
X97944Y208333D01*
X97875Y208450D01*
X97784Y208580D01*
X97669Y208722D01*
X97369Y209044D01*
X97924Y209602D01*
X98850Y208693D01*
D02*
G37*
G36*
X95969Y206405D02*
X95959Y206460D01*
X95926Y206509D01*
X95872Y206552D01*
X95796Y206589D01*
X95698Y206621D01*
X95579Y206647D01*
X95437Y206667D01*
X95274Y206681D01*
X94882Y206693D01*
Y208268D01*
X95091Y208271D01*
X95587Y208313D01*
X95709Y208339D01*
X95808Y208370D01*
X95885Y208407D01*
X95941Y208449D01*
X95974Y208497D01*
X95986Y208551D01*
X95969Y206405D01*
D02*
G37*
G36*
X86622Y205963D02*
X86681Y205850D01*
X86779Y205750D01*
X86917Y205663D01*
X87094Y205590D01*
X87242Y205549D01*
X87871Y205488D01*
X89661Y205427D01*
X90395Y205423D01*
Y203454D01*
X89661Y203450D01*
X87250Y203291D01*
X87094Y203234D01*
X86917Y203136D01*
X86779Y203022D01*
X86681Y202889D01*
X86622Y202739D01*
X86602Y202571D01*
Y203231D01*
X86445Y203193D01*
X86261Y203123D01*
X86145Y203046D01*
Y205831D01*
X86261Y205754D01*
X86445Y205684D01*
X86602Y205646D01*
Y206090D01*
X86622Y205963D01*
D02*
G37*
G36*
X99776Y205284D02*
X99818Y205256D01*
X100148Y205190D01*
X100640D01*
X100970Y205256D01*
X101011Y205284D01*
X101378Y205402D01*
X101745Y205284D01*
X101786Y205256D01*
X102116Y205190D01*
X102608D01*
X102923Y205253D01*
X103084Y204865D01*
X103543Y204675D01*
X107293D01*
X107335Y204693D01*
X107380Y204681D01*
X107854Y204745D01*
X107872Y204756D01*
X107893Y204752D01*
X108086Y204790D01*
X108414D01*
X108589Y204862D01*
X108775Y204899D01*
X108964Y205026D01*
X109252Y205083D01*
X109540Y205026D01*
X109729Y204899D01*
X109915Y204862D01*
X110090Y204790D01*
X110418D01*
X110559Y204762D01*
X110624Y204718D01*
X110668Y204654D01*
X110679Y204598D01*
X110784Y204440D01*
X110856Y204265D01*
X110918Y204240D01*
X110955Y204184D01*
X111141Y204148D01*
X111316Y204075D01*
X115886D01*
X115886Y202224D01*
X111138D01*
X111077Y202199D01*
X111011Y202212D01*
X110854Y202106D01*
X110679Y202034D01*
X110666Y202002D01*
X110559Y201931D01*
X110418Y201903D01*
X110090D01*
X109915Y201830D01*
X109729Y201794D01*
X109540Y201667D01*
X109188Y201597D01*
X108322D01*
X108262Y201572D01*
X108256Y201575D01*
X108225Y201574D01*
X107974Y201568D01*
X107955Y201559D01*
X107934Y201565D01*
X107709Y201546D01*
X107686Y201533D01*
X107660Y201539D01*
X107478Y201509D01*
X107449Y201491D01*
X107416Y201496D01*
X107313Y201468D01*
X107178Y201365D01*
X107021Y201300D01*
X106988Y201219D01*
X106918Y201166D01*
X106896Y200998D01*
X106831Y200841D01*
Y197929D01*
X106858Y197864D01*
X106847Y197828D01*
X106891Y197750D01*
X106898Y197642D01*
X106909Y197618D01*
X106943Y197588D01*
X107021Y197335D01*
X107019Y196993D01*
X106956Y196906D01*
X106908Y196710D01*
X106831Y196523D01*
Y193863D01*
X106545Y193628D01*
X106053D01*
X105723Y193563D01*
X105682Y193535D01*
X105315Y193417D01*
X104948Y193535D01*
X104907Y193563D01*
X104577Y193628D01*
X104085D01*
X103754Y193563D01*
X103713Y193535D01*
X103346Y193417D01*
X102980Y193535D01*
X102938Y193563D01*
X102608Y193628D01*
X102116D01*
X101786Y193563D01*
X101745Y193535D01*
X101378Y193417D01*
X101011Y193535D01*
X100970Y193563D01*
X100640Y193628D01*
X100148D01*
X99818Y193563D01*
X99776Y193535D01*
X99409Y193417D01*
X99043Y193535D01*
X99001Y193563D01*
X98671Y193628D01*
X98179D01*
X97849Y193563D01*
X97808Y193535D01*
X97441Y193417D01*
X97074Y193535D01*
X97033Y193563D01*
X96703Y193628D01*
X96211D01*
X95902Y193567D01*
X95805Y193638D01*
X95607Y193836D01*
X95535Y193934D01*
X95597Y194242D01*
Y194734D01*
X95531Y195064D01*
X95504Y195106D01*
X95385Y195473D01*
X95504Y195839D01*
X95531Y195880D01*
X95597Y196211D01*
Y196703D01*
X95531Y197033D01*
X95504Y197074D01*
X95385Y197441D01*
X95504Y197808D01*
X95531Y197849D01*
X95597Y198179D01*
Y198671D01*
X95531Y199001D01*
X95504Y199043D01*
X95385Y199409D01*
X95504Y199776D01*
X95531Y199818D01*
X95597Y200148D01*
Y200640D01*
X95531Y200970D01*
X95504Y201011D01*
X95385Y201378D01*
X95504Y201745D01*
X95531Y201786D01*
X95597Y202116D01*
Y202608D01*
X95571Y202739D01*
X95580Y203239D01*
X95580Y203239D01*
X95580Y203239D01*
Y204855D01*
X95645Y204942D01*
X96080Y205216D01*
X96211Y205190D01*
X96703D01*
X97033Y205256D01*
X97074Y205284D01*
X97441Y205402D01*
X97808Y205284D01*
X97849Y205256D01*
X98179Y205190D01*
X98671D01*
X99001Y205256D01*
X99043Y205284D01*
X99409Y205402D01*
X99776Y205284D01*
D02*
G37*
G36*
X94359Y205905D02*
X94404Y205468D01*
X94444Y205290D01*
X94495Y205140D01*
X94557Y205017D01*
X94630Y204922D01*
X94715Y204853D01*
X94811Y204813D01*
X94919Y204799D01*
X92212D01*
X92320Y204813D01*
X92416Y204853D01*
X92501Y204922D01*
X92575Y205017D01*
X92637Y205140D01*
X92688Y205290D01*
X92727Y205468D01*
X92756Y205673D01*
X92773Y205905D01*
X92778Y206164D01*
X94353D01*
X94359Y205905D01*
D02*
G37*
G36*
X149606Y196850D02*
X111316D01*
X111279Y197033D01*
X111092Y197313D01*
X110812Y197500D01*
X110482Y197565D01*
X108022D01*
X107944Y197550D01*
X107492Y197905D01*
X107480Y197929D01*
Y200841D01*
X107583Y200868D01*
X107766Y200899D01*
X107991Y200918D01*
X108273Y200926D01*
X108322Y200948D01*
X109252D01*
X109793Y201055D01*
X110090Y201254D01*
X110482D01*
X110812Y201319D01*
X111092Y201506D01*
X111138Y201575D01*
X116535D01*
X116535Y204075D01*
X133465D01*
X133924Y204265D01*
X134114Y204724D01*
X136408D01*
Y204420D01*
X143120D01*
Y204724D01*
X149606D01*
Y196850D01*
D02*
G37*
G36*
X228150Y201184D02*
X227650Y201036D01*
X227253Y201301D01*
X226673Y201416D01*
X222539D01*
X221960Y201301D01*
X221468Y200973D01*
X221140Y200481D01*
X221024Y199902D01*
X220937Y199796D01*
X206865Y200052D01*
X206844Y200069D01*
X206496Y200445D01*
Y228006D01*
X228150D01*
Y201184D01*
D02*
G37*
G36*
X243110Y217520D02*
X243182Y217049D01*
Y213445D01*
X242913D01*
X242454Y213254D01*
X242264Y212795D01*
Y194095D01*
X242454Y193635D01*
X242913Y193445D01*
X243492D01*
X243525Y193459D01*
X243560Y193449D01*
X243751Y193552D01*
X243951Y193635D01*
D01*
X244427Y193629D01*
X244794Y193384D01*
X245374Y193269D01*
X249508D01*
X250088Y193384D01*
X250455Y193629D01*
X250931Y193635D01*
X251132Y193552D01*
X251322Y193449D01*
X251357Y193459D01*
X251390Y193445D01*
X254124D01*
X254584Y193635D01*
X254774Y194095D01*
Y196407D01*
X258612D01*
Y194095D01*
X258802Y193635D01*
X259261Y193445D01*
X290699D01*
Y168431D01*
X287727Y165459D01*
X254123D01*
X253856Y165959D01*
X254040Y166234D01*
X254178Y166929D01*
X254040Y167624D01*
X253646Y168213D01*
X253057Y168607D01*
X252362Y168745D01*
X251667Y168607D01*
X251127Y168246D01*
X251066Y168222D01*
X250974Y168132D01*
X250898Y168066D01*
X250827Y168010D01*
X250762Y167966D01*
X250704Y167933D01*
X250652Y167908D01*
X250608Y167892D01*
X250570Y167882D01*
X250538Y167876D01*
X250475Y167873D01*
X250410Y167842D01*
X223011D01*
X222862Y168035D01*
X222730Y168305D01*
X222894Y168701D01*
Y169291D01*
Y177661D01*
X223317Y177845D01*
Y177845D01*
X227864D01*
Y179175D01*
X227931Y179205D01*
X229747D01*
X229813Y179176D01*
Y177845D01*
X234360D01*
Y182391D01*
X229813D01*
Y181061D01*
X229747Y181031D01*
X227931D01*
X227864Y181061D01*
Y182391D01*
X227124D01*
X227094Y182458D01*
D01*
Y183661D01*
X227025Y184011D01*
X226827Y184307D01*
X225449Y185685D01*
X225152Y185883D01*
X224803Y185952D01*
X222032D01*
X221671Y186313D01*
Y187466D01*
X222143Y187937D01*
X222217Y187966D01*
X222313Y188059D01*
X222388Y188125D01*
X222445Y188169D01*
X222501Y188158D01*
X222550Y188140D01*
X222574Y188150D01*
X222634D01*
X222641Y188149D01*
X222643Y188150D01*
X226673D01*
X227253Y188266D01*
X227745Y188594D01*
X228073Y189086D01*
X228188Y189665D01*
X228073Y190245D01*
X228141Y190276D01*
X228192Y190293D01*
X228210Y190308D01*
X228366Y190380D01*
X228523Y190490D01*
X228555Y190540D01*
X228609Y190562D01*
X228684Y190744D01*
X228789Y190910D01*
X228777Y190967D01*
X228799Y191021D01*
Y193427D01*
X228777Y193482D01*
X228789Y193539D01*
X228684Y193705D01*
X228609Y193887D01*
X228555Y193909D01*
X228523Y193959D01*
X228366Y194069D01*
X228268Y194091D01*
X228192Y194156D01*
X227850Y194267D01*
X227810Y194264D01*
X227776Y194286D01*
X227567Y194244D01*
X227354Y194227D01*
X227328Y194197D01*
X227289Y194189D01*
X227000Y193996D01*
X226609Y193918D01*
X222603D01*
X222213Y193996D01*
X221936Y194180D01*
X221752Y194457D01*
X221687Y194783D01*
X221752Y195110D01*
X221923Y195366D01*
X221951Y195505D01*
X222024Y195626D01*
X222077Y195962D01*
X222053Y196063D01*
X222077Y196164D01*
X222024Y196500D01*
X221951Y196621D01*
X221923Y196760D01*
X221752Y197016D01*
X221687Y197343D01*
X221752Y197669D01*
X222008Y198053D01*
X222045Y198239D01*
X222118Y198414D01*
Y198830D01*
X222045Y199005D01*
X222008Y199191D01*
X221801Y199502D01*
X221661Y199775D01*
X221752Y200228D01*
X221936Y200505D01*
X222213Y200689D01*
X222603Y200767D01*
X226609D01*
X227000Y200689D01*
X227289Y200496D01*
X227320Y200490D01*
X227339Y200466D01*
X227559Y200442D01*
X227776Y200399D01*
X227802Y200417D01*
X227833Y200413D01*
X228333Y200561D01*
X228459Y200662D01*
X228609Y200725D01*
X228645Y200813D01*
X228720Y200873D01*
X228737Y201034D01*
X228799Y201184D01*
Y212598D01*
Y217520D01*
X243110D01*
D02*
G37*
G36*
X92094Y199969D02*
X92078Y199993D01*
X92052Y200015D01*
X92014Y200035D01*
X91966Y200052D01*
X91906Y200066D01*
X91837Y200078D01*
X91756Y200087D01*
X91563Y200097D01*
X91450Y200098D01*
Y200689D01*
X91563Y200690D01*
X91837Y200710D01*
X91906Y200722D01*
X91966Y200736D01*
X92014Y200753D01*
X92052Y200772D01*
X92078Y200794D01*
X92094Y200819D01*
Y199969D01*
D02*
G37*
G36*
X51327Y208002D02*
X51445Y207667D01*
X51641Y207372D01*
X51917Y207116D01*
X52271Y206899D01*
X52705Y206722D01*
X53216Y206584D01*
X53807Y206486D01*
X54476Y206427D01*
X55224Y206407D01*
Y203047D01*
X56905D01*
X56827Y202931D01*
X56757Y202747D01*
X56696Y202493D01*
X56643Y202171D01*
X56561Y201321D01*
X56500Y199531D01*
X56496Y198797D01*
X54528D01*
X54523Y199531D01*
X54330Y202446D01*
X53216Y202359D01*
X52705Y202272D01*
X52271Y202161D01*
X51917Y202025D01*
X51641Y201864D01*
X51445Y201678D01*
X51327Y201467D01*
X51287Y201232D01*
Y208376D01*
X51327Y208002D01*
D02*
G37*
G36*
X92094Y198000D02*
X92070Y198045D01*
X92036Y198086D01*
X91993Y198121D01*
X91941Y198152D01*
X91879Y198178D01*
X91808Y198200D01*
X91727Y198216D01*
X91637Y198228D01*
X91538Y198235D01*
X91430Y198238D01*
X91495Y198828D01*
X92094Y198850D01*
Y198000D01*
D02*
G37*
G36*
X60771Y196856D02*
X60720Y196839D01*
X60676Y196809D01*
X60638Y196768D01*
X60605Y196715D01*
X60579Y196650D01*
X60558Y196573D01*
X60543Y196484D01*
X60535Y196384D01*
X60532Y196272D01*
X59941D01*
X59938Y196384D01*
X59929Y196484D01*
X59914Y196573D01*
X59894Y196650D01*
X59867Y196715D01*
X59835Y196768D01*
X59796Y196809D01*
X59752Y196839D01*
X59702Y196856D01*
X59646Y196862D01*
X60827D01*
X60771Y196856D01*
D02*
G37*
G36*
X92094Y196031D02*
X92078Y196056D01*
X92052Y196078D01*
X92014Y196098D01*
X91966Y196115D01*
X91906Y196129D01*
X91837Y196141D01*
X91756Y196150D01*
X91563Y196160D01*
X91450Y196161D01*
X91450Y196752D01*
X91563Y196753D01*
X91837Y196773D01*
X91906Y196784D01*
X91966Y196799D01*
X92014Y196816D01*
X92052Y196835D01*
X92078Y196857D01*
X92094Y196882D01*
Y196031D01*
D02*
G37*
G36*
X88349Y197183D02*
X88555Y197012D01*
X88657Y196943D01*
X88758Y196885D01*
X88858Y196837D01*
X88958Y196800D01*
X89057Y196773D01*
X89156Y196757D01*
X89254Y196752D01*
Y196161D01*
X89156Y196156D01*
X89057Y196140D01*
X88958Y196114D01*
X88858Y196076D01*
X88758Y196028D01*
X88657Y195970D01*
X88555Y195901D01*
X88452Y195821D01*
X88349Y195731D01*
X88245Y195630D01*
Y197283D01*
X88349Y197183D01*
D02*
G37*
G36*
X108021Y196905D02*
X108041Y196916D01*
X108056D01*
X108071Y196913D01*
X108086Y196916D01*
X110418D01*
X110559Y196888D01*
X110624Y196844D01*
X110668Y196780D01*
X110679Y196724D01*
X110784Y196566D01*
X110856Y196391D01*
X110918Y196366D01*
X110955Y196310D01*
X111141Y196273D01*
X111316Y196201D01*
X133465D01*
Y195101D01*
X133109Y194750D01*
X132921Y194752D01*
X131692Y194812D01*
X131216Y194862D01*
X130824Y194925D01*
X130531Y194996D01*
X130346Y195064D01*
X130324Y195077D01*
Y195482D01*
X129803D01*
X129712Y195519D01*
X129631Y195486D01*
X129545Y195497D01*
X129525Y195482D01*
X124597D01*
Y188770D01*
X129525D01*
X129545Y188755D01*
X129631Y188766D01*
X129712Y188733D01*
X129803Y188770D01*
X130324D01*
Y189175D01*
X130346Y189188D01*
X130531Y189256D01*
X130824Y189326D01*
X131203Y189387D01*
X132926Y189500D01*
X133109Y189502D01*
X133465Y189151D01*
Y183071D01*
X107480D01*
Y196523D01*
X107618Y196711D01*
X107980Y196917D01*
X108021Y196905D01*
D02*
G37*
G36*
X60537Y195262D02*
X60555Y195161D01*
X60585Y195073D01*
X60626Y194996D01*
X60679Y194931D01*
X60744Y194878D01*
X60821Y194837D01*
X60909Y194807D01*
X61010Y194789D01*
X61122Y194783D01*
X60236Y194193D01*
X59350Y194783D01*
X59463Y194789D01*
X59563Y194807D01*
X59652Y194837D01*
X59728Y194878D01*
X59793Y194931D01*
X59847Y194996D01*
X59888Y195073D01*
X59917Y195161D01*
X59935Y195262D01*
X59941Y195374D01*
X60532D01*
X60537Y195262D01*
D02*
G37*
G36*
X92094Y194063D02*
X92087Y194067D01*
X92068Y194071D01*
X92037Y194074D01*
X91874Y194081D01*
X91495Y194085D01*
X91430Y194676D01*
X91538Y194678D01*
X91727Y194697D01*
X91808Y194714D01*
X91879Y194735D01*
X91941Y194761D01*
X91993Y194792D01*
X92036Y194828D01*
X92070Y194868D01*
X92094Y194913D01*
Y194063D01*
D02*
G37*
G36*
X50978Y195023D02*
X50996Y194972D01*
X51025Y194928D01*
X51067Y194890D01*
X51120Y194857D01*
X51185Y194831D01*
X51262Y194810D01*
X51350Y194795D01*
X51451Y194786D01*
X51563Y194783D01*
Y194193D01*
X51451Y194190D01*
X51350Y194181D01*
X51262Y194166D01*
X51185Y194146D01*
X51120Y194119D01*
X51067Y194087D01*
X51025Y194048D01*
X50996Y194004D01*
X50978Y193954D01*
X50972Y193898D01*
Y195079D01*
X50978Y195023D01*
D02*
G37*
G36*
X83151Y194915D02*
X83169Y194865D01*
X83200Y194820D01*
X83242Y194782D01*
X83296Y194749D01*
X83362Y194723D01*
X83441Y194702D01*
X83531Y194687D01*
X83633Y194678D01*
X83748Y194676D01*
Y194085D01*
X83633Y194082D01*
X83531Y194073D01*
X83441Y194059D01*
X83362Y194038D01*
X83296Y194011D01*
X83242Y193979D01*
X83200Y193940D01*
X83169Y193896D01*
X83151Y193846D01*
X83145Y193790D01*
Y194971D01*
X83151Y194915D01*
D02*
G37*
G36*
X65693Y193760D02*
X65758Y193733D01*
X66016Y193546D01*
Y187386D01*
X63106Y184476D01*
X59999D01*
X59970Y184495D01*
X59872Y184476D01*
X59813D01*
X59715Y184495D01*
X59686Y184476D01*
X58220D01*
X58140Y184574D01*
X58240Y185242D01*
X58371Y185330D01*
X58764Y185919D01*
X58903Y186614D01*
X58764Y187309D01*
X58740Y187346D01*
X58748Y187467D01*
X58781Y187717D01*
X58823Y187915D01*
X58869Y188058D01*
X58909Y188141D01*
X58912Y188145D01*
X58932Y188148D01*
X58987Y188180D01*
X59458D01*
Y188701D01*
X59496Y188792D01*
X59478Y188833D01*
X59490Y188877D01*
X59458Y188932D01*
Y193316D01*
X59851Y193575D01*
X60080D01*
X60109Y193556D01*
X60206Y193575D01*
X60266D01*
X60364Y193556D01*
X60392Y193575D01*
X64961D01*
X65310Y193645D01*
X65527Y193790D01*
X65693Y193760D01*
D02*
G37*
G36*
X86713Y194085D02*
X86600Y194079D01*
X86500Y194061D01*
X86411Y194032D01*
X86335Y193991D01*
X86270Y193937D01*
X86216Y193872D01*
X86175Y193796D01*
X86146Y193707D01*
X86128Y193607D01*
X86122Y193494D01*
X85532D01*
X85526Y193607D01*
X85508Y193707D01*
X85478Y193796D01*
X85437Y193872D01*
X85384Y193937D01*
X85319Y193991D01*
X85242Y194032D01*
X85154Y194061D01*
X85053Y194079D01*
X84941Y194085D01*
X85827Y194676D01*
X86713Y194085D01*
D02*
G37*
G36*
X95969Y190945D02*
X95963Y191001D01*
X95945Y191051D01*
X95915Y191095D01*
X95873Y191134D01*
X95819Y191166D01*
X95752Y191193D01*
X95674Y191214D01*
X95584Y191228D01*
X95481Y191237D01*
X95367Y191240D01*
Y191831D01*
X95481Y191834D01*
X95584Y191842D01*
X95674Y191857D01*
X95752Y191878D01*
X95819Y191904D01*
X95873Y191937D01*
X95915Y191975D01*
X95945Y192020D01*
X95963Y192070D01*
X95969Y192126D01*
Y190945D01*
D02*
G37*
G36*
X221261Y199141D02*
X221468Y198830D01*
Y198414D01*
X221140Y197922D01*
X221024Y197343D01*
X221140Y196763D01*
X221383Y196399D01*
X221436Y196063D01*
X221383Y195727D01*
X221140Y195363D01*
X221024Y194783D01*
X221140Y194204D01*
X221468Y193712D01*
X221960Y193384D01*
X222539Y193269D01*
X226673D01*
X227253Y193384D01*
X227650Y193649D01*
X227992Y193538D01*
X228150Y193427D01*
Y191021D01*
X227992Y190911D01*
X227650Y190800D01*
X227253Y191065D01*
X226673Y191180D01*
X222539D01*
X221960Y191065D01*
X221468Y190737D01*
X221140Y190245D01*
X221024Y189665D01*
X221038Y189596D01*
X221027Y189567D01*
X220873Y189294D01*
X220872Y189294D01*
X220844Y189220D01*
X220113Y188489D01*
X219915Y188193D01*
X219846Y187844D01*
Y185935D01*
X219915Y185585D01*
X220113Y185289D01*
X221008Y184394D01*
X221304Y184196D01*
X221654Y184126D01*
X222244D01*
Y168701D01*
X221850Y168307D01*
X206506D01*
Y171390D01*
X206916Y171924D01*
X207373Y173028D01*
X207529Y174213D01*
X207373Y175397D01*
X206916Y176501D01*
X206506Y177035D01*
Y178454D01*
X206496D01*
Y199053D01*
X206853Y199403D01*
X221261Y199141D01*
D02*
G37*
G36*
X163705Y192926D02*
X162913Y192835D01*
X162144Y192692D01*
X161396Y192497D01*
X160670Y192251D01*
X159966Y191952D01*
X159615Y191772D01*
X159589Y191628D01*
X159545Y191270D01*
X159498Y190451D01*
X159496Y189991D01*
X158427Y191060D01*
X157985Y190746D01*
X157369Y190240D01*
X156774Y189682D01*
X156218Y190239D01*
X156775Y190834D01*
X157281Y191450D01*
X157595Y191891D01*
X156526Y192961D01*
X156987Y192963D01*
X158164Y193054D01*
X158307Y193080D01*
X158488Y193431D01*
X158786Y194135D01*
X159033Y194860D01*
X159228Y195608D01*
X159371Y196378D01*
X159462Y197169D01*
X163705Y192926D01*
D02*
G37*
G36*
X104731Y190110D02*
X104709Y190083D01*
X104690Y190045D01*
X104673Y189997D01*
X104658Y189938D01*
X104647Y189868D01*
X104638Y189788D01*
X104627Y189594D01*
X104626Y189482D01*
X104035D01*
X104034Y189594D01*
X104015Y189868D01*
X104003Y189938D01*
X103989Y189997D01*
X103972Y190045D01*
X103952Y190083D01*
X103930Y190110D01*
X103905Y190126D01*
X104756D01*
X104731Y190110D01*
D02*
G37*
G36*
X102763D02*
X102741Y190083D01*
X102721Y190045D01*
X102704Y189997D01*
X102690Y189938D01*
X102678Y189868D01*
X102669Y189788D01*
X102659Y189594D01*
X102657Y189482D01*
X102067D01*
X102066Y189594D01*
X102046Y189868D01*
X102034Y189938D01*
X102020Y189997D01*
X102003Y190045D01*
X101984Y190083D01*
X101962Y190110D01*
X101937Y190126D01*
X102787D01*
X102763Y190110D01*
D02*
G37*
G36*
X100794D02*
X100772Y190083D01*
X100753Y190045D01*
X100736Y189997D01*
X100721Y189938D01*
X100710Y189868D01*
X100701Y189788D01*
X100690Y189594D01*
X100689Y189482D01*
X100098D01*
X100097Y189594D01*
X100078Y189868D01*
X100066Y189938D01*
X100052Y189997D01*
X100035Y190045D01*
X100015Y190083D01*
X99993Y190110D01*
X99968Y190126D01*
X100819D01*
X100794Y190110D01*
D02*
G37*
G36*
X98826D02*
X98804Y190083D01*
X98784Y190045D01*
X98767Y189997D01*
X98753Y189938D01*
X98741Y189868D01*
X98732Y189788D01*
X98722Y189594D01*
X98721Y189482D01*
X98130D01*
X98129Y189594D01*
X98109Y189868D01*
X98097Y189938D01*
X98083Y189997D01*
X98066Y190045D01*
X98047Y190083D01*
X98025Y190110D01*
X98000Y190126D01*
X98850D01*
X98826Y190110D01*
D02*
G37*
G36*
X50992Y191962D02*
X51051Y191914D01*
X51149Y191871D01*
X51287Y191834D01*
X51464Y191803D01*
X51681Y191778D01*
X52232Y191744D01*
X52941Y191732D01*
Y189764D01*
X52567Y189761D01*
X51464Y189693D01*
X51287Y189662D01*
X51149Y189625D01*
X51051Y189583D01*
X50992Y189534D01*
X50972Y189480D01*
Y192016D01*
X50992Y191962D01*
D02*
G37*
G36*
X222529Y188789D02*
X222483Y188821D01*
X222431Y188838D01*
X222372Y188840D01*
X222306Y188827D01*
X222233Y188799D01*
X222153Y188756D01*
X222067Y188698D01*
X221973Y188625D01*
X221873Y188537D01*
X221766Y188434D01*
X221341Y188844D01*
X221442Y188950D01*
X221600Y189140D01*
X221657Y189225D01*
X221698Y189303D01*
X221724Y189374D01*
X221734Y189438D01*
X221730Y189495D01*
X221711Y189545D01*
X221676Y189588D01*
X222529Y188789D01*
D02*
G37*
G36*
X83059Y188583D02*
X82914Y188581D01*
X82648Y188556D01*
X82528Y188532D01*
X82415Y188502D01*
X82310Y188465D01*
X82213Y188420D01*
X82124Y188369D01*
X82043Y188311D01*
X81970Y188245D01*
X81552Y188663D01*
X81618Y188736D01*
X81676Y188817D01*
X81728Y188906D01*
X81772Y189003D01*
X81809Y189108D01*
X81839Y189220D01*
X81863Y189341D01*
X81879Y189470D01*
X81888Y189607D01*
X81890Y189752D01*
X83059Y188583D01*
D02*
G37*
G36*
X84802Y187928D02*
X84736Y187854D01*
X84677Y187773D01*
X84627Y187684D01*
X84583Y187587D01*
X84547Y187482D01*
X84518Y187370D01*
X84497Y187249D01*
X84484Y187121D01*
X84478Y186986D01*
X84479Y186842D01*
X83282Y187983D01*
X83428Y187988D01*
X83695Y188019D01*
X83817Y188044D01*
X83930Y188076D01*
X84035Y188114D01*
X84132Y188160D01*
X84221Y188211D01*
X84302Y188270D01*
X84374Y188335D01*
X84802Y187928D01*
D02*
G37*
G36*
X55327Y188792D02*
X58846D01*
X58699Y188772D01*
X58567Y188713D01*
X58451Y188614D01*
X58350Y188477D01*
X58265Y188299D01*
X58195Y188083D01*
X58141Y187827D01*
X58102Y187532D01*
X58079Y187197D01*
X58071Y186823D01*
X56102D01*
X56095Y187197D01*
X56033Y187827D01*
X55978Y188083D01*
X55909Y188299D01*
X55823Y188477D01*
X55722Y188614D01*
X55606Y188713D01*
X55474Y188772D01*
X55327Y188792D01*
X55307Y188976D01*
X55248Y189141D01*
X55150Y189287D01*
X55012Y189414D01*
X54835Y189521D01*
X54618Y189608D01*
X54362Y189676D01*
X54067Y189725D01*
X53733Y189754D01*
X53359Y189764D01*
Y191732D01*
X53733Y191742D01*
X54067Y191771D01*
X54362Y191820D01*
X54618Y191888D01*
X54835Y191975D01*
X55012Y192082D01*
X55150Y192209D01*
X55248Y192355D01*
X55307Y192520D01*
X55327Y192704D01*
Y188792D01*
D02*
G37*
G36*
X98723Y185996D02*
X98732Y185893D01*
X98747Y185803D01*
X98768Y185724D01*
X98794Y185658D01*
X98827Y185604D01*
X98865Y185562D01*
X98909Y185532D01*
X98960Y185513D01*
X99016Y185508D01*
X97835D01*
X97891Y185513D01*
X97941Y185532D01*
X97985Y185562D01*
X98024Y185604D01*
X98056Y185658D01*
X98083Y185724D01*
X98103Y185803D01*
X98118Y185893D01*
X98127Y185996D01*
X98130Y186110D01*
X98721D01*
X98723Y185996D01*
D02*
G37*
G36*
X50939Y186530D02*
X50922Y186475D01*
Y186413D01*
X50939Y186342D01*
X50972Y186262D01*
X51022Y186175D01*
X51089Y186079D01*
X51173Y185974D01*
X51390Y185740D01*
X50972Y185323D01*
X50851Y185440D01*
X50634Y185623D01*
X50538Y185690D01*
X50450Y185740D01*
X50371Y185774D01*
X50300Y185791D01*
X50237D01*
X50183Y185774D01*
X50137Y185740D01*
X50972Y186575D01*
X50939Y186530D01*
D02*
G37*
G36*
X86125Y185604D02*
X86134Y185504D01*
X86149Y185415D01*
X86169Y185338D01*
X86196Y185273D01*
X86228Y185220D01*
X86267Y185179D01*
X86311Y185149D01*
X86361Y185132D01*
X86417Y185126D01*
X85236D01*
X85292Y185132D01*
X85343Y185149D01*
X85387Y185179D01*
X85425Y185220D01*
X85458Y185273D01*
X85484Y185338D01*
X85505Y185415D01*
X85520Y185504D01*
X85528Y185604D01*
X85532Y185716D01*
X86122D01*
X86125Y185604D01*
D02*
G37*
G36*
X79826D02*
X79835Y185504D01*
X79849Y185415D01*
X79870Y185338D01*
X79897Y185273D01*
X79929Y185220D01*
X79967Y185179D01*
X80012Y185149D01*
X80062Y185132D01*
X80118Y185126D01*
X78937D01*
X78993Y185132D01*
X79043Y185149D01*
X79088Y185179D01*
X79126Y185220D01*
X79159Y185273D01*
X79185Y185338D01*
X79206Y185415D01*
X79220Y185504D01*
X79229Y185604D01*
X79232Y185716D01*
X79823D01*
X79826Y185604D01*
D02*
G37*
G36*
X77878Y182874D02*
X77872Y182930D01*
X77854Y182980D01*
X77824Y183025D01*
X77782Y183063D01*
X77728Y183096D01*
X77661Y183122D01*
X77583Y183143D01*
X77493Y183158D01*
X77390Y183166D01*
X77276Y183169D01*
Y183760D01*
X77390Y183763D01*
X77493Y183772D01*
X77583Y183786D01*
X77661Y183807D01*
X77728Y183834D01*
X77782Y183866D01*
X77824Y183905D01*
X77854Y183949D01*
X77872Y183999D01*
X77878Y184055D01*
Y182874D01*
D02*
G37*
G36*
X140587Y183851D02*
X140805Y183664D01*
X140902Y183596D01*
X140990Y183545D01*
X141069Y183510D01*
X141140Y183493D01*
X141202Y183491D01*
X141255Y183507D01*
X141300Y183539D01*
X140477Y182716D01*
X140509Y182761D01*
X140524Y182814D01*
X140523Y182876D01*
X140505Y182947D01*
X140471Y183026D01*
X140419Y183114D01*
X140351Y183210D01*
X140267Y183315D01*
X140047Y183551D01*
X140465Y183969D01*
X140587Y183851D01*
D02*
G37*
G36*
X60728Y183268D02*
X60616Y183262D01*
X60516Y183244D01*
X60427Y183215D01*
X60350Y183173D01*
X60285Y183120D01*
X60232Y183055D01*
X60191Y182978D01*
X60161Y182890D01*
X60144Y182789D01*
X60138Y182677D01*
X59547D01*
X59541Y182789D01*
X59524Y182890D01*
X59494Y182978D01*
X59453Y183055D01*
X59400Y183120D01*
X59335Y183173D01*
X59258Y183215D01*
X59169Y183244D01*
X59069Y183262D01*
X58957Y183268D01*
X59842Y183858D01*
X60728Y183268D01*
D02*
G37*
G36*
X85001Y181815D02*
X84956Y181848D01*
X84902Y181863D01*
X84840Y181862D01*
X84770Y181844D01*
X84690Y181809D01*
X84603Y181758D01*
X84506Y181690D01*
X84401Y181605D01*
X84166Y181386D01*
X83748Y181803D01*
X83866Y181925D01*
X84052Y182144D01*
X84120Y182240D01*
X84171Y182328D01*
X84206Y182407D01*
X84224Y182478D01*
X84225Y182540D01*
X84210Y182594D01*
X84178Y182639D01*
X85001Y181815D01*
D02*
G37*
G36*
X226479Y182255D02*
X226488Y182153D01*
X226503Y182063D01*
X226524Y181984D01*
X226550Y181918D01*
X226583Y181864D01*
X226621Y181822D01*
X226665Y181791D01*
X226716Y181773D01*
X226772Y181767D01*
X225591D01*
X225647Y181773D01*
X225697Y181791D01*
X225741Y181822D01*
X225780Y181864D01*
X225812Y181918D01*
X225839Y181984D01*
X225859Y182063D01*
X225874Y182153D01*
X225883Y182255D01*
X225886Y182370D01*
X226476D01*
X226479Y182255D01*
D02*
G37*
G36*
X60141Y181960D02*
X60150Y181858D01*
X60164Y181767D01*
X60185Y181689D01*
X60212Y181623D01*
X60244Y181569D01*
X60282Y181526D01*
X60327Y181496D01*
X60377Y181478D01*
X60433Y181472D01*
X59252D01*
X59308Y181478D01*
X59358Y181496D01*
X59403Y181526D01*
X59441Y181569D01*
X59473Y181623D01*
X59500Y181689D01*
X59521Y181767D01*
X59535Y181858D01*
X59544Y181960D01*
X59547Y182075D01*
X60138D01*
X60141Y181960D01*
D02*
G37*
G36*
X95348Y190592D02*
Y190305D01*
X95414Y189975D01*
X95601Y189695D01*
X95881Y189508D01*
X96211Y189443D01*
X96703D01*
X96980Y189498D01*
X97105Y189492D01*
X97133Y189485D01*
X97512Y189227D01*
Y186198D01*
X97483Y186132D01*
X96349D01*
Y181585D01*
X100895D01*
Y185350D01*
X101357Y185541D01*
X101843Y185055D01*
Y170063D01*
X101590Y169810D01*
X101060D01*
X100994Y169840D01*
Y171565D01*
X96447D01*
Y167018D01*
X97778D01*
X97808Y166952D01*
Y156791D01*
X97877Y156442D01*
X98075Y156146D01*
X100662Y153559D01*
Y139355D01*
X100109Y138801D01*
X100010Y138842D01*
X99853Y138934D01*
X99679Y139062D01*
X99494Y139229D01*
X99304Y139430D01*
X98877Y139983D01*
X98657Y140317D01*
X98632Y140334D01*
X98624Y140363D01*
X98549Y140405D01*
X98090Y141004D01*
X97266Y141636D01*
X96306Y142034D01*
X95276Y142169D01*
X94245Y142034D01*
X93285Y141636D01*
X92474Y141014D01*
X92434Y140998D01*
X91689Y140276D01*
X91047Y139731D01*
X90775Y139531D01*
X90528Y139370D01*
X90314Y139254D01*
X90140Y139181D01*
X90013Y139145D01*
X89868Y139130D01*
X89815Y139102D01*
X80709D01*
X80303Y139526D01*
X80286Y139625D01*
X83716Y143055D01*
X83914Y143351D01*
X83984Y143701D01*
Y150139D01*
X84003Y150168D01*
X84493Y150268D01*
X86236D01*
X88961Y147544D01*
X89257Y147346D01*
X89606Y147276D01*
X91263D01*
X91329Y147247D01*
Y144243D01*
X99222D01*
Y152135D01*
X91329D01*
Y149131D01*
X91263Y149102D01*
X89984D01*
X87260Y151827D01*
X86963Y152024D01*
X86614Y152094D01*
X84493D01*
X84003Y152194D01*
X83984Y152223D01*
Y171670D01*
X84015Y171735D01*
X84018Y171798D01*
X84023Y171830D01*
X84033Y171868D01*
X84050Y171912D01*
X84074Y171964D01*
X84108Y172022D01*
X84147Y172079D01*
X84281Y172241D01*
X84314Y172275D01*
X84550Y172243D01*
X84802Y172132D01*
X84814Y172124D01*
Y171260D01*
X84891Y170872D01*
X85110Y170543D01*
X86685Y168969D01*
X87014Y168749D01*
X87402Y168672D01*
X90086D01*
X90153Y168642D01*
X90285Y168639D01*
X90345Y168633D01*
Y167018D01*
X94891D01*
Y171565D01*
X90345D01*
Y170737D01*
X90285Y170731D01*
X90153Y170728D01*
X90086Y170698D01*
X87821D01*
X86840Y171679D01*
Y174830D01*
X86870Y174897D01*
X86873Y175029D01*
X86878Y175089D01*
X88100D01*
Y179635D01*
X83996D01*
X83789Y180135D01*
X84537Y180884D01*
X84608Y180911D01*
X84827Y181114D01*
X84898Y181171D01*
X84926Y181191D01*
X84939D01*
X85001Y181166D01*
X85052Y181187D01*
X85106Y181175D01*
X85133Y181191D01*
X88100D01*
Y185738D01*
X86769D01*
X86740Y185805D01*
Y187308D01*
X90054Y190623D01*
X95279D01*
X95348Y190592D01*
D02*
G37*
G36*
X116440Y180092D02*
X116449Y179992D01*
X116464Y179903D01*
X116484Y179827D01*
X116511Y179762D01*
X116543Y179709D01*
X116582Y179667D01*
X116626Y179638D01*
X116676Y179620D01*
X116732Y179614D01*
X115551D01*
X115607Y179620D01*
X115657Y179638D01*
X115702Y179667D01*
X115740Y179709D01*
X115773Y179762D01*
X115799Y179827D01*
X115820Y179903D01*
X115835Y179992D01*
X115843Y180092D01*
X115847Y180204D01*
X116437D01*
X116440Y180092D01*
D02*
G37*
G36*
X230437Y179527D02*
X230431Y179584D01*
X230413Y179634D01*
X230383Y179678D01*
X230341Y179717D01*
X230287Y179749D01*
X230221Y179776D01*
X230142Y179796D01*
X230052Y179811D01*
X229949Y179820D01*
X229835Y179823D01*
Y180413D01*
X229949Y180416D01*
X230052Y180425D01*
X230142Y180440D01*
X230221Y180461D01*
X230287Y180487D01*
X230341Y180520D01*
X230383Y180558D01*
X230413Y180602D01*
X230431Y180652D01*
X230437Y180709D01*
Y179527D01*
D02*
G37*
G36*
X227258Y180652D02*
X227275Y180602D01*
X227305Y180558D01*
X227346Y180520D01*
X227399Y180487D01*
X227464Y180461D01*
X227541Y180440D01*
X227630Y180425D01*
X227730Y180416D01*
X227842Y180413D01*
Y179823D01*
X227730Y179820D01*
X227630Y179811D01*
X227541Y179796D01*
X227464Y179776D01*
X227399Y179749D01*
X227346Y179717D01*
X227305Y179678D01*
X227275Y179634D01*
X227258Y179584D01*
X227252Y179527D01*
Y180709D01*
X227258Y180652D01*
D02*
G37*
G36*
X120398Y177362D02*
X120392Y177418D01*
X120374Y177469D01*
X120344Y177513D01*
X120302Y177551D01*
X120247Y177584D01*
X120181Y177610D01*
X120103Y177631D01*
X120012Y177646D01*
X119910Y177655D01*
X119796Y177657D01*
Y178248D01*
X119910Y178251D01*
X120012Y178260D01*
X120103Y178275D01*
X120181Y178295D01*
X120247Y178322D01*
X120302Y178354D01*
X120344Y178393D01*
X120374Y178437D01*
X120392Y178487D01*
X120398Y178543D01*
Y177362D01*
D02*
G37*
G36*
X117797Y178487D02*
X117815Y178437D01*
X117845Y178393D01*
X117887Y178354D01*
X117942Y178322D01*
X118008Y178295D01*
X118086Y178275D01*
X118177Y178260D01*
X118279Y178251D01*
X118394Y178248D01*
Y177657D01*
X118279Y177655D01*
X118177Y177646D01*
X118086Y177631D01*
X118008Y177610D01*
X117942Y177584D01*
X117887Y177551D01*
X117845Y177513D01*
X117815Y177469D01*
X117797Y177418D01*
X117791Y177362D01*
Y178543D01*
X117797Y178487D01*
D02*
G37*
G36*
X108193Y176969D02*
X108187Y177025D01*
X108169Y177075D01*
X108139Y177119D01*
X108097Y177157D01*
X108043Y177190D01*
X107976Y177216D01*
X107898Y177237D01*
X107808Y177252D01*
X107705Y177261D01*
X107591Y177264D01*
Y177854D01*
X107705Y177857D01*
X107808Y177866D01*
X107898Y177881D01*
X107976Y177902D01*
X108043Y177928D01*
X108097Y177961D01*
X108139Y177999D01*
X108169Y178043D01*
X108187Y178094D01*
X108193Y178150D01*
Y176969D01*
D02*
G37*
G36*
X84178Y176575D02*
X84170Y176650D01*
X84146Y176716D01*
X84106Y176776D01*
X84050Y176827D01*
X83978Y176870D01*
X83890Y176906D01*
X83786Y176933D01*
X83666Y176953D01*
X83530Y176965D01*
X83378Y176969D01*
Y177756D01*
X83530Y177760D01*
X83666Y177772D01*
X83786Y177791D01*
X83890Y177819D01*
X83978Y177854D01*
X84050Y177898D01*
X84106Y177949D01*
X84146Y178008D01*
X84170Y178075D01*
X84178Y178150D01*
Y176575D01*
D02*
G37*
G36*
X81185Y178075D02*
X81209Y178008D01*
X81249Y177949D01*
X81305Y177898D01*
X81377Y177854D01*
X81465Y177819D01*
X81568Y177791D01*
X81688Y177772D01*
X81824Y177760D01*
X81976Y177756D01*
Y176969D01*
X81824Y176965D01*
X81688Y176953D01*
X81568Y176933D01*
X81465Y176906D01*
X81377Y176870D01*
X81305Y176827D01*
X81249Y176776D01*
X81209Y176716D01*
X81185Y176650D01*
X81177Y176575D01*
Y178150D01*
X81185Y178075D01*
D02*
G37*
G36*
X86539Y175705D02*
X86472Y175681D01*
X86413Y175641D01*
X86362Y175585D01*
X86319Y175513D01*
X86283Y175425D01*
X86256Y175321D01*
X86236Y175201D01*
X86224Y175066D01*
X86221Y174914D01*
X85433D01*
X85429Y175066D01*
X85417Y175201D01*
X85398Y175321D01*
X85370Y175425D01*
X85335Y175513D01*
X85291Y175585D01*
X85240Y175641D01*
X85181Y175681D01*
X85114Y175705D01*
X85039Y175713D01*
X86614D01*
X86539Y175705D01*
D02*
G37*
G36*
X80240D02*
X80173Y175681D01*
X80114Y175641D01*
X80063Y175585D01*
X80020Y175513D01*
X79984Y175425D01*
X79957Y175321D01*
X79937Y175201D01*
X79925Y175066D01*
X79921Y174914D01*
X79134D01*
X79130Y175066D01*
X79118Y175201D01*
X79098Y175321D01*
X79071Y175425D01*
X79035Y175513D01*
X78992Y175585D01*
X78941Y175641D01*
X78882Y175681D01*
X78815Y175705D01*
X78740Y175713D01*
X80315D01*
X80240Y175705D01*
D02*
G37*
G36*
X79926Y174154D02*
X79939Y174047D01*
X79960Y173942D01*
X79991Y173840D01*
X80029Y173741D01*
X80077Y173645D01*
X80133Y173551D01*
X80198Y173459D01*
X80272Y173371D01*
X80354Y173284D01*
X78701D01*
X78783Y173371D01*
X78857Y173459D01*
X78922Y173551D01*
X78978Y173645D01*
X79026Y173741D01*
X79065Y173840D01*
X79095Y173942D01*
X79116Y174047D01*
X79129Y174154D01*
X79134Y174263D01*
X79921D01*
X79926Y174154D01*
D02*
G37*
G36*
X83797Y172675D02*
X83627Y172469D01*
X83557Y172367D01*
X83499Y172266D01*
X83451Y172165D01*
X83414Y172065D01*
X83387Y171966D01*
X83372Y171868D01*
X83366Y171770D01*
X82776D01*
X82770Y171868D01*
X82754Y171966D01*
X82728Y172065D01*
X82691Y172165D01*
X82643Y172266D01*
X82584Y172367D01*
X82515Y172469D01*
X82435Y172572D01*
X82345Y172675D01*
X82244Y172779D01*
X83898D01*
X83797Y172675D01*
D02*
G37*
G36*
X71991Y171614D02*
X71905Y171696D01*
X71816Y171770D01*
X71725Y171835D01*
X71631Y171891D01*
X71534Y171939D01*
X71435Y171978D01*
X71333Y172008D01*
X71229Y172030D01*
X71122Y172043D01*
X71012Y172047D01*
Y172835D01*
X71122Y172839D01*
X71229Y172852D01*
X71333Y172874D01*
X71435Y172904D01*
X71534Y172943D01*
X71631Y172991D01*
X71725Y173047D01*
X71816Y173112D01*
X71905Y173185D01*
X71991Y173268D01*
Y171614D01*
D02*
G37*
G36*
X90969Y168898D02*
X90961Y168972D01*
X90937Y169039D01*
X90897Y169098D01*
X90841Y169150D01*
X90769Y169193D01*
X90681Y169228D01*
X90577Y169256D01*
X90457Y169276D01*
X90321Y169287D01*
X90170Y169291D01*
Y170079D01*
X90321Y170083D01*
X90457Y170095D01*
X90577Y170114D01*
X90681Y170142D01*
X90769Y170177D01*
X90841Y170220D01*
X90897Y170272D01*
X90937Y170331D01*
X90961Y170398D01*
X90969Y170472D01*
Y168898D01*
D02*
G37*
G36*
X100388Y169432D02*
X100405Y169382D01*
X100435Y169338D01*
X100476Y169299D01*
X100529Y169267D01*
X100594Y169240D01*
X100671Y169220D01*
X100760Y169205D01*
X100860Y169196D01*
X100972Y169193D01*
Y168602D01*
X100860Y168599D01*
X100760Y168591D01*
X100671Y168576D01*
X100594Y168555D01*
X100529Y168528D01*
X100476Y168496D01*
X100435Y168458D01*
X100405Y168413D01*
X100388Y168363D01*
X100382Y168307D01*
Y169488D01*
X100388Y169432D01*
D02*
G37*
G36*
X99255Y167636D02*
X99205Y167618D01*
X99160Y167588D01*
X99122Y167546D01*
X99090Y167491D01*
X99063Y167425D01*
X99042Y167347D01*
X99028Y167256D01*
X99019Y167154D01*
X99016Y167040D01*
X98425D01*
X98422Y167154D01*
X98413Y167256D01*
X98399Y167347D01*
X98378Y167425D01*
X98351Y167491D01*
X98319Y167546D01*
X98281Y167588D01*
X98236Y167618D01*
X98186Y167636D01*
X98130Y167642D01*
X99311D01*
X99255Y167636D01*
D02*
G37*
G36*
X251519Y166102D02*
X251415Y166203D01*
X251209Y166373D01*
X251107Y166443D01*
X251006Y166501D01*
X250905Y166549D01*
X250806Y166586D01*
X250706Y166613D01*
X250608Y166629D01*
X250510Y166634D01*
Y167224D01*
X250608Y167230D01*
X250706Y167246D01*
X250806Y167272D01*
X250905Y167309D01*
X251006Y167357D01*
X251107Y167416D01*
X251209Y167485D01*
X251312Y167565D01*
X251415Y167655D01*
X251519Y167756D01*
Y166102D01*
D02*
G37*
G36*
X70987Y171398D02*
X71070Y171395D01*
X71124Y171388D01*
X71174Y171378D01*
X71223Y171363D01*
X71271Y171344D01*
X71320Y171321D01*
X71369Y171291D01*
X71420Y171255D01*
X71473Y171211D01*
X71543Y171144D01*
X71606Y171120D01*
X72140Y170763D01*
X72835Y170625D01*
X73530Y170763D01*
X73794Y170940D01*
X74294Y170672D01*
Y160884D01*
X74274Y160856D01*
X73784Y160755D01*
X47320D01*
X47254Y160785D01*
Y163946D01*
X39361D01*
Y156053D01*
X47254D01*
Y158900D01*
X47320Y158930D01*
X73784D01*
X74274Y158829D01*
X74294Y158800D01*
Y151769D01*
X73794Y151501D01*
X73530Y151678D01*
X72835Y151816D01*
X72140Y151678D01*
X71899Y151517D01*
X71768Y151488D01*
X71658Y151410D01*
X71452Y151284D01*
X71373Y151242D01*
X71295Y151206D01*
X71227Y151179D01*
X71168Y151161D01*
X71119Y151149D01*
X71081Y151144D01*
X71020Y151141D01*
X70954Y151110D01*
X48745D01*
X48693Y151138D01*
X48558Y151152D01*
X48432Y151187D01*
X48254Y151260D01*
X48031Y151376D01*
X47787Y151525D01*
X46395Y152602D01*
X45986Y152965D01*
X45877Y153003D01*
X45297Y153447D01*
X44337Y153845D01*
X43307Y153981D01*
X42277Y153845D01*
X41317Y153447D01*
X40492Y152815D01*
X39860Y151990D01*
X39462Y151030D01*
X39327Y150000D01*
X39462Y148970D01*
X39860Y148010D01*
X40492Y147185D01*
X41317Y146553D01*
X42277Y146155D01*
X43307Y146019D01*
X44337Y146155D01*
X45297Y146553D01*
X46122Y147185D01*
X46232Y147329D01*
X46314Y147369D01*
X46661Y147756D01*
X47300Y148401D01*
X47578Y148648D01*
X47839Y148854D01*
X48072Y149015D01*
X48276Y149131D01*
X48445Y149204D01*
X48572Y149240D01*
X48725Y149255D01*
X48778Y149284D01*
X70802D01*
X70837Y149262D01*
X70876Y149271D01*
X70912Y149253D01*
X70977Y149249D01*
X71002Y149245D01*
X71028Y149238D01*
X71057Y149225D01*
X71090Y149207D01*
X71129Y149180D01*
X71173Y149142D01*
X71222Y149092D01*
X71276Y149030D01*
X71344Y148938D01*
X71441Y148880D01*
X71551Y148716D01*
X72140Y148322D01*
X72835Y148184D01*
X73530Y148322D01*
X73794Y148499D01*
X74294Y148231D01*
Y140599D01*
X74284Y140551D01*
Y105797D01*
X74353Y105447D01*
X74551Y105151D01*
X86657Y93046D01*
X86953Y92848D01*
X87302Y92778D01*
X152278D01*
X173271Y71786D01*
X173567Y71588D01*
X173916Y71519D01*
X188214D01*
X198251Y61481D01*
X198276Y61413D01*
X198316Y61369D01*
X198341Y61336D01*
X198365Y61299D01*
X198440Y61151D01*
X198467Y61087D01*
X198580Y60733D01*
X198613Y60601D01*
X198680Y60510D01*
X198716Y60329D01*
X198746Y60284D01*
X198357Y59965D01*
X190677Y67646D01*
X190348Y67865D01*
X189961Y67942D01*
X169711D01*
X154496Y83157D01*
X154167Y83377D01*
X153779Y83454D01*
X140820D01*
X140753Y83484D01*
X140621Y83487D01*
X140561Y83492D01*
Y86387D01*
X132668D01*
Y78495D01*
X140561D01*
Y81389D01*
X140621Y81395D01*
X140753Y81398D01*
X140820Y81428D01*
X153360D01*
X160872Y73916D01*
X160680Y73454D01*
X142056D01*
X142004Y73481D01*
X141839Y73496D01*
X141695Y73532D01*
X141514Y73603D01*
X141298Y73713D01*
X141052Y73864D01*
X140793Y74048D01*
X139819Y74890D01*
X139461Y75244D01*
X139422Y75261D01*
X138604Y75888D01*
X137644Y76286D01*
X136614Y76421D01*
X135584Y76286D01*
X134624Y75888D01*
X133800Y75256D01*
X133167Y74431D01*
X132769Y73471D01*
X132634Y72441D01*
X132769Y71411D01*
X133167Y70451D01*
X133800Y69626D01*
X134624Y68994D01*
X135584Y68596D01*
X136614Y68460D01*
X137644Y68596D01*
X138604Y68994D01*
X139423Y69621D01*
X139461Y69637D01*
X139823Y69996D01*
X140490Y70596D01*
X140781Y70825D01*
X141052Y71018D01*
X141298Y71169D01*
X141514Y71279D01*
X141695Y71349D01*
X141839Y71386D01*
X142004Y71400D01*
X142056Y71428D01*
X161391D01*
X167994Y64825D01*
X168323Y64606D01*
X168710Y64529D01*
X187976D01*
X193780Y58724D01*
X193534Y58263D01*
X193307Y58308D01*
X94764D01*
X93348Y59724D01*
Y65612D01*
X93353Y65621D01*
X93348Y65650D01*
Y65846D01*
X93353Y65875D01*
X93348Y65884D01*
Y80315D01*
X93225Y80933D01*
X92874Y81457D01*
X88544Y85788D01*
X88020Y86138D01*
X87402Y86261D01*
X57536D01*
X57494Y86279D01*
X57146Y86286D01*
X56577Y86343D01*
X56390Y86384D01*
X56249Y86430D01*
X56212Y86448D01*
X56164Y87181D01*
X56161Y87522D01*
X56131Y87592D01*
Y88557D01*
X65283Y97709D01*
X65503Y98037D01*
X65580Y98425D01*
Y124803D01*
X65503Y125191D01*
X65283Y125520D01*
X61346Y129457D01*
X61018Y129676D01*
X60630Y129753D01*
X38609D01*
X35659Y132703D01*
Y169265D01*
X37821Y171428D01*
X70923D01*
X70987Y171398D01*
D02*
G37*
G36*
X46636Y160377D02*
X46654Y160327D01*
X46684Y160283D01*
X46726Y160244D01*
X46780Y160212D01*
X46847Y160185D01*
X46925Y160164D01*
X47015Y160150D01*
X47118Y160141D01*
X47232Y160138D01*
Y159547D01*
X47118Y159544D01*
X47015Y159535D01*
X46925Y159521D01*
X46847Y159500D01*
X46780Y159473D01*
X46726Y159441D01*
X46684Y159403D01*
X46654Y159358D01*
X46636Y159308D01*
X46630Y159252D01*
Y160433D01*
X46636Y160377D01*
D02*
G37*
G36*
X75502Y159843D02*
X74911Y158957D01*
X74905Y159069D01*
X74887Y159169D01*
X74858Y159258D01*
X74817Y159335D01*
X74763Y159400D01*
X74698Y159453D01*
X74622Y159494D01*
X74533Y159524D01*
X74433Y159541D01*
X74321Y159547D01*
Y160138D01*
X74433Y160144D01*
X74533Y160161D01*
X74622Y160191D01*
X74698Y160232D01*
X74763Y160285D01*
X74817Y160350D01*
X74858Y160427D01*
X74887Y160516D01*
X74905Y160616D01*
X74911Y160728D01*
X75502Y159843D01*
D02*
G37*
G36*
X83372Y151955D02*
X83390Y151854D01*
X83419Y151766D01*
X83461Y151689D01*
X83514Y151624D01*
X83579Y151571D01*
X83656Y151530D01*
X83744Y151500D01*
X83845Y151482D01*
X83957Y151476D01*
Y150886D01*
X83845Y150880D01*
X83744Y150862D01*
X83656Y150833D01*
X83579Y150791D01*
X83514Y150738D01*
X83461Y150673D01*
X83419Y150596D01*
X83390Y150508D01*
X83372Y150408D01*
X83366Y150295D01*
X82776Y151181D01*
X83366Y152067D01*
X83372Y151955D01*
D02*
G37*
G36*
X71865Y149325D02*
X71784Y149435D01*
X71700Y149533D01*
X71614Y149619D01*
X71526Y149694D01*
X71436Y149758D01*
X71343Y149809D01*
X71248Y149850D01*
X71150Y149879D01*
X71051Y149896D01*
X70949Y149902D01*
X71052Y150492D01*
X71144Y150497D01*
X71240Y150511D01*
X71339Y150534D01*
X71442Y150566D01*
X71549Y150608D01*
X71660Y150659D01*
X71775Y150719D01*
X72015Y150868D01*
X72141Y150956D01*
X71865Y149325D01*
D02*
G37*
G36*
X76698Y150774D02*
X76716Y150673D01*
X76745Y150585D01*
X76787Y150508D01*
X76840Y150443D01*
X76905Y150390D01*
X76982Y150348D01*
X77070Y150319D01*
X77084Y150317D01*
X77084Y150317D01*
X77184Y150343D01*
X77284Y150380D01*
X77384Y150428D01*
X77485Y150487D01*
X77587Y150556D01*
X77690Y150635D01*
X77793Y150726D01*
X77897Y150827D01*
Y149173D01*
X77793Y149274D01*
X77587Y149444D01*
X77485Y149513D01*
X77384Y149572D01*
X77284Y149620D01*
X77184Y149657D01*
X77084Y149683D01*
X77084Y149683D01*
X77070Y149681D01*
X76982Y149652D01*
X76905Y149610D01*
X76840Y149557D01*
X76787Y149492D01*
X76745Y149415D01*
X76716Y149327D01*
X76698Y149226D01*
X76692Y149114D01*
X76102Y150000D01*
X76692Y150886D01*
X76698Y150774D01*
D02*
G37*
G36*
X45980Y152102D02*
X47418Y150989D01*
X47712Y150810D01*
X47980Y150671D01*
X48221Y150572D01*
X48436Y150512D01*
X48625Y150492D01*
X48660Y149902D01*
X48452Y149881D01*
X48226Y149818D01*
X47985Y149713D01*
X47727Y149566D01*
X47452Y149377D01*
X47161Y149146D01*
X46853Y148873D01*
X46188Y148201D01*
X45831Y147802D01*
X45555Y152479D01*
X45980Y152102D01*
D02*
G37*
G36*
X91953Y147598D02*
X91947Y147654D01*
X91929Y147705D01*
X91899Y147749D01*
X91857Y147787D01*
X91803Y147820D01*
X91736Y147846D01*
X91658Y147867D01*
X91567Y147882D01*
X91465Y147891D01*
X91351Y147894D01*
Y148484D01*
X91465Y148487D01*
X91567Y148496D01*
X91658Y148511D01*
X91736Y148531D01*
X91803Y148558D01*
X91857Y148591D01*
X91899Y148629D01*
X91929Y148673D01*
X91947Y148723D01*
X91953Y148779D01*
Y147598D01*
D02*
G37*
G36*
X159843Y137354D02*
X159360Y137313D01*
Y137313D01*
X157687D01*
Y140462D01*
X154912D01*
Y137313D01*
X150680D01*
Y137106D01*
X133760D01*
Y155807D01*
X144046D01*
Y150886D01*
X144202Y149701D01*
X144659Y148598D01*
X145069Y148063D01*
Y146644D01*
X147007D01*
X147438Y146466D01*
X148622Y146310D01*
X149806Y146466D01*
X150237Y146644D01*
X152175D01*
Y148063D01*
X152585Y148598D01*
X153042Y149701D01*
X153198Y150886D01*
Y155807D01*
X159843D01*
Y137354D01*
D02*
G37*
G36*
X227445Y145550D02*
X227469Y145483D01*
X227509Y145424D01*
X227565Y145373D01*
X227637Y145330D01*
X227725Y145294D01*
X227829Y145267D01*
X227949Y145247D01*
X228084Y145235D01*
X228236Y145231D01*
Y144444D01*
X228084Y144440D01*
X227949Y144428D01*
X227829Y144408D01*
X227725Y144381D01*
X227637Y144345D01*
X227565Y144302D01*
X227509Y144251D01*
X227469Y144192D01*
X227445Y144125D01*
X227437Y144050D01*
Y145625D01*
X227445Y145550D01*
D02*
G37*
G36*
X92886Y135846D02*
X92495Y136235D01*
X91450Y137157D01*
X91145Y137382D01*
X90860Y137566D01*
X90597Y137709D01*
X90355Y137812D01*
X90134Y137873D01*
X89934Y137894D01*
Y138484D01*
X90134Y138505D01*
X90355Y138566D01*
X90597Y138669D01*
X90860Y138812D01*
X91145Y138996D01*
X91450Y139221D01*
X92125Y139795D01*
X92886Y140532D01*
Y135846D01*
D02*
G37*
G36*
X98347Y139606D02*
X98810Y139007D01*
X99040Y138764D01*
X99268Y138558D01*
X99496Y138390D01*
X99722Y138259D01*
X99947Y138165D01*
X100171Y138109D01*
X100394Y138091D01*
Y137500D01*
X100178Y137483D01*
X99948Y137432D01*
X99705Y137347D01*
X99449Y137228D01*
X99178Y137076D01*
X98894Y136889D01*
X98596Y136668D01*
X97960Y136125D01*
X97621Y135802D01*
X98114Y139961D01*
X98347Y139606D01*
D02*
G37*
G36*
X156834Y129238D02*
X156783Y129221D01*
X156739Y129191D01*
X156701Y129150D01*
X156668Y129097D01*
X156642Y129032D01*
X156621Y128955D01*
X156606Y128866D01*
X156597Y128766D01*
X156595Y128654D01*
X156004D01*
X156001Y128766D01*
X155992Y128866D01*
X155977Y128955D01*
X155957Y129032D01*
X155930Y129097D01*
X155898Y129150D01*
X155859Y129191D01*
X155815Y129221D01*
X155765Y129238D01*
X155709Y129244D01*
X156890D01*
X156834Y129238D01*
D02*
G37*
G36*
X331102Y133659D02*
X331102Y121358D01*
X163200Y121358D01*
X162424Y122135D01*
X162397Y122206D01*
X162196Y122422D01*
X162141Y122491D01*
X162121Y122521D01*
X162153Y122599D01*
X162133Y122648D01*
X162145Y122700D01*
X162116Y122749D01*
Y125698D01*
X157569D01*
X157212Y126043D01*
Y128566D01*
X157242Y128632D01*
X157687D01*
Y131782D01*
X159360D01*
Y133594D01*
X165778Y133610D01*
X166132Y133257D01*
Y133160D01*
X171269D01*
Y133623D01*
X304603Y133948D01*
X304787Y133449D01*
X304064Y132507D01*
X303548Y131260D01*
X303372Y129921D01*
X303548Y128583D01*
X304064Y127335D01*
X304886Y126264D01*
X305957Y125442D01*
X307205Y124926D01*
X308543Y124750D01*
X309882Y124926D01*
X311129Y125442D01*
X312200Y126264D01*
X313022Y127335D01*
X313539Y128583D01*
X313715Y129921D01*
X313539Y131260D01*
X313022Y132507D01*
X312286Y133467D01*
X312450Y133967D01*
X330748Y134012D01*
X331102Y133659D01*
D02*
G37*
G36*
X161470Y122553D02*
X161454Y122499D01*
Y122436D01*
X161470Y122365D01*
X161504Y122286D01*
X161554Y122198D01*
X161621Y122102D01*
X161704Y121998D01*
X161921Y121764D01*
X161504Y121346D01*
X161383Y121463D01*
X161165Y121647D01*
X161070Y121714D01*
X160982Y121764D01*
X160902Y121797D01*
X160831Y121814D01*
X160769D01*
X160714Y121797D01*
X160669Y121764D01*
X161504Y122599D01*
X161470Y122553D01*
D02*
G37*
G36*
X177464Y118771D02*
X177472Y118669D01*
X177487Y118578D01*
X177508Y118500D01*
X177534Y118434D01*
X177567Y118379D01*
X177605Y118337D01*
X177650Y118307D01*
X177700Y118289D01*
X177756Y118283D01*
X176575D01*
X176631Y118289D01*
X176681Y118307D01*
X176725Y118337D01*
X176764Y118379D01*
X176796Y118434D01*
X176823Y118500D01*
X176844Y118578D01*
X176858Y118669D01*
X176867Y118771D01*
X176870Y118886D01*
X177461D01*
X177464Y118771D01*
D02*
G37*
G36*
X183802Y114979D02*
X183752Y114961D01*
X183708Y114930D01*
X183669Y114888D01*
X183637Y114834D01*
X183610Y114768D01*
X183589Y114689D01*
X183575Y114599D01*
X183566Y114497D01*
X183563Y114382D01*
X182972D01*
X182969Y114497D01*
X182961Y114599D01*
X182946Y114689D01*
X182925Y114768D01*
X182899Y114834D01*
X182866Y114888D01*
X182828Y114930D01*
X182783Y114961D01*
X182733Y114979D01*
X182677Y114985D01*
X183858D01*
X183802Y114979D01*
D02*
G37*
G36*
X183566Y112866D02*
X183575Y112763D01*
X183589Y112673D01*
X183610Y112594D01*
X183637Y112528D01*
X183669Y112474D01*
X183708Y112432D01*
X183752Y112402D01*
X183802Y112384D01*
X183858Y112378D01*
X182677D01*
X182733Y112384D01*
X182783Y112402D01*
X182828Y112432D01*
X182866Y112474D01*
X182899Y112528D01*
X182925Y112594D01*
X182946Y112673D01*
X182961Y112763D01*
X182969Y112866D01*
X182972Y112980D01*
X183563D01*
X183566Y112866D01*
D02*
G37*
G36*
X184688Y109857D02*
X184672Y109804D01*
X184674Y109742D01*
X184692Y109671D01*
X184726Y109592D01*
X184777Y109504D01*
X184845Y109408D01*
X184930Y109303D01*
X185150Y109067D01*
X184732Y108650D01*
X184610Y108768D01*
X184391Y108954D01*
X184295Y109022D01*
X184207Y109073D01*
X184128Y109108D01*
X184057Y109126D01*
X183995Y109127D01*
X183942Y109111D01*
X183897Y109079D01*
X184720Y109902D01*
X184688Y109857D01*
D02*
G37*
G36*
X216929Y72835D02*
X215190D01*
X215098Y73299D01*
X214835Y73693D01*
Y73945D01*
X215098Y74339D01*
X215190Y74803D01*
X215098Y75268D01*
X214835Y75661D01*
X214441Y75924D01*
X213976Y76017D01*
X208858D01*
X208394Y75924D01*
X208000Y75661D01*
X207737Y75268D01*
X207644Y74803D01*
X207737Y74339D01*
X208000Y73945D01*
Y73693D01*
X207737Y73299D01*
X207644Y72835D01*
X201181D01*
Y87008D01*
X210420D01*
X210582Y86811D01*
X210735Y86039D01*
X211172Y85385D01*
X211827Y84948D01*
X212598Y84794D01*
X213370Y84948D01*
X214024Y85385D01*
X214462Y86039D01*
X214615Y86811D01*
X214777Y87008D01*
X216929D01*
Y72835D01*
D02*
G37*
G36*
X55515Y87158D02*
X55580Y86159D01*
X55590Y86134D01*
X55689Y86016D01*
X55827Y85913D01*
X56004Y85827D01*
X56221Y85756D01*
X56476Y85701D01*
X57106Y85638D01*
X57480Y85630D01*
Y83661D01*
X57106Y83653D01*
X56772Y83630D01*
X56476Y83591D01*
X56221Y83535D01*
X56004Y83465D01*
X55827Y83378D01*
X55689Y83276D01*
X55590Y83157D01*
X55575Y83121D01*
X55539Y82757D01*
X55515Y82134D01*
X55512Y81775D01*
X54724D01*
X54721Y82134D01*
X54649Y83255D01*
X54615Y83457D01*
X54576Y83627D01*
X54531Y83766D01*
X54479Y83874D01*
X54422Y83950D01*
X55033D01*
X54724Y84646D01*
X55033Y85341D01*
X54422D01*
X54479Y85417D01*
X54531Y85525D01*
X54576Y85664D01*
X54615Y85835D01*
X54649Y86036D01*
X54697Y86534D01*
X54721Y87158D01*
X54724Y87516D01*
X55512D01*
X55515Y87158D01*
D02*
G37*
G36*
X139945Y83153D02*
X139969Y83087D01*
X140009Y83027D01*
X140065Y82976D01*
X140137Y82933D01*
X140224Y82898D01*
X140328Y82870D01*
X140448Y82850D01*
X140584Y82839D01*
X140736Y82835D01*
Y82047D01*
X140584Y82043D01*
X140448Y82032D01*
X140328Y82012D01*
X140224Y81984D01*
X140137Y81949D01*
X140065Y81906D01*
X140009Y81854D01*
X139969Y81795D01*
X139945Y81728D01*
X139937Y81653D01*
Y83228D01*
X139945Y83153D01*
D02*
G37*
G36*
X80918Y77374D02*
X80898Y77409D01*
X80839Y77441D01*
X80740Y77469D01*
X80603Y77492D01*
X80425Y77513D01*
X79658Y77552D01*
X78949Y77559D01*
Y79527D01*
X79323Y79529D01*
X80740Y79618D01*
X80839Y79646D01*
X80898Y79677D01*
X80918Y79712D01*
Y77374D01*
D02*
G37*
G36*
X76577Y76563D02*
X76186Y76158D01*
X75571Y75433D01*
X75347Y75112D01*
X75179Y74820D01*
X75066Y74555D01*
X75009Y74319D01*
X75008Y74111D01*
X75063Y73931D01*
X75173Y73779D01*
X72401Y76551D01*
X72553Y76441D01*
X72733Y76386D01*
X72941Y76387D01*
X73177Y76444D01*
X73442Y76557D01*
X73734Y76725D01*
X74055Y76949D01*
X74403Y77228D01*
X75185Y77955D01*
X76577Y76563D01*
D02*
G37*
G36*
X73941Y72654D02*
X73874Y72630D01*
X73815Y72590D01*
X73764Y72534D01*
X73721Y72462D01*
X73685Y72374D01*
X73658Y72270D01*
X73638Y72150D01*
X73626Y72014D01*
X73622Y71862D01*
X72835D01*
X72831Y72014D01*
X72819Y72150D01*
X72799Y72270D01*
X72772Y72374D01*
X72736Y72462D01*
X72693Y72534D01*
X72642Y72590D01*
X72583Y72630D01*
X72516Y72654D01*
X72441Y72662D01*
X74016D01*
X73941Y72654D01*
D02*
G37*
G36*
X211952Y72251D02*
X211902Y72233D01*
X211857Y72202D01*
X211819Y72160D01*
X211786Y72106D01*
X211760Y72040D01*
X211739Y71961D01*
X211724Y71871D01*
X211723Y71850D01*
X211724Y71830D01*
X211739Y71739D01*
X211760Y71661D01*
X211786Y71595D01*
X211819Y71540D01*
X211857Y71498D01*
X211902Y71468D01*
X211952Y71450D01*
X212008Y71444D01*
X210827D01*
X210883Y71450D01*
X210933Y71468D01*
X210977Y71498D01*
X211016Y71540D01*
X211048Y71595D01*
X211075Y71661D01*
X211095Y71739D01*
X211110Y71830D01*
X211112Y71850D01*
X211110Y71871D01*
X211095Y71961D01*
X211075Y72040D01*
X211048Y72106D01*
X211016Y72160D01*
X210977Y72202D01*
X210933Y72233D01*
X210883Y72251D01*
X210827Y72257D01*
X212008D01*
X211952Y72251D01*
D02*
G37*
G36*
X139377Y74413D02*
X140392Y73536D01*
X140694Y73322D01*
X140980Y73146D01*
X141247Y73010D01*
X141498Y72913D01*
X141730Y72854D01*
X141945Y72835D01*
Y72047D01*
X141730Y72028D01*
X141498Y71969D01*
X141247Y71872D01*
X140980Y71735D01*
X140694Y71560D01*
X140392Y71346D01*
X140071Y71092D01*
X139377Y70469D01*
X139004Y70098D01*
Y74783D01*
X139377Y74413D01*
D02*
G37*
G36*
X83933Y71843D02*
X83835Y71784D01*
X83748Y71685D01*
X83673Y71547D01*
X83609Y71370D01*
X83557Y71154D01*
X83517Y70898D01*
X83488Y70603D01*
X83465Y69894D01*
X81496D01*
X81490Y70268D01*
X81444Y70898D01*
X81403Y71154D01*
X81351Y71370D01*
X81288Y71547D01*
X81213Y71685D01*
X81126Y71784D01*
X81027Y71843D01*
X80918Y71862D01*
X84043D01*
X83933Y71843D01*
D02*
G37*
G36*
X211952Y70282D02*
X211902Y70264D01*
X211857Y70234D01*
X211819Y70192D01*
X211786Y70138D01*
X211760Y70071D01*
X211739Y69993D01*
X211724Y69903D01*
X211723Y69882D01*
X211724Y69861D01*
X211739Y69771D01*
X211760Y69692D01*
X211786Y69626D01*
X211819Y69572D01*
X211857Y69530D01*
X211902Y69500D01*
X211952Y69481D01*
X212008Y69476D01*
X210827D01*
X210883Y69481D01*
X210933Y69500D01*
X210977Y69530D01*
X211016Y69572D01*
X211048Y69626D01*
X211075Y69692D01*
X211095Y69771D01*
X211110Y69861D01*
X211112Y69882D01*
X211110Y69903D01*
X211095Y69993D01*
X211075Y70071D01*
X211048Y70138D01*
X211016Y70192D01*
X210977Y70234D01*
X210933Y70264D01*
X210883Y70282D01*
X210827Y70288D01*
X212008D01*
X211952Y70282D01*
D02*
G37*
G36*
X73626Y69551D02*
X73637Y69429D01*
X73654Y69315D01*
X73680Y69211D01*
X73712Y69115D01*
X73752Y69027D01*
X73798Y68949D01*
X73852Y68879D01*
X73914Y68818D01*
X73982Y68765D01*
X72475D01*
X72543Y68818D01*
X72604Y68879D01*
X72658Y68949D01*
X72705Y69027D01*
X72745Y69115D01*
X72777Y69211D01*
X72802Y69315D01*
X72820Y69429D01*
X72831Y69551D01*
X72835Y69682D01*
X73622D01*
X73626Y69551D01*
D02*
G37*
G36*
X83474Y69102D02*
X83503Y68767D01*
X83552Y68472D01*
X83620Y68216D01*
X83708Y68000D01*
X83815Y67823D01*
X83941Y67685D01*
X84087Y67586D01*
X84252Y67527D01*
X84437Y67508D01*
X80524D01*
X80708Y67527D01*
X80874Y67586D01*
X81020Y67685D01*
X81146Y67823D01*
X81253Y68000D01*
X81340Y68216D01*
X81409Y68472D01*
X81457Y68767D01*
X81486Y69102D01*
X81496Y69476D01*
X83465D01*
X83474Y69102D01*
D02*
G37*
G36*
X211952Y68314D02*
X211902Y68296D01*
X211857Y68265D01*
X211819Y68223D01*
X211786Y68169D01*
X211760Y68103D01*
X211739Y68024D01*
X211724Y67934D01*
X211723Y67913D01*
X211724Y67893D01*
X211739Y67802D01*
X211760Y67724D01*
X211786Y67658D01*
X211819Y67603D01*
X211857Y67561D01*
X211902Y67531D01*
X211952Y67513D01*
X212008Y67507D01*
X210827D01*
X210883Y67513D01*
X210933Y67531D01*
X210977Y67561D01*
X211016Y67603D01*
X211048Y67658D01*
X211075Y67724D01*
X211095Y67802D01*
X211110Y67893D01*
X211112Y67913D01*
X211110Y67934D01*
X211095Y68024D01*
X211075Y68103D01*
X211048Y68169D01*
X211016Y68223D01*
X210977Y68265D01*
X210933Y68296D01*
X210883Y68314D01*
X210827Y68320D01*
X212008D01*
X211952Y68314D01*
D02*
G37*
G36*
X55516Y66470D02*
X55528Y66334D01*
X55547Y66214D01*
X55575Y66110D01*
X55610Y66022D01*
X55654Y65950D01*
X55705Y65894D01*
X55764Y65854D01*
X55831Y65830D01*
X55905Y65822D01*
X54331D01*
X54405Y65830D01*
X54472Y65854D01*
X54532Y65894D01*
X54583Y65950D01*
X54626Y66022D01*
X54661Y66110D01*
X54689Y66214D01*
X54709Y66334D01*
X54720Y66470D01*
X54724Y66622D01*
X55512D01*
X55516Y66470D01*
D02*
G37*
G36*
X211952Y66345D02*
X211902Y66327D01*
X211857Y66297D01*
X211819Y66255D01*
X211786Y66201D01*
X211760Y66134D01*
X211739Y66056D01*
X211724Y65966D01*
X211723Y65945D01*
X211724Y65924D01*
X211739Y65834D01*
X211760Y65755D01*
X211786Y65689D01*
X211819Y65635D01*
X211857Y65593D01*
X211902Y65563D01*
X211952Y65544D01*
X212008Y65539D01*
X210827D01*
X210883Y65544D01*
X210933Y65563D01*
X210977Y65593D01*
X211016Y65635D01*
X211048Y65689D01*
X211075Y65755D01*
X211095Y65834D01*
X211110Y65924D01*
X211112Y65945D01*
X211110Y65966D01*
X211095Y66056D01*
X211075Y66134D01*
X211048Y66201D01*
X211016Y66255D01*
X210977Y66297D01*
X210933Y66327D01*
X210883Y66345D01*
X210827Y66351D01*
X212008D01*
X211952Y66345D01*
D02*
G37*
G36*
X80536Y65158D02*
X80528Y65232D01*
X80504Y65299D01*
X80464Y65358D01*
X80408Y65409D01*
X80336Y65453D01*
X80248Y65488D01*
X80144Y65516D01*
X80024Y65535D01*
X79888Y65547D01*
X79736Y65551D01*
Y66339D01*
X79888Y66343D01*
X80024Y66354D01*
X80144Y66374D01*
X80248Y66402D01*
X80336Y66437D01*
X80408Y66480D01*
X80464Y66531D01*
X80504Y66590D01*
X80528Y66658D01*
X80536Y66732D01*
Y65158D01*
D02*
G37*
G36*
X76666Y66658D02*
X76690Y66590D01*
X76730Y66531D01*
X76786Y66480D01*
X76858Y66437D01*
X76946Y66402D01*
X77049Y66374D01*
X77169Y66354D01*
X77305Y66343D01*
X77457Y66339D01*
Y65551D01*
X77305Y65547D01*
X77169Y65535D01*
X77049Y65516D01*
X76946Y65488D01*
X76858Y65453D01*
X76786Y65409D01*
X76730Y65358D01*
X76690Y65299D01*
X76666Y65232D01*
X76658Y65158D01*
Y66732D01*
X76666Y66658D01*
D02*
G37*
G36*
X84456Y67360D02*
X84516Y67229D01*
X84614Y67112D01*
X84752Y67011D01*
X84929Y66926D01*
X85145Y66856D01*
X85401Y66802D01*
X85697Y66763D01*
X86031Y66740D01*
X86405Y66732D01*
Y64764D01*
X86031Y64756D01*
X85401Y64694D01*
X85145Y64640D01*
X84929Y64570D01*
X84752Y64485D01*
X84614Y64384D01*
X84516Y64267D01*
X84456Y64136D01*
X84437Y63988D01*
Y67508D01*
X84456Y67360D01*
D02*
G37*
G36*
X211952Y64377D02*
X211902Y64359D01*
X211857Y64328D01*
X211819Y64286D01*
X211786Y64232D01*
X211760Y64166D01*
X211739Y64087D01*
X211724Y63997D01*
X211723Y63976D01*
X211724Y63956D01*
X211739Y63865D01*
X211760Y63787D01*
X211786Y63721D01*
X211819Y63666D01*
X211857Y63624D01*
X211902Y63594D01*
X211952Y63576D01*
X212008Y63570D01*
X210827D01*
X210883Y63576D01*
X210933Y63594D01*
X210977Y63624D01*
X211016Y63666D01*
X211048Y63721D01*
X211075Y63787D01*
X211095Y63865D01*
X211110Y63956D01*
X211112Y63976D01*
X211110Y63997D01*
X211095Y64087D01*
X211075Y64166D01*
X211048Y64232D01*
X211016Y64286D01*
X210977Y64328D01*
X210933Y64359D01*
X210883Y64377D01*
X210827Y64383D01*
X212008D01*
X211952Y64377D01*
D02*
G37*
G36*
X204877Y64839D02*
X204959Y64780D01*
X205047Y64729D01*
X205144Y64685D01*
X205249Y64648D01*
X205362Y64617D01*
X205483Y64594D01*
X205612Y64578D01*
X205749Y64569D01*
X205894Y64567D01*
X204725Y63398D01*
X204722Y63542D01*
X204697Y63808D01*
X204674Y63929D01*
X204644Y64042D01*
X204607Y64147D01*
X204562Y64244D01*
X204511Y64333D01*
X204452Y64414D01*
X204387Y64487D01*
X204805Y64904D01*
X204877Y64839D01*
D02*
G37*
G36*
X92716Y65748D02*
X90748Y62795D01*
X90728Y63169D01*
X90669Y63504D01*
X90571Y63799D01*
X90433Y64055D01*
X90256Y64272D01*
X90039Y64449D01*
X89784Y64587D01*
X89488Y64685D01*
X89153Y64744D01*
X88779Y64764D01*
Y66732D01*
X89153Y66752D01*
X89488Y66811D01*
X89784Y66909D01*
X90039Y67047D01*
X90256Y67224D01*
X90433Y67441D01*
X90571Y67697D01*
X90669Y67992D01*
X90728Y68327D01*
X90748Y68701D01*
X92716Y65748D01*
D02*
G37*
G36*
X199147Y62303D02*
X199230Y62245D01*
X199318Y62198D01*
X199413Y62161D01*
X199514Y62135D01*
X199620Y62120D01*
X199732Y62116D01*
X199850Y62123D01*
X199974Y62140D01*
X200104Y62169D01*
X199243Y60757D01*
X199205Y60910D01*
X199077Y61310D01*
X199030Y61424D01*
X198928Y61624D01*
X198873Y61708D01*
X198816Y61784D01*
X198757Y61849D01*
X199069Y62372D01*
X199147Y62303D01*
D02*
G37*
G36*
X203450Y60022D02*
X203466Y59923D01*
X203493Y59824D01*
X203530Y59724D01*
X203578Y59624D01*
X203636Y59523D01*
X203705Y59421D01*
X203785Y59318D01*
X203875Y59215D01*
X203976Y59111D01*
X202323D01*
X202424Y59215D01*
X202594Y59421D01*
X202663Y59523D01*
X202722Y59624D01*
X202769Y59724D01*
X202806Y59824D01*
X202833Y59923D01*
X202849Y60022D01*
X202854Y60120D01*
X203445D01*
X203450Y60022D01*
D02*
G37*
G36*
X222806Y58510D02*
X222730Y58557D01*
X222652Y58600D01*
X222571Y58637D01*
X222488Y58670D01*
X222403Y58697D01*
X222316Y58720D01*
X222226Y58737D01*
X222134Y58750D01*
X222039Y58757D01*
X221942Y58760D01*
Y59350D01*
X222039Y59353D01*
X222134Y59360D01*
X222226Y59373D01*
X222316Y59390D01*
X222403Y59413D01*
X222488Y59440D01*
X222571Y59473D01*
X222652Y59510D01*
X222730Y59553D01*
X222806Y59600D01*
Y58510D01*
D02*
G37*
G36*
X219452Y59781D02*
X219657Y59611D01*
X219759Y59542D01*
X219860Y59483D01*
X219961Y59436D01*
X220061Y59398D01*
X220160Y59372D01*
X220259Y59356D01*
X220356Y59351D01*
X220356Y58760D01*
X220258Y58755D01*
X220160Y58739D01*
X220061Y58712D01*
X219961Y58675D01*
X219860Y58627D01*
X219759Y58569D01*
X219657Y58500D01*
X219555Y58420D01*
X219451Y58329D01*
X219348Y58228D01*
X219348Y59882D01*
X219452Y59781D01*
D02*
G37*
G36*
X219371Y56663D02*
X219313Y56600D01*
X219257Y56526D01*
X219202Y56443D01*
X219148Y56350D01*
X219096Y56247D01*
X218994Y56009D01*
X218946Y55876D01*
X218851Y55578D01*
X218067Y57033D01*
X218192Y56999D01*
X218313Y56977D01*
X218427Y56966D01*
X218537Y56966D01*
X218641Y56978D01*
X218740Y57002D01*
X218834Y57037D01*
X218922Y57083D01*
X219005Y57141D01*
X219083Y57210D01*
X219371Y56663D01*
D02*
G37*
G36*
X222806Y56542D02*
X222730Y56589D01*
X222652Y56631D01*
X222571Y56669D01*
X222488Y56701D01*
X222403Y56729D01*
X222316Y56751D01*
X222226Y56769D01*
X222134Y56781D01*
X222039Y56789D01*
X221942Y56791D01*
Y57382D01*
X222039Y57384D01*
X222134Y57392D01*
X222226Y57404D01*
X222316Y57422D01*
X222403Y57444D01*
X222488Y57472D01*
X222571Y57504D01*
X222652Y57542D01*
X222730Y57584D01*
X222806Y57632D01*
Y56542D01*
D02*
G37*
G36*
X206206Y57266D02*
X206222Y57168D01*
X206249Y57068D01*
X206286Y56968D01*
X206334Y56868D01*
X206392Y56767D01*
X206461Y56665D01*
X206541Y56562D01*
X206631Y56459D01*
X206732Y56355D01*
X205079D01*
X205180Y56459D01*
X205350Y56665D01*
X205419Y56767D01*
X205477Y56868D01*
X205525Y56968D01*
X205562Y57068D01*
X205589Y57168D01*
X205605Y57266D01*
X205610Y57364D01*
X206201D01*
X206206Y57266D01*
D02*
G37*
G36*
X222806Y50636D02*
X222730Y50683D01*
X222652Y50726D01*
X222571Y50763D01*
X222488Y50796D01*
X222403Y50823D01*
X222316Y50846D01*
X222226Y50863D01*
X222134Y50876D01*
X222039Y50883D01*
X221942Y50886D01*
Y51476D01*
X222039Y51479D01*
X222134Y51486D01*
X222226Y51499D01*
X222316Y51516D01*
X222403Y51539D01*
X222488Y51566D01*
X222571Y51599D01*
X222652Y51636D01*
X222730Y51679D01*
X222806Y51726D01*
Y50636D01*
D02*
G37*
G36*
X208632D02*
X208582Y50665D01*
X208520Y50691D01*
X208448Y50713D01*
X208365Y50733D01*
X208271Y50750D01*
X208050Y50774D01*
X207786Y50786D01*
X207638Y50787D01*
Y51575D01*
X207786Y51576D01*
X208271Y51613D01*
X208365Y51629D01*
X208448Y51649D01*
X208520Y51672D01*
X208582Y51697D01*
X208632Y51726D01*
Y50636D01*
D02*
G37*
G36*
X222614Y48796D02*
X222581Y48837D01*
X222538Y48875D01*
X222487Y48908D01*
X222428Y48937D01*
X222360Y48961D01*
X222283Y48981D01*
X222198Y48996D01*
X222104Y49007D01*
X222001Y49014D01*
X221890Y49016D01*
X222008Y49606D01*
X222119Y49608D01*
X222410Y49630D01*
X222493Y49644D01*
X222569Y49661D01*
X222639Y49680D01*
X222701Y49703D01*
X222757Y49729D01*
X222806Y49758D01*
X222614Y48796D01*
D02*
G37*
G36*
X208632Y48668D02*
X208582Y48696D01*
X208520Y48722D01*
X208448Y48745D01*
X208365Y48764D01*
X208271Y48781D01*
X208050Y48805D01*
X207786Y48817D01*
X207638Y48819D01*
Y49606D01*
X207786Y49608D01*
X208271Y49644D01*
X208365Y49661D01*
X208448Y49680D01*
X208520Y49703D01*
X208582Y49729D01*
X208632Y49758D01*
Y48668D01*
D02*
G37*
G36*
X219613Y49609D02*
X219936Y49094D01*
X219998Y49011D01*
X220120Y48866D01*
X220179Y48804D01*
X220041Y48107D01*
X219960Y48179D01*
X219878Y48237D01*
X219793Y48280D01*
X219707Y48309D01*
X219618Y48323D01*
X219527Y48324D01*
X219433Y48309D01*
X219338Y48281D01*
X219240Y48238D01*
X219140Y48180D01*
X219546Y49732D01*
X219613Y49609D01*
D02*
G37*
G36*
X222806Y46699D02*
X222730Y46747D01*
X222652Y46789D01*
X222571Y46826D01*
X222488Y46859D01*
X222403Y46886D01*
X222316Y46909D01*
X222226Y46926D01*
X222134Y46939D01*
X222039Y46946D01*
X221942Y46949D01*
Y47539D01*
X222039Y47542D01*
X222134Y47549D01*
X222226Y47562D01*
X222316Y47579D01*
X222403Y47602D01*
X222488Y47629D01*
X222571Y47662D01*
X222652Y47699D01*
X222730Y47742D01*
X222806Y47789D01*
Y46699D01*
D02*
G37*
G36*
X220081Y45538D02*
X220092Y45423D01*
X220111Y45313D01*
X220138Y45207D01*
X220172Y45105D01*
X220215Y45007D01*
X220265Y44914D01*
X220324Y44824D01*
X220390Y44740D01*
X220464Y44659D01*
X219908Y44102D01*
X219827Y44177D01*
X219742Y44243D01*
X219653Y44302D01*
X219560Y44352D01*
X219462Y44395D01*
X219360Y44429D01*
X219254Y44456D01*
X219143Y44475D01*
X219029Y44486D01*
X218910Y44488D01*
X220079Y45658D01*
X220081Y45538D01*
D02*
G37*
G36*
X222806Y42762D02*
X222755Y42791D01*
X222693Y42817D01*
X222621Y42839D01*
X222538Y42859D01*
X222444Y42876D01*
X222223Y42900D01*
X221959Y42912D01*
X221811Y42913D01*
Y43701D01*
X221959Y43702D01*
X222444Y43739D01*
X222538Y43755D01*
X222621Y43775D01*
X222693Y43798D01*
X222755Y43823D01*
X222806Y43852D01*
Y42762D01*
D02*
G37*
G36*
X219288Y42691D02*
X219366Y42468D01*
X219412Y42363D01*
X219462Y42263D01*
X219516Y42168D01*
X219575Y42078D01*
X219638Y41992D01*
X219706Y41911D01*
X219778Y41835D01*
X219378Y41121D01*
X219295Y41197D01*
X219209Y41262D01*
X219120Y41316D01*
X219028Y41359D01*
X218934Y41391D01*
X218837Y41411D01*
X218738Y41420D01*
X218635Y41418D01*
X218530Y41405D01*
X218423Y41381D01*
X219255Y42810D01*
X219288Y42691D01*
D02*
G37*
G36*
X222806Y40794D02*
X222755Y40822D01*
X222693Y40848D01*
X222621Y40871D01*
X222538Y40890D01*
X222444Y40907D01*
X222223Y40931D01*
X221959Y40943D01*
X221811Y40945D01*
Y41732D01*
X221959Y41734D01*
X222444Y41770D01*
X222538Y41787D01*
X222621Y41806D01*
X222693Y41829D01*
X222755Y41855D01*
X222806Y41884D01*
Y40794D01*
D02*
G37*
G36*
X252515Y42004D02*
X252596Y41946D01*
X252685Y41895D01*
X252782Y41850D01*
X252887Y41813D01*
X253000Y41783D01*
X253121Y41759D01*
X253250Y41743D01*
X253387Y41734D01*
X253532Y41732D01*
X252362Y40563D01*
X252360Y40708D01*
X252335Y40974D01*
X252312Y41094D01*
X252282Y41207D01*
X252244Y41312D01*
X252200Y41409D01*
X252149Y41498D01*
X252090Y41579D01*
X252025Y41652D01*
X252442Y42070D01*
X252515Y42004D01*
D02*
G37*
G36*
X73914Y40237D02*
X73852Y40176D01*
X73798Y40106D01*
X73752Y40028D01*
X73712Y39941D01*
X73680Y39845D01*
X73654Y39740D01*
X73637Y39627D01*
X73626Y39504D01*
X73622Y39374D01*
X72835D01*
X72831Y39504D01*
X72820Y39627D01*
X72802Y39740D01*
X72777Y39845D01*
X72745Y39941D01*
X72705Y40028D01*
X72658Y40106D01*
X72604Y40176D01*
X72543Y40237D01*
X72475Y40290D01*
X73982D01*
X73914Y40237D01*
D02*
G37*
G36*
X71355D02*
X71293Y40176D01*
X71239Y40106D01*
X71193Y40028D01*
X71153Y39941D01*
X71121Y39845D01*
X71095Y39740D01*
X71077Y39627D01*
X71067Y39504D01*
X71063Y39374D01*
X70276D01*
X70272Y39504D01*
X70261Y39627D01*
X70243Y39740D01*
X70218Y39845D01*
X70186Y39941D01*
X70146Y40028D01*
X70099Y40106D01*
X70045Y40176D01*
X69984Y40237D01*
X69916Y40290D01*
X71423D01*
X71355Y40237D01*
D02*
G37*
G36*
X228451Y39868D02*
X228530Y39825D01*
X228610Y39788D01*
X228693Y39755D01*
X228778Y39728D01*
X228866Y39705D01*
X228955Y39688D01*
X229047Y39675D01*
X229142Y39668D01*
X229239Y39665D01*
Y39075D01*
X229142Y39072D01*
X229047Y39065D01*
X228955Y39052D01*
X228866Y39035D01*
X228778Y39012D01*
X228693Y38985D01*
X228610Y38952D01*
X228530Y38915D01*
X228451Y38873D01*
X228375Y38825D01*
Y39915D01*
X228451Y39868D01*
D02*
G37*
G36*
X248998Y39904D02*
X249016Y39854D01*
X249046Y39810D01*
X249088Y39772D01*
X249142Y39739D01*
X249209Y39713D01*
X249287Y39692D01*
X249377Y39677D01*
X249480Y39668D01*
X249594Y39665D01*
Y39075D01*
X249480Y39072D01*
X249377Y39063D01*
X249287Y39048D01*
X249209Y39028D01*
X249142Y39001D01*
X249088Y38969D01*
X249046Y38930D01*
X249016Y38886D01*
X248998Y38836D01*
X248992Y38780D01*
Y39961D01*
X248998Y39904D01*
D02*
G37*
G36*
X245103Y38780D02*
X245097Y38836D01*
X245079Y38886D01*
X245048Y38930D01*
X245006Y38969D01*
X244952Y39001D01*
X244886Y39028D01*
X244808Y39048D01*
X244717Y39063D01*
X244615Y39072D01*
X244500Y39075D01*
Y39665D01*
X244615Y39668D01*
X244717Y39677D01*
X244808Y39692D01*
X244886Y39713D01*
X244952Y39739D01*
X245006Y39772D01*
X245048Y39810D01*
X245079Y39854D01*
X245097Y39904D01*
X245103Y39961D01*
Y38780D01*
D02*
G37*
G36*
X228451Y37899D02*
X228530Y37857D01*
X228610Y37819D01*
X228693Y37787D01*
X228778Y37759D01*
X228866Y37737D01*
X228955Y37719D01*
X229047Y37707D01*
X229142Y37699D01*
X229239Y37697D01*
Y37106D01*
X229142Y37104D01*
X229047Y37096D01*
X228955Y37084D01*
X228866Y37066D01*
X228778Y37044D01*
X228693Y37016D01*
X228610Y36984D01*
X228530Y36946D01*
X228451Y36904D01*
X228375Y36857D01*
Y37947D01*
X228451Y37899D01*
D02*
G37*
G36*
X252301Y35273D02*
X252131Y35067D01*
X252061Y34966D01*
X252003Y34864D01*
X251955Y34764D01*
X251918Y34664D01*
X251891Y34565D01*
X251875Y34466D01*
X251870Y34368D01*
X251279D01*
X251274Y34466D01*
X251258Y34565D01*
X251232Y34664D01*
X251195Y34764D01*
X251147Y34864D01*
X251088Y34966D01*
X251019Y35067D01*
X250939Y35170D01*
X250849Y35273D01*
X250748Y35377D01*
X252402D01*
X252301Y35273D01*
D02*
G37*
G36*
X226125Y34849D02*
X226075Y34831D01*
X226030Y34801D01*
X225992Y34759D01*
X225960Y34705D01*
X225933Y34638D01*
X225912Y34560D01*
X225898Y34470D01*
X225889Y34367D01*
X225886Y34253D01*
X225295D01*
X225292Y34367D01*
X225284Y34470D01*
X225269Y34560D01*
X225248Y34638D01*
X225221Y34705D01*
X225189Y34759D01*
X225151Y34801D01*
X225106Y34831D01*
X225056Y34849D01*
X225000Y34855D01*
X226181D01*
X226125Y34849D01*
D02*
G37*
G36*
X238213Y32874D02*
X238207Y32930D01*
X238189Y32980D01*
X238159Y33025D01*
X238117Y33063D01*
X238062Y33095D01*
X237996Y33122D01*
X237918Y33143D01*
X237827Y33158D01*
X237725Y33166D01*
X237610Y33169D01*
Y33760D01*
X237725Y33763D01*
X237827Y33772D01*
X237918Y33786D01*
X237996Y33807D01*
X238062Y33834D01*
X238117Y33866D01*
X238159Y33904D01*
X238189Y33949D01*
X238207Y33999D01*
X238213Y34055D01*
Y32874D01*
D02*
G37*
G36*
X242081Y32494D02*
X242064Y32440D01*
Y32377D01*
X242081Y32306D01*
X242114Y32227D01*
X242164Y32139D01*
X242231Y32043D01*
X242314Y31939D01*
X242532Y31705D01*
X242114Y31287D01*
X241993Y31404D01*
X241776Y31588D01*
X241680Y31655D01*
X241592Y31705D01*
X241513Y31738D01*
X241442Y31755D01*
X241379D01*
X241325Y31738D01*
X241279Y31705D01*
X242114Y32540D01*
X242081Y32494D01*
D02*
G37*
G36*
X208415Y42182D02*
X208858Y42093D01*
X213976D01*
X214335Y42165D01*
X214690Y41972D01*
X214835Y41848D01*
Y38189D01*
X214905Y37840D01*
X215103Y37543D01*
X221663Y30983D01*
X221472Y30521D01*
X214970D01*
X214560Y31021D01*
X214615Y31299D01*
X214462Y32071D01*
X214024Y32725D01*
X213370Y33162D01*
X212598Y33316D01*
X211827Y33162D01*
X211172Y32725D01*
X210735Y32071D01*
X210582Y31299D01*
X210735Y30527D01*
X211172Y29873D01*
X211827Y29436D01*
X212598Y29283D01*
X213370Y29436D01*
X213861Y29764D01*
X214361Y29545D01*
Y26172D01*
X222205D01*
X222412Y25672D01*
X221955Y25214D01*
X208194D01*
X207984Y25607D01*
X207983Y25714D01*
X208115Y26378D01*
X207977Y27073D01*
X207914Y27166D01*
Y41905D01*
X208390Y42184D01*
X208415Y42182D01*
D02*
G37*
G36*
X231323Y30118D02*
X231317Y30174D01*
X231299Y30224D01*
X231269Y30269D01*
X231227Y30307D01*
X231173Y30340D01*
X231106Y30366D01*
X231028Y30387D01*
X230938Y30402D01*
X230835Y30410D01*
X230721Y30413D01*
Y31004D01*
X230835Y31007D01*
X230938Y31016D01*
X231028Y31030D01*
X231106Y31051D01*
X231173Y31078D01*
X231227Y31110D01*
X231269Y31149D01*
X231299Y31193D01*
X231317Y31243D01*
X231323Y31299D01*
Y30118D01*
D02*
G37*
G36*
X244479Y38428D02*
Y36998D01*
X249404D01*
X249832Y36588D01*
X249759Y36220D01*
X249897Y35526D01*
X250258Y34985D01*
X250282Y34924D01*
X250372Y34833D01*
X250438Y34756D01*
X250493Y34685D01*
X250538Y34620D01*
X250571Y34562D01*
X250596Y34510D01*
X250612Y34466D01*
X250622Y34429D01*
X250628Y34396D01*
X250631Y34333D01*
X250662Y34268D01*
Y29906D01*
X249622Y28866D01*
X246244D01*
X243034Y32076D01*
X243007Y32147D01*
X242807Y32363D01*
X242752Y32432D01*
X242731Y32462D01*
X242763Y32540D01*
X242743Y32589D01*
X242756Y32641D01*
X242726Y32689D01*
Y35836D01*
X237589D01*
Y34407D01*
X237522Y34377D01*
X236992D01*
X233412Y37957D01*
X233501Y38307D01*
X233604Y38457D01*
X244412D01*
X244479Y38428D01*
D02*
G37*
G36*
X235191Y29541D02*
X235174Y29487D01*
Y29425D01*
X235191Y29353D01*
X235224Y29274D01*
X235274Y29186D01*
X235341Y29090D01*
X235425Y28986D01*
X235642Y28752D01*
X235224Y28335D01*
X235103Y28451D01*
X234886Y28635D01*
X234790Y28702D01*
X234702Y28752D01*
X234623Y28786D01*
X234552Y28802D01*
X234489D01*
X234435Y28786D01*
X234389Y28752D01*
X235224Y29587D01*
X235191Y29541D01*
D02*
G37*
G36*
X237594Y25090D02*
X237610Y24992D01*
X237637Y24892D01*
X237674Y24792D01*
X237722Y24692D01*
X237780Y24591D01*
X237849Y24489D01*
X237929Y24386D01*
X238019Y24283D01*
X238121Y24179D01*
X236467D01*
X236568Y24283D01*
X236738Y24489D01*
X236807Y24591D01*
X236865Y24692D01*
X236913Y24792D01*
X236951Y24892D01*
X236977Y24992D01*
X236993Y25090D01*
X236998Y25188D01*
X237589D01*
X237594Y25090D01*
D02*
G37*
G36*
X75713Y22835D02*
X75705Y22909D01*
X75681Y22976D01*
X75641Y23035D01*
X75585Y23087D01*
X75513Y23130D01*
X75425Y23165D01*
X75321Y23193D01*
X75201Y23213D01*
X75065Y23224D01*
X74914Y23228D01*
Y24016D01*
X75065Y24020D01*
X75201Y24032D01*
X75321Y24051D01*
X75425Y24079D01*
X75513Y24114D01*
X75585Y24158D01*
X75641Y24209D01*
X75681Y24268D01*
X75705Y24335D01*
X75713Y24409D01*
Y22835D01*
D02*
G37*
G36*
X236614Y32552D02*
X237522D01*
X237589Y32522D01*
Y31093D01*
X241129D01*
X241178Y31063D01*
X241230Y31076D01*
X241279Y31056D01*
X241357Y31088D01*
X241380Y31072D01*
X241557Y30922D01*
X241663Y30820D01*
X241737Y30791D01*
X245221Y27307D01*
X245517Y27109D01*
X245866Y27040D01*
X250000D01*
X250349Y27109D01*
X250645Y27307D01*
X252220Y28882D01*
X252238Y28909D01*
X252738Y28758D01*
Y23321D01*
X251264Y21847D01*
X239042D01*
X238775Y22346D01*
X238971Y22641D01*
X239110Y23336D01*
X238971Y24031D01*
X238610Y24571D01*
X238586Y24632D01*
X238497Y24724D01*
X238430Y24800D01*
X238375Y24871D01*
X238331Y24936D01*
X238297Y24994D01*
X238273Y25046D01*
X238256Y25090D01*
X238246Y25128D01*
X238241Y25160D01*
X238237Y25223D01*
X238207Y25288D01*
Y26683D01*
X238137Y27032D01*
X237939Y27328D01*
X236144Y29123D01*
X236118Y29194D01*
X235917Y29410D01*
X235862Y29479D01*
X235841Y29509D01*
X235874Y29587D01*
X235853Y29637D01*
X235866Y29689D01*
X235836Y29737D01*
Y32306D01*
X236139Y32528D01*
X236336Y32607D01*
X236614Y32552D01*
D02*
G37*
G36*
X121537Y21794D02*
X121555Y21744D01*
X121585Y21700D01*
X121627Y21661D01*
X121682Y21629D01*
X121748Y21602D01*
X121826Y21582D01*
X121917Y21567D01*
X122019Y21558D01*
X122134Y21555D01*
Y20965D01*
X122019Y20962D01*
X121917Y20953D01*
X121826Y20938D01*
X121748Y20917D01*
X121682Y20891D01*
X121627Y20858D01*
X121585Y20820D01*
X121555Y20776D01*
X121537Y20725D01*
X121531Y20669D01*
Y21850D01*
X121537Y21794D01*
D02*
G37*
G36*
X118233Y20669D02*
X118227Y20725D01*
X118209Y20776D01*
X118178Y20820D01*
X118136Y20858D01*
X118082Y20891D01*
X118016Y20917D01*
X117937Y20938D01*
X117847Y20953D01*
X117745Y20962D01*
X117630Y20965D01*
Y21555D01*
X117745Y21558D01*
X117847Y21567D01*
X117937Y21582D01*
X118016Y21602D01*
X118082Y21629D01*
X118136Y21661D01*
X118178Y21700D01*
X118209Y21744D01*
X118227Y21794D01*
X118233Y21850D01*
Y20669D01*
D02*
G37*
G36*
X115632Y21794D02*
X115650Y21744D01*
X115680Y21700D01*
X115722Y21661D01*
X115776Y21629D01*
X115842Y21602D01*
X115921Y21582D01*
X116011Y21567D01*
X116114Y21558D01*
X116228Y21555D01*
Y20965D01*
X116114Y20962D01*
X116011Y20953D01*
X115921Y20938D01*
X115842Y20917D01*
X115776Y20891D01*
X115722Y20858D01*
X115680Y20820D01*
X115650Y20776D01*
X115632Y20725D01*
X115626Y20669D01*
Y21850D01*
X115632Y21794D01*
D02*
G37*
G36*
X68059Y26166D02*
X69635Y24680D01*
X69816Y24441D01*
X69911Y24255D01*
X69921Y24122D01*
X69846Y24042D01*
X69685Y24016D01*
Y23228D01*
X69846Y23202D01*
X69921Y23122D01*
X69911Y22989D01*
X69816Y22804D01*
X69635Y22565D01*
X69369Y22273D01*
X69017Y21927D01*
X67451Y20573D01*
Y26671D01*
X68059Y26166D01*
D02*
G37*
G36*
X151065Y21598D02*
X151083Y21547D01*
X151113Y21503D01*
X151155Y21465D01*
X151209Y21432D01*
X151276Y21406D01*
X151354Y21385D01*
X151444Y21370D01*
X151547Y21361D01*
X151661Y21358D01*
Y20768D01*
X151547Y20765D01*
X151444Y20756D01*
X151354Y20741D01*
X151276Y20720D01*
X151209Y20694D01*
X151155Y20661D01*
X151113Y20623D01*
X151083Y20579D01*
X151065Y20529D01*
X151059Y20472D01*
Y21654D01*
X151065Y21598D01*
D02*
G37*
G36*
X29319Y27597D02*
X29555Y27589D01*
X37114Y27559D01*
Y19685D01*
X29240Y19638D01*
Y27606D01*
X29319Y27597D01*
D02*
G37*
G36*
X60347Y18122D02*
X60268Y18419D01*
X60032Y18685D01*
X59638Y18919D01*
X59087Y19122D01*
X58378Y19294D01*
X57512Y19435D01*
X56488Y19544D01*
X53969Y19669D01*
X52473Y19685D01*
Y27559D01*
X53969Y27575D01*
X57512Y27809D01*
X58378Y27950D01*
X59087Y28122D01*
X59638Y28325D01*
X60032Y28559D01*
X60268Y28825D01*
X60347Y29122D01*
Y18122D01*
D02*
G37*
G36*
X126322Y16953D02*
X126253Y16988D01*
X126175Y17002D01*
X126087Y16996D01*
X125990Y16970D01*
X125883Y16923D01*
X125767Y16856D01*
X125642Y16768D01*
X125507Y16661D01*
X125209Y16384D01*
X124455Y16744D01*
X124621Y16916D01*
X124880Y17218D01*
X124973Y17350D01*
X125042Y17468D01*
X125087Y17572D01*
X125108Y17664D01*
X125104Y17742D01*
X125076Y17806D01*
X125024Y17858D01*
X126322Y16953D01*
D02*
G37*
G36*
X237955Y17261D02*
X238160Y17091D01*
X238262Y17022D01*
X238364Y16964D01*
X238464Y16916D01*
X238564Y16879D01*
X238663Y16852D01*
X238762Y16836D01*
X238860Y16831D01*
Y16240D01*
X238762Y16235D01*
X238663Y16219D01*
X238564Y16192D01*
X238464Y16155D01*
X238364Y16107D01*
X238262Y16049D01*
X238160Y15980D01*
X238058Y15900D01*
X237955Y15810D01*
X237851Y15709D01*
Y17362D01*
X237955Y17261D01*
D02*
G37*
G36*
X121539Y15870D02*
X121563Y15803D01*
X121603Y15744D01*
X121659Y15693D01*
X121731Y15650D01*
X121819Y15614D01*
X121923Y15587D01*
X122043Y15567D01*
X122179Y15555D01*
X122330Y15551D01*
Y14764D01*
X122179Y14760D01*
X122043Y14748D01*
X121923Y14728D01*
X121819Y14701D01*
X121731Y14665D01*
X121659Y14622D01*
X121603Y14571D01*
X121563Y14512D01*
X121539Y14445D01*
X121531Y14370D01*
Y15945D01*
X121539Y15870D01*
D02*
G37*
G36*
X112327Y14370D02*
X112319Y14445D01*
X112295Y14512D01*
X112255Y14571D01*
X112199Y14622D01*
X112127Y14665D01*
X112039Y14701D01*
X111935Y14728D01*
X111816Y14748D01*
X111680Y14760D01*
X111528Y14764D01*
Y15551D01*
X111680Y15555D01*
X111816Y15567D01*
X111935Y15587D01*
X112039Y15614D01*
X112127Y15650D01*
X112199Y15693D01*
X112255Y15744D01*
X112295Y15803D01*
X112319Y15870D01*
X112327Y15945D01*
Y14370D01*
D02*
G37*
G36*
X98425Y1631D02*
X78740D01*
Y31496D01*
X98425D01*
Y1631D01*
D02*
G37*
%LPC*%
G36*
X270974Y227765D02*
X266428D01*
Y226434D01*
X266361Y226405D01*
X264970D01*
Y227667D01*
X260620D01*
Y223317D01*
X264970D01*
Y224579D01*
X266361D01*
X266428Y224550D01*
Y223219D01*
X270974D01*
Y227765D01*
D02*
G37*
G36*
X8917Y216296D02*
X5768D01*
X4842Y216112D01*
X4058Y215588D01*
X3534Y214804D01*
X3350Y213878D01*
X3534Y212953D01*
X4058Y212169D01*
X4842Y211645D01*
X5768Y211460D01*
X8917D01*
X9843Y211645D01*
X10627Y212169D01*
X11151Y212953D01*
X11335Y213878D01*
X11151Y214804D01*
X10627Y215588D01*
X9843Y216112D01*
X8917Y216296D01*
D02*
G37*
G36*
X41427Y209812D02*
X35739D01*
Y207293D01*
X35717Y207253D01*
X35705Y207143D01*
X35699Y207125D01*
X35688Y207108D01*
X35653Y207076D01*
X35575Y207029D01*
X35443Y206975D01*
X35255Y206925D01*
X35014Y206885D01*
X34721Y206859D01*
X34365Y206850D01*
X34324Y206832D01*
X25473D01*
X25241Y206987D01*
X24507Y207133D01*
X23774Y206987D01*
X23542Y206832D01*
X20159D01*
X19927Y206987D01*
X19193Y207133D01*
X18460Y206987D01*
X18228Y206832D01*
X17295D01*
X16677Y206709D01*
X16153Y206359D01*
X14606Y204812D01*
X14256Y204288D01*
X14133Y203670D01*
Y189174D01*
X14256Y188556D01*
X14606Y188032D01*
X15130Y187682D01*
X15748Y187559D01*
X17131D01*
X17347Y187342D01*
X17871Y186992D01*
X18117Y186943D01*
X18460Y186714D01*
X19193Y186568D01*
X19927Y186714D01*
X20159Y186869D01*
X23542D01*
X23774Y186714D01*
X24507Y186568D01*
X25241Y186714D01*
X25863Y187129D01*
X26278Y187751D01*
X26424Y188484D01*
X26278Y189218D01*
X25863Y189839D01*
X25761Y189907D01*
Y190407D01*
X25863Y190475D01*
X26278Y191097D01*
X26424Y191830D01*
X26278Y192564D01*
X25889Y193145D01*
X25895Y193173D01*
X26135Y193672D01*
X26406Y193748D01*
X33798Y186357D01*
X34096Y186157D01*
X34449Y186087D01*
X36523D01*
X36594Y186056D01*
X36605Y186055D01*
Y185128D01*
X42135D01*
Y188887D01*
X36605D01*
Y187961D01*
X36594Y187960D01*
X36523Y187929D01*
X34830D01*
X27304Y195455D01*
X27005Y195654D01*
X26781Y195699D01*
X26748Y195726D01*
X26676Y195720D01*
X26655Y195724D01*
X26591Y195755D01*
X26520Y195759D01*
X26495Y195764D01*
X26472Y195771D01*
X26450Y195782D01*
X26423Y195799D01*
X26392Y195825D01*
X26355Y195863D01*
X26313Y195915D01*
X26267Y195983D01*
X26208Y196087D01*
X26108Y196165D01*
X25863Y196532D01*
X25761Y196600D01*
Y196967D01*
X25840Y197149D01*
X25875Y197163D01*
X25978Y197264D01*
X26067Y197342D01*
X26149Y197407D01*
X26226Y197459D01*
X26294Y197500D01*
X26355Y197529D01*
X26407Y197550D01*
X26451Y197562D01*
X26487Y197568D01*
X26555Y197572D01*
X26619Y197602D01*
X28260D01*
X31632Y194231D01*
X31931Y194031D01*
X32283Y193961D01*
X36523D01*
X36594Y193930D01*
X36605Y193929D01*
Y192609D01*
X42135D01*
Y196368D01*
X36605D01*
Y195835D01*
X36594Y195834D01*
X36523Y195803D01*
X32665D01*
X29293Y199174D01*
X28994Y199374D01*
X28642Y199444D01*
X26619D01*
X26555Y199475D01*
X26487Y199479D01*
X26451Y199485D01*
X26407Y199497D01*
X26355Y199517D01*
X26294Y199547D01*
X26226Y199587D01*
X26157Y199635D01*
X25972Y199789D01*
X25875Y199884D01*
X25839Y199898D01*
X25760Y200079D01*
Y200447D01*
X25863Y200515D01*
X26278Y201137D01*
X26424Y201870D01*
X26278Y202604D01*
X25945Y203101D01*
X26102Y203520D01*
X26167Y203601D01*
X34324D01*
X34365Y203583D01*
X34721Y203574D01*
X35013Y203548D01*
X35255Y203508D01*
X35443Y203458D01*
X35575Y203404D01*
X35653Y203357D01*
X35688Y203325D01*
X35699Y203308D01*
X35705Y203290D01*
X35717Y203180D01*
X35739Y203139D01*
Y200620D01*
X41427D01*
Y209812D01*
D02*
G37*
G36*
X23603Y182240D02*
X17697D01*
X16771Y182056D01*
X15987Y181532D01*
X15463Y180748D01*
X15279Y179822D01*
X15463Y178897D01*
X15987Y178113D01*
X16771Y177588D01*
X17697Y177404D01*
X23603D01*
X24528Y177588D01*
X25312Y178113D01*
X25836Y178897D01*
X26021Y179822D01*
X25836Y180748D01*
X25312Y181532D01*
X24528Y182056D01*
X23603Y182240D01*
D02*
G37*
G36*
X8917D02*
X5768D01*
X4842Y182056D01*
X4058Y181532D01*
X3534Y180748D01*
X3350Y179822D01*
X3534Y178897D01*
X4058Y178113D01*
X4842Y177588D01*
X5768Y177404D01*
X8917D01*
X9843Y177588D01*
X10627Y178113D01*
X11151Y178897D01*
X11335Y179822D01*
X11151Y180748D01*
X10627Y181532D01*
X9843Y182056D01*
X8917Y182240D01*
D02*
G37*
G36*
X308543Y186274D02*
X307205Y186098D01*
X305957Y185581D01*
X304886Y184759D01*
X304064Y183688D01*
X303548Y182441D01*
X303372Y181102D01*
X303548Y179764D01*
X304064Y178516D01*
X304886Y177445D01*
X305957Y176623D01*
X307205Y176107D01*
X308543Y175931D01*
X309882Y176107D01*
X311129Y176623D01*
X312200Y177445D01*
X313022Y178516D01*
X313539Y179764D01*
X313715Y181102D01*
X313539Y182441D01*
X313022Y183688D01*
X312200Y184759D01*
X311129Y185581D01*
X309882Y186098D01*
X308543Y186274D01*
D02*
G37*
G36*
X144399Y178061D02*
X139853D01*
Y173514D01*
X144399D01*
Y174845D01*
X144466Y174875D01*
X146971D01*
X147038Y174845D01*
Y173613D01*
X151387D01*
Y177962D01*
X147038D01*
Y176730D01*
X146971Y176700D01*
X144466D01*
X144399Y176730D01*
Y178061D01*
D02*
G37*
G36*
X118415Y174124D02*
X113868D01*
Y169577D01*
X114378D01*
X114646Y169077D01*
X114464Y168805D01*
X114326Y168110D01*
X114464Y167415D01*
X114825Y166875D01*
X114849Y166814D01*
X114939Y166722D01*
X115005Y166646D01*
X115060Y166575D01*
X115104Y166510D01*
X115138Y166452D01*
X115163Y166400D01*
X115179Y166356D01*
X115189Y166318D01*
X115194Y166286D01*
X115198Y166223D01*
X115229Y166158D01*
Y164052D01*
X115199Y163986D01*
X113573D01*
Y158849D01*
X118710D01*
Y163986D01*
X117084D01*
X117054Y164052D01*
Y166158D01*
X117086Y166223D01*
X117089Y166286D01*
X117094Y166318D01*
X117104Y166356D01*
X117121Y166400D01*
X117145Y166452D01*
X117179Y166510D01*
X117218Y166567D01*
X117351Y166729D01*
X117434Y166814D01*
X117458Y166875D01*
X117819Y167415D01*
X117958Y168110D01*
X117819Y168805D01*
X117638Y169077D01*
X117905Y169577D01*
X118415D01*
Y174124D01*
D02*
G37*
G36*
X228061Y141008D02*
X223515D01*
Y139678D01*
X223448Y139648D01*
X221139D01*
X221073Y139678D01*
Y140910D01*
X216723D01*
Y136560D01*
X221073D01*
Y137793D01*
X221139Y137822D01*
X223448D01*
X223515Y137793D01*
Y136462D01*
X228061D01*
Y141008D01*
D02*
G37*
G36*
X23750Y140970D02*
X19203D01*
Y139634D01*
X19143Y139629D01*
X19011Y139626D01*
X18944Y139596D01*
X18054D01*
X17990Y139625D01*
X17907Y139629D01*
X17853Y139635D01*
X17802Y139646D01*
X17753Y139660D01*
X17705Y139679D01*
X17657Y139703D01*
X17607Y139733D01*
X17556Y139769D01*
X17503Y139813D01*
X17434Y139879D01*
X17371Y139904D01*
X16837Y140260D01*
X16142Y140399D01*
X15447Y140260D01*
X14858Y139867D01*
X14464Y139278D01*
X14326Y138583D01*
X14464Y137888D01*
X14858Y137299D01*
X15447Y136905D01*
X16142Y136767D01*
X16837Y136905D01*
X17371Y137262D01*
X17434Y137286D01*
X17503Y137353D01*
X17556Y137397D01*
X17607Y137433D01*
X17657Y137462D01*
X17705Y137486D01*
X17753Y137505D01*
X17802Y137520D01*
X17853Y137530D01*
X17907Y137537D01*
X17990Y137540D01*
X18054Y137569D01*
X18944D01*
X19011Y137540D01*
X19143Y137536D01*
X19203Y137531D01*
Y136424D01*
X23750D01*
Y140970D01*
D02*
G37*
G36*
X29852D02*
X25306D01*
Y136424D01*
X26406D01*
X26407Y136423D01*
X26422Y136329D01*
X26433Y136204D01*
X26437Y136035D01*
X26465Y135972D01*
Y135811D01*
X26437Y135749D01*
X26433Y135580D01*
X26422Y135454D01*
X26407Y135361D01*
X26406Y135360D01*
X25207D01*
Y130223D01*
X26387D01*
X26387Y130222D01*
X26402Y130128D01*
X26413Y130003D01*
X26418Y129834D01*
X26445Y129771D01*
Y128808D01*
X26418Y128745D01*
X26413Y128578D01*
X26403Y128456D01*
X26387Y128364D01*
X26385Y128356D01*
X24970D01*
X24963Y128429D01*
X24960Y128556D01*
X24904Y128684D01*
X24848Y128969D01*
X24606Y129331D01*
X24176Y129761D01*
X24367Y130223D01*
X24635D01*
Y135360D01*
X20635D01*
X20573Y135394D01*
X20538Y135383D01*
X20504Y135397D01*
X20414Y135360D01*
X19892D01*
Y134879D01*
X19858Y134817D01*
X19847Y134709D01*
X19841Y134693D01*
X19831Y134679D01*
X19798Y134648D01*
X19721Y134601D01*
X19590Y134548D01*
X19403Y134499D01*
X19163Y134459D01*
X18873Y134434D01*
X18519Y134425D01*
X18478Y134407D01*
X8776D01*
X8157Y134284D01*
X7633Y133933D01*
X4763Y131063D01*
X4413Y130539D01*
X4290Y129921D01*
Y98819D01*
X4413Y98201D01*
X4763Y97677D01*
X7125Y95315D01*
X7650Y94964D01*
X8158Y94863D01*
X8246Y94823D01*
X8846Y94803D01*
X9415Y94744D01*
X9976Y94646D01*
X10529Y94509D01*
X11075Y94332D01*
X11614Y94116D01*
X11959Y93950D01*
Y71850D01*
X12115Y70666D01*
X12572Y69562D01*
X13300Y68615D01*
X14247Y67887D01*
X15351Y67430D01*
X16535Y67274D01*
X17720Y67430D01*
X18823Y67887D01*
X19771Y68615D01*
X20498Y69562D01*
X20956Y70666D01*
X21112Y71850D01*
Y96457D01*
X20956Y97641D01*
X20498Y98745D01*
X19771Y99692D01*
X18823Y100420D01*
X17720Y100877D01*
X17792Y101368D01*
X18907D01*
Y104438D01*
X18931Y104508D01*
X18910Y104552D01*
X19066Y104734D01*
X19179Y104851D01*
X19208Y104926D01*
X24464Y110181D01*
X24662Y110477D01*
X24732Y110827D01*
Y113310D01*
X24761Y113376D01*
X30357D01*
X30386Y113310D01*
Y110039D01*
X30456Y109690D01*
X30654Y109394D01*
X35701Y104346D01*
Y101864D01*
X35201Y101764D01*
X35190Y101792D01*
X34620Y102534D01*
X33878Y103103D01*
X33014Y103461D01*
X32087Y103583D01*
X24409D01*
X23482Y103461D01*
X22618Y103103D01*
X21876Y102534D01*
X21306Y101792D01*
X20948Y100927D01*
X20826Y100000D01*
X20948Y99072D01*
X21306Y98208D01*
X21876Y97466D01*
X22618Y96897D01*
X23482Y96539D01*
X24409Y96417D01*
X32087D01*
X33014Y96539D01*
X33878Y96897D01*
X34620Y97466D01*
X35190Y98208D01*
X35352Y98600D01*
X35914Y98649D01*
X35969Y98567D01*
X37480Y97056D01*
X37508Y96983D01*
X37739Y96609D01*
X37670Y96260D01*
X37739Y95911D01*
X37786Y95841D01*
Y94085D01*
X42529D01*
Y95317D01*
X42596Y95347D01*
X49333D01*
X49400Y95317D01*
Y93888D01*
X54537D01*
Y99025D01*
X49400D01*
Y97202D01*
X49333Y97173D01*
X42596D01*
X42529Y97202D01*
Y98435D01*
X38766D01*
X38755Y98436D01*
X38581Y98585D01*
X38456Y98706D01*
X38382Y98736D01*
X37527Y99591D01*
Y104724D01*
X37457Y105074D01*
X37260Y105370D01*
X32212Y110417D01*
Y113310D01*
X32242Y113376D01*
X33179D01*
Y118907D01*
X29063D01*
X28856Y119407D01*
X29201Y119753D01*
X34121D01*
X36534Y117341D01*
X36557Y117278D01*
X36902Y116906D01*
X37013Y116768D01*
X37095Y116649D01*
X37117Y116612D01*
Y116419D01*
X37079Y116328D01*
X37100Y116279D01*
X37087Y116227D01*
X37117Y116179D01*
Y113786D01*
X41663D01*
Y114887D01*
X41664Y114887D01*
X41758Y114902D01*
X41883Y114913D01*
X42052Y114918D01*
X42115Y114945D01*
X47295D01*
X47357Y114918D01*
X47527Y114913D01*
X47652Y114902D01*
X47746Y114887D01*
X47747Y114887D01*
Y113573D01*
X52883D01*
Y118710D01*
X47747D01*
Y117231D01*
X47746Y117231D01*
X47652Y117216D01*
X47527Y117205D01*
X47357Y117200D01*
X47295Y117173D01*
X42115D01*
X42052Y117200D01*
X41883Y117205D01*
X41758Y117216D01*
X41664Y117231D01*
X41663Y117231D01*
Y118332D01*
X39270D01*
X39222Y118362D01*
X39170Y118349D01*
X39121Y118370D01*
X39030Y118332D01*
X38837D01*
X38800Y118353D01*
X38688Y118431D01*
X38366Y118703D01*
X38180Y118884D01*
X38115Y118909D01*
X35370Y121653D01*
X35009Y121895D01*
X34583Y121980D01*
X28740D01*
X28740Y121980D01*
X28314Y121895D01*
X27953Y121653D01*
X26772Y120472D01*
X26530Y120111D01*
X26445Y119685D01*
Y119359D01*
X26418Y119296D01*
X26413Y119129D01*
X26403Y119007D01*
X26387Y118916D01*
X26385Y118907D01*
X21939D01*
Y117084D01*
X21873Y117054D01*
X15234D01*
X15167Y117084D01*
Y118710D01*
X10030D01*
Y113573D01*
X15167D01*
Y115199D01*
X15234Y115229D01*
X21873D01*
X21939Y115199D01*
Y113376D01*
X22876D01*
X22906Y113310D01*
Y111205D01*
X17933Y106232D01*
X17861Y106205D01*
X17859Y106200D01*
X17854Y106198D01*
X17713Y106060D01*
X17468Y105844D01*
X17382Y105778D01*
X17312Y105732D01*
X17287Y105718D01*
X17160D01*
X17112Y105726D01*
X17101Y105718D01*
X14164D01*
Y101368D01*
X15279D01*
X15351Y100877D01*
X14247Y100420D01*
X13844Y100110D01*
X13724Y100081D01*
X13194Y99690D01*
X12673Y99351D01*
X12147Y99054D01*
X11614Y98798D01*
X11075Y98581D01*
X10529Y98405D01*
X9976Y98267D01*
X9415Y98169D01*
X8894Y98115D01*
X7521Y99488D01*
Y129252D01*
X9445Y131176D01*
X18478D01*
X18519Y131158D01*
X18873Y131149D01*
X19163Y131123D01*
X19403Y131084D01*
X19590Y131034D01*
X19721Y130981D01*
X19798Y130935D01*
X19831Y130904D01*
X19841Y130889D01*
X19847Y130874D01*
X19858Y130766D01*
X19892Y130704D01*
Y130223D01*
X20414D01*
X20504Y130185D01*
X20538Y130199D01*
X20573Y130189D01*
X20635Y130223D01*
X21119D01*
X21120Y130209D01*
X21122Y130087D01*
X21178Y129959D01*
X21235Y129672D01*
X21476Y129311D01*
X22084Y128704D01*
X21939Y128356D01*
X21939D01*
Y122825D01*
X33179D01*
Y128356D01*
X28733D01*
X28731Y128364D01*
X28716Y128456D01*
X28705Y128578D01*
X28700Y128745D01*
X28673Y128808D01*
Y129771D01*
X28700Y129834D01*
X28705Y130003D01*
X28716Y130128D01*
X28731Y130222D01*
X28731Y130223D01*
X29950D01*
Y135360D01*
X28751D01*
X28751Y135361D01*
X28735Y135454D01*
X28725Y135580D01*
X28720Y135749D01*
X28692Y135811D01*
Y135972D01*
X28720Y136035D01*
X28725Y136204D01*
X28735Y136329D01*
X28751Y136423D01*
X28751Y136424D01*
X29852D01*
Y140970D01*
D02*
G37*
G36*
X206693Y114211D02*
X205533Y114097D01*
X204418Y113759D01*
X203391Y113210D01*
X202490Y112470D01*
X201751Y111570D01*
X201202Y110542D01*
X200864Y109427D01*
X200749Y108268D01*
X200864Y107108D01*
X201202Y105993D01*
X201751Y104966D01*
X202490Y104065D01*
X203391Y103326D01*
X204418Y102777D01*
X205533Y102438D01*
X206693Y102324D01*
X207852Y102438D01*
X208967Y102777D01*
X209995Y103326D01*
X210896Y104065D01*
X211635Y104966D01*
X212184Y105993D01*
X212522Y107108D01*
X212636Y108268D01*
X212522Y109427D01*
X212184Y110542D01*
X211635Y111570D01*
X210896Y112470D01*
X209995Y113210D01*
X208967Y113759D01*
X207852Y114097D01*
X206693Y114211D01*
D02*
G37*
G36*
X29055Y86865D02*
X27717Y86689D01*
X26469Y86172D01*
X25398Y85350D01*
X24576Y84279D01*
X24059Y83031D01*
X23883Y81693D01*
X24059Y80354D01*
X24576Y79107D01*
X25398Y78036D01*
X26469Y77214D01*
X27717Y76697D01*
X29055Y76521D01*
X30394Y76697D01*
X31641Y77214D01*
X32712Y78036D01*
X33534Y79107D01*
X34051Y80354D01*
X34227Y81693D01*
X34051Y83031D01*
X33534Y84279D01*
X32712Y85350D01*
X31641Y86172D01*
X30394Y86689D01*
X29055Y86865D01*
D02*
G37*
G36*
X68553Y69518D02*
X67667D01*
X67260Y69437D01*
X66915Y69207D01*
X66685Y68862D01*
X66604Y68455D01*
Y63435D01*
X66685Y63028D01*
X66848Y62783D01*
X66897Y62665D01*
X66939Y62648D01*
X66961Y62609D01*
X66996Y62582D01*
X66998Y62581D01*
X67002Y62575D01*
X67010Y62561D01*
X67022Y62537D01*
X67034Y62499D01*
X67047Y62447D01*
X67057Y62382D01*
X67064Y62301D01*
X67067Y62190D01*
X67097Y62124D01*
Y55905D01*
X67174Y55518D01*
X67394Y55189D01*
X69927Y52656D01*
X69735Y52194D01*
X58687D01*
X56131Y54750D01*
Y55124D01*
X56161Y55195D01*
X56164Y55544D01*
X56174Y55798D01*
X57391D01*
Y60344D01*
X53605D01*
X53555Y60374D01*
X53505Y60362D01*
X53457Y60382D01*
X53367Y60344D01*
X52845D01*
Y59880D01*
X52845Y59880D01*
X52839Y59876D01*
X52750Y59839D01*
X52601Y59797D01*
X52405Y59760D01*
X51829Y59711D01*
X51477Y59704D01*
X51435Y59686D01*
X39593D01*
X39555Y59704D01*
X39299Y59715D01*
X39075Y59744D01*
X38856Y59793D01*
X38639Y59861D01*
X38424Y59950D01*
X38210Y60060D01*
X37997Y60192D01*
X37784Y60348D01*
X37571Y60527D01*
X37345Y60744D01*
X37297Y60763D01*
X36537Y61346D01*
X35625Y61724D01*
X34646Y61853D01*
X33667Y61724D01*
X32755Y61346D01*
X31971Y60745D01*
X31370Y59962D01*
X30993Y59050D01*
X30864Y58071D01*
X30993Y57092D01*
X31370Y56180D01*
X31971Y55397D01*
X32755Y54796D01*
X33667Y54418D01*
X34646Y54289D01*
X35625Y54418D01*
X36537Y54796D01*
X37297Y55379D01*
X37345Y55397D01*
X37571Y55615D01*
X37784Y55794D01*
X37997Y55949D01*
X38210Y56082D01*
X38424Y56192D01*
X38639Y56280D01*
X38856Y56349D01*
X39075Y56397D01*
X39299Y56427D01*
X39555Y56438D01*
X39593Y56456D01*
X51435D01*
X51477Y56437D01*
X51837Y56431D01*
X52140Y56412D01*
X52396Y56383D01*
X52601Y56345D01*
X52750Y56303D01*
X52839Y56266D01*
X52845Y56262D01*
X52845Y56262D01*
Y55798D01*
X53367D01*
X53457Y55760D01*
X53505Y55780D01*
X53555Y55768D01*
X53557Y55769D01*
X54065Y55644D01*
X54072Y55535D01*
X54075Y55195D01*
X54105Y55124D01*
Y54331D01*
X54182Y53943D01*
X54402Y53614D01*
X57551Y50465D01*
X57880Y50245D01*
X58268Y50168D01*
X174383D01*
X182945Y41606D01*
X183274Y41387D01*
X183661Y41310D01*
X186113D01*
Y36998D01*
X187334D01*
X187339Y36935D01*
X187343Y36806D01*
X187373Y36739D01*
Y36091D01*
X187450Y35703D01*
X187669Y35375D01*
X188131Y34914D01*
X188459Y34694D01*
X188847Y34617D01*
X193038D01*
X193105Y34587D01*
X193238Y34584D01*
X193298Y34578D01*
Y33258D01*
X198435D01*
Y34216D01*
X198929Y34395D01*
X198940Y34390D01*
X199023Y34387D01*
X199076Y34381D01*
X199127Y34370D01*
X199176Y34356D01*
X199224Y34337D01*
X199273Y34313D01*
X199322Y34283D01*
X199373Y34247D01*
X199426Y34203D01*
X199495Y34137D01*
X199558Y34112D01*
X200093Y33755D01*
X200787Y33617D01*
X201482Y33755D01*
X202071Y34149D01*
X202465Y34738D01*
X202603Y35433D01*
X202465Y36128D01*
X202071Y36717D01*
X201482Y37111D01*
X200787Y37249D01*
X200093Y37111D01*
X199558Y36754D01*
X199495Y36730D01*
X199426Y36663D01*
X199373Y36619D01*
X199322Y36583D01*
X199273Y36553D01*
X199224Y36529D01*
X199176Y36511D01*
X199127Y36496D01*
X199076Y36485D01*
X199023Y36479D01*
X198940Y36476D01*
X198929Y36471D01*
X198435Y36650D01*
Y38002D01*
X193298D01*
Y36682D01*
X193238Y36676D01*
X193105Y36673D01*
X193038Y36643D01*
X191008D01*
X190659Y36998D01*
Y41310D01*
X193038D01*
X193105Y41280D01*
X193238Y41276D01*
X193298Y41271D01*
Y39951D01*
X198435D01*
Y40898D01*
X198485Y40960D01*
X198652Y41115D01*
X198826Y41234D01*
X198930Y41260D01*
X198979Y41245D01*
X199027Y41226D01*
X199076Y41203D01*
X199125Y41173D01*
X199176Y41137D01*
X199229Y41093D01*
X199299Y41026D01*
X199362Y41002D01*
X199896Y40645D01*
X200591Y40507D01*
X201286Y40645D01*
X201875Y41039D01*
X202268Y41628D01*
X202407Y42323D01*
X202268Y43018D01*
X201875Y43607D01*
X201286Y44001D01*
X200591Y44139D01*
X199896Y44001D01*
X199362Y43644D01*
X199299Y43619D01*
X199229Y43553D01*
X199176Y43509D01*
X199125Y43473D01*
X199076Y43443D01*
X199027Y43419D01*
X198979Y43400D01*
X198930Y43386D01*
X198826Y43412D01*
X198652Y43531D01*
X198485Y43685D01*
X198435Y43748D01*
Y44695D01*
X193298D01*
Y43374D01*
X193238Y43369D01*
X193105Y43366D01*
X193038Y43336D01*
X190659D01*
Y47647D01*
X186113D01*
Y46918D01*
X186053Y46913D01*
X185920Y46909D01*
X185854Y46879D01*
X184081D01*
X177488Y53472D01*
X177159Y53692D01*
X176772Y53769D01*
X71680D01*
X69123Y56325D01*
Y62124D01*
X69153Y62190D01*
X69156Y62301D01*
X69163Y62382D01*
X69174Y62447D01*
X69186Y62499D01*
X69199Y62537D01*
X69210Y62561D01*
X69218Y62575D01*
X69223Y62581D01*
X69225Y62582D01*
X69259Y62609D01*
X69282Y62648D01*
X69323Y62665D01*
X69372Y62783D01*
X69535Y63028D01*
X69617Y63435D01*
Y68455D01*
X69535Y68862D01*
X69305Y69207D01*
X68960Y69437D01*
X68553Y69518D01*
D02*
G37*
G36*
X29055Y53400D02*
X27717Y53224D01*
X26469Y52707D01*
X25398Y51885D01*
X24576Y50814D01*
X24059Y49567D01*
X23883Y48228D01*
X24059Y46890D01*
X24576Y45642D01*
X25398Y44571D01*
X26469Y43749D01*
X27717Y43233D01*
X29055Y43056D01*
X30394Y43233D01*
X31641Y43749D01*
X32712Y44571D01*
X33534Y45642D01*
X34051Y46890D01*
X34227Y48228D01*
X34051Y49567D01*
X33534Y50814D01*
X32712Y51885D01*
X31641Y52707D01*
X30394Y53224D01*
X29055Y53400D01*
D02*
G37*
G36*
X16535Y62647D02*
X15351Y62491D01*
X14247Y62034D01*
X13969Y61821D01*
X12786D01*
Y60637D01*
X12572Y60359D01*
X12115Y59255D01*
X11959Y58071D01*
Y23622D01*
X12115Y22438D01*
X12572Y21334D01*
X13300Y20386D01*
X13691Y20086D01*
Y19026D01*
X19379D01*
Y20086D01*
X19771Y20386D01*
X19771D01*
X20498Y21334D01*
X20956Y22438D01*
X21112Y23622D01*
Y58071D01*
X20956Y59255D01*
X20498Y60359D01*
X20285Y60637D01*
Y61821D01*
X19102D01*
X18823Y62034D01*
X17720Y62491D01*
X16535Y62647D01*
D02*
G37*
G36*
X151683Y17234D02*
X147136D01*
Y16012D01*
X147076Y16007D01*
X146944Y16004D01*
X146877Y15974D01*
X145052D01*
X144985Y16004D01*
X144853Y16007D01*
X144793Y16012D01*
Y17234D01*
X140246D01*
Y16012D01*
X140186Y16007D01*
X140054Y16004D01*
X139987Y15974D01*
X137276D01*
X137210Y16004D01*
X137077Y16007D01*
X137017Y16012D01*
Y17135D01*
X132274D01*
Y12786D01*
X137017D01*
Y13909D01*
X137077Y13914D01*
X137210Y13918D01*
X137276Y13948D01*
X139987D01*
X140054Y13918D01*
X140186Y13914D01*
X140246Y13909D01*
Y12687D01*
X144793D01*
Y13909D01*
X144853Y13914D01*
X144985Y13918D01*
X145052Y13948D01*
X146877D01*
X146944Y13918D01*
X147076Y13914D01*
X147136Y13909D01*
Y12687D01*
X151683D01*
Y17234D01*
D02*
G37*
G36*
X324803Y15786D02*
X323644Y15672D01*
X322529Y15334D01*
X321501Y14784D01*
X320600Y14045D01*
X319861Y13145D01*
X319312Y12117D01*
X318974Y11002D01*
X318860Y9843D01*
X318974Y8683D01*
X319312Y7568D01*
X319861Y6540D01*
X320600Y5640D01*
X321501Y4901D01*
X322529Y4351D01*
X323644Y4013D01*
X324803Y3899D01*
X325963Y4013D01*
X327078Y4351D01*
X328105Y4901D01*
X329006Y5640D01*
X329745Y6540D01*
X330294Y7568D01*
X330632Y8683D01*
X330747Y9843D01*
X330632Y11002D01*
X330294Y12117D01*
X329745Y13145D01*
X329006Y14045D01*
X328105Y14784D01*
X327078Y15334D01*
X325963Y15672D01*
X324803Y15786D01*
D02*
G37*
G36*
X206693D02*
X205533Y15672D01*
X204418Y15334D01*
X203391Y14784D01*
X202490Y14045D01*
X201751Y13145D01*
X201202Y12117D01*
X200864Y11002D01*
X200749Y9843D01*
X200864Y8683D01*
X201202Y7568D01*
X201751Y6540D01*
X202490Y5640D01*
X203391Y4901D01*
X204418Y4351D01*
X205533Y4013D01*
X206693Y3899D01*
X207852Y4013D01*
X208967Y4351D01*
X209995Y4901D01*
X210896Y5640D01*
X211635Y6540D01*
X212184Y7568D01*
X212522Y8683D01*
X212636Y9843D01*
X212522Y11002D01*
X212184Y12117D01*
X211635Y13145D01*
X210896Y14045D01*
X209995Y14784D01*
X208967Y15334D01*
X207852Y15672D01*
X206693Y15786D01*
D02*
G37*
%LPD*%
G36*
X267052Y224902D02*
X267045Y224958D01*
X267027Y225008D01*
X266997Y225052D01*
X266955Y225091D01*
X266901Y225123D01*
X266835Y225150D01*
X266756Y225170D01*
X266666Y225185D01*
X266564Y225194D01*
X266449Y225197D01*
Y225787D01*
X266564Y225790D01*
X266666Y225799D01*
X266756Y225814D01*
X266835Y225835D01*
X266901Y225861D01*
X266955Y225894D01*
X266997Y225932D01*
X267027Y225976D01*
X267045Y226027D01*
X267052Y226083D01*
Y224902D01*
D02*
G37*
G36*
X36363Y203248D02*
X36343Y203435D01*
X36283Y203602D01*
X36184Y203750D01*
X36046Y203878D01*
X35868Y203986D01*
X35650Y204075D01*
X35392Y204144D01*
X35095Y204193D01*
X34758Y204222D01*
X34382Y204232D01*
Y206201D01*
X34758Y206210D01*
X35095Y206240D01*
X35392Y206289D01*
X35650Y206358D01*
X35868Y206447D01*
X36046Y206555D01*
X36184Y206683D01*
X36283Y206831D01*
X36343Y206998D01*
X36363Y207185D01*
Y203248D01*
D02*
G37*
G36*
X25537Y199306D02*
X25764Y199117D01*
X25875Y199040D01*
X25986Y198975D01*
X26095Y198921D01*
X26203Y198880D01*
X26309Y198850D01*
X26414Y198832D01*
X26518Y198827D01*
Y198220D01*
X26414Y198214D01*
X26309Y198196D01*
X26203Y198167D01*
X26095Y198125D01*
X25986Y198072D01*
X25875Y198007D01*
X25764Y197930D01*
X25651Y197841D01*
X25537Y197740D01*
X25421Y197628D01*
Y199419D01*
X25537Y199306D01*
D02*
G37*
G36*
X20475Y198349D02*
X20502Y198055D01*
X20526Y197921D01*
X20558Y197797D01*
X20597Y197682D01*
X20644Y197577D01*
X20698Y197480D01*
X20760Y197394D01*
X20830Y197316D01*
X20401Y196887D01*
X20323Y196957D01*
X20236Y197018D01*
X20140Y197073D01*
X20034Y197119D01*
X19920Y197159D01*
X19796Y197191D01*
X19662Y197215D01*
X19520Y197232D01*
X19367Y197242D01*
X19206Y197244D01*
X20473Y198511D01*
X20475Y198349D01*
D02*
G37*
G36*
X23453Y194453D02*
X23363Y194575D01*
X23272Y194684D01*
X23178Y194781D01*
X23083Y194864D01*
X22985Y194935D01*
X22885Y194992D01*
X22782Y195037D01*
X22678Y195070D01*
X22571Y195089D01*
X22463Y195095D01*
X22572Y195702D01*
X22669Y195707D01*
X22770Y195722D01*
X22877Y195748D01*
X22988Y195784D01*
X23105Y195831D01*
X23226Y195887D01*
X23484Y196032D01*
X23621Y196119D01*
X23762Y196217D01*
X23453Y194453D01*
D02*
G37*
G36*
X37229Y194276D02*
X37223Y194333D01*
X37204Y194385D01*
X37173Y194430D01*
X37130Y194470D01*
X37074Y194503D01*
X37006Y194530D01*
X36926Y194552D01*
X36833Y194567D01*
X36728Y194576D01*
X36610Y194579D01*
Y195185D01*
X36728Y195188D01*
X36833Y195197D01*
X36926Y195212D01*
X37006Y195234D01*
X37074Y195261D01*
X37130Y195294D01*
X37173Y195334D01*
X37204Y195379D01*
X37223Y195431D01*
X37229Y195488D01*
Y194276D01*
D02*
G37*
G36*
X25714Y195642D02*
X25789Y195529D01*
X25869Y195430D01*
X25953Y195345D01*
X26042Y195272D01*
X26135Y195213D01*
X26233Y195166D01*
X26335Y195133D01*
X26442Y195114D01*
X26553Y195107D01*
X26361Y194501D01*
X26273Y194496D01*
X26176Y194483D01*
X26072Y194460D01*
X25960Y194429D01*
X25712Y194340D01*
X25576Y194282D01*
X25120Y194054D01*
X25643Y195767D01*
X25714Y195642D01*
D02*
G37*
G36*
X37229Y186402D02*
X37223Y186459D01*
X37204Y186511D01*
X37173Y186556D01*
X37130Y186596D01*
X37074Y186629D01*
X37006Y186656D01*
X36926Y186677D01*
X36833Y186693D01*
X36728Y186702D01*
X36610Y186705D01*
Y187311D01*
X36728Y187314D01*
X36833Y187323D01*
X36926Y187338D01*
X37006Y187359D01*
X37074Y187387D01*
X37130Y187420D01*
X37173Y187460D01*
X37204Y187505D01*
X37223Y187557D01*
X37229Y187614D01*
Y186402D01*
D02*
G37*
G36*
X147662Y175197D02*
X147656Y175253D01*
X147638Y175303D01*
X147608Y175347D01*
X147565Y175386D01*
X147511Y175418D01*
X147445Y175445D01*
X147367Y175466D01*
X147276Y175480D01*
X147174Y175489D01*
X147059Y175492D01*
Y176083D01*
X147174Y176086D01*
X147276Y176094D01*
X147367Y176109D01*
X147445Y176130D01*
X147511Y176156D01*
X147565Y176189D01*
X147608Y176227D01*
X147638Y176272D01*
X147656Y176322D01*
X147662Y176378D01*
Y175197D01*
D02*
G37*
G36*
X143781Y176322D02*
X143799Y176272D01*
X143829Y176227D01*
X143872Y176189D01*
X143926Y176156D01*
X143992Y176130D01*
X144070Y176109D01*
X144161Y176094D01*
X144263Y176086D01*
X144378Y176083D01*
Y175492D01*
X144263Y175489D01*
X144161Y175480D01*
X144070Y175466D01*
X143992Y175445D01*
X143926Y175418D01*
X143872Y175386D01*
X143829Y175347D01*
X143799Y175303D01*
X143781Y175253D01*
X143775Y175197D01*
Y176378D01*
X143781Y176322D01*
D02*
G37*
G36*
X116676Y170195D02*
X116626Y170177D01*
X116582Y170147D01*
X116543Y170105D01*
X116511Y170051D01*
X116484Y169984D01*
X116464Y169906D01*
X116449Y169820D01*
X116458Y169766D01*
X116485Y169667D01*
X116522Y169567D01*
X116570Y169466D01*
X116628Y169365D01*
X116697Y169263D01*
X116777Y169161D01*
X116867Y169058D01*
X116969Y168954D01*
X115315D01*
X115416Y169058D01*
X115586Y169263D01*
X115655Y169365D01*
X115714Y169466D01*
X115761Y169567D01*
X115799Y169667D01*
X115825Y169766D01*
X115834Y169820D01*
X115820Y169906D01*
X115799Y169984D01*
X115773Y170051D01*
X115740Y170105D01*
X115702Y170147D01*
X115657Y170177D01*
X115607Y170195D01*
X115551Y170201D01*
X116732D01*
X116676Y170195D01*
D02*
G37*
G36*
X116867Y167163D02*
X116697Y166957D01*
X116628Y166855D01*
X116570Y166754D01*
X116522Y166654D01*
X116485Y166554D01*
X116458Y166454D01*
X116442Y166356D01*
X116437Y166258D01*
X115847D01*
X115841Y166356D01*
X115825Y166454D01*
X115799Y166554D01*
X115761Y166654D01*
X115714Y166754D01*
X115655Y166855D01*
X115586Y166957D01*
X115506Y167060D01*
X115416Y167163D01*
X115315Y167267D01*
X116969D01*
X116867Y167163D01*
D02*
G37*
G36*
X116440Y163850D02*
X116449Y163748D01*
X116464Y163657D01*
X116484Y163579D01*
X116511Y163513D01*
X116543Y163458D01*
X116582Y163416D01*
X116626Y163386D01*
X116676Y163368D01*
X116732Y163362D01*
X115551D01*
X115607Y163368D01*
X115657Y163386D01*
X115702Y163416D01*
X115740Y163458D01*
X115773Y163513D01*
X115799Y163579D01*
X115820Y163657D01*
X115835Y163748D01*
X115843Y163850D01*
X115847Y163964D01*
X116437D01*
X116440Y163850D01*
D02*
G37*
G36*
X224138Y138145D02*
X224132Y138201D01*
X224114Y138251D01*
X224084Y138295D01*
X224042Y138333D01*
X223988Y138366D01*
X223922Y138393D01*
X223843Y138413D01*
X223753Y138428D01*
X223650Y138437D01*
X223536Y138440D01*
Y139030D01*
X223650Y139033D01*
X223753Y139042D01*
X223843Y139057D01*
X223922Y139078D01*
X223988Y139104D01*
X224042Y139137D01*
X224084Y139175D01*
X224114Y139219D01*
X224132Y139270D01*
X224138Y139326D01*
Y138145D01*
D02*
G37*
G36*
X220455Y139270D02*
X220473Y139219D01*
X220503Y139175D01*
X220545Y139137D01*
X220599Y139104D01*
X220666Y139078D01*
X220744Y139057D01*
X220834Y139042D01*
X220937Y139033D01*
X221051Y139030D01*
Y138440D01*
X220937Y138437D01*
X220834Y138428D01*
X220744Y138413D01*
X220666Y138393D01*
X220599Y138366D01*
X220545Y138333D01*
X220503Y138295D01*
X220473Y138251D01*
X220455Y138201D01*
X220449Y138145D01*
Y139326D01*
X220455Y139270D01*
D02*
G37*
G36*
X19827Y137795D02*
X19819Y137870D01*
X19795Y137937D01*
X19755Y137996D01*
X19699Y138047D01*
X19627Y138091D01*
X19539Y138126D01*
X19435Y138154D01*
X19316Y138173D01*
X19180Y138185D01*
X19028Y138189D01*
Y138976D01*
X19180Y138980D01*
X19316Y138992D01*
X19435Y139012D01*
X19539Y139039D01*
X19627Y139075D01*
X19699Y139118D01*
X19755Y139169D01*
X19795Y139228D01*
X19819Y139295D01*
X19827Y139370D01*
Y137795D01*
D02*
G37*
G36*
X17071Y139327D02*
X17160Y139253D01*
X17252Y139189D01*
X17346Y139132D01*
X17442Y139085D01*
X17541Y139046D01*
X17643Y139015D01*
X17747Y138994D01*
X17854Y138981D01*
X17964Y138976D01*
Y138189D01*
X17854Y138185D01*
X17747Y138172D01*
X17643Y138150D01*
X17541Y138120D01*
X17442Y138081D01*
X17346Y138033D01*
X17252Y137977D01*
X17160Y137912D01*
X17071Y137838D01*
X16985Y137756D01*
Y139409D01*
X17071Y139327D01*
D02*
G37*
G36*
X28469Y137038D02*
X28386Y137008D01*
X28312Y136958D01*
X28248Y136888D01*
X28194Y136799D01*
X28150Y136689D01*
X28115Y136559D01*
X28091Y136410D01*
X28076Y136241D01*
X28071Y136051D01*
X27087D01*
X27082Y136241D01*
X27067Y136410D01*
X27042Y136559D01*
X27008Y136689D01*
X26964Y136799D01*
X26910Y136888D01*
X26845Y136958D01*
X26772Y137008D01*
X26688Y137038D01*
X26594Y137048D01*
X28563D01*
X28469Y137038D01*
D02*
G37*
G36*
X28076Y135543D02*
X28091Y135373D01*
X28115Y135224D01*
X28150Y135094D01*
X28194Y134985D01*
X28248Y134895D01*
X28312Y134826D01*
X28386Y134776D01*
X28469Y134746D01*
X28563Y134736D01*
X26594D01*
X26688Y134746D01*
X26772Y134776D01*
X26845Y134826D01*
X26910Y134895D01*
X26964Y134985D01*
X27008Y135094D01*
X27042Y135224D01*
X27067Y135373D01*
X27082Y135543D01*
X27087Y135732D01*
X28071D01*
X28076Y135543D01*
D02*
G37*
G36*
X20504Y130835D02*
X20484Y131020D01*
X20425Y131185D01*
X20327Y131331D01*
X20189Y131457D01*
X20012Y131564D01*
X19795Y131651D01*
X19540Y131720D01*
X19244Y131768D01*
X18910Y131797D01*
X18536Y131807D01*
Y133776D01*
X18910Y133785D01*
X19244Y133815D01*
X19540Y133863D01*
X19795Y133931D01*
X20012Y134019D01*
X20189Y134126D01*
X20327Y134252D01*
X20425Y134398D01*
X20484Y134563D01*
X20504Y134748D01*
Y130835D01*
D02*
G37*
G36*
X22945Y132061D02*
X22906Y131964D01*
X22871Y131837D01*
X22840Y131680D01*
X22814Y131492D01*
X22777Y131026D01*
X22773Y130847D01*
X23000D01*
X22954Y130839D01*
X22912Y130817D01*
X22876Y130780D01*
X22844Y130727D01*
X22817Y130660D01*
X22795Y130577D01*
X22778Y130480D01*
X22766Y130368D01*
X22756Y130098D01*
X21772D01*
X21769Y130241D01*
X21750Y130480D01*
X21733Y130577D01*
X21711Y130660D01*
X21684Y130727D01*
X21652Y130780D01*
X21615Y130817D01*
X21574Y130839D01*
X21527Y130847D01*
X21742D01*
X21688Y131680D01*
X21657Y131837D01*
X21622Y131964D01*
X21582Y132061D01*
X21538Y132127D01*
X22990D01*
X22945Y132061D01*
D02*
G37*
G36*
X28450Y130837D02*
X28366Y130807D01*
X28292Y130757D01*
X28228Y130687D01*
X28174Y130598D01*
X28130Y130488D01*
X28095Y130359D01*
X28071Y130209D01*
X28056Y130040D01*
X28051Y129851D01*
X27067D01*
X27062Y130040D01*
X27047Y130209D01*
X27023Y130359D01*
X26988Y130488D01*
X26944Y130598D01*
X26890Y130687D01*
X26826Y130757D01*
X26752Y130807D01*
X26668Y130837D01*
X26575Y130847D01*
X28543D01*
X28450Y130837D01*
D02*
G37*
G36*
X28056Y128541D02*
X28071Y128374D01*
X28095Y128226D01*
X28130Y128098D01*
X28174Y127990D01*
X28228Y127901D01*
X28292Y127832D01*
X28366Y127783D01*
X28450Y127754D01*
X28543Y127744D01*
X26575D01*
X26668Y127754D01*
X26752Y127783D01*
X26826Y127832D01*
X26890Y127901D01*
X26944Y127990D01*
X26988Y128098D01*
X27023Y128226D01*
X27047Y128374D01*
X27062Y128541D01*
X27067Y128728D01*
X28051D01*
X28056Y128541D01*
D02*
G37*
G36*
X24314Y128391D02*
X24339Y128136D01*
X24360Y128032D01*
X24388Y127944D01*
X24422Y127872D01*
X24462Y127816D01*
X24508Y127776D01*
X24560Y127752D01*
X24618Y127744D01*
X23020D01*
X23078Y127752D01*
X23130Y127776D01*
X23176Y127816D01*
X23216Y127872D01*
X23250Y127944D01*
X23278Y128032D01*
X23299Y128136D01*
X23314Y128255D01*
X23324Y128391D01*
X23327Y128543D01*
X24311D01*
X24314Y128391D01*
D02*
G37*
G36*
X28056Y119092D02*
X28071Y118925D01*
X28095Y118777D01*
X28130Y118649D01*
X28174Y118541D01*
X28228Y118453D01*
X28292Y118384D01*
X28366Y118334D01*
X28450Y118305D01*
X28543Y118295D01*
X26575D01*
X26668Y118305D01*
X26752Y118334D01*
X26826Y118384D01*
X26890Y118453D01*
X26944Y118541D01*
X26988Y118649D01*
X27023Y118777D01*
X27047Y118925D01*
X27062Y119092D01*
X27067Y119279D01*
X28051D01*
X28056Y119092D01*
D02*
G37*
G36*
X37930Y118221D02*
X38292Y117915D01*
X38452Y117804D01*
X38598Y117720D01*
X38731Y117665D01*
X38849Y117637D01*
X38954D01*
X39044Y117665D01*
X39121Y117720D01*
X37729Y116328D01*
X37784Y116405D01*
X37812Y116495D01*
Y116600D01*
X37784Y116718D01*
X37729Y116850D01*
X37645Y116997D01*
X37534Y117157D01*
X37394Y117331D01*
X37033Y117720D01*
X37729Y118416D01*
X37930Y118221D01*
D02*
G37*
G36*
X22563Y115551D02*
X22557Y115607D01*
X22539Y115657D01*
X22509Y115702D01*
X22467Y115740D01*
X22413Y115773D01*
X22346Y115799D01*
X22268Y115820D01*
X22178Y115835D01*
X22075Y115843D01*
X21961Y115847D01*
Y116437D01*
X22075Y116440D01*
X22178Y116449D01*
X22268Y116464D01*
X22346Y116484D01*
X22413Y116511D01*
X22467Y116543D01*
X22509Y116582D01*
X22539Y116626D01*
X22557Y116676D01*
X22563Y116732D01*
Y115551D01*
D02*
G37*
G36*
X14549Y116676D02*
X14567Y116626D01*
X14597Y116582D01*
X14639Y116543D01*
X14694Y116511D01*
X14760Y116484D01*
X14838Y116464D01*
X14929Y116449D01*
X15031Y116440D01*
X15146Y116437D01*
Y115847D01*
X15031Y115843D01*
X14929Y115835D01*
X14838Y115820D01*
X14760Y115799D01*
X14694Y115773D01*
X14639Y115740D01*
X14597Y115702D01*
X14567Y115657D01*
X14549Y115607D01*
X14543Y115551D01*
Y116732D01*
X14549Y116676D01*
D02*
G37*
G36*
X48371Y115075D02*
X48360Y115168D01*
X48331Y115252D01*
X48281Y115326D01*
X48211Y115390D01*
X48121Y115444D01*
X48012Y115488D01*
X47882Y115523D01*
X47733Y115547D01*
X47563Y115562D01*
X47374Y115567D01*
Y116551D01*
X47563Y116556D01*
X47733Y116571D01*
X47882Y116595D01*
X48012Y116630D01*
X48121Y116674D01*
X48211Y116728D01*
X48281Y116792D01*
X48331Y116866D01*
X48360Y116950D01*
X48371Y117043D01*
Y115075D01*
D02*
G37*
G36*
X41049Y116950D02*
X41079Y116866D01*
X41129Y116792D01*
X41198Y116728D01*
X41288Y116674D01*
X41398Y116630D01*
X41527Y116595D01*
X41677Y116571D01*
X41846Y116556D01*
X42035Y116551D01*
Y115567D01*
X41846Y115562D01*
X41677Y115547D01*
X41527Y115523D01*
X41398Y115488D01*
X41288Y115444D01*
X41198Y115390D01*
X41129Y115326D01*
X41079Y115252D01*
X41049Y115168D01*
X41039Y115075D01*
Y117043D01*
X41049Y116950D01*
D02*
G37*
G36*
X31834Y113994D02*
X31784Y113976D01*
X31739Y113946D01*
X31701Y113904D01*
X31668Y113850D01*
X31642Y113784D01*
X31621Y113705D01*
X31606Y113615D01*
X31597Y113512D01*
X31594Y113398D01*
X31004D01*
X31001Y113512D01*
X30992Y113615D01*
X30977Y113705D01*
X30957Y113784D01*
X30930Y113850D01*
X30898Y113904D01*
X30859Y113946D01*
X30815Y113976D01*
X30765Y113994D01*
X30709Y114000D01*
X31890D01*
X31834Y113994D01*
D02*
G37*
G36*
X24353D02*
X24303Y113976D01*
X24259Y113946D01*
X24220Y113904D01*
X24188Y113850D01*
X24161Y113784D01*
X24141Y113705D01*
X24126Y113615D01*
X24117Y113512D01*
X24114Y113398D01*
X23524D01*
X23521Y113512D01*
X23512Y113615D01*
X23497Y113705D01*
X23476Y113784D01*
X23450Y113850D01*
X23417Y113904D01*
X23379Y113946D01*
X23335Y113976D01*
X23284Y113994D01*
X23228Y114000D01*
X24409D01*
X24353Y113994D01*
D02*
G37*
G36*
X18713Y105303D02*
X18586Y105172D01*
X18388Y104942D01*
X18317Y104842D01*
X18265Y104754D01*
X18231Y104675D01*
X18216Y104608D01*
X18220Y104551D01*
X18242Y104504D01*
X18283Y104468D01*
X17263Y105094D01*
X17319Y105073D01*
X17385Y105070D01*
X17463Y105087D01*
X17551Y105122D01*
X17650Y105176D01*
X17760Y105250D01*
X17880Y105342D01*
X18154Y105583D01*
X18307Y105733D01*
X18713Y105303D01*
D02*
G37*
G36*
X38143Y98106D02*
X38384Y97898D01*
X38486Y97825D01*
X38575Y97773D01*
X38653Y97742D01*
X38718Y97731D01*
X38771Y97741D01*
X38811Y97772D01*
X38839Y97823D01*
X38398Y96594D01*
X38414Y96657D01*
X38416Y96725D01*
X38407Y96798D01*
X38384Y96875D01*
X38349Y96956D01*
X38300Y97042D01*
X38240Y97132D01*
X38166Y97227D01*
X38080Y97326D01*
X37980Y97429D01*
X38004Y98240D01*
X38143Y98106D01*
D02*
G37*
G36*
X50024Y95669D02*
X50018Y95725D01*
X50000Y95776D01*
X49970Y95820D01*
X49928Y95858D01*
X49873Y95891D01*
X49807Y95917D01*
X49729Y95938D01*
X49638Y95953D01*
X49536Y95962D01*
X49422Y95965D01*
Y96555D01*
X49536Y96558D01*
X49638Y96567D01*
X49729Y96582D01*
X49807Y96602D01*
X49873Y96629D01*
X49928Y96661D01*
X49970Y96700D01*
X50000Y96744D01*
X50018Y96794D01*
X50024Y96850D01*
Y95669D01*
D02*
G37*
G36*
X41911Y96794D02*
X41929Y96744D01*
X41959Y96700D01*
X42002Y96661D01*
X42056Y96629D01*
X42122Y96602D01*
X42200Y96582D01*
X42291Y96567D01*
X42393Y96558D01*
X42508Y96555D01*
Y95965D01*
X42393Y95962D01*
X42291Y95953D01*
X42200Y95938D01*
X42122Y95917D01*
X42056Y95891D01*
X42002Y95858D01*
X41959Y95820D01*
X41929Y95776D01*
X41911Y95725D01*
X41905Y95669D01*
Y96850D01*
X41911Y96794D01*
D02*
G37*
G36*
X14110Y97544D02*
X14284Y97586D01*
X14461Y97649D01*
X14599Y97724D01*
X14697Y97811D01*
X14756Y97910D01*
X14776Y98019D01*
Y94894D01*
X14756Y95004D01*
X14697Y95102D01*
X14599Y95189D01*
X14461Y95264D01*
X14284Y95328D01*
X14110Y95370D01*
Y93356D01*
X13564Y93758D01*
X13010Y94118D01*
X12447Y94435D01*
X11876Y94710D01*
X11296Y94943D01*
X10708Y95134D01*
X10111Y95282D01*
X9505Y95388D01*
X8891Y95451D01*
X8268Y95472D01*
Y97441D01*
X8891Y97462D01*
X9505Y97526D01*
X10111Y97631D01*
X10708Y97780D01*
X11296Y97970D01*
X11876Y98203D01*
X12447Y98478D01*
X13010Y98796D01*
X13564Y99156D01*
X14110Y99558D01*
Y97544D01*
D02*
G37*
G36*
X68795Y63072D02*
X68734Y63011D01*
X68680Y62941D01*
X68634Y62862D01*
X68594Y62775D01*
X68562Y62679D01*
X68536Y62574D01*
X68518Y62461D01*
X68507Y62339D01*
X68504Y62208D01*
X67716D01*
X67713Y62339D01*
X67702Y62461D01*
X67684Y62574D01*
X67659Y62679D01*
X67627Y62775D01*
X67587Y62862D01*
X67540Y62941D01*
X67486Y63011D01*
X67425Y63072D01*
X67357Y63124D01*
X68864D01*
X68795Y63072D01*
D02*
G37*
G36*
X53457Y56410D02*
X53437Y56538D01*
X53378Y56653D01*
X53280Y56755D01*
X53142Y56843D01*
X52965Y56917D01*
X52748Y56978D01*
X52492Y57026D01*
X52197Y57060D01*
X51862Y57080D01*
X51488Y57087D01*
Y59055D01*
X51862Y59062D01*
X52492Y59116D01*
X52748Y59163D01*
X52965Y59224D01*
X53142Y59299D01*
X53280Y59387D01*
X53378Y59488D01*
X53437Y59604D01*
X53457Y59732D01*
Y56410D01*
D02*
G37*
G36*
X37137Y60044D02*
X37383Y59836D01*
X37634Y59653D01*
X37890Y59495D01*
X38151Y59360D01*
X38417Y59250D01*
X38687Y59165D01*
X38963Y59104D01*
X39243Y59067D01*
X39527Y59055D01*
Y57087D01*
X39243Y57074D01*
X38963Y57038D01*
X38687Y56977D01*
X38417Y56891D01*
X38151Y56782D01*
X37890Y56647D01*
X37634Y56489D01*
X37383Y56305D01*
X37137Y56098D01*
X36895Y55866D01*
Y60276D01*
X37137Y60044D01*
D02*
G37*
G36*
X55757Y57299D02*
X55705Y57191D01*
X55660Y57052D01*
X55621Y56882D01*
X55588Y56680D01*
X55561Y56410D01*
X55905D01*
X55831Y56402D01*
X55764Y56378D01*
X55705Y56339D01*
X55654Y56284D01*
X55610Y56213D01*
X55575Y56126D01*
X55547Y56024D01*
X55528Y55911D01*
X55515Y55559D01*
X55512Y55200D01*
X54724D01*
X54721Y55559D01*
X54693Y56001D01*
X54689Y56024D01*
X54661Y56126D01*
X54626Y56213D01*
X54583Y56284D01*
X54532Y56339D01*
X54472Y56378D01*
X54405Y56402D01*
X54331Y56410D01*
X54666D01*
X54649Y56680D01*
X54615Y56882D01*
X54576Y57052D01*
X54531Y57191D01*
X54479Y57299D01*
X54422Y57375D01*
X55814D01*
X55757Y57299D01*
D02*
G37*
G36*
X186737Y45079D02*
X186729Y45153D01*
X186705Y45221D01*
X186665Y45279D01*
X186609Y45331D01*
X186537Y45374D01*
X186449Y45409D01*
X186345Y45437D01*
X186225Y45457D01*
X186089Y45469D01*
X185937Y45472D01*
Y46260D01*
X186089Y46264D01*
X186225Y46276D01*
X186345Y46295D01*
X186449Y46323D01*
X186537Y46358D01*
X186609Y46402D01*
X186665Y46453D01*
X186705Y46512D01*
X186729Y46579D01*
X186737Y46654D01*
Y45079D01*
D02*
G37*
G36*
X197819Y43035D02*
X197843Y42968D01*
X197883Y42909D01*
X197939Y42858D01*
X198011Y42815D01*
X198098Y42779D01*
X198202Y42752D01*
X198322Y42732D01*
X198458Y42720D01*
X198610Y42717D01*
Y41929D01*
X198458Y41925D01*
X198322Y41913D01*
X198202Y41894D01*
X198098Y41866D01*
X198011Y41831D01*
X197939Y41787D01*
X197883Y41736D01*
X197843Y41677D01*
X197819Y41610D01*
X197811Y41535D01*
Y43110D01*
X197819Y43035D01*
D02*
G37*
G36*
X193922Y41535D02*
X193914Y41610D01*
X193890Y41677D01*
X193850Y41736D01*
X193794Y41787D01*
X193722Y41831D01*
X193634Y41866D01*
X193530Y41894D01*
X193410Y41913D01*
X193274Y41925D01*
X193122Y41929D01*
Y42717D01*
X193274Y42720D01*
X193410Y42732D01*
X193530Y42752D01*
X193634Y42779D01*
X193722Y42815D01*
X193794Y42858D01*
X193850Y42909D01*
X193890Y42968D01*
X193914Y43035D01*
X193922Y43110D01*
Y41535D01*
D02*
G37*
G36*
X199747Y41496D02*
X199661Y41578D01*
X199572Y41652D01*
X199481Y41717D01*
X199387Y41773D01*
X199290Y41821D01*
X199191Y41860D01*
X199089Y41890D01*
X198985Y41912D01*
X198878Y41925D01*
X198768Y41929D01*
Y42717D01*
X198878Y42721D01*
X198985Y42734D01*
X199089Y42755D01*
X199191Y42786D01*
X199290Y42825D01*
X199387Y42872D01*
X199481Y42929D01*
X199572Y42994D01*
X199661Y43067D01*
X199747Y43150D01*
Y41496D01*
D02*
G37*
G36*
X189098Y37603D02*
X189032Y37579D01*
X188972Y37540D01*
X188921Y37484D01*
X188878Y37414D01*
X188842Y37327D01*
X188815Y37225D01*
X188795Y37106D01*
X188784Y36973D01*
X188779Y36823D01*
X187992D01*
X187988Y36973D01*
X187976Y37106D01*
X187957Y37225D01*
X187929Y37327D01*
X187894Y37414D01*
X187850Y37484D01*
X187799Y37540D01*
X187740Y37579D01*
X187673Y37603D01*
X187598Y37610D01*
X189173D01*
X189098Y37603D01*
D02*
G37*
G36*
X193922Y34843D02*
X193914Y34917D01*
X193890Y34984D01*
X193850Y35043D01*
X193794Y35094D01*
X193722Y35138D01*
X193634Y35173D01*
X193530Y35201D01*
X193410Y35221D01*
X193274Y35232D01*
X193122Y35236D01*
Y36024D01*
X193274Y36028D01*
X193410Y36039D01*
X193530Y36059D01*
X193634Y36087D01*
X193722Y36122D01*
X193794Y36165D01*
X193850Y36217D01*
X193890Y36276D01*
X193914Y36342D01*
X193922Y36417D01*
Y34843D01*
D02*
G37*
G36*
X197819Y36146D02*
X197843Y36079D01*
X197883Y36020D01*
X197939Y35969D01*
X198011Y35925D01*
X198098Y35890D01*
X198202Y35862D01*
X198322Y35842D01*
X198458Y35831D01*
X198610Y35827D01*
Y35039D01*
X198458Y35035D01*
X198322Y35024D01*
X198202Y35004D01*
X198098Y34976D01*
X198011Y34941D01*
X197939Y34898D01*
X197883Y34846D01*
X197843Y34787D01*
X197819Y34721D01*
X197811Y34646D01*
Y36220D01*
X197819Y36146D01*
D02*
G37*
G36*
X199944Y34606D02*
X199858Y34689D01*
X199769Y34762D01*
X199678Y34827D01*
X199584Y34883D01*
X199487Y34931D01*
X199388Y34970D01*
X199286Y35000D01*
X199182Y35022D01*
X199075Y35035D01*
X198965Y35039D01*
Y35827D01*
X199075Y35831D01*
X199182Y35844D01*
X199286Y35866D01*
X199388Y35896D01*
X199487Y35935D01*
X199584Y35983D01*
X199678Y36039D01*
X199769Y36104D01*
X199858Y36178D01*
X199944Y36260D01*
Y34606D01*
D02*
G37*
G36*
X147760Y14173D02*
X147752Y14248D01*
X147728Y14315D01*
X147688Y14374D01*
X147632Y14425D01*
X147560Y14469D01*
X147473Y14504D01*
X147369Y14532D01*
X147249Y14551D01*
X147113Y14563D01*
X146961Y14567D01*
Y15354D01*
X147113Y15358D01*
X147249Y15370D01*
X147369Y15390D01*
X147473Y15417D01*
X147560Y15453D01*
X147632Y15496D01*
X147688Y15547D01*
X147728Y15606D01*
X147752Y15673D01*
X147760Y15748D01*
Y14173D01*
D02*
G37*
G36*
X144177Y15673D02*
X144201Y15606D01*
X144241Y15547D01*
X144297Y15496D01*
X144369Y15453D01*
X144457Y15417D01*
X144561Y15390D01*
X144681Y15370D01*
X144816Y15358D01*
X144968Y15354D01*
Y14567D01*
X144816Y14563D01*
X144681Y14551D01*
X144561Y14532D01*
X144457Y14504D01*
X144369Y14469D01*
X144297Y14425D01*
X144241Y14374D01*
X144201Y14315D01*
X144177Y14248D01*
X144169Y14173D01*
Y15748D01*
X144177Y15673D01*
D02*
G37*
G36*
X140870Y14173D02*
X140863Y14248D01*
X140839Y14315D01*
X140798Y14374D01*
X140743Y14425D01*
X140671Y14469D01*
X140583Y14504D01*
X140479Y14532D01*
X140359Y14551D01*
X140223Y14563D01*
X140071Y14567D01*
Y15354D01*
X140223Y15358D01*
X140359Y15370D01*
X140479Y15390D01*
X140583Y15417D01*
X140671Y15453D01*
X140743Y15496D01*
X140798Y15547D01*
X140839Y15606D01*
X140863Y15673D01*
X140870Y15748D01*
Y14173D01*
D02*
G37*
G36*
X136401Y15673D02*
X136425Y15606D01*
X136465Y15547D01*
X136521Y15496D01*
X136593Y15453D01*
X136681Y15417D01*
X136785Y15390D01*
X136905Y15370D01*
X137041Y15358D01*
X137193Y15354D01*
Y14567D01*
X137041Y14563D01*
X136905Y14551D01*
X136785Y14532D01*
X136681Y14504D01*
X136593Y14469D01*
X136521Y14425D01*
X136465Y14374D01*
X136425Y14315D01*
X136401Y14248D01*
X136393Y14173D01*
Y15748D01*
X136401Y15673D01*
D02*
G37*
%LPC*%
G36*
X249508Y206535D02*
X245374D01*
X244794Y206419D01*
X244303Y206091D01*
X243974Y205599D01*
X243859Y205020D01*
X243974Y204440D01*
X244303Y203948D01*
X244794Y203620D01*
X245374Y203505D01*
X249508D01*
X250088Y203620D01*
X250579Y203948D01*
X250907Y204440D01*
X251023Y205020D01*
X250907Y205599D01*
X250579Y206091D01*
X250088Y206419D01*
X249508Y206535D01*
D02*
G37*
G36*
Y191180D02*
X245374D01*
X244794Y191065D01*
X244303Y190737D01*
X243974Y190245D01*
X243859Y189665D01*
X243974Y189086D01*
X244303Y188594D01*
D01*
Y188178D01*
X243974Y187686D01*
X243859Y187106D01*
X243974Y186527D01*
X244303Y186035D01*
X244794Y185707D01*
X245374Y185591D01*
X249508D01*
X250088Y185707D01*
X250459Y185955D01*
X250577Y185998D01*
X251064Y186061D01*
X251073Y186056D01*
X251126Y186024D01*
X251186Y185981D01*
X251252Y185926D01*
X251322Y185860D01*
X251408Y185770D01*
X251455Y185749D01*
X251472Y185724D01*
X252061Y185330D01*
X252756Y185192D01*
X253451Y185330D01*
X254040Y185724D01*
X254434Y186313D01*
X254572Y187008D01*
X254434Y187703D01*
X254040Y188292D01*
X253451Y188686D01*
X252756Y188824D01*
X252061Y188686D01*
X251616Y188389D01*
X251514Y188352D01*
X251416Y188265D01*
X251334Y188198D01*
X251257Y188142D01*
X251187Y188097D01*
X251154Y188079D01*
X250665Y188080D01*
X250579Y188388D01*
Y188594D01*
X250907Y189086D01*
X251023Y189665D01*
X250907Y190245D01*
X250579Y190737D01*
X250088Y191065D01*
X249508Y191180D01*
D02*
G37*
%LPD*%
G36*
X251879Y186217D02*
X251780Y186320D01*
X251682Y186413D01*
X251584Y186495D01*
X251485Y186566D01*
X251386Y186626D01*
X251288Y186675D01*
X251189Y186713D01*
X251090Y186740D01*
X250991Y186756D01*
X250901Y186761D01*
X250805Y186759D01*
X250699Y186750D01*
X250601Y186736D01*
X250511Y186716D01*
X250429Y186690D01*
X250355Y186659D01*
X250288Y186622D01*
X250230Y186579D01*
X250180Y186530D01*
X250138Y186476D01*
X250187Y187641D01*
X250192Y187586D01*
X250213Y187537D01*
X250250Y187494D01*
X250302Y187456D01*
X250369Y187425D01*
X250452Y187399D01*
X250551Y187378D01*
X250665Y187364D01*
X250795Y187355D01*
X250924Y187353D01*
X251014Y187357D01*
X251112Y187373D01*
X251212Y187399D01*
X251312Y187435D01*
X251415Y187481D01*
X251519Y187538D01*
X251624Y187606D01*
X251730Y187683D01*
X251838Y187771D01*
X251948Y187869D01*
X251879Y186217D01*
D02*
G37*
%LPC*%
G36*
X94793Y186132D02*
X90246D01*
Y181585D01*
X91577D01*
X91607Y181518D01*
Y179505D01*
X91577Y179439D01*
X90345D01*
Y174892D01*
X94891D01*
Y179439D01*
X93462D01*
X93432Y179505D01*
Y181518D01*
X93462Y181585D01*
X94793D01*
Y186132D01*
D02*
G37*
%LPD*%
G36*
X93054Y182203D02*
X93004Y182185D01*
X92960Y182155D01*
X92921Y182113D01*
X92889Y182058D01*
X92862Y181992D01*
X92842Y181914D01*
X92827Y181823D01*
X92818Y181721D01*
X92815Y181606D01*
X92224D01*
X92221Y181721D01*
X92213Y181823D01*
X92198Y181914D01*
X92177Y181992D01*
X92151Y182058D01*
X92118Y182113D01*
X92080Y182155D01*
X92035Y182185D01*
X91985Y182203D01*
X91929Y182209D01*
X93110D01*
X93054Y182203D01*
D02*
G37*
G36*
X92818Y179303D02*
X92827Y179200D01*
X92842Y179110D01*
X92862Y179032D01*
X92889Y178965D01*
X92921Y178911D01*
X92960Y178869D01*
X93004Y178839D01*
X93054Y178821D01*
X93110Y178815D01*
X91929D01*
X91985Y178821D01*
X92035Y178839D01*
X92080Y178869D01*
X92118Y178911D01*
X92151Y178965D01*
X92177Y179032D01*
X92198Y179110D01*
X92213Y179200D01*
X92221Y179303D01*
X92224Y179417D01*
X92815D01*
X92818Y179303D01*
D02*
G37*
D10*
X23819Y125591D02*
Y128543D01*
X22264Y130098D02*
X23819Y128543D01*
X22264Y130098D02*
Y132791D01*
X27579D02*
Y138697D01*
X27559Y132772D02*
X27579Y132791D01*
X27559Y125591D02*
Y132772D01*
X50232Y116059D02*
X50315Y116142D01*
X39390Y116059D02*
X50232D01*
X28740Y120866D02*
X34583D01*
X39390Y116059D01*
X27559Y119685D02*
X28740Y120866D01*
X27559Y116142D02*
Y119685D01*
D11*
X75984Y43307D02*
X78740D01*
X75787Y43110D02*
X75984Y43307D01*
X82677Y56693D02*
Y60236D01*
X82480Y60433D02*
X82677Y60236D01*
X71260Y52756D02*
X176772D01*
X68110Y55905D02*
X71260Y52756D01*
X68110Y55905D02*
Y65945D01*
X156496Y189961D02*
X163386Y196850D01*
X156496Y189961D02*
Y189961D01*
X139764Y207283D02*
X139764Y207283D01*
X174803Y51181D02*
X183661Y42323D01*
X58268Y51181D02*
X174803D01*
X55118Y54331D02*
X58268Y51181D01*
X176772Y52756D02*
X183661Y45866D01*
X55118Y54331D02*
Y58071D01*
X183661Y42323D02*
X195866D01*
X64567Y98425D02*
Y124803D01*
X60630Y128740D02*
X64567Y124803D01*
X38189Y128740D02*
X60630D01*
X55118Y84646D02*
Y88976D01*
Y64173D02*
Y84646D01*
Y88976D02*
X64567Y98425D01*
X192126Y47638D02*
X195866D01*
X195866Y47638D01*
X192126Y30315D02*
X195866D01*
X70571Y66043D02*
Y70768D01*
X70171Y71167D02*
X70472Y70866D01*
X70571Y70768D01*
Y66043D02*
X70669Y65945D01*
X70571Y65847D02*
X70669Y65945D01*
X34646Y132283D02*
X38189Y128740D01*
X34646Y132283D02*
Y169685D01*
X37402Y172441D01*
X72835D01*
X79528D02*
Y177362D01*
X79527Y177362D02*
X79528Y177362D01*
X177165Y107087D02*
Y110531D01*
X176969Y110728D02*
X177165Y110531D01*
X218898Y45669D02*
X221260Y43307D01*
X189961Y66929D02*
X205709Y51181D01*
X211417D01*
X178307Y66929D02*
X189961D01*
X161811Y72441D02*
X168710Y65542D01*
X169291Y66929D02*
X178307D01*
X153779Y82441D02*
X169291Y66929D01*
X136614Y82441D02*
X153779D01*
X136614Y72441D02*
X161811D01*
X254724Y225787D02*
X254921Y225590D01*
X254724Y225787D02*
Y229134D01*
X246850Y30315D02*
Y33858D01*
X247047Y34055D01*
X225515Y49288D02*
X225590Y49213D01*
X221260Y43307D02*
X225590D01*
X87402Y169685D02*
X92224D01*
X92618Y169291D01*
X85827Y171260D02*
X87402Y169685D01*
X85827Y171260D02*
Y177362D01*
X79527D02*
X85827D01*
X215551Y144685D02*
X218853D01*
X218898Y144641D01*
X231299Y131890D02*
Y142717D01*
X229178Y144837D02*
X231299Y142717D01*
X225788Y144837D02*
X229178D01*
X262795Y215551D02*
Y219587D01*
X168710Y65542D02*
X188395D01*
X204724Y49213D01*
X211417D01*
X211417Y51181D02*
X211417Y51181D01*
X196457Y35433D02*
X200787D01*
X196260Y35236D02*
X196457Y35433D01*
X70171Y71167D02*
Y72348D01*
X68110Y74410D02*
X70171Y72348D01*
X68110Y74410D02*
Y74606D01*
X70472Y61024D02*
X70571Y61122D01*
Y65847D01*
X82284Y65945D02*
X82480Y65748D01*
X75787Y65945D02*
X82284D01*
X73228D02*
Y74410D01*
X73425Y74606D01*
X218110Y42520D02*
X218536D01*
X219717Y41339D01*
X225590D01*
X195866Y35630D02*
X196260Y35236D01*
X188386Y36091D02*
Y39272D01*
Y36091D02*
X188847Y35630D01*
X195866D01*
X183661Y45866D02*
X187894D01*
X188386Y45374D01*
X195866Y42323D02*
X200591D01*
X96734Y210236D02*
X98327Y208643D01*
X16142Y138583D02*
X21362D01*
X21476Y138697D01*
X98327Y207382D02*
Y208643D01*
Y207382D02*
X98425Y207283D01*
X102362Y210039D02*
X106299Y213976D01*
X102362Y207283D02*
Y210039D01*
X99606Y211024D02*
X100394Y210236D01*
Y207283D02*
Y210236D01*
X99409Y214173D02*
X99606Y214370D01*
Y211024D02*
Y214370D01*
X106299Y213976D02*
Y214173D01*
X98819Y174016D02*
Y177067D01*
X98721Y177165D02*
X98819Y177067D01*
X49055Y205216D02*
X49213Y205374D01*
Y218110D01*
X142520Y14961D02*
X149409D01*
X142520Y14961D02*
X142520Y14961D01*
X134646Y14961D02*
X142520D01*
X123425Y15157D02*
X126772Y18504D01*
X119882Y15157D02*
X123425D01*
X95343D02*
X113976D01*
X94882Y14696D02*
X95343Y15157D01*
X94882Y14567D02*
Y14696D01*
X79921Y23622D02*
X80315D01*
X74213D02*
X79921D01*
X73228Y24606D02*
X74213Y23622D01*
X73228Y24606D02*
Y43110D01*
X64961Y23622D02*
X69685D01*
X70669Y24606D01*
Y43110D01*
X109252Y200394D02*
X125000D01*
X104331Y207283D02*
X106299D01*
X106398Y207382D01*
Y208760D01*
X111614Y213976D01*
Y214173D01*
X95472Y210236D02*
X96734D01*
X91535Y214173D02*
X95472Y210236D01*
D13*
X51772Y96260D02*
X51968Y96457D01*
X40157Y96260D02*
X51772D01*
X163278Y24302D02*
X222333D01*
X160039Y21063D02*
X163278Y24302D01*
X149409Y21063D02*
X160039D01*
X142520D02*
Y25197D01*
X134646Y22047D02*
Y25984D01*
Y22047D02*
X134646Y22047D01*
X164241Y20934D02*
X251642D01*
X153543Y10236D02*
X164241Y20934D01*
X40354Y103150D02*
X44488D01*
X40157Y103347D02*
X40354Y103150D01*
X251642Y20934D02*
X253651Y22942D01*
Y37294D01*
X222333Y24302D02*
X223622Y25591D01*
X233465Y30512D02*
X237294Y26683D01*
Y23336D02*
Y26683D01*
X223622Y25591D02*
Y30315D01*
X211417Y70866D02*
Y72835D01*
Y68898D02*
Y70866D01*
Y66929D02*
Y68898D01*
Y64961D02*
Y66929D01*
Y62992D02*
Y64961D01*
X194882Y98917D02*
X246358D01*
X183071Y110728D02*
X194882Y98917D01*
X177165Y123228D02*
X177165Y123228D01*
X177165Y116634D02*
Y123228D01*
X220078Y52443D02*
X220107D01*
X98721Y170472D02*
X100295Y168898D01*
X221369Y51181D02*
X225590D01*
X220107Y52443D02*
X221369Y51181D01*
X220078Y52443D02*
Y53543D01*
X219614Y51252D02*
X221555Y49311D01*
X216606Y51252D02*
X219614D01*
X221555Y49311D02*
X225492D01*
X215748Y50394D02*
X216606Y51252D01*
X217717Y55905D02*
X218196D01*
X219377Y57087D01*
X215748Y38189D02*
Y50394D01*
Y38189D02*
X223622Y30315D01*
X218504Y49176D02*
X219390D01*
X217716D02*
X218504D01*
X219377Y57087D02*
X225590D01*
X175396Y76003D02*
X193288D01*
X205906Y63386D01*
X190732Y73622D02*
X203150Y61204D01*
X174409Y73622D02*
X190732D01*
X153150Y94882D02*
X174409Y73622D01*
X188592Y72431D02*
X200000Y61024D01*
X173916Y72431D02*
X188592D01*
X152656Y93691D02*
X173916Y72431D01*
X174903Y74813D02*
X191225D01*
X205906Y60132D01*
Y55512D02*
Y60132D01*
X43307Y159843D02*
X75206D01*
X203150Y58268D02*
Y61204D01*
X200000Y61024D02*
X200394D01*
X43307Y150197D02*
X72638D01*
X98721Y156791D02*
Y169291D01*
X95669Y137795D02*
X100394D01*
X95276Y138189D02*
X95669Y137795D01*
X100394D02*
X101575Y138976D01*
Y153937D01*
X98721Y156791D02*
X101575Y153937D01*
X153643Y96072D02*
X174903Y74813D01*
X88288Y96072D02*
X153643D01*
X77953Y106408D02*
X88288Y96072D01*
X77953Y106408D02*
Y138583D01*
X79528Y137008D02*
X80709Y138189D01*
X79528Y106802D02*
Y137008D01*
Y106802D02*
X89066Y97263D01*
X83071Y151181D02*
Y173622D01*
Y151181D02*
X86614D01*
X83071Y143701D02*
Y151181D01*
X77953Y138583D02*
X83071Y143701D01*
X89606Y148189D02*
X95276D01*
X86614Y151181D02*
X89606Y148189D01*
X80709Y138189D02*
X95276D01*
X87795Y94882D02*
X153150D01*
X87302Y93691D02*
X152656D01*
X75197Y105797D02*
X87302Y93691D01*
X76397Y106280D02*
X87795Y94882D01*
X154136Y97263D02*
X175396Y76003D01*
X89066Y97263D02*
X154136D01*
X85827Y194380D02*
X93396D01*
X81604D02*
X85827D01*
Y189370D02*
Y194380D01*
X89676Y191535D02*
X96457D01*
X83298Y186842D02*
X85827Y189370D01*
X85827Y187686D02*
X89676Y191535D01*
X83298Y186802D02*
Y186842D01*
X85827Y183465D02*
Y187686D01*
X79527Y186221D02*
X83071Y189764D01*
X75197Y105797D02*
Y140551D01*
X82776Y180413D02*
X85827Y183465D01*
X79527D02*
Y186221D01*
X76397Y106280D02*
Y150000D01*
X75197Y140551D02*
X75206Y140561D01*
Y159843D01*
Y171753D01*
X76397Y150000D02*
Y179143D01*
Y150000D02*
X78740D01*
X72638Y150197D02*
X72835Y150000D01*
X75197Y182283D02*
X76378Y183465D01*
X76397Y179143D02*
X77667Y180413D01*
X75197Y171762D02*
Y182283D01*
Y171762D02*
X75206Y171753D01*
X330709Y231496D02*
X332750Y229454D01*
X307874Y16535D02*
X332750Y41412D01*
X237007Y16535D02*
X307874D01*
X233268Y30512D02*
X233465D01*
X332750Y41412D02*
Y229454D01*
X259842Y231496D02*
X330709D01*
X258858Y230512D02*
X259842Y231496D01*
X258858Y219488D02*
Y230512D01*
X250000Y27953D02*
X251575Y29528D01*
X245866Y27953D02*
X250000D01*
X240354Y33465D02*
X245866Y27953D01*
X240158Y33465D02*
X240354D01*
X251575Y29528D02*
Y36220D01*
Y39370D02*
X253651Y37294D01*
X249213Y44882D02*
Y96063D01*
Y44882D02*
X253543Y40551D01*
X246358Y98917D02*
X249213Y96063D01*
X130709Y11811D02*
Y20079D01*
X129528Y21260D02*
X130709Y20079D01*
X119882Y21260D02*
X129528D01*
X247047Y39370D02*
X251575D01*
X132283Y10236D02*
X153543D01*
X130709Y11811D02*
X132283Y10236D01*
X225492Y49311D02*
X225515Y49288D01*
X218504Y59055D02*
X218504Y59055D01*
X225590D01*
X225590Y59055D01*
Y51181D02*
X225591Y51181D01*
X219390Y49176D02*
X221321Y47244D01*
X225590D01*
Y39370D02*
X247047D01*
X236614Y33465D02*
X240158D01*
X232677Y37402D02*
X236614Y33465D01*
X225590Y37402D02*
X232677D01*
X226378Y30709D02*
X233071D01*
X233268Y30512D01*
X225590Y31496D02*
X226378Y30709D01*
X225590Y31496D02*
Y35433D01*
X76378Y183465D02*
X79527D01*
X77667Y180413D02*
X82776D01*
X116142Y161417D02*
Y168110D01*
X218898Y138735D02*
X225788D01*
X254921Y219488D02*
X258858D01*
X254823Y219390D02*
X254921Y219488D01*
X248031Y219390D02*
X254823D01*
X244094Y212598D02*
Y224410D01*
X245177Y225492D01*
X248031D01*
X264370Y225645D02*
X264523Y225492D01*
X268701D01*
Y211614D02*
Y219390D01*
X116142Y168110D02*
Y171850D01*
X116142Y171850D02*
X116142Y171850D01*
X81496Y194488D02*
X81604Y194380D01*
X66929Y193701D02*
X71761Y198533D01*
X87402Y196457D02*
X93504D01*
X93504Y196457D01*
X93396Y194380D02*
X93504Y194488D01*
X71761Y198533D02*
X93396D01*
X93504Y198425D01*
X109646Y177559D02*
X110531Y178445D01*
X109350Y177854D02*
X109843Y178347D01*
X106299Y177559D02*
X109646D01*
X103946Y179912D02*
X106299Y177559D01*
X103946Y179912D02*
Y185926D01*
X107480Y181496D02*
X115354D01*
X105512Y183465D02*
X107480Y181496D01*
X105512Y183465D02*
Y186045D01*
X116142Y177953D02*
Y180709D01*
X116142Y177953D02*
X116142Y177953D01*
X115354Y181496D02*
X116142Y180709D01*
X104331Y187226D02*
X105512Y186045D01*
X104331Y187226D02*
Y191535D01*
X109350Y177854D02*
X109843D01*
X102362Y187511D02*
X103946Y185926D01*
X102362Y187511D02*
Y191535D01*
X101969Y168898D02*
X102756Y169685D01*
X100295Y168898D02*
X101969D01*
X102756Y169685D02*
Y185433D01*
X100394Y187795D02*
X102756Y185433D01*
X100394Y187795D02*
Y191535D01*
X121949Y177953D02*
X122047Y178051D01*
X116142Y177953D02*
X121949D01*
X59842Y183563D02*
X63484D01*
X53150D02*
X59842D01*
Y179528D02*
Y183563D01*
X60236Y194488D02*
X64961D01*
X48819D02*
X60236D01*
Y198819D01*
X66929Y187008D02*
Y193701D01*
X63484Y183563D02*
X66929Y187008D01*
X49705D02*
X53150Y183563D01*
X48819Y187008D02*
X49705D01*
X70866Y200394D02*
X93504D01*
X64961Y194488D02*
X70866Y200394D01*
X113976Y21260D02*
X119882D01*
X218898Y170472D02*
X222441Y166929D01*
X252362D01*
X252707Y187057D02*
X252756Y187008D01*
X247490Y187057D02*
X252707D01*
X247441Y187106D02*
X247490Y187057D01*
X142126Y175787D02*
X142126Y175787D01*
X149213D01*
X130709Y185039D02*
X138976D01*
X142126Y181890D01*
X183071Y110728D02*
X183268Y110925D01*
Y116634D01*
X177165D02*
X177165Y116634D01*
X157973Y123425D02*
X159843D01*
X156299Y125098D02*
X157973Y123425D01*
X156299Y125098D02*
Y130217D01*
X164370Y118602D02*
X165748Y117224D01*
X164370Y118602D02*
Y118898D01*
X159843Y123425D02*
X164370Y118898D01*
X220758Y187844D02*
X222580Y189665D01*
X224606D01*
X225591Y180118D02*
X232087D01*
X226181Y180709D02*
Y183661D01*
X224803Y185039D02*
X226181Y183661D01*
X221654Y185039D02*
X224803D01*
X220758Y185935D02*
X221654Y185039D01*
X220758Y185935D02*
Y187844D01*
X225591Y180118D02*
X226181Y180709D01*
X12598Y116142D02*
X23819D01*
X39567Y96260D02*
X40157D01*
X38583D02*
X39567D01*
X36614Y99213D02*
X39567Y96260D01*
X36614Y99213D02*
Y104724D01*
X31299Y110039D02*
X36614Y104724D01*
X31299Y110039D02*
Y116142D01*
X18012Y105020D02*
X23819Y110827D01*
X18012Y104823D02*
Y105020D01*
X16732Y103543D02*
X18012Y104823D01*
X16535Y103543D02*
X16732D01*
X23819Y110827D02*
Y116142D01*
X92520Y177756D02*
Y183858D01*
X98425Y184055D02*
X98622Y183858D01*
X98425Y184055D02*
Y191535D01*
D16*
X268701Y225492D02*
D03*
Y219390D02*
D03*
X142126Y175787D02*
D03*
Y181890D02*
D03*
X232087Y174016D02*
D03*
Y180118D02*
D03*
X254921Y225590D02*
D03*
Y219488D02*
D03*
X248031Y219390D02*
D03*
Y225492D02*
D03*
X39390Y122161D02*
D03*
Y116059D02*
D03*
X113976Y21260D02*
D03*
Y15157D02*
D03*
X119882D02*
D03*
Y21260D02*
D03*
X142520Y21063D02*
D03*
Y14961D02*
D03*
X149409D02*
D03*
Y21063D02*
D03*
X188386Y39272D02*
D03*
Y45374D02*
D03*
X225788Y138735D02*
D03*
Y144837D02*
D03*
X165748Y117224D02*
D03*
Y123327D02*
D03*
X159843Y117323D02*
D03*
Y123425D02*
D03*
X122047Y171949D02*
D03*
Y178051D02*
D03*
X116142Y177953D02*
D03*
Y171850D02*
D03*
X109843Y171752D02*
D03*
Y177854D02*
D03*
X85827Y183465D02*
D03*
Y177362D02*
D03*
X79527Y183465D02*
D03*
Y177362D02*
D03*
X55118Y64173D02*
D03*
Y58071D02*
D03*
D17*
X262795Y219587D02*
D03*
Y225492D02*
D03*
X149213Y175787D02*
D03*
Y181693D02*
D03*
X218898Y138735D02*
D03*
Y144641D02*
D03*
D18*
X49055Y205216D02*
D03*
X38583D02*
D03*
X27008Y23622D02*
D03*
X16535D02*
D03*
D19*
X101378Y199409D02*
D03*
D20*
X96457Y207283D02*
D03*
X98425D02*
D03*
X100394D02*
D03*
X102362D02*
D03*
X104331D02*
D03*
X106299D02*
D03*
Y191535D02*
D03*
X104331D02*
D03*
X102362D02*
D03*
X100394D02*
D03*
X98425D02*
D03*
X96457D02*
D03*
D21*
X109252Y204331D02*
D03*
Y202362D02*
D03*
Y200394D02*
D03*
Y198425D02*
D03*
Y196457D02*
D03*
Y194488D02*
D03*
X93504D02*
D03*
Y196457D02*
D03*
Y198425D02*
D03*
Y200394D02*
D03*
Y202362D02*
D03*
D22*
Y204331D02*
D03*
D23*
X84646D02*
D03*
Y209646D02*
D03*
X256693Y200000D02*
D03*
Y194685D02*
D03*
X82480Y65748D02*
D03*
Y60433D02*
D03*
X233268Y30512D02*
D03*
Y25197D02*
D03*
X240158Y33465D02*
D03*
Y28150D02*
D03*
X247047Y39370D02*
D03*
Y34055D02*
D03*
X195866Y35630D02*
D03*
Y30315D02*
D03*
Y42323D02*
D03*
Y47638D02*
D03*
X145079Y139764D02*
D03*
Y134449D02*
D03*
X168701Y130217D02*
D03*
Y135531D02*
D03*
D24*
X99606Y222342D02*
D03*
Y215453D02*
D03*
X91339Y222342D02*
D03*
Y215453D02*
D03*
X139764Y207283D02*
D03*
Y200394D02*
D03*
X138189Y132677D02*
D03*
Y139567D02*
D03*
D25*
X111614Y214173D02*
D03*
X106299D02*
D03*
X27579Y132791D02*
D03*
X22264D02*
D03*
X73425Y74606D02*
D03*
X68110D02*
D03*
X57087Y190748D02*
D03*
X62402D02*
D03*
D26*
X127461Y192126D02*
D03*
X120571D02*
D03*
D27*
X171486Y206424D02*
D03*
D28*
X213386Y192224D02*
D03*
Y220624D02*
D03*
D29*
X236024Y196063D02*
D03*
D30*
X247441Y187106D02*
D03*
Y189665D02*
D03*
Y192224D02*
D03*
Y194783D02*
D03*
Y197343D02*
D03*
Y199902D02*
D03*
Y202461D02*
D03*
Y205020D02*
D03*
X224606Y187106D02*
D03*
Y189665D02*
D03*
Y192224D02*
D03*
Y194783D02*
D03*
Y197343D02*
D03*
Y199902D02*
D03*
Y202461D02*
D03*
D31*
Y205020D02*
D03*
D32*
X213386Y174213D02*
D03*
X202953D02*
D03*
X148622Y150886D02*
D03*
X138189D02*
D03*
D33*
X225591Y180118D02*
D03*
X219488D02*
D03*
X27579Y138697D02*
D03*
X21476D02*
D03*
X183268Y116634D02*
D03*
X177165D02*
D03*
X176969Y110728D02*
D03*
X183071D02*
D03*
X92520Y183858D02*
D03*
X98622D02*
D03*
X98721Y177165D02*
D03*
X92618D02*
D03*
X98721Y169291D02*
D03*
X92618D02*
D03*
X75394Y194488D02*
D03*
X81496D02*
D03*
D34*
X276378Y201969D02*
D03*
Y178740D02*
D03*
D35*
X23819Y125591D02*
D03*
X27559D02*
D03*
X31299D02*
D03*
Y116142D02*
D03*
X27559D02*
D03*
X23819D02*
D03*
D36*
X24409Y100000D02*
D03*
X16535Y96457D02*
D03*
Y103543D02*
D03*
X32283Y99803D02*
D03*
X40157Y103347D02*
D03*
Y96260D02*
D03*
X126772Y18504D02*
D03*
X134646Y22047D02*
D03*
Y14961D02*
D03*
D37*
X82480Y73032D02*
D03*
Y78543D02*
D03*
D38*
X75787Y65945D02*
D03*
X73228D02*
D03*
X70669D02*
D03*
X68110D02*
D03*
X75787Y43110D02*
D03*
X73228D02*
D03*
X70669D02*
D03*
D39*
X68110D02*
D03*
D40*
X64567Y23622D02*
D03*
X79921D02*
D03*
D41*
X180512Y130217D02*
D03*
Y143799D02*
D03*
D42*
X158858Y138878D02*
D03*
X156299D02*
D03*
X153740D02*
D03*
X151181D02*
D03*
Y130217D02*
D03*
X153740D02*
D03*
X156299D02*
D03*
X158858D02*
D03*
D43*
X155020Y134547D02*
D03*
D44*
X48819Y194488D02*
D03*
Y190748D02*
D03*
Y187008D02*
D03*
X39370D02*
D03*
Y190748D02*
D03*
Y194488D02*
D03*
D45*
X125000Y200394D02*
D03*
Y212008D02*
D03*
D46*
X218504Y28346D02*
D03*
Y89764D02*
D03*
D47*
X225590Y82677D02*
D03*
D48*
Y80709D02*
D03*
Y78740D02*
D03*
Y76772D02*
D03*
Y74803D02*
D03*
Y72835D02*
D03*
Y70866D02*
D03*
Y68898D02*
D03*
Y66929D02*
D03*
Y64961D02*
D03*
Y62992D02*
D03*
Y61024D02*
D03*
Y59055D02*
D03*
Y57087D02*
D03*
Y55118D02*
D03*
Y53150D02*
D03*
Y51181D02*
D03*
Y49213D02*
D03*
Y47244D02*
D03*
Y45276D02*
D03*
Y43307D02*
D03*
Y41339D02*
D03*
Y39370D02*
D03*
Y37402D02*
D03*
Y35433D02*
D03*
X211417D02*
D03*
Y37402D02*
D03*
Y39370D02*
D03*
Y41339D02*
D03*
Y43307D02*
D03*
Y45276D02*
D03*
Y47244D02*
D03*
Y49213D02*
D03*
Y51181D02*
D03*
Y53150D02*
D03*
Y55118D02*
D03*
Y57087D02*
D03*
Y59055D02*
D03*
Y61024D02*
D03*
Y62992D02*
D03*
Y64961D02*
D03*
Y66929D02*
D03*
Y68898D02*
D03*
Y70866D02*
D03*
Y72835D02*
D03*
Y74803D02*
D03*
Y76772D02*
D03*
Y78740D02*
D03*
Y80709D02*
D03*
Y82677D02*
D03*
D98*
X50315Y116142D02*
D03*
X12598D02*
D03*
X51968Y96457D02*
D03*
X60236Y198819D02*
D03*
X59842Y179528D02*
D03*
D99*
X116142Y161417D02*
D03*
X49213Y218110D02*
D03*
D100*
X156693Y117323D02*
X156693Y117323D01*
X159843D01*
X101378Y199409D02*
X104331Y202362D01*
X109252D01*
Y204331D01*
X94882Y207480D02*
X96260D01*
X93566Y206164D02*
X94882Y207480D01*
X93566Y204393D02*
Y206164D01*
X93504Y204331D02*
X93566Y204393D01*
X96260Y207480D02*
X96457Y207283D01*
D101*
X127461Y192126D02*
X134252D01*
X83071Y219741D02*
X85377Y222047D01*
X83071Y215354D02*
Y219741D01*
X85377Y222047D02*
X91043D01*
X91339Y222342D01*
X99606D01*
X139764Y207283D02*
Y212598D01*
X55512Y204439D02*
X84754D01*
X49833D02*
X55512D01*
X49055Y205216D02*
X49833Y204439D01*
X32087Y100000D02*
X32283Y99803D01*
D102*
X75197Y191339D02*
X75272Y191414D01*
Y194367D01*
X75394Y194488D01*
X81102Y209842D02*
X81178Y209767D01*
X84524D01*
X84646Y209646D01*
X15748Y189174D02*
Y203670D01*
X17295Y205216D01*
X19193D01*
X17800Y189174D02*
X18489Y188484D01*
X19193D01*
X15748Y189174D02*
X17800D01*
X38583Y205216D02*
X39764D01*
X24507D02*
X38583D01*
X57087Y186614D02*
Y190748D01*
X288674Y19383D02*
Y123713D01*
X288976Y124016D01*
X288573Y13770D02*
X288674Y13871D01*
X91732Y65748D02*
Y80315D01*
Y59055D02*
Y65748D01*
X82480D02*
X91732D01*
X55118Y84646D02*
X87402D01*
X91732Y80315D01*
Y59055D02*
X94095Y56693D01*
X193307D01*
X206299Y43701D01*
Y26378D02*
Y43701D01*
X223632Y13770D02*
X288573D01*
X220472Y16929D02*
X223632Y13770D01*
X34646Y58071D02*
X55118D01*
X5906Y129921D02*
X8776Y132791D01*
X22264D01*
X5906Y98819D02*
Y129921D01*
Y98819D02*
X8268Y96457D01*
X16535D01*
X109793Y171703D02*
X109843Y171752D01*
X125148Y171900D02*
X125197Y171850D01*
X122096Y171900D02*
X125148D01*
X122047Y171949D02*
X122096Y171900D01*
X55512Y196850D02*
Y204439D01*
X152287Y181571D02*
X152362Y181496D01*
X149334Y181571D02*
X152287D01*
X149213Y181693D02*
X149334Y181571D01*
X42856Y122104D02*
X42913Y122047D01*
X39447Y122104D02*
X42856D01*
X39390Y122161D02*
X39447Y122104D01*
X73425Y74803D02*
X77165Y78543D01*
X73425Y74606D02*
Y74803D01*
X77165Y78543D02*
X82480D01*
Y65748D02*
Y73032D01*
X84754Y204439D02*
X93012D01*
X62523Y187083D02*
X62598Y187008D01*
X62523Y187083D02*
Y190627D01*
X62402Y190748D02*
X62523Y190627D01*
X48819Y190748D02*
X57087D01*
X19193Y188484D02*
X24507D01*
X19193Y205216D02*
X24507D01*
X39370Y190748D02*
X43110D01*
X35433Y190945D02*
X35508Y190870D01*
X39248D01*
X39370Y190748D01*
D103*
X163386Y196850D02*
X186024Y174213D01*
X159449Y200787D02*
X163386Y196850D01*
X146653Y200787D02*
X149449Y203583D01*
Y222441D01*
X159449Y200787D02*
Y221457D01*
X186024Y174213D02*
X202953D01*
X131243Y160883D02*
X289623D01*
X148425Y159449D02*
X148622Y159252D01*
Y150886D02*
Y159252D01*
X289623Y160883D02*
X295276Y166535D01*
X125591Y155230D02*
X131243Y160883D01*
X125591Y114961D02*
Y155230D01*
Y114961D02*
X132677Y107874D01*
X157874D01*
X183465Y82284D01*
X203150D01*
X295276Y166535D02*
Y200394D01*
X295669Y200787D01*
X327559Y125984D02*
Y145276D01*
X319291Y153543D02*
X327559Y145276D01*
X311024Y153543D02*
X319291D01*
X16535Y71850D02*
Y96457D01*
X27008Y23622D02*
X64961D01*
X16535D02*
X16535Y23622D01*
Y58071D01*
D104*
X32283Y194882D02*
X38976D01*
X39370Y194488D01*
X28642Y198523D02*
X32283Y194882D01*
X24507Y198523D02*
X28642D01*
X24286Y195398D02*
X24507Y195177D01*
X22319Y195398D02*
X24286D01*
X19193Y198523D02*
X22319Y195398D01*
X26653Y194804D02*
X34449Y187008D01*
X24881Y194804D02*
X26653D01*
X24507Y195177D02*
X24881Y194804D01*
X34449Y187008D02*
X39370D01*
D105*
X24409Y100000D02*
X32087D01*
D106*
X136614Y82441D02*
D03*
X43307Y160000D02*
D03*
X95276Y148189D02*
D03*
D107*
X136614Y72441D02*
D03*
Y62441D02*
D03*
X43307Y150000D02*
D03*
Y140000D02*
D03*
X95276Y128189D02*
D03*
Y138189D02*
D03*
D108*
X34646Y58071D02*
D03*
Y71850D02*
D03*
X16535D02*
D03*
X311024Y139764D02*
D03*
X308543Y163386D02*
D03*
Y129921D02*
D03*
X311024Y190945D02*
D03*
X308543Y214567D02*
D03*
Y181102D02*
D03*
D109*
X16535Y58071D02*
D03*
X311024Y153543D02*
D03*
Y204724D02*
D03*
D110*
X143701Y189961D02*
D03*
X156496D02*
D03*
X197835Y137795D02*
D03*
X287402Y217520D02*
D03*
D111*
X24507Y208563D02*
D03*
Y205216D02*
D03*
Y201870D02*
D03*
Y198523D02*
D03*
Y195177D02*
D03*
Y191830D02*
D03*
Y188484D02*
D03*
Y185137D02*
D03*
X19193D02*
D03*
Y188484D02*
D03*
Y191830D02*
D03*
Y195177D02*
D03*
Y198523D02*
D03*
Y201870D02*
D03*
Y205216D02*
D03*
Y208563D02*
D03*
D112*
X20650Y213878D02*
D03*
Y179822D02*
D03*
D113*
X7342D02*
D03*
Y213878D02*
D03*
D114*
X159449Y222441D02*
D03*
D115*
X149449D02*
D03*
D116*
X212598Y31299D02*
D03*
Y86811D02*
D03*
D117*
X206693Y108268D02*
D03*
X324803D02*
D03*
Y9843D02*
D03*
X206693D02*
D03*
D118*
X314961Y216535D02*
D03*
Y177165D02*
D03*
X324803Y157480D02*
D03*
X314961Y19685D02*
D03*
X295276Y216535D02*
D03*
X305118Y157480D02*
D03*
X295276Y137795D02*
D03*
X275591Y216535D02*
D03*
Y137795D02*
D03*
X285433Y118110D02*
D03*
X275591Y98425D02*
D03*
X285433Y78740D02*
D03*
X275591Y59055D02*
D03*
X285433Y39370D02*
D03*
X275591Y19685D02*
D03*
X255906Y137795D02*
D03*
X265748Y118110D02*
D03*
X255906Y98425D02*
D03*
X265748Y78740D02*
D03*
X255906Y59055D02*
D03*
X265748Y39370D02*
D03*
X255906Y19685D02*
D03*
X236221Y137795D02*
D03*
X246063Y118110D02*
D03*
Y78740D02*
D03*
X236221Y59055D02*
D03*
X226378Y118110D02*
D03*
X196850Y216535D02*
D03*
X206693Y118110D02*
D03*
X177165Y216535D02*
D03*
X187008Y196850D02*
D03*
X177165Y137795D02*
D03*
X187008Y118110D02*
D03*
X177165Y98425D02*
D03*
X157480Y177165D02*
D03*
Y98425D02*
D03*
X167323Y39370D02*
D03*
X137795Y216535D02*
D03*
Y177165D02*
D03*
X147638Y118110D02*
D03*
Y78740D02*
D03*
Y39370D02*
D03*
X118110Y137795D02*
D03*
X127953Y78740D02*
D03*
Y39370D02*
D03*
X108268Y157480D02*
D03*
Y118110D02*
D03*
Y78740D02*
D03*
Y39370D02*
D03*
X78740Y216535D02*
D03*
X88583Y157480D02*
D03*
Y118110D02*
D03*
X78740Y98425D02*
D03*
X88583Y78740D02*
D03*
X78740Y59055D02*
D03*
X88583Y39370D02*
D03*
X59055Y216535D02*
D03*
X68898Y157480D02*
D03*
X59055Y137795D02*
D03*
X68898Y118110D02*
D03*
X59055Y98425D02*
D03*
X68898Y78740D02*
D03*
X59055Y59055D02*
D03*
X39370Y216535D02*
D03*
Y177165D02*
D03*
X49213Y157480D02*
D03*
Y78740D02*
D03*
Y39370D02*
D03*
X29528Y157480D02*
D03*
Y39370D02*
D03*
X98032Y196063D02*
D03*
X103937D02*
D03*
X104724Y199606D02*
D03*
X100394D02*
D03*
X102362Y202756D02*
D03*
X98032D02*
D03*
X108339Y166410D02*
D03*
X249087Y24678D02*
D03*
X244166Y23694D02*
D03*
X227434D02*
D03*
Y26646D02*
D03*
X209646Y33465D02*
D03*
X216535D02*
D03*
X220472Y80709D02*
D03*
X232283Y77756D02*
D03*
Y83662D02*
D03*
X236220Y74803D02*
D03*
Y78740D02*
D03*
Y82677D02*
D03*
Y86614D02*
D03*
X156693Y117323D02*
D03*
X134252Y192126D02*
D03*
X75197Y191339D02*
D03*
X81102Y209842D02*
D03*
X83071Y215354D02*
D03*
X78740Y43307D02*
D03*
X82677Y56693D02*
D03*
X139764Y212598D02*
D03*
X259842Y183071D02*
D03*
X244094Y179134D02*
D03*
X264764D02*
D03*
X254921D02*
D03*
X269685Y175197D02*
D03*
X259842D02*
D03*
X250000D02*
D03*
X238189D02*
D03*
X237205Y183071D02*
D03*
X236221Y188976D02*
D03*
X235236Y206693D02*
D03*
X238189Y209646D02*
D03*
X232283D02*
D03*
X163386Y135827D02*
D03*
X187992Y140748D02*
D03*
Y144685D02*
D03*
X174213Y140748D02*
D03*
Y144685D02*
D03*
X187008Y148622D02*
D03*
X184055D02*
D03*
X181102D02*
D03*
X178150D02*
D03*
X175197D02*
D03*
X149606Y124016D02*
D03*
X145669D02*
D03*
X141732D02*
D03*
X137795D02*
D03*
X151575Y126969D02*
D03*
X147638D02*
D03*
X143701D02*
D03*
X139764D02*
D03*
X135827D02*
D03*
X157874Y134646D02*
D03*
X155020Y134547D02*
D03*
X152362Y134646D02*
D03*
X236024Y196063D02*
D03*
X238583Y193701D02*
D03*
X233071D02*
D03*
X238583Y198819D02*
D03*
X233071D02*
D03*
X142520Y25197D02*
D03*
X134646Y25984D02*
D03*
X57087Y186614D02*
D03*
X44488Y103150D02*
D03*
X288674Y19383D02*
D03*
Y13871D02*
D03*
X206299Y26378D02*
D03*
X220472Y16929D02*
D03*
X192126Y47638D02*
D03*
X192126Y30315D02*
D03*
X237294Y23336D02*
D03*
X70472Y70866D02*
D03*
X72835Y172441D02*
D03*
X79528D02*
D03*
X177165Y107087D02*
D03*
X220078Y53543D02*
D03*
X217717Y55905D02*
D03*
X218504Y49176D02*
D03*
X218898Y45669D02*
D03*
X205906Y63386D02*
D03*
Y55512D02*
D03*
X203150Y58268D02*
D03*
X200394Y61024D02*
D03*
X83071Y173622D02*
D03*
X83298Y186802D02*
D03*
X83071Y189764D02*
D03*
X78740Y150000D02*
D03*
X72835D02*
D03*
X237007Y16535D02*
D03*
X254724Y229134D02*
D03*
X246850Y30315D02*
D03*
X251575Y36220D02*
D03*
X253543Y40551D02*
D03*
X218504Y59055D02*
D03*
X215551Y144685D02*
D03*
X262795Y215551D02*
D03*
X200787Y35433D02*
D03*
X200591Y42323D02*
D03*
X70472Y61024D02*
D03*
X218110Y42520D02*
D03*
X16142Y138583D02*
D03*
X99606Y211024D02*
D03*
X116142Y168110D02*
D03*
X87402Y196457D02*
D03*
X98819Y174016D02*
D03*
X125197Y171850D02*
D03*
X55512Y196850D02*
D03*
X252362Y166929D02*
D03*
X252756Y187008D02*
D03*
X152362Y181496D02*
D03*
X81102Y7087D02*
D03*
X84252D02*
D03*
X87402D02*
D03*
X90551D02*
D03*
X94095D02*
D03*
Y3937D02*
D03*
X90551D02*
D03*
X87402D02*
D03*
X84252D02*
D03*
X81102D02*
D03*
X122441Y188386D02*
D03*
X119685Y188189D02*
D03*
Y185039D02*
D03*
X122441D02*
D03*
X125197D02*
D03*
X127953D02*
D03*
X130709D02*
D03*
X42913Y122047D02*
D03*
X62598Y187008D02*
D03*
X43110Y190748D02*
D03*
X35433Y190945D02*
D03*
M02*
