G04*
G04 #@! TF.GenerationSoftware,Altium Limited,Altium Designer,19.0.15 (446)*
G04*
G04 Layer_Color=32768*
%FSLAX25Y25*%
%MOIN*%
G70*
G01*
G75*
%ADD119C,0.00394*%
%ADD120C,0.00197*%
%ADD124C,0.00197*%
D119*
X267126Y222441D02*
X270276D01*
X268701Y220866D02*
Y224016D01*
X261221Y222539D02*
X264370D01*
X262795Y220965D02*
Y224114D01*
X261221Y222495D02*
X264370D01*
X262796Y220920D02*
Y224070D01*
X43819Y203248D02*
Y207185D01*
X41850Y205216D02*
X45787D01*
X84646Y205098D02*
Y208878D01*
X82756Y206988D02*
X86535D01*
X97638Y218898D02*
X101575D01*
X99606Y216929D02*
Y220866D01*
X89370Y218898D02*
X93307D01*
X91339Y216929D02*
Y220866D01*
X107067Y214173D02*
X110846D01*
X108957Y212283D02*
Y216063D01*
X137795Y203839D02*
X141732D01*
X139764Y201870D02*
Y205807D01*
X124016Y190157D02*
Y194095D01*
X122047Y192126D02*
X125984D01*
X140551Y178839D02*
X143701D01*
X142126Y177264D02*
Y180413D01*
X149212Y177210D02*
Y180359D01*
X147637Y178785D02*
X150787D01*
X149213Y177165D02*
Y180315D01*
X147638Y178740D02*
X150787D01*
X208169Y172244D02*
Y176181D01*
X206201Y174213D02*
X210138D01*
X222539Y178543D02*
Y181693D01*
X220965Y180118D02*
X224114D01*
X230512Y177067D02*
X233662D01*
X232087Y175492D02*
Y178642D01*
X253346Y222539D02*
X256496D01*
X254921Y220965D02*
Y224114D01*
X246457Y222441D02*
X249606D01*
X248031Y220866D02*
Y224016D01*
X276378Y188386D02*
Y192323D01*
X274410Y190354D02*
X278346D01*
X256693Y195453D02*
Y199232D01*
X254803Y197343D02*
X258583D01*
X24528Y137122D02*
Y140272D01*
X22953Y138697D02*
X26102D01*
X25591Y120866D02*
X29528D01*
X27559Y118898D02*
Y122835D01*
X34646Y112992D02*
Y128740D01*
X20472Y112992D02*
Y128740D01*
X34646D01*
X20472Y112992D02*
X34646D01*
X37815Y119110D02*
X40965D01*
X39390Y117535D02*
Y120685D01*
X23031Y132791D02*
X26811D01*
X24921Y130902D02*
Y134681D01*
X20472Y98032D02*
Y101969D01*
X18504Y100000D02*
X22441D01*
X36220Y97835D02*
Y101772D01*
X34252Y99803D02*
X38189D01*
X68878Y74606D02*
X72657D01*
X70768Y72716D02*
Y76496D01*
X82480Y61201D02*
Y64980D01*
X80590Y63090D02*
X84370D01*
X21772Y21654D02*
Y25591D01*
X19803Y23622D02*
X23740D01*
X70276D02*
X74213D01*
X72244Y21654D02*
Y25591D01*
X112402Y18209D02*
X115551D01*
X113976Y16634D02*
Y19783D01*
X130709Y16535D02*
Y20472D01*
X128740Y18504D02*
X132677D01*
X118307Y18209D02*
X121457D01*
X119882Y16634D02*
Y19783D01*
X140945Y18012D02*
X144095D01*
X142520Y16437D02*
Y19587D01*
X147835Y18012D02*
X150984D01*
X149409Y16437D02*
Y19587D01*
X233268Y25965D02*
Y29744D01*
X231378Y27854D02*
X235157D01*
X240158Y28917D02*
Y32697D01*
X238268Y30807D02*
X242047D01*
X247047Y34823D02*
Y38602D01*
X245158Y36713D02*
X248937D01*
X195866Y31083D02*
Y34862D01*
X193976Y32972D02*
X197756D01*
X195866Y43091D02*
Y46870D01*
X193976Y44980D02*
X197756D01*
X186811Y42323D02*
X189961D01*
X188386Y40748D02*
Y43898D01*
X224213Y141786D02*
X227362D01*
X225788Y140211D02*
Y143361D01*
X218898Y140157D02*
Y143307D01*
X217323Y141732D02*
X220472D01*
X218898Y140113D02*
Y143263D01*
X217323Y141688D02*
X220473D01*
X180512Y135039D02*
Y138976D01*
X178543Y137008D02*
X182480D01*
X145079Y135216D02*
Y138996D01*
X143189Y137106D02*
X146968D01*
X180217Y115059D02*
Y118209D01*
X178642Y116634D02*
X181791D01*
X180020Y109153D02*
Y112303D01*
X178445Y110728D02*
X181595D01*
X164173Y120276D02*
X167323D01*
X165748Y118701D02*
Y121850D01*
X158268Y120374D02*
X161417D01*
X159843Y118799D02*
Y121949D01*
X168701Y130984D02*
Y134764D01*
X166811Y132874D02*
X170591D01*
X136221Y136122D02*
X140157D01*
X138189Y134153D02*
Y138091D01*
X120472Y175000D02*
X123622D01*
X122047Y173425D02*
Y176575D01*
X114567Y174902D02*
X117717D01*
X116142Y173327D02*
Y176476D01*
X108268Y174803D02*
X111417D01*
X109843Y173228D02*
Y176378D01*
X95571Y182283D02*
Y185433D01*
X93996Y183858D02*
X97146D01*
X95669Y175591D02*
Y178740D01*
X94095Y177165D02*
X97244D01*
X95669Y167717D02*
Y170866D01*
X94095Y169291D02*
X97244D01*
X84252Y180413D02*
X87402D01*
X85827Y178839D02*
Y181988D01*
X77953Y180413D02*
X81102D01*
X79527Y178839D02*
Y181988D01*
X78445Y192913D02*
Y196063D01*
X76870Y194488D02*
X80020D01*
X57854Y190748D02*
X61634D01*
X59744Y188858D02*
Y192638D01*
X44094Y188779D02*
Y192717D01*
X42126Y190748D02*
X46063D01*
X36220Y183661D02*
X51968D01*
X36220Y197835D02*
X51968D01*
Y183661D02*
Y197835D01*
X36220Y183661D02*
Y197835D01*
X6693Y196850D02*
X10630D01*
X8661Y194882D02*
Y198819D01*
X55118Y59547D02*
Y62697D01*
X53543Y61122D02*
X56693D01*
X141437Y150886D02*
X145374D01*
X143405Y148917D02*
Y152854D01*
D120*
X271457Y216732D02*
Y228150D01*
X265945Y216732D02*
Y228150D01*
X271457D01*
X265945Y216732D02*
X271457D01*
X34764Y200098D02*
X52874D01*
X34764Y210334D02*
X52874D01*
Y200098D02*
Y210334D01*
X34764Y200098D02*
Y210334D01*
X81693Y201673D02*
X87598D01*
X81693Y212303D02*
X87598D01*
X81693Y201673D02*
Y212303D01*
X87598Y201673D02*
Y212303D01*
X103347Y212205D02*
Y225591D01*
X95866Y212205D02*
Y225591D01*
X103347D01*
X95866Y212205D02*
X103347D01*
X95079D02*
Y225591D01*
X87598Y212205D02*
Y225591D01*
X95079D01*
X87598Y212205D02*
X95079D01*
X114272Y211221D02*
Y217126D01*
X103642Y211221D02*
Y217126D01*
Y211221D02*
X114272D01*
X103642Y217126D02*
X114272D01*
X143504Y197146D02*
Y210531D01*
X136024Y197146D02*
Y210531D01*
X143504D01*
X136024Y197146D02*
X143504D01*
X117323Y188386D02*
X130709D01*
X117323Y195866D02*
X130709D01*
Y188386D02*
Y195866D01*
X117323Y188386D02*
Y195866D01*
X139370Y173130D02*
Y184547D01*
X144882Y173130D02*
Y184547D01*
X139370Y173130D02*
X144882D01*
X139370Y184547D02*
X144882D01*
X198917Y169488D02*
X217421D01*
X198917Y178937D02*
X217421D01*
Y169488D02*
Y178937D01*
X198917Y169488D02*
Y178937D01*
X216831Y177362D02*
X228248D01*
X216831Y182874D02*
X228248D01*
Y177362D02*
Y182874D01*
X216831Y177362D02*
Y182874D01*
X229331Y171358D02*
Y182776D01*
X234843Y171358D02*
Y182776D01*
X229331Y171358D02*
X234843D01*
X229331Y182776D02*
X234843D01*
X257677Y216831D02*
Y228248D01*
X252165Y216831D02*
Y228248D01*
X257677D01*
X252165Y216831D02*
X257677D01*
X245276Y216732D02*
Y228150D01*
X250787Y216732D02*
Y228150D01*
X245276Y216732D02*
X250787D01*
X245276Y228150D02*
X250787D01*
X259449Y212795D02*
X293307D01*
X259449Y167913D02*
X293307D01*
Y212795D01*
X259449Y167913D02*
Y212795D01*
X253740Y202658D02*
X259646D01*
X253740Y192027D02*
X259646D01*
Y202658D01*
X253740Y192027D02*
Y202658D01*
X18819Y135941D02*
X30236D01*
X18819Y141453D02*
X30236D01*
Y135941D02*
Y141453D01*
X18819Y135941D02*
Y141453D01*
X42146Y113402D02*
Y124819D01*
X36634Y113402D02*
Y124819D01*
X42146D01*
X36634Y113402D02*
X42146D01*
X30236Y129839D02*
Y135744D01*
X19606Y129839D02*
Y135744D01*
Y129839D02*
X30236D01*
X19606Y135744D02*
X30236D01*
X13091Y93110D02*
X27854D01*
X13091Y106890D02*
X27854D01*
Y93110D02*
Y106890D01*
X13091Y93110D02*
Y106890D01*
X28839Y106693D02*
X43602D01*
X28839Y92913D02*
X43602D01*
X28839D02*
Y106693D01*
X43602Y92913D02*
Y106693D01*
X76083Y71653D02*
Y77559D01*
X65453Y71653D02*
Y77559D01*
Y71653D02*
X76083D01*
X65453Y77559D02*
X76083D01*
X79527Y68405D02*
X85433D01*
X79527Y57776D02*
X85433D01*
Y68405D01*
X79527Y57776D02*
Y68405D01*
X12717Y18504D02*
X30827D01*
X12717Y28740D02*
X30827D01*
Y18504D02*
Y28740D01*
X12717Y18504D02*
Y28740D01*
X59252Y17126D02*
Y30118D01*
X85236Y17126D02*
Y30118D01*
X59252D02*
X85236D01*
X59252Y17126D02*
X85236D01*
X116732Y12500D02*
Y23917D01*
X111221Y12500D02*
Y23917D01*
X116732D01*
X111221Y12500D02*
X116732D01*
X123327Y25394D02*
X138091D01*
X123327Y11614D02*
X138091D01*
X123327D02*
Y25394D01*
X138091Y11614D02*
Y25394D01*
X117126Y12500D02*
Y23917D01*
X122638Y12500D02*
Y23917D01*
X117126Y12500D02*
X122638D01*
X117126Y23917D02*
X122638D01*
X145276Y12303D02*
Y23720D01*
X139764Y12303D02*
Y23720D01*
X145276D01*
X139764Y12303D02*
X145276D01*
X146654D02*
Y23720D01*
X152165Y12303D02*
Y23720D01*
X146654Y12303D02*
X152165D01*
X146654Y23720D02*
X152165D01*
X230315Y33169D02*
X236221D01*
X230315Y22539D02*
X236221D01*
Y33169D01*
X230315Y22539D02*
Y33169D01*
X237205Y36122D02*
X243110D01*
X237205Y25492D02*
X243110D01*
Y36122D01*
X237205Y25492D02*
Y36122D01*
X244094Y42028D02*
X250000D01*
X244094Y31398D02*
X250000D01*
Y42028D01*
X244094Y31398D02*
Y42028D01*
X192913Y38287D02*
X198819D01*
X192913Y27657D02*
X198819D01*
Y38287D01*
X192913Y27657D02*
Y38287D01*
X192913Y39665D02*
X198819D01*
X192913Y50295D02*
X198819D01*
X192913Y39665D02*
Y50295D01*
X198819Y39665D02*
Y50295D01*
X185630Y36614D02*
Y48031D01*
X191142Y36614D02*
Y48031D01*
X185630Y36614D02*
X191142D01*
X185630Y48031D02*
X191142D01*
X223032Y136078D02*
Y147495D01*
X228544Y136078D02*
Y147495D01*
X223032Y136078D02*
X228544D01*
X223032Y147495D02*
X228544D01*
X172835Y125787D02*
X188189D01*
X172835Y148228D02*
X188189D01*
X172835Y125787D02*
Y148228D01*
X188189Y125787D02*
Y148228D01*
X142126Y142421D02*
X148031D01*
X142126Y131791D02*
X148031D01*
Y142421D01*
X142126Y131791D02*
Y142421D01*
X174508Y113878D02*
X185925D01*
X174508Y119390D02*
X185925D01*
Y113878D02*
Y119390D01*
X174508Y113878D02*
Y119390D01*
X174311Y113484D02*
X185728D01*
X174311Y107972D02*
X185728D01*
X174311D02*
Y113484D01*
X185728Y107972D02*
Y113484D01*
X162992Y114567D02*
Y125984D01*
X168504Y114567D02*
Y125984D01*
X162992Y114567D02*
X168504D01*
X162992Y125984D02*
X168504D01*
X157087Y114665D02*
Y126083D01*
X162598Y114665D02*
Y126083D01*
X157087Y114665D02*
X162598D01*
X157087Y126083D02*
X162598D01*
X165748Y127559D02*
X171653D01*
X165748Y138189D02*
X171653D01*
X165748Y127559D02*
Y138189D01*
X171653Y127559D02*
Y138189D01*
X134449Y129429D02*
Y142815D01*
X141929Y129429D02*
Y142815D01*
X134449Y129429D02*
X141929D01*
X134449Y142815D02*
X141929D01*
X119291Y169291D02*
Y180709D01*
X124803Y169291D02*
Y180709D01*
X119291Y169291D02*
X124803D01*
X119291Y180709D02*
X124803D01*
X118898Y169193D02*
Y180610D01*
X113386Y169193D02*
Y180610D01*
X118898D01*
X113386Y169193D02*
X118898D01*
X107087Y169095D02*
Y180512D01*
X112598Y169095D02*
Y180512D01*
X107087Y169095D02*
X112598D01*
X107087Y180512D02*
X112598D01*
X89862Y186614D02*
X101279D01*
X89862Y181102D02*
X101279D01*
X89862D02*
Y186614D01*
X101279Y181102D02*
Y186614D01*
X89961Y174409D02*
X101378D01*
X89961Y179921D02*
X101378D01*
Y174409D02*
Y179921D01*
X89961Y174409D02*
Y179921D01*
Y166535D02*
X101378D01*
X89961Y172047D02*
X101378D01*
Y166535D02*
Y172047D01*
X89961Y166535D02*
Y172047D01*
X88583Y174705D02*
Y186122D01*
X83071Y174705D02*
Y186122D01*
X88583D01*
X83071Y174705D02*
X88583D01*
X82284D02*
Y186122D01*
X76772Y174705D02*
Y186122D01*
X82284D01*
X76772Y174705D02*
X82284D01*
X72736Y197244D02*
X84153D01*
X72736Y191732D02*
X84153D01*
X72736D02*
Y197244D01*
X84153Y191732D02*
Y197244D01*
X54429Y187795D02*
Y193701D01*
X65059Y187795D02*
Y193701D01*
X54429D02*
X65059D01*
X54429Y187795D02*
X65059D01*
X52362Y66831D02*
X57874D01*
X52362Y55413D02*
X57874D01*
Y66831D01*
X52362Y55413D02*
Y66831D01*
X152657Y146161D02*
Y155610D01*
X134153Y146161D02*
Y155610D01*
Y146161D02*
X152657D01*
X134153Y155610D02*
X152657D01*
D124*
X-10335Y176574D02*
Y216929D01*
X27657Y176574D02*
Y216929D01*
X-10335D02*
X27657D01*
X-10335Y176574D02*
X27657D01*
M02*
